<svg id="Layer_1" data-name="Layer 1" xmlns="http://www.w3.org/2000/svg" viewBox="0 0 1104.01 1062.77"><defs><style>.cls-1{fill:#4b4b4b;}.cls-2{fill:#5a5a5a;}.cls-3{fill:#656565;}.cls-4{fill:#373737;}.cls-5{fill:#595959;}.cls-6{fill:#101010;}.cls-7{fill:#323232;}.cls-8{fill:#fdb294;}.cls-9{fill:#fd9969;}.cls-10{fill:#6c3405;}.cls-11{fill:#9b999a;}.cls-12{fill:#80491a;}.cls-13{fill:#512605;}.cls-14{fill:#83481f;}.cls-15{fill:#804924;}.cls-16{fill:#febfa5;}.cls-17{fill:#795542;}.cls-18{fill:#fb9c6d;}.cls-19{fill:#834c24;}.cls-20{fill:#f5aa87;}.cls-21{fill:#2f0f02;}.cls-22{fill:#532a14;}.cls-23{fill:#52250c;}.cls-24{fill:#3b1202;}.cls-25{fill:#562209;}.cls-26{fill:#febea8;}.cls-27{fill:#cecccd;}.cls-28{fill:#fdcab9;}.cls-29{fill:#fba580;}.cls-30{fill:#f4a17f;}.cls-31{fill:#67381f;}.cls-32{fill:#6a3407;}.cls-33{fill:#cecdcd;}.cls-34{fill:#80491c;}.cls-35{fill:#fc844e;}.cls-36{fill:#6a340a;}.cls-37{fill:#9b9999;}.cls-38{fill:#f7a17a;}.cls-39{fill:#54270a;}.cls-40{fill:#505050;}.cls-41{fill:#fa8754;}.cls-42{fill:#272727;}.cls-43{fill:#4f4f4f;}.cls-44{fill:#3c3c3c;}.cls-45{fill:#fdb498;}.cls-46{fill:#fdb79d;}.cls-47{fill:#471b02;}.cls-48{fill:#f89b71;}.cls-49{fill:#fe9968;}.cls-50{fill:#fbc2aa;}.cls-51{fill:#fbb090;}.cls-52{fill:#febda3;}.cls-53{fill:#fa8953;}.cls-54{fill:#f5a480;}.cls-55{fill:#f5a17d;}.cls-56{fill:#fcae8b;}.cls-57{fill:#ed9570;}.cls-58{fill:#f19773;}.cls-59{fill:#693408;}.cls-60{fill:#fdd4c2;}.cls-61{fill:#462002;}.cls-62{fill:#481a00;}.cls-63{fill:#341303;}.cls-64{fill:#1e0500;}.cls-65{fill:#371102;}.cls-66{fill:#391102;}.cls-67{fill:#68402c;}.cls-68{fill:#2f2d2e;}.cls-69{fill:#312f2f;}.cls-70{fill:#feb195;}.cls-71{fill:#fb9a6a;}.cls-72{fill:#fa9d70;}.cls-73{fill:#fe9869;}.cls-74{fill:#4a1d03;}.cls-75{fill:#f9a987;}.cls-76{fill:#f09770;}.cls-77{fill:#f0a47b;}.cls-78{fill:#502404;}.cls-79{fill:#431c01;}.cls-80{fill:#562607;}.cls-81{fill:#481e01;}.cls-82{fill:#522502;}.cls-83{fill:#65330b;}.cls-84{fill:#582602;}.cls-85{fill:#481a02;}.cls-86{fill:#894820;}.cls-87{fill:#330f01;}.cls-88{fill:#f5844f;}.cls-89{fill:#8c3c10;}.cls-90{fill:#381103;}.cls-91{fill:#67350a;}.cls-92{fill:#461b03;}.cls-93{fill:#975115;}.cls-94{fill:#af5c0c;}.cls-95{fill:#b6671c;}.cls-96{fill:#411902;}.cls-97{fill:#1a0600;}.cls-98{fill:#381202;}.cls-99{fill:#5f3310;}.cls-100{fill:#fd834b;}.cls-101{fill:#3b1304;}.cls-102{fill:#240700;}.cls-103{fill:#fc8854;}.cls-104{fill:#300400;}.cls-105{fill:#5f3628;}.cls-106{fill:#391105;}.cls-107{fill:#39190b;}.cls-108{fill:#491a0b;}.cls-109{fill:#3a180d;}.cls-110{fill:#7b6059;}.cls-111{fill:#5a3421;}.cls-112{fill:#775f5f;}.cls-113{fill:#764f44;}.cls-114{fill:#33160b;}.cls-115{fill:#29130a;}.cls-116{fill:#44241a;}.cls-117{fill:#42261b;}.cls-118{fill:#36190c;}.cls-119{fill:#42241c;}.cls-120{fill:#4b1e05;}.cls-121{fill:#632d03;}.cls-122{fill:#371304;}.cls-123{fill:#240a02;}.cls-124{fill:#35150c;}.cls-125{fill:#52392a;}.cls-126{fill:#5c443d;}.cls-127{fill:#240b01;}.cls-128{fill:#1e0700;}.cls-129{fill:#1b0601;}.cls-130{fill:#1d0400;}.cls-131{fill:#b5651a;}.cls-132{fill:#a05614;}.cls-133{fill:#592b02;}.cls-134{fill:#602a02;}.cls-135{fill:#c06911;}.cls-136{fill:#471b01;}.cls-137{fill:#461b06;}.cls-138{fill:#3b1201;}.cls-139{fill:#745446;}.cls-140{fill:#381101;}.cls-141{fill:#5d311a;}.cls-142{fill:#33160c;}.cls-143{fill:#200d04;}.cls-144{fill:#381509;}.cls-145{fill:#1f0d08;}.cls-146{fill:#251511;}.cls-147{fill:#30120b;}.cls-148{fill:#52342a;}.cls-149{fill:#5f4035;}.cls-150{fill:#2e1109;}.cls-151{fill:#6f4f47;}.cls-152{fill:#382018;}.cls-153{fill:#362118;}.cls-154{fill:#513729;}.cls-155{fill:#451b08;}.cls-156{fill:#441c12;}.cls-157{fill:#7f5d4f;}.cls-158{fill:#390a00;}.cls-159{fill:#170400;}.cls-160{fill:#4a3a2e;}.cls-161{fill:#67564f;}.cls-162{fill:#190802;}.cls-163{fill:#361306;}.cls-164{fill:#481908;}.cls-165{fill:#421b0e;}.cls-166{fill:#35150b;}.cls-167{fill:#351105;}.cls-168{fill:#906f65;}.cls-169{fill:#6c4739;}.cls-170{fill:#735246;}.cls-171{fill:#755c53;}.cls-172{fill:#4a1e11;}.cls-173{fill:#563f38;}.cls-174{fill:#6b594c;}.cls-175{fill:#27100a;}.cls-176{fill:#1b0804;}.cls-177{fill:#4d3b37;}.cls-178{fill:#5c423b;}.cls-179{fill:#644b42;}.cls-180{fill:#2d1814;}.cls-181{fill:#392621;}.cls-182{fill:#180700;}.cls-183{fill:#240e05;}.cls-184{fill:#1c0d05;}.cls-185{fill:#604037;}.cls-186{fill:#371408;}.cls-187{fill:#130400;}.cls-188{fill:#6d5a50;}.cls-189{fill:#372117;}.cls-190{fill:#6f574c;}.cls-191{fill:#a08f84;}.cls-192{fill:#633c2d;}.cls-193{fill:#250f08;}.cls-194{fill:#50342a;}.cls-195{fill:#35180d;}.cls-196{fill:#555252;}.cls-197{fill:#a5a5a5;}.cls-198{fill:#7c5a50;}.cls-199{fill:#57372d;}.cls-200{fill:#360d02;}.cls-201{fill:#26120a;}.cls-202{fill:#361a0c;}.cls-203{fill:#3a3431;}.cls-204{fill:#1a0501;}.cls-205{fill:#3b180f;}.cls-206{fill:#968178;}.cls-207{fill:#675047;}.cls-208{fill:#595957;}.cls-209{fill:#aeaeb0;}.cls-210{fill:#1c1307;}.cls-211{fill:#7b7a7b;}.cls-212{fill:#0d0c0b;}.cls-213{fill:#151312;}.cls-214{fill:#646262;}</style></defs><title>dompet</title><path class="cls-1" d="M2742.27,1175.83c-7.42-10.29-19.16-7.1-29.12-9a169.84,169.84,0,0,1-60.68-24.2c-9.85-.08-15.38,6.19-20.36,13.57-12.21,18-19.45,38-23.7,59.27-3.32,16.59-6.32,33.28-13.38,49.09-4.09-25-3.94-50.06-1.66-75,1.62-17.56,2.61-35.25,6.17-52.61.87-4.21,1.3-8.52-1.46-12.4-10.75-.86-11.11,8.45-13.44,14.75-7.53,20.21-11.45,41.39-12.75,62.83-3.1,52-4.53,104,9.73,154.85,10.09,36,25.41,49.24,62.53,51.87,32.2,2.31,55.3,16.07,71.76,44,24.52,41.65,62.85,66.41,107.5,82.33,4.66,1.66,9.81,5.61,14.52-.3,2.73-29.12.23-58.32,1.4-87.44.84-3.5,1-7.14,2.5-10.48v-3.33c-2.09-2.35-3.54-5.22-5.87-7.39-13.09-12.75-25.84-25.76-35.26-41.65-9.77-16.48-16.29-33.82-15.4-53.32A115.63,115.63,0,0,0,2779,1287c-9.45-26.55-29.81-30.69-48.56-8.82-15.35,17.9-29.2,37.12-43.37,56-8.65,11.52-19.18,20.36-32.59,25.26-6.93,2.52-15.62,5.54-20.95-1.49-4.61-6.1,1.32-12.46,5.18-17.17,30.44-37.2,45.15-81.12,56-127,7-29.42,8.15-29.86,39-34.13C2736.92,1179.21,2740,1178.42,2742.27,1175.83Z" transform="translate(-1738.32 -683)"/><path class="cls-1" d="M2329.76,1524.23c-13.1-8.17-25.58-16.91-36.61-28-8.39-8.47-18.16-16.32-31.29-17-7.49,1.57-15,2.24-22.37-.34l.41-.85c-4-1.23-7.87-2.33-11.37,1.08-14.9,14.71-35.39,21.77-50.38,36.41a422.32,422.32,0,0,0-79.92,102c-14.3,25.6-6.27,41.45,22,49.2,26.25,7.2,52.16.39,78.17-1.73,13.28-1.08,26.31-5.8,39.81-3.66,18.49,2.91,22,10.67,12.41,26.24-15.75,25.54-6.73,47.11,23.12,54.88,4.61,1.2,9.51,1.42,14,3.21l177.28,0c-.95-7.46-7.62-6.47-12.28-7.9-13.35-4.07-26.63-8.21-38.95-14.94-20.71-11.3-29.83-28.47-27.33-51.68,2.14-20-.17-23.58-19.56-30.44a142.16,142.16,0,0,0-40.92-8c-47.58-2.22-95.14-6.17-142-2.56-2-1.15-2.07-2.25-.63-2.72,35-11.45,61.76-36,90.83-56.9,18.51-13.29,39.19-21.89,60.85-28.43,3.53-2.87,4.12-7.55.36-8.86C2330.1,1531.37,2329.2,1528.74,2329.76,1524.23Z" transform="translate(-1738.32 -683)"/><path class="cls-2" d="M2336.21,1539.91c-23.58.89-43,12.69-61.61,25.13-30.93,20.67-57.82,47.65-94.68,58.84-3.35,1-6.09,4-10,6.67,4.23,4,8.67,5.22,13.2,4.79,54.57-5.14,108.86-.78,163.15,4.42,10.31,1,19.58,5.28,29.16,8.56,7,2.39,10.91,7.44,8.24,15-10.65,29.91,8.3,58.69,43.35,70.53,12.56,4.23,25.28,7.89,37.92,11.82h84.14a209.27,209.27,0,0,1,23.39-2.91c8-.69,14.34-3.69,15.46-12.81-46.46-51.56-97.08-98.14-158.08-132.33-19.46-2.78-39-4.9-59.12-9.36,1.83-9.15,9.58-10.7,14.45-14.86,6.58-5.61,11.82-11.28,5.82-20.34-9.08-9-18.18-18-31.83-19.72C2350.68,1532.52,2342.72,1533.72,2336.21,1539.91Z" transform="translate(-1738.32 -683)"/><path class="cls-3" d="M2742.27,1175.83c-42.09.17-42.67,0-52.44,40.83-10.72,44.71-25.88,87.14-55.52,123.26-5.52,6.73-12.14,15.45-6.08,23,5.41,6.75,16.48,4.27,24.33,1.94,12.92-3.84,24.65-11,33.13-21.83,15.16-19.32,29.7-39.15,44.45-58.79,7-9.28,15.53-18,27.55-16.31s15.83,13.37,18.55,24c2.24,8.76,5.69,17.37,4.92,26.68-4,48.19,19.67,82.79,54.76,111.82,9-2.27,4.55-9.6,4.57-14.3.39-50.62.2-101.25.3-151.87,0-5.8-1.07-11.73,1.1-17.41.15-1,.28-2.11.44-3.19q-42.42-29.73-84.86-59.38C2752.71,1181.05,2747.36,1178.65,2742.27,1175.83Z" transform="translate(-1738.32 -683)"/><path class="cls-4" d="M2287.72,1745.62c-10.61-7.08-23.51-9.9-33.35-18.51-11.49-10-13-20.14-4.38-31.75,6.3-8.45,16.78-18.31,9.93-28.08-8.37-11.93-23.62-12.75-38.1-10.4-26.76,4.38-53.55,8.78-80.84,8.72a75.71,75.71,0,0,1-32.46-7.44c-12.1-5.68-15.46-14.87-11.5-27.5,6.93-22,22.52-38.59,35.34-56.84,14.38-20.47,31.1-39,49.11-56.45,2.16-2.84,2.8-5.84,1.08-9.14-6.34-4-11.56.11-16.12,3.15-49.67,33.17-87.09,76.55-109.2,132.45-1.94,4.94-3.75,10.08-2,15.58q-1.68,19.15-3.38,38.28a1.92,1.92,0,0,0,.86,2.76c9,16.48,25.5,27.59,32.79,45.32Q2186.65,1745.74,2287.72,1745.62Z" transform="translate(-1738.32 -683)"/><path class="cls-5" d="M2841.87,1246.88c-4.61,5-2.61,11.17-2.63,16.82-.15,50.06,0,100.15-.17,150.21,0,5.61,2.09,11.86-3.17,16.56,1.23,2.46,3.45,3.09,5.93,3.19Q2841.86,1340.3,2841.87,1246.88Z" transform="translate(-1738.32 -683)"/><path class="cls-6" d="M2839.07,1665.75l2.8,1.94q0-65.45-.08-130.88a5.4,5.4,0,0,0-5.07,3c-4.88,13.94-2.25,28.39-2.57,42.6-.43,20.15-.09,40.29-.13,60.46C2834,1650.87,2834.45,1658.74,2839.07,1665.75Z" transform="translate(-1738.32 -683)"/><path class="cls-7" d="M2839.59,1537l2.22-.19q0-49.92,0-99.85c-.93,2.14-1.85,4.25-2.8,6.39-3.15,30.35-.87,60.76-1.23,91.15C2838.4,1535.34,2839,1536.18,2839.59,1537Z" transform="translate(-1738.32 -683)"/><path class="cls-8" d="M1769.26,1060.17c-4.4,5.33-5.5,11.93-7.14,18.32a202.39,202.39,0,0,0-8,20.55c-10,39.49-1.12,78.64,2.33,117.85.84,9.56,3.56,19.16,3.86,28.63,1.83,57.46,32.7,96.69,77.84,127.66,40.74,27.94,83.47,52.4,127.11,75.43,26.61,14,45.31,37.3,65,59.21,3.92,4.38,7,9.49,10.78,14,10.61,12.62,14.47,12.44,26.16-.87a30.16,30.16,0,0,1,15.77-17.57c1.81-1.51,3-3.28,2.16-5.78-11.07-6.48-16.57-17.76-23.77-27.57-13.53-14.24-27.93-27.8-35.74-46.44a21.52,21.52,0,0,0-7.08-8.8,16.51,16.51,0,0,0-10.52-2.65c-8.59.67-15.27-.5-12.1-11.86.6-2.14-.07-5.33-1.66-5.72-16.85-4.14-16.09-22.89-26.86-31.94-24.46-18.9-52.67-31.34-81.25-41.22-72.13-24.92-108.25-76.25-117.18-149.69-.2-1.6-.54-3.17-.87-4.75a332.21,332.21,0,0,1,0-65.46c1.58-4.75,3.41-9.43,3.65-14.49-.84-6.41.28-12.6,1.57-18.86C1774,1064.94,1775.54,1060.3,1769.26,1060.17Z" transform="translate(-1738.32 -683)"/><path class="cls-9" d="M2065.38,1517.4c-11.75,14.49-12.18,14.53-22.45.19-18.57-25.88-40.21-49.16-66.28-67.12-19.67-13.57-42.28-22.8-63.05-34.86-38-22-74.76-45.47-108-74.76-27.31-24.09-34.64-55-40.12-88.06-6.3-37.92-8.16-76.27-12.62-114.36-1.6-13.61,4.53-26.4,3.11-39.86,1.14-3.35-.39-4-3.28-3.2-20.65,42.45-14.84,86.73-8.52,130.84a609.73,609.73,0,0,0,28,113.48c1.48,5.61,4,10.5,9.29,13.48l.09.08c5.84,7.08,11.41,14.48,19.86,18.79l-.17-.13c4.19,3.63,8.11,7.59,13.27,9.9,46.65,34.62,94.23,68,138.17,106.21,12.16,12.64,24.54,25.06,38.35,36l.09.06c3.51,4.06,6.49,8.59,10.28,12.42l-.13-.19a26.36,26.36,0,0,0,13.05,13.11l3.41,3.43c1.55,1.38,3.24,2.61,4.68,4.12,13.76,14.28,13.76,14.26,26.81-1.36a24.16,24.16,0,0,0,2.76-3.47c13-21.7,29-40.66,50.43-54.59,3.5-2.07,6.3-4.64,6.43-9.08-6.15-10.42-11.69-1.57-17.45.52-3.15,2.37-6,4.94-6.79,9.08-1,1.1-2.07,2.2-3.13,3.3A57.83,57.83,0,0,0,2065.38,1517.4Z" transform="translate(-1738.32 -683)"/><path class="cls-8" d="M1807.67,1012.35a6.73,6.73,0,0,1-.23,2.36c-12.17,14.58-20.58,31.55-26.81,49-6.62,18.62.26,37.92,2.59,56.82.71,5.78,3.73,11.15,4,17.12,5.07,30.74,22.41,54,45.36,73.73,8.48,7.29,18.12,12.1,29.49,7,10.63-4.81,13.8-14.41,14.11-25.15.79-28.62-.89-56.46-16.53-82.18-10.44-17.16-13.65-37.18-14.6-57.11-.86-17.71,7-26.1,24-28,22.71-2.46,31.72,3.08,35.07,22.3,3.12,17.92,3,36.28,6.62,54.16,8.26,27.5,26.23,48.53,45.79,68.5,15,14.3,32.61,25.93,44.8,43.25,2.16,3.06,5.46,5.15,9.68,4.38,3.91-2.16,5.53-5.55,5.42-9.88-1.64-9-9.56-13.74-14-20.86-5.78-5.67-11.65-11.26-19.2-14.64-7.81-1.75-12.59-7.88-18.31-12.67a22.14,22.14,0,0,1-9.81-12.16,57.86,57.86,0,0,0-13.14-16.33,21,21,0,0,1-9.19-10.44,40.26,40.26,0,0,0-2.09-3.73c-3.86-5.15-2.91-11.37-3.86-17.17-3.45-15.79-2.59-31.86-1.68-47.67,1.29-22.77-2.51-44.34-10.4-65.48a35.21,35.21,0,0,0-16.35-19.26,9.09,9.09,0,0,0-4.85-.2c-6.3,3.28-4.75,8.76-4,14.09,1,7.05,1.32,14-4.46,19.48-7.44,4.61-16.12,1.23-23.88,3.58-6.64,1-13.14,6.14-20,.54-3.93-2.61-5.44-9.49-12.23-7C1825.62,1009.14,1813.91,1006.42,1807.67,1012.35Z" transform="translate(-1738.32 -683)"/><path class="cls-10" d="M1750.11,718.28c-.41,6.58-.67,13.14,2.35,19.31,4.55,6-.41,13.58,3.25,19.75l-.08-.26c3.92,3.91.71,9.17,2.59,13.46,3,15.73,3.1,32.1,10.31,46.89,3.53,9.21,8.06,16.33,19.78,17.35,11.47,1,16.37,10.2,18.67,20.66,3.07,12.9,12.49,22.28,18.88,33.3,11.6,20,19.15,41.67,29.12,62.34,4,3.17,9.08,3.64,13.76,5.11a17.72,17.72,0,0,0,9.79-.33c9.71-8.6,1.73-17.16-1.14-24.67-21.23-55.65-46.55-109.33-78.13-160-10.2-16.35-21.16-32.2-30.91-48.85-3.42-5.87-7-12.17-14.34-14.47C1748.94,710,1752.52,715.26,1750.11,718.28Z" transform="translate(-1738.32 -683)"/><path class="cls-11" d="M2055.22,1659.43c20-58.82,57.46-104.44,106.9-140.89,5.93-4.38,12.81-7.49,19.26-11.2,17.09-6.79,32.51-16.67,48.38-25.75,2.5-3.64,6.8-2.24,10.14-3.54-1.17-.9-2.33-1.83-3.49-2.74-10.85-5.37-20.65-1.07-30.59,3-48,19.84-85.74,53.36-121,90.13-15.06,15.71-16.53,15.55-24-5.37-1.57-4.4-1.9-9.64-7.27-11.69a5.09,5.09,0,0,0-4.2,1.49l0,0c-6.82,6-9.77,14.49-14.43,21.87-.58,3.51,1,7.35-1.66,10.57C2017.46,1616.87,2035.55,1638.38,2055.22,1659.43Z" transform="translate(-1738.32 -683)"/><path class="cls-12" d="M1752.8,708.57a951.21,951.21,0,0,1,123.4,231c1.66,4.53,6.13,9.32,1.23,14.6-.28,4.83,2.93,7.57,6.15,10.31s7.33,3.32,10.85,5.29c1,.15,1.94.34,2.91.56,6-6,1.74-11.91,0-17.8a1076.34,1076.34,0,0,0-44.69-120.07c-3.34-7.08-6.83-14.11-10.5-21-10.44-16.18-22.67-31.21-31.23-48.6-2.94-7.74-8-14.08-13.53-20.06-3.6-4.51-6.73-9.4-10.65-13.65-5.93-8.63-14.71-15.47-16.65-26.57-.26-3.41,1.1-7-1.21-10.19-2.07-1.29-4.14-2.56-6.21-3.86-12.64-.86-11.28,8.24-11.61,16.2A5.91,5.91,0,0,0,1752.8,708.57Z" transform="translate(-1738.32 -683)"/><path class="cls-13" d="M1772,818.25c-6.81-15.48-4.85-33.26-12.79-48.44-2.48,1.49-1.16,4.64-2.82,6.47.08,1.21.17,2.42.26,3.6,2.15,5.22-.63,11.07,2.07,16.22.34,9.86-1.28,19.91,3,29.36,4.64,5.89,2,12.23,1.13,18.46,1,24.31,2.35,48.6,2.69,72.9.11,7.81,7.53,12.49,6.58,20.17,8.46,14.58,21.61,23.64,36.28,30.93a25.84,25.84,0,0,1,9.62,7.92,13.25,13.25,0,0,0,3.49,2.69c5.5,2.23,10.57,2.61,14.24-3.21,2.52-4.51,4-9.1,1.16-14.06-12.66-13.07-28.45-22.61-40.72-36.22-8.65-9.6-14-20.1-13.48-33.21C1783.71,866.65,1781.84,841.87,1772,818.25Z" transform="translate(-1738.32 -683)"/><path class="cls-14" d="M2049.21,770.39q-64.12-13.26-128.25-26.51c-7.16-1.14-14.39-2.48-17.26,7,3.24,4.72,8.35,6.45,13.4,8.09,37.44,12.19,75.12,23.51,114,30.22a64.54,64.54,0,0,0,22.22.36,11.29,11.29,0,0,0,6.17-3.64C2063.66,775.72,2055.48,773.69,2049.21,770.39Z" transform="translate(-1738.32 -683)"/><path class="cls-15" d="M1904.2,750.27c4.87-4,10.89-4.94,16.73-6.39-51.5-14.84-102.15-32.2-152.1-51.55-1.1,3.26-2.2,6.5-3.3,9.75a33.19,33.19,0,0,0,11.78,8.11,1170.63,1170.63,0,0,0,114.87,40.7C1896.22,752.08,1900.38,754,1904.2,750.27Z" transform="translate(-1738.32 -683)"/><path class="cls-16" d="M1791.35,1137.2c-5.76-17.84-5.59-36.65-9.13-54.85-1.61-8.35,1.17-15.51,4.4-23.1,6.43-15.12,17.86-27.87,20.82-44.57-19.87,9.17-30.37,26.19-38.18,45.49,5.46,8.59-7.76,16.85-.45,25.48,2.69,2.13,1.16,4.55.82,7.16C1765.77,1120.5,1767.3,1120.2,1791.35,1137.2Z" transform="translate(-1738.32 -683)"/><path class="cls-17" d="M2059,782.86c-1.34,1.14-2.68,2.26-4,3.41-21.85,11-27.7,29.48-16.22,51.37,10.22,0,6.75-9.27,9.64-14.23,2.31-12.58,9.9-21.51,19.93-28.77,7.57-7.14,19.26-5.31,26.89-12.28q-7-2.88-14-5.73l-6.06-.26C2069.5,777.9,2062.64,776.39,2059,782.86Z" transform="translate(-1738.32 -683)"/><path class="cls-15" d="M1752.87,705.43c2.91-9.39,2.91-9.39,9.75-17-4.62-2.85-10.18-8.89-14.63-2.89-5.24,7.07-2.2,15.83,1.15,23.62C1750.88,708.42,1750.58,705.64,1752.87,705.43Z" transform="translate(-1738.32 -683)"/><path class="cls-18" d="M2037.36,1575.2q6-11.16,12-22.32c-1.9.8-4.86,1.08-5.52,2.46-4.56,9.27-9,12.85-16.2,1.94-1.71-2.55-6.52-3-9.88-4.47l3,5.42A31.91,31.91,0,0,0,2037.36,1575.2Z" transform="translate(-1738.32 -683)"/><path class="cls-19" d="M2059,782.86c5.65-1.53,11.65-2.12,16.13-6.52-8.13-4.2-17-5-25.92-5.93-.24,1.77-2.59,5.4.08,4.92C2056.15,774.1,2056.88,779,2059,782.86Z" transform="translate(-1738.32 -683)"/><path class="cls-20" d="M1752.72,1095.35c1.1,1.06,2.18,2.14,3.28,3.19,4.68-5.86,6.4-12.66,6.14-20C1755.67,1082.26,1754,1088.69,1752.72,1095.35Z" transform="translate(-1738.32 -683)"/><path class="cls-21" d="M1762.92,843.9c4.49-6.08,2.85-12.68,1.59-19.22,0-.13-1-.24-1.42-.11a4.73,4.73,0,0,0-1.29.87Q1762.34,834.68,1762.92,843.9Z" transform="translate(-1738.32 -683)"/><path class="cls-22" d="M1827.2,984.85a8.42,8.42,0,0,1,2.78.82c4.38-2.22,6.68-5,2.72-9.62-4.1,3.45-8.24-.23-12.36.05,1.33,2,2.69,4,4,6.1C1825.32,983.11,1826.27,984,1827.2,984.85Z" transform="translate(-1738.32 -683)"/><path class="cls-23" d="M1755.69,757.34c-.75-6.64,3-14-3.25-19.75C1753,744.27,1749.63,751.58,1755.69,757.34Z" transform="translate(-1738.32 -683)"/><path class="cls-24" d="M1756.45,776.28c.93-2.16,1.87-4.31,2.82-6.47-.6-4.4,1.32-9.53-3.64-12.7Q1756,766.68,1756.45,776.28Z" transform="translate(-1738.32 -683)"/><path class="cls-10" d="M1758.78,796.1c.15-5.52,2.13-11.26-2.07-16.22C1756.25,785.43,1756.23,790.93,1758.78,796.1Z" transform="translate(-1738.32 -683)"/><path class="cls-25" d="M1752.87,705.43c-4.92-2.4-2,3-3.71,3.75.32,3,.62,6.08.95,9.1,3.17-2.61,2.43-6.3,2.69-9.71A25.32,25.32,0,0,1,1752.87,705.43Z" transform="translate(-1738.32 -683)"/><path class="cls-4" d="M2839.07,1665.75q.25-64.38.49-128.75l-.6-.41c-1-1.42-2-1.49-3,0-35.13-14.4-69.36-30.13-96.11-58.56A158.65,158.65,0,0,1,2717.2,1447c-15.31-27.22-38.35-41.54-69-42.06-47.91-.82-58.32-27.69-66.63-65.48-9-41.09-8.5-83.13-6.12-124.69,1.77-31,3.56-63,22-90.4,4.68-1.51,9.83-2.52,9.4-9.25-9.34-1.9-17.28,1.6-24.89,6.41-10.59,3.4-14.17,12.44-17.06,21.76a415.48,415.48,0,0,0-17.19,91.3c2.41,15.64-5.31,30.82-2.07,46.48a72.66,72.66,0,0,1,.26,36.67c-.87,7-2.53,14.09,3.84,19.63,3.56.9,3.28-2,4-4,1.55,1.55-.05,3-.46,4.18-2.13,5.87-2.56,12.1-4.42,18-.64,13.51-.32,26.84,7.23,38.81.84,1.94,2.2,3.81,2.44,5.8,3.27,29,14.3,51.94,42.81,65.44,30.37,14.39,51.49,40,73.16,65.14C2721.3,1585.21,2778.78,1627.31,2839.07,1665.75Z" transform="translate(-1738.32 -683)"/><path class="cls-26" d="M2539.47,1114.46c-45.68-31.25-72.1-78.08-100.9-123.22-24-37.53-50.71-73.1-83.25-103.86-18.64-17.6-42.06-24.91-66.37-30-6.78-1.43-13.68-2.25-20.52-3.32-11,17.42-10.56,36.81,4.9,52.82,18,18.59,26.7,40.53,32.7,64.92,6.77,27.55,15.92,54.48,30.84,79,6.13,7.25,11.46,15.1,18.62,21.61a70.66,70.66,0,0,0,47.41,19.09c30.26,9.21,56.34,25.67,80.8,45.36,9.74,7.85,18.61,18.33,33.19,17.32a19.54,19.54,0,0,0,4.31-1.64c6.52-4.74,7.62-12.57,10.87-19.17a49.56,49.56,0,0,1,3.2-7.64C2537.29,1122.18,2539.75,1118.82,2539.47,1114.46Z" transform="translate(-1738.32 -683)"/><path class="cls-8" d="M2339.44,1050.19c-15.7-34.58-28.32-70.12-36.73-107.29-2.12-9.38-7.85-19.6-15-25.84-20.14-17.47-27-37.72-19.24-63.07l-54.69-12.79c-8.61,15.08-21.83,20.3-38.55,18.08-19.35-5.55-39.23-9.92-52.84-26.73-1.49-3.58-2.29-7.74-7.1-8.54-4.53,2.16-5,6.41-5.52,10.64-1.53,15.72,3.95,29,14.45,40.4,22.82,25.06,51.72,38.28,85.05,40.35,30.58,1.9,47.15,18.4,53.49,46.48,7.18,31.86,11.67,64.43,25.75,94.3,5.31,11.26,8.57,24.4,21.79,30.11,3.15-8.45,8.71-12.36,18.2-13.8C2343.88,1070.12,2346.49,1063.41,2339.44,1050.19Z" transform="translate(-1738.32 -683)"/><path class="cls-27" d="M2551.88,1233.76c3.81-28.94,7-58,16.15-86,3.15-9.58,6.73-18.85,13.89-26.29-8.24.08-15.16-4-21.65-8.07-6.93-4.34-12.41-3.6-18,1.62-3.73,3.73-5.44,8.58-7.49,13.24-1.18,2.48-1.85,5.18-3.3,7.57a25,25,0,0,0-1.59,3.82,75.87,75.87,0,0,1-5.72,13.7,26.06,26.06,0,0,0-1.42,4.44c-3.22,16.13-6,32.31-9.28,48.42-1.49,9.73-.8,19.74-4,29.23a482.89,482.89,0,0,0,0,60.63,22.9,22.9,0,0,0,1.55,5.48c4.4,6.68,8.65,13.56,14.61,19,9.1,8.26,16.5,6,20-5.94,1.66-5.71,1.44-11.66,1.25-17.53C2546.14,1275.78,2549.33,1254.81,2551.88,1233.76Z" transform="translate(-1738.32 -683)"/><path class="cls-3" d="M2606.79,1115.11c-2.72,3.52-8.11,4.29-9.4,9.23a563.25,563.25,0,0,0-9.71,124c.11,3.21-.3,6.47.17,9.62,1,6.73.93,17.38,7.1,18,9.21.88,6.17-10.64,7.94-16.29,7.63-24.35,9.08-50.34,18.78-74.2,6.78-16.63,14.43-32.91,30.83-42.75A290,290,0,0,0,2606.79,1115.11Z" transform="translate(-1738.32 -683)"/><path class="cls-28" d="M2116.85,824.72l3.53,9.45c19.8,18.25,43.32,26.38,70.06,25.82,10-3,20.34-5.56,20-19.24q-12.86-6.43-25.71-12.9c-3.45-2.46-7.64-3.38-11.35-5.3-14.34-6.24-29.16-10-45-8.37a20.83,20.83,0,0,0-7.55,1.92C2117.77,818.15,2115.6,820.63,2116.85,824.72Z" transform="translate(-1738.32 -683)"/><path class="cls-19" d="M2126.73,817.43c16.65-1.29,32,5.5,48.05,7.86a3.66,3.66,0,0,0,.67-5c-21.78-18.59-48.47-27.59-74.5-37.85l-5.72-.07c-11-.34-21.11,2.4-29.87,9.36,15.94,9.43,34.77,11.2,51.25,19.18a57.22,57.22,0,0,0,8.54,2.37C2131.45,812.26,2124.74,816.61,2126.73,817.43Z" transform="translate(-1738.32 -683)"/><path class="cls-29" d="M2210.46,840.75c-3.61,8.82-10.21,14.06-19.35,16.26-4.16,5.14-13.91-4-16.05,6.28,14.84,1.49,28.17-.82,38-13.63,2.39-3.13,2.22-5.5.67-8.48C2212.64,841.05,2211.54,840.9,2210.46,840.75Z" transform="translate(-1738.32 -683)"/><path class="cls-30" d="M2536.17,1130.88c4.17-4.45,5.22-10.1,6.11-15.81a13.41,13.41,0,0,0-2.79-.63l-6.66,9.82C2533,1127,2533.58,1129.41,2536.17,1130.88Z" transform="translate(-1738.32 -683)"/><path class="cls-31" d="M2175.45,820.26c-.22,1.68-.43,3.36-.67,5,2.68,3.34,6.39,2.71,10,2.56C2183.52,823,2178.86,822.39,2175.45,820.26Z" transform="translate(-1738.32 -683)"/><path class="cls-26" d="M1791.35,1137.2c-5.22-12.43-24-16.59-20.23-35.14,1-4.87,2.17-9.94,2.91-15s-3.26-1.46-5.22-1.46q-1.62,6.43-3.24,12.85a333.59,333.59,0,0,0,0,70.92c6.6,70.25,36.3,123.61,109.81,152,31.32,12.1,62.53,24.7,90.09,44.5,8.61,3.9,13.25,11.21,18.53,18.78,8.89,12.75,22.8,21,33.09,32.77l6.41,6.47c8.9,18.24,24.24,31.77,35.5,48.29,8.3,8.82,8.84,25.41,25.67,25.73l6.62-6.38c22.21-15,44-30.7,68.57-41.89,3.21-1.25,6.44-2.48,9.68-3.75a8,8,0,0,0,3.06-2.61c-27.89-20.77-52.28-45.36-75.88-70.66-12.4-13.29-17.14-30.33-18.61-48.23l-1.51-1.55c-.71.08-1.42.19-2.11.25-7.34,2.72-8.11-4.14-9.65-7.7-12.74-29.33-28.94-57-42-86.08-2.49-5.5-5.66-10.35-12.19-11.6-16-17.34-31.75-35-51.57-48.34-18.06-7-27.63-23.81-41.48-35.67-3.34-2.87-2.27-6.71-1.38-10.36,1.55-6.4.5-12.53-2.27-18.4-2.2-22.73-4.33-45.49-6.73-68.22a13.29,13.29,0,0,0-3.3-7c-8.36-9.4-37.55-12.51-51.52-4.59-13.2,7.5-13.48,21.39-11.87,33.9a181.6,181.6,0,0,0,21.38,66.07c12.92,23.36,12.34,50.69,9,76.72-2.14,16.72-20.54,20-34.86,7.27C1814,1189.61,1796.2,1167.39,1791.35,1137.2Z" transform="translate(-1738.32 -683)"/><path class="cls-32" d="M2274.52,1268c2.69-14.06,13.91-25.36,13.13-40.55-3.9-5.05-9.36-6.56-15.44-7.31-85.61-10.64-168.35-31.88-246.77-68.27-22.35-10.37-43.92-22.32-62.64-38.8-5-4.44-9.81-10.27-17.79-9.66-6.63,6.38.23,10.31,3.21,14.15,12.38,15.91,27,29.91,40.53,44.79,22.86,25.72,53.9,38.18,84.23,51.71,6.36,2.84,12.83,5.41,19.08,8.49a30.2,30.2,0,0,0,4.45,1.69c36.79,6.94,71.22,20.36,104.22,37.72,3.54,2.65,8.11,3.52,9.14,4-1-1-6.42-.62-9.9-3.88A16.18,16.18,0,0,0,2196,1260c-13.81-5.74-28.34-9.45-42.06-15.42a44.38,44.38,0,0,0-4.47-1.66c-23.72-6.63-47.19-14.2-71.3-19.35-7-.26-14.07-.76-19.35,5.24a6.78,6.78,0,0,0-1.08,4.81c3.26,7.05,9.92,10.05,16.52,11.71,23.19,5.82,43.46,18.21,65.05,27.57,12.28,6.4,25.76,10.74,35.59,21a33.56,33.56,0,0,1-6.47-.45c-6.32-.93-13.93-2.87-14.77,6.45-.71,8,5.17,13.8,12.62,13.44,16.3-.78,23.85,5.69,23.16,22-.13,3.15,3.13,5.46,3.6,8.67l7.72,9.06a22.9,22.9,0,0,0,2.85,3.84c16.76,15,21.76,14.9,31.3-5.56C2247.92,1323.45,2264.62,1297.3,2274.52,1268Z" transform="translate(-1738.32 -683)"/><path class="cls-33" d="M2052.85,1552.62c2.85,8,5.18,16.15,8.63,23.85,5.59,12.47,10.78,13,19.65,2.83,30.13-34.45,63.61-65,104.26-86.75,15.88-8.48,31.8-18.1,51-17.24-8.71-6.79-17.79-13.2-26.07-20.51-11-9.7-23.75-12.27-37.75-11.45l-1.18.3c-2.31,2.7-6,3.28-8.65,5.35-20.06,11-40.7,21.18-55,40.12l-6.54,5.87c-17.79,13.39-32.44,29.83-45.68,47.58C2053.58,1545.26,2051,1548.54,2052.85,1552.62Z" transform="translate(-1738.32 -683)"/><path class="cls-34" d="M1943,1104.82c10.22,1.81,16.07,10.44,23.23,16.29,29,23.68,62.72,38.58,96.95,51.89,62.25,24.22,127.07,39.43,192.85,50.56,10.44,1.77,21.42-.17,31.62,3.88l.78-5.69c4.31-6.47,4.21-13.46,2.46-20.64a11.91,11.91,0,0,0-4.36-6.15,7.21,7.21,0,0,0-4.44-.8c-4.23,2.24-2.74,9.38-8.69,10.25-6.9,4.33-14.07,3.15-21.25,1a33.9,33.9,0,0,0-4.51-1,148,148,0,0,1-18.68-3.15c-64.75-10.2-127.19-27.82-186-57.29-21-13.85-44.77-23-65.24-37.87a225.61,225.61,0,0,1-21.08-17.3c-12.27-11.41-20.64-24-19.71-41.93.58-11.13-1.21-11.69-9.56-10-2.89,19.24-4.33,38.46,1,57.52C1932.58,1098.8,1937,1103,1943,1104.82Z" transform="translate(-1738.32 -683)"/><path class="cls-35" d="M2287.63,1198.78c.26,7.65.54,15.31.8,23a187.39,187.39,0,0,0,70.21,12.68c16.61-.19,30.28,9.36,44.19,17.13,16.24,9.06,32.25,18.55,48.36,27.84,4,1.36,8,2.63,10.5,6.43l-.1-.15c4.53,2.82,10.09,4.12,13.24,9l21.68,13.67c4.94,1.75,10.8,5.07,14.12-1.2,3.69-6.95-5.13-7.83-7.54-12-34-24.44-69.24-46.9-106.47-66.16-10.22-5.28-21.53-8.84-32.5-8.15-28.63,1.79-51.14-8.52-69.5-29.7C2289.59,1191.18,2286.38,1192.93,2287.63,1198.78Z" transform="translate(-1738.32 -683)"/><path class="cls-36" d="M2193.09,1344a36.4,36.4,0,0,0-.06-21.14c-2.76-7.89-9-19-22.48-12.87-5.37,2.43-9.1-.8-12.31-4.68-1.79-2.16-3.06-4.9-1.45-7.29,3.39-5,7.47-1,11.37-.37,4.64.75,9.58,2,13.31-2.5-14.45-11-32-16.16-47.45-25.15-18.21-8.2-36.09-17.15-55.44-22.56-15.2,5.78-3.73,12-.3,18.14,2.2,2.24,4.38,4.48,6.58,6.7,17.26,12.41,36.28,21.83,54.55,32.51C2159.49,1314.86,2175.9,1330,2193.09,1344Z" transform="translate(-1738.32 -683)"/><path class="cls-37" d="M2551.88,1233.76c-6.13,21.42-7,43.61-9.34,65.57-.39,3.69.06,7.44-.18,11.15-.3,4.79-.64,10.33-5.89,12-4.76,1.47-7.26-3.58-10-6.53-4.3-4.64-8.09-9.73-12.1-14.63-4.19,5.33-4.68,11-1.36,16.91,1,4.68,3.17,9.47,2.78,14.07-2.55,31.19,19.5,46.15,40.2,62.12q-1.68-20.74-3.38-41.46c1.31-5.11,2.74-10.22-.86-15.06-3.95-6.44-2.44-13.5-2.27-20.42a113.36,113.36,0,0,0-.09-35Q2550.67,1258.07,2551.88,1233.76Z" transform="translate(-1738.32 -683)"/><path class="cls-1" d="M2391.06,1553c2.56,15.1-10.81,17.49-19,24.18-3.49,2.84-10.24,4.18-9.16,9.88,1.18,6.29,8.32,6.1,13.11,7.05,14,2.78,28.19,4.66,42.34,6.69,4.18.6,8.65,1.07,11.58-3.26C2418.43,1581.43,2408.05,1564.33,2391.06,1553Z" transform="translate(-1738.32 -683)"/><path class="cls-38" d="M2000.74,1188.85c.54,9,10.09,11.89,13.07,19.24,2,6.56,4.25,13,7.94,18.86,16.76,26.76,27.74,56.29,40.81,84.85,2.2,4.79,1.14,15.21,12.12,12.12l.56.13c2.18-9.62-4.46-17.06-6.34-25.69-.69-3.51.06-7.55-3.45-10.09-4.45-6.86-4.36-15.66-9.62-22.18-.11-1.12-.2-2.24-.3-3.36,5-8.69-5.31-12-6.45-18.59-.89-1.94-1.73-3.91-2.48-5.91a29.31,29.31,0,0,0-2.63-6c-12.62-15.42-21.25-34.3-39.15-45.15A6.31,6.31,0,0,0,2000.74,1188.85Z" transform="translate(-1738.32 -683)"/><path class="cls-39" d="M2045.41,1243.77c0,8.09,8.22,11.84,10.12,19l22.75,2.85c5.39-5.2-10.2-10.42,0-15.6-3.6-9.36-13-7.5-20-10.37C2053.5,1239.46,2048.8,1239.61,2045.41,1243.77Z" transform="translate(-1738.32 -683)"/><path class="cls-40" d="M2336.21,1539.91c8.32.11,15.57-3.58,23-6.6l-29.46-9.06c-.33,8.46-8.29-.1-10.44,5C2321.52,1537.87,2335.71,1528.53,2336.21,1539.91Z" transform="translate(-1738.32 -683)"/><path class="cls-41" d="M2513,1318.18c.45-5.63.9-11.28,1.36-16.91a28.78,28.78,0,0,1-1.13-3c-4.16-3.22-8.36-3.93-12.59-.09.36,5,6.58,4,8.5,7.57-4,3.47-8.59,1.62-12.64,2.52C2501.14,1313.07,2506.45,1316.67,2513,1318.18Z" transform="translate(-1738.32 -683)"/><path class="cls-42" d="M2239.47,1478.9c7.37,4.8,14.86,4.27,22.36.34C2254.39,1477.77,2247,1477.26,2239.47,1478.9Z" transform="translate(-1738.32 -683)"/><path class="cls-41" d="M2474.85,1294.63c-1.44-7.38-7.2-8.39-13.24-9C2464.76,1290.51,2469.7,1292.73,2474.85,1294.63Z" transform="translate(-1738.32 -683)"/><path class="cls-41" d="M2461.69,1285.81c-.12-7.62-5.45-6.82-10.5-6.43A15.28,15.28,0,0,0,2461.69,1285.81Z" transform="translate(-1738.32 -683)"/><path class="cls-43" d="M2836,1536.61l1.51.07,1.51-.07q0-46.62.09-93.24c-6.39,8.67-2.68,18.53-2.94,27.78C2835.53,1492.94,2835.94,1514.79,2836,1536.61Z" transform="translate(-1738.32 -683)"/><path class="cls-5" d="M2145.36,1586c43.38-36.71,84.83-73.06,142.57-79.42-13-14.47-44.47-19.72-60.74-10.2-26.29,15.37-46.13,37.76-65.29,60.71C2155.41,1564.85,2144.41,1570.28,2145.36,1586Z" transform="translate(-1738.32 -683)"/><path class="cls-44" d="M2229.74,1481.59c-17.9,5.24-35,12.06-48.38,25.75,0,3.35.07,6.69.09,10.06,13.05-9.75,26-19.68,40.72-26.81C2226,1488.73,2230,1486.92,2229.74,1481.59Z" transform="translate(-1738.32 -683)"/><path class="cls-45" d="M2017.07,1417.49c-9.77-20-30.48-30.5-42.77-48.4-1.45-2.1-5.83-2.16-8.83-3.17,2,5.71,12.6,7.63,7,17-1.56,2.59.86,5.78,4.4,7.2,8.19,3.3,20.49,2.7,13.69,18.71-2.2,5.19,7.29,8.3,12.9,7.93C2008.2,1416.45,2012.65,1414.38,2017.07,1417.49Z" transform="translate(-1738.32 -683)"/><path class="cls-46" d="M2059,1472.27c-8.61-18.46-22.87-32.78-35.51-48.29C2028,1445.4,2045.45,1457.39,2059,1472.27Z" transform="translate(-1738.32 -683)"/><path class="cls-16" d="M1765.57,1169.42V1098.5A159.27,159.27,0,0,0,1765.57,1169.42Z" transform="translate(-1738.32 -683)"/><path class="cls-18" d="M2065.38,1517.4a49.54,49.54,0,0,0,16.14-16.09C2072.59,1503.1,2067.24,1508.49,2065.38,1517.4Z" transform="translate(-1738.32 -683)"/><path class="cls-18" d="M2107.79,1489.12l57.85-39c.73-3.19-.24-4.75-3.74-3.86-27.37,9.17-50.53,24.87-70.63,45.36C2097.28,1494.1,2100.86,1480.6,2107.79,1489.12Z" transform="translate(-1738.32 -683)"/><path class="cls-18" d="M2052.85,1552.62c11-23.58,32.31-38.39,48.42-57.63-23.66,13.61-41.26,32.65-51.93,57.91C2050.5,1552.81,2051.67,1552.73,2052.85,1552.62Z" transform="translate(-1738.32 -683)"/><path class="cls-47" d="M1849,831.28c9.58,25.22,19.7,50.26,28.58,75.71,7.27,20.86,15.73,41.41,19.74,63.3l13.13,15.88c7.16,9.21,8.35,21.44,15.58,30.61,4.66,2.93,8,1.94,9.87-3.39,1.23-3.58,1.19-7.36,1.36-11.09.87-17.55.89-17.55,17.6-12.53,4.79-3.73,2.29-7.74,0-11.24-32.46-49.5-64.92-99-99.3-147.21l-2.14-1.1A5.4,5.4,0,0,0,1849,831.28Z" transform="translate(-1738.32 -683)"/><path class="cls-48" d="M1927.17,1014.83c-4.45-10.2-7-21.52-16.67-28.66,13,31.32,10,64.28,9.68,96.91-.09,7.61,1.73,14.67,3.36,21.87,2.4,5.26,2,11.67,6.48,16.09h0c3.3,4.25,5.91,9,9.7,12.88l12.88,16c2.91,2.93,5.74,5.93,8.82,8.67,6.69,2.91,10.83,9.34,17.34,12.48a7.26,7.26,0,0,0,6.43-1.35c1.29-3.35-.28-6-2-8.59-20.12-19.32-36.39-41.58-50-65.87-6.43-20.19-1.75-40.85-2.61-61.3C1936.62,1026.35,1930.55,1020.83,1927.17,1014.83Z" transform="translate(-1738.32 -683)"/><path class="cls-49" d="M1826.74,1050.29v-35.93c-11.34,12.42-10.57,27.5-12.7,41.69-5.83,38.61,4.72,74.76,17.84,110.39,1.53,4.17,1.33,11.91,7.22,10.72,7-1.4,3-8.82,3.26-13.67.06-1.29-1.55-2.68-2.42-4-4.87,1.21-2.65-3.52-2.65-4.27.37-33-10.48-64.65-12-97.41C1825.23,1055.19,1824.78,1052.54,1826.74,1050.29Z" transform="translate(-1738.32 -683)"/><path class="cls-50" d="M1832.7,976.08c-.91,3.21-1.82,6.4-2.72,9.61,0,4.28-.07,8.57-.09,12.84q5,5,10,9.94c7.34,4.49,13.83-.54,20.67-1.75,7.13-1.91,15.81,4,21.72-4.2-.91-1.3-1.88-2.76-3.43-3.06-11-2.12-19.87-5.2-18.9-19.8.69-10.23.63-19.83,9.62-26.69-4-3.68-9.14-1.76-13.67-2.8-5.74-2.48-9.43,1.53-13.55,4.23-2.61,2.5-5.22,5.05-5.05,9.08C1835.8,967.66,1834.25,971.87,1832.7,976.08Z" transform="translate(-1738.32 -683)"/><path class="cls-51" d="M2074.66,1323.9c-14.11-12-15.27-30.61-22.35-46.05-11.15-24.31-23.23-47.84-38.5-69.78q-1.62,4.83-3.23,9.67c17.25,30.17,32.85,61.19,47.77,92.57,2.72,5.69,5.18,11.65,8.74,16.78C2073.62,1336.52,2072.24,1325.32,2074.66,1323.9Z" transform="translate(-1738.32 -683)"/><path class="cls-52" d="M1913.88,1105c0,2.66-.67,5.52.11,7.94,2.52,7.94-9.38,16.61-4.1,20.12,14.82,9.86,21.94,27.53,38.16,35.18,3.15,1.49,7.29.87,11,1.21C1941.53,1149.64,1924.86,1129.3,1913.88,1105Z" transform="translate(-1738.32 -683)"/><path class="cls-53" d="M1826.74,1050.29c-6.66,13.18-5.46,28.17-2,40.51,7.22,25.88,6.36,52.72,12.74,78.62,4-2.61,1.41-6.73,2.46-9.94C1841.3,1122.4,1832.37,1086.55,1826.74,1050.29Z" transform="translate(-1738.32 -683)"/><path class="cls-54" d="M1894.43,969.76a13.72,13.72,0,0,0-9.21-7.21c-5.22,12.62-1.19,25.28-.22,37.92a9.37,9.37,0,0,0,3.06,4.59c7.72-6.73,7.51-15.37,5.33-24.17C1892.4,976.87,1890,973.1,1894.43,969.76Z" transform="translate(-1738.32 -683)"/><path class="cls-55" d="M1985.12,1169.29c-2.24,0-4.46.07-6.7.09-2,3.66,1.33,4.7,3.17,6.45l19.15,13,3.24-.06c2.61-5.37-2-7.9-4.43-11.33C1995.15,1174,1992.24,1167.93,1985.12,1169.29Z" transform="translate(-1738.32 -683)"/><path class="cls-56" d="M1981.61,1175.85l-3.17-6.45c-3.3-6.92-9.86-9.77-16.16-12.92-2.09,2.16-1.79,4.33,0,6.51C1969,1166.85,1971.92,1176.39,1981.61,1175.85Z" transform="translate(-1738.32 -683)"/><path class="cls-57" d="M1888.06,1005.06c0-1.2-.06-2.41-.1-3.62-2.2-1.51-4.17-1.19-5.89.78-7,5.52-15.38,1.57-23,3.17-.78.64-1,1.31-.78,2s.52,1,.78,1C1868.72,1007,1879,1011.6,1888.06,1005.06Z" transform="translate(-1738.32 -683)"/><path class="cls-58" d="M1859.07,1008.34c0-1,0-2,0-3l-19.18,3.1C1846.39,1018.87,1852.71,1009.72,1859.07,1008.34Z" transform="translate(-1738.32 -683)"/><path class="cls-51" d="M1962.24,1163c0-2.18,0-4.33,0-6.51a10,10,0,0,0-9.66-6.47C1952.75,1156.61,1957,1160.12,1962.24,1163Z" transform="translate(-1738.32 -683)"/><path class="cls-56" d="M1939.72,1133.94c-.37-6.45-4.57-10-9.71-12.88C1931.12,1127,1932,1133,1939.72,1133.94Z" transform="translate(-1738.32 -683)"/><path class="cls-56" d="M1930,1121.06c-1.38-5.67-2.14-11.6-6.47-16.09C1923.61,1111.18,1922.47,1117.87,1930,1121.06Z" transform="translate(-1738.32 -683)"/><path class="cls-59" d="M1837.33,963.48c1.84-2.27,3.65-4.53,5.48-6.8,2.57-11.77-2.24-22.28-6.23-32.69-8.41-22-16.68-44.2-28.41-64.78-2.29-4-1.88-5.24,2.5-5.48-4-13.2-9.16-25-26.48-23-9.17,1-7.34-9-12.15-12.45,4,27.46,7.72,54.9,6.71,82.83-.32,8.76,4.64,16.59,10.57,22.84C1803.68,939,1818.46,953.77,1837.33,963.48Z" transform="translate(-1738.32 -683)"/><path class="cls-60" d="M1882.05,1002.2c2-.26,3.92-.52,5.88-.76,0-13,1.13-26.14-2.71-38.91l-7.79-8.37-7.81-1.19c-10.93-.64-15.49,4.43-13.82,15.25a42,42,0,0,1,0,6.35C1855.8,1001.35,1855.8,1001.35,1882.05,1002.2Z" transform="translate(-1738.32 -683)"/><path class="cls-61" d="M1810.69,853.73c-2.67-1.53-5.34-3.08-11-6.31,17.17,37.48,32.81,72.38,43.12,109.26l13.14-6.53c-5.89-29.53-21.27-54.74-36.82-79.76C1815.76,865,1811.51,860.31,1810.69,853.73Z" transform="translate(-1738.32 -683)"/><path class="cls-62" d="M2120.19,808.61c-17.51-8.09-35.35-15.2-54.85-16.91-10,7.59-18.87,16-19.63,29.72-2.63,5.57.39,12-2.13,17.28-1.62,3.39-2.25-1.25-3.65-1.47-7.09-20.57-1.31-37.33,15.08-51-50.45-2-97.13-19.83-144.64-34.13l-6.15-1.87c-47.24-13.14-92.6-31.71-138.67-48.19,2.07,12.62,11.54,20.45,19.09,29.55,2.91,0,5.11,2.07,7.83,2.63,5.8.65,10.63,2.7,12.64,8.8,12.49,9.56,23.66,20.73,36.56,29.79,23.06,13.85,42.53,32.25,62.74,49.63,22.26,19.18,45.32,37.47,65.83,58.6a43.54,43.54,0,0,0,14.71,9.58c9.82.78,20.15-2.35,29.27,3.82,3.06,1.79,5.72,4.12,8.59,6.19,3.6,2.35,7,4.92,9.1,8.8,6.6,9.4.45,21.59,6.81,31,5.48,2.12,7.06-2.35,7.12-5.6.35-15.12,8.43-14.37,18.9-10a46.37,46.37,0,0,0,10.67,3c12.25,1.08,23.08-4.16,33.37-9.15,14.84-7.2,17.08-21.05,7.23-34.44-3.15-4.27-7-8-9.62-12.64-8-14.48-3.54-30-3.91-45.17-.13-4.87,3.22-7.35,8-8.39C2115.47,817,2121.44,816.4,2120.19,808.61Z" transform="translate(-1738.32 -683)"/><path class="cls-63" d="M1807.44,763.47c7.85,17.94,19.76,33.24,31.77,48.44,5.56,5.65,7.53,13.79,13.39,19.22h0c4.21,1.6,7.57.22,10.4-3,1.49-7.8-3.39-12.89-8.15-17.62a213.6,213.6,0,0,1-22.2-26.25C1825,776.5,1821.41,763.64,1807.44,763.47Z" transform="translate(-1738.32 -683)"/><path class="cls-64" d="M1807.44,763.47c9.42,5.63,15.48,14.62,22.58,22.58,5.11,2,7.53,6.75,11.09,10.4,3.3,3.36,6.14,9.08,12.59,5,2.14-5.48-1.51-8.93-4.33-12.79a192.45,192.45,0,0,0-51.7-48.75c-2.59.39-4.64,1.17-3.28,4.47C1798.75,750.72,1803.08,757.11,1807.44,763.47Z" transform="translate(-1738.32 -683)"/><path class="cls-65" d="M1852.62,831.13c-2.09-8-5.88-14.93-13.39-19.22a49.07,49.07,0,0,0,9.81,19.37C1850.23,831.24,1851.42,831.17,1852.62,831.13Z" transform="translate(-1738.32 -683)"/><path class="cls-66" d="M1794.39,744.36c1.14-1.17,2.28-2.31,3.43-3.47a5.71,5.71,0,0,0,1.53-3.82c-.58-4.79-5.76-3.3-8-5.85-2.29-.47-4.73-3.54-6.75.39Z" transform="translate(-1738.32 -683)"/><path class="cls-22" d="M1810.46,966.43c1.36,5.2,5.56,7.53,9.9,9.71C1820.14,969.78,1816.67,966.69,1810.46,966.43Z" transform="translate(-1738.32 -683)"/><path class="cls-67" d="M2039.93,837.23c-.06,4.21.89,7.88,5.8,11V821.42C2040.19,825.37,2045.45,833.27,2039.93,837.23Z" transform="translate(-1738.32 -683)"/><path class="cls-68" d="M2549.42,1282.38q0,17.5.08,35A48.18,48.18,0,0,0,2549.42,1282.38Z" transform="translate(-1738.32 -683)"/><path class="cls-69" d="M2551.77,1337.83c.28,5,.58,10.05.86,15.06,5.18-7.1,2.26-14.69.19-22.37C2552.48,1333,2552.11,1335.4,2551.77,1337.83Z" transform="translate(-1738.32 -683)"/><path class="cls-8" d="M2516.85,1150.16c-13.7.88-21.64-9.34-30.89-16.54-25-19.42-50.34-37.79-82-44.76-19.22-2.59-26,1.92-26.42,21-.28,13.91-4.51,23.6-17.73,28.62-3.67,8.28,3.8,9.71,8.18,12.28,12.61,7.39,26.74,10.76,41,13.11,19.24,3.15,35.07,11.37,47.8,26.59,10.24,12.28,22.06,23.26,36,31.56,7.39,2.5,10.16-2.37,12.51-7.87a28.83,28.83,0,0,0,1.42-4.36c1.23-5.61.34-11.78,4.33-16.72,3.28-5.35,3.24-11.69,5.2-17.42a54.62,54.62,0,0,0,1.43-9.34C2517.3,1161,2521,1155.36,2516.85,1150.16Z" transform="translate(-1738.32 -683)"/><path class="cls-70" d="M2358.74,1140.43c21.21-3.45,22.37-4.85,22.61-26.74.21-19.93,3.41-23.45,22.58-24.81-16.71-3.36-32.8-7.33-46.33-19.41-6.73-6-9.19-15.7-18.16-19.26,5.63,15-3.43,19.58-15.38,19-13.46-.65-17.1,4.38-13.65,16.5C2310.21,1104,2340.54,1138.36,2358.74,1140.43Z" transform="translate(-1738.32 -683)"/><path class="cls-71" d="M2513.55,1166.19c0,3.17-.05,6.36-.07,9.53-2.5,4-1.42,6.69,3.15,7.94,9.77-8,4.66-20.86,10.07-30.29l-.06.13c2.24-5.37,3.28-11.23,6.36-16.28l0,.08c1.75-3.58,2.8-6.83-3.26-6.53l-9.7,19.28C2517.24,1155.21,2516.52,1161.14,2513.55,1166.19Z" transform="translate(-1738.32 -683)"/><path class="cls-72" d="M2529.7,1130.77c2.61,1.42,3.11,3.88,3.26,6.53,2.46-1.44,3.06-3.81,3.21-6.42-.17-2.68-.67-5.2-3.34-6.62C2530.37,1125.76,2529.66,1128.09,2529.7,1130.77Z" transform="translate(-1738.32 -683)"/><path class="cls-72" d="M2513.55,1166.19c5.11-4.19,6.64-9.82,6.42-16.14a22,22,0,0,0-3.14.09C2515.75,1155.51,2514.65,1160.84,2513.55,1166.19Z" transform="translate(-1738.32 -683)"/><path class="cls-73" d="M2516.74,1182.32c-2.63-1.42-3.15-3.9-3.26-6.58-6.17,3.86-.32,12.42-6.4,16.31-4.06,5.91,1.05,13.37-3.28,19.24l0,0c-4,2.46,2.72,15.51-9.6,9.67-15.87-15.49-31.49-31.24-47.69-46.36-10.5-9.81-24.33-12.33-38-14.88-17.77-3.32-35.27-7.5-49.8-19.26-22.72-12.42-36-33.19-48.36-54.72-22.65-30.91-32.89-66.48-38.61-103.66-2.11-13.81-5.48-27.35-11.22-39.9-8.08-17.69-22.41-29.1-42.21-30-35.72-1.61-66.28-14.12-91.77-39.1-5.74,2.52-5.74,2.52-3.2,11.52.5,1.4,1.08,2.76,1.69,4.1,4.78,15.07,19,20.05,30.21,28.34a31.57,31.57,0,0,0,4.21,1.87c14.52,5.18,29.7,8.22,44.13,13.66,12.71,4.79,24.24,11,30.37,24.05,11.76,22.49,15.06,47.43,20.79,71.65,5.24,22.17,7.79,45,16.18,66.43,4.42,6.56,7.74,13.72,11.45,20.69,18.34,28.06,43.66,48.72,71,67.29,9.15,5.18,17.75,11.41,23.86,13.42-7.19-3-17.82-8.69-28.73-13.74-14.58-7.31-30.11-12.36-45-19-4.7-2.1-9.87-4.45-14.38.8-3.84,10.31-2.72,19.71,5,27.91,9.47,19.75,26.51,31.53,47,31.4,30.95-.19,57.33,9.23,83,25.17,25.82,16.07,51.68,32,76.48,49.63,4.21,0,8.39.07,12.6.09q.26-32.16.5-64.34c.19-11.41-3.17-23.28,4.4-33.71C2517.64,1194.27,2520,1188.06,2516.74,1182.32Z" transform="translate(-1738.32 -683)"/><path class="cls-74" d="M2120.19,808.61c-1.44,3-3.88,6.62-6.86,5.74-18.57-5.52-15.53,7.46-15.66,17.71-.13,10.07,0,20.17,0,30.24,0,4.87-.28,9.9,6.45,10.7,4.68,3.36,8,.84,11-2.61,2.68-4.9,1.25-9.47-1.08-14-5.35-5.65-3.45-12.38-2.84-18.94.66-1.27,1.35-2.54,2.11-3.77.32-3.35-.24-7,3.54-9,1.23-1.83,2.46-3.69,3.69-5.54,1.46-3,5.34-4,6.27-7.48C2125.28,809.19,2122.89,808.59,2120.19,808.61Z" transform="translate(-1738.32 -683)"/><path class="cls-75" d="M2175,863.31c3.8-6.06,12.21-.34,16.05-6.28-26.32.82-49.52-7.87-70.73-22.84-2.52,1.94-3.51,4.58-.34,6.17C2137.79,849.33,2154.85,860.1,2175,863.31Z" transform="translate(-1738.32 -683)"/><path class="cls-76" d="M2113.31,833.72c-.8.26-1.62.49-2.44.69-2.67,7.51-3.3,15,.33,22.39,3.27,3.9,3.51,8.34,2.33,13,.32,8.67,2.91,15.48,13.15,16,1.15-4.29-5.78-8.52-.08-12.83C2117.58,861.48,2112.4,848.62,2113.31,833.72Z" transform="translate(-1738.32 -683)"/><path class="cls-71" d="M2516.57,1201.6c-10.05,10-7.85,21.05-2.81,32.36,4.32-9.21,2.89-19,3.17-28.69.84-.91,1.06-1.75.67-2.52S2516.89,1201.6,2516.57,1201.6Z" transform="translate(-1738.32 -683)"/><path class="cls-72" d="M2516.57,1201.6c.13,1.21.23,2.44.36,3.67a276.39,276.39,0,0,0,9.77-51.87c-7.74,8.11-3.43,20.38-10,28.92C2516.7,1188.75,2516.63,1195.17,2516.57,1201.6Z" transform="translate(-1738.32 -683)"/><path class="cls-72" d="M2533,1137.24c-5.35,4.16-6.9,9.84-6.36,16.28C2531.54,1149.17,2532.87,1143.43,2533,1137.24Z" transform="translate(-1738.32 -683)"/><path class="cls-62" d="M2126.79,811.7c-3.36,1.42-5.72,3.71-6.28,7.48l6.22-1.75c1.4-1.42,2.82-2.84,4.22-4.27Z" transform="translate(-1738.32 -683)"/><path class="cls-77" d="M2161.9,1446.26c1.26,1.27,2.49,2.57,3.74,3.86,3.77-.49,6.4-2,5.76-6.45C2167.88,1443.24,2164.36,1442.83,2161.9,1446.26Z" transform="translate(-1738.32 -683)"/><path class="cls-78" d="M1997.33,1179.21c2.22,3.2,4.45,6.39,6.65,9.58,15.48,12.68,23.72,31.34,37.42,45.49,5.93,3.26,11.84,5,17.58-.43l-.13-3.17c-.11-3.32-2.31-5.65-4.4-9,8.06,3.26,16.37,2.53,23.83,5.74l74.16,19.35c1.27-9.45-6.82-10.29-12.32-11.87q-23-6.63-45.7-14l.06,0c-28.28-10.36-55.89-22-81.6-38C2008.55,1180.27,2003.93,1174.3,1997.33,1179.21Z" transform="translate(-1738.32 -683)"/><path class="cls-79" d="M1997.33,1179.21c18.4,9.21,36.93,18.16,55.15,27.7a137.52,137.52,0,0,0,42,14c-20.25-14-44.71-19.35-65.61-32.29-13.63-8.43-26.55-17.34-37.64-28.9-4.18-1.43-9-4.53-9.81,3.47l3.68,6.08C1989.2,1172.59,1993.26,1175.91,1997.33,1179.21Z" transform="translate(-1738.32 -683)"/><path class="cls-80" d="M1981.44,1163.21c2.26-4,6.19-3.34,9.81-3.47-15.68-18.64-34.19-34.84-48.23-54.92-2.46-4-3.58-9.38-9.81-9.51C1940.82,1124,1960.62,1144,1981.44,1163.21Z" transform="translate(-1738.32 -683)"/><path class="cls-81" d="M2059,1233.85l-17.58.43,1.62,6c5.13,1.92,11,.13,15.92,3.28,6.42,2.25,13.78,1.66,19.34,6.45l54.81,22.56c4,1.4,8.61,4.58,9.6-3.17Q2100.85,1251.58,2059,1233.85Z" transform="translate(-1738.32 -683)"/><path class="cls-79" d="M2094.44,1220.88c12.59,8,26.76,12.06,40.91,15.92,6.78,1.86,13.42,3.11,17.11,9.92h0a258.29,258.29,0,0,1,45.12,16.14l0,0c3.71,2,6.56,2.35,6.4-3.24C2169.5,1241,2133.86,1225.57,2094.44,1220.88Z" transform="translate(-1738.32 -683)"/><path class="cls-82" d="M2142.71,1269.35c-2.31,3.78-6.11,3-9.6,3.17,14.82,10.33,31.94,15.7,48.36,22.63C2172.47,1280.65,2155,1278.84,2142.71,1269.35Z" transform="translate(-1738.32 -683)"/><path class="cls-83" d="M2078.3,1227.4c-9.44-4.1-18.91-8.2-30-13,.41,8.59,4.79,12.88,10.57,16.29C2064.89,1226.82,2071.64,1227.33,2078.3,1227.4Z" transform="translate(-1738.32 -683)"/><path class="cls-78" d="M2197.58,1262.88c-13.59-9.4-28.06-16.39-45.12-16.13C2166.5,1254.92,2181.88,1259.34,2197.58,1262.88Z" transform="translate(-1738.32 -683)"/><path class="cls-84" d="M2204,1259.67c-1.35,2.63-3.79,3.1-6.4,3.23,4.55,9.94,17.23,3.6,22.43,12.47C2218.14,1265.84,2210.78,1263.07,2204,1259.67Z" transform="translate(-1738.32 -683)"/><path class="cls-62" d="M1927.17,1014.83q1.71,9.61,3.43,19.2a10,10,0,0,1,2.56,9c-5,30.13,15.71,45.86,35.29,61.63,21.7,17.47,47.86,27.69,71.46,42.14,13.78-2.63,5-12.75,6.49-19.45a12.48,12.48,0,0,0-2.89-6.41c-13.33,2.24-23.83-2.78-33.09-14.3,6.93-1.92,15.79-1.62,18.6-10.42,2.61-8.19-.58-15.74-2.4-23.47-2-5.73-5.93-10.09-10.24-14-18.62-17-33.52-37-47.28-58-3.22-4.92-5.22-12.06-13.37-11.69-2.53-1.94-5.16-3.78-7.55-5.87-3.45-3-7.21-4.81-11.67-2.7s-3.19,6.34-3.3,9.9q-.3,10.42,0,20.84C1933.4,1016.3,1930.71,1016.11,1927.17,1014.83Z" transform="translate(-1738.32 -683)"/><path class="cls-85" d="M2042.89,1127.4c-2.76,6.17,6.4,14.18-3,19.33,37.83,21.66,79.29,33.8,121,44.84,22.59,6,45.06,13.55,68.92,13.35.88-7.27-5.27-8.77-9.73-10.54-15.79-6.26-30.54-14.78-46.29-21.06-9.17-6.16-19.07-11.23-27.48-18.57-20-3-33.34-17.27-48.29-28.77a25.83,25.83,0,0,0-4.92-4.25c-4.72-3.19-10.48-3.67-15.59-5.89a38.67,38.67,0,0,0-5.59-2.48c-2.67-.56-5.44-.21-8.13-.67-4.19-.77-8.39-1.74-12.6-.06C2044.5,1115.35,2047.7,1123.63,2042.89,1127.4Z" transform="translate(-1738.32 -683)"/><path class="cls-65" d="M2171.78,1175.87c18.42,11.54,40.14,16.5,58,29.08,6.06,3.51,12.7,3.19,19.34,3,4.6-8-.3-14-4.14-20.19-5.17-5.24-11.82-8.07-18.4-11a32.75,32.75,0,0,0-9-1.58c-5-.21-10,.24-14.89-1.59-4.05-1.4-7.48-4-11.15-6.11a26.2,26.2,0,0,0-4.14-1.72c-4.51-1.25-9-2.93-13.59-.39C2170.64,1168.41,2168.46,1171.6,2171.78,1175.87Z" transform="translate(-1738.32 -683)"/><path class="cls-86" d="M2275,1204.86c12,3.3,4.16-6.54,6.41-9.69,5.22-5.28,3.75-12.55,5.63-18.83-.3-10.37-1.84-20.68-2.09-31.08a26.46,26.46,0,0,0-1.1-4.55c-1.36-3.6-2.46-7.33-4.58-10.63a21.29,21.29,0,0,0-3.43-3.28c-5.19-1.68-8.86-11.82-16-3-.93,24.14,7.74,47.17,8,71.18a18.66,18.66,0,0,0,1.31,5.07A8.38,8.38,0,0,0,2275,1204.86Z" transform="translate(-1738.32 -683)"/><path class="cls-87" d="M2271.91,1201.26a8.88,8.88,0,0,0,0-2.91c-3.56-6.13-5.72-13.49-13.74-15.75-5.31-1-10.59-3-16-.56-1.47,2.33-1.12,4.51.52,6.58,2.18,6.45,4.33,12.92,6.51,19.37l1.53.21,1.53,0c4.77,3.19,9.9-.19,15,.86C2272.86,1210.19,2274.37,1206.3,2271.91,1201.26Z" transform="translate(-1738.32 -683)"/><path class="cls-88" d="M2281.1,1140.56q1.35,17.84,2.71,35.68c-.73,6.38-2.2,12.81,1.06,19,.93,1.18,1.83,2.37,2.76,3.55a11.57,11.57,0,0,1,6.62-6.77c-.77-9.7-4.68-19.09-3.21-29C2289.12,1154.86,2292.68,1144.36,2281.1,1140.56Z" transform="translate(-1738.32 -683)"/><path class="cls-65" d="M2271.91,1201.26c-3.52,11-14.17,1.61-19.7,6.9,8.2,3,16.76,8.63,22.78-3.3C2274,1203.65,2272.94,1202.46,2271.91,1201.26Z" transform="translate(-1738.32 -683)"/><path class="cls-89" d="M2284.87,1195.2c-.34-6.32-.71-12.64-1.06-19-4.5,5.84-1.55,12.64-2.41,18.93C2282.56,1195.17,2283.73,1195.2,2284.87,1195.2Z" transform="translate(-1738.32 -683)"/><path class="cls-78" d="M2059,1243.53c-4.64-4.31-9.84-5.89-15.92-3.28.8,1.19,1.57,2.36,2.37,3.54C2049.92,1243.68,2054.45,1243.6,2059,1243.53Z" transform="translate(-1738.32 -683)"/><path class="cls-65" d="M1955.79,989c20,30,42.08,58.3,67.71,83.75a42.68,42.68,0,0,0,19,18.91c3,1.23,6.08,2.72,8.61-.86,3-6.25,2.26-12.9,1.87-19.48a31.58,31.58,0,0,0-.86-4.72c-1.75-5.11-2-10.63-4.08-15.66-2.35-3.77-4.87-7.46-7.09-11.34-20.58-12.25-31.15-33.59-44.43-51.79-25.52-34.94-50.07-70.53-79.12-102.71a63.47,63.47,0,0,1-4.59-6.58c-10.79-17.41-27.68-29.55-39.65-46-2.39-3.28-5.8-6.53-10.89-4.63l-9.71,3.23Q1903.3,907,1954,983C1955.08,984.64,1955.21,987,1955.79,989Z" transform="translate(-1738.32 -683)"/><path class="cls-90" d="M2075.09,924.55c-9.08-3-18.83-9.71-27.07-8.18-11.82,2.2,0,17.73-8.39,24.29a337.56,337.56,0,0,1-49.05,19.89c1,5.56,5.63,5.84,9.86,6.75,8.52.1,17.19,1.23,25.1-3.26,6.65-6.49,11.22-4.79,16.38,2.63,9.53,13.72,20.83,25.65,39.06,27.31,6.49-2.83,10.63-8.26,14.9-13.53,5.7-10.44,16.89-16.32,22.41-27a9,9,0,0,0-.49-4.46C2106.73,935.33,2090.58,930.54,2075.09,924.55Z" transform="translate(-1738.32 -683)"/><path class="cls-66" d="M1984.61,888.57c-42.62-39.49-86.28-77.78-131.88-113.82-3-2.37-5.69-4.88-9.79-4.85-4.59,4.53-2.5,9.64.54,13,9.64,10.64,14.73,24.91,26.87,33.46,10.79,7.59,16.7,19.47,24.57,29.42,12.92,16.3,29.25,29.35,41.44,46.18a20.48,20.48,0,0,0,3.47,3c8.28,3.86,16.28,11.07,23.81-2.13,3.52-6.17,9.43.82,14.32.84a6.88,6.88,0,0,0,6-2.83C1984.2,890.06,1984.39,889.32,1984.61,888.57Z" transform="translate(-1738.32 -683)"/><path class="cls-91" d="M1991.25,960c19.67,2.46,35.31-5.22,48.38-19.3-1.49-11.93,4.42-25.19-6.54-35.37-4.53,4.22-3.4,9.64-2.78,14.73.93,7.61-1.64,13.26-8.19,17.17-7.77,9.27-17.43,13.58-27.25,11.56,10.27.47,21.83-1,27.22-14.91a8.93,8.93,0,0,0-1.74-4.4c-14.39-8.37-30.59-10.13-46.53-12.87-4.74,3.36-3.71,7.61-2.59,11.25-1.61-2.82-1.76-6.4.78-10,.6-5.85-3.24-8.39-7.76-10.46a4.76,4.76,0,0,0-4.08,2.54C1955,936.15,1968.47,957.81,1991.25,960Z" transform="translate(-1738.32 -683)"/><path class="cls-92" d="M2075.09,924.55q21,12.9,41.95,25.81c12.75-.41,20.12-7.72,24.44-19-5.65-14.49-12.77-28.49-15.44-44l.64-1.47q-6.57-8-13.15-16l-9.45,3.17c-.09,6.14,4.83,9.14,8.24,13.13,9.42,11.07,7.81,25.22-5.7,29.55C2096.38,919,2086.69,925.8,2075.09,924.55Z" transform="translate(-1738.32 -683)"/><path class="cls-65" d="M1939.66,892.34c-7.68-19.88-27.37-29.57-39.22-46.33-14.56-20.6-33.1-38.37-50-57.35-4.77-5.37-7.94-11.34-7.53-18.76-12-9.45-22-21.4-35.46-29-2.76-2.46-5.28-5.61-9.66-3.26v3.24c15.64,17.38,35.78,30.36,48.88,50.29,2.32,3.54,6,6.15,6,10.94,5.2,13.46,17.73,20.9,26.44,31.49,15.17,18.44,29.49,37.77,47.3,53.92C1930.21,891,1933.14,896.48,1939.66,892.34Z" transform="translate(-1738.32 -683)"/><path class="cls-93" d="M2023.67,937.23c14.9,3.86,9.73-8.93,11.13-14.71,1.27-5.31-1-11.45-1.73-17.21-1.74-4.12-5.11-6.19-9.19-7.4-3.08,4.44-2.69,9.83-4.14,14.75-.47,6.21-1,12.45.22,18.64.06,1,.15,2.05.24,3.06C2021.23,935.48,2021.62,937.34,2023.67,937.23Z" transform="translate(-1738.32 -683)"/><path class="cls-94" d="M2023.5,911.67c.58-4.57,2.52-9.12.41-13.78-2.29-1.86-4.58-3.69-6.84-5.52-10.14-2-20.21-4.92-30.61-1.47-4.83,2.76-10,5.13-12.21,10.87,0,2.72,1.38,4.29,3.93,5,15-7.35,29.44-11.17,41.24,5.44A3.47,3.47,0,0,0,2023.5,911.67Z" transform="translate(-1738.32 -683)"/><path class="cls-95" d="M1984.82,892.37h32.25c-10-8.31-21.23-6.09-32.44-3.8l.39,1.08c-1.06.54-1.43,1.12-1.15,1.74S1984.48,892.37,1984.82,892.37Z" transform="translate(-1738.32 -683)"/><path class="cls-96" d="M1797.82,737.65c3.21,1.08,6.43,2.18,9.66,3.26-.86-10.72-8.84-9.6-16.11-9.69Z" transform="translate(-1738.32 -683)"/><path class="cls-97" d="M1939.66,892.34c-11.18-5.17-18.25-15.05-26.15-23.68-20.25-22.22-37-47.65-60.86-66.54-9.3-2.89-11-16.46-22.63-16.07,7.61,16.37,25.11,25.13,32.29,41.85l48.31,51.57c10.27,13,22.91,23.87,33.57,36.56,3.64,4.33,7.74,11.13,14,8.21,5.22-2.43,1.77-9.68,2.24-14.77-5-8-14-11.22-20.72-17.13Z" transform="translate(-1738.32 -683)"/><path class="cls-71" d="M2494.2,1220.91c.54,2.46.73,6.17,4.25,5,7.37-2.48,4.87-9.25,5.37-14.67C2499.66,1213.51,2501.36,1221.62,2494.2,1220.91Z" transform="translate(-1738.32 -683)"/><path class="cls-71" d="M2503.8,1211.29c6-5.59,2.22-12.82,3.28-19.24C2501.34,1197.68,2504.85,1204.86,2503.8,1211.29Z" transform="translate(-1738.32 -683)"/><path class="cls-98" d="M2236.4,953.41c-7.2-17.37-23.57-22.31-39-27.76-12.51-4.4-25.62-7.06-38.47-10.49-7.34,6.88-16.53,12.34-18.17,23.6,3.26,13.8,15.49,16.82,26.28,20.6a123.59,123.59,0,0,1,34.83,19.09c20.56,15.74,25.58,38.24,26.94,62.29-.73,11,5.09,21.74,1.77,32.94a20.51,20.51,0,0,0,.15,4.76c1.49,5.29,1.38,11,4.08,16a3.87,3.87,0,0,0,4.14,1.32c4-12.3,15.14-21.74,14.51-36C2249.28,1024,2248.05,987.89,2236.4,953.41Z" transform="translate(-1738.32 -683)"/><path class="cls-99" d="M2236.4,953.41q5.67,48.52,11.31,97.06c.49,4.18,1,8.34,1.51,12.53,1,16.91,2.84,33.71,6.75,50.25,1.18,3.43,2.93,6.41,6.34,8.07,4.2,3.11,8.41,6.19,12.62,9.3,4.33-9.28-.67-19.11,1.66-28.49-.11-2.42.21-4.94-1.79-6.86-11.84-40.06-16.24-81.86-29.06-121.68C2243.46,966.54,2241.86,959.06,2236.4,953.41Z" transform="translate(-1738.32 -683)"/><path class="cls-100" d="M2281.1,1140.56c6.68,6,1.2,17.32,9.92,22.39l58,22.63c5.5,1.2,7.29-1.32,6.45-6.45-24.42-16-46.74-34.28-64.36-57.83-1.86-2.46-4.32-4.49-6.47-6.71-13.87,7-2.66,17.32-3.45,26Z" transform="translate(-1738.32 -683)"/><path class="cls-101" d="M2126,887.34c-3.43,17,4,30.61,13.48,43.61,9.51-2,15.55-7.31,16.56-17.4C2144.87,906.21,2133.67,898.81,2126,887.34Z" transform="translate(-1738.32 -683)"/><path class="cls-102" d="M2156.08,913.55c-3.58,7.65-9.68,12.89-16.56,17.4-5,9.39-14.43,13.61-22.5,19.41,0,1.06,0,2.1-.07,3.15a5.78,5.78,0,0,0,4.3,4.58,8.78,8.78,0,0,0,4.29-1c6.9-5.55,13.85-11.07,17.25-19.7,3.69-8.64,15-11.75,16.12-22.28Z" transform="translate(-1738.32 -683)"/><path class="cls-103" d="M2355.53,1179.13a11.2,11.2,0,0,1-6.45,6.45c11.74,8.21,25.07,12.29,39.3,14.34Q2371.94,1189.49,2355.53,1179.13Z" transform="translate(-1738.32 -683)"/><path class="cls-88" d="M2281.23,1140.65c1.81-8.59-3.15-18.1,3.45-26-1.53-7.33-4.32-14.06-9.88-19.32-.26,2.28-.5,4.55-.76,6.84-1.79,10,1.15,19.26,3.91,28.62C2278.81,1134.09,2278,1138,2281.23,1140.65Z" transform="translate(-1738.32 -683)"/><path class="cls-104" d="M2111.2,856.8l-.33-22.39C2105.35,841.94,2104.94,849.42,2111.2,856.8Z" transform="translate(-1738.32 -683)"/><path class="cls-85" d="M2042.84,1088.88l-19.34-16.13c.69,3.64,1.18,7.35,2.11,10.93,3.11,12-.07,18.92-13.85,18.16-4.1-.23-10-1.35-11.24,3.63-1.53,6.25,5.46,4.4,8.46,6.49,5.85,4.06,10.25,9.62,17.36,12.62,7.29,3.06,12,2.46,16.57-3.47,9.23-3,3.6-8,1.64-12.49a4.46,4.46,0,0,0-4.21-.95c-5,3.49-9.7-1.79-14.67-.71,5.07-1.38,10.23,4.5,15.25-.13C2044.44,1101.13,2046.68,1095.33,2042.84,1088.88Z" transform="translate(-1738.32 -683)"/><path class="cls-105" d="M2043,1108.25c-1.25,4.29,5.52,8.59,0,12.86,0,2.11,0,4.2,0,6.32,9.21.06,4.16-10.59,9.87-13.14a4.22,4.22,0,0,0,0-4.25C2050,1107,2046.9,1105.1,2043,1108.25Z" transform="translate(-1738.32 -683)"/><path class="cls-106" d="M2049.27,1066.36c0,1.08,0,2.16,0,3.22,4.79,9.51,5.39,18.91-.64,28.17,2.52,12.7,15.83,10.67,23.12,16.91,1.1,1.08,2.2,2.13,3.3,3.21,5.39,1.75,11.17,1.34,16.61,3a17,17,0,0,0,6.62-.37,14,14,0,0,0,8.22-7.4c2-5.5,5.15-10.65,5-16.78-1.33-5.18-5.35-8.46-8.75-12.14-2.53-2.53-5-5.07-7.51-7.66-7-6.45-12.77-14.65-23.58-15.1C2064.56,1064.49,2055.12,1057.39,2049.27,1066.36Z" transform="translate(-1738.32 -683)"/><path class="cls-107" d="M2094.61,1126.86c15.27,13.12,28,30.59,51.38,29.73a5.82,5.82,0,0,0,1.48-3.93c-2.09-6.23-8.67-7-12.94-10.55a114.09,114.09,0,0,1-12.16-8c-5-4.16-11-6.62-16.93-9.18C2101.55,1124.1,2097.8,1123.87,2094.61,1126.86Z" transform="translate(-1738.32 -683)"/><path class="cls-108" d="M2071.77,1114.68c-3.15-11.43-16.65-8.41-22.48-16.11,1.94-2.2,1.71-4.36-.08-6.5-2.14-1-4.25-2.11-6.39-3.17-1.06,6.45-4.36,12.51-3.23,19.33h0l3.34,0,9.75,3.41c3.84,2.67,10.42-.28,12.47,6.08C2067.37,1116.71,2069.57,1115.69,2071.77,1114.68Z" transform="translate(-1738.32 -683)"/><path class="cls-109" d="M2146,1153.31c0,1.08,0,2.18,0,3.26,4.63,11.71,17.47,12.51,25.82,19.28,1.07-3.22,2.17-6.43,3.25-9.64C2168.38,1155.16,2157.61,1153.31,2146,1153.31Z" transform="translate(-1738.32 -683)"/><path class="cls-110" d="M2094.61,1126.86l12.4.26c.41-7.35-6.64-6.06-10.2-8.8l-5.59,1.51a2.19,2.19,0,0,0-.86,2.38c.28.79.56,1.18.84,1.18C2092.34,1124.54,2093.47,1125.7,2094.61,1126.86Z" transform="translate(-1738.32 -683)"/><path class="cls-111" d="M2085.79,1142.46c3.58-5,7.12-9,2.87-11.37-5.61-3.17-3.24,2.91-3.8,5.09C2084.49,1137.54,2085.25,1139.2,2085.79,1142.46Z" transform="translate(-1738.32 -683)"/><path class="cls-112" d="M2091.2,1123.39c0-1.21,0-2.39,0-3.58-5.3-1.38-10.46-3.84-16.15-1.92C2079.45,1122.66,2086.07,1120.87,2091.2,1123.39Z" transform="translate(-1738.32 -683)"/><path class="cls-113" d="M2065.15,1117.72c-.69-9.1-7.62-5.5-12.47-6.08a11.55,11.55,0,0,0,.09,2.63C2056.91,1115.41,2061,1116.58,2065.15,1117.72Z" transform="translate(-1738.32 -683)"/><path class="cls-114" d="M2146,1153.31l29,12.9,13,3.12c4.11-5.88-.72-9.68-3.28-14a17.11,17.11,0,0,0-4.9-4.22c-3.71-1.79-7.35-3.71-10.09-6.95-4.81-5.05-8.46-12-17.15-11-6.36,3.76-18.55-3.34-19.52,10.44C2134.77,1150.33,2142.75,1148.67,2146,1153.31Z" transform="translate(-1738.32 -683)"/><path class="cls-115" d="M2217,1179.06c3.15,0,6.32,0,9.47,0,3-2.25,3.58-5.48,3.86-8.89a20.26,20.26,0,0,0-1.77-9.64c-2.76-4.25-6.81-6.8-11.49-8.48a7.36,7.36,0,0,0-4.55,1.1c-4.12,4.36-5.68,9.45-4.21,15.34C2209.75,1173.24,2213.78,1175.83,2217,1179.06Z" transform="translate(-1738.32 -683)"/><path class="cls-116" d="M2227.11,1169.14c-.22,3.32-.43,6.64-.65,10,4.27,5.09,10.74,6.4,16.18,9.49v-6.32c.77-4.27.52-8.42-1.66-12.3a6.08,6.08,0,0,0-3.54-2.09C2234,1167.89,2230.43,1167.61,2227.11,1169.14Z" transform="translate(-1738.32 -683)"/><path class="cls-117" d="M2191.13,1169.42a9.82,9.82,0,0,0,9.69,6.47,2.92,2.92,0,0,0,3.92.39c3-4.38,2-8.5-.86-12.47a10.51,10.51,0,0,0-3.54-2.52,8.1,8.1,0,0,0-6.21.67C2191.8,1163.9,2191.26,1166.57,2191.13,1169.42Z" transform="translate(-1738.32 -683)"/><path class="cls-118" d="M2204.07,1175.81l-3.25.08c4.55,5.33,10.72,2.46,16.17,3.17a9.88,9.88,0,0,0-6.53-9.66,2.79,2.79,0,0,0-3.48-.84C2205.17,1170.63,2206.32,1173.91,2204.07,1175.81Z" transform="translate(-1738.32 -683)"/><path class="cls-119" d="M2191.13,1169.42c2.61-1.38,3.17-3.8,3.24-6.45a3.24,3.24,0,0,0,.13-4.36c-3.93-3.21-7.94-6-13-2.07,1.87,4.43,6.79,7.32,6.53,12.84C2189,1169.38,2190.1,1169.4,2191.13,1169.42Z" transform="translate(-1738.32 -683)"/><path class="cls-120" d="M2236.3,1169.36c1,0,2.07.06,3.1.08,5.55,6.49,11.78,12.17,19.46,16.09,5.69,2.91,5.93,11.35,13,12.84.69-26.17-7.19-51.25-9.6-77-.3-2.65-.78-5.24-3.37-6.75-8-5.88-11.45-17-22.45-19.32l-.65-.17a4,4,0,0,0-4.07-.13,9.42,9.42,0,0,0-3.93,7.46c.17,3.6,1.7,6.84,2.87,10.18,2.22,6.62,2.63,13.22-.32,19.78a17.78,17.78,0,0,0-2.08,6.23,12.94,12.94,0,0,0,1.06,4.45C2234.42,1151.09,2229.11,1161.87,2236.3,1169.36Z" transform="translate(-1738.32 -683)"/><path class="cls-121" d="M2277.93,1130.7c.92-9.83-2.18-19.13-3.91-28.62-5.39,9.69-1.12,19.07.89,28.54l1.51.13Z" transform="translate(-1738.32 -683)"/><path class="cls-122" d="M2258.86,1185.51c-5.26-6.84-9.71-14.64-19.46-16.09.54,4.42-1.42,9.49,3.24,12.88C2247.66,1185.32,2253.16,1185.9,2258.86,1185.51Z" transform="translate(-1738.32 -683)"/><path class="cls-123" d="M1959,908.43c-.69,4.49,1.56,9.37-2.22,14.48-15.53-14.63-30.84-29-46.16-43.44,8.61,17.9,24.44,30.22,35.68,46.22,22.09,31.45,47.11,60.85,68.44,92.75,7,10.46,13.93,17.83,25,22.21a15.81,15.81,0,0,0,9.7,4c7.86.09,15.75.89,23.47-1.23a10.81,10.81,0,0,0,5.72-4.63c-.48-11-9.73-17-14.45-25.61-16.09-18.83-36.93-32.2-55.8-47.81-1.84-1.51-5.31.12-7.42-2-3.56-.22-7.42.47-9.75-3.35-21.87-10.28-32-27.06-28.58-51.42A3,3,0,0,0,1959,908.43Z" transform="translate(-1738.32 -683)"/><path class="cls-124" d="M2049.27,1066.36c7-4.53,16.05,4.64,22.61-3.23-2.94-8.67-10.77-11.5-18-15.1a12.54,12.54,0,0,0-4.49,0,6.15,6.15,0,0,0-3.41,2.72C2046.79,1056,2044,1062,2049.27,1066.36Z" transform="translate(-1738.32 -683)"/><path class="cls-125" d="M2049.21,1092.05c0,2.16.06,4.34.08,6.49,11.11-9.66,8.74-19.3,0-29Q2049.26,1080.83,2049.21,1092.05Z" transform="translate(-1738.32 -683)"/><path class="cls-126" d="M2046,1050.73c1.19-.18,2.4-.33,3.58-.5a7.43,7.43,0,0,0,1.94-5.85,8.64,8.64,0,0,0-2.15-3.58l-9.6-.15C2039.31,1045.57,2040,1049.82,2046,1050.73Z" transform="translate(-1738.32 -683)"/><path class="cls-127" d="M2081.5,992.19c-18-4.9-30.91-16.57-39.8-32.29-6-10.55-10-8.93-15,.08-8.67,6.09-15.75,9.71.58,17.5,7.7,3.66,14.69,14.43,21.7,22.23,4.31,4.81,8.89,9.3,15.81,10.12,8.82-.41,12.25-7.55,16.76-13.39A5,5,0,0,0,2081.5,992.19Z" transform="translate(-1738.32 -683)"/><path class="cls-128" d="M2065.4,1008.32c-12.27-9.47-27.6-15.74-30.71-34.1-1.4-8.28-10.72,1.06-15.1-4.34-.26-5,8.8-3.9,7.12-9.92-8.07,5-17.06,2.74-25.71,3.35q30.57,25.71,61.15,51.46C2065.08,1013.54,2067.09,1011.86,2065.4,1008.32Z" transform="translate(-1738.32 -683)"/><path class="cls-129" d="M2120.23,956.79l-3.28-3.28c-8.71,7.55-19.13,13.64-22.56,25.8.59.45,1.17.88,1.75,1.34,9.69.8,13.29-7.79,19.41-12.51C2118,964.73,2122.46,962.12,2120.23,956.79Z" transform="translate(-1738.32 -683)"/><path class="cls-130" d="M2081.5,992.19c0,1.08,0,2.18,0,3.25.62.35,1.27.69,1.89,1.06a8.32,8.32,0,0,0,4.1-1.25c4.19-4.46,11.54-7.59,6.9-15.9l0,0A33.53,33.53,0,0,0,2081.5,992.19Z" transform="translate(-1738.32 -683)"/><path class="cls-65" d="M1959,908.43c1.23.05,2.44.07,3.67.11a18.38,18.38,0,0,0,2.68-.19c5.91-1,6.27-7.92,10.89-10.33,1.77-1.41,3.32-2.89,2.18-5.44-7.1-2-15.23-21.63-21,2.55-1.7,7.18-11.21-4.17-17.83-2.81C1944.85,899.2,1949.38,906.9,1959,908.43Z" transform="translate(-1738.32 -683)"/><path class="cls-131" d="M1978.44,892.6l-3.13,3.71c-2,1.84-2.07,3.73-.19,5.7a20.27,20.27,0,0,0,9.68-9.64,24.69,24.69,0,0,1,.19-2.72Z" transform="translate(-1738.32 -683)"/><path class="cls-132" d="M1975.12,902c.06-1.9.13-3.8.19-5.7-6.23,1.62-6.77,7.92-9.94,12.06-.31,4.94,4.53,6.28,6.7,9.49l0,.06,47.9,13.33c6.19-5.63,2.44-13,3.52-19.58h-3.22c-14.66,2.26-29.44,5.2-42-6.45Z" transform="translate(-1738.32 -683)"/><path class="cls-133" d="M2023.67,937.23l-3.45-2.91c-8.54,14.43-21.87,14.38-40.12,9.75C2000.18,954.48,2011.27,952,2023.67,937.23Z" transform="translate(-1738.32 -683)"/><path class="cls-134" d="M1972.05,917.86c-7.42,8.43-.51,14.24,3.93,20.49,1.23-7.27-5.91-13-3.93-20.4C1972.07,917.92,1972.05,917.86,1972.05,917.86Z" transform="translate(-1738.32 -683)"/><path class="cls-135" d="M1978.33,905.22c7.94,15.44,24.35,18,42,6.45C2011.35,892.58,1997.72,890.49,1978.33,905.22Z" transform="translate(-1738.32 -683)"/><path class="cls-136" d="M2142.77,937.44a72.51,72.51,0,0,0-19.45,19.24c-1.92,4.51-.2,8.61,2.46,11.8,13.84,16.65,23.68,36.11,37.4,52.85a9,9,0,0,0,4.29,1.38,18.87,18.87,0,0,0,11.6-6.52,16.83,16.83,0,0,0,2.07-3.88c1-2.69,1.9-5.43,2.79-8.2a29.49,29.49,0,0,0,1.14-6.42c.17-4.21.35-8.41-.86-12.51-.15-.5-.65-1.15-.5-1.45,1-1.94.67.65,1.27.48,9.43,11.21,4.73,23.9,3.95,36.12a21.4,21.4,0,0,0-.3,4.53c1.06,6.09,2.37,12.06,7.55,16.22,9,4,14.28,12.34,21.52,18.4,5.18,4.32,9.77,7,13.92-1,.47-6-2.07-12.25,1.38-18-2.68-44.11-16.61-67.06-65.49-84.79C2157.89,952.24,2146.76,949.29,2142.77,937.44Z" transform="translate(-1738.32 -683)"/><path class="cls-137" d="M2229.8,1059.87c-12.48,1.53-15.14-11.47-23.51-16.22-2.91-1.64-4.18-5.89-8.58-3.1a2.49,2.49,0,0,0-3.75-.44c-1.32,3.22.26,5.81,1.77,8.42,2.84,4.27,4,9.42,7,13.63,7.72,9.55,11.1,23.79,26.72,24.87,3-1.71,4.68-4,3.62-7.62,0-1.14,0-2.28,0-3.45C2231,1070.83,2235.43,1064.34,2229.8,1059.87Z" transform="translate(-1738.32 -683)"/><path class="cls-138" d="M2236.47,1095.24c8.17,5.66,10,18.71,22.45,19.33.09-17.82-5-34.66-9.72-51.57C2246.33,1074.3,2236.94,1083,2236.47,1095.24Z" transform="translate(-1738.32 -683)"/><path class="cls-138" d="M2229.8,1059.87c.82,5.42-2.13,11.61,3.24,16.11,8-11.82-2.39-23.64,0-35.46C2227.24,1046.2,2230.86,1053.42,2229.8,1059.87Z" transform="translate(-1738.32 -683)"/><path class="cls-139" d="M2233.08,1079.43c-1.16,2.08-2.35,4.12-3.51,6.19-2.29,4.51-3.32,8.59,3.38,10.08a26.12,26.12,0,0,1,2.89-.63C2235.24,1089.81,2238.91,1083.79,2233.08,1079.43Z" transform="translate(-1738.32 -683)"/><path class="cls-140" d="M2165.4,1021.15c-11.11-23.38-29.55-42-42.06-64.47l-3.11.11q-3.22,4.83-6.47,9.62c-7.89,10.2-15.79,19.85-1.9,32,5.53,4.83-.53,14.56,4.77,20.77a96.05,96.05,0,0,0,15.06,8c9.55,2,19.11,2.38,28.66-.13A8.07,8.07,0,0,0,2165.4,1021.15Z" transform="translate(-1738.32 -683)"/><path class="cls-141" d="M2039.61,1108.21c-6.21-3.63-12.75-3.88-19.54-1.66,6.55,0,12.27,8.52,19.54,1.66Z" transform="translate(-1738.32 -683)"/><path class="cls-142" d="M2133.07,1143.62c2.67-5.28,6.58-7.59,12.4-5.06,4.72,2,6.56-.18,7-4.58-.09-.67-.15-1.33-.22-2a28.05,28.05,0,0,0-5.15-8.61c-3-2.65-5.79-5.63-9.8-6.88-5-1.19-7.42-5.67-10.91-8.76-1.38-1.46-2.83-2.91-4.16-4.42-2.59-3-4.21-6.9-8-8.84l-2-.2c-.58.35-1.14.72-1.72,1.06q-3.21,8.06-6.41,16.11c16,2,18.61,12.25,16.11,25.76C2124.63,1139,2127.48,1144.08,2133.07,1143.62Z" transform="translate(-1738.32 -683)"/><path class="cls-143" d="M2052.53,1050.1q9.67,6.51,19.35,13c9.33,2.76,14.51,11.37,22.51,16a8.28,8.28,0,0,0,2.81-3.86,32,32,0,0,0,.39-14.43c-2.77-7.72-6.15-15-14.37-18.52a11.07,11.07,0,0,0-4.92.32c-5.65,1.9-11.51.65-17.23,1.29C2057.23,1044.36,2052,1043.39,2052.53,1050.1Z" transform="translate(-1738.32 -683)"/><path class="cls-144" d="M2120.21,1137.18c2.18-6.89,9.92-12.49,3-21.32-5.67-7.29-11.86-6.94-19.15-4.42a12.3,12.3,0,0,1-7.27,6.91c0,6.81,7.87,4.61,10.2,8.8C2109,1133.68,2117.32,1131.85,2120.21,1137.18Z" transform="translate(-1738.32 -683)"/><path class="cls-145" d="M2094.39,1076.07v3.06a11.33,11.33,0,0,0,6.47,6.49c13.51,1.54,13.94-7.93,14.56-17.27C2102.4,1059.59,2099.33,1060.71,2094.39,1076.07Z" transform="translate(-1738.32 -683)"/><path class="cls-146" d="M2113.83,1069.43c-3.35,6.19-5.16,13.58-13,16.19a20.42,20.42,0,0,0,9.64,9.69l.15-.22a129.88,129.88,0,0,0,11.13-20.64C2121.33,1069.3,2119.39,1066.49,2113.83,1069.43Z" transform="translate(-1738.32 -683)"/><path class="cls-147" d="M2181.47,1156.52c4.29,1.1,8.6,2.2,12.9,3.32,3.17-4,1.23-7.48-.95-11-8.2-6.39-7-20.88-19.85-23.32-5,.21-10.11-.73-15.18-.32-3.9,1.31-6.82,3.4-6.3,8.13l.39.6c7.48,1.62,9.92,9.47,16,12.88,3.88,1.29,6.54,4.46,10,6.49C2179.4,1154.41,2180.43,1155.47,2181.47,1156.52Z" transform="translate(-1738.32 -683)"/><path class="cls-148" d="M2178.36,1153.33c-2.89-2.83-3.17-9.64-10-6.49C2170.42,1151,2173.55,1153.46,2178.36,1153.33Z" transform="translate(-1738.32 -683)"/><path class="cls-149" d="M2236.3,1169.36c-3-9.39,6.23-21.51-6.41-28.78-3.45-.26-6.25.76-8,4-1.71,6.06.82,10.83,4.63,15.23.2,3.13.41,6.25.61,9.38C2230.15,1170.56,2233.13,1174.53,2236.3,1169.36Z" transform="translate(-1738.32 -683)"/><path class="cls-150" d="M2226.5,1159.76c-1-5.35-2.07-10.72-3.08-16.07a7.75,7.75,0,0,0,1.92-6.92c-1.42-3.65-4-5-7.79-4-6.38,6.38-3.64,13.15-.77,19.9C2218.42,1157.23,2221.61,1159.67,2226.5,1159.76Z" transform="translate(-1738.32 -683)"/><path class="cls-151" d="M2216.76,1152.7c4-6-2.27-12.51.75-18.59a4.2,4.2,0,0,0-4-.77,10.61,10.61,0,0,0-3.06,5.65c-.67,2.8-1.38,5.58-2,8.41a8.34,8.34,0,0,0,1.4,6.25,3,3,0,0,0,3.91-.21C2214.73,1153.16,2215.74,1152.92,2216.76,1152.7Z" transform="translate(-1738.32 -683)"/><path class="cls-152" d="M2213.76,1153.46c-1.06-.11-2.14-.17-3.22-.19-4.31.6-7.61,3-10.5,6.06a3,3,0,0,0,.78,3.62l0,.09c3,1.33,4.44,4.25,6.58,6.42l3.06-.06Q2212.1,1161.44,2213.76,1153.46Z" transform="translate(-1738.32 -683)"/><path class="cls-153" d="M2200.82,1162.93c0-1,0-2.09,0-3.13,4.62-3.71,6.52-8.91,7.86-14.41.15-3-1.21-5.45-3-7.7a4.45,4.45,0,0,0-3.76-1.18c-3.28,1.57-4.16,5-6.08,7.67-1.53,2-3.58,3.61-4.59,6,1.05,3.23,2.11,6.45,3.14,9.68V1163Z" transform="translate(-1738.32 -683)"/><path class="cls-154" d="M2207.42,1169.46c-.28-4.09-2.29-6.42-6.58-6.42,2.13,4,3.69,8.13,3.23,12.79C2206.73,1174.51,2207.18,1172,2207.42,1169.46Z" transform="translate(-1738.32 -683)"/><path class="cls-155" d="M2232.93,1095.7c-3.94-2.42-2.63-6.6-3.38-10.08-13.79-3.36-15.66-18.52-25.54-25.75a162.93,162.93,0,0,1-15.21,8.39,7.1,7.1,0,0,0-2.07,3.82,19.28,19.28,0,0,0,2.7,8.3c4.18,5.2,4.16,11.84,5.93,17.86a29.09,29.09,0,0,0,7,10.85c4.72,3.22,9.06,7,13.87,10.1a11.15,11.15,0,0,0,4.27.75,9.69,9.69,0,0,0,4-1.64c4.55-4.31,4.4-10.2,5.2-15.76C2230.75,1100.27,2231.85,1098,2232.93,1095.7Z" transform="translate(-1738.32 -683)"/><path class="cls-156" d="M2223.31,1117.89c-1,0-2.09,0-3.13,0-2.35,2.11-2.86,4.79-2.35,7.79-.34,4.91,8.35,5.58,5.5,11.69,0,2.11.07,4.23.09,6.34,2.55-.24,5-.56,6.49-3.09.05-1.25.07-2.52.11-3.77a22.07,22.07,0,0,0,2.07-18.14C2230.19,1112.67,2226.68,1113.36,2223.31,1117.89Z" transform="translate(-1738.32 -683)"/><path class="cls-157" d="M2223.31,1117.89c2.57-.47,6.11-3.41,6.36,2.25s.24,11.13.35,16.67c1.21-1.06,2.39-2.12,3.6-3.17a47.15,47.15,0,0,0-.15-21.94c-1.27-3-2.52-6.1-3.79-9.14C2225.32,1106.74,2224.41,1112.35,2223.31,1117.89Z" transform="translate(-1738.32 -683)"/><path class="cls-158" d="M2233.45,1111.68q.06,11,.15,22C2237.66,1126.28,2237.83,1119,2233.45,1111.68Z" transform="translate(-1738.32 -683)"/><path class="cls-159" d="M2065.4,1008.32q-1.61,3.24-3.23,6.45a69.65,69.65,0,0,0,16.13,22.5c2.48,2.67,5.4,2.8,8.57,1.51.36-.35,1.14-1,1.07-1-7.8-13.24-13.58-26.79-6.42-42.3h0C2073.28,996.13,2072.72,1006.47,2065.4,1008.32Z" transform="translate(-1738.32 -683)"/><path class="cls-160" d="M2087.77,1037c-3.15.08-6.32.17-9.47.28-1.08,1.12-2.15,2.26-3.23,3.38a2.86,2.86,0,0,0,.11,4c2.28.78,4.48.93,6.34-1l-.11,0c3.26-2.2,7,1,10.29-.86a5.68,5.68,0,0,0,3.28-8.85C2091.5,1032.39,2089.43,1034.2,2087.77,1037Z" transform="translate(-1738.32 -683)"/><path class="cls-161" d="M2074.81,1043.24c.06-.86.15-1.72.26-2.59l-25.71.15c0,1.15,0,2.29,0,3.43C2057.94,1045.61,2066.48,1047,2074.81,1043.24Z" transform="translate(-1738.32 -683)"/><path class="cls-162" d="M2074.81,1043.24l-25.41,1c.06,2,.11,4,.17,6,1-.06,2-.11,2.94-.13,8.36-7.94,20.7,1.83,29-6.49C2079.27,1043.5,2077.05,1043.37,2074.81,1043.24Z" transform="translate(-1738.32 -683)"/><path class="cls-163" d="M2117,1018.07c-.78-10.31,5.41-21.5-8.46-29.72-4.44-2.63,3.65-14.22,5.18-21.92-7.38,2.92-10.09,12.77-19.32,12.9.32,7.51-7.36,10.18-9.69,16.11-.82,14.82,5.67,25.93,17.36,34.45a15.22,15.22,0,0,0,4.84.82c5.5-.28,9.14-3.08,11.1-8.17A4.42,4.42,0,0,0,2117,1018.07Z" transform="translate(-1738.32 -683)"/><path class="cls-127" d="M2104.32,1027.71c-12.47-7.16-13-21.52-19.57-32.27h-3.21c0,.54-.11,1.06-.15,1.6-.71,8.13-13.59,11.24-11.07,18,3.15,8.34,11.41,14.75,17.47,22,2.23-.91,4.45-1.81,6.65-2.72C2100.07,1035.61,2104.16,1034.64,2104.32,1027.71Z" transform="translate(-1738.32 -683)"/><path class="cls-164" d="M2181.38,999c0,1.9,0,3.78,0,5.67.12,2.87.23,5.74,1.38,8.46,2.2,3.26,1.76,9.21,8.23,8.13,6-11.37,3.61-23.19,1.69-34.9-.74-4.51-3.63-6.1-8-3.79C2180.8,987.44,2185.5,994.11,2181.38,999Z" transform="translate(-1738.32 -683)"/><path class="cls-165" d="M2178.25,1014.71c-3.23,2.13-6.47,4.29-9.68,6.42-5.16,5.74-1.27,12.56-2.24,18.81a9.63,9.63,0,0,0,1.83,4.21c4.4,1.66,7.83-.22,11-3a13.59,13.59,0,0,0,2.23-4.51C2182.31,1029.07,2184.25,1021.31,2178.25,1014.71Z" transform="translate(-1738.32 -683)"/><path class="cls-166" d="M2168.57,1040.5c5.24-6.45-1.14-12.92,0-19.37-1.06,0-2.11,0-3.17,0l-3.3,3.28c-3.17,2.7-8.59,1.51-10.63,6.13a6.42,6.42,0,0,0,.38,4.16c3.61,3.67,8.2,5.54,13,7.18A4.21,4.21,0,0,0,2168.57,1040.5Z" transform="translate(-1738.32 -683)"/><path class="cls-167" d="M2178.25,1014.71q0,12.9,0,25.81a3.43,3.43,0,0,0,4.68-1c2.59-4,2.7-8.52,2.72-13-2-5.29,1.6-13.29-7.33-15.25C2178.3,1012.42,2178.28,1013.56,2178.25,1014.71Z" transform="translate(-1738.32 -683)"/><path class="cls-168" d="M2178.32,1011.28c5.71,4.37,1.9,10.93,3.71,16.19a2.83,2.83,0,0,0,3.95-.6,9.22,9.22,0,0,0,1-4.46c-1.21-3.67.15-7.77-1.9-11.29-.09-2.78-.67-5.28-3.6-6.47C2180.41,1006.85,2179.35,1009.08,2178.32,1011.28Z" transform="translate(-1738.32 -683)"/><path class="cls-169" d="M2181.38,999c5.67-4.55,2.29-11,3.37-16.46-.76-1.25-2.05-5.13-2.85-2.09C2180.41,986.28,2181.43,992.77,2181.38,999Z" transform="translate(-1738.32 -683)"/><path class="cls-170" d="M2194.5,1041l3.23-.47q-3.43-8.1-6.86-16.16a2.65,2.65,0,0,0-3.92.28,17.91,17.91,0,0,0-.87,6.93C2187.77,1035.76,2187.81,1041.36,2194.5,1041Z" transform="translate(-1738.32 -683)"/><path class="cls-171" d="M2187.77,1024.54c1,0,2.07-.06,3.08-.13a17.79,17.79,0,0,0,.22-3.17c-2-3.36-4-6.73-6-10.12l-.33,13.36C2185.72,1026,2186.73,1026,2187.77,1024.54Z" transform="translate(-1738.32 -683)"/><path class="cls-172" d="M2188,1069.53c7.27,0,15.21,1,16.05-9.66-3.09-3.84.88-11.17-6.43-12.94a5.69,5.69,0,0,0-6.15-1.16c-4.22,3.34-4.27,9.14-7.65,13-1.71,3.82-1.21,7.21,2.09,10C2186.58,1069,2187.27,1069.28,2188,1069.53Z" transform="translate(-1738.32 -683)"/><path class="cls-165" d="M2191.22,1047l6.38-.06-3.1-5.89-6.56-10.11c-2.72,2-3,4.93-2.93,8a12.91,12.91,0,0,0,1,4.31A7,7,0,0,0,2191.22,1047Z" transform="translate(-1738.32 -683)"/><path class="cls-173" d="M2151.66,1031.05c4-1.44,7.94-2.86,10.44-6.6l-31.79-.1c-.35.73-.67,1.44-1,2.18,1,4.61,4.38,6.53,8.59,7.52C2142.84,1034.76,2147.69,1034.92,2151.66,1031.05Z" transform="translate(-1738.32 -683)"/><path class="cls-174" d="M2117,1018.07c-.22,1.1-.43,2.22-.63,3.32-.28,6.26,4.4,6.71,8.8,7.51,2.53-.41,3.58-2.29,4.4-4.4l.69-.15C2127.46,1018.89,2122.69,1017.51,2117,1018.07Z" transform="translate(-1738.32 -683)"/><path class="cls-175" d="M2137,1117.81c2.81,2.43,4.08,7,9,6.51,3.56,3.54,7.7,2.83,11.91,1.62,4.7-.37,7.89-2.53,8.95-7.34,0-10.13-2.48-19.41-9.49-27.11-5.05-3.79-9.58-8.88-17-7a5,5,0,0,0-2.13,3.84,53.5,53.5,0,0,0,10.46,19.65c-7.14-2.66-11.43-9.49-18.79-11.09a7.74,7.74,0,0,0-4.27,1.55,8.33,8.33,0,0,0-.58,8.87C2128.32,1111.59,2131.6,1115.89,2137,1117.81Z" transform="translate(-1738.32 -683)"/><path class="cls-176" d="M2120.17,1076c-8.26,3.84-10.48,10.68-9.51,19.09,1,.09,1.94.13,2.89.13,1.87,1.88,4.07,2.07,6.47,1.21,4.61-6,6.75-12.32,2.26-19.39Z" transform="translate(-1738.32 -683)"/><path class="cls-177" d="M2120.08,1094.94l-6.51.28,6.86,10.38c3-1.49,3.69-5.11,6.23-7,1-.11,1.92-.15,2.87-.18a4.29,4.29,0,0,0,1.66-4.12C2127.07,1087.57,2123.55,1090.84,2120.08,1094.94Z" transform="translate(-1738.32 -683)"/><path class="cls-178" d="M2159.42,1124.08c-4.46.09-8.93.15-13.41.24-.69,4.83,1.9,7.46,6,9.06l6.66-5.89c1.12-.56,1.6-1.25,1.43-2.07S2159.75,1124.08,2159.42,1124.08Z" transform="translate(-1738.32 -683)"/><path class="cls-179" d="M2137,1117.81l-10.22-10.27a3.92,3.92,0,0,0-4.23.3C2127.24,1111.34,2127.93,1120.65,2137,1117.81Z" transform="translate(-1738.32 -683)"/><path class="cls-180" d="M2122.54,1107.86c1.4-.11,2.81-.19,4.23-.3,0-3-.07-6-.11-9-4.79-.07-6.51,2.58-6.23,7A3.71,3.71,0,0,0,2122.54,1107.86Z" transform="translate(-1738.32 -683)"/><path class="cls-181" d="M2113.83,1069.43c4.16.21,6.3,2.37,6.34,6.57l0,0a2.81,2.81,0,0,0,4.27-.13c2-2.85,2.33-6,1.9-9.39-1.53-6.19-3.91-11.94-8.41-16.65a5.79,5.79,0,0,0-4.38-.34c-3.34,3.13-4.19,9.88-11.2,7.66-3-.18-5.88.17-7.93,2.76l-.07,16.11C2099,1068.48,2103.82,1061.32,2113.83,1069.43Z" transform="translate(-1738.32 -683)"/><path class="cls-182" d="M2094.46,1060H2104c5.83,2.5,8.83.8,5.4-5.11-4-6.88-9.88-12.34-18.21-14.11-3.51.11-7.38-.93-9.79,2.91C2088.07,1047.21,2090.06,1054.54,2094.46,1060Z" transform="translate(-1738.32 -683)"/><path class="cls-183" d="M2191.2,1150.16c2.65-.15,5.06-.78,6.42-3.39,2.92-5.37,1.28-10.93.69-16.45-1-4.12-2.8-7.75-6.38-10.27a16.22,16.22,0,0,0-7-2.35,18.57,18.57,0,0,0-9.69,1.59c-2.82,2-4.93,4.36-3.45,8.22C2184.4,1129.82,2179.68,1146.92,2191.2,1150.16Z" transform="translate(-1738.32 -683)"/><path class="cls-184" d="M2171.78,1127.51c1.08-2.09,2.14-4.18,3.22-6.27,1.18-4.84-2.29-6.17-5.72-7-2.5-.59-5.11-.11-3.92,3.73-2,2-4,4.08-5.94,6.1-.21,1.12-.45,2.27-.69,3.41C2163.09,1127.6,2167.43,1130.73,2171.78,1127.51Z" transform="translate(-1738.32 -683)"/><path class="cls-185" d="M2223.31,1137.33c5.93-5.61.15-7.47-3.23-10.08-4.94-.26-7.57,1.47-5.89,6.88,1.1,0,2.2,0,3.32,0C2219.9,1134.33,2222.13,1134.89,2223.31,1137.33Z" transform="translate(-1738.32 -683)"/><path class="cls-186" d="M2214.17,1134.13a9,9,0,0,1,5.91-6.88c0-3.12.06-6.27.08-9.4-1.1,0-2.18,0-3.28,0-5-2-7.8-7-12.57-9.3-2.26-3.36-4.55-6.73-6.82-10.07a3.38,3.38,0,0,0-4-.26c-3.28,3.34-4.94,7.25-4,12,1.21,3.19,3.88,5.55,5,8.8a27.63,27.63,0,0,0,1.64,3.69c2.57,4.7,2.2,10.91,7.35,14.28l.69.22c2.42,2.89,4.4,7,9.15,3.12C2213.54,1138.25,2213.87,1136.2,2214.17,1134.13Z" transform="translate(-1738.32 -683)"/><path class="cls-187" d="M2207.26,1143.67c-2.15,5.37-4.31,10.76-6.47,16.13,4.77.09,7.75-2.52,9.75-6.53.07-2.07.11-4.15.18-6.22C2211.79,1143.62,2210.33,1142.85,2207.26,1143.67Z" transform="translate(-1738.32 -683)"/><path class="cls-152" d="M2207.26,1143.67c1.15,1.12,2.31,2.24,3.46,3.38,2.48-1.61,2.84-4,2.52-6.7-3-1-6.1-2.1-9.15-3.13C2204.09,1139.87,2204.68,1142.27,2207.26,1143.67Z" transform="translate(-1738.32 -683)"/><path class="cls-188" d="M2203.43,1137a30.44,30.44,0,0,0-5.76-16c-3.52,2.35-.31,6.75-2.85,9.38.93,5.46,1.88,10.94,2.83,16.39C2202.22,1145.09,2199.41,1139,2203.43,1137Z" transform="translate(-1738.32 -683)"/><path class="cls-189" d="M2188,1072.83v-3.3l-.13,0c-4.4-1.62-4.9-7.7-9.92-8.6a8.18,8.18,0,0,0-8,3.53c-2,3.28-3.17,6.93-4.4,10.55s-2.46,7.18-2.81,11a9.44,9.44,0,0,0,1.94,6.32c8.27,2.63,12.43-10.89,21.44-5.43a4.82,4.82,0,0,0,3.52-2.64C2190.1,1080.25,2190.12,1076.39,2188,1072.83Z" transform="translate(-1738.32 -683)"/><path class="cls-190" d="M2194.24,1099.39l3.25-.93c-.28-7,2.14-14.93-6-19.54a22.52,22.52,0,0,0-2.68,15A9,9,0,0,0,2194.24,1099.39Z" transform="translate(-1738.32 -683)"/><path class="cls-191" d="M2191.13,1095.31q.16-8.19.35-16.37c-.61-2.35-.24-5.26-3.52-6.08-.24,4.29-.45,8.56-.69,12.85C2185.31,1090.2,2184.14,1094.38,2191.13,1095.31Z" transform="translate(-1738.32 -683)"/><path class="cls-192" d="M2204.31,1108.55c3.64,3.84,4.87,10.94,12.57,9.3C2214.19,1112.72,2210.87,1108.44,2204.31,1108.55Z" transform="translate(-1738.32 -683)"/><path class="cls-193" d="M2091.2,1040.74c5.37,5.39,11.15,10.48,16,16.33,2.2,2.67-1.68,2.26-3.15,2.89,13,6.6,8.74-4.25,9.82-9.71,3.92-8.28-7.53-10.29-7-17.19-5.22-1.64-8.57,1.92-12.32,4.4C2093.38,1038.54,2092.3,1039.64,2091.2,1040.74Z" transform="translate(-1738.32 -683)"/><path class="cls-194" d="M2094.48,1037.46l12.81-3.3c1.73-2.16,1.94-4.33,0-6.49a30,30,0,0,1-3,0l-9.88,6.58C2094.44,1035.35,2094.44,1036.4,2094.48,1037.46Z" transform="translate(-1738.32 -683)"/><path class="cls-195" d="M2107.31,1027.67v6.49c-3.51,7.68,6.17,10,6.54,16.11,1,0,2.07-.06,3.08-.06,5.74-6.28,13.64-11.63,9.58-22.15-3.36-2.22-6.73-4.45-10.12-6.65C2113.5,1023.68,2112.12,1028.14,2107.31,1027.67Z" transform="translate(-1738.32 -683)"/><path class="cls-189" d="M2181.34,1040.52c-1,0-2.07,0-3.11,0v0c-2.61,2.89-4.66,7.5-9.66,3.21,0-1.08,0-2.16,0-3.23l-3,0c-4.4,3.78-4.07,8.55-2.87,13.51,3.11,7.33,10.81,4.07,15.9,6.88,4.44-.35,6-4,7.94-7.1a12.18,12.18,0,0,0,.56-6.73C2185.89,1044.23,2184.81,1041.34,2181.34,1040.52Z" transform="translate(-1738.32 -683)"/><path class="cls-166" d="M2168.59,1043.76c.32,5.41,3.78,7.46,8.31,6,5.28-1.74.36-6.12,1.33-9.14Q2173.42,1042.15,2168.59,1043.76Z" transform="translate(-1738.32 -683)"/><path class="cls-196" d="M2165.83,1056.79c-.09-5.44-.15-10.87-.24-16.31a20.11,20.11,0,0,0-12.87-6.56,7,7,0,0,0-1.62,4.38c-.09,5.63-1,10.77-7.55,12.47a8.79,8.79,0,0,1-8.87-2.24c-5.28-5.42-.17-9.71,1.84-14.33a4.75,4.75,0,0,0,.11-3.1c-2.35-2.2-4.68-4.42-7-6.62l-3.1,3.56c-.2,8.67-9.64,13.35-9.58,22.15,2.16,5.39,4.32,10.76,6.49,16.15,4.45,8.5,11.61,12.15,21,11.65a12.06,12.06,0,0,0,5.53-3.19c2.56-2.66,4.59-6.15,9.06-6a28.19,28.19,0,0,0,5.88.05,11.21,11.21,0,0,0,3.84-1.51,8.21,8.21,0,0,0,1.51-3.89C2170.75,1059.94,2168.05,1058.53,2165.83,1056.79Z" transform="translate(-1738.32 -683)"/><path class="cls-197" d="M2136.63,1031.12c-6.84,4.55-15,9.38-8.26,18.83,4.63,6.58,12.2,8,20.18,4.14,10.38-5,8-12.4,4.19-20.19a5.15,5.15,0,0,1-1.06-2.87C2146.66,1031.08,2141.65,1031.1,2136.63,1031.12Z" transform="translate(-1738.32 -683)"/><path class="cls-198" d="M2181.34,1040.52l3.36,6.41c2.89,1,4.1.06,3.58-3l-.51-3.3c-3.56-3.75.71-9.57-3.48-13.18a19.28,19.28,0,0,1-2.28,0C2181.79,1031.83,2181.58,1036.17,2181.34,1040.52Z" transform="translate(-1738.32 -683)"/><path class="cls-199" d="M2184.32,1027.45c1,4.45-1.08,9.67,3.47,13.18,0-3.23.08-6.47.15-9.7,0-2.14-.11-4.25-.15-6.39a17.16,17.16,0,0,0-3,0C2184.62,1025.47,2184.49,1026.48,2184.32,1027.45Z" transform="translate(-1738.32 -683)"/><path class="cls-200" d="M2188.31,1043.93l-3.59,3-.06,6.45c-1.79,2.22-1.83,4.4.09,6.55,8.58-1.07,5.78-7.87,6.47-12.92C2190.25,1046,2189.28,1045,2188.31,1043.93Z" transform="translate(-1738.32 -683)"/><path class="cls-201" d="M2184.75,1059.94c0-2.18-.07-4.38-.09-6.56l-6.45,6.58c-.8.69-1.06,1.36-.8,2s.52,1,.8,1c3.34,2,4.57,7.08,9.64,6.49Q2186.31,1064.71,2184.75,1059.94Z" transform="translate(-1738.32 -683)"/><path class="cls-202" d="M2184.68,1085.65c-1-8.22-5.46-5.4-9.66-3-4,2.31-4.79,8.07-9.9,9.21-3.19-2.35-6.36-2.61-9.43.24,3.22,8.63,6.45,17.23,9.67,25.86,4.74-3.47,7,.47,9.64,3.24,3.21,0,6.45-.07,9.66-.11,4.62-5.05,1.68-10.05-.19-15C2181.81,1099.26,2183.28,1092.46,2184.68,1085.65Z" transform="translate(-1738.32 -683)"/><path class="cls-203" d="M2155.69,1092.12c3.15-.07,6.3-.15,9.43-.24,0-2.18,0-4.34,0-6.51-2.69-3.17-7.29-3.86-9.68-7.45a15.88,15.88,0,0,0-3.15-2.82c-2.12-.89-4.12-.93-5.87.82-8.65-.91-16.11-4.64-23.06-9.6,0,3.17,0,6.34.09,9.51,1.86,9.1,7.85,11.24,16.09,9.62Z" transform="translate(-1738.32 -683)"/><path class="cls-204" d="M2130.28,1095.35c-.28,1-.51,2-.73,3,5.16,6.91,14.47,8.95,19.13,16.59,1.49,2.46,4.47,2.78,7,.56,2-1.79,1.9-4.27-.07-5.46-8.28-5-7.72-16.41-16-21.22C2133.46,1086.72,2132.07,1091.32,2130.28,1095.35Z" transform="translate(-1738.32 -683)"/><path class="cls-146" d="M2130.28,1095.35c3.09-2.15,6.2-4.33,9.28-6.49,0-1.12,0-2.26,0-3.39-4.59-4.5-12.9-2.78-16.09-9.62q-1.65.11-3.3.18c3.5,6.34-1.38,12.61-.11,18.93C2123.51,1094.53,2127.09,1089.92,2130.28,1095.35Z" transform="translate(-1738.32 -683)"/><path class="cls-205" d="M2184.68,1085.65c-9.6,5.84-7.55,14.43-4.2,22.26,1.85,4.35,4.66,8.19,4.2,13.22,2.12,0,4.23-.07,6.34-.09.52-.52,1.06-1,1.58-1.53,1.31-3,1-5.67-1.43-8,1-4,2-8.09,3.09-12.1-1-1.36-2.07-2.72-3.11-4.1-4.76-1.81-2.28-6.51-3.86-9.62Z" transform="translate(-1738.32 -683)"/><path class="cls-206" d="M2194.82,1130.38c3.56-2.35,2.26-6.15,2.85-9.38-.18-.89-.37-1.79-.54-2.68-3.65-2.15-4.23.89-5.31,3.11l-.8-.39C2192.27,1124.15,2193.55,1127.27,2194.82,1130.38Z" transform="translate(-1738.32 -683)"/><path class="cls-207" d="M2191.8,1121.41l5.31-3.11c.62-4.55-1.43-6.77-6-6.81C2191.37,1114.81,2191.58,1118.11,2191.8,1121.41Z" transform="translate(-1738.32 -683)"/><path class="cls-208" d="M2152.85,1078.87c.3,9.36,7.33,6,12.31,6.52,1.71-3,4-5.7,3.37-9.47-2.31-2.81-5-4.72-8.89-4.27C2156.17,1072.9,2154.77,1076.13,2152.85,1078.87Z" transform="translate(-1738.32 -683)"/><path class="cls-209" d="M2158.93,1072.53c3.21,1.12,6.4,2.27,9.62,3.39,2.28-2.74,4.2-5.59,3.19-9.43-1-1.64-2.09-1.64-3.15,0l.13-.15c-.82,1.17-1.64,1.1-2.48,0l-7.44-.45C2156.92,1068.13,2157.14,1070.35,2158.93,1072.53Z" transform="translate(-1738.32 -683)"/><path class="cls-210" d="M2168.57,1066.47l1.57-.21,1.58.23c1.34-2.67,3.77-3.32,6.47-3.47v-3.08c-2.46-7.62-7.85-3.69-12.38-3.15C2167,1059.94,2169.8,1062.63,2168.57,1066.47Z" transform="translate(-1738.32 -683)"/><path class="cls-211" d="M2158.93,1072.53c0-2.22-.09-4.42-.13-6.64-5.65-1.49-9,.39-9.38,6.47-.28,1.08.13,1.68,1.2,1.83l1-.47s.65,1,.65,1-.82.82-.82.82c.45,1.12.9,2.26,1.36,3.38C2157.25,1079,2158.89,1076.54,2158.93,1072.53Z" transform="translate(-1738.32 -683)"/><path class="cls-212" d="M2151.44,1073.31a3,3,0,0,1-2.05-1c-1,1.19-2,2.39-2.95,3.58,1.68-.15,3.36-.3,5-.43l.82.43C2153.32,1074.62,2153,1073.76,2151.44,1073.31Z" transform="translate(-1738.32 -683)"/><path class="cls-213" d="M2166.22,1066.32l.84,2.59,1.64-2.61A2.71,2.71,0,0,1,2166.22,1066.32Z" transform="translate(-1738.32 -683)"/><path class="cls-214" d="M2151.44,1073.31a11.6,11.6,0,0,0,.87,2.61c.54-.63,1.05-1.27,1.59-1.9Z" transform="translate(-1738.32 -683)"/></svg>