<svg id="Layer_1" data-name="Layer 1" xmlns="http://www.w3.org/2000/svg" viewBox="0 0 595.28 841.89"><defs><style>.cls-1{fill:#e0c5b0;}.cls-2{fill:#c9ad93;}.cls-3{fill:#8d5e3f;}.cls-4{fill:#b5714b;}.cls-5{fill:#b0632e;}.cls-6{fill:#bea685;}.cls-7{fill:#f4e1c3;}.cls-8{fill:#edd3b5;}.cls-9{fill:#fcbb80;}.cls-10{fill:#f29d62;}.cls-11{fill:#6d6451;}.cls-12{fill:#645a4a;}.cls-13{fill:#5c5241;}.cls-14{fill:#bc955d;}.cls-15{fill:#e0c49d;}.cls-16{fill:#ddc39e;}.cls-17{fill:#9f8f7b;}.cls-18{fill:#fff2e4;}.cls-19{fill:#756757;}.cls-20{fill:#8f624e;isolation:isolate;opacity:0.5;}.cls-21{fill:#935224;}.cls-22{fill:#9c6c4c;}.cls-23{fill:#d6844c;}.cls-24{fill:#6e4223;}.cls-25{fill:#fcb95d;}.cls-26{fill:#d1765a;}.cls-27{fill:#b2674c;}.cls-28{fill:#c26e53;}.cls-29{fill:#8f4d39;}</style></defs><path class="cls-1" d="M231.07,830.93s13-64.19,18.48-69.15-5.14,39.17.45,54.13c1.63,4.39,29.51,7.51,28,15Z"/><path class="cls-2" d="M248.43,806.31c-4.31.44-8.48,1.05-12.45,1.83,4.26-19,10.27-43.36,13.6-46.36C254.15,757.64,247.56,787.54,248.43,806.31Z"/><path class="cls-3" d="M232.36,820.09a45,45,0,0,0,22.84-6.2c9.55,7.85,31.82,8.14,30,21.82h-58s1.52-6.54,3.83-15.7C231.47,820,231.91,820.09,232.36,820.09Z"/><rect class="cls-4" x="226.06" y="834" width="60.67" height="2.49"/><path class="cls-5" d="M217,53.17c-4.44-13.57.89-26.9,11.91-29.77s23.6,5.81,28,19.38S256,69.69,245,72.55,221.44,66.75,217,53.17Z"/><path class="cls-6" d="M230.08,161.38s-34.29-23.07-60.44-21.26l-3,16.59,62.9,22.71Z"/><path class="cls-7" d="M307.36,346.3c-9.9,5.25-21.66,4.46-18.74-6.28s-15.83-1.23-13.68-19.11-72.19-123-55.47-147.24S306.39,254.6,306.76,274s20.13-5,16.43,13.46S362.12,317.26,307.36,346.3Z"/><path class="cls-8" d="M217.13,186.09c4.76,21.21,19.69,51.13,42,81.4,22.73,30.85,47.77,54.87,67.41,66.29-4.36,3.8-10.55,7.93-19.19,12.49-9.9,5.25-21.66,4.47-18.74-6.27s-15.83-1.23-13.68-19.11C276.83,305.24,220.05,222.63,217.13,186.09Z"/><path class="cls-8" d="M328.34,302c-3.76-2.91-25.89,7.09-33.82,13.36s12.11,16.7,12.11,16.7Z"/><path class="cls-8" d="M301.11,292.43c-3.15-1-15.25,10.82-18.92,16.8s11.89,8,11.89,8Z"/><path class="cls-1" d="M73,830.93s13-64.19,18.48-69.15-5.15,39.17.44,54.13c1.63,4.39,29.51,7.51,28,15Z"/><path class="cls-2" d="M90.34,806.31c-4.31.44-8.48,1.05-12.44,1.83,4.25-19,10.26-43.36,13.59-46.36C96.09,757.64,89.47,787.54,90.34,806.31Z"/><path class="cls-3" d="M74.27,820.09a45,45,0,0,0,22.84-6.2c9.56,7.85,31.82,8.14,30,21.82h-58s1.52-6.54,3.83-15.7C73.38,820,73.83,820.09,74.27,820.09Z"/><path class="cls-9" d="M298.7,334.3c5.33-9.76,9.95-25.33,29.82-34.07C340.57,294.92,437.41,273,437.41,273l1,5.22s-114.69,66.1-130.94,64.16S298.7,334.3,298.7,334.3Z"/><path class="cls-10" d="M298.7,334.3c2.94-5.35,5.67-12.49,10.81-19.27a282.88,282.88,0,0,0,52.3-5.64,301.59,301.59,0,0,0,40.24-10.79c-35.1,19.24-84.32,45-94.56,43.76C291.22,340.44,298.7,334.3,298.7,334.3Z"/><path class="cls-11" d="M66,787c-.13,7.83,37.12,7.57,43.63,7.57s51.82-194.06,51.82-194.06-11.24-115.32-2-119.65,32.76-4.91,38.77-.58,40.61,92.54,41.51,103.35-17.62,215.27-17.62,215.27,36.68,2.15,46.13-4.33,13.49-189.3,12.65-209.86-43.39-185.41-43.39-185.41-121-6-138.72,15.59,8,171.63,13.76,187.85S66.21,776.17,66,787Z"/><path class="cls-12" d="M112.52,602.72c-5.7-16.22-31.47-166.22-13.75-187.85,13-15.91,81.77-16.86,117.31-16.23,2,29.46-39.74,15.26-46.8,48.23-3.15,14.67,7.64,10.58,64.42,38q2.56,9.16,5.17,18.71c9,33.13,15.8,62.88,23.84,82.88-2.73,26.62-5.2,62.06-9.38,100.81-4.64,43-11.73,83.21-15.69,111.88-8.61.08-15.52-.34-15.52-.34s18.54-204.45,17.62-215.26-35.5-99-41.51-103.36-29.58-3.75-38.77.58c-.08,0-.13.13-.21.19-9.43-24.21-11.37-18.77-20-11.63-19.22,15.85-20,51.76-15,78.49,9.93,52.92,10.29,94.35,26.94,96.13-13.78,57.2-37,150.53-41.48,150.53-6.51,0-43.76.26-43.63-7.56C66.21,776.17,118.22,619,112.52,602.72Z"/><path class="cls-13" d="M116.67,741.54c12.34-52.74,9.87-101.7-4.12-129.68.5-4.31.55-7.48,0-9.14C106.8,586.5,81,436.5,98.74,414.87c13.05-15.91,105.08-25,140.66-24.36-.74,8.16.76,20.18,3.33,32.55-26.12-2.6-71,12-73.48,23.78-3.15,14.68,7.64,10.58,64.42,38,1.71,6.12,3.44,12.34,5.17,18.72,9,33.13,15.81,62.87,23.84,82.87-2.73,26.62-5.2,62.06-9.37,100.81-4.65,43-11.74,83.22-15.7,111.89-8.61.07-15.51-.35-15.51-.35s18.53-204.44,17.61-215.26-35.49-99-41.5-103.35-29.59-3.76-38.78.58c-.08,0-.13.13-.21.18-9.42-24.2-11.36-18.77-20-11.63-19.21,15.86-20,51.77-15,78.49,9.92,52.93,10.29,94.35,26.93,96.14-13.78,57.2-37,150.52-41.48,150.52-1.76,0-5.69,0-10.55-.1A293,293,0,0,0,116.67,741.54Z"/><polygon class="cls-14" points="183.27 406.42 207.74 408.65 203.69 415.58 171.82 416.68 183.27 406.42"/><path class="cls-7" d="M242.89,182.83c25,30.22,13,86.37.94,137.56-9.4,39.77,5.67,78.6,3.68,82.22-4.81,8.66-63.79,1.44-63.79,1.44-24,43.26-92.52,93.75-92.52,93.75C84.93,437.94,96,389.9,101.63,368c22.73-88.7-27.54-142.78,14.12-200.48C123.52,156.71,200,130.93,242.89,182.83Z"/><polygon class="cls-8" points="234.41 182.2 236.93 204.33 218.29 195.09 225.64 174.69 234.41 182.2"/><path class="cls-15" d="M251.44,286c-2.25,11.49-4.93,23.1-7.61,34.44-9.4,39.77,5.67,78.6,3.68,82.22-2.21,4-15.91,4.59-30.06,4.12C237.19,391.77,226.61,324.43,251.44,286Z"/><path class="cls-8" d="M101.6,368c22.73-88.7-27.54-142.78,14.12-200.48,31.82-44,135.83,14.67,103.28,18C94.17,184.27,133.42,321.2,91.2,497.8,84.9,437.94,96,389.9,101.6,368Z"/><path class="cls-16" d="M101.6,368c22-85.92-24.44-139.34,10.45-195-2.21,10.92-8,23.34-3.41,34.29,43.42,104.37-17.83,252.43,11.42,267.58-23.84,22.45-28.85,22.94-28.85,22.94C84.9,437.94,96,389.9,101.6,368Z"/><path class="cls-8" d="M29.64,364.36c-10.1-3.7-16.87-13-6.93-18.38s-8.92-12.68,5.88-23.62S86,177.24,114.65,172.7,98.19,299.31,83.83,313.17s16.27,11.55.1,21.71S85.67,384.84,29.64,364.36Z"/><path class="cls-7" d="M83.91,334.85c-14.31,9-2,41.11-37.62,34.31C40,354.31,47.94,320.44,66.87,286c16.09-29.27,35.7-50.9,50.51-57.49-9.27,35.92-25.86,77.16-33.58,84.61C69.44,327,100.1,324.69,83.91,334.85Z"/><path class="cls-9" d="M166.76,153.64s30.71,56.26,30.66,78.41c0,0,34.57-57.62,32.05-62.74C223.09,156.34,171,145.53,166.76,153.64Z"/><path class="cls-10" d="M193.3,167.6c-5.86,0-11.29,2.52-15.94,6.83-5.8-12-10.6-20.79-10.6-20.79,4.22-8.11,56.33,2.7,62.71,15.67.95,1.94-3.44,11.45-9.24,22.5C215,177.4,204.9,167.6,193.3,167.6Z"/><path class="cls-17" d="M183.4,187.4c7.22,16.14,14,34.2,14,44.68,0,0,11.6-19.61,20.87-37C204.11,201.63,187.57,190.5,183.4,187.4Z"/><polygon class="cls-18" points="231.07 181.1 245.09 202.86 237.74 166.61 228.95 158.5 231.07 181.1"/><polygon class="cls-10" points="209.94 127.12 175.76 99.01 173.66 153.09 212.25 166.08 209.94 127.12"/><path class="cls-15" d="M192.4,390l-8.71,14.07c24.05,3.23,44.1,3.84,52.92,2.15Z"/><path class="cls-15" d="M198.68,366.91c.18-3.39-1.71-6.15-4.2-6.15s-4.67,2.76-4.86,6.15,1.71,6.11,4.2,6.11S198.5,370.29,198.68,366.91Z"/><path class="cls-15" d="M200.67,335.54c.19-3.39-1.7-6.15-4.2-6.15s-4.67,2.73-4.83,6.15,1.71,6.11,4.2,6.11S200.49,338.92,200.67,335.54Z"/><path class="cls-15" d="M202.28,298.05c.18-3.39-1.71-6.14-4.2-6.14s-4.68,2.75-4.86,6.14,1.7,6.11,4.2,6.11S202.09,301.43,202.28,298.05Z"/><path class="cls-15" d="M203.56,259.46c.19-3.39-1.7-6.14-4.2-6.14s-4.67,2.73-4.86,6.14,1.71,6.12,4.21,6.12S203.4,262.85,203.56,259.46Z"/><path class="cls-9" d="M190.44,308.44C183.9,315.51,204,325,209.49,324.22c6-.79,11.53-11.84,10-16.33S199.91,298.15,190.44,308.44Z"/><path class="cls-9" d="M210.26,306.58c8.29-3.91,13.65-7.59,12-9.71-1.86-2.42-5.43,2.91-13.52,3.28-8.9.42-13.23,3.65-13.44,6.67S201.86,310.57,210.26,306.58Z"/><path class="cls-9" d="M221.6,309.34c7,.36,11.15-1,11.44-2.92s-3.75-1.83-10.71-2.23-15.2-2.57-15.54-.73S214.61,308.92,221.6,309.34Z"/><path class="cls-9" d="M220.31,317.13c7.27,1.53,14.25-.55,14.44-2.52s-6.83-1.68-14-3.17-11.87-2-12.08-.08S213.09,315.61,220.31,317.13Z"/><path class="cls-9" d="M214.14,324.93c7,1.34,11.47.37,12-1.6s-4.41-1.87-11.31-3.18-11.68-2.07-12.29-.16S207.21,323.62,214.14,324.93Z"/><path class="cls-9" d="M433.39,273.48c-1.54,10.26,22.21,9.68,26.7,6.27,4.94-3.78,3.13-17.48-1-21.16S435.65,258.57,433.39,273.48Z"/><path class="cls-9" d="M450,261.82c5.06-8,7.64-14.31,4.83-15.59-3.15-1.47-3.1,5.59-10.13,10-7.75,4.83-9.67,10.18-8,13.28S444.92,269.93,450,261.82Z"/><path class="cls-9" d="M461.88,258.93c6.53-3.09,9.37-6.56,8.5-8.55s-4.49,0-11,3.09-15.2,5-14.39,7S455.37,262,461.88,258.93Z"/><path class="cls-9" d="M465.47,267.31c7.46-2.1,12.47-7.62,11.42-9.64s-7.14,1.71-14.51,3.78-11.87,3.89-10.9,5.91S458.07,269.38,465.47,267.31Z"/><path class="cls-9" d="M464.69,278.12c7.06-2.12,10.52-5.33,9.79-7.56s-5.09.32-12.08,2.44-11.73,3.73-11.1,5.94S457.68,280.25,464.69,278.12Z"/><path class="cls-7" d="M102.83,215.91c4.28-6,7.43-18,11.42-17.51s8.9,7.58,7.93,14.91-10.53,14.57-13.89,16.77C94.2,239.32,94.59,227.48,102.83,215.91Z"/><path class="cls-9" d="M214,164.24l-5,13.37s-21.29-5.44-23-7.51S214,164.24,214,164.24Z"/><path class="cls-19" d="M214.35,196.4a19.45,19.45,0,0,0,3.91-1.34c-9.26,17.38-20.87,37-20.87,37a33.14,33.14,0,0,0-.42-4.93C200.23,221.6,207.63,208.82,214.35,196.4Z"/><path class="cls-16" d="M110.42,274.87c2.91-7.93,19.22-41.74,18-45.92S110,254.84,110,254.84Z"/><polygon class="cls-13" points="197.26 421.4 193.09 453.14 191.83 423.93 197.26 421.4"/><path class="cls-16" d="M166.78,347.93c.37-7.93-56.36,15-56.36,15l1.26,21.29S166.36,356.69,166.78,347.93Z"/><path class="cls-8" d="M30.41,337.77c12.23,1.39,41.47-28.38,54.55-10.58,28.56,38.9-58.18,20.5-57,20.32Z"/><path class="cls-8" d="M38.75,338.61c12.24,1.39,40.48,17.11,32,25.88-15.85,16.41-39.24-1.1-39.24-1.1Z"/><path class="cls-9" d="M50.88,357.09c6.28-9.24,12.42-24.34,33-31.11,12.47-4.1,110.52-16.35,110.52-16.35l.5,5.32S74.67,369.61,58.78,366,50.88,357.09,50.88,357.09Z"/><path class="cls-10" d="M50.88,357.09C54,352.57,57,346.61,61.72,340.94c14.31,2.37,40.54.9,70-4.54,10.71-2,20.84-4.3,30-6.8-36.83,15.91-92.51,38.8-103,36.47C42.88,362.5,50.88,357.09,50.88,357.09Z"/><polygon class="cls-16" points="183.48 171.91 183.77 189.45 173.19 172.75 183.48 171.91"/><polygon class="cls-18" points="156.23 188.79 183.48 171.91 169.65 140.12 160.14 144.98 156.23 188.79"/><polygon class="cls-6" points="220.23 192.78 231.07 181.1 228.84 158 225.51 163.56 220.23 192.78"/><path class="cls-20" d="M137.72,194.41a226.85,226.85,0,0,1-39.35-8.51c4.6-6.06,9.08-10.42,13.31-12.28,1.24-2,2.57-4.05,4-6.09,9.8-13.58,26.47-17.38,43.87-16.07l.58-6.46,9.47-4.85c1.26-.08,3-.08,4.57-.19,4.6-71.77,45.84,15.15,53.53,19.95l1.13-1.89.26,2.79s0,0,.05,0l-.21-2.28,8.82,8.11,1.37,6.69C228.76,191.31,186.45,200.63,137.72,194.41Zm92.12-26.33v.21l.18,1.94,0,0Z"/><path class="cls-9" d="M168.67,78.61c13.34,19.66,2.13,59.88,27,71.64s38.65,9.82,38.65,9.82S258.9,124,257.19,100s-7.35-22.16-1.83-27.83-3.34-54-43.58-63.89c-17.12-4.23-45.52-6.41-55.26,13C147,40,164.18,72,168.67,78.61Z"/><path class="cls-10" d="M251.21,128.17c-5.38-3.2-9.27-12.75-9.27-24,0-12.87-1.1-27.15,11.58-25,.94,3.26,2.78,8.77,3.65,20.79C257.77,108.56,255,118.7,251.21,128.17Z"/><path class="cls-10" d="M156.47,21.23c4.91-9.77,14.59-14,25.15-15.36,2.52,13.83,41.11,6.85,10.76,56.94-21.48,35.46,16.38,71.8,40.35,71.8,6.64,0,12.94-2.45,18.56-6.7a188.13,188.13,0,0,1-17.07,32.16s-13.8,1.92-38.64-9.82-13.6-52-27-71.64C164.18,72,147,40,156.47,21.23Z"/><path class="cls-10" d="M242.76,76c-.45,6.12,14.33,19,12,10-2.1-7.93-3-8.66,1.68-14.47C257.67,69.87,243.23,69.4,242.76,76Z"/><path class="cls-5" d="M169.17,87.17c1,15.8-4,38,8.3,50.09s33.18,24.7,56.78,22.81c0,0,24.41-26.86,22.92-62.82,0,0-6.72,19.16-26.6,17s-50-15.36-50.5-45.26,24-33.58,18.16-40.09c-12.81-14.2-59-25.64-54.57,29.85C145.91,86.93,169.17,87.17,169.17,87.17Z"/><path class="cls-21" d="M175.29,22.33c-5.91,15.12-7.93,33.42-4.78,52.45,7.35,44.36,30.4,84.92,63.27,79.46.44-.08,10.47-9.21,10.92-9.29a91.83,91.83,0,0,1-10.48,15.12c-23.6,1.92-44.52-10.68-56.78-22.81s-7.3-34.29-8.29-50.09c0,0-23.29-.21-25.52-28.43C140.4,17.94,160.3,17.26,175.29,22.33Z"/><path class="cls-10" d="M169.85,72.18c-9.18-2.39-16.45-6.9-20.92-.08s3.18,21.37,11.45,23,11.86-.45,13.49-3.07S175.76,73.7,169.85,72.18Z"/><path class="cls-5" d="M263.05,66.46c1.21,3.75-4.86,6.93-10.79,6.93s-12.5-5.46-11.39-10.69,6.3,1.37,9.81,2.63S260.24,57.74,263.05,66.46Z"/><path class="cls-9" d="M241.21,70.32c5.75,12.26,15.12,43.13,9.92,47s-6.85-1.1-8.48-1.39-6.56,2.49-7.11-2S241.21,70.32,241.21,70.32Z"/><path class="cls-10" d="M239,75.54c.84,7.93-17.95,23.18-25.75,16.49s-8.06-15.31-4.46-15.86S238.32,69.13,239,75.54Z"/><path class="cls-5" d="M204.59,71.79c-1.29,3.8,6.11,4.43,16,2.73s18.48-5.83,15.65-10.35-9.88.21-15.49,2.37S207.55,62.91,204.59,71.79Z"/><path class="cls-22" d="M227.53,79.29l-9.61,1.26S220.84,93.08,227.53,79.29Z"/><path class="cls-22" d="M245.64,78l5.49.31S250.53,87.69,245.64,78Z"/><path class="cls-21" d="M188.28,26.9c-1.05,10.44-19.21,34-2.86,62.05,0,0-4.93-21.42-.5-33.47,3.6-9.74,15.23-19.13,14.13-25.25s-16.23-11-16.23-11S188.55,24.22,188.28,26.9Z"/><path class="cls-5" d="M175.34,20.65c-5.64,6.67-14.62,21.29-14.83,39,0,0,4.38-14.62,14-24.62S175.34,20.65,175.34,20.65Z"/><path class="cls-5" d="M170.54,17.31c-5.46,4.83-14,15.39-13.78,28.17a45.45,45.45,0,0,1,13.33-17.77C179.44,20.46,170.54,17.31,170.54,17.31Z"/><path class="cls-21" d="M148.14,28.42c-4.38,5.8-10.68,17.85-7.87,30.37a45.67,45.67,0,0,1,9.5-20.08C157.49,29.76,148.14,28.42,148.14,28.42Z"/><path class="cls-21" d="M147.38,45.27c-3.72,6.25-8.71,18.9-4.56,31a45.53,45.53,0,0,1,7.29-21C156.81,45.59,147.38,45.27,147.38,45.27Z"/><path class="cls-23" d="M167,75.72c-5.85-1.52-10.45-4.41-13.31,0s2,13.65,7.27,14.7,7.54-.29,8.59-1.94S170.77,76.72,167,75.72Z"/><path class="cls-10" d="M170.93,82.21c-3.15-.76-5.62-2.21-7.17,0s1.05,6.88,3.89,7.37,4.07-.15,4.62-1S173,82.68,170.93,82.21Z"/><path class="cls-24" d="M247.61,122.29l-.13-.47c-.5.55-12.65,13.26-33.36-3.7l-1.55,2.76C228.4,133.84,241.08,129.43,247.61,122.29Z"/><path class="cls-21" d="M236.51,132.74s-8.14.84-9.82,0S226.9,143.37,236.51,132.74Z"/><path class="cls-8" d="M67.84,304.93c5-2.5,7.51,12.1,15,19.61L72.41,325.8S62.83,307.45,67.84,304.93Z"/><rect class="cls-4" x="68" y="834" width="60.67" height="2.49"/><path class="cls-25" d="M418.77,458.73c-13.81-22.6-22-32.52-11.31-54.73,0,0-25.33,25.31-18.27,43.55s-6.28,56.57-11,60.33,29.72-7.06,29.72-7.06S432.58,481.34,418.77,458.73Z"/><path class="cls-25" d="M449,432.69c16.69-18.37,25.88-25.88,21.71-50.08,0,0,15.85,30.89,5.85,46.75s-7.19,56.31-4,61.14-23.63-14.33-23.63-14.33S432.29,451,449,432.69Z"/><path class="cls-25" d="M378.69,380.92c-1.82,13.05-1.71,17.93,3.25,30s3.65,13-8.69,21.74l-2.6-17.83C366.14,403.24,378.69,380.92,378.69,380.92Z"/><path class="cls-25" d="M496.74,380.08c1.78,12.92,1.68,17.72-3.18,29.7s-3.57,12.83,8.51,21.52l2.55-17.64C509,402.16,496.74,380.08,496.74,380.08Z"/><path class="cls-25" d="M442.48,351.13c-5.49,7.66-6.17,19.53,1.36,36.94s9.09,25-9.58,37.64l-8.22-39C419.19,370,442.48,351.13,442.48,351.13Z"/><path class="cls-26" d="M328.89,463.51V593.85s9.76,8.69,16.3,8.69-5.43,9.77-5.43,9.77V836.05H568.91l2.17-209.62L557,623.17l11.95-18.45v-152S420.11,424.42,328.89,463.51Z"/><path class="cls-27" d="M346.19,607c-6.93,0-17.3-8.53-17.3-8.53V470.55c64.23-25.41,155.3-21.84,209.43-16.51C496.29,492,455.76,575.5,435,676.36,423,734.88,419.43,790.21,423.26,836.05H340.44V616.53S353.12,607,346.19,607Z"/><path class="cls-28" d="M427,615c-.84-25-54-146.4-79.89-146.4s-3.33,118.55-3.33,118.55Z"/><path class="cls-29" d="M345.16,602.54c-6.51,0-16.3-8.69-16.3-8.69V463.51a209.82,209.82,0,0,1,30.85-10.29c-9.66,15.28-15.1,32.37-15.1,50.43,0,64.55,69.15,116.9,154.47,116.9a195.85,195.85,0,0,0,67-11.55l-9.19,14.17,14.13,3.26v.76c-52.61,7.4-200.56,44.86-210.83,208.86H339.76V612.31S351.67,602.54,345.16,602.54Z"/><path class="cls-27" d="M351.2,622.2c-4.8,3.34-6,28.38-2.39,35.92,5.33,11.13,83.35-15,79.15-20.87S356,618.87,351.2,622.2Z"/><path class="cls-27" d="M353.22,658.3c-6.48,2.81-6.8,20.11-1.39,24.86,8,7.06,114.9-19.35,108.76-22.92S359.71,655.49,353.22,658.3Z"/><path class="cls-27" d="M563.13,456.74v1.1a7.42,7.42,0,0,1-.18-1.34A1.08,1.08,0,0,1,563.13,456.74Z"/><path class="cls-27" d="M560.5,458.87c.77-1.32,2,2.17,2.63,2.52v2.44C562.37,463.83,561.55,463.46,560.5,458.87Z"/><path class="cls-27" d="M559.43,462.25c.31-.89-.79-6.69.1-5.46.66,2.23.27,3.07.74,6.49C560,463.09,559.64,463.7,559.43,462.25Z"/><path class="cls-27" d="M562.34,536.2c-1.47,2.18-1-6.22,0,0Z"/><path class="cls-27" d="M557.38,521.37c.24-1.55.6-3.41,1.29-.1C557.91,519.8,557.85,524,557.38,521.37Z"/><path class="cls-27" d="M554.91,522.66c-.31-.24-.21-1.79,0-2.18.32,1.57.53,2.7.84,4.28-.08,1.39-.66.52-1-1C554.78,523.52,555,523.71,554.91,522.66Z"/><path class="cls-27" d="M555.07,529.19c.11-1.86,1-.94,1.26,3.18C555.83,532.92,555.46,531.06,555.07,529.19Z"/><path class="cls-27" d="M553.65,519.48c-1.13-.76-.34-6.22-1-7.56l.36,0c.11,1.08.29,1.29.42,2.16a11.26,11.26,0,0,0-.18,3.3A6.51,6.51,0,0,1,553.65,519.48Z"/><path class="cls-27" d="M563.13,625.69v.77c0-.24-.13-.48-.18-.79A.55.55,0,0,0,563.13,625.69Z"/><path class="cls-27" d="M559.66,612.86c-.65-2.29-.7-5.88-.34-6.54.5,3.41.84,2,1,4.28-.06-.66-.11-1.29.08-1.1C561.08,613.75,559.53,610.36,559.66,612.86Z"/><path class="cls-27" d="M557.56,616.32l.35,3.26c-1.37-1.1-2.73,1.21-3.92-2.94C554.7,613,556.36,616.24,557.56,616.32Z"/><path class="cls-27" d="M546.36,525.57c.21-.16.21-1.94.55-.05-.19,1.36-.9.86-.76,3.33a19.89,19.89,0,0,1-.77-5.41C545.83,522.21,546,525.15,546.36,525.57Z"/><path class="cls-27" d="M548.74,569c.66.74.56-1.15,1-1.15.16,1.39.4,1.47.53,3.23-.69-.89.13,3.59-.4,3.31C548.59,571.17,550.08,572.12,548.74,569Z"/><path class="cls-27" d="M535.75,450.07a5.07,5.07,0,0,1,0-1l.42,0a8.84,8.84,0,0,0,1,1.91C536.77,451.91,536.35,452,535.75,450.07Z"/><path class="cls-27" d="M543.15,512.76c.16,4.1.74,2,1,5.38-1.08-4.51-1.58,3.41-2.55-3.07C542.78,515.39,542.08,512.37,543.15,512.76Z"/><path class="cls-27" d="M548.59,574.5c-.92-4.62-.55-7.19-1-10.84.18-1.63,1.23-.16,1,2.1C547.88,564.92,549.09,572.38,548.59,574.5Z"/><path class="cls-27" d="M552.05,617.87c-.52.21-.79-3-1.21-4.25l.74,0Z"/><path class="cls-27" d="M536.3,482.78c.68.87.58-1,.68-2.26.19,3.07.55,2.79.76,5.39C537.19,486,536.69,485,536.3,482.78Z"/><path class="cls-27" d="M550,614.77c-1.18,3.1-3.36.79-4.72-1.75C546.75,609.58,548.14,610.57,550,614.77Z"/><path class="cls-27" d="M544.23,584.72c.66.57.79-.82,1.18-1.21.39,2.26.79,4.78,1.23,6.43C545.8,588.84,544.78,590.15,544.23,584.72Z"/><path class="cls-27" d="M546.51,597.63c.08.66.16,1.29.32,1.08l.23,2.15c-.39-.58-1,1.39-1.23-1,.18-1.84.26.08.74-.08C546.49,599,546.33,597.68,546.51,597.63Z"/><path class="cls-27" d="M538.77,536.07c.52-.68.92.66,1.39,1a18,18,0,0,1,.08,4.36C539.82,538.28,539.19,538.91,538.77,536.07Z"/><path class="cls-27" d="M541.55,552.19l.24,2.15c-.19,1.84-.24-.08-.74.06l-.23-2.16C541.34,552.32,541,550.43,541.55,552.19Z"/><path class="cls-27" d="M541.24,574.06c-.61.05-.77,2.36-1.34-2.08C540.37,572.06,540.84,572.54,541.24,574.06Z"/><path class="cls-27" d="M536.54,530.8c.1.05.23.15.29,1.07-.29.08,1.2,7.64.13,6.54a24.35,24.35,0,0,0-.84-6.46C536.33,531.85,536.2,530.53,536.54,530.8Z"/><path class="cls-27" d="M527.35,456.27c-.29-2-.68-2.68-.92-5.38.84-.74,1.44,3.91,1.92.91.15,1.4.39,1.5.52,3.23C528.14,455,528,454.69,527.35,456.27Z"/><path class="cls-27" d="M527.45,457.37a8.72,8.72,0,0,0,.4,2.15c.21-.26.18-1.7.47,1.05-.63-.5-.45,2.42-1.08.08C527,458.29,527,457.19,527.45,457.37Z"/><path class="cls-27" d="M525.83,448.76c.39,1.36.63,5.09,1,6.46-.5.26-1,.21-1.23-3.18C526.43,452.51,525.14,449.15,525.83,448.76Z"/><path class="cls-27" d="M544.94,631.6c-.24,2.34-1.08-2.34-1.58-4.23C544,627.53,544.54,628,544.94,631.6Z"/><path class="cls-27" d="M526.48,458.52c.19,3,.58,2.16.79,4.31,0,.63-.6,2.62-.89.08C527.27,464.56,526,458.24,526.48,458.52Z"/><path class="cls-27" d="M525,449.91c-.42.74.6,7-.45,4.41a12.71,12.71,0,0,1,0-3.28c-.16-.23-.34,0-.47-1.05C524.2,449.36,524.75,447.39,525,449.91Z"/><path class="cls-27" d="M539.66,608a8.67,8.67,0,0,0,.39,2.15c-.1-1.13.16-.87.29,1.08-.6-.76-.15,2.18-.52,2.23C539.37,611.89,538.93,607.34,539.66,608Z"/><path class="cls-27" d="M524,452.17c-.06.63-.58,2.6-.9.08a5.69,5.69,0,0,0,0-2.18C523.41,450.23,523.75,450.75,524,452.17Z"/><path class="cls-27" d="M524,463.09c-.21-3.33-.71-2-.92-5.38l.71,0A41.8,41.8,0,0,1,524,463.09Z"/><path class="cls-27" d="M518.32,471.23c.16-1.94,1.1-.89,1.7-1.23a26,26,0,0,0,.5,3.23c-.47,1.18-.76.23-.94,3.36C519.32,472.44,518.58,475.38,518.32,471.23Z"/><path class="cls-27" d="M520.31,482a12.53,12.53,0,0,1-1.65,3.42l-.55-5.41C519.21,481.13,519.47,478.76,520.31,482Z"/><path class="cls-27" d="M517.77,471.28c-.16,1.66-1.21.08-.37,5.49-.6.89-.71-5.72-1.34-4.25-.47-3.31.5-1.37-.18-5.44C516.66,466.43,517.14,469.94,517.77,471.28Z"/><path class="cls-27" d="M520.37,513.63c-.06-1.79,1.68.1,1.39,1C521.21,514.36,520.94,517.75,520.37,513.63Z"/><path class="cls-27" d="M515.43,460.57c-.58-.23-.79,3.13-1.36-1C514.8,461.18,515.12,456.35,515.43,460.57Z"/><path class="cls-27" d="M506.93,447.24l.42,0C507.21,447.5,507.08,447.6,506.93,447.24Z"/><path class="cls-27" d="M509,455.66l.42,4.33c-.5-.81-1-.52-1.39-3.15C508.42,456.84,508.32,454.93,509,455.66Z"/><path class="cls-27" d="M504.9,488.77c-.34-6.54,2.26-1,2.55-.21-1.26-.71-.42,4.49.18,7.61C506.72,501.5,506.16,486.35,504.9,488.77Z"/><path class="cls-27" d="M501.57,469.42c.39-2.34,1.34-3.57,2-.18C502.78,469.13,502.3,473.25,501.57,469.42Z"/><path class="cls-27" d="M503,490c-.78-5.57,1.19-2.79.71-.06C503.43,487.17,503.57,491.47,503,490Z"/><path class="cls-27" d="M504.69,527c-.52-4.28.4-3.15,1-3.36.21,2.15.63,1.34.78,4.3C505.8,528.85,505.35,526.36,504.69,527Z"/><path class="cls-27" d="M502.67,525c.45.61,1.08-1.44,1.39,1C503.72,526,503.22,528.49,502.67,525Z"/><path class="cls-27" d="M502.46,532.66l.92-.08C504,542,503.51,535.94,502.46,532.66Z"/><path class="cls-27" d="M500.81,523c.42,1,.94.29,1.31,2.08C502,526.31,501,528,500.81,523Z"/><path class="cls-27" d="M498.6,511.16a27.37,27.37,0,0,1,.24-5.49c.5,2.84.92,3.28,1.29,2.08.28,1.57.49,2.73.78,4.3C500.1,512,499.44,510.35,498.6,511.16Z"/><path class="cls-27" d="M502.41,535.94c-.5-.42-1.18-3.65-1.05-5.38C502.25,530.4,501.78,533.74,502.41,535.94Z"/><path class="cls-27" d="M496.9,494.94c.55.86.68-3.36,1.26-.11C498,495.93,497.42,499.06,496.9,494.94Z"/><path class="cls-27" d="M490.15,446.37a.72.72,0,0,0,.53-.21l1.94.13a7.6,7.6,0,0,1,.31.95C492.2,447.37,490.75,449,490.15,446.37Z"/><path class="cls-27" d="M492.49,463.64l-.21-2.18c-.06-.65-.08-1.28.08-1.07.21,1.68.47.71.55-.05a28.68,28.68,0,0,0,.47,3.22C493.25,465.64,493,463,492.49,463.64Z"/><path class="cls-27" d="M493.88,476.61c-.24-3.41-.92-.31-1.13-4.28-.16-1.78.45-.63.34-2.2-.13-.05-.24-.13-.29-1.05.37.13.68.65.92,2.1C493.2,470.73,494.43,477.06,493.88,476.61Z"/><path class="cls-27" d="M491.54,467a6.56,6.56,0,0,0-.55-2.12c.05.65.08,1.28-.08,1.1-.08-1.94-.94-4.44-.5-5.41.45,3.18,0-2.54.61-1.15.15,3,.55,2.15.76,4.3C490.7,462.65,491.94,466,491.54,467Z"/><path class="cls-27" d="M494.61,503.86l.32,3.26c-.47-.5-1.13-2.08-1.29.1C493.33,503.7,494.25,504.83,494.61,503.86Z"/><path class="cls-27" d="M483.8,469.84c.65,4.86.6-3.28,1.47,2.05a5.71,5.71,0,0,0-.16,2.2A4.61,4.61,0,0,1,483.8,469.84Z"/><path class="cls-27" d="M480.62,445.5l.42,0c0,.52.11,1.08.16,1.6C481,447.08,480.78,446.45,480.62,445.5Z"/><path class="cls-27" d="M480,482.18c-.45.34-.81-.32-1-3.18C479.44,478.66,479.81,479.34,480,482.18Z"/><path class="cls-27" d="M478.26,476.87c-.24-3.46-.37-6.61.05-7.64C478.28,471.78,479.05,477.32,478.26,476.87Z"/><path class="cls-27" d="M479.05,492.1c-.4-4.33.65-3.49,1-1.18C479.94,492.18,479.52,492.21,479.05,492.1Z"/><path class="cls-27" d="M472.4,445.71a2.16,2.16,0,0,0,.9-.71l1.7.11a10.09,10.09,0,0,1,.16,1.44C474.4,446.87,473.24,449.94,472.4,445.71Z"/><path class="cls-27" d="M475.69,489.11c.81,1.44,1.52-.61,2.54,2C477.63,491,476.5,496.2,475.69,489.11Z"/><path class="cls-27" d="M472.09,456.66c.66,1.58.79-1.5,1.36,3.15C472.93,459.92,472.35,460.57,472.09,456.66Z"/><path class="cls-27" d="M472.69,490.47c.79-1.52,1.87-1.91,3,.82C475,492.28,474.08,492.44,472.69,490.47Z"/><path class="cls-27" d="M469.7,446c.21.05.26-.5.32-1.15l.84.05a29.87,29.87,0,0,1,.84,3.1C471,448.18,470.28,447.79,469.7,446Z"/><path class="cls-27" d="M471.51,464.35c-.63-.73-.37,1.92-1,1.18-.18-1.55-.45-1.81-.66-3.2C470.23,462.17,470.93,459.42,471.51,464.35Z"/><path class="cls-27" d="M471.28,472c-.4-2.08-.5,5.17-1.26.1C470.2,471.18,471.51,468.11,471.28,472Z"/><path class="cls-27" d="M460.22,451.15c.82,1.15,1-3.36,1.53,1C461.43,452.78,460.64,455,460.22,451.15Z"/><path class="cls-27" d="M453.16,457.21c1.26.29,3.23-3.8,4.49,1.79C455.08,456.32,455.08,465.06,453.16,457.21Z"/><path class="cls-27" d="M458.83,490.58c0-2.78-1.07-5.51-.26-5.44.37,2.34.79,5,1.18,7.54-2.47-1.63-4.65,3.23-6.88-1.6C454.34,489.06,456.15,488.69,458.83,490.58Z"/><path class="cls-27" d="M450.9,460.68c-.81-2.5-1.15,2.6-1.6-4.23,1-.21,1.45-2.05,1.89-1.26A41.31,41.31,0,0,0,450.9,460.68Z"/><path class="cls-27" d="M447.94,443.38l.47,0c0,.92.16,2.21.24,3.28C448.31,447,448.12,445.14,447.94,443.38Z"/><path class="cls-27" d="M450.85,491.26c.16,0,.53-3.94,1,1C449.7,492.76,449,491.6,450.85,491.26Z"/><path class="cls-27" d="M448.91,476.14c.81-.42.89,5,.45,5.43A34,34,0,0,1,448.91,476.14Z"/><path class="cls-27" d="M448.52,482.73l-.74,0C447.33,478.63,448.33,478.55,448.52,482.73Z"/><path class="cls-27" d="M446.94,469.76l-.52-6.48C447.07,462.59,447.18,469.52,446.94,469.76Z"/><path class="cls-27" d="M443.76,494.07l-.89.08C442.32,490.84,443.79,490.71,443.76,494.07Z"/><path class="cls-27" d="M439.72,468.21c.71.89.71-2.86,1.18,1C440.53,469.71,440.11,471.78,439.72,468.21Z"/><path class="cls-27" d="M441.24,475.72l.69,8.66C441.38,484,440.35,474.43,441.24,475.72Z"/><path class="cls-27" d="M437.59,480.39c.08-1.94-.44-6.32-.23-7.61C437.83,474.67,438.25,480.71,437.59,480.39Z"/><path class="cls-27" d="M557.38,598.87c-1.21-6.07-1.36-1.71-2.39-3.08a57.14,57.14,0,0,1-.44-7.61c-.24,0-.42-1.36-.69-1a57.33,57.33,0,0,1,.19,8.72c-.84-4.65-1.47-1.68-2.26-5.25-.29-1.26-.32-5.49-.5-1.05-.81-4.1-.58-6.23-1.42-9.69.92,1.65.08-2.84.4-3.31.26,1.45.6,2,1,2.1-.11-1.07,0-1.31,0-2.18a26,26,0,0,1-.74-8.66c-.45.21-.76-1.6-1.08-3.18.27-.21.74.32.63-1.15-.49-2.81-1.2-2.18-1.68-5.3.4,2.73.77,4.17.11,4.35-.32-3.57-.63-6.8-1.21-4.25.19,1.79.58.55.79,2.1-.68,2.31-1.44-5.59-2.1-7.45-.55-.42.26,4-.11,4.38-.55-.87-1-3.39-1.49-5.33,0,2,.34,5.25-.47,4.41.07-3.31,0-8.14-1.08-11.92,1.68,5.65,2.76,8.56,1.36-1.2,0-2.68,1,2.15.82-1.16-1.1-2.94-1.5-2.7-2.31-.89-.76-5.23-1-.34-1.76-4.23.42-2.34,2.18,2.1,1-4.44.58.53,1.1,1.5,1.71,2,.1-.63-.19-5.86.21-3.29.13,2.08-.32,2,.21,5.44l.55-.05a21,21,0,0,1-.58-5.41,4.84,4.84,0,0,1,3.68-.32l-.37,0c.74,1.78.58,4.86,1.05,6.46l.37,0c-1.08-6-.19-10.16-1.68-14,.47-.84.68,3,1.15,2.1-.36-1.89-.63-5.39-1.05-6.46.06,6.8-2.28,2.86-3.67.31.68.11,1.1,1.16,1.28-.1-.63-2.21-.34-3.49-.39-5.41,1.58,1.55,2.52,4.33,3-1.36a8.55,8.55,0,0,0,.71,3.2c-.1-1.87.87,0,.68-2.23-.86-1.18-.47-7.62-1.54-7.51-.32.66-.21,1.73.15,3.25-.68.53-1.26-2.41-1.15,1.21-.16-1.26-.29-3.07-.53-3.23.06,1.37.27,6.62-.39,3.31,0-3.83-.95,1.05-1.21-4.25-.65-.61-.34,2.07-.92.08.13,1.07.29,1.28.42,2.15-.65-.79-2.89-4.39-1.34,1.21-1.73-2.26-2.91,2.54-4.46-4-.71.57,0,.86-.39,3.3-.82-6.43-1.6,1.11-2.58-5.25.06,2.45-.36,3.23-.34,5.49a3.06,3.06,0,0,1,1.13,2.07c0,2.68-.81-1.12-.63,1.16.45,3.78.47-.13.79,2.13.08,3.8-1.79,2.78-2.18-3.1.45.26.66-.32.5-2.23a11.23,11.23,0,0,1-.89-3.21c.31-1.44,1.07,3.1.92-.07-.56-1.69-1.29-.87-1.74-4.23l.34,3.25c-4.33-1.52-8.63-4-11.55-3.36-.15-2.57-.23-5.06-.89-5.38.16,3.07.53,2.78.74,5.41-.58.68-1.11-5.07-1.32-2.07-.23-2.68-.5-5.25-.89-5.39a62.48,62.48,0,0,0,.66,6.49c-1.21-.66-3.57-2.15-5.07-2.84-.37-1.89-.6-5.38-1-6.45.4,4.54-.78-1.16-.68,2.25.37,1.5.95.4,1.23,3.18-.28.63-2.31,3.23-2.46-.87.21,2.37.68.42,1,1-.18-1.63.24-4.49-.37-5.43-.23,1.1,0,5.4-.86,2.25a10.87,10.87,0,0,1,.05-3.28c-.71-1.49-.92.61-1.23,2.29.26,1.49.7.1.94,2.1-.34.68-1.08,2.86-1.55-.95.21-.16.4-.37.16-2.2-.68-3.65-1.47.36-1.76-3.13-.16-3.2.6,1.37.89-.08-.26-2.94-.52-2.15-.42-4.33.84-.52.42,3.23,1,4.28-.1-1.86.27.21.56-.05,1.94-3.15,4.33.08,6.37,1.63a1.24,1.24,0,0,0,.11,1.07c-.05-.84,0-1.26.26-1.1-.13-1.39-.37-1.47-.5-3.23.95.32,2.65,4,3.13,1.92-.24,0,.08,3,.31,3.25,1-.94.82-3.23.76-8.79.74,1.86-.15,3.41.45,4.33-.08-2.62.76-1.81.66-4.41,1,4.7.86-.37,1.05-2.28.44,3.38,0,4.46.73,5.4.4-.18.11-2.75-.18-5.43a33.91,33.91,0,0,1,1.6,3.15,18.94,18.94,0,0,0-1,3.33c1.47,3.1,1.68-3.64,1.76-7.79.58,1.44.34,2.15.69,3.23.65-1.71.34-1.24,1.15-1.21.42,3.54-.47,2.36-.16,5.49.87-2,1.29,2,1.6,3.12.74-2.65,2.81,1.36,3-4.62-.48,1-.79-.89-1.13-2.08,0,5.18-.84,1.79-1.79,2.34-.39-3.73.79-1.65.63-4.41a8.06,8.06,0,0,0,.4,2.15c.86-1.78,0-7.82-.74-14.15.95,4.1.58-2.67,1.5,2.05-.55-.16-1-.05-.58,3.34.79-2.31,2.47,3.67,2.91-3.52,3.05,9.71,4.15-2,6.54,4.88,1.52-.13.76-9.79-.66-16.3-.57,2.36-1-1.94-1.62.13.81,2.89-.24,2-.08,4.38.39-1.33,1.26,4.49.94,5.39-.36-1.89-.86-1.74-1.18-4.26.19-2.28-.68-4.54-.34-6.51-.63-2.39-1.55,0-2.07-4.2,1.86-.68,3,4.86,4.46-2.57-.47.84-.79-1.05-1.18-1a7.67,7.67,0,0,1,0,2.18c-.42-2.65-.31-3.46-.13-4l1.42.1c.6,2.21,1.15,4.91,1.76,6.88-.45-2.2-.27-5.2.13-2.2-.24,2.07.1-.66.55-.06.73,3.44-.37,3.44.29,4.33a17.07,17.07,0,0,0,.13-5.46c.05-1.62.81,2.58.79-1.15.73,2.52,1,5,1.6,3.15.5,3.28.23,4,.52,6.51.63-1.47.79,5.12,1.37,4.25-.61-4.3-1.45-7.82-1.58-13,.37.66.66,3.23,1,4.28-.26-2.81,1-2.15,1.5-1.2-.16,1,.23,1.6.29,4.33,1.54-.13,1.91,6.8,3.22,6.27l-.36-3.23c1.57,2.15,3.44,1.68,4,6.2-.1-1.26.16-1.18.42-1.13l-.34-3.23c1-.81,2.13,4.17,2.34-.21.18,1.26.31,3.07.55,3.23.18-3.18,1.15.31,1.26-3.39,1,4.57,1.44,3.31,2.52,3.05.52,2.68,0,4.51.6,5.41.47-1.21.53-3.84,1.13-4.47a10.7,10.7,0,0,0,.45,2.6V473c-.06,0-.06.31,0,.76v1.89c-1.66-1.21-2.37,2.05-4.26-3.41.21,1.54.5,1.81.71,3.2-1-1-2.26-1.63-2.23,1.28-.66-2.38-1.5-1.2-2.18-3.09.19,6-1.84-.24-2.47-.87.21,1.55.5,1.79.71,3.2-.76,1.11-1,4.15-2,.19.26,1.91-.5,3.41.1,4.35.11.06.24.16.29,1.08-.58-.76-2.52-5.2-1.86,1.23.73-2.36,1.81-.15,2.78,1.95l-.6-5.41c1.26.89,1.52,2.6,1.86-1.26a25.23,25.23,0,0,0,.89,6.48c-.65,1.92-1.18,2.94-1.81,3.44.13.84.24,2.16.42,2.16.79-2.05,1.58,2.23,2.13-2.37.55,5.33,1.6,1.47,2.23,5.28-.74,1.1.45,3,.47,4.33.13,8.72-4.85-2.7-4.43,4.75,1.94,2.55,2.25-4.2,4.3,4-.34.76-.08,3.63-.45,4.39-.6-1.39,0-3.28-.65-4.31-1.16.63-1.5,4.57-3.1.26.76,9-1.26-3.3-1.55,4.49-1.52-6.09-1.42,2.08-2.68-4.14-.44.42-.34,2.75-.73,3.33-.16-1.26-.29-3.07-.53-3.23.19,1.79-.44.66-.31,2.21.47,1.91.39,3.3,1,7.56-.21,2-1.11-2.92-1.16,1.18.53,2.36,1,5,1.76,4.22-.76-6.27,1.5,2.44.68-5.51.13,3.44,1.16,6.48.84,7.56l-.23-2.15c-.92-.19-1.37,1.91-1.6,2.31.57,3.78,1.41,4.7,1.54,7.51-.36-7.64,1.89.5,1.79-5.62-.42-1.58-1.31-8.53-.76-8.66.13.84.29,1.26.47,1-.58,3,1,9.66,1.84,15.12,1.1-.5-.26-4.41-.16-6.54.08.66.18,1.29.32,1.08-.06-.61,0-1.24.18,0,0,1.65.34,7,.84,4.28.63,6-.68,2.1-.81,4.44.49,2.07,1.12,1.54,1.65,3.15.26-1-.45-5.6.13-5.46.45,2.83.13,4.88.58,8.68-.32-1.54-.89-.23-.92.08.89,1.55.1,1.26.47,4.31.32.66.47,4.17.84,4.3a5.83,5.83,0,0,0,.13-2.2c-.15-1.44-.42-1-.6-2.13.31-.47-.32-4.2.39-3.31.37,4.55,1.16,4.26.71,6.49.45,1.57,1,.5.4-3.31.89-.71.6,4.44,1.15,5.36-.1-7.56-.26-7.93.63-1.13a6.14,6.14,0,0,0,.13-2.21c-.16-1.41-.44-.94-.6-2.12a4.94,4.94,0,0,0-.05-2.18c.73,1.91,1.86,3.12,1.41-2.29-.23,3.21-.84-6.14-1.57-4.22-.63-5.38.23-8.88,1.13-6.64-1,1,.36,3.15.79,5.38-.27.21-.71-.32-.64,1.15.58,1.68.85,8.59,1.58,7.51-.31-4-.87-4.12-1.21-7.53.37-1.45.92-.35,1.53,2-.29-3.44,0-3,.31-3.12v7.14c0-.24-.08-.47-.13-.79-.37.05-.08,2.47.13,4.62v51c-1.68-1-3.36-2.66-5.7-3.84A22.44,22.44,0,0,1,557.38,598.87Zm-11-48.18c-.23-1.94,0-2.31-.28-4.33-.37-.26-.27,1-.08,1.1.13,3.31-.87-1.52-.82,1.16C545.59,550.2,546,550.88,546.43,550.69Zm-1.07-11.91c.08,3.36,1.47,6.79,2.15,9.63.47.29-.13-3.12.21-3.28C546.85,546.07,546.41,540.59,545.36,538.78Zm2.28-4.57c-.47,1.28-1.49-3.2-1.47.13.4,2.52.89,3,1.81,3.1ZM520.89,495c.26,2.39.81.39,1.21,1C521.65,492.42,521.23,494.54,520.89,495Zm35.31,2.39c.45-2.18,1,2.05,1.44-.13C557.43,494.59,555.67,493.57,556.2,497.43Zm-5.59-19.16c-.08-3.86-1.31-5.73-1.73-7.49-.21.35.15,2.71.28,4.34C549.72,475,550.21,476,550.61,478.27Zm2,16.22c.21,1.44.55.87.84,1-.74-3.7-.42-7.06-1.26-6.43-.06-1.47.15-2.05.5-2.23-.79-2.7-.82,2.89-1.21-4.25l-.55,0c.21,4.49,2,7.8,1.23,9.71C551.82,493.62,553.84,492.81,552.58,494.49Zm-2.76,6.77c.42-2,1.34-.31,1.39,4.25a24.14,24.14,0,0,0,.58-6.58c-.66,1.6-.87-3.63-1.44-3.15a8.09,8.09,0,0,0,.73,3.2c.08,3.12-.79-2.84-1.15-2.08C550.61,501,549.11,497.19,549.82,501.26Zm.11-14.2c-.35-2.94-1.13-2.49-1.21-1C549,488.48,549.56,486.48,549.93,487.06ZM547.2,502.6c.21-.58.28-1.63.49-2.23C547.22,496.72,546.54,498.35,547.2,502.6Zm-7-10.32c.23,2.16-.34,1.42.08,4.36.42.42.39-.79.6-1.13a11.62,11.62,0,0,0-1-4.28C539.71,491.81,540.05,492.34,540.24,492.28ZM539.9,477c-.53-.87-.27,5.43-.9.07-.36,2.81-1.07.27-1.28,3.39-.24-.16-.37-2-.53-3.23-.1,4.91-3-3.31-2.73,3.52-.6-4.28-1-.95-1.36-4.25-.58,3.65-1.92-1.55-3,1.34.13.86.29,1,.4,2.15.13-.21.21.42.28,1.07,0-5.3,1.19,1.58,1.87,2,0-3.15,1.7-3,2.65.84-.42-.37-1.6-.84-1.08,5.56.34.11.27-1.36.61-1.15.1,1.7-.48,1,.08,4.35.94.45,0-5.67.6-6.58.42,2.73,1,4.06,1.34,7.53.58,1.1.44-4.15-.16-3.26-.26-1.91.81-2,.84,1,0-3.07,0-2.52.39-3.31.4,1.18.74,3.49,1.26,3.18-.13-1.05-.31-.82-.47-1.05,0-1.47.19-2.05.5-2.23-.29-1.45-.6-2-.94-2.1-.14-2.21.89-.37.26-4.39.37,1.94,1.52,6.2,1.34,7.54,1.13,3.41-.53-9,.63-7.7A37.19,37.19,0,0,0,539.9,477Zm4.15-15.62c-.5,1.31-.95,2.78-1.63,3.41a7.4,7.4,0,0,1-.34-3.26c-.21-1.57-.58-.34-.77-2.12.08,1.83.08,7.95-.6,1.13-.58,1.47.29,2.23.58,5.4.18,2.26-.66-1.52-.61,1.13-.26-1.83-.07-2,.14-2.18-.32-1.6-.74-1.52-1.13-2.1.76,6.41,1.86,6.91,2.91,8.48a22.76,22.76,0,0,0,.19,3.26c-.06,1.57-.53,1.7-.56,3.33,1.11,3.49,1.21-2.33.45-7.69-.26-.81-.53-1.13-.84-1-.08-1.42.13-1.74,0-3.26.6,4,1.5,2.81,2.26,4.18a11.74,11.74,0,0,0,0,3.28c-.24-.16-.37-2-.53-3.23-.31-.32-.36.26-.47.71-.08-.21-.13-.13-.13.42a2.08,2.08,0,0,0,.13-.42c.29.76.89,5.56.39,4.22,1,3.36,1.19.13,1.45-4C543.78,470.5,544.33,465.53,544.05,461.39Zm1.05,37c.52-.81.07-5.07.68-5.51C544.57,488.11,545,494.54,545.1,498.4Zm1-14.28c-.53-.29-.21,2.28-.08,4.36.42.42.39-.79.6-1.16A22.1,22.1,0,0,1,546.15,484.12Zm.78-1.16c-.42-.42-.39.79-.6,1.16.52,3.05.87,1.29.94,5.38.08-.6.19-1.15.45-1.13A34.5,34.5,0,0,1,546.93,483Zm-.6,13.16c.87.89.92-1.18.92-3.36.21.55.42,1.13.68,1C547,489.21,545.91,492.63,546.33,496.12Zm9.29,81.06c.32.29.21-1,.45-1.13a6.32,6.32,0,0,1,.6,2.13c.47-.76-.42-2.28-.47-4.33C555.75,574,555.28,574.14,555.62,577.18Zm.11-4.38c.68.89.39-1.76.68-2.26-.26-1.89-.58-2.44-1-2.1C555.67,570.41,555.46,570.78,555.73,572.8Zm-.58.05c.47-3.07-1-9.48-1.13-14.1-.18.06,0,1.32,0,2.18-.32.19-.53-1.28-.84-1,.21,1,.42,1.92.23,2.16C554.52,563.77,554.44,569.1,555.15,572.85Zm-2.42-5.22c.79,2.07,1.16-.08,1.79.92-.39-4.31-1.16-2.84-1.63-6.41a4.14,4.14,0,0,0-1.18,1.18c.58,3.91.63.63,1.23,1C553.36,567.21,552.76,566.44,552.73,567.63Zm1.66,17.3a47.19,47.19,0,0,1-1.45-6.44c-.44.16.35,3.6.56,3.23.18,2.26-.79.37-.71,2.26C553.34,587.92,553.5,583.69,554.39,584.93Zm-.74-8.67c.27.21.58,3.21.34,3.23,1,3.52,1-2.39.71-5.51-.86.42-.39,2.15-.89-3.2-.52,2.78-1.29-3.71-2.2-3.08a8,8,0,0,1,0,3.26c.6,1.65.6,2.23.76,5.41C552.94,577.42,553.78,579.78,553.65,576.26ZM551,579.75c.47,3,0,2.84.39,5.44C552.16,585.71,551.89,579.33,551,579.75Zm-1.76-51.13c.24,2.86.63,3.51,1.08,3.17C550.11,528.93,549.72,528.28,549.27,528.62Zm-.34,5.48c.55,2,1.1,3.91,1.81,3.13C550.27,534.34,549.09,533.39,548.93,534.1Zm.26,10.9a19.35,19.35,0,0,1,.76,5.38c.4,0,.37-4.86.87-2.26C550.92,544.6,549.58,543.63,549.19,545Zm1.63,11.86a17.67,17.67,0,0,0-.34,5.49C551.13,564.48,551.34,561,550.82,556.86Zm1.49,22.79c-.44-.71-.57-6.46-1.12-5.36C551.47,577.39,551.79,580.2,552.31,579.65Zm.08-39.3c.45-.16,0-4.07-.39-5.43A9.85,9.85,0,0,0,552.39,540.35Zm1.18-4.49c-.31-1.81-.49-.63-.26,1.1-.34-.44-.52-3.38-1-2.1a37.35,37.35,0,0,0,.76,5.41l.55,0C553.86,539.54,553.26,536.07,553.57,535.86Zm1.5,11.89c-.08,2.29-1,.14-.79-2.12,0,.52-.84.34-1.18,1.2s-.6-2.1-1-2.1c-.29-2.33.6-.55.81-1.15-.26-4-1.18-1.89-1.23-1,.79,4.12.42,4.81-.39,3.31.34,3.36.92,3,1.18,7.53,0-1.91.42-6.06,1.1-.1-.13-7.48,1.1,4.43.76-3.34a8.72,8.72,0,0,1,.71,3.21C555.31,552.19,555.52,551.14,555.07,547.75Zm1.29,11.9a9.82,9.82,0,0,1-1.63,2.31c.18,1.62,1.29,1.47.42,2.15.71,4.22,1.71,3.23,1.36-1.24.29.79.37,3.26,1,5.39.15-2.94.7,1.26,1.23,1a6.13,6.13,0,0,1,.13-2.2C558.09,563.19,557,565.24,556.36,559.65Zm3.25.81-.73.08c1.41,3.86-.48,2.6.52,6.51.08-1.26,0-3.12.68-2.26C559.56,562.66,560,563.43,559.61,560.46Zm1.24-11c.73,3.6.81.63,1.6,1C561.87,547.44,561.19,548.33,560.85,549.43Zm1.36,14.07c-.18.06,0,1.34,0,2.18-.31.16-.52-1.28-.86-1a4.84,4.84,0,0,1-.06-2.18c-.94-3.23.14,3.1.42,5.43l.92-.07C562.34,564.9,562.74,565.63,562.21,563.5Zm-.39,15.34c.23,3.33.63,3.93.89,6.48.45,1-.55-6.2.13-2.18-.05-1.15-.18-3.31-.34-6.54-.26,4.2-.53,1.37-1.68.16C561.11,580.1,561.74,580.54,561.82,578.84Zm-.48,4.41c-.34-3.5-.84-4.55-1.12-8.64-.58,1.21-.84-2.65-1.37-2.07.81,2.31.47,9.87,1.63,9.68.08-2.18-.19-1.39-.47-4.33C560.87,579.47,560.4,583.32,561.34,583.25Zm-.49,10.94c-.32-2.75-.87-2.1-1.37-2.07C560,596.16,560.5,595.09,560.85,594.19Zm-1.74,1.26c-.26-2.83-.57-4.64-1-4.28C558.33,594,558.64,595.82,559.11,595.45Zm0-17.48a30.88,30.88,0,0,0-.66-4.31c-.21.4-.08,2-.31,2.24-.35-3,.07-2.21-.48-4.34-.55,1-1-1.94-1.1.11.74,4.12.42,1.26.58,5.41C558.12,578.55,558.22,576.6,559.09,578Z"/><path class="cls-27" d="M562.21,506.75c-1.1-2.39-1,1.39,0,3.28-1.15.05-2.18-3.44-2.73.24-.39-2.42.47-3.52-.42-5.41-.18,2.12-.26,2.52-.84-1,.37-.68.66-1.6,1.34-1.2-.66-5,.94-1.55-.18-6.54.52-1.65.57,4.83,1.1,3.18-.4-3.34-.37-5.17-.5-7.59.58.13,1.1-.05,1-2.26-.36.24-.68-.84-.92-3.2,1,1.44.11-3.6-.18-6.54.79,5.12,1.23-.5,2.42,5.25-.27.21-.71-.31-.61,1.13.95.29.19,2.86.61,5.41.07-1.57.47-.87.78,2.13,0,3.07-1.28-4.07-1.28.1.23,0,.36,1.89.6,2.13.05-1.16.34-.71.66-.05v13.78C562.84,509.45,562.66,508.66,562.21,506.75Zm-.47-7.61c-.24-2-.68-.69-.92-3.21-.34,1.79.31,3.44.24,5.44l-1.29.1c.18,1.87.63,2.79.37,3.23.47,1.34.71-2.26,1.62-.13C561.92,503.31,561.61,500.5,561.74,499.14Z"/><path class="cls-27" d="M546.54,560.51c.16,4.12.73,2,.94,5.38,0,1.74-.76,4.44-.94,3.36.24-2.28-.47-8-.39-10.86.42-.95.65,1.49,1.05,1l.44,4.31C547.09,565.34,547.06,558.86,546.54,560.51Z"/><path class="cls-27" d="M561.71,450.81l.4,0c.07.76.18,1.55.28,2.42A7.79,7.79,0,0,1,561.71,450.81Z"/><path class="cls-27" d="M563.13,478.55v3.81a42.85,42.85,0,0,1-.39-5.12C562.89,477.79,563,478.24,563.13,478.55Z"/><path class="cls-27" d="M555.1,462.62c-.37-2.34.13-3.49-.55-3.23.07.6,0,1.23-.19,0,.21-.34-1-7.8.19-6.57a12.25,12.25,0,0,1,0,3.29c.52.42.86.36,1.62,3.12l-.36-3.23c.7.84.81-.21,1.73,1,.1,1.91.94,6.32.55,6.48C557.2,464.35,555.46,459.81,555.1,462.62Z"/><path class="cls-27" d="M557.72,486.38c-.79-.58-3.83-3.65-1.86-5.28.68,3.1,1.57,2.07.37,0,.7.08,1.12,0,1.39,1C557.3,482.23,557.91,485.72,557.72,486.38Z"/><path class="cls-27" d="M552.05,459.6l.37,0c-.71-1.62-.24-5.19.29-2.2C552.6,458.24,552.6,462.59,552.05,459.6Z"/><path class="cls-27" d="M550.9,460.78c-1.45-6.3-2,2.5-3.6-6.25,1.89,2.37,1.92-2,3.83,1.87C550.37,455.43,551.53,461.28,550.9,460.78Z"/><path class="cls-27" d="M554.41,512.89c.48,2.36,1.21,0,1.63,3.13C555.52,516.38,554.2,514.65,554.41,512.89Z"/><path class="cls-27" d="M559.77,617.22c0-.58,0-1.24.18,0a4.86,4.86,0,0,0,.06,2.18l-.56,0c-.31-2.94-.55-2.15-.47-4.33C559.3,614.75,559.48,616.53,559.77,617.22Z"/><path class="cls-27" d="M549.37,590.83a116.8,116.8,0,0,1-.26-13.07c-.37,5.22,2,8.58,1.21,9.71-.13-.84-.24-2.12-.42-2.12a6.05,6.05,0,0,0-.13,2.18c.34,2.54.84,2.36,1.21,4.27C550.37,592.67,550,590.54,549.37,590.83Z"/><path class="cls-27" d="M547,588.65a1.56,1.56,0,0,0-.13.19Z"/><path class="cls-27" d="M548,583.3c.37,2,.73,3.94,1.08,6.43-.48.11-1.61-1.73-2.05-1.1a3.69,3.69,0,0,0,0-.92c-.37.24-.69-.84-.9-3.2C547.14,584.43,547.62,586,548,583.3Z"/><path class="cls-27" d="M533.15,454.69l.34,3.23c-.71-.29-1.23-1.73-1.47-2.05.11-.05.19-.18.05-1.1-.23-.16-.49.24-.65-1C532.13,451.94,533,456.79,533.15,454.69Z"/><path class="cls-27" d="M544.49,580.33l-.34-3.23c.42-.84.6,2.13,1,2.1,0-.86-.23-2.15,0-2.18.16,1.37.39,1.47.52,3.23-.18,0-.13.9-.26,1.11C544.89,578.21,545,580.15,544.49,580.33Z"/><path class="cls-27" d="M540.24,550.14c-.34-6.09,1.57-.57,2.23-.18C541.31,548.86,541.39,552,540.24,550.14Z"/><path class="cls-27" d="M540.26,566.5c.53.29,1.13,1.76,2,3.1-.79-2.74.13-1.76.21-3.29.58,5.31.18-2.49.84,1C543.57,574.61,540.53,570,540.26,566.5Z"/><path class="cls-27" d="M532.36,533.34c.45-1.28.63,1.66,1,2.1-.63-4.91.77-3,1.24-2.28-.34.34.55,2.86.26,4.33C534,535.49,532.94,538.07,532.36,533.34Z"/><path class="cls-27" d="M525.64,457.5c.76,5.2.4,10.68-.23,6.56C526.12,464.14,525,457.71,525.64,457.5Z"/><path class="cls-27" d="M504,470.29c-.58-5.83.65-2.21,1-2.26,1.94-.34,4-1.47,5.77-.5a71.05,71.05,0,0,1-1.36-11.89c.65,4.22,2.94,4.38,2.91,1.94.53,3.86,1.18,5.88.58,7.59-.37-4.62-2.78-5.07-2.18.18.79,4.41,2.18,1.34,2.81.84.18,5.28.84,8.22.37,10.87.08-4.81-1.16-3.86-1.11-7.54-.18,0-.28-.84-.47-1,.26,5.65-1.57.32-.79,6.62a29.49,29.49,0,0,0-.68-3.23c.13,2.39.84,3.39.13,3.26C508.21,465.88,506.85,474.67,504,470.29Z"/><path class="cls-27" d="M493.09,468c-.45.92-.87,1.84-.29,6.56-2.33-1.52-3.25-2.49-4,3.62-.74-1.86.18-3.38-.39-4.35,0,4.67-1.45-4.52-1.45.13.37-.34.71.21.92,2.1-.71-.95-1.52-.32-2.1-3.1.21-.18.05-1.73-.1-3.25,1,1.44.55-3.34,0-4.36.89.76,2.89,7.27,3,3-.65.08-1.1-3-1.65-4.23.26-.13.63.08.34-2.2-.92-1.74-1-.43-1.65-4.23.42,8.43-1.37,1-2.42,1.31-1.36.34-2.18,4.44-3.78-1.86-.24,6.4-3.52-1.05-4.36,5.85-.29-4.75-.29.92-.55-2.13.32-1.94-1.52-2.86-1.1-6.45.79,2.07,1.49,3.17,1.6-.13,2.28,8.13,3.23-4.41,5,1.75a9.68,9.68,0,0,0,1.6-2.33c.32,1.42.55,4,.95,4.28-.32-5.44.42-.55,1.07-.08-.18-5.36,3.42-4.73,4.05-1.45.36,0-.06-3,.52-2.23a27,27,0,0,1,1.81,9.66c-.18-2.36-.47-3.44-.84-3.2.34,4.49-.47.66-.13,4.39.24-2.26,1.31.36,1.1,2.1-.08-1.79-.65.15-.63,1.15.53.13.95,1.92,1.47,2-.23-7.51,1.45,1.57,1.29-7.75C492.49,464.64,492.91,464.48,493.09,468Z"/><path class="cls-27" d="M492,489.9c1.29,3.93,2.21-1.11,3.34,6.27-2.5-2.36-4.73-1.58-8-1.5C487.68,486.85,492.22,498.19,492,489.9Z"/><path class="cls-27" d="M485.14,445.79l.26,0a2.6,2.6,0,0,1-.11,1A7,7,0,0,0,485.14,445.79Z"/><path class="cls-27" d="M485.16,449c-.92-1.74-1.13.36-2.44-.9a19.52,19.52,0,0,0-.34-2.49l2.7.18C485.14,446.58,485.45,449.68,485.16,449Z"/><path class="cls-27" d="M485.77,447.84a13.36,13.36,0,0,0-.08-2l3,.18c.29.76.66.63.84.05h.08C489.21,450.94,486.76,446.53,485.77,447.84Z"/><path class="cls-27" d="M489.63,456.24l.36,0-.39-4.33c.24-.08.45.48.63,1l.21,2.18C489.86,454,490.23,459.81,489.63,456.24Z"/><path class="cls-27" d="M470.38,458.58a1.36,1.36,0,0,0,.13-.27,5,5,0,0,0,0,.69C470.46,458.84,470.41,458.71,470.38,458.58Z"/><path class="cls-27" d="M465.45,457.24c.31,5.2-1.1-.21-1.26,2.28-.08-2.49.23-2.1.52-4.41,1.13,2.57,3.63-.16,4.75-1.49a26.76,26.76,0,0,0,.92,4.93C469.23,460.26,467,459.29,465.45,457.24Z"/><path class="cls-27" d="M471.67,462.17a11.76,11.76,0,0,0-.92-4.28,2.14,2.14,0,0,1-.24.45c.06-2.62,1-3.52,1.32-2.7C472.12,459.08,471.54,459.23,471.67,462.17Z"/><path class="cls-27" d="M460.56,491.52c.5-2.39,2.24.76,2.08-5.64.13,1.26.24,3.1.47,3.25l.74-.05c-.45-2.54-.16-2-.66-5.41,1.1,3.76,2.28-1.6,3.54.79-1.05.53.29,3.36.45,3.23.87-.63.66.05,1.73.94,1.42,1.24,3.1-1.39,3.63,1.87-1.76,2.73-4.18,2.28-6.15,2.7C464.16,493.65,462.3,493.68,460.56,491.52Zm3.89-5.8a8.52,8.52,0,0,0,0,4.36C465.05,490.55,464.87,487.3,464.45,485.72Z"/><path class="cls-27" d="M465.87,476.85c-.58-1.42-.29-2.15-.63-3.2l-.37,0c0,2.5.81,4,.37,4.33-.34-2.6-.11,2.84-.53,2.23-.23-1.86,0-2.8-.29-3.25-.7,5.85-2.41-.13-3.59.31,0-1.91-.5-5.8.08-5.46.52-.39-.21,3.18.44,3.23.13-1.6,0-4.38.79-3.33.05,3.18.24,4,.81,5.38.21-1.34,1-.29,1.08-2.28a29.43,29.43,0,0,0-.45-3.23C464.63,468.84,466.05,472.78,465.87,476.85Z"/><path class="cls-27" d="M461.59,460.86c-.63-3.78-.61-1.21-.53.05-.6-3.36-1.34-2-1.07.08-.82-5.72-1.84,2.71-2.34-4.17,2.13.86,3.78-3.05,6.12,1.65C463.06,460.52,461.9,457,461.59,460.86Z"/><path class="cls-27" d="M460.64,479.5c-.73-1.76-.76.63-1.07,2.28-.87-3.38-.76-5.12-1.55-9.68.71,2.39,1.36-2.44,2.26.89-.14,1.94-.84,1.52-1,3.36C459.93,479.08,460.38,475.85,460.64,479.5Z"/><path class="cls-27" d="M449.28,465.19c-.24-2.86-.42-6.38-.9-6.48-.15,1.63-1.23,2.36-1.44-2,.53-2.83,1.31.16,2-.18-.05-.66-.08-1.29.08-1.11C448.54,459,450.3,463.77,449.28,465.19Z"/><path class="cls-27" d="M563.13,609.23v3.86a14,14,0,0,0-1.6-.42C561.21,608.84,562.47,609.05,563.13,609.23Z"/><path class="cls-27" d="M562.79,604.93a3.63,3.63,0,0,0,.34.47v2.84A11.12,11.12,0,0,1,562.79,604.93Z"/><path class="cls-27" d="M544.07,592.38c-.52,1-1.89-4.46-2-.92-.37-3.23-1.82-7.19-.79-7.56a13.48,13.48,0,0,0,.52,3.23l.37,0c0-2.8-.6-3.78-.37-5.43.48,2.94.48-2.18,1,2.1-.1.24-.36.05-.26,1.1,1,.32.92,2.76,1.31-.1C543.76,588.18,544.44,590.73,544.07,592.38Z"/><path class="cls-27" d="M544.2,609.84c.16,1.39.4,1.47.53,3.23-.37,5-2.84-.61-4.05-.74C540.66,605,543.15,613.17,544.2,609.84Z"/><path class="cls-27" d="M540.5,585.06a40.81,40.81,0,0,0,.74,5.38c-.82,4.09-2.39-5.49-2.52-.87a18.85,18.85,0,0,0-.82-4.3c.11,1.73-1.1.05-1.42-1C538.16,584.24,538.66,581.2,540.5,585.06Z"/><path class="cls-27" d="M456.39,472.23c.79,5.8,1.52,4.91,2.26,7.45-1.24,3.34-2.92-2.57-3.89,1.42-.23-1.86,0-2.81-.26-3.25-.08,5.14-1.36-.77-2.18.18-.37.94-.26,3.86-.44,5.51-.5-2.1-1.13-2.26-1.82-2-.6-5.35.11-5.46.56-6.59.23,0,.31,1.89.55,2.13-.08-2.81,1.34-1.76.47-5.49C453.71,479.81,454.11,470.39,456.39,472.23Z"/><path class="cls-29" d="M367.9,833h-.13c0-.13.05-.24.07-.42C367.87,832.66,367.87,832.79,367.9,833Z"/><path class="cls-29" d="M362.7,831.87c.42-.84.39-3.33.47-5.48.42,2.31.84,4.64,1.29,6.56H364c0-.34-.05-.71-.08-1.18C363.22,830.33,363.2,834.53,362.7,831.87Z"/><path class="cls-29" d="M362.67,807.88c-.15-2.76,1.05-.68.58-4.41,1.13.68,2.15-1.52,3.68,5.15-1.08,1.83-3-5.88-3.18-.82.21,1.71.55.79.73,3.2-.91-1.18-1.62-3-2.28-.89-.21-2.65-.5-5.56.11-5.46C362.59,806.46,362.36,807.41,362.67,807.88Z"/><path class="cls-29" d="M353.27,723.56c-.6.79.56,3.57-.07,4.36-.53-2.52-.21-2-.82-5.38C352.7,722.69,353,722.06,353.27,723.56Z"/><path class="cls-29" d="M353.51,719.15c1,2.1,1.92,13.34.5,7.59C354.69,722.64,352.91,724.35,353.51,719.15Z"/><path class="cls-29" d="M362.1,781.73c-.19-3.25.49-3.43.65-5.51C363.12,780.08,362.75,781.45,362.1,781.73Z"/><path class="cls-29" d="M359.86,745.9c.37,3.83-.21,2.68.56,6.48-1.16-5.51-.79-.49-1.9-5.3C358.58,744.64,359.18,744.48,359.86,745.9Z"/><path class="cls-29" d="M349.07,651.87c.69-.5.5-.82,1.08-2.29a11.29,11.29,0,0,1,1.05,4.28C350.15,652.08,349.84,655.49,349.07,651.87Z"/><path class="cls-29" d="M367.92,810.69c-.65-2.23-.26-3.07-.73-6.48.29.15.63-.45.84,1C367.71,806.1,368.82,811.92,367.92,810.69Z"/><path class="cls-29" d="M360.63,732.72c.57,1.42,1.23,1.73,1.83,3.13C362.28,737.21,361.05,736.9,360.63,732.72Z"/><path class="cls-29" d="M363.25,731.41c-.71-.68-2.15-5-2.07-8.56.1,1.73,1.1,3.57.86,1s-.94-.56-1.23-4.28c.55-2.63,1.78,6.27,2.55,9.6C363.17,729.36,363,729.57,363.25,731.41Z"/><path class="cls-29" d="M353.41,651.5c.81,3.78,1.1-3.18,1.68,3.12C354.43,653.65,353.43,656,353.41,651.5Z"/><path class="cls-29" d="M365.09,731.25c1.47-2.18,1,6.25,0,0Z"/><path class="cls-29" d="M358,653.29c.24,1.26,1.34-1.74,1.87,3.09C359.23,656.83,357.74,656.09,358,653.29Z"/><path class="cls-29" d="M370.08,746.11c-.21,1.55-.61,3.41-1.29.11C369.52,747.66,369.6,743.43,370.08,746.11Z"/><path class="cls-29" d="M359.68,637.85c.42-1.39,1.44-.92,2.05,3.1C361.12,641.87,360.44,641.68,359.68,637.85Z"/><path class="cls-29" d="M372.52,744.8c.31.23.21,1.78.05,2.18-.32-1.58-.53-2.71-.84-4.28.08-1.39.66-.53,1,1C372.65,744,372.41,743.75,372.52,744.8Z"/><path class="cls-29" d="M372.36,738.26c-.11,1.87-1,1-1.29-3.17C371.62,734.53,372,736.4,372.36,738.26Z"/><path class="cls-29" d="M381.81,824.76c-.47-.08-.94-.1-1.26-3.18C380.6,820.38,381.52,820.56,381.81,824.76Z"/><path class="cls-29" d="M373.8,748c1.13.77.34,6.23,1,7.57l-.37,0c-.1-1.07-.29-1.28-.42-2.15a10.87,10.87,0,0,0,.19-3.31A5.81,5.81,0,0,1,373.8,748Z"/><path class="cls-29" d="M362.07,638.72c.89-.16,1.76-.35,2.41,3.07C363.64,641.37,362.62,643.62,362.07,638.72Z"/><path class="cls-29" d="M367.79,654.6c.66,2.28.71,5.88.34,6.53-.5-3.41-.84-2-1-4.27.05.65.1,1.28-.08,1.1C366.37,653.71,367.92,657.09,367.79,654.6Z"/><path class="cls-29" d="M369.87,651.16l-.35-3.26c1.37,1.11,2.73-1.2,3.92,2.94C372.73,654.47,371.07,651.21,369.87,651.16Z"/><path class="cls-29" d="M381.08,741.88c-.21.16-.21,2-.56.06.19-1.37.9-.87.77-3.34a19.18,19.18,0,0,1,.76,5.41C381.6,745.27,381.42,742.33,381.08,741.88Z"/><path class="cls-29" d="M378.69,698.41c-.66-.73-.56,1.16-1,1.16-.16-1.39-.4-1.47-.53-3.23.69.89-.13-3.6.4-3.31C378.87,696.29,377.37,695.34,378.69,698.41Z"/><path class="cls-29" d="M390.32,816.41c.34-.84.78-.94,1.36,1C391.86,820.74,390.92,816.94,390.32,816.41Z"/><path class="cls-29" d="M384.3,754.7c-.15-4.1-.73-2-.94-5.39,1.08,4.54,1.6-3.41,2.55,3.07C384.67,752.1,385.38,755.09,384.3,754.7Z"/><path class="cls-29" d="M378.87,693c.92,4.62.55,7.19,1,10.84-.18,1.63-1.23.13-1-2.1C379.55,702.56,378.37,695.08,378.87,693Z"/><path class="cls-29" d="M375.4,649.58c.53-.21.79,3,1.21,4.26l-.73,0Z"/><path class="cls-29" d="M391.16,784.67c-.69-.86-.58,1-.69,2.26-.18-3.07-.55-2.78-.76-5.38C390.26,781.42,390.74,782.42,391.16,784.67Z"/><path class="cls-29" d="M377.43,652.68c1.18-3.1,3.36-.79,4.72,1.76C380.68,657.88,379.29,656.91,377.43,652.68Z"/><path class="cls-29" d="M383.23,682.74c-.66-.58-.79.81-1.18,1.18-.4-2.26-.79-4.78-1.24-6.43C381.65,678.62,382.68,677.33,383.23,682.74Z"/><path class="cls-29" d="M380.94,669.85c-.07-.66-.15-1.29-.31-1.08l-.24-2.15c.4.58,1-1.39,1.24,1-.19,1.84-.27-.08-.76,0C380.94,668.51,381.13,669.8,380.94,669.85Z"/><path class="cls-29" d="M388.69,731.41c-.53.68-.92-.66-1.39-1a17,17,0,0,1-.08-4.36C387.61,729.18,388.27,728.55,388.69,731.41Z"/><path class="cls-29" d="M385.88,715.27l-.24-2.18c.19-1.84.24.08.74-.06l.23,2.16C386.12,715.13,386.43,717,385.88,715.27Z"/><path class="cls-29" d="M386.22,693.4c.6,0,.76-2.37,1.34,2.07C387.06,695.39,386.61,695,386.22,693.4Z"/><path class="cls-29" d="M400.11,811.19c.29,2,.68,2.7.92,5.38-.84.74-1.45-3.91-1.92-.92-.16-1.39-.39-1.5-.53-3.23C399.32,812.42,399.48,812.79,400.11,811.19Z"/><path class="cls-29" d="M400,810.11a8.5,8.5,0,0,0-.39-2.15c-.21.26-.19,1.71-.47-1.05.63.5.44-2.42,1.07-.08C400.48,809.19,400.42,810.27,400,810.11Z"/><path class="cls-29" d="M401.6,818.7c-.39-1.37-.63-5.1-1-6.46.5-.26,1-.21,1.23,3.17C401,815,402.29,818.3,401.6,818.7Z"/><path class="cls-29" d="M382.52,635.85c.24-2.33,1.08,2.34,1.57,4.23C383.49,640,382.89,639.42,382.52,635.85Z"/><path class="cls-29" d="M401,808.93c-.18-3-.57-2.15-.81-4.3,0-.63.6-2.6.89-.08C400.16,802.89,401.47,809.25,401,808.93Z"/><path class="cls-29" d="M402.39,817.54c.42-.73-.6-7,.45-4.41a12.63,12.63,0,0,1,0,3.28c.16.24.34,0,.47,1.05C403.26,818.09,402.71,820.06,402.39,817.54Z"/><path class="cls-29" d="M387.8,659.43a8.51,8.51,0,0,0-.4-2.15c.11,1.12-.16.86-.29-1.08.61.76.16-2.18.53-2.23C388.08,655.57,388.5,660.14,387.8,659.43Z"/><path class="cls-29" d="M403.44,815.28c.05-.63.58-2.6.89-.08a6,6,0,0,0,.06,2.18C404,817.25,403.7,816.7,403.44,815.28Z"/><path class="cls-29" d="M407.25,825.86c-.47-.1-.68.63-.68,2.23.31,1.71.42,3.29.6,4.83h-.84c-.16-.42-.34-.52-.5,0h-.21a33.32,33.32,0,0,0-.68-4.69C405.75,827.15,406.28,823.05,407.25,825.86Z"/><path class="cls-29" d="M403.39,804.36c.21,3.34.71,2,.92,5.38l-.71.06A41.94,41.94,0,0,1,403.39,804.36Z"/><path class="cls-29" d="M409.14,796.23c-.16,1.94-1.13.89-1.71,1.23a22.45,22.45,0,0,0-.5-3.23c.48-1.18.76-.24.95-3.36C408.14,795,408.85,792.08,409.14,796.23Z"/><path class="cls-29" d="M407.14,785.49a12.6,12.6,0,0,1,1.66-3.41l.55,5.4C408.22,786.33,408,788.69,407.14,785.49Z"/><path class="cls-29" d="M409.66,796.17c.16-1.65,1.21-.08.37-5.48.6-.9.71,5.75,1.34,4.25.47,3.31-.5,1.36.18,5.43C410.79,801.06,410.29,797.51,409.66,796.17Z"/><path class="cls-29" d="M407.06,753.83c.06,1.78-1.68-.11-1.39-1C406.25,753.09,406.49,749.73,407.06,753.83Z"/><path class="cls-29" d="M412,806.88c.55.24.78-3.12,1.36,1C412.63,806.28,412.31,811.14,412,806.88Z"/><path class="cls-29" d="M417.25,825c.92.6,1.39.94,1.86-1.26.58,7.43-1.52.68-1.05,7.74C417.75,827.28,417.91,827.6,417.25,825Z"/><path class="cls-29" d="M418.61,820.51c1.29,3.88,1.45-4.44,2.37,2C420.22,821.43,419.17,825.13,418.61,820.51Z"/><path class="cls-29" d="M418.48,811.79l-.42-4.33c.5.81,1,.53,1.39,3.15C419,810.64,419.11,812.53,418.48,811.79Z"/><path class="cls-29" d="M421.11,831.22c-.66-.34-.74-2.81-.89-5.38C420.72,824.68,420.85,829.17,421.11,831.22Z"/><path class="cls-29" d="M422.55,778.69c.34,6.54-2.25,1-2.54.21,1.26.71.42-4.49-.19-7.61C420.72,766,421.29,781.1,422.55,778.69Z"/><path class="cls-29" d="M425.86,798.06c-.39,2.34-1.34,3.57-2,.19C424.68,798.33,425.13,794.2,425.86,798.06Z"/><path class="cls-29" d="M427.41,825.21c-.42.21-.81-.5-1.1-2.1C426.39,821.37,427.15,821.45,427.41,825.21Z"/><path class="cls-29" d="M424.44,777.43c.79,5.56-1.18,2.78-.73.05C424,780.29,423.89,776,424.44,777.43Z"/><path class="cls-29" d="M421.77,743.83c-.21-2.16-.63-1.34-.79-4.31.68-.92,1.1,1.58,1.76,1C423.26,744.77,422.34,743.62,421.77,743.83Z"/><path class="cls-29" d="M423.39,741.49c.34-.08.82-2.52,1.39,1C424.34,741.86,423.71,743.91,423.39,741.49Z"/><path class="cls-29" d="M433.05,825.81c-.36,1.26-1.07.76-1.7-.94C432.19,825.57,432.32,822,433.05,825.81Z"/><path class="cls-29" d="M425,734.8l-.92.08C423.45,725.5,423.94,731.51,425,734.8Z"/><path class="cls-29" d="M426.62,744.48c-.42-1-.94-.29-1.31-2.07C425.41,741.15,426.46,739.5,426.62,744.48Z"/><path class="cls-29" d="M425.05,731.51c.5.4,1.18,3.65,1.05,5.36C425.2,737.05,425.68,733.72,425.05,731.51Z"/><path class="cls-29" d="M437.31,821.09c-.92-.16-1.84,2.83-2.79-.87C435.26,820.09,436.7,818.49,437.31,821.09Z"/><path class="cls-29" d="M434.94,803.81l.21,2.18c.06.66.08,1.29-.08,1.1-.21-1.68-.47-.71-.55.06a28.56,28.56,0,0,0-.47-3.23C434.21,801.84,434.44,804.52,434.94,803.81Z"/><path class="cls-29" d="M436.54,801.5c.08,1.94.95,4.46.5,5.41-.44-3.18,0,2.55-.6,1.15-.16-3-.55-2.15-.76-4.3,1.07,1.08-.16-2.28.23-3.28a6.41,6.41,0,0,0,.56,2.12C436.41,802,436.39,801.32,436.54,801.5Z"/><path class="cls-29" d="M443.66,797.62c-.66-4.86-.6,3.28-1.47-2a6.71,6.71,0,0,0,.16-2.21A4.65,4.65,0,0,1,443.66,797.62Z"/><path class="cls-29" d="M446.26,820.32c.58.14.86,4.26,1.23,7.54C446.89,828,446.6,823.89,446.26,820.32Z"/><path class="cls-29" d="M455.05,821.74c-1.05.34-1.42,1.39-2.31,2.39-.13-1.39-.37-1.47-.47-3.23C453.06,820.59,454.19,817.52,455.05,821.74Z"/><path class="cls-29" d="M454,807.64c.55-.07,1.12-.73,1.36,3.18C454.68,809.22,454.55,812.29,454,807.64Z"/><path class="cls-29" d="M457.73,821.51c-.53-.14-.13,3.28-.6,3.33-.4-2.42-.95-3.1-1.4-5.33C456.47,819.27,457.18,819.67,457.73,821.51Z"/><path class="cls-29" d="M455.94,803.1c.63.74.37-1.91,1-1.18.18,1.55.44,1.81.65,3.23C457.23,805.28,456.52,808.06,455.94,803.1Z"/><path class="cls-29" d="M456.18,795.44c.39,2.07.5-5.17,1.26-.11C457.26,796.3,455.94,799.38,456.18,795.44Z"/><path class="cls-29" d="M456,729.94c.55.68,1.18.37,1.65,2C457.1,731.12,456.23,734.22,456,729.94Z"/><path class="cls-29" d="M467.21,816.31c-.82-1.16-1,3.36-1.53-1C466,814.68,466.79,812.5,467.21,816.31Z"/><path class="cls-29" d="M474.29,810.24c-1.26-.29-3.22,3.81-4.48-1.78C472.35,811.16,472.35,802.39,474.29,810.24Z"/><path class="cls-29" d="M476.55,806.78c.82,2.49,1.16-2.6,1.6,4.22-1,.21-1.44,2-1.89,1.26A39.52,39.52,0,0,0,476.55,806.78Z"/><path class="cls-29" d="M479.75,826.15c-.28-.16-.63.45-.81-1,.26-.21-.05-2.65-.18-4.36C479.28,820.32,479.44,824.29,479.75,826.15Z"/><path class="cls-29" d="M480.52,797.7l.52,6.48C480.36,804.86,480.28,797.93,480.52,797.7Z"/><path class="cls-29" d="M487.71,799.24c-.71-.89-.71,2.87-1.16-1C486.92,797.75,487.32,795.67,487.71,799.24Z"/><path class="cls-29" d="M497.26,796.25c.08,6.12-.05,4.54-1,1.18C496.87,798.17,496.84,796.25,497.26,796.25Z"/><path class="cls-29" d="M504.33,813.1a20.36,20.36,0,0,1,.13-5.46C504.72,810.74,504.93,813.55,504.33,813.1Z"/><path class="cls-29" d="M505.51,802.08c-.29-2.42-1.16-7.09-.55-7.59C505,797.33,505.93,800.4,505.51,802.08Z"/><path class="cls-29" d="M510.89,831.09c-.63.42-.84-3.91-1.18-6.46C510.31,824.29,510.44,829.35,510.89,831.09Z"/><path class="cls-29" d="M348.44,744.82c.71,3.73,1.24,1.11,1.79.82.45,3.15-.18,5.43.55,7.61-.13-1.31-.26-2.57.05-2.2.24,0,.37,1.89.61,2.12-.13-1.07,0-1.31-.06-2.18-.63-1.36-.76-3.54-.94-6.48-.66-1.5-.71.76-1.34-.92-.05-1.89-.68-5.8-.13-5.49.39-.84.47,5.12.84,4.28.16-1.57,1.05-.68.29-5.48.6.15,1,4.22,1.65,3.12a32.6,32.6,0,0,1-.37-6.51c-.26.34-.68-1.42-.44-2.15,1.1,3.67,1.28,6.51,2.15,10.73-.52,1.66-.58-4.83-1.1-3.17.65,2.2.37,3.49.44,5.43,1.82,5.7,1.24-10.21,3.36-1.39-.28,1.47-1.05-4.23-.86-1,.13,1.08,0,1.29.08,2.18.68-1.36,1.26,9.06,1.52,5.33.52,2.73,0,5.2.73,6.49-.7-3.81.56-.71.19-3.29-.61-.94-.13-3.41-.74-6.48-.1,2.18-.47,3-1-2.1,1.16,2.2.21-2.84,1.89-1.26l.61,5.41c-.42,1.07-.5,1.68-.69,2.25a116.33,116.33,0,0,0,2,12.92c.13-2.68.52,1.58,1,1,.76-.92-.5-4.88-.32-7.61.74,3.91,0-2.55.61-1.16.26,1.92.42,5.43.84,4.31-.16-1.37-.4-1.47-.55-3.23l.73-.06a25.34,25.34,0,0,1,.11,7.64c0-2.67-1-3.15-.66-1a7.13,7.13,0,0,0,.6,2.13,3.1,3.1,0,0,0,.66-2.24c-.73-5.09.5-5.61-.24-8.71.84-.53.48,3.23,1,4.28.89-1.31,1-1.18,1.7,2,1.11,2.39.95-1.39,0-3.28,1.16-.05,2.18,3.44,2.73-.24.4,2.42-.47,3.52.42,5.41.19-2.13.27-2.55.84,1-.36.69-.65,1.63-1.33,1.21.65,5-.95,1.55.18,6.54-.53,1.65-.58-4.83-1.1-3.18.39,3.33.36,5.17.5,7.59-.58-.13-1.11,0-1,2.26.37-.24.68.84.92,3.2-1-1.45-.08,3.59.18,6.53-.78-5.11-1.23.5-2.41-5.25.26-.21.71.32.6-1.12-.94-.29-.15-2.87-.6-5.41-.08,1.57-.47.86-.79-2.13,0-3.07,1.29,4.07,1.29-.1-.24,0-.37-1.89-.61-2.13-.07,1.81-.76-.32-1.2-1-.16,1.45,1.18,6.85.18,6.54-.29-4.78-1-7-.42-8.69-1.73-1.37-.29.21-1.21,2.28-.89-5.3-2.54-5.38-2.67-4.14,1,3,.23,6.74.91,13,1-2,.9,8.58,1.21,4.25.63,9.76-1.49,3.18-2.83,2.44-.55-3.44-.11-3.39-.27-5.43-.7.84-.1-2.16-.6-2.13.16,1.42-.21,1-.1,2.18,1.05,13.94,2.44,7.82,3.72,11.68-1,.05-.44,4.88-1.13,4.46.48,2.18,1.13,1.05,1.58,4.23-1.29-2.39-.26,1.89-.29,5.49-.55,1.2-.73-4.05-1.29-3.18.61,5.51.69,3.26,1.29,6.43.26,2.42-.63-1.36-.89.08-.29-1.86-.05-2.81-.37-3.23-.34,5.91-3-1.78-3.31,3.6.63,2.31.74,5.7,1.24,7.51-.16-2.29.84-9.74,1.81-2.34-.53-.52-.79-1.39-.76,1.16.55-1.74.68,5.59,1.15,5.35-.13-1.31-.23-2.57.11-2.18.52,3.15.94,6.38,1.05,7.56-.45-1.49-.06,2.1.31,5.36h-.37c-.18-3.63-1.6-5.67-1.52-9.61-.81.16.53,4.91.68,7.59.06.81,0,1.07.06,2h-.06c-1-2.42-1.18-1.68-1.41-.74a5.48,5.48,0,0,0,.21.74h-4.1v-.08c-.45-2.18-.58-1.1-.55.08h-1.63c-.23-1.18-.47-2.18-.6-1.84.1.63.23,1.26.34,1.84h-6.33V815.65c.37.47.5-.86,0-3.07V779.82c.24.52.48.92.71,1.52a12.77,12.77,0,0,0-.71-3.12v-33.4a14.86,14.86,0,0,1,1.45,4.47C348.71,749.08,348,745,348.44,744.82Zm17.28,23.5c.23,2,.68.68.92,3.2.34-1.78-.32-3.44-.24-5.43l1.29-.11c-.19-1.86-.63-2.78-.37-3.23-.47-1.36-.71,2.26-1.63.14C365.53,764.15,365.82,767,365.72,768.32Zm-5.57,19c.71.28.87-1.26,1.21-2.29-.39-2.36-.94-2.65-1.39-4.25,0-1.58.55-1.52.24-4.38-.29-1.68-.21-.06-.06,1.1-.31-.89-.65-1.39-1-1C359.63,782.05,359.52,782.86,360.15,787.33Zm-1-14.08a11.88,11.88,0,0,0,.53-3.33c-.5-1.1-1-2.1-1.47-3.15C358,769.45,358.84,769.05,359.1,773.25Zm-.18,3.29-.5-4.34c-.45-.47-.18,1.58,0,3.26l-.55,0C358.13,777.88,358.6,776,358.92,776.54Zm-1,15.38c.36,3,.84,4.57,1.39,4.23C358.87,794.68,358.52,791,358,791.92Zm3.33,11.71c-.1-3.31-1.31-1.73-.84-4.28-.18-1.26-.44-.89-.68-1,.13.91.05,1-.05,1.1C360.18,801.82,360.7,803.26,361.28,803.63Zm-1.1-9.74c-.76-1.58-1.37-5.93-2.18-6.38.47,2.73,1.76,7.72,1.71,8.58C360.39,799.66,360,794.23,360.18,793.89Zm-.5,9.87c-.08-3.54-1.47-5.12-.63-5.41a22.4,22.4,0,0,1-.55-3.23c-.08.69-.19,1.34-.37,0-.21.34.16,2.7.32,4.33.31-.08.57.76.78,2.13-.15,1.91-1.57-1.08-1.73,2.33C358.58,809.3,358.34,801.48,359.68,803.76ZM347,789.08c1.1,3.6.76,5.33,1.55,8.56a58.93,58.93,0,0,0-1.5-10.76C347,787.27,347.16,788.8,347,789.08Zm2.25,7.36c.08-2-.07-6.41-1-6.44C348.89,792.21,348.68,793.08,349.28,796.44ZM348.13,801c.55,2.89.84,1.84,1.34,4.2C349.47,803.34,348.37,799.85,348.13,801Zm.52,8.71.58,3.21a12.78,12.78,0,0,0-.26-2.16c.24.11.5.66.84,2.08C349.57,810,348.76,808,348.65,809.74Zm2.94-45.59c.29,2.83.63,3.49,1,3.12C352.3,764.41,352,763.78,351.59,764.15Zm.9,45c-.27-2.08.31-.92-.29-4.36-.5.58-.32-.92-.89-4.25-.21.78-.58-2.21-.87-3.18.05,1.16-.42.39.13,3.28,0-3.86,1.44,7.14,2.07,9.58A1.73,1.73,0,0,0,352.49,809.17ZM352.8,752c.34,1.58.63,4.18,1.1,3.21,0-2-1-3.57-.49-4.33C353.06,748.26,353.06,752.1,352.8,752Zm2.65,53.4c-.47-1.44-.08,2.86-.47.08-.16,1.55.68,3.78.89,3.18Zm.74-11.13c.68.34.18-7.4-.58-6.51C356.14,791,355.69,790.92,356.19,794.23Zm-1.08,4.57c.05-2.1-.58-3.76-.68-6.49l-.39.08C354.4,793.71,354.77,797.46,355.11,798.8Zm-1.76,8a23.41,23.41,0,0,0,.48,3.23C354.32,806.07,354.25,806.49,353.35,806.8Zm1-33.15c.18-1.66-.84-9.37-1.37-8.61C353.43,768.48,354,769.76,354.38,773.65Zm.5-19.69c-.24-1.94,0-2.28-.32-4.33.24-1.08,1,3.17.74-.08-.61-5.12-.69.45-1.42-1,.1,1.94,1.05,4.46.63,5.41.84,1,1.57,4.67,2.44,5.25C356.37,755.48,355.61,755.17,354.88,754ZM357,808.41c-.58-1.66-.32,1.86-.92,1.26.26,2.15.5,1.31.76,4.27C356.71,811.21,357.21,811.35,357,808.41Zm-.4,8.87a37.72,37.72,0,0,0-.44-4.33c.21,2.65-.68-1.13-.5-2.13-.63-3.28.05,2.78-.29,2.26.26,1.42.68,3.94,1,5.35C356.79,819.83,356.11,814.13,356.63,817.28Zm-1.23,2.41c.21.11.05-1.36.29-1.15-.21-1.26-.34-.89-.47-1s-.53-1.82-.84-4.28c-.29-.48,0,3.38-.61-1a39.89,39.89,0,0,0,.53,4.33c.18,1.26-.08.95-.19,1.13C354.85,821.66,354.9,815.18,355.4,819.69Zm-1.84,6.91c.34-.87.61,1.15,1,4.25,0-.71-.29-2.47-.05-2.18-.24-.94-.5-2.41-.79-4.28l-.31.06c-.35-2.68-.79-5.78-1.45-9.69,0,.76,0,1.71-.34,0-.08.29.26,2.15.13,2.18.11,1.89.21-.81.79,2.1C352.85,821.45,353,823.26,353.56,826.6Zm-1.7-1.94c-.42-1.84-.84-2.73-.71-1,.5,1.73,1.05,4.43,1.36,4.2C352.3,826.31,351.65,825.29,351.86,824.66Zm-.08,5.48c0-1.6-.21-2.28.31-1.13-.47-2.83-.71-2.73-1-3.15C351.2,826.81,351.44,828.28,351.78,830.14Zm1.68-12.34c-1.16-4.46-1.08-5.22-2.36-8.42C352,813.84,352.83,817.65,353.46,817.8Zm-3.26,13.73c-.26-3.25.55-1.07.69-2.36-.56-1.29-1.34-3.67-.4-2.13-1.21-5.67-.29,2.81-1.44-.81A48.66,48.66,0,0,0,350.2,831.53Zm-1.34-17.43-.44,0C349.07,818.3,349.68,818.2,348.86,814.1Zm-1.47-10.79c.08-.21.19.4.32,1.05,0-.92.08-1.47.42-1.15-.74-3.15-.45-.89-1.13-2.05ZM347,784.67c1.05,5.52,1.92,3.13,2.39,2.94-.68-4.06-.58,1-1.47-4.17C347.84,785.67,347.71,784.67,347,784.67Zm.26-31.94c.55,2.46,1.18-.4,1.71,3,.21-2.44-.24-3.44.66-1.21a39.87,39.87,0,0,0-.37-4.33C349.05,751.49,347.84,751.2,347.26,752.73Z"/><path class="cls-29" d="M348.31,743.75c-.6-1.94-1-1.31-1.44-.79V734.9a.52.52,0,0,1,.18.24A86.08,86.08,0,0,1,348.31,743.75Z"/><path class="cls-29" d="M349.18,659.51c.21,1.62.39,4,.68,4.3.34-1.34.47-1-.1-4.36.68.69.73-.21,1.05,1a7.6,7.6,0,0,0,0,3.28c3.25.74,5.93,4,8.84,1.42.45,2.76-.18,5,.53,6.51a17.93,17.93,0,0,0-.11-4.36c3.73-1.07,5.78,2.5,9.95,4.6a26.39,26.39,0,0,1,0-3.28c1.21,6.06,1.36,1.7,2.39,3.07a57.14,57.14,0,0,1,.44,7.61c.24,0,.42,1.37.69,1.05a61.46,61.46,0,0,1-.19-8.71c.84,4.62,1.47,1.68,2.26,5.25.29,1.26.32,5.48.5,1.05.79,4.06.58,6.22,1.42,9.68-.92-1.63-.08,2.84-.4,3.31-.26-1.44-.6-2-1-2.1.11,1.08,0,1.31.05,2.18a26,26,0,0,1,.74,8.66c.45-.21.76,1.6,1.08,3.18-.27.21-.74-.32-.63,1.15.49,2.81,1.2,2.18,1.68,5.31-.4-2.73-.77-4.18-.08-4.36.31,3.57.63,6.8,1.21,4.25-.19-1.78-.58-.55-.79-2.12.68-2.31,1.44,5.59,2.1,7.45.58.42-.24-4,.1-4.38.55.86,1,3.38,1.5,5.33,0-2.05-.34-5.25.47-4.41A43,43,0,0,0,384.7,723c-1.68-5.64-2.76-8.55-1.37,1.21.06,2.68-.94-2.15-.81,1.16,1.1,2.94,1.5,2.7,2.31.89.76,5.22,1.05.34,1.76,4.23-.42,2.33-2.18-2.1-1,4.43-.57-.52-1.1-1.49-1.7-2-.11.63.18,5.88-.21,3.31-.13-2.08.31-2-.21-5.44l-.55.06a20.88,20.88,0,0,1,.57,5.4,4.73,4.73,0,0,1-3.67.32l.37,0c-.74-1.78-.58-4.85-1.05-6.45l-.37,0c1.08,6,.18,10.13,1.68,14-.47.84-.68-3-1.16-2.1.37,1.89.63,5.38,1.05,6.45-.05-6.8,2.29-2.86,3.68-.31-.68-.11-1.1-1.16-1.29.1.63,2.21.34,3.5.4,5.41-1.6-1.55-2.52-4.33-3,1.37a8.42,8.42,0,0,0-.71-3.23c.11,1.89-.86,0-.68,2.23.87,1.18.47,7.61,1.55,7.51.32-.66.21-1.74-.16-3.26.69-.52,1.26,2.42,1.16-1.21.16,1.29.29,3.08.52,3.23,0-1.36-.26-6.61.4-3.3,0,3.83.94-1,1.18,4.25.66.6.34-2.08.92-.08-.11-1.08-.29-1.29-.42-2.15.65.78,2.89,4.38,1.34-1.21,1.73,2.26,2.91-2.55,4.46,4,.71-.58,0-.87.39-3.31.82,6.43,1.6-1.1,2.58,5.23-.06-2.45.36-3.21.36-5.49-.39-.58-.81-.5-1.13-2.07-.05-2.68.82,1.12.63-1.16-.44-3.78-.47.13-.78-2.13-.08-3.8,1.78-2.78,2.18,3.1-.45-.26-.66.32-.5,2.23a12.76,12.76,0,0,1,.89,3.21c-.32,1.44-1.08-3.13-.92.07.58,1.68,1.29.87,1.73,4.23l-.34-3.25c4.33,1.52,8.64,4,11.55,3.36.16,2.57.24,5.06.92,5.38-.16-3.07-.52-2.78-.73-5.41.57-.68,1.1,5.07,1.31,2.07.24,2.68.5,5.25.89,5.39a62.16,62.16,0,0,0-.65-6.49c1.2.66,3.57,2.15,5.06,2.84.34,1.89.61,5.38,1,6.45-.39-4.54.79,1.16.68-2.25-.37-1.5-.94-.4-1.23-3.18.26-.63,2.31-3.23,2.47.87-.21-2.37-.69-.42-1-1,.16,1.63-.23,4.49.37,5.43.26-1.07,0-5.4.87-2.25a11.08,11.08,0,0,1-.06,3.28c.71,1.49.92-.61,1.24-2.31-.27-1.5-.71-.11-1-2.1.34-.69,1.08-2.84,1.55.94-.21.13-.39.37-.16,2.21.69,3.65,1.47-.37,1.76,3.12.16,3.2-.58-1.36-.89.08.26,2.94.52,2.15.42,4.33-.87.53-.42-3.23-1-4.28.1,1.87-.26-.21-.55,0-1.95,3.16-4.33-.07-6.38-1.62a1.26,1.26,0,0,0-.11-1.08c.06.84,0,1.26-.26,1.1.13,1.39.37,1.47.5,3.23-.95-.34-2.65-4-3.12-1.91a8.05,8.05,0,0,0-.32-3.26c-1,.95-.81,3.23-.76,8.8-.74-1.87.16-3.42-.45-4.34.08,2.63-.76,1.79-.65,4.41-1-4.67-.87.37-1.05,2.29-.45-3.39,0-4.47-.74-5.41-.37.18-.1,2.76.19,5.43a26.25,26.25,0,0,1-1.61-3.15,16.28,16.28,0,0,0,.95-3.33c-1.47-3.1-1.68,3.65-1.76,7.8-.58-1.45-.34-2.16-.68-3.23-.66,1.7-.34,1.23-1.16,1.21-.42-3.55.47-2.37.16-5.49-.87,2-1.29-2-1.6-3.13-.74,2.66-2.84-1.36-3,4.62.47-1,.78.87,1.12,2.08,0-5.17.84-1.79,1.79-2.34.39,3.73-.79,1.66-.63,4.41a8.67,8.67,0,0,0-.39-2.15c-.87,1.78,0,7.82.73,14.12-.94-4.09-.58,2.68-1.5-2,.53.18,1,.05.58-3.34-.79,2.31-2.47-3.67-2.91,3.52-3.05-9.69-4.15,2-6.54-4.88-1.52.13-.76,9.79.66,16.3.58-2.36,1,1.94,1.63-.13-.82-2.86.23-2,.07-4.39-.39,1.34-1.26-4.49-.94-5.38.37,1.89.87,1.73,1.18,4.25-.18,2.29.68,4.55.34,6.52.63,2.38,1.55,0,2.08,4.2-1.87.68-3-4.86-4.47,2.57.48-.84.79,1,1.18,1-.05-.84-.21-2.16-.05-2.18.87,5.59-.5,3.07-.21,6.56.21,1.34.47,2.18.76,2.13.58-3.29,1.89-3.13,3.63,1.86.05-7.46,2.83,3.33,3.28-1.39.26,1.42.68,4,.92,5.38a18.71,18.71,0,0,0-.74,4.12h-3.94c.08-1.63-.15-5.83-.15-7-1.16-1.79.55,6.9-.5,5.51.1.66.21,1.13.29,1.47h-.61c0-.1-.08-.23-.1-.34v.34h-.79c-.16-1-.26-2-.37-2.44a9.37,9.37,0,0,0,0,2.44h-.5a24.85,24.85,0,0,0-2.07-7.66,31.63,31.63,0,0,0,.18,3.25c.21-2.55.76.84,1.18,4.41h-.71a1.9,1.9,0,0,0-.29-1.13,4,4,0,0,0-.1,1.13h-1.73c.18-.52.34-1.89.76-1-1-6.19.31-3,.26-4.38-.58-4.52-1.89-1.42-2.26-.9.16,1.89,1.1,3.73.55,0,.16.19.29,1.08.48,1,.44,3.39-.14,3.1-.24,4.39a5.77,5.77,0,0,0,.24.94h-2.1a46.49,46.49,0,0,1-1.32-8.32c-.47.81-1.73-.42-1.44-3.15.39.63,1.68-2.65,2,5.3.55.95,1.21,1.66,1.13-1.18-.45-.71-1.18-3.54-.66-4.3.4,1.6.69,4.83,1.18,4.27.42-1.44-.13-2.25-.23-5.43,1.73,3.81,2.62,1.44,3.7.76-.95-2.07-1.76-6.64-2.65-9.61.44,2.21.26,5.2-.13,2.21.23-2.07-.11.66-.55.05-.74-3.44.36-3.44-.29-4.33a16.41,16.41,0,0,0-.13,5.46c-.06,1.63-.82-2.57-.79,1.16-.74-2.52-1-5-1.6-3.15-.5-3.31-.24-4-.53-6.52-.63,1.47-.79-5.11-1.36-4.25.6,4.31,1.44,7.82,1.6,13-.37-.66-.66-3.23-1-4.28.26,2.81-1,2.15-1.5,1.21.16-1-.23-1.6-.29-4.33-1.54.13-1.91-6.8-3.22-6.28l.34,3.23c-1.58-2.15-3.44-1.68-4-6.19.11,1.26-.15,1.18-.42,1.13l.37,3.22c-1,.82-2.13-4.17-2.34.21-.18-1.26-.31-3.07-.55-3.22-.18,3.17-1.15-.32-1.26,3.38-1-4.57-1.44-3.31-2.52-3-.52-2.68,0-4.54-.6-5.41-.45,1.21-.53,3.81-1.13,4.46-.1-2.78-1.21-3.7-.81-5.38.76,3.12.21-1.81-.24-2.15,2.13,2.62,2.73-2.1,4.83,3.94-.21-1.55-.5-1.82-.71-3.21,1,1,2.23,1.63,2.23-1.28.66,2.39,1.5,1.2,2.18,3.09-.18-6,1.84.24,2.47.87-.21-1.52-.5-1.78-.71-3.2.76-1.1,1-4.15,2-.16-.27-1.92.49-3.41-.11-4.36-.1,0-.24-.15-.29-1.07.58.78,2.52,5.19,1.87-1.24-.74,2.37-1.82.16-2.79-1.94l.61,5.41c-1.26-.89-1.53-2.6-1.87,1.26a25.38,25.38,0,0,0-.89-6.49c.66-1.91,1.18-2.94,1.81-3.44-.13-.84-.23-2.15-.42-2.15-.79,2.05-1.57-2.23-2.12,2.36-.56-5.32-1.61-1.47-2.24-5.27.74-1.1-.47-3-.47-4.33-.1-8.72,4.86,2.67,4.44-4.75-1.94-2.55-2.26,4.2-4.31-4,.34-.76.08-3.62.45-4.41.6,1.4,0,3.29.66,4.31,1.15-.63,1.49-4.57,3.09-.26-.76-9,1.26,3.31,1.55-4.49,1.52,6.09,1.42-2.08,2.65,4.15.45-.42.34-2.76.74-3.34a13.79,13.79,0,0,0,.52,3.23c-.18-1.78.45-.66.32-2.2-.47-1.95-.4-3.31-1-7.56.21-2,1.1,2.91,1.16-1.19-.53-2.36-1-5-1.76-4.2.76,6.28-1.5-2.44-.69,5.52-.13-3.44-1.15-6.49-.81-7.56l.24,2.15c.92.18,1.39-1.92,1.6-2.31-.58-3.78-1.42-4.7-1.55-7.51.37,7.64-1.89-.5-1.81,5.62.42,1.57,1.31,8.53.76,8.66-.13-.84-.29-1.26-.47-1,.57-3-1-9.66-1.84-15.12-1.1.5.26,4.41.16,6.54-.08-.66-.16-1.29-.32-1.08.08.6,0,1.23-.18,0,0-1.66-.34-7-.84-4.28-.63-6,.68-2.1.81-4.44-.5-2.07-1.13-1.55-1.65-3.15-.26,1.08.44,5.59-.13,5.46-.45-2.83-.13-4.85-.58-8.69.31,1.55.89.21.92-.08-.89-1.55-.11-1.26-.47-4.3-.32-.66-.48-4.15-.84-4.31a6.07,6.07,0,0,0-.14,2.21c.16,1.44.42.94.61,2.12-.32.48.31,4.2-.4,3.31-.36-4.54-1.15-4.22-.7-6.48-.42-1.58-.95-.5-.4,3.31-.89.71-.6-4.44-1.15-5.36.1,7.59.29,7.93-.63,1.13a5.85,5.85,0,0,0-.13,2.2c.15,1.45.44,1,.6,2.13a4.93,4.93,0,0,0,.05,2.18c-.73-1.92-1.86-3.12-1.42,2.31.24-3.2.84,6.14,1.58,4.23.63,5.38-.24,8.87-1.13,6.64,1-1-.37-3.15-.79-5.38.27-.21.71.31.63-1.16-.57-1.68-.84-8.61-1.57-7.51.31,4,.86,4.13,1.21,7.54-.37,1.44-.92.31-1.53-2.05.45,5.2-.5,1.44-.63,4.41-.6-3-1.15-7.09-1.76-10.76.42-.84.61,2.1,1,2.1a22.87,22.87,0,0,1-.19-3.28c-1.55-1.82-2.83-5-3.57-1.87-.18-1.26-.31-3.07-.55-3.23-.42,2.21-.21,1.45-1.1.11.94,6.46,1.05,8.32,2.12,10.71,0,3.91-2.15-.26-2.33-.87.55.16.89-.36.86-2.25-.94.78-.84-4-.47-4.31-.6-1.34-1.15-3.18-1.78-4.23-.42,1,0,1.63.28,4.34-.81-.14-.55-1.87-1-5.39-.34,1.32-1.31-2-1.1.11l.87,7.56c-1.37-3.34-1.5-5.44-3.26-10.63a65.37,65.37,0,0,0,1.1,6.45c-1.15,1.32-.73-5.9-1.73-5.32.19,2,.47,2.36.68,4.3-.13,2.21-.42-.45-.86-1,.42,5.33-.13,9.74,1.23,14.07.11,2.6.21,5.27.32,7.61-.48-6.8-2.47-3.12-3.52-9.53.37,0-.11-3,.5-2.2.21,1.68.39,3.75.73,3.2-.63-2.73-.21-3.81-.81-5.38-.13,1.7-1-1.24-.87,2.26.29,3.41.76,3.78,1,7.53-.5.13-.57-1.76-.73.08-.45-2.92-.76-8.61-1.31-9.71a71.51,71.51,0,0,1,.36,10.92,1.58,1.58,0,0,0-1.34-.32V663.89l2.42-.21C349,661.4,348.89,659.8,349.18,659.51ZM381,716.79c.24,1.94,0,2.31.27,4.33.36.26.26-1.08.07-1.1-.13-3.31.87,1.52.82-1.16C381.84,717.26,381.44,716.58,381,716.79Zm1.08,11.92c-.08-3.36-1.47-6.8-2.15-9.64-.48-.29.13,3.13-.21,3.28C380.58,721.38,381,726.87,382.1,728.71Zm-2.31,4.54c.47-1.32,1.5,3.2,1.47-.13-.39-2.52-.89-3-1.81-3.13Zm26.75,39.19c-.26-2.39-.81-.39-1.21-1C405.8,775,406.22,772.91,406.54,772.44Zm-10.06,54.34c-.55,1.47-.73-3.52-1.31-2.07C395.57,828,397.11,833,396.48,826.78ZM371.23,770c-.45,2.17-1-2-1.44.13C370,772.89,371.78,773.91,371.23,770Zm5.59,19.16c.08,3.86,1.31,5.75,1.73,7.48.21-.34-.13-2.73-.28-4.33C377.71,792.44,377.24,791.45,376.82,789.19ZM374.88,773c-.21-1.47-.55-.86-.84-1,.73,3.7.42,7.06,1.26,6.43.05,1.47-.16,2.05-.5,2.23.79,2.68.81-2.89,1.21,4.25l.55,0c-.21-4.49-2.07-7.79-1.26-9.71C375.61,773.83,373.59,774.65,374.88,773Zm2.73-6.8c-.42,2-1.34.32-1.39-4.25a24.27,24.27,0,0,0-.58,6.59c.63-1.6.87,3.62,1.44,3.15a8.25,8.25,0,0,0-.7-3.2c-.08-3.1.78,2.83,1.15,2.07C376.82,766.48,378.32,770.29,377.61,766.19Zm-.11,14.21c.35,2.94,1.13,2.49,1.21,1C378.42,779,377.9,781,377.5,780.4Zm2.74-15.52c-.21.58-.29,1.63-.5,2.23C380.24,770.73,380.92,769.11,380.24,764.88Zm7,10.32c-.24-2.16.37-1.42-.08-4.36-.42-.42-.39.79-.6,1.13a11.91,11.91,0,0,0,1,4.28C387.74,775.67,387.4,775.12,387.22,775.2Zm.34,15.25c.52.87.26-5.43.89-.08.37-2.81,1.08-.26,1.29-3.39a13.07,13.07,0,0,1,.52,3.23c.11-4.91,3,3.31,2.73-3.51.61,4.27,1,.94,1.37,4.25.58-3.68,1.91,1.55,3-1.34-.13-.87-.28-1.08-.39-2.15-.13.21-.21-.4-.29-1.08.05,5.3-1.18-1.57-1.86-2,0,3.15-1.71,3-2.65-.84.42.37,1.6.84,1.07-5.57-.34-.1-.26,1.37-.6,1.16-.11-1.71.47-1-.08-4.36-.94-.44,0,5.67-.6,6.59-.42-2.73-.95-4.07-1.34-7.53-.58-1.11-.45,4.12.16,3.25.26,1.92-.82,2-.84-1,0,3.07.05,2.52-.4,3.31-.39-1.19-.76-3.5-1.26-3.18.13,1.05.32.81.47,1.05,0,1.47-.18,2-.49,2.23.28,1.44.6,2,.94,2.1.13,2.21-.89.37-.26,4.38-.37-1.94-1.52-6.19-1.34-7.53-1.16-3.41.52,9-.66,7.69A43.69,43.69,0,0,0,387.56,790.45Zm-4.15,15.65c.5-1.32.95-2.79,1.63-3.42.26.24.58,3.21.34,3.26.21,1.57.58.34.76,2.12-.08-1.83-.08-8,.61-1.12.57-1.47-.29-2.24-.58-5.41-.19-2.26.65,1.52.6-1.13.26,1.84.08,2.05-.13,2.18.32,1.6.74,1.52,1.13,2.1-.76-6.41-1.86-6.91-2.91-8.48a27,27,0,0,0-.16-3.26c.05-1.6.52-1.7.55-3.33-1.1-3.49-1.18,2.34-.45,7.69.27.82.53,1.13.84,1,.08,1.41-.13,1.73,0,3.25-.6-4-1.49-2.81-2.25-4.17a12.25,12.25,0,0,0,0-3.29,13.79,13.79,0,0,1,.52,3.23c.32.32.37-.26.47-.7.08.21.13.13.13-.42a1.74,1.74,0,0,0-.13.42c-.29-.77-.89-5.57-.39-4.26-1-3.33-1.18-.13-1.47,4C383.65,797,383.12,802,383.41,806.1Zm-1.07-37.05c-.53.82-.08,5.07-.69,5.52C382.86,779.35,382.41,772.91,382.34,769.05Zm-1,14.29c.5.28.21-2.29.08-4.39-.42-.42-.39.79-.6,1.16A28.79,28.79,0,0,1,381.31,783.34Zm-.79,1.15c.42.42.4-.79.61-1.15-.53-3.05-.87-1.29-.95-5.39-.08.61-.18,1.19-.44,1.13A35.35,35.35,0,0,1,380.52,784.49Zm.61-13.13c-.87-.89-.92,1.19-.92,3.37-.21-.56-.42-1.11-.68-1C380.5,778.24,381.55,774.83,381.13,771.36Zm-15.49-82.71c-.24-3.34-.63-3.94-.89-6.49-.48-1,.55,6.2-.13,2.18.05,1.16.18,3.31.34,6.54.26-4.2.52-1.37,1.68-.16C366.35,687.36,365.72,686.91,365.64,688.65Zm.94-15.39c.32,2.76.87,2.1,1.37,2.08C367.48,671.32,367,672.37,366.58,673.26Zm1.76-1.23c.27,2.83.58,4.65,1,4.28C369.1,673.47,368.79,671.66,368.34,672Zm3.47,18.24c-.32-.26-.21,1.05-.45,1.13a6,6,0,0,1-.6-2.12c-.47.76.42,2.28.47,4.33C371.7,693.42,372.18,693.32,371.81,690.27Zm-.08,4.39c-.68-.9-.39,1.76-.68,2.26.26,1.89.57,2.41,1,2.1C371.78,697.05,372,696.68,371.73,694.66Zm.55,0c-.47,3.07,1,9.47,1.13,14.09.18,0,0-1.31,0-2.18.32-.18.53,1.29.84,1-.21-.95-.42-1.92-.23-2.16C372.94,703.69,373,698.36,372.28,694.61Zm2.44,5.25c-.79-2.08-1.15.07-1.78-.92.39,4.3,1.18,2.86,1.62,6.4a4.18,4.18,0,0,0,1.19-1.18c-.58-3.91-.63-.63-1.24-1C374.09,700.25,374.67,701,374.72,699.86ZM373,682.53a47.35,47.35,0,0,1,1.45,6.43c.44-.16-.35-3.57-.53-3.23-.18-2.26.79-.37.71-2.26C374.12,679.54,373.93,683.76,373,682.53Zm.76,8.66a7.63,7.63,0,0,1-.34-3.25c-1-3.52-1,2.39-.71,5.54.9-.42.4-2.16.9,3.2.52-2.78,1.28,3.7,2.2,3.07a7.74,7.74,0,0,1,0-3.25c-.61-1.66-.61-2.24-.76-5.41C374.51,690,373.65,687.67,373.8,691.19Zm2.63-3.49c-.47-3,0-2.83-.4-5.43C375.3,681.74,375.54,688.12,376.43,687.7Zm1.73,51.17c-.26-2.87-.63-3.52-1.08-3.18C377.35,738.52,377.71,739.21,378.16,738.87Zm.34-5.52c-.55-2-1.1-3.91-1.81-3.12C377.16,733.12,378.37,734.06,378.5,733.35Zm-.23-10.87a18.94,18.94,0,0,1-.77-5.38c-.39,0-.36,4.86-.86,2.26C376.53,722.85,377.87,723.82,378.27,722.48Zm-1.63-11.89a17.92,17.92,0,0,0,.34-5.48C376.32,703,376.09,706.47,376.64,710.59Zm-1.52-22.78c.44.7.57,6.45,1.12,5.35C376,690.06,375.64,687.28,375.12,687.81Zm-.06,39.29c-.44.16,0,4.07.4,5.44A10.1,10.1,0,0,0,375.06,727.1Zm-1.2,4.49c.31,1.82.49.63.26-1.1.34.45.52,3.39,1,2.1a37.57,37.57,0,0,0-.76-5.41l-.55.06C373.59,727.92,374.17,731.38,373.86,731.59Zm-1.47-11.89c.07-2.28,1-.13.78,2.13,0-.53.84-.34,1.18-1.21s.61,2.1,1,2.1c.28,2.34-.61.55-.82,1.16.26,4,1.18,1.89,1.24,1-.79-4.12-.42-4.8.39-3.3-.34-3.36-.92-3.05-1.18-7.54,0,1.92-.42,6.07-1.1.11.13,7.48-1.11-4.44-.77,3.33a8.72,8.72,0,0,1-.7-3.2C372.12,715.27,371.94,716.32,372.39,719.7Zm-1.29-11.89a9.34,9.34,0,0,1,1.63-2.31c-.16-1.63-1.29-1.47-.42-2.15-.71-4.23-1.71-3.23-1.37,1.2-.29-.78-.37-3.25-1-5.38-.16,2.94-.71-1.26-1.23-1a6.1,6.1,0,0,1-.13,2.17C369.34,704.27,370.47,702.22,371.1,707.81Zm-2.07-14c.21-.4.07-2,.31-2.23.34,3-.08,2.2.47,4.33.55-.95,1,1.94,1.11-.11-.74-4.12-.42-1.26-.58-5.4-1-1.5-1.1.47-2-.92A32,32,0,0,0,369,693.82ZM367.82,707l.73-.06c-1.41-3.86.48-2.6-.52-6.51-.08,1.24,0,3.13-.68,2.26C367.9,704.79,367.5,704.06,367.82,707Zm-.61-14.13c.58-1.23.82,2.63,1.34,2.08-.81-2.34-.44-9.87-1.62-9.69-.08,2.18.15,1.36.47,4.33-.84-1.57-.4-5.43-1.34-5.35C366.43,687.7,366.93,688.78,367.21,692.87Zm-.6,25.15c-.73-3.59-.81-.63-1.6-.94C365.59,720,366.24,719.15,366.61,718ZM365.25,704c.18,0,0-1.34-.06-2.18.32-.16.53,1.29.87,1a4.88,4.88,0,0,1,.05,2.17c.95,3.23-.13-3.09-.42-5.43l-.92.08C365.11,702.59,364.69,701.82,365.25,704Zm-.79,19.72c.6-.08-.5-6.15-.29-7.62-.39-2.57,0,2.84-.5,2.23C364.17,720.8,363.85,720.28,364.46,723.67Zm-1.1-40.3c.23,3.07-.95,1.18-.63,4.44-.53-3.15-.4-2.68-.92-3.21-.24,1.66.42,2.65.42,5.44C363,689.07,364,689.17,363.36,683.37ZM362,696.6c.26-1.05-.08-4.3.45-4.41-.63-3-1.11-8.37-1.89-8.56A14.4,14.4,0,0,1,361,688c-.58-2.75-1.42-1.13-1.89-5.3-.5.47.21,5.15,0,6.56C360,693,361.23,691.14,362,696.6ZM359.26,699c1.08,2.38.08,7,1.39,7.53-.84-2.63-.26-4.86.26-1.1a27.36,27.36,0,0,0-1.7-8.59A4.86,4.86,0,0,1,359.26,699Zm-.66-4.31c.48,2,.11-2.6.92-.08-.42-4.3-1.18-2.86-1.65-6.4C357.58,692.4,359,693.14,358.6,694.71Zm-.15-6.54c-.06-2.23.39-4.49-.48-7.61-1.26-.26.08,4.83-.71,5.51A3.29,3.29,0,0,0,358.45,688.17Zm-1.4,4.47c.19-.4.27-1.95-.05-2.18-.1-1.26.24-1,.45-1.13-.26-2.86-.71-2.76-1.1-3.18A17.56,17.56,0,0,0,357.05,692.64Zm-.7-13c-.27-.84-.56-1.13-.87-1,.18,1.73.55,4.12.31,4.33C356,684.34,356.9,682.9,356.35,679.62Zm-.27,10.94c-.23-4-.78-3.44-1.15-5.35C354.61,686.31,355.69,690.59,356.08,690.56Zm-1.39,7.77c.19,1.26.45.87.68,1-.13-.92-.05-1,.06-1.08-.55-.08-.76-5.93-1.37-5.35C354.14,695.63,355.14,697.34,354.69,698.33Zm-.52-9.79c-.76-3.81-.19-2.68-.53-6.51C352.78,680.4,353.54,689.35,354.17,688.54Zm-2.68,40.61c.34-1.91-.24-4-.68-7.58-.08.57-.19,1.15-.42,1.12C350.7,725.77,351.23,724.74,351.49,729.15Zm-1-8.63c.08-.84.29-1.21.61-1.13l-.5-4.33C350.18,715.45,350.31,717.94,350.49,720.52Zm-.18-39.28c.58,2.08.08,6.12,1.31,6.43-.63-3.33-.31-3.09-.87-7.56-.63,0-1.23.11-.63,4.41C350.6,684.81,350,681.37,350.31,681.24Zm-1.73,34c.18,1.53.39,3.07.18,3.26.52,3.15.29-1.45.92-.08-.13-.89-.32-1.08-.45-2.15.34-.55.53,1.49.74,3.2,0-1.79.34-3.49-.24-5.44C349.68,715.53,349.07,715.16,348.58,715.21Z"/><path class="cls-29" d="M346.87,661.42v-2.6c.08.27.16.5.26.87C347.13,661.11,347,661.24,346.87,661.42Z"/><path class="cls-29" d="M380.92,707c-.16-4.12-.74-2-.95-5.38,0-1.73.76-4.41,1-3.36-.23,2.28.48,8,.4,10.87-.45.94-.66-1.47-1-1l-.45-4.31C380.37,702.11,380.37,708.6,380.92,707Z"/><path class="cls-29" d="M362.49,818.8c.39,3.57-.89,1.18-.89,3.34-.08-1.58-.84-5.57-.45-5.41.13,1.07.47,1.34.37,0-.08-.65-.11-1.28.05-1.1.29,2,.08,2.39.32,4.33C362.73,822.08,362,815.6,362.49,818.8Z"/><path class="cls-29" d="M364.88,824.05c.13,4.88-1.58-.42-2.68-1a16.28,16.28,0,0,0,1-4.3C363.62,821.11,363.91,825.39,364.88,824.05Z"/><path class="cls-29" d="M362.23,823.05c-.16.21-.32.29-.5.16A.33.33,0,0,1,362.23,823.05Z"/><path class="cls-29" d="M365.9,821.77c.45-1.29,1.47,3.2,1.42-.11-.21-1.78-.55-.57-.79-2.12.55.63,1.29-1.5,1.73.94-1.18.4.21,3.41.5,7.59l-1.07.08c-.63-5.7-1.29-.63-2.29-4.18.53-2.91.11-5.69-.39-9.79C365.67,815,366.27,819.41,365.9,821.77Z"/><path class="cls-29" d="M362.7,787.12c.5-1.71-.18-7.59.79-7.7.71,5.7,1.07,5.7,1.23,10.82C363.54,785.62,363.41,790,362.7,787.12Z"/><path class="cls-29" d="M361.65,773.05a14.39,14.39,0,0,1,.18,3.25c-.89-3.33-.1-4.73.29-5.49.37,4.55.53-1.52,1.1,3.18C362.83,776.22,362.33,774,361.65,773.05Z"/><path class="cls-29" d="M370.47,833h-.26a1.25,1.25,0,0,1,.13-.63Z"/><path class="cls-29" d="M373.15,829.88c-.76-.66-2-3.31-2.16.18-.49-4.3-2.12-4.46-2.1-7.45.24.81,1.05-.11,1.63,3.15.21-3.28,1.76,2.15,2.26-2.39.29,2.7.05,3.41.66,4.3.34-6.16,2.75-4.75,4.3-.36.32-7.2,3.78,1.91,5.07-1.53.26,3.81-.11,3.6.71,6.49-.63,1-1-2.86-1.55-4.23,0,2.15.1,3.68.26,4.91h-.55a25.32,25.32,0,0,1-.42-4.86c-1.76-3.22-1.1,4.52-2.5.21.53,3.47.11,3.42-.05,4.39-.21-1.63-.37-4-.65-4.31-.29,4.7-3-3.8-3.34,2.47-.26-1.92-.42-5.41-.84-4.28,1.24,5.72-.26,2-.39,4.39.23,1.62.68,1.89,1.1,2h-1.92C372.83,831.82,373.72,834.79,373.15,829.88Z"/><path class="cls-29" d="M361.52,749c-.4.37.08,3.78-.55,3.34a37.22,37.22,0,0,1-.79-5.38C360.55,745.77,361,746.19,361.52,749Z"/><path class="cls-29" d="M361.07,728.34c-.1.92-.34,1.47-.81,1.15.13,1.08.29,1.29.42,2.16l-.55.05-.27-2.18c.56-.95.24-4.86.27-7.67-.24-.13-.5.24-.69-1-.18-3.73,1.42-1.81,1.16,2.07C359.92,720.62,360.68,725,361.07,728.34Z"/><path class="cls-29" d="M361.89,742.44c.73-.08.49-3.15.42-4.41.21,1.54.49,1.81.73,3.2-.31,2.44.45,6.25.66,10.87-.4.47-.63-2-1-1-.55-3.47.45-1.52.06-4.39-.29-1.6-1.42-4.41-1.16-5.32C361.68,742,361.75,742.65,361.89,742.44Z"/><path class="cls-29" d="M372.36,804.84c.37,2.33-.13,3.49.55,3.22-.08-.6,0-1.23.18,0-.21.35,1,7.8-.18,6.57a11.74,11.74,0,0,1,0-3.28c-.52-.42-.87-.37-1.63-3.15l.37,3.25c-.71-.84-.81.21-1.73-.94-.11-1.92-.92-6.33-.55-6.49C370.26,803.13,372,807.67,372.36,804.84Z"/><path class="cls-29" d="M369.71,781.08c.79.55,3.8,3.65,1.86,5.27-.68-3.09-1.57-2.07-.37,0-.7-.08-1.15,0-1.39-1C370.15,785.23,369.52,781.76,369.71,781.08Z"/><path class="cls-29" d="M361.6,691.17c-.11,2-2.63-2.89-1.89-5.31C360.21,689.59,361,689.14,361.6,691.17Z"/><path class="cls-29" d="M375.4,807.85l-.36,0c.71,1.63.23,5.2-.29,2.21C374.85,809.25,374.85,804.86,375.4,807.85Z"/><path class="cls-29" d="M376.56,806.67c1.44,6.3,2-2.49,3.6,6.25-1.89-2.36-1.92,2-3.84-1.86C377.08,812,375.93,806.17,376.56,806.67Z"/><path class="cls-29" d="M373,754.56c-.47-2.36-1.21,0-1.63-3.12C371.91,751.07,373.25,752.8,373,754.56Z"/><path class="cls-29" d="M367.69,650.27c.05.57,0,1.23-.19,0a5,5,0,0,0-.05-2.18l.55-.05c.32,2.94.55,2.15.47,4.33C368.16,652.71,368,651,367.69,650.27Z"/><path class="cls-29" d="M378.08,676.62a114.66,114.66,0,0,1,.26,13.08c.37-5.23-2-8.59-1.2-9.72.13.84.23,2.13.42,2.16a6.86,6.86,0,0,0,.15-2.21c-.34-2.55-.84-2.36-1.2-4.28C377.08,674.79,377.5,676.94,378.08,676.62Z"/><path class="cls-29" d="M380.42,678.8s.08-.1.13-.18Z"/><path class="cls-29" d="M379.45,684.16c-.37-2-.74-3.94-1.08-6.43.47-.11,1.58,1.73,2.05,1.07a2.88,2.88,0,0,0,.05.92c.37-.24.68.84.89,3.2C380.29,683,379.84,681.43,379.45,684.16Z"/><path class="cls-29" d="M394.31,812.79l-.35-3.26c.71.29,1.21,1.74,1.47,2.05-.1.08-.18.19-.05,1.1.24.16.5-.23.66,1C395.33,815.52,394.46,810.66,394.31,812.79Z"/><path class="cls-29" d="M382.94,687.12l.34,3.23c-.42.84-.6-2.12-1-2.1a7.69,7.69,0,0,1,.05,2.18c-.16-1.36-.39-1.47-.52-3.23.18,0,.13-.89.26-1.1C382.57,689.25,382.49,687.31,382.94,687.12Z"/><path class="cls-29" d="M387.22,717.31c.34,6.07-1.58.58-2.23.19C386.14,718.6,386.06,715.42,387.22,717.31Z"/><path class="cls-29" d="M387.19,701c-.52-.29-1.13-1.76-2-3.1.79,2.73-.13,1.76-.21,3.28-.58-5.3-.18,2.5-.84-1C383.88,692.85,386.93,697.49,387.19,701Z"/><path class="cls-29" d="M400.92,824.24c-.84-.4-.23,3.36-1.13,1.18-.26.76.79,6.43,0,5.46-.4-2,.16-3.68-.45-4.33-.23,0,0,1.91-.13,2.2-.1-3.67-1.23-4.67-1.05-3.18.05.66.11,1.29-.08,1.11C397.69,819.72,400.13,822,400.92,824.24Z"/><path class="cls-29" d="M395.09,734.11c-.44,1.29-.63-1.65-1-2.1.63,4.91-.76,3-1.23,2.29.34-.34-.58-2.86-.26-4.33C393.41,732,394.49,729.39,395.09,734.11Z"/><path class="cls-29" d="M401.79,810c-.76-5.19-.4-10.68.23-6.56C401.34,803.31,402.42,809.74,401.79,810Z"/><path class="cls-29" d="M404,824c-.63.16.73,3.55.15,3.26-.07-.66-.15-1.26-.28-1.05.1,1.31.21,2.57-.14,2.18C403.26,825.29,403.28,820.67,404,824Z"/><path class="cls-29" d="M409.85,833h-.66c-.08-.37-.21-.87-.34-1.76C409.27,830.48,409.56,831.8,409.85,833Z"/><path class="cls-29" d="M412.45,833H410.5C410.53,830.3,412.26,830.8,412.45,833Z"/><path class="cls-29" d="M413.15,830.82c.32,2.52.71,2.45.82,1,0,.44.08.81.13,1.1h-.76C413.21,831.82,413,831.19,413.15,830.82Z"/><path class="cls-29" d="M412.6,830.85c.13.45.24,1.34.37,2.07h-.47C412.66,832.64,412.47,831.11,412.6,830.85Z"/><path class="cls-29" d="M416.59,800A70.25,70.25,0,0,1,418,811.84c-.66-4.22-2.94-4.38-2.92-1.94-.52-3.86-1.18-5.88-.57-7.58.36,4.62,2.78,5.06,2.15-.19-.79-4.41-2.18-1.34-2.81-.84-.16-5.27-.84-8.21-.34-10.89-.08,4.8,1.15,3.86,1.1,7.56.19,0,.29.84.47,1-.26-5.65,1.58-.32.79-6.62.24,1.26.45,2.44.68,3.23-.13-2.39-.84-3.39-.13-3.25,2.84,9.26,4.2.47,7,4.85.58,5.83-.66,2.21-1.05,2.26C420.43,799.77,418.33,800.92,416.59,800Z"/><path class="cls-29" d="M441.66,819.62c-.13,3,1,7.24,1.13,4.27-.1-1.47-1.15-1.31-.65-3.22.63,4-.27-3.21.15-2.21.92,1.73,1.13-.37,2.45.89a23,23,0,0,0,.47,3.23c-.19,4.73-2.86-2.2-1.84,5.62-.47,1.71-.84-.53-1.31,1.21-.47-4.2-1.05-7-1.79-7.51.26,4.51-.65.18-1,2.26-.23-4.41-1.31-3.68-1.44-2C438,815.89,440.61,821,441.66,819.62Z"/><path class="cls-29" d="M437,812.37c.57,1.13.18-4.73.81-1.16l-.37,0,.4,4.33c-.24.08-.45-.47-.63-1Z"/><path class="cls-29" d="M462,810.22c-.31-5.2,1.11.21,1.26-2.29.08,2.5-.23,2.1-.52,4.41-1.13-2.6-3.63.16-4.75,1.5a27.08,27.08,0,0,0-.92-4.94C458.23,807.2,460.49,808.17,462,810.22Z"/><path class="cls-29" d="M457.05,808.9c-.06.08-.08.19-.13.27a5.15,5.15,0,0,0,0-.69A2.88,2.88,0,0,1,457.05,808.9Z"/><path class="cls-29" d="M455.76,805.28a11.93,11.93,0,0,0,.92,4.31,2.14,2.14,0,0,1,.24-.45c-.08,2.63-1,3.52-1.32,2.7C455.34,808.41,455.92,808.22,455.76,805.28Z"/><path class="cls-29" d="M465.84,806.62c.63,3.78.61,1.21.53,0,.6,3.36,1.34,2,1.07-.08.82,5.72,1.81-2.7,2.34,4.17-2.13-.86-3.78,3.05-6.12-1.65C464.4,807,465.53,810.45,465.84,806.62Z"/><path class="cls-29" d="M478.15,802.26c.24,2.86.42,6.38.9,6.46.15-1.63,1.23-2.36,1.44,2-.53,2.83-1.31-.16-2,.16.05.65.08,1.28-.08,1.1C478.89,808.46,477.16,803.71,478.15,802.26Z"/><path class="cls-29" d="M364.2,658.19c.31,2.94.55,2.16.47,4.34-1.6-2.71-2.44,0-3.91-2.94,0-2.94.63-.24.71-2.24-.37-.13-.71-.65-1-2.1,1.16-2.38,3.47-.78,5.44-.47C366.27,658.88,364.8,658.38,364.2,658.19Z"/><path class="cls-29" d="M383.36,675.07c.52-.94,1.89,4.47,2,.92.37,3.23,1.82,7.2.79,7.59a13.48,13.48,0,0,0-.52-3.23l-.37,0c0,2.81.6,3.78.37,5.43-.48-2.94-.48,2.18-1-2.1.1-.24.36-.05.26-1.1-1-.32-.92-2.76-1.31.1C383.67,679.27,383,676.73,383.36,675.07Z"/><path class="cls-29" d="M402.05,831.77c.76-2.28-1.39-5.15-1-9.74.48.08.92.53,1.32,2.07-.32,0-.37.87-.32,2.21.66,2.18.6-2.31,1.1,2.07.13,1.68-.73-.57-.65,2.26.71,1.34.6-.92,1.28,2.07-.31-.34-.65.14-1,.24h-.19C402.39,832.87,402.21,832.61,402.05,831.77Z"/><path class="cls-29" d="M383.25,657.64c-.15-1.39-.39-1.47-.52-3.23.39-5,2.83.61,4.07.77C386.8,662.5,384.3,654.28,383.25,657.64Z"/><path class="cls-29" d="M415.65,833h-.53a4.53,4.53,0,0,1,.08-1.21A9.83,9.83,0,0,0,415.65,833Z"/><path class="cls-29" d="M417.14,833h-.68C416.54,831.64,416.86,831.93,417.14,833Z"/><path class="cls-29" d="M334.32,474.25a4.75,4.75,0,0,1-4.28-.81,5.08,5.08,0,0,1-1.94-4v-.21a5.06,5.06,0,0,1,3.2-4.75c82.56-31.16,208.73-13.6,233.85-9.64a5.33,5.33,0,0,1,4.44,5.33v1.05a5.71,5.71,0,0,1-1.87,4.25,5.31,5.31,0,0,1-4.3,1.37C524.83,461.73,414.18,450.33,334.32,474.25Z"/><path class="cls-26" d="M330.46,469.24a5.06,5.06,0,0,1-4.43-.82,5,5,0,0,1-2-4v-.21a5.08,5.08,0,0,1,3.34-4.75c85.34-31.16,215.79-13.6,241.72-9.63a5.37,5.37,0,0,1,4.57,5.33v1.05a5.7,5.7,0,0,1-1.92,4.25,5.63,5.63,0,0,1-4.46,1.37C527.38,456.71,413,445.32,330.46,469.24Z"/><rect class="cls-29" x="334.58" y="830.19" width="237.13" height="5.85"/><path class="cls-29" d="M362.73,728.65c3,12.6,187.41-1.49,187.41-1.49S361.75,724.61,362.73,728.65Z"/><path class="cls-29" d="M570.61,698.39c-34.62,1.33-107.42,2-107.42,2s72.8-6.17,107.42-5.85Z"/><path class="cls-26" d="M570.61,629.92C536,631.26,463.19,632,463.19,632s72.8-6.17,107.42-5.86Z"/><path class="cls-29" d="M568.38,551.48c-34.63-1.94-107.42-3-107.42-3s72.79,9,107.42,8.58Z"/></svg>