<svg id="Layer_1" data-name="Layer 1" xmlns="http://www.w3.org/2000/svg" viewBox="0 0 828.08 900.62"><defs><style>.cls-1{fill:#775f49;}.cls-2{fill:#594434;}.cls-3{fill:#a38541;}.cls-4{fill:#7c622e;}.cls-5{fill:#3d2e25;}.cls-6{fill:#4c3d32;}.cls-7{fill:#d1c3ae;}.cls-8{fill:#e0b75a;}.cls-9{fill:#c1a359;}.cls-10{fill:#497e91;}.cls-11{fill:#649ab2;}.cls-12{fill:#426d7c;}.cls-13{fill:#ffbc80;}.cls-14{fill:#f29c61;}.cls-15{fill:#84b5d1;}.cls-16{fill:#ce8945;}.cls-17{fill:#af7031;}.cls-18{fill:#f7d892;}.cls-19{fill:#e5c077;}.cls-20{fill:#8e614d;opacity:0.5;isolation:isolate;}.cls-21{fill:#c9a183;}.cls-22{fill:#ba9378;}.cls-23{fill:#8e4b29;}.cls-24{fill:#af663e;}.cls-25{fill:#775e49;}.cls-26{fill:#916b51;}.cls-27{fill:#e07d4b;}.cls-28{fill:#6b4b36;}.cls-29{fill:#594231;}.cls-30{fill:#c69d54;}.cls-31{fill:#99763f;}.cls-32{fill:#7f6e54;}</style></defs><title>larat-wff</title><path class="cls-1" d="M196.21,1733.82h513s53-130.48-248.46-60.93c-41.68,9.61-75-52.62-194-28.86C194.6,1658.46,196.21,1733.82,196.21,1733.82Z" transform="translate(-78.85 -837)"/><path class="cls-2" d="M443.2,1672.89c-33.28,6.93-54.32-37-127.22-34.57,19.11,20.5,76.16,43.59,142.23,53.38,85.54,12.64,158.67,2.37,163.23-22.92.94-5.22-1.12-10.68-5.72-16.17C575,1651.58,519.36,1657,443.2,1672.89Z" transform="translate(-78.85 -837)"/><path class="cls-2" d="M462.9,1672.4c45,20.33,71.56,42.39,68.08,60.57-.05.27-.18.54-.22.85H709.17S761.89,1604,462.9,1672.4Z" transform="translate(-78.85 -837)"/><path class="cls-2" d="M196.57,1726.76a63.12,63.12,0,0,0-.31,7.06h23.9Q208,1730.4,196.57,1726.76Z" transform="translate(-78.85 -837)"/><path class="cls-3" d="M673.88,1392.4c62.23-19.75-5.67-141.61-54.09-181.05s-90.24-96.14-90.24-96.14l-35.16,122.27S608.39,1413.17,673.88,1392.4Z" transform="translate(-78.85 -837)"/><path class="cls-4" d="M608.17,1370.24c-2.86-14.2-19.88-92.82-13.27-96.62s31.27,74.82,31.27,74.82Z" transform="translate(-78.85 -837)"/><path class="cls-5" d="M335.68,1501.4c-6.44-70.54-90.29-334.46-.54-395.39s187.8.76,209.42,26.71c48.07,57.72,26.71,394.32,2.68,420S335.68,1501.4,335.68,1501.4Z" transform="translate(-78.85 -837)"/><path class="cls-6" d="M388.43,1522.75c27-69.6,41.59-218-20.81-393,66-57.71,138.12.72,154,25.33,35.38,54.68,19.66,373.63,2,397.93S388.43,1522.75,388.43,1522.75Z" transform="translate(-78.85 -837)"/><path class="cls-5" d="M552.87,1501.4c-35.25,8.8-86.58,12.82-87.38,4.82s93-33.68,93-33.68Z" transform="translate(-78.85 -837)"/><path class="cls-5" d="M587,1534.37c-62.09,8-152.37,10.85-153.67,2.81s163.9-31.54,163.9-31.54Z" transform="translate(-78.85 -837)"/><path class="cls-5" d="M323.35,1447.57c16.7,12.91,38.15,32.61,70.4,35,33.55,2.45,77.68-12.6,77.46-8.54-.22,3.4-44.54,18-78.62,16.4-45.79-2.1-84.79-21.35-84.79-21.35Z" transform="translate(-78.85 -837)"/><path class="cls-3" d="M654.67,1522.75c-78-15-12.82-362.78-142.68-430.1,97.79,136.25,12.82,426.39,32.08,466.46Z" transform="translate(-78.85 -837)"/><path class="cls-3" d="M297.21,1421.26c-14.43-75.36-56.1-283.17,52.89-313.1-67.32,155.45,3.22,396.45,3.22,396.45Z" transform="translate(-78.85 -837)"/><rect class="cls-7" x="330.05" y="1409.81" width="9.96" height="21.31" transform="matrix(0.98, -0.18, 0.18, 0.98, -327.17, -754.32)"/><rect class="cls-7" x="325.05" y="1387.43" width="9.96" height="19.07" transform="translate(-323.05 -755.59) rotate(-10.29)"/><polygon class="cls-7" points="252.67 526.81 242.71 527.61 244.27 546.64 254.23 545.84 252.67 526.81"/><polygon class="cls-7" points="250.3 505.5 240.34 506.31 241.9 525.29 251.86 524.53 250.3 505.5"/><polygon class="cls-7" points="248.42 484.01 238.46 484.86 240.07 503.85 249.99 503.05 248.42 484.01"/><polygon class="cls-7" points="246.55 462.57 236.59 463.38 238.19 482.36 248.11 481.56 246.55 462.57"/><rect class="cls-7" x="310.6" y="1281.4" width="19.08" height="9.96" transform="translate(-1047.9 758.05) rotate(-89.49)"/><rect class="cls-7" x="310.62" y="1259.14" width="19.08" height="9.96" transform="translate(-1025.63 736) rotate(-89.49)"/><rect class="cls-7" x="310.63" y="1236.88" width="19.08" height="9.96" transform="translate(-1003.35 713.95) rotate(-89.49)"/><rect class="cls-7" x="313.39" y="1214.2" width="19.08" height="9.96" transform="translate(-992.76 629.02) rotate(-86.45)"/><rect class="cls-7" x="315.74" y="1190.99" width="19.08" height="9.96" transform="translate(-967.39 609.6) rotate(-86.45)"/><rect class="cls-7" x="318.09" y="1167.85" width="19.07" height="9.96" transform="translate(-962.28 463.24) rotate(-80.4)"/><polygon class="cls-7" points="471.42 587.29 484.02 588.72 480.05 610.03 467.45 608.6 471.42 587.29"/><polygon class="cls-7" points="466.29 615.62 478.88 617.09 474.91 638.4 462.31 636.97 466.29 615.62"/><polygon class="cls-7" points="462.49 645.01 475.13 646.44 471.11 667.75 458.51 666.32 462.49 645.01"/><polygon class="cls-7" points="457.75 673.42 470.4 674.85 466.38 696.16 453.78 694.73 457.75 673.42"/><polygon class="cls-7" points="476.65 564.47 489.25 565.9 485.67 584.97 473.08 583.54 476.65 564.47"/><polygon class="cls-7" points="478.04 541.33 490.81 541.82 489.61 561.03 476.83 560.58 478.04 541.33"/><polygon class="cls-7" points="480.18 519.75 493 520.2 491.75 539.45 478.97 538.96 480.18 519.75"/><polygon class="cls-7" points="481.7 497.95 494.47 498.44 493.27 517.65 480.49 517.21 481.7 497.95"/><polygon class="cls-7" points="483.22 476.2 495.99 476.69 494.74 495.9 481.97 495.45 483.22 476.2"/><polygon class="cls-7" points="482.37 453.46 495.1 453.06 496.13 472.27 483.4 472.71 482.37 453.46"/><polygon class="cls-7" points="481.43 430.99 494.16 430.54 495.19 449.8 482.46 450.24 481.43 430.99"/><polygon class="cls-7" points="480.54 408.52 493.27 408.07 494.3 427.28 481.52 427.77 480.54 408.52"/><polygon class="cls-7" points="475.36 385.83 488.04 384.84 490.36 404.01 477.63 404.99 475.36 385.83"/><polygon class="cls-7" points="471.33 362.46 484.02 361.48 486.34 380.64 473.66 381.63 471.33 362.46"/><polygon class="cls-7" points="466.15 339.77 478.66 337.76 483.53 356.61 471.02 358.62 466.15 339.77"/><path class="cls-8" d="M312.45,1130.8c-59.95,63.62-27.61,225.77-15.24,290.46l23.9,35.51C307,1381.41,276.62,1217.73,312.45,1130.8Z" transform="translate(-78.85 -837)"/><path class="cls-9" d="M81.45,1255.79c-3.84-65.13,74.78-114,135.62-123.11s124.68-36.45,124.68-36.45l-45.39,174.62C296.41,1270.85,83.77,1295.24,81.45,1255.79Z" transform="translate(-78.85 -837)"/><path class="cls-8" d="M213.19,1145q15.74-9.59,31.31-17.51c-9.07,2-18.27,3.84-27.38,5.18-60.84,9.11-139.47,58-135.62,123.11.26,4.74,3.66,8.54,9.24,11.57C100.93,1233.06,147.92,1184.63,213.19,1145Z" transform="translate(-78.85 -837)"/><path class="cls-3" d="M296.41,1270.85c21.93-48.69,26.53-82.73,33.95-130.75-30.33,2.41-36.18,39.26-98.28,38.64-72.45-.72-120.21,50.74-140.76,89C133.49,1289.57,296.41,1270.85,296.41,1270.85Z" transform="translate(-78.85 -837)"/><path class="cls-10" d="M861.41,1530.26c-17.64-46.51-381.49,9.6-418.34,4.82S241.37,1255,178.57,1285c-36.86,17.64,78.53,319,184.31,370.28,83.18,40.34,154.88,5.54,182.75,6.43C649.85,1664.9,879.06,1576.71,861.41,1530.26Z" transform="translate(-78.85 -837)"/><path class="cls-11" d="M557.51,1650.6C298.6,1691.92,203.72,1391.73,220.78,1304a50.61,50.61,0,0,1,2.14-7.59c-17.33-11.93-32.61-17-44.31-11.35-36.85,17.64,78.53,319,184.31,370.28,83.18,40.34,154.88,5.54,182.76,6.43,46.63,1.43,118.29-15.45,181.63-38.68C679.47,1628.09,614,1641.58,557.51,1650.6Z" transform="translate(-78.85 -837)"/><path class="cls-12" d="M602.23,1619.87c-6.08-7.06-13.27-16.8-38.11-7.87,4,17.65-26.44,42.49-26.44,42.49,25.64,0,7.24,24,7.24,24,16.26-1.79,18.18,14.34,24.65,27.47C569.53,1706,642.34,1666.59,602.23,1619.87Z" transform="translate(-78.85 -837)"/><path class="cls-12" d="M291.32,1515.29c21.44-19.25,47.17,4.82,65.17,20.59-32.07,11.75-7.5,43.56-7.5,43.56-10.68,0-11.75,20.32-11.75,20.32-12.82-6.38-32.08-3.21-40.61,7.46C296.68,1607.18,249.64,1552.68,291.32,1515.29Z" transform="translate(-78.85 -837)"/><path class="cls-13" d="M687.6,1632.6S524,1701.39,509.76,1707c-54.54,15.1-24.7,30.73-55,30.24-23.14-14.29-50.21-49.76-32.7-59,5.81-3.08,20,17.69,36.5,10.23,25.1-11.35,9.56,4,36.72-6.39,80-30.6,197.58-72,197.58-72Z" transform="translate(-78.85 -837)"/><path class="cls-14" d="M548.58,1662.13a10.56,10.56,0,0,1,.94,1.87c5.36,15.32-27.39,28.37-67.32,37.75-20.6,4.82-39.05,7.73-52.85,7.28a69.41,69.41,0,0,0,25.42,28.23c30.29.49.49-15.14,55-30.24,14.29-5.63,177.84-74.42,177.84-74.42l5.22-22.56S619,1636.08,548.58,1662.13Z" transform="translate(-78.85 -837)"/><path class="cls-15" d="M569.62,1706.31S584,1689.06,581.81,1671c-3.66-30.87-30.46-34.4-30.46-34.4,32.3-8.66,32.65-17,12.95-25.86,30.34-1.88,268.84-118.92,297-84.3S747.5,1679.59,569.62,1706.31Z" transform="translate(-78.85 -837)"/><path class="cls-11" d="M817.5,1519.89c-1-4.6-27.47,2.82-86.21,24.62-46.6,17.28-136.3,52.35-135.31,57s92.29-22.24,140-36.14C788.15,1550.22,818.53,1524.49,817.5,1519.89Z" transform="translate(-78.85 -837)"/><path class="cls-11" d="M861.37,1526.46c-8.13-10-33.77-7.33-66.83,1.52-3.4,25.73-94,88.09-162.43,115.52-18,7.23-35.46,14.25-51.68,20.46a45.05,45.05,0,0,1,1.38,7.06c2.15,18.09-12.19,35.33-12.19,35.33C747.5,1679.59,889.56,1561.08,861.37,1526.46Z" transform="translate(-78.85 -837)"/><path class="cls-13" d="M304.14,1534.5S372.93,1670.57,380,1683c22.42,39.54-24.57,32.08-17.11,54.5H453.7c2.14-13.89-143.22-223.36-143.22-223.36Z" transform="translate(-78.85 -837)"/><path class="cls-14" d="M390.71,1658.77a209.14,209.14,0,0,1,39.53,34.71c-40.65-65.39-119.67-179.26-119.67-179.26l-6.39,20.32s31.18,61.69,53.74,105.79A218.72,218.72,0,0,1,390.71,1658.77Z" transform="translate(-78.85 -837)"/><path class="cls-15" d="M294.53,1607.18s-.53-22.43,12.29-35.25c21.89-21.89,44.89-8,44.89-8-19.79-26.85-14.92-33.6,5.9-28.32-22.43-20.33-135.71-260.22-179-250.61S172.71,1475.76,294.53,1607.18Z" transform="translate(-78.85 -837)"/><path class="cls-11" d="M294.62,1604.05a21.34,21.34,0,0,1-3.53-.76c1.16,1.3,2.28,2.59,3.44,3.84C294.53,1607.18,294.53,1606,294.62,1604.05Z" transform="translate(-78.85 -837)"/><path class="cls-11" d="M357.61,1535.57c-21.09-19.12-108.37-227.38-170.51-249.71,22.69,40,51.91,112,79.33,161,25.87,46.24,42.13,90.69,45.7,120.48a36.46,36.46,0,0,1,39.58-3.48C331.92,1537.05,336.79,1530.3,357.61,1535.57Z" transform="translate(-78.85 -837)"/><path class="cls-13" d="M161,1322.94c1.6,20.68,37.39-31,37.39-40.61C198.36,1282.33,156.68,1267.36,161,1322.94Z" transform="translate(-78.85 -837)"/><path class="cls-13" d="M323.57,1275c23.76,8.18,52.35,23.46,56.6,9,3.84-13-7.77-39.22-53.61-19.47Z" transform="translate(-78.85 -837)"/><path class="cls-13" d="M351.35,1259.55c-8.08,22.51,17.25,32,25.91,33,9.56,1.07,20-14.39,18.27-22.34S354.48,1250.93,351.35,1259.55Z" transform="translate(-78.85 -837)"/><path class="cls-13" d="M378.83,1261.82c11.75-6.74,22.24-20.45,18.89-24.3-3.79-4.37-10.81,9.12-22.64,12.51-12.78,3.71-20.64,6.75-19.75,12.06S367.12,1268.62,378.83,1261.82Z" transform="translate(-78.85 -837)"/><path class="cls-13" d="M403,1274.47c11.88,1.43,18.4-.63,18.4-3.84s-6.83-3.62-18.71-5.05-26.67-6.21-26.67-3S391.16,1273,403,1274.47Z" transform="translate(-78.85 -837)"/><path class="cls-13" d="M382.67,1284.92c11.39,1.12,18.27-2.32,18.23-5.49s-6-4.92-17.43-6-20.14,1.16-20.05,4.33S371.28,1283.76,382.67,1284.92Z" transform="translate(-78.85 -837)"/><path class="cls-13" d="M378.47,1292.92c11.12,2.5,14.16-1.48,14.56-4.61s-4.55-2.18-15.72-4.69-18.94-4.06-19.3-.89S367.35,1290.41,378.47,1292.92Z" transform="translate(-78.85 -837)"/><path class="cls-9" d="M334.07,1219.25s-43.29-4.82-59.33-9.6-96.17-41.68-128.25-38.46-57.71,20.86-67.32,75.31,200.71,75.63,235.33,61.2C325.94,1303,358.1,1225.69,334.07,1219.25Z" transform="translate(-78.85 -837)"/><path class="cls-8" d="M227.88,1227.74c3.71-15.54-9-33.1-31.36-47.22-19.47-6.21-34.84-15.14-46.77-13.93-30,3-57.58,23.22-68.48,69.91A186.3,186.3,0,0,0,122,1251.24C174.41,1263.7,221.81,1253.2,227.88,1227.74Z" transform="translate(-78.85 -837)"/><path class="cls-9" d="M757.15,1212.33c-22,19.92-108.95,79.2-122.53,117.4-9.47,26.71-25.51,16.57,4.69,62.27s168.77-79.74,170-119.19C810.26,1240.56,774.08,1201.92,757.15,1212.33Z" transform="translate(-78.85 -837)"/><path class="cls-3" d="M773.9,1213.58c1.43,19-20.41,51.73-55.17,80-32.16,26.22-65.71,40.83-85.1,38.73-9.51,23.45-23.49,15.54,5.68,59.68,30.2,45.7,168.77-79.74,170-119.19C810,1249.23,790.88,1222.29,773.9,1213.58Z" transform="translate(-78.85 -837)"/><path class="cls-16" d="M327.68,1172.26c-21.71,2.59-82.2-56.64-34.53-96.18s121.1-47,153.36-43.82S577.62,1055.8,597,1091.05c6.79,12.37-11.39,79.06-44.9,86.57-25.19,5.63,15-83.36-124-87.65C317,1086.53,354.75,1169,327.68,1172.26Z" transform="translate(-78.85 -837)"/><path class="cls-17" d="M327.68,1172.26c-21.71,2.59-47.53-52.31.13-91.85s86.44-51.37,118.7-48.15S577.62,1055.8,597,1091.05c6.79,12.37-11.39,79.06-44.9,86.57-25.19,5.63,15-83.36-124-87.65C317,1086.53,354.75,1169,327.68,1172.26Z" transform="translate(-78.85 -837)"/><polygon class="cls-15" points="359.97 694.33 367.43 730.64 382.39 730.64 392 697.5 359.97 694.33"/><path class="cls-5" d="M525.44,1163.68c5.4-24.79-28.32-55-75.36-67.41s-89.57-2.41-95,22.38,28.32,55,75.36,67.41S520,1188.52,525.44,1163.68Z" transform="translate(-78.85 -837)"/><path class="cls-14" d="M516.37,1161.31c4.24-19.87-26.4-45-68.39-56.1s-79.52-4-83.76,15.86,26.4,45,68.39,56.15S512.13,1181.19,516.37,1161.31Z" transform="translate(-78.85 -837)"/><path class="cls-14" d="M381.37,1035.74s8.05,48.07,4.83,69.73c0,0,41.68,20.82,54.5,17.65s-.81-75.36-.81-75.36Z" transform="translate(-78.85 -837)"/><path class="cls-18" d="M510.12,1344.24c-10.14,9.21,60.21,245.56,63.39,246.1S892.68,1503,905.28,1492,854.49,1262.23,849,1262.23C807.9,1262.09,530.35,1325.84,510.12,1344.24Z" transform="translate(-78.85 -837)"/><path class="cls-19" d="M710.38,1495.05c-73.4-3.88-138-26.13-180.25-57.93,18.09,68.7,43.2,150.72,45.07,151,3.13.49,315-86.22,327.4-97,3-2.59,1.61-17.06-2.23-37.48C855,1482.59,786.32,1499.12,710.38,1495.05Z" transform="translate(-78.85 -837)"/><path class="cls-3" d="M79.22,1246.5c-9.61,54.5,200.71,75.63,235.33,61.2,6.65-2.77,20.5-30.55,25.95-54.36C177.23,1334.24,79.22,1246.5,79.22,1246.5Z" transform="translate(-78.85 -837)"/><path class="cls-16" d="M570.29,1147.73c4.51-16.21,3-30.82-3.49-32.61S551.48,1125,547,1141.26s-2.95,30.82,3.48,32.61S565.78,1164,570.29,1147.73Z" transform="translate(-78.85 -837)"/><path class="cls-20" d="M299,1107.89c-10.4,51.15,58.12,108.28,153.09,127.62,70.32,14.34,135.4,3.85,168.68-23.31-.35-.27-.67-.59-1-.85-17.47-14.21-34-30.65-48.12-45.88,18.05-19.08,27.92-54.28,26.54-69.29-27.34-20.37-65.09-37.07-108.42-45.87C394.86,1031,309.45,1056.74,299,1107.89Z" transform="translate(-78.85 -837)"/><path class="cls-13" d="M338.36,978.79s92.78,122.35,118.6,130.44,41.94-.49,54.5-16c9.42-11.7,31.8-48.6,19.74-80.5-6.39-40.47-25.64-86-28.86-106C399,833.78,285.55,889,338.36,978.79Z" transform="translate(-78.85 -837)"/><path class="cls-14" d="M531.2,1012.69c-6.39-40.47-25.64-86-28.86-106-103.41-73-226.39-28.54-173.63,61.2,0,0,33.5,31.18,34.08,32,71.74-51.87,60.08-.94,89.52-10,34.8-10.68,22.83-86.44,46.91-11.35,12.1,37.79,13.85,90.15,8.22,119.09,1.38-1.43,2.68-2.9,4-4.51C520.93,1081.49,543.26,1044.54,531.2,1012.69Z" transform="translate(-78.85 -837)"/><path class="cls-21" d="M543.31,1031.86c-1.48-7.28-19.75-56.24-23.28-65.85-1.92,11.93,3.49,31.81-10.4,38.46-18,8.67-58.52,11.22-76.12,1.08-19.53-11.26-82.56-65.67-104.22-92-7.42,17.64-5.68,40.11,9.11,65.22,0,0,89.07,129.63,114.89,137.72a58.54,58.54,0,0,0,13.81,2.41c10.27,1.74,23.14,2,36.85.22,31.85-4,38.42-16.21,39.31-23.36,1.16-8.93-.22-14.47-3.88-17.73C544.42,1066.88,547.42,1052.09,543.31,1031.86Z" transform="translate(-78.85 -837)"/><polygon class="cls-22" points="309.58 192.04 339.42 158.63 283.31 103.95 256.29 111.77 309.58 192.04"/><path class="cls-22" d="M543.31,1031.86c-1.48-7.28-19.75-56.24-23.28-65.85-1.92,11.93,3.49,31.81-10.4,38.46-1.88.9-24.4,3.89-26.67,4.65,6.3,17.06,53.29,20.59,35.51,27.7-20.06,8,3.17,77-14.92,82.32a1.36,1.36,0,0,0,.4,0c31.85-4,38.42-16.22,39.31-23.36,1.16-8.94-.22-14.48-3.88-17.74C544.42,1066.88,547.42,1052.09,543.31,1031.86Z" transform="translate(-78.85 -837)"/><path class="cls-23" d="M385.35,1047.22c-23.77,24.44-66.2-30-73.75-54.5-22.43-73.21,37-93,43.42-88.76S441,990,385.35,1047.22Z" transform="translate(-78.85 -837)"/><path class="cls-24" d="M374.05,1049.14c-3.35-11.39-11.35-23.27-23.14-32.78-11.53-9.3-24.48-14.57-36.1-15.59C324.69,1022,348.94,1049.23,374.05,1049.14Z" transform="translate(-78.85 -837)"/><path class="cls-13" d="M486.26,1009.34c8,.27,19,9.61,32.88,1.48s-34.8-63.48-34.8-63.48Z" transform="translate(-78.85 -837)"/><path class="cls-25" d="M454.64,871.08l-1,.59L406.48,837s-81.12,25.46-98.05,54.54c-4.38,7.51-2.77,44.54-1.43,65.54L303.69,959,260,1005,549,862.28Z" transform="translate(-78.85 -837)"/><path class="cls-26" d="M476.3,1050.26l-3.8-2c15-25.86,53.16-24.61,54.77-24.52l-.18,4.15C526.78,1027.84,490,1026.63,476.3,1050.26Z" transform="translate(-78.85 -837)"/><path class="cls-23" d="M467.41,923.08c-14.65,11.53-38.55,32.39-50.21,35,0,0-9.51,11,1.74,10.9,10-.13,39.05-21.53,53.65-32.74Z" transform="translate(-78.85 -837)"/><path class="cls-23" d="M513.11,909.77s-18.14-.09-32.43,5.36l5,12.69c12.29-5.14,28.5-6.3,28.5-6.3Z" transform="translate(-78.85 -837)"/><path class="cls-26" d="M474.38,1047.49c-2.14-2.54-2-5.76-3.89-4.15s-1.65,4.91.54,7.46,5.45,3.3,7.28,1.74S476.57,1050,474.38,1047.49Z" transform="translate(-78.85 -837)"/><path class="cls-14" d="M364.76,982.85c-22.7-1.43-21.09,7.1-21.09,21.31s20.15,30.78,38.15,25.11S379.9,983.79,364.76,982.85Z" transform="translate(-78.85 -837)"/><path class="cls-27" d="M367.08,991.52c-14.7-.94-13.67,4.6-13.67,13.8s13,20,24.75,16.31S376.91,992.14,367.08,991.52Z" transform="translate(-78.85 -837)"/><path class="cls-14" d="M377.13,998.4c-6.3-.4-5.9,2-5.9,5.94s5.63,8.58,10.64,7S381.33,998.67,377.13,998.4Z" transform="translate(-78.85 -837)"/><path class="cls-13" d="M501.63,1006c0-5.36-8.44-7.24-11.84-7.24s-6.16,4.33-6.16,9.69,3.7,6.61,7.1,6.61S501.63,1011.4,501.63,1006Z" transform="translate(-78.85 -837)"/><path class="cls-28" d="M445.61,967.4l20.51-11S466.61,976.2,445.61,967.4Z" transform="translate(-78.85 -837)"/><path class="cls-28" d="M508.29,941.71l-15.15,4.6C493.19,946.36,503.1,961.63,508.29,941.71Z" transform="translate(-78.85 -837)"/><path class="cls-21" d="M531.6,1080.15c-.8-3.62-8.13-5.14-16.35-3.35s-14.29,6.21-13.49,9.82,8.13,5.14,16.35,3.35S532.36,1083.76,531.6,1080.15Z" transform="translate(-78.85 -837)"/><path class="cls-29" d="M454.64,871.08l-1,.59L406.48,837s-10.5,3.31-24.75,8.89a36.28,36.28,0,0,1,5.81,8.76c17.78,37.61-31.32,98.14-109.71,135.22-2.06,1-4.16,1.92-6.21,2.85l-11.71,12.33L549,862.37Z" transform="translate(-78.85 -837)"/><polygon class="cls-30" points="221.49 109.85 369.26 18.94 387.26 30.29 218.67 126.91 221.49 109.85"/><path class="cls-31" d="M373.82,909a124.47,124.47,0,0,1-10.54,17.24l102.79-58.92-18-11.35-69.78,42.93A99.91,99.91,0,0,1,373.82,909Z" transform="translate(-78.85 -837)"/><path class="cls-14" d="M418.27,1723.06v14.56H442.8S421.49,1734.81,418.27,1723.06Z" transform="translate(-78.85 -837)"/><path class="cls-8" d="M319.91,1252.67c-1-4,6.43-22.87-15.06-17.47s-63.79,32.92-62.81,36.94,19.26,2.91,40.74-2.5S320.89,1256.64,319.91,1252.67Z" transform="translate(-78.85 -837)"/><path class="cls-13" d="M804.9,1254.68c-6.56,4.64-21.8,8.49-27.65-5.68C761.62,1211.12,826.52,1242.84,804.9,1254.68Z" transform="translate(-78.85 -837)"/><path class="cls-13" d="M775.78,1236.72c16.79-13.36,32.21,5.81,35.56,13,3.7,8-6.44,21.35-13.67,22.16S769.35,1241.86,775.78,1236.72Z" transform="translate(-78.85 -837)"/><path class="cls-13" d="M785.65,1259.81c-2.37,12.07-10.94,25-15.23,23.23-4.83-2,4.64-11.92,4.11-23.14-.54-12.06-.23-19.74,4.51-20.5S788,1247.75,785.65,1259.81Z" transform="translate(-78.85 -837)"/><path class="cls-13" d="M801.46,1275.14c4.25,9.29,4.25,15.23,1.52,16.17s-4.82-4.47-9.07-13.76-12.06-19.88-9.38-20.86S797.18,1265.89,801.46,1275.14Z" transform="translate(-78.85 -837)"/><path class="cls-13" d="M812.36,1268.44c6.26,8.31,7.69,18.4,5.27,19.88s-6.2-7.64-12.5-15.91-9.79-14.07-7.33-15.5S806.11,1260.13,812.36,1268.44Z" transform="translate(-78.85 -837)"/><path class="cls-13" d="M816.29,1255.75c5.9,8.58,7.11,14.74,4.61,16.13s-5.23-5.05-11.08-13.63-9.83-14.61-7.37-16S810.44,1247.17,816.29,1255.75Z" transform="translate(-78.85 -837)"/><path class="cls-32" d="M581.37,1431a.54.54,0,0,0,0-.45c-.14-.09-.14-.17-.09-.26a.75.75,0,0,1,.13-.5,1.27,1.27,0,0,1-.13-1,2,2,0,0,1,0-.89l-.31-1.07a2,2,0,0,0,0-1,2.89,2.89,0,0,0,.18-.49.81.81,0,0,0,0-.45,4.21,4.21,0,0,1,0-1.16l-.27-1.07c0-.18.09-.4.09-.63v-1l-.36-1.2a.86.86,0,0,1,.14-.63,1.32,1.32,0,0,1-.18-.89,1.17,1.17,0,0,0-.18-.89c.09-.32.22-.63.31-.94a4.4,4.4,0,0,1,0-1,4.84,4.84,0,0,1-.13-.94,3.84,3.84,0,0,0-.05-.8,4.24,4.24,0,0,0,.23-.58,2.53,2.53,0,0,1,.22-.58,1.18,1.18,0,0,0-.09-.36.35.35,0,0,1,.05-.36v-.44a.85.85,0,0,1,.17-.36l-.17-.67.22-.81.09-.76a.82.82,0,0,1,0-.49,1.19,1.19,0,0,0,0-.53,3.34,3.34,0,0,1,.09-.76l-.23-.85a2.91,2.91,0,0,1,0-.85c.05-.4.05-.76.09-1a2.2,2.2,0,0,0,.14-1.07c.09,0,.13-.18.18-.49a1.12,1.12,0,0,1,.13-.63l-.18-.58c0-.09,0-.18,0-.26a.51.51,0,0,1,.14-.32,1.16,1.16,0,0,1-.23-.76c.05-.22.09-.53.14-.76a3,3,0,0,1,.22-.58l-.27-1.11a3.4,3.4,0,0,1,.18-.94l-.22-.85a1.86,1.86,0,0,0,.09-.67,1.65,1.65,0,0,1,.09-.67,2.51,2.51,0,0,0,.09-.72,1.69,1.69,0,0,1,.09-.67,2.06,2.06,0,0,1-.05-.8,1.32,1.32,0,0,0-.22-.76c0-.09,0-.22,0-.4a1,1,0,0,0,0-.36l-.36-1.79a4.52,4.52,0,0,1,.94-1.43l1.34-.49a2.53,2.53,0,0,0,.85.23,2.7,2.7,0,0,1,.85.22l.8,2.41a5.41,5.41,0,0,1,.67,1.43,1.15,1.15,0,0,0,.22.36.63.63,0,0,1,.23.36c0,.09.13.13.26.22s.27.13.27.22a.4.4,0,0,0,.14.27.38.38,0,0,1,.13.27c.36.31.58.49.58.58l.27.94a3.55,3.55,0,0,0,.8.8l.18.67a1.11,1.11,0,0,0,.23.36l.17.09a1.13,1.13,0,0,0,.32.85,1.35,1.35,0,0,1,.31.85.94.94,0,0,0,.36.18.58.58,0,0,0,.09.26,2.8,2.8,0,0,0,.53.9l.31,1.07a1,1,0,0,0,.23.31.66.66,0,0,1,.22.31c0,.09.18.45.45,1.08l.27,1.07a1.17,1.17,0,0,0,.44.62,1.22,1.22,0,0,0,.27.5.34.34,0,0,1,.22.22l.23.8a5.3,5.3,0,0,1,.53,1,1.53,1.53,0,0,1,.41.4.84.84,0,0,0,.4.4l.18.67a.66.66,0,0,0,.31.4c.18.14.27.23.27.31l.27.94c0,.09.13.18.31.32s.27.17.27.26a3.42,3.42,0,0,0,.53.94,2.16,2.16,0,0,1,.54.94,2.79,2.79,0,0,1,.89,1.07l.81.81.22.8.62.71c.05.09.14.27.27.5a2.77,2.77,0,0,1,.36.76.39.39,0,0,0,.22.22c.09.09.18.13.23.22l.31,1.07a1.5,1.5,0,0,0,.31.36,3.08,3.08,0,0,0,.45.31l.31,1.21c.27.63.45,1.07.54,1.34,0,.09.09.18.22.31a1.22,1.22,0,0,1,.22.32l.36,1.2.4.94-.13-1a2.1,2.1,0,0,0,.09-.67,1.84,1.84,0,0,1,.09-.67,1.1,1.1,0,0,1,.13-.63.67.67,0,0,1,.14-.49,3.24,3.24,0,0,1-.09-.85l-.23-.8a1.7,1.7,0,0,1,.09-.76l-.31-1.07v-1.16c.09-.41.13-.72.18-.94a2,2,0,0,1,0-1,2.63,2.63,0,0,1,0-1,1.28,1.28,0,0,1,.09-.76,2.74,2.74,0,0,1-.09-.85,3.51,3.51,0,0,0,0-.71,1.86,1.86,0,0,0,.09-.67,3.74,3.74,0,0,1,.09-.85,1.08,1.08,0,0,1-.18-.76,6.12,6.12,0,0,0-.09-.94,8.41,8.41,0,0,0,.36-.8c-.14-.18-.14-.67,0-1.48a4.71,4.71,0,0,1,.14-1.65l-.18-.67a.88.88,0,0,1,.09-.76,1.7,1.7,0,0,1,0-.71,1.31,1.31,0,0,0-.22-.81c.09,0,.13-.17.13-.44l-.22-.85.36-.81a1.52,1.52,0,0,1,0-.89c-.09-.36-.09-.54,0-.58,0-.58.09-.89.18-.94a4.67,4.67,0,0,0-.18-.67,1.48,1.48,0,0,1,0-.58c.09-.31.13-.58.18-.8,0-.9,0-1.39,0-1.48.09-.31.18-.49.27-.53a9.28,9.28,0,0,1,.22-1.39l-.13-.53a3.23,3.23,0,0,0-.09-1.88c.09,0,.13-.09.13-.27v-1.38c0-.09,0-.23,0-.45a2.09,2.09,0,0,0,0-.45l-.31-1.07c0-.18.09-.49.18-.94s.13-.71.18-.93a1.37,1.37,0,0,0,.4-.18,1.44,1.44,0,0,0,.31-.18s.09,0,.18-.14a.66.66,0,0,1,.27-.13l.8-.22.72,0a2.73,2.73,0,0,1,.76.81,6.08,6.08,0,0,0,.58.84,2.08,2.08,0,0,1,.17,1.43,3.44,3.44,0,0,0,0,1.3.88.88,0,0,1-.22.67,1.64,1.64,0,0,1,0,1.16l.18.67a1.47,1.47,0,0,0,0,.67,1.32,1.32,0,0,1-.14.85c.14.13.09.63,0,1.47a2.66,2.66,0,0,1,0,.59c-.05.22-.14.58-.23,1.07a3.35,3.35,0,0,1-.35,1.11,3.07,3.07,0,0,1,.08.85,1.5,1.5,0,0,0,0,.58,1.09,1.09,0,0,0-.18.49.81.81,0,0,0,0,.45,2.34,2.34,0,0,1,0,.45.63.63,0,0,0,0,.44l.13.54a2.77,2.77,0,0,0-.13.63,1.48,1.48,0,0,1-.14.62l.18.67a3.93,3.93,0,0,0-.09,1,2.47,2.47,0,0,1-.18,1.17c.14.13.18.35.14.71a1.12,1.12,0,0,0,.18.85c-.09.36-.23.67-.32,1l.27,1a2.48,2.48,0,0,0,0,1.75,2.2,2.2,0,0,0-.18.71,2.15,2.15,0,0,0,0,.81,5.16,5.16,0,0,1-.18,1.51,1.55,1.55,0,0,1,.18.9.94.94,0,0,0,.13.76c-.09.4-.18.76-.27,1.07l.18.71c0,.09,0,.27-.09.54a.86.86,0,0,0,0,.67.94.94,0,0,1-.31.54,4.2,4.2,0,0,1,0,.8,1.78,1.78,0,0,0,.23.89.54.54,0,0,1-.05.36c0,.18-.09.27,0,.36l.31,1.07c0,.31,0,.54-.09.76s.09.58,0,.58a5.13,5.13,0,0,1-.36,1.83l.32,1.12a5.08,5.08,0,0,0,.18,1.7,3.76,3.76,0,0,0-.14,1.65,1.26,1.26,0,0,0-.31.89c-.09.45-.14.81-.18,1a4.12,4.12,0,0,1,0,1.47,2.27,2.27,0,0,1,0,.63,3.71,3.71,0,0,1-.09.84,2.27,2.27,0,0,0-.22.81,3.14,3.14,0,0,0-.58.58c-.23.27-.36.45-.45.53l-1.21.36a5.68,5.68,0,0,1-2-.76c-.27-.58-.49-1-.63-1.29l-.44-1.66c0-.08-.09-.17-.23-.26s-.22-.23-.22-.32a12.82,12.82,0,0,0-.89-1.65l-.45-1.61a1.21,1.21,0,0,0-.22-.35,1,1,0,0,1-.27-.5.39.39,0,0,0-.23-.22.57.57,0,0,1-.22-.22l-.31-1.07c0-.09-.09-.18-.22-.32s-.23-.22-.23-.31l-.58-2.05a4.61,4.61,0,0,0-.27-.45.55.55,0,0,1-.13-.49c-.14,0-.22-.18-.4-.32a.93.93,0,0,1-.27-.53,5.62,5.62,0,0,1-.36-.76,4.26,4.26,0,0,1-.53-.89,1.68,1.68,0,0,1-.5-.76,1.07,1.07,0,0,0-.22-.32,1.42,1.42,0,0,0-.36-.26,5.78,5.78,0,0,0-.18-.67,10.79,10.79,0,0,1-1-1.12,8.68,8.68,0,0,1-.9-1.16l-.17-.67a4.65,4.65,0,0,1-.63-.94,2.64,2.64,0,0,0-.76-.89,3.2,3.2,0,0,0-.36-.81.79.79,0,0,1-.18-.67c-.09,0-.22-.13-.35-.18a.59.59,0,0,1-.27-.22,2.14,2.14,0,0,0-.31-.27c-.14-.09-.23-.18-.23-.31l-.31-1.07a.58.58,0,0,0-.22-.27c-.14-.14-.23-.23-.23-.31a3.81,3.81,0,0,0-.67-1.43l-.44-1.61c0-.09-.09-.18-.23-.23a1.41,1.41,0,0,0-.35-.17l-.54-.9-.76-2.72a11,11,0,0,0-.89-1.07,5.55,5.55,0,0,0-.36-.81,2.13,2.13,0,0,1-.31-1.07.41.41,0,0,0,0,.45c0,.31,0,.53-.14.62l.14.54a1.65,1.65,0,0,0-.18.71,2.15,2.15,0,0,0,0,.81,12,12,0,0,0-.09,1.34,1.42,1.42,0,0,0-.18.49c0,.18-.09.31-.18.36l.18.67a13.5,13.5,0,0,1-.13,1.65,1.78,1.78,0,0,1,0,.44c0,.23-.09.32-.18.36l.23.81a1.73,1.73,0,0,1-.09.76,1.2,1.2,0,0,0,.09.35,2.09,2.09,0,0,0,.09.36,1,1,0,0,0-.14.58,3.29,3.29,0,0,1-.13.54c-.09,0-.09.22,0,.58a1.84,1.84,0,0,0-.09.67,1.86,1.86,0,0,1-.09.67l.22.8c-.09.72-.18,1.16-.22,1.39a6.4,6.4,0,0,1-.36,1.43l.22.8a1.74,1.74,0,0,1-.17.94l.13.53a2.35,2.35,0,0,0-.09.76,1.51,1.51,0,0,1-.09.76l.22.81a1,1,0,0,1,0,.53,1.42,1.42,0,0,0,0,.36.54.54,0,0,1,0,.36c0,.18-.08.31,0,.36l.31,1.11a8.58,8.58,0,0,0,.18,1.12,3.67,3.67,0,0,0-.18,1.52.82.82,0,0,1-.13.62,1.83,1.83,0,0,1,0,.72l.27.94a1.17,1.17,0,0,1,0,.35,1.43,1.43,0,0,0,0,.41l.31,1.07a2.4,2.4,0,0,0-.08.67c0,.36,0,.62,0,.85l.13.53c-.13.63-.22.94-.31.94l.14.54a4.44,4.44,0,0,0-.09,1,5.16,5.16,0,0,1-.09,1l.18.67a1.36,1.36,0,0,1-.36.81.52.52,0,0,1,.13.49c0,.18-.09.27,0,.36a1.73,1.73,0,0,1-.09.76l.22.8a7.85,7.85,0,0,0-.27,1.7.79.79,0,0,1-.44.53,1.43,1.43,0,0,0-.45.45l-1,.27c-.49.13-.8.18-.93.09a.78.78,0,0,1-.41-.18c-.18-.14-.35-.22-.44-.31s-.23-.45-.18-.54l-.58-.58a2,2,0,0,0-.36-.63.75.75,0,0,1-.27-.67,3,3,0,0,1-.31-.26,2.31,2.31,0,0,1-.18-.32c-.13-.53-.31-1.11-.49-1.78a1.71,1.71,0,0,1-.31-.27,2.31,2.31,0,0,1-.18-.32l-.27-.93a5.55,5.55,0,0,1-.67-1.43,1.24,1.24,0,0,0-.22-.36,1,1,0,0,1-.27-.49l-.58-.54a19.18,19.18,0,0,0-1-1.65l-.22-.8c0-.09-.09-.18-.14-.27s-.09-.14-.13-.18-.09-.09-.18-.18a.42.42,0,0,1-.22-.18.44.44,0,0,0-.14-.22.66.66,0,0,1-.13-.27s0-.09-.14-.18a.92.92,0,0,1-.13-.18,1.44,1.44,0,0,0-.09-.31l-.13-.54a1.21,1.21,0,0,0-.41-.31c-.22-.13-.35-.27-.35-.31-.09-.27-.23-.58-.41-1s-.35-.72-.44-1c0-.09-.09-.17-.23-.31s-.22-.22-.22-.31a2.39,2.39,0,0,0-.53-1.34l-.27-.94a.28.28,0,0,0-.18-.22.47.47,0,0,1-.22-.23c0-.09-.14-.18-.27-.22a.41.41,0,0,1-.27-.22,6.32,6.32,0,0,1-.54-.81,5,5,0,0,1-.35-.71,1.91,1.91,0,0,0-.14-.31.57.57,0,0,0-.31-.27l-.14-.54-.4-.94c-.13-.18-.31-.4-.49-.67a3.75,3.75,0,0,0-.49-.67l-.22-.85c-.32-.49-.72-.93-1.12-1.43l-.22-.8c-.23-.22-.41-.4-.41-.49a1,1,0,0,0-.44-.58l-.18-.67a1.39,1.39,0,0,0-.27-.36c-.09.05-.13,0-.18-.09a1.14,1.14,0,0,0-.31-.8.93.93,0,0,1-.27-.81c-.13,0-.22-.18-.31-.26a.61.61,0,0,1-.13-.32,3.93,3.93,0,0,0-.68-1.43l-.26-.94c0-.08-.09-.17-.23-.31s-.22-.22-.26-.36a1.07,1.07,0,0,0-.23-.35.69.69,0,0,1-.22-.32l-.36-1.34a3.13,3.13,0,0,0-.45-.62,2.19,2.19,0,0,1-.58-1c0-.09-.09-.18-.22-.22l-.36-.23a1.66,1.66,0,0,0-.53-.89l-.18-.67a10.64,10.64,0,0,1-1.52-3.39c0-.18.09-.45.13-.67a1.08,1.08,0,0,1,.14-.58,3.15,3.15,0,0,1,1.65-1,1.51,1.51,0,0,0,.58.13,3.5,3.5,0,0,0,.67,0c.36.27.58.49.58.58a2,2,0,0,0,.72,1l.18.67a.94.94,0,0,0,.22.31,1,1,0,0,1,.27.32l.18.67a1,1,0,0,0,.13.31,1.26,1.26,0,0,1,.22.45c.18,0,.32.09.41.49a3.31,3.31,0,0,0,.93,1.2,3.06,3.06,0,0,0,.32.72,1.78,1.78,0,0,1,.26.89c.09,0,.18.05.36.18a1.64,1.64,0,0,1,.31.49c0,.09.14.22.32.45a1.36,1.36,0,0,1,.31.4,6.28,6.28,0,0,0,.89,2.23l.32,1.08a11.12,11.12,0,0,1,.62,1.16.56.56,0,0,0,.18.31c.09.13.18.18.27.13s0,.23.09.41a1.42,1.42,0,0,1,.4.93,4,4,0,0,1,.4.41,2.25,2.25,0,0,1,.27.44,4.51,4.51,0,0,0,.63.72,1,1,0,0,0,.26.8c.23.23.32.45.23.67a.36.36,0,0,1,.26.14c0,.13.14.22.18.31l.23.8c.13.09.35.32.76.67l.22.81a.74.74,0,0,0,.27.35l.18.09a2.28,2.28,0,0,0,.31.63.86.86,0,0,1,.18.67,2,2,0,0,1,.71.76c.23.36.45.62.58.8a4.88,4.88,0,0,0,.4,1,2.78,2.78,0,0,1,.41,1,.94.94,0,0,0,.22.31.66.66,0,0,1,.22.31l.27,1a1.81,1.81,0,0,0,.49.67l.63.62.22.81.27.44c.13.23.22.4.31.58a1.91,1.91,0,0,1,.45.54,3.9,3.9,0,0,1,.36.71l.22.81c.09,0,.22.09.36.31s.27.4.27.49.13.23.31.36a.92.92,0,0,1,.31.36l.18.67a.41.41,0,0,0,.31.35c.18,0,.27.14.27.23l.45.62Z" transform="translate(-78.85 -837)"/><path class="cls-32" d="M639.93,1370l.09-.17a5.26,5.26,0,0,1,1.48,0l1.92-.54a.51.51,0,0,1,.35,0c.18,0,.32.09.41,0l.67-.17a1.69,1.69,0,0,0,.76.08l.8-.22a.8.8,0,0,0,.58.05,1.29,1.29,0,0,1,.63,0,1.1,1.1,0,0,0,.58,0,2.39,2.39,0,0,1,.62,0,16.7,16.7,0,0,0,2.15.31.84.84,0,0,1,.53.32c.18-.05.45-.14.85-.23,1.25.72,2,1.16,2.23,1.3,0,.09.14.13.32.13a1.12,1.12,0,0,1,.44.09c.09.09.27.18.5.4s.31.32.31.41a2.1,2.1,0,0,1,1.12.49,7.07,7.07,0,0,0,1.11.67,1.31,1.31,0,0,1,.27.35,2.06,2.06,0,0,1,.76.45,1.3,1.3,0,0,0,.62.36.94.94,0,0,0,.36.49.94.94,0,0,1,.36.49,2.84,2.84,0,0,1,1.21.67,1.42,1.42,0,0,0,.62.14,24.13,24.13,0,0,1,1.83,2l1.57.89a.38.38,0,0,0,.22.23.2.2,0,0,1,.09.27,8.9,8.9,0,0,1,1,1c.4.4.67.71.81.85a1.28,1.28,0,0,0,.31.49c.13.27.27.53.36.76a3,3,0,0,1,.44.58,3.66,3.66,0,0,0,.45.62l.76,2.86a1.58,1.58,0,0,0,.44.63l.45,1.65c0,.09.09.18.22.31a.47.47,0,0,1,.23.32,3.78,3.78,0,0,1,.09,1.56,2.45,2.45,0,0,0,.22.54c.09.18.13.31.18.4a4.06,4.06,0,0,1,.09.85l.94,3.53c-.09,0-.18.13-.23.26a1.42,1.42,0,0,0,0,.36,2.25,2.25,0,0,1-.27.67v.58a.93.93,0,0,0,.18.67,4.65,4.65,0,0,0,0,1.92,1,1,0,0,0-.26.67.79.79,0,0,1-.14.5c0,.08,0,.26-.09.53a1.77,1.77,0,0,0,0,.67,1.68,1.68,0,0,0-.36.76,5.64,5.64,0,0,1-.22.72l-.09.75c-.09.09-.14.27-.27.45a.73.73,0,0,0,0,.54,2.49,2.49,0,0,0-.54,1.34,3.06,3.06,0,0,0-.31.49,1.29,1.29,0,0,1-.49.45,2.48,2.48,0,0,1-.36,1.43.28.28,0,0,0-.18.22,3.05,3.05,0,0,1-.13.31c0,.09,0,.18-.05.31s-.09.23,0,.32-.18.31-.41.62-.4.49-.58.54a7.92,7.92,0,0,1-.85,1.7c-.49.8-.8,1.43-1.07,1.92a1.89,1.89,0,0,1-.44.26s-.09.09-.09.23a.28.28,0,0,1-.14.27,6.77,6.77,0,0,0-1.16,1.07,5,5,0,0,0-1.43,1.25,9.86,9.86,0,0,0-.89.53l-.67.18a1.59,1.59,0,0,1-1.16.63c-.09,0-.18.09-.32.22a.45.45,0,0,1-.31.23,2.29,2.29,0,0,0-1.3.62l-1,.27c-.09,0-.18.09-.31.22a.45.45,0,0,1-.31.23,1.45,1.45,0,0,0-.9.4l-1.47.4a1.34,1.34,0,0,1-.58,0c-1.07.31-3,.8-5.59,1.52a.52.52,0,0,1-.35,0,1.43,1.43,0,0,0-.41,0l-1.2.36a9.44,9.44,0,0,0-1.3,0,.89.89,0,0,1-.76-.09c-.35.09-.58.14-.62.09a2.89,2.89,0,0,0-.76-.13,3.39,3.39,0,0,1-1-.32,2,2,0,0,1-1,0c0-.08-.08-.13-.17-.13l-.14.05a3.34,3.34,0,0,0-.76-.09c-.36-.27-.62-.5-.71-.54a1.1,1.1,0,0,0-.31-.31.6.6,0,0,1-.32-.41,3.29,3.29,0,0,0-.62-.08,1.66,1.66,0,0,1-.49-.18,11.65,11.65,0,0,0-.94-.76c-.54-.23-.85-.45-.9-.63a1.71,1.71,0,0,1-.8-.22c-.09-.36-.18-.58-.18-.67a.43.43,0,0,0-.31-.36,1.38,1.38,0,0,1-.4-.18,6,6,0,0,1-.63-.27c-.31-.31-.45-.53-.45-.62s-.26-.09-.58-.45a10.79,10.79,0,0,0-1.74-1,1,1,0,0,0-.31-.36.94.94,0,0,1-.36-.49l-.67-.49a2.06,2.06,0,0,0-.76-.45.9.9,0,0,0-.53-.58c-.27-.13-.45-.27-.5-.44a1.1,1.1,0,0,1-.26-.5c-.9-1-1.39-1.56-1.48-1.65a.69.69,0,0,0-.27-.58,1.28,1.28,0,0,1-.35-.54c-.36-.17-.54-.31-.54-.44a2.59,2.59,0,0,1-.36-.27.4.4,0,0,0-.35-.13,2.4,2.4,0,0,0-.45-.58,10,10,0,0,0-.85-2,2,2,0,0,0-.27-1,7.08,7.08,0,0,1-.4-1,5.48,5.48,0,0,1,0-.94,3.64,3.64,0,0,0-.09-1.07,1.3,1.3,0,0,0,.09-.63l-.5-1.74c0-.67,0-1.07-.13-1.11a5.43,5.43,0,0,0,.13-.54c0-.22,0-.45,0-.54a1.93,1.93,0,0,0,0-.49.65.65,0,0,1,.09-.53l-.4-1.39a6.76,6.76,0,0,1,.31-1c-.22-.9-.36-1.39-.4-1.48s.13-.26.22-.49.18-.35.27-.35a.31.31,0,0,1,.18-.27c.13-.09.17-.18.13-.27s.09-.31.18-.36a1,1,0,0,0,0-.36v-.35c.09,0,.14-.14.14-.36a1,1,0,0,1,.09-.45c0-.18,0-.35-.09-.49a2.77,2.77,0,0,1,.09-.53,1.22,1.22,0,0,1,.18-.5.47.47,0,0,1,0-.44.27.27,0,0,1,.14-.32c.13-.13.17-.22.13-.31.18-.36.31-.53.45-.53a2,2,0,0,1,.58-1.17.64.64,0,0,1,0-.58,4.47,4.47,0,0,1,.53-1,2.32,2.32,0,0,0,.49-1.17l.36-.62a2.65,2.65,0,0,1,.49-.63,1.16,1.16,0,0,1,.14-.62c.44-.18.8-.76,1.16-1.61.09,0,.18-.09.31-.22a1.14,1.14,0,0,1,.31-.23,4.49,4.49,0,0,0,.36-1c.14-.45.18-.67.14-.76.35-.09.71-.49,1-1.16.09,0,.18,0,.27,0s.18,0,.27-.09a10.24,10.24,0,0,1,1.25-1.39,2.8,2.8,0,0,0,.58-.58,4.14,4.14,0,0,1,.54-.76,4.24,4.24,0,0,0,1.47-1.56c.09-.05.27-.18.63-.45l.85-.22a1.53,1.53,0,0,0,.44-.23c.14-.08.18-.17.14-.26a.4.4,0,0,0,.44-.18.61.61,0,0,1,.27-.31,2,2,0,0,0,1.21-.45l2.19-.58.31-.18A.53.53,0,0,1,639.93,1370Zm-.58,4.74-.85.22c-.22.14-.53.36-.85.54s-.4.36-.53.27l-.49.4a4.55,4.55,0,0,0-.72.58,4.93,4.93,0,0,1-1,.76,2.43,2.43,0,0,1-.94.85c-.09.4-.22.62-.4.67a1.17,1.17,0,0,0-.58.44.36.36,0,0,0-.22.23c-.09.13-.27.44-.59,1a3.34,3.34,0,0,1-.49.31,1.27,1.27,0,0,1-.71,1.07c-.14.22-.58,1-1.3,2.23a1.39,1.39,0,0,1-.4.27l-.22.45c-.09.13-.18.31-.27.45s-.13.13-.18.35a.46.46,0,0,1-.36.4.26.26,0,0,1,0,.27v.32a4.08,4.08,0,0,0-.8,1.83,2.44,2.44,0,0,0-.27.53c-.13.23-.27.36-.36.36.14.45,0,.8-.31,1a7.22,7.22,0,0,1-.18,1.16,2,2,0,0,0,0,1.12,6.08,6.08,0,0,0-.85,1.25,3.29,3.29,0,0,1,0,.67,1.86,1.86,0,0,0,.09.81c0,.09,0,.26-.09.44a4,4,0,0,0-.17.63l.31,1.07a2.61,2.61,0,0,1,0,.8,3.79,3.79,0,0,1-.18.72,3,3,0,0,1,.27,1.56l.35,1.34c0,.09,0,.23,0,.36s-.09.31,0,.4l.58,2.06a3.34,3.34,0,0,0-.09.76,11.6,11.6,0,0,1,.71,1.56,4.63,4.63,0,0,1,.72,1c.44.18.67.36.71.54l.13.58a2.67,2.67,0,0,1,.81.71c.31.36.49.58.62.63.14.27.27.4.27.54a2.53,2.53,0,0,1,.58.44,2.22,2.22,0,0,0,.36.81l.72.4a1,1,0,0,0,.22.36,4.34,4.34,0,0,1,.27.35c.22.14.67.41,1.38.81.22,0,.45.27.76.67.67.31,1.39.67,2.23,1.11,0,.18.23.36.58.58.18.27.27.41.27.54a.63.63,0,0,1,.54.14,2.29,2.29,0,0,0,.45.31,1.8,1.8,0,0,0,.58.36c.26,0,.4.13.44.22a2.48,2.48,0,0,1,.27.36l.72.4a4,4,0,0,1,.4.44,1.21,1.21,0,0,0,.62,0c.27,0,.49,0,.63,0s.36.23.67.63a1.59,1.59,0,0,1,.76,0,3.32,3.32,0,0,0,.89,0,.62.62,0,0,1,.45.08,3.76,3.76,0,0,0,.62.18l.94-.26c.09,0,.54,0,1.34,0l2.32-.63a2.3,2.3,0,0,1,.85-.35,5.39,5.39,0,0,1,1.08-.18,8.26,8.26,0,0,0,2.54-.85l1.25-.31a.94.94,0,0,1,.27-.32,1.28,1.28,0,0,1,.45-.17,6,6,0,0,0,1-.45,3.89,3.89,0,0,1,1-.4.75.75,0,0,1,.49-.41l.94-.26a18,18,0,0,1,1.66-1.48,1.32,1.32,0,0,1,.44-.58,2.12,2.12,0,0,1,.49-.27,4.83,4.83,0,0,1,.32-.44,1.74,1.74,0,0,0,.26-.58.63.63,0,0,0,.36-.23,1,1,0,0,1,.14-.62c.35-.58.53-.94.58-1s.17-.27.31-.54.22-.4.31-.53.14-.27.27-.54a3.06,3.06,0,0,1,.31-.49,4.26,4.26,0,0,1,.32-.49,1.89,1.89,0,0,1,.44-.58,1,1,0,0,1,.09-.67,1.21,1.21,0,0,0,.09-.67,2.26,2.26,0,0,0,.49-.9,1.31,1.31,0,0,1,.45-1,1.08,1.08,0,0,1,.31-.94c0-.22.09-.44.14-.76a1.57,1.57,0,0,0,0-.75c.08,0,.17-.14.22-.36a.55.55,0,0,1,.18-.27.33.33,0,0,0,.09-.27l-.18-.67c0-.09,0-.22.09-.45a1.23,1.23,0,0,0,.09-.49l-.18-.71a1.6,1.6,0,0,0,.13-.85,2.38,2.38,0,0,1,.23-1v-1a7.34,7.34,0,0,0-.23-.85c0-.09-.13-.22-.27-.45a2.31,2.31,0,0,1-.26-.44.78.78,0,0,1-.14-.76,1.58,1.58,0,0,0,.09-.54l-.31-1.11c-.27-.32-.45-.5-.45-.58l-.27-.94a.54.54,0,0,1,.05-.36c0-.18.09-.27,0-.36s-.13-.53-.35-1.38-.36-1.3-.36-1.39a.81.81,0,0,1-.31-.27.59.59,0,0,1-.14-.31l-.09-.4a3.81,3.81,0,0,1-.44-.63,1,1,0,0,1-.27-.49,1.51,1.51,0,0,1-.4-.4,3.35,3.35,0,0,1-.32-.58,3.29,3.29,0,0,1-.85-.89,8.15,8.15,0,0,0-.67-.9c-.13,0-.35-.18-.67-.31a2.23,2.23,0,0,1-.71-.45c-.13-.13-.4-.35-.72-.62a1.52,1.52,0,0,1-.53-.67,4.59,4.59,0,0,1-1.39-.81,1,1,0,0,1-.58-.58,1.49,1.49,0,0,1-.67-.31c-.22-.18-.4-.27-.49-.22s-.18-.23-.4-.49a.49.49,0,0,0-.27-.23.47.47,0,0,1-.27-.22,3.63,3.63,0,0,0-.58-.49,1.17,1.17,0,0,1-.44-.54,1.14,1.14,0,0,1-.76-.09,1.11,1.11,0,0,1-.58-.53.86.86,0,0,1-.63-.14,5.28,5.28,0,0,1-.62-.36c-.27-.13-.5-.26-.63-.31a4.47,4.47,0,0,1-1.43-.36,1,1,0,0,1-1.12-.31,2,2,0,0,1-1,0,2.42,2.42,0,0,1-.94-.31c-.36.18-.63.18-.76-.09a1.1,1.1,0,0,1-.89.09l-1.93.54a.51.51,0,0,1-.35-.05,1.77,1.77,0,0,0-.41,0l-1.47.4a1.71,1.71,0,0,0-1.79.36C639.62,1374.44,639.49,1374.53,639.35,1374.71Z" transform="translate(-78.85 -837)"/><path class="cls-32" d="M676.88,1359.88a1.46,1.46,0,0,1,.22,1.43,9.63,9.63,0,0,1,.67,2.23c.22,1.07.4,1.79.49,2.15a.52.52,0,0,1,0,.35,1.21,1.21,0,0,1-.09.41l.76,2.72a.67.67,0,0,1,0,.72c.18.26.27.4.27.49l.81,3a.48.48,0,0,0,0-.45,2.82,2.82,0,0,1-.09-.4c0-.13.18-.31.31-.54s.23-.4.32-.53a3.62,3.62,0,0,1,.09-.76c-.05-.09,0-.18.13-.31a.57.57,0,0,0,.09-.49,2.17,2.17,0,0,0,.22-.81,2.55,2.55,0,0,0,.58-1.61.84.84,0,0,0,.32-.53c.18,0,.27-.09.31-.23a.19.19,0,0,1,.18-.18,4.93,4.93,0,0,0,.09-1.2,1.92,1.92,0,0,1,.89-1,.86.86,0,0,0,.09-.41.94.94,0,0,0,0-.35,2.15,2.15,0,0,0,.53-.72c.23-.36.32-.58.4-.71a.54.54,0,0,1,0-.36.94.94,0,0,1,.09-.4,4.8,4.8,0,0,0,.54-.72c.18,0,.36-.22.45-.58a3.09,3.09,0,0,0,.58-.58,2.67,2.67,0,0,0,1.11-1.2,2.52,2.52,0,0,1,.54-.27,2.65,2.65,0,0,0,.45-1,2.3,2.3,0,0,0,.62-.45c0-.09.05-.18.14-.26a.59.59,0,0,1,.31-.14l.8-.22a1.11,1.11,0,0,0,.36-.23,3.73,3.73,0,0,1,.54-.31l1.25-.8.94-.27a1.65,1.65,0,0,1,.84-.09,9.31,9.31,0,0,1,1.75-.63,8.55,8.55,0,0,0,2.9-.67,1.15,1.15,0,0,1,.76.09l.8-.22a2.46,2.46,0,0,0,.85.13,5.38,5.38,0,0,1,1,.09l1.07-.31a2.28,2.28,0,0,0,.89.27,1.75,1.75,0,0,1,.72.18,2.56,2.56,0,0,1,.93.18.35.35,0,0,1,.36,0,.88.88,0,0,1,.4.18,2,2,0,0,1,1,0,1.77,1.77,0,0,0,.8.05,9.32,9.32,0,0,0,1.21.8,7.65,7.65,0,0,0,1.25.63,1.82,1.82,0,0,1,1.16.54.34.34,0,0,1,.31,0,.47.47,0,0,1,.31.13,7.41,7.41,0,0,0,1.21.71c.13,0,.27.14.4.18s.27.14.27.23c.45.17.67.31.67.4a2.13,2.13,0,0,1,.58,0,9,9,0,0,0,1.92,1.2.85.85,0,0,1,.32.23l.13.27a2.82,2.82,0,0,1,.62.35,2.77,2.77,0,0,0,.76.32,2.27,2.27,0,0,0,.67.84,5.26,5.26,0,0,1,.76.67,2.82,2.82,0,0,0,.36.23.94.94,0,0,0,.36.18c0,.09.22.31.62.71.14.14.41.4.72.67a2.06,2.06,0,0,1,.53.58l.14.54a1.68,1.68,0,0,1,.4.4l.27.45a3.8,3.8,0,0,0,.45.22,2.1,2.1,0,0,1,.49.4,5.24,5.24,0,0,0,.35.81,6.59,6.59,0,0,1,.41.89,2.74,2.74,0,0,1,.44.58,6.62,6.62,0,0,1,.32.72.7.7,0,0,0,.31.35,1.44,1.44,0,0,1,.49.4l.4,1.52a.56.56,0,0,0,.23.36.65.65,0,0,1,.22.22,1,1,0,0,0,.22.45,2.32,2.32,0,0,1,.18.31l.22.85c0,.09.09.18.23.32s.22.22.22.31a5.4,5.4,0,0,1-.45,2.72,4,4,0,0,1-2,.85,1.49,1.49,0,0,1-.81-.36,1.59,1.59,0,0,1-.76-.09,1.64,1.64,0,0,0-.26-.44,1.2,1.2,0,0,1-.27-.45l-.36-1.2a.84.84,0,0,0-.27-.45.47.47,0,0,1-.22-.31,1.69,1.69,0,0,1-.09-.85.85.85,0,0,1-.36-.76,3.59,3.59,0,0,1-.58-1,2,2,0,0,1-.49-.76c-.31-.4-.4-.67-.36-.76-.13,0-.22-.18-.31-.27a.72.72,0,0,0-.27-.26l-.22-.81-.58-.58a1.23,1.23,0,0,0-.49-.76l-.14-.53c0-.09-.22-.18-.53-.32s-.27-.4-.27-.49a5.09,5.09,0,0,1-.8-.53,7.58,7.58,0,0,0-.81-.5,1.86,1.86,0,0,0-.76-.67c0-.09-.13-.22-.31-.44a3.09,3.09,0,0,1-.36-.4c-.09,0-.53-.27-1.2-.67,0-.09-.14-.18-.32-.36s-.31-.27-.31-.36a.88.88,0,0,0-.4-.18,1.27,1.27,0,0,0-.36,0c0-.18-.22-.32-.58-.45a6.07,6.07,0,0,1-.58-.36c-.27-.18-.49-.27-.58-.35a2.86,2.86,0,0,1-.81-.32,1.13,1.13,0,0,0-.8-.13l-.63-.36c-.26-.18-.49-.27-.58-.36s-.22-.13-.62-.13a4.54,4.54,0,0,0-.81-.54,2.16,2.16,0,0,1-.84-.62l-.63-.09c-.09,0-.22,0-.45,0s-.31,0-.35,0-.23-.09-.5-.18-.53-.13-.71-.18a2.48,2.48,0,0,0-.63,0c-.35,0-.58,0-.67,0a1.73,1.73,0,0,0-.62-.09,3.23,3.23,0,0,1-.76-.09l-.94.27a1.59,1.59,0,0,1-.62,0c-.27-.09-.54-.14-.63-.18l-2,.53a3.69,3.69,0,0,0-2.73.76l-1.21.36c-.09,0-.17.09-.31.22a.72.72,0,0,1-.44.27,2,2,0,0,0-.18.36c-.09.09-.14.18-.23.22s-.18.14-.31.32-.18.22-.31.17a1,1,0,0,0-.18.32.51.51,0,0,0-.14.26.91.91,0,0,1-.31.23,1.37,1.37,0,0,1-.4.18c-.09.09-.58.67-1.56,1.74l-1,1.74a1.21,1.21,0,0,0-.35.54c-.09.22-.18.35-.27.35s0,.23-.09.45a.59.59,0,0,1-.4.4,1.41,1.41,0,0,1,0,.58,3.92,3.92,0,0,0-.54.81,2,2,0,0,1-.49.8,1.31,1.31,0,0,1-.09.67,1.1,1.1,0,0,0-.09.72,1.12,1.12,0,0,0-.36.53c-.09.23-.18.36-.26.36a3.42,3.42,0,0,0-.27,1.12c-.09,0-.14.18-.18.4a3.1,3.1,0,0,1-.14.54.55.55,0,0,1,.14.53,1.14,1.14,0,0,0-.22.81,1,1,0,0,1-.36.84,8,8,0,0,1-.05,1.34l.18.67a1.38,1.38,0,0,0-.18.5,2.21,2.21,0,0,0,0,.44,1.21,1.21,0,0,0-.09.54c0,.22,0,.36-.09.4a3.4,3.4,0,0,1,.13,1,2.25,2.25,0,0,0,.27,1,2.48,2.48,0,0,0-.09.75l.27,1-.13.62a6.65,6.65,0,0,1,.09.85,6.92,6.92,0,0,1-.72,1.07,1,1,0,0,1,.09.85l.27,1.12a1.7,1.7,0,0,1-.09.76l1.61,5.85a1.09,1.09,0,0,1,0,.76,1.62,1.62,0,0,1,.45.63,11.62,11.62,0,0,0,.62,2.32,1,1,0,0,0,.23.31,1.06,1.06,0,0,1,.22.31c.14.54.4,1.43.72,2.64s.58,2.1.71,2.55c.05.09,0,.22,0,.35s-.09.27-.05.36a4.83,4.83,0,0,1,.18.67,2.12,2.12,0,0,1,.13.54,3.66,3.66,0,0,0,.45.62l.45,1.66a.56.56,0,0,0,.31.4.61.61,0,0,1,.31.27l.54,1.92-.09.62a.61.61,0,0,0-.09.4.25.25,0,0,1-.18.27c0,.09-.18.31-.27.54s-.22.4-.31.53a4.45,4.45,0,0,1-2.19.58,4.68,4.68,0,0,1-.45-.31,1.79,1.79,0,0,0-.58-.27,13,13,0,0,0-1-1.47,6.22,6.22,0,0,1-.27-2.55,2.26,2.26,0,0,1-.31-.67c-.76-2.72-1.25-4.51-1.43-5.31a1.23,1.23,0,0,1,0-.54.46.46,0,0,0-.13-.45.58.58,0,0,0-.14-.53c-.13-.18-.22-.27-.22-.4a5.42,5.42,0,0,0-.76-1.7,7.81,7.81,0,0,1,0-1.16c-.32-1.07-1-3.62-2.1-7.6a.76.76,0,0,1,0-.35v-.36l-.62-2.32c0-.41,0-.59.13-.63a1,1,0,0,0-.13-.31,2.25,2.25,0,0,0-.27-.36,2.78,2.78,0,0,1-.23-.67,3.44,3.44,0,0,1-.17-.76,2.92,2.92,0,0,0-.18-.31.51.51,0,0,1-.14-.32,11.65,11.65,0,0,1-.26-1.51c-.18-.94-.32-1.66-.45-2.24l-.22-.36a1.14,1.14,0,0,1-.27-.49,1.65,1.65,0,0,1,.18-.93,1.17,1.17,0,0,1,0-.59,2.21,2.21,0,0,0,0-.44,10.45,10.45,0,0,0-.31-1.07c-.14-.54-.27-1-.36-1.34a1.08,1.08,0,0,0-.54-.76,5.4,5.4,0,0,1-.17-1.12c-.09,0-.27-.45-.54-1.38s-.4-1.48-.4-1.57,0-.22,0-.36a.51.51,0,0,0,0-.35,4.9,4.9,0,0,1-.76-1.7,2.56,2.56,0,0,0,.09-.76l-.41-1.52c-.26-.31-.44-.49-.44-.62a3.32,3.32,0,0,1-.22-1.84,4.7,4.7,0,0,0-.27-.4,1.56,1.56,0,0,1-.32-.62,3.13,3.13,0,0,1,.41-1.75,6,6,0,0,1,2.23-.89.8.8,0,0,1,.54.09.52.52,0,0,0,.4.09C676.47,1359.61,676.7,1359.74,676.88,1359.88Z" transform="translate(-78.85 -837)"/><path class="cls-32" d="M740.13,1366.89a2.8,2.8,0,0,0,.58-.58c.14-.13.36-.4.67-.76s.63-.36.89-.53a.8.8,0,0,0,.23-.27c0-.18.13-.27.22-.27.22-.27.4-.36.49-.31a1.72,1.72,0,0,1,.54-.72,3.36,3.36,0,0,0,.58-.58c.27-.18.49-.4.8-.62a1.7,1.7,0,0,1,.67-.49,1.65,1.65,0,0,0,.36-.54,2.12,2.12,0,0,1,.22-.49c.09,0,.18-.09.27-.14a.17.17,0,0,1,.27,0,4.88,4.88,0,0,0,.76-.93.94.94,0,0,0,.49-.36.61.61,0,0,1,.54-.23,3.57,3.57,0,0,1,.22-.44,4.45,4.45,0,0,1,.27-.45,2.24,2.24,0,0,0,.53-.71.92.92,0,0,0,.5-.32,1.86,1.86,0,0,1,.49-.31,1,1,0,0,1,.13-.4,3,3,0,0,0,.22-.45c.18,0,.41-.27.72-.62a4.43,4.43,0,0,0,.36-.45.65.65,0,0,1,.26-.31,2.84,2.84,0,0,0,1.3-1.21.94.94,0,0,0,.31-.22.27.27,0,0,1,.36-.09l.27-.67a5.84,5.84,0,0,0,1.7-1.79,2.35,2.35,0,0,0,.76-.49,5,5,0,0,1,1.51-1.3,3.4,3.4,0,0,1,.76-.93,5.23,5.23,0,0,1,1.52-1.48c.49-.62.85-1,1-1.16a2.41,2.41,0,0,0,.9-1c.09,0,.18-.09.27-.14a.36.36,0,0,1,.26-.13,8.53,8.53,0,0,1,.63-.63,2,2,0,0,0,.63-.62,2.7,2.7,0,0,0,.53-.72c.18,0,.36-.26.58-.58s.54-.4.85-.62a3.73,3.73,0,0,0,.72-.58,1.6,1.6,0,0,1,.71-.63l.36-.85a.92.92,0,0,0,.53-.44,1.54,1.54,0,0,1,.54-.45.7.7,0,0,1,.31-.54c.09,0,.18-.13.27-.31s.22-.22.31-.18a.76.76,0,0,1,.05-.31c.09-.13.13-.18.22-.22l.94-.85a5.81,5.81,0,0,0,1.56-1.16,1.62,1.62,0,0,0,.4-.72,1.25,1.25,0,0,0,.63-.44c.22-.27.36-.41.49-.45a1.45,1.45,0,0,1,.54-.45,2,2,0,0,0,.53-.44c.09,0,.23-.09.41-.18a.81.81,0,0,0,.35-.27,1.24,1.24,0,0,0,.27-.36.61.61,0,0,1,.27-.31,5.27,5.27,0,0,0,.4-.49q.13-.27.27-.27l.89-.22c.41-.09.72-.18.9-.23a3.89,3.89,0,0,1,.49.14,1.6,1.6,0,0,1,1.11.44c0,.18.18.58.36,1.21a3.89,3.89,0,0,0,0,.63c0,.35,0,.62,0,.84a2.61,2.61,0,0,1-.62,1,1.79,1.79,0,0,0-.58.27,2.69,2.69,0,0,0-.54.27.86.86,0,0,0-.27.27.26.26,0,0,0,0,.31c-.09,0-.27.22-.58.58a3.07,3.07,0,0,0-.63.45,1.57,1.57,0,0,1-.89.53c0,.18-.05.31-.23.45a2.09,2.09,0,0,1-.44.18.67.67,0,0,1-.36.31,1.37,1.37,0,0,1-.4.18c-.54.44-.9.71-.94.85a4.51,4.51,0,0,0-1.21.93c0,.14-.22.27-.53.5a2.11,2.11,0,0,0-.49.49,2.86,2.86,0,0,0-.9.53c-.09,0-.13.14-.13.32s-.05.31-.14.31-.13.36-.22.67a1.77,1.77,0,0,0-.8.8.48.48,0,0,0-.36.27.32.32,0,0,1-.13.18s-.18.13-.41.4a.43.43,0,0,0-.35.31.78.78,0,0,1-.32.45l-.53.14c-.09,0-.14.13-.23.31a1.21,1.21,0,0,1-.17.4l-.45.54a2.16,2.16,0,0,0-.76.49,16.17,16.17,0,0,1-1.16,1.2,5.15,5.15,0,0,1-.4.67,2.61,2.61,0,0,0-.63.5,1.68,1.68,0,0,1-.63.31.64.64,0,0,1-.35.22,1.21,1.21,0,0,0-.18.36c-.09.09-.14.22-.22.27a1.77,1.77,0,0,1-.32.22.67.67,0,0,0-.27.31c-.08,0-.17.14-.26.32a.71.71,0,0,1-.27.31c-.09,0-.14.13-.22.27s-.14.26-.23.26a2.31,2.31,0,0,0-.44.59,2.57,2.57,0,0,0-.41.08c-.18.05-.26.14-.22.23l-.94.85c0,.13-.22.26-.49.44a.89.89,0,0,1-.4.54.45.45,0,0,0-.23.27c0,.18-.13.27-.22.27s-.09.22-.36.4a2,2,0,0,0-.89,1c-.09,0-.18,0-.27,0s-.18,0-.27.09a19.74,19.74,0,0,1-2,1.88c-.14.22-.27.54-.49.94a2.88,2.88,0,0,1-.49.8c-.09.05-.49.36-1.21.94-.09,0-.18.14-.27.31a1.22,1.22,0,0,1-.4.45c-.09,0-.18.13-.27.31a.69.69,0,0,1-.27.32,2.12,2.12,0,0,1-.8.71c-.4.27-.67.45-.71.58a2.18,2.18,0,0,0-.5.89c-.09,0-.22.09-.35.27s-.27.23-.41.23-.13.13-.17.31a.52.52,0,0,1-.23.27,10.39,10.39,0,0,1-1.2.89,2.09,2.09,0,0,1-.54.49,3,3,0,0,0-.63.67.31.31,0,0,0-.35.09.5.5,0,0,1-.27.22.47.47,0,0,0-.22.27,2,2,0,0,1-.18.4,1,1,0,0,1,.44.18,2.26,2.26,0,0,0,.45.32,2.87,2.87,0,0,1,1.39.22,4.73,4.73,0,0,1,.62,0c.31,0,.58.14.76.18a2.21,2.21,0,0,0,.94.4,1.75,1.75,0,0,1,.94.54,1.72,1.72,0,0,1,.76.09c0,.09.13.13.35.13a1.22,1.22,0,0,1,.45.09c0,.09.27.18.63.27a1.48,1.48,0,0,0,.8.23,1.13,1.13,0,0,0,.4.08,1,1,0,0,1,.4,0,2.92,2.92,0,0,1,.41.13.65.65,0,0,0,.4,0,1.24,1.24,0,0,0,.31.18.26.26,0,0,0,.31,0c.45.18.72.31.85.36a1.55,1.55,0,0,1,.9,0,1.52,1.52,0,0,0,.76.09,1.89,1.89,0,0,0,.4.18.46.46,0,0,1,.31.22,4.71,4.71,0,0,1,1.21.09l.93-.26c1.12.17,1.75.31,1.88.35a3.46,3.46,0,0,0,1.83.23,7,7,0,0,0,1.57.44c.08,0,.26.09.53.32a.85.85,0,0,1,.63.13,1.78,1.78,0,0,1,.44,0,2.09,2.09,0,0,0,.45,0c.09,0,.22,0,.45,0s.31.09.35.18c.32.09.58.18.81.23s.22,0,.4,0,.31.09.36,0,.22,0,.36,0a.93.93,0,0,1,.4.18,4.9,4.9,0,0,1,1.52.31,1.22,1.22,0,0,0,.49.09c.18,0,.31,0,.31.14a1,1,0,0,0,.4.08,2,2,0,0,0,.49,0,.35.35,0,0,0,.27.22.88.88,0,0,1,.4.18,1.62,1.62,0,0,1,.45,0,1.14,1.14,0,0,0,.58,0,.92.92,0,0,1,.54.31c.35-.08.53-.08.58,0a.82.82,0,0,1,.44,0l.36.23a6.71,6.71,0,0,1,1.66.13.43.43,0,0,1,.35.14c.14.13.23.18.32.13a.93.93,0,0,0,.53.13,1.5,1.5,0,0,0,.67,0,.77.77,0,0,1,.4.45,2.72,2.72,0,0,0,.63,0,2.54,2.54,0,0,0,.54-.09.32.32,0,0,0,.22.22.26.26,0,0,0,.31,0,5.7,5.7,0,0,1,.85-.08l.49.26a1.14,1.14,0,0,1,.72.14,1,1,0,0,0,.67.09c.09,0,.17,0,.31,0a.39.39,0,0,1,.22.22,1,1,0,0,1,.36,0h.36a4.27,4.27,0,0,0,2,.49,2.22,2.22,0,0,0,.49.18.39.39,0,0,1,.36.31,6,6,0,0,1,1.47,0,3.24,3.24,0,0,1,.85-.09c.13.09.31.22.62.4a2.67,2.67,0,0,0,.76.4c0,.09.14.23.32.36a1,1,0,0,1,.31.36,2.1,2.1,0,0,1,0,1.16.81.81,0,0,1,.09.4c.09.27,0,.4,0,.45a3.22,3.22,0,0,1-.49,1.47,7.33,7.33,0,0,1-2.06.54,5.57,5.57,0,0,0-1.43-.94,1.31,1.31,0,0,1-.58,0,2.75,2.75,0,0,0-.62-.13c-.27,0-.45-.09-.45-.18a.84.84,0,0,1-.45,0c-.09-.09-.18-.14-.18-.23s-.22,0-.44,0a1.14,1.14,0,0,0-.58,0,.77.77,0,0,1-.49-.27,1.54,1.54,0,0,1-.9,0,.9.9,0,0,1-.49-.32.45.45,0,0,0-.36-.22.59.59,0,0,1-.44,0,.68.68,0,0,0-.45,0c0-.09-.13-.14-.4-.09s-.36,0-.4-.14a7,7,0,0,0-.72,0c-.09,0-.31,0-.67-.27s-.67-.18-.8-.22a8.07,8.07,0,0,1-1.43-.5.19.19,0,0,1-.27.14.26.26,0,0,0-.27,0,6.65,6.65,0,0,0-.71-.4,1.42,1.42,0,0,1-.58,0,1.89,1.89,0,0,0-.45,0c-.13,0-.31-.13-.58-.22a2.46,2.46,0,0,1-.58-.23l-.72.18a1.67,1.67,0,0,1-.67-.26.3.3,0,0,1-.26,0c-.09-.05-.18,0-.32,0a3.82,3.82,0,0,0-.71-.23,1.33,1.33,0,0,1-.76-.4,12,12,0,0,1-2.19-.45l-.85.23a2.34,2.34,0,0,1-.53-.36,1,1,0,0,0-.5-.22,13.57,13.57,0,0,1-1.43-.36,2.47,2.47,0,0,1-1.29-.4,2.16,2.16,0,0,1-.72,0,1.19,1.19,0,0,0-.71,0,.26.26,0,0,1-.31-.14,1.57,1.57,0,0,1-.27-.22s-.27,0-.67,0a3.92,3.92,0,0,0-1.21-.31,5,5,0,0,1-1-.22l-.67.18a1.35,1.35,0,0,1-.71-.41,1.58,1.58,0,0,1-.32.09c-.13.05-.22.05-.31.09a3.05,3.05,0,0,0-1.88-.35c-.22,0-.44-.09-.76-.18a2.53,2.53,0,0,1-.62-.18l-.54.13c-.18,0-.53-.09-1-.44a1.51,1.51,0,0,1-.94-.32,7.34,7.34,0,0,0-.85.23,2.32,2.32,0,0,0-.31-.18.31.31,0,0,0-.32-.05.25.25,0,0,0-.26-.13.35.35,0,0,1-.27-.14,11.56,11.56,0,0,1-1.25-.26l-.45-.23a4.49,4.49,0,0,1-.45-.26,2.28,2.28,0,0,1-1.34-.63h-.53a2.29,2.29,0,0,0-.54,0c0-.09-.13-.13-.31-.13s-.31,0-.31-.14a.5.5,0,0,1-.32-.09.28.28,0,0,1-.18-.22.64.64,0,0,1-.58,0,2.53,2.53,0,0,0-.58-.22,1.54,1.54,0,0,0-.53-.09,1.34,1.34,0,0,0-.36-.18.54.54,0,0,1-.22-.23,5.53,5.53,0,0,1-.9,0c.05-.22-.09-.27-.44-.18l-.27,0,.49.76a1.33,1.33,0,0,0,.4.89l.58,2a.72.72,0,0,0,.23.32.74.74,0,0,1,.22.31c.09.36.27,1,.49,1.79s.36,1.34.45,1.65a.64.64,0,0,1,0,.58l.85,2.55c0,.09.08.17.22.26s.22.23.22.32.14.44.27.89.22.76.27,1a1.78,1.78,0,0,1,0,.44c0,.09,0,.14-.09.18l2.46,8.85v.58a3.3,3.3,0,0,1-.09.76,1.6,1.6,0,0,1-1.47,1l-.27.09a1,1,0,0,1-.49-.18l-.54.14a.28.28,0,0,0-.31,0,4.68,4.68,0,0,1-1.21-1.16l-1-3.53a1.23,1.23,0,0,1,0-.54,1.31,1.31,0,0,0,0-.35l-.8-3a.51.51,0,0,1,0-.35.79.79,0,0,0,0-.41l-.63-2.32c0-.09-.08-.18-.22-.31a.66.66,0,0,1-.22-.31l-1-3.67a1.28,1.28,0,0,1,.09-.76.82.82,0,0,0-.27-.44,1.22,1.22,0,0,1-.22-.32,3.44,3.44,0,0,0-.76-1.69l-.36-1.39a.82.82,0,0,0-.27-.44.77.77,0,0,1-.22-.32l-1.25-4.51a1.27,1.27,0,0,1,0-.36,1.37,1.37,0,0,0,0-.4c0-.09,0-.27,0-.49a.72.72,0,0,0-.13-.49,2.84,2.84,0,0,1-.22-.36c-.09-.18-.18-.22-.27-.22a13.86,13.86,0,0,0-.67-2c-.22-.81-.27-1.25-.18-1.25a1,1,0,0,0-.18-.32,2.92,2.92,0,0,1-.18-.31l-1.25-4.64a.66.66,0,0,1,0-.59,3.65,3.65,0,0,1-.49-1.29,2.29,2.29,0,0,0-.27-.4,2,2,0,0,1-.27-.36l-.49-1.92a1.6,1.6,0,0,1,0-.45,1.82,1.82,0,0,0,.05-.44,1.71,1.71,0,0,0-.27-.54.66.66,0,0,1-.22-.36c-.05-.09-.14-.44-.32-1.07s0-.76.05-.89a1.82,1.82,0,0,1-.18-1.25,4.77,4.77,0,0,1-.18-1.7,1.35,1.35,0,0,1-.44-.63l-1.12-4.11a.3.3,0,0,0-.09-.35.45.45,0,0,1-.22-.32,3.73,3.73,0,0,1-.36-1.83,2.33,2.33,0,0,1-.14-.31,2.91,2.91,0,0,1-.22-.49,1.28,1.28,0,0,1,0-.72,2.91,2.91,0,0,1-.41-1.07,1.08,1.08,0,0,1,0-.36.91.91,0,0,0,0-.35,2.5,2.5,0,0,0-.22-1c-.18-.49-.32-.85-.36-1s0-.23,0-.41a1,1,0,0,0,0-.35,1,1,0,0,0-.27-.45c-.13-.13-.22-.22-.22-.31-.94-3.35-1.48-5.32-1.61-5.86a1.11,1.11,0,0,1,.09-.75,1.4,1.4,0,0,1-.49-.63c-.18-.63-.72-2.55-1.57-5.72a1.73,1.73,0,0,0,.09-.76.51.51,0,0,1,.14-.62,8.7,8.7,0,0,1-.18-1.12c.18-.45,1-.76,2.54-1a1.67,1.67,0,0,1,1.21.71c.49,1.7,1.3,4.69,2.46,9s2,7.37,2.54,9.25a1.27,1.27,0,0,1,0,.36,1.34,1.34,0,0,0-.05.4l.63,2.32c0,.09.09.18.22.31s.23.23.23.32l1.52,5.45a.71.71,0,0,0,.26.35.6.6,0,0,1,.14.54,3.51,3.51,0,0,1,0,.71,1.3,1.3,0,0,0,.23.81,1.37,1.37,0,0,1,0,.4c0,.13-.09.27,0,.36a3.42,3.42,0,0,1,.09,1.43l.8,3a.94.94,0,0,0,.22.31.72.72,0,0,1,.27.45,1.14,1.14,0,0,1,0,.58,2.29,2.29,0,0,0,0,.45c.26.22.4.35.4.49l.27,1.52a1.19,1.19,0,0,0,.17.31.59.59,0,0,1,.14.31c.18.54.45,1.61.89,3.22A13.55,13.55,0,0,0,740.13,1366.89Z" transform="translate(-78.85 -837)"/><path class="cls-32" d="M587.31,1493a3,3,0,0,0,1-.17c.53-.14.89-.23,1-.27s.13-.09.22-.18a.9.9,0,0,1,.23-.18c.09,0,.49-.13,1.34-.36a1.44,1.44,0,0,0,.31-.18,2.65,2.65,0,0,1,.4-.22.8.8,0,0,1,.54-.09,1.77,1.77,0,0,0,.49,0,1.18,1.18,0,0,0,.4-.27.52.52,0,0,1,.4-.18.51.51,0,0,1,.45-.09c.18,0,.31.09.4,0a1.81,1.81,0,0,0,.36-.23.42.42,0,0,1,.36-.18c.09-.09.22-.09.4,0s.18,0,.22,0l.94-.27a3.08,3.08,0,0,1,.54,0,1.24,1.24,0,0,1,.62-.23,2.92,2.92,0,0,0,.63-.13s.13-.09.22-.18.13-.14.22-.14c1.79-.49,2.86-.8,3.26-.89a2.72,2.72,0,0,1,1.39.54s.09.35.22.85v.31a.68.68,0,0,0,0,.4c-.13.22-.22.4-.18.45a2,2,0,0,1-.17.44c0,.09-.27.18-.63.27-.09.18-.36.27-.76.32a2.7,2.7,0,0,1-.31,0,.69.69,0,0,0-.31,0s-.14,0-.32.05l-.4.18c-.09,0-.18,0-.31,0a.52.52,0,0,0-.27,0c-.05,0-.13,0-.27,0a.63.63,0,0,0-.27,0l-2.94.8s-.14.09-.27.18a.57.57,0,0,1-.36.18h-.71a7.3,7.3,0,0,1-1.79.27,1,1,0,0,1-.4.31l-2.1.58c-.05,0-.14.09-.23.18a.87.87,0,0,1-.22.18l-2.59.71a.91.91,0,0,0,0,.9l.27,1v.32a.41.41,0,0,0,0,.31,4.45,4.45,0,0,0,.27.94.52.52,0,0,1,0,.35.52.52,0,0,0,0,.27c0,.18.14.45.23.81s.18.62.22.89a1,1,0,0,1,.05.58l.8,2.86a.45.45,0,0,1,0,.36.63.63,0,0,0,0,.27l.71,2.59a.83.83,0,0,1,0,.26.75.75,0,0,0,0,.27.77.77,0,0,0,.18.32c.09.08.13.13.13.22.05.27.18.71.36,1.34s.31,1.12.4,1.43c0,.09.09.13.18.22s.14.14.14.22a7,7,0,0,1,.22,1.48,1.31,1.31,0,0,1,.36.54.53.53,0,0,1,0,.35.52.52,0,0,0-.05.27,4.38,4.38,0,0,0,.31,1.39c.27.84.41,1.29.45,1.38a.42.42,0,0,0,.18.27.54.54,0,0,1,.18.36,1.47,1.47,0,0,1,0,.44v.36a.31.31,0,0,0,.14.36,1.08,1.08,0,0,1,.22.22l1.39,5a1.92,1.92,0,0,1,.35.94c0,.09.09.13.18.22a.85.85,0,0,1,.18.27,2.33,2.33,0,0,1,.13.53,2.17,2.17,0,0,1,.14.5s0,.13,0,.26a.76.76,0,0,0,0,.27l.27.94a1.29,1.29,0,0,1-.23.67,1.71,1.71,0,0,0-.18.45.88.88,0,0,0-.35.26.67.67,0,0,1-.36.27,2.75,2.75,0,0,1-1.74-.44,6.19,6.19,0,0,0-.31-.54,1.55,1.55,0,0,1-.27-.76.87.87,0,0,1,0-.36.63.63,0,0,0,0-.27,3,3,0,0,1-.4-1.11s0-.14,0-.23v-.26a6.6,6.6,0,0,0-.5-1.43l-.62-2.28v-.49a1.23,1.23,0,0,0-.14-.72,6.94,6.94,0,0,1-.26-.8.73.73,0,0,0-.09-.22,1.16,1.16,0,0,0-.14-.23c-.09-.36-.27-1-.53-2s-.45-1.65-.58-2.1a.54.54,0,0,1,0-.4,1.27,1.27,0,0,1-.32-.85,1.08,1.08,0,0,1,0-.36,1,1,0,0,0-.05-.35s-.09-.14-.13-.27a.74.74,0,0,0-.13-.27c-.27-1.21-.41-1.88-.41-1.92a1.38,1.38,0,0,1-.31-.85c-.27-.22-.36-.36-.36-.53a3.76,3.76,0,0,1,0-.72c-.09-.31-.22-.85-.44-1.52s-.32-1.2-.41-1.43a14.76,14.76,0,0,0-.53-2.41,4.32,4.32,0,0,1,0-.54.69.69,0,0,0-.18-.31.78.78,0,0,1-.17-.31l-.18-.58a.45.45,0,0,1,0-.36.73.73,0,0,0,0-.27l-.85-3.08a.75.75,0,0,1,0-.27.63.63,0,0,0,0-.27c0-.13-.13-.4-.27-.8a3.47,3.47,0,0,1-.22-.94l-1.61.45a.47.47,0,0,1-.31-.09.49.49,0,0,0-.49.09.36.36,0,0,0-.36.13c-.09.14-.18.23-.22.23L577,1499a.59.59,0,0,0-.22.09c-.09,0-.14.08-.23.13l-4,1.07s-.13.09-.22.18a1.09,1.09,0,0,1-.22.18c-.18,0-.67.22-1.48.45a3.94,3.94,0,0,1-1.38.31,1.11,1.11,0,0,1-.72-.4,3.61,3.61,0,0,1-.4-1.43,4.73,4.73,0,0,1,1.12-1.21l.93-.27a7.39,7.39,0,0,1,.81-.44,1,1,0,0,1,.62,0l2.19-.63a3.3,3.3,0,0,1,.9-.44s.13-.09.26-.18a.57.57,0,0,1,.36-.18,1.57,1.57,0,0,1,.45,0c.18,0,.31,0,.36,0s.13-.09.22-.18a.7.7,0,0,1,.22-.18l5.72-1.56s.13-.09.27-.18a.38.38,0,0,1,.4-.09c.09-.09.22-.09.4,0s.14,0,.18,0l.85-.22s.09-.13.13-.36c0,0,0-.09,0-.18a.33.33,0,0,0-.09-.26c0-.09,0-.23,0-.45a4.81,4.81,0,0,1-.18-.54,1.66,1.66,0,0,1,0-.53,4.24,4.24,0,0,1,0-.49v-.32a.92.92,0,0,1,.18-.44,1.89,1.89,0,0,1,.17-.45l-.22-.76a1,1,0,0,1,.09-.4c.09-.18.13-.31.09-.4a1.38,1.38,0,0,1,0-.58,2.43,2.43,0,0,1,.13-.5l.41-.4a4.57,4.57,0,0,0,.13-.53.82.82,0,0,0,0-.54,1.67,1.67,0,0,1,.17-.31,2,2,0,0,1,.14-.32c0-.09,0-.17,0-.26v-.27a1.38,1.38,0,0,1,.23-.27.66.66,0,0,0,.22-.27c.13-.31.27-.49.49-.53a1.79,1.79,0,0,1,.36-1,3.79,3.79,0,0,0,.4-.76.7.7,0,0,1,.18-.22.7.7,0,0,0,.18-.13.4.4,0,0,0,0-.23.47.47,0,0,1,.09-.26,3.81,3.81,0,0,0,.89-1.17s0-.13.23-.26a1.9,1.9,0,0,1,.22-.36,3.53,3.53,0,0,0,.22-.36.61.61,0,0,0,.36-.54,2.05,2.05,0,0,0,.49-.44,2,2,0,0,1,.32-.36,1.53,1.53,0,0,1,.53-.31,4.12,4.12,0,0,1,.4-.81,3.53,3.53,0,0,0,.67-.49,1.29,1.29,0,0,0,.76-.53,10.14,10.14,0,0,0,1.21-.94l1-.31a4,4,0,0,0,.76-.63,1.52,1.52,0,0,0,.94-.36l.4-.13.49-.14a.86.86,0,0,1,.45,0c0-.08.17-.13.4-.22l.58-.13.53-.14a2.58,2.58,0,0,0,1.08-.18.88.88,0,0,0,.44.09,1,1,0,0,1,.45.09l.4-.09a2.62,2.62,0,0,0,1.34,0l.72.31.49-.13a6.46,6.46,0,0,1,1.07.13,2.14,2.14,0,0,1,.45.05,1.62,1.62,0,0,0,.62,0l.49.26a1.9,1.9,0,0,1,.58.18.77.77,0,0,1,.5.09,1,1,0,0,0,.49.09.24.24,0,0,1,.22.09.27.27,0,0,0,.31.05c.09,0,.27.09.54.17a3.61,3.61,0,0,0,.62.5,2.48,2.48,0,0,1,.5.13,1.38,1.38,0,0,0,.49.31,3.79,3.79,0,0,1,.49.32,2.13,2.13,0,0,1,.76.22c.27.13.44.18.58.13a3.16,3.16,0,0,0,.85.49l.18.36c.08,0,.13,0,.17,0s.14.09.18.13,0,.13.18.27a.54.54,0,0,1,.18.36l.36.22c.13.09.27.13.35.18s.05.09.14.09.22.27.36.4a3.18,3.18,0,0,0,.35.4.93.93,0,0,1,.41.4,4.18,4.18,0,0,0,.4.32,2.29,2.29,0,0,0,.18.35,2.66,2.66,0,0,1,.26.54l.59.58a4,4,0,0,0,.62,1.16,3,3,0,0,0,.8,1.12.79.79,0,0,1,.14.49,2,2,0,0,1,.58.58l.31,1.16a2,2,0,0,1-.53,1.07,3.58,3.58,0,0,1-1.16.32,2,2,0,0,1-1-.54,3.58,3.58,0,0,0-.13-.58,1.61,1.61,0,0,0-.54-.45,6.71,6.71,0,0,0-.53-.89,2.74,2.74,0,0,0-.18-.36,1.44,1.44,0,0,1-.23-.44,2,2,0,0,1-.44-.58,6.42,6.42,0,0,1-.63-.76c0-.05-.09-.18-.27-.36a1.87,1.87,0,0,1-.31-.54,4,4,0,0,0-.71-.71,2,2,0,0,1-.41-.31c0-.14-.08-.23-.22-.23l-.18-.09s0-.09-.13-.22a.85.85,0,0,1-.18-.27,1.67,1.67,0,0,0-.71-.4,1.56,1.56,0,0,1-.32-.27c-.13-.13-.27-.22-.31-.27a2.77,2.77,0,0,0-.67-.13,1.54,1.54,0,0,0-.4-.31,4,4,0,0,1-.36-.23c-.4-.18-.63-.26-.67-.22a.7.7,0,0,0-.54-.13c-.4-.23-.67-.36-.76-.41a.44.44,0,0,1-.4-.09c-.13-.09-.22-.17-.31-.22a1.92,1.92,0,0,1-.54,0,1.62,1.62,0,0,0-.62,0,1.26,1.26,0,0,0-.58-.27,2.1,2.1,0,0,1-.58-.27.58.58,0,0,1-.41,0,.41.41,0,0,0-.31,0,1.7,1.7,0,0,0-.67-.22s-.13,0-.22,0a.22.22,0,0,1-.27,0h-.31c-.14,0-.23-.09-.23-.13s-.26.09-.71,0l-.67.18h-.4a.77.77,0,0,0-.49.13,1.06,1.06,0,0,0-.45-.09.92.92,0,0,1-.45-.09s-.13.09-.27.18-.17.18-.26.18-.41.09-.81.22-.71.18-.89.23-.13.08-.22.17a.73.73,0,0,1-.23.18l-.94.27a1.08,1.08,0,0,0-.53.36.64.64,0,0,1-.54.27l-.67.58a2.75,2.75,0,0,1-.8.85,5,5,0,0,1-.85.75s-.09.14-.13.27,0,.27-.14.27a.69.69,0,0,1-.27.27c-.13.09-.22.18-.18.27s-.13.09-.22.22-.18.22-.27.22c-.13.23-.35.63-.71,1.16a9.7,9.7,0,0,0-.67,1.34c-.05,0-.14,0-.22.14a.51.51,0,0,0-.18.18l-.32.8a2.35,2.35,0,0,0-.53,1.07c-.14,0-.23.18-.32.41a.59.59,0,0,1-.4.4,1.66,1.66,0,0,1,0,.44,1.83,1.83,0,0,1-.18.41c-.09.18-.18.26-.22.35a3.23,3.23,0,0,1-.23,1.08l.14.49a1.69,1.69,0,0,0-.09.76,1,1,0,0,0-.18.67c0,.35,0,.58-.18.67l.18.67v.36A1.72,1.72,0,0,0,587.31,1493Z" transform="translate(-78.85 -837)"/><path class="cls-32" d="M626.66,1483l.05-.14a7.46,7.46,0,0,1,1,0l1.34-.36a.68.68,0,0,1,.26.05.63.63,0,0,0,.27,0l.49-.13a1.74,1.74,0,0,0,.54,0l.58-.18a.88.88,0,0,0,.4,0,1.15,1.15,0,0,1,.41,0,1,1,0,0,0,.44,0,1.09,1.09,0,0,1,.4,0,5.75,5.75,0,0,0,1.52.18.6.6,0,0,1,.36.22l.58-.18c.89.54,1.43.81,1.61.9,0,0,.09.09.22.09a.67.67,0,0,1,.32,0,2.61,2.61,0,0,1,.31.27c.13.13.22.22.22.27a1.76,1.76,0,0,1,.76.36,2.41,2.41,0,0,0,.8.44,2.47,2.47,0,0,1,.18.27,1.56,1.56,0,0,1,.54.31c.22.18.36.27.45.23a.68.68,0,0,0,.26.35.46.46,0,0,1,.23.36,1.72,1.72,0,0,1,.85.49,1,1,0,0,0,.44.09,16.64,16.64,0,0,1,1.3,1.39l1.07.62a.22.22,0,0,0,.13.18.12.12,0,0,1,.05.18c.18.13.4.4.71.67s.5.49.58.62a1.15,1.15,0,0,0,.23.36l.27.54a3.07,3.07,0,0,1,.31.4,1.91,1.91,0,0,0,.31.45l.54,2a1,1,0,0,0,.31.44l.31,1.17s.09.13.18.22a.7.7,0,0,1,.18.22,3.35,3.35,0,0,1,.09,1.12,3.58,3.58,0,0,0,.13.36.66.66,0,0,0,.14.26,2.34,2.34,0,0,1,0,.59l.67,2.5s-.09.09-.13.18a.68.68,0,0,0-.05.26,1,1,0,0,1-.17.45v.4a.77.77,0,0,0,.13.49,4.45,4.45,0,0,0-.05,1.34.65.65,0,0,0-.17.45c0,.22,0,.31-.14.36s0,.18,0,.36a.65.65,0,0,0,0,.44,1.47,1.47,0,0,0-.27.54c-.09.27-.14.44-.18.53l0,.54a2.92,2.92,0,0,1-.18.31.37.37,0,0,0,0,.36,1.71,1.71,0,0,0-.35.94c0,.09-.14.22-.23.36a.76.76,0,0,1-.31.31,1.93,1.93,0,0,1-.22,1c-.09,0-.09.09-.09.14s0,.13-.09.22,0,.13-.05.22a.45.45,0,0,0,0,.22l-.27.45a.77.77,0,0,1-.4.36c-.09.22-.27.62-.58,1.21s-.58,1-.76,1.34c-.18.08-.27.17-.32.17s0,0,0,.18-.05.18-.09.18a8.49,8.49,0,0,0-.85.76,3.27,3.27,0,0,0-1,.89,4.16,4.16,0,0,0-.63.36l-.49.14a1.18,1.18,0,0,1-.8.4s-.14.09-.23.18a.57.57,0,0,1-.22.17c-.49.14-.8.27-.89.45l-.67.18s-.14.09-.23.18a.87.87,0,0,1-.22.18c-.13,0-.36,0-.62.27l-1.08.26h-.4c-.76.23-2.05.58-3.93,1.08a.75.75,0,0,1-.27,0,.63.63,0,0,0-.27,0l-.84.22a5.17,5.17,0,0,0-.94,0,.73.73,0,0,1-.54,0,1.34,1.34,0,0,1-.45.09s-.22,0-.53-.09a2.48,2.48,0,0,0-1.43-.22.1.1,0,0,0-.09-.09l-.09,0c-.31,0-.49-.09-.54,0a6.3,6.3,0,0,0-.53-.36s-.09-.14-.22-.18a.53.53,0,0,1-.23-.31c-.13,0-.31,0-.44-.09s-.27,0-.36-.09a6.69,6.69,0,0,0-.67-.54c-.4-.18-.58-.31-.63-.44a1.24,1.24,0,0,1-.58-.14,1.74,1.74,0,0,0-.13-.49c0-.13-.09-.22-.23-.22l-.31-.14a1.76,1.76,0,0,0-.45-.18c-.17-.22-.31-.35-.31-.44s-.18-.09-.4-.31a7.44,7.44,0,0,0-1.21-.72s-.09-.13-.22-.27a.46.46,0,0,1-.22-.35,5.15,5.15,0,0,1-.45-.36,1.56,1.56,0,0,0-.54-.31.62.62,0,0,0-.35-.41c-.18-.09-.32-.18-.36-.31s-.18-.22-.18-.36c-.62-.71-.94-1.11-1-1.16s0-.27-.18-.4a1.09,1.09,0,0,1-.26-.4,1.2,1.2,0,0,1-.41-.32,1.15,1.15,0,0,1-.26-.17.29.29,0,0,0-.23-.09,3.61,3.61,0,0,0-.31-.45,6.69,6.69,0,0,0-.58-1.39,1.14,1.14,0,0,0-.22-.71,3.4,3.4,0,0,1-.27-.67,2.3,2.3,0,0,1,0-.67,4.07,4.07,0,0,0,0-.76c0-.22.09-.36.09-.45l-.36-1.25a1.82,1.82,0,0,0-.09-.8.81.81,0,0,0,.09-.4,1.33,1.33,0,0,0,.05-.36v-.36a1.09,1.09,0,0,1,0-.4l-.27-.94a3.1,3.1,0,0,1,.23-.67c-.18-.62-.27-1-.32-1.07l.18-.36a1,1,0,0,1,.18-.27.17.17,0,0,1,.09-.17c.09,0,.13-.09.09-.18s.09-.23.13-.23v-.53c.05,0,.09-.09.09-.23a.6.6,0,0,1,.05-.31.87.87,0,0,1-.05-.36c0-.09.05-.22.05-.35a2.85,2.85,0,0,1,.13-.36.41.41,0,0,1,0-.31.29.29,0,0,1,.09-.23.29.29,0,0,0,.09-.22c.13-.22.22-.36.31-.4a1.57,1.57,0,0,1,.41-.85.54.54,0,0,1,0-.4,2.34,2.34,0,0,1,.35-.72,1.87,1.87,0,0,0,.36-.8c0-.09.13-.23.22-.45a1.34,1.34,0,0,1,.32-.45.88.88,0,0,1,.09-.44,1.91,1.91,0,0,0,.8-1.16.44.44,0,0,0,.22-.14.9.9,0,0,1,.23-.18,3.9,3.9,0,0,0,.26-.71c.09-.27.14-.49.09-.54a1.29,1.29,0,0,0,.72-.8s.13-.05.18-.05.13,0,.18,0a5.66,5.66,0,0,1,.89-1s.18-.14.4-.41c.05-.08.18-.26.36-.49a3.19,3.19,0,0,0,1-1.11s.17-.14.44-.32l.58-.13a2.1,2.1,0,0,0,.32-.13c.09,0,.13-.14.09-.18.13,0,.22,0,.31-.14a.34.34,0,0,1,.22-.22,1.39,1.39,0,0,0,.85-.31l1.52-.41a.4.4,0,0,0,.22-.13C626.49,1483.08,626.58,1483,626.66,1483Zm-.44,3.3-.58.14c-.18.09-.36.22-.63.35s-.27.23-.36.18l-.31.32a3.48,3.48,0,0,0-.49.4,4.43,4.43,0,0,1-.67.53,2.73,2.73,0,0,1-.67.59c0,.31-.13.44-.27.49a1,1,0,0,0-.44.31.18.18,0,0,0-.18.13c0,.09-.18.32-.41.76a.72.72,0,0,1-.35.18,1,1,0,0,1-.49.76c-.09.18-.41.67-.9,1.61a1.06,1.06,0,0,1-.27.18,1.67,1.67,0,0,1-.17.31,1.83,1.83,0,0,0-.18.31c-.05,0-.09.09-.14.23a.33.33,0,0,1-.22.26v.41a3.44,3.44,0,0,0-.58,1.29,1.38,1.38,0,0,1-.22.36c-.09.18-.18.27-.23.27a.54.54,0,0,1-.22.67,3.38,3.38,0,0,1-.13.8,1.77,1.77,0,0,0-.05.81,4.67,4.67,0,0,0-.58.89,1.54,1.54,0,0,1,0,.45,1.08,1.08,0,0,0,.05.53.87.87,0,0,1-.05.31l-.13.45.22.76a1.1,1.1,0,0,1,0,.58,1.74,1.74,0,0,1-.13.49,2.18,2.18,0,0,1,.18,1.07l.27,1a.68.68,0,0,1,0,.26.92.92,0,0,0,0,.27l.4,1.43c0,.32-.09.45,0,.54a8.49,8.49,0,0,1,.5,1.07,3.43,3.43,0,0,1,.49.67c.31.13.49.22.53.36l.09.36a1.41,1.41,0,0,1,.54.53,2.24,2.24,0,0,0,.44.45c.14.18.18.31.23.36a1.23,1.23,0,0,1,.4.31,1.27,1.27,0,0,0,.27.53l.49.27s.09.14.18.27a1.06,1.06,0,0,1,.18.27l1,.53c.13,0,.31.18.54.45.44.22,1,.49,1.56.81a.88.88,0,0,0,.4.4,2.91,2.91,0,0,1,.18.35.46.46,0,0,1,.4.09c.14.09.22.18.31.23a.82.82,0,0,0,.45.22.59.59,0,0,1,.31.18.85.85,0,0,1,.18.27l.49.27a2.39,2.39,0,0,0,.32.31,1.09,1.09,0,0,0,.4,0c.22,0,.36,0,.45,0s.26.18.49.44a1.16,1.16,0,0,1,.53,0,1.05,1.05,0,0,0,.63,0,.54.54,0,0,1,.31.09l.45.14.67-.18a3.59,3.59,0,0,1,.94,0l1.6-.44a2.66,2.66,0,0,1,.58-.27,1.67,1.67,0,0,1,.76-.09,10.34,10.34,0,0,0,1.79-.58l.85-.22a.73.73,0,0,1,.18-.23,2.42,2.42,0,0,1,.31-.13,3.64,3.64,0,0,0,.72-.31c.26-.14.49-.23.67-.32a.71.71,0,0,1,.31-.31l.67-.18a7.25,7.25,0,0,1,1.16-1,1.13,1.13,0,0,1,.31-.4,2.74,2.74,0,0,1,.36-.18,1.06,1.06,0,0,1,.22-.31.79.79,0,0,0,.18-.4,3,3,0,0,1,.27-.18.92.92,0,0,1,.09-.45c.22-.4.36-.67.4-.71a1.22,1.22,0,0,1,.23-.36,2,2,0,0,1,.22-.36,1,1,0,0,1,.22-.35c.09-.18.18-.27.22-.36s.14-.22.23-.36a1.53,1.53,0,0,1,.31-.4,1,1,0,0,1,0-.49.71.71,0,0,0,.09-.49,1.86,1.86,0,0,0,.35-.63,1,1,0,0,1,.32-.71.74.74,0,0,1,.22-.67c0-.14,0-.32.09-.54a1.22,1.22,0,0,0,0-.54s.09-.08.13-.22.09-.13.14-.22.09-.09,0-.18l-.13-.49a1.07,1.07,0,0,1,0-.31c0-.14.09-.27,0-.32l-.14-.49a1.3,1.3,0,0,0,.09-.58,1.47,1.47,0,0,1,.18-.71v-.72a3.58,3.58,0,0,0-.13-.58,1.23,1.23,0,0,0-.18-.31,1.44,1.44,0,0,1-.18-.31.75.75,0,0,1-.09-.54,1.6,1.6,0,0,0,0-.36l-.22-.76c-.18-.22-.31-.35-.31-.44l-.18-.67a.85.85,0,0,1,0-.27q.07-.21,0-.27s-.09-.36-.26-.94a5.29,5.29,0,0,0-.27-.94c-.09,0-.14-.13-.23-.22a2.53,2.53,0,0,0-.13-.22l-.09-.32a3.56,3.56,0,0,1-.31-.4,2.21,2.21,0,0,1-.18-.36,1.24,1.24,0,0,1-.31-.26,2.12,2.12,0,0,1-.23-.41,2.21,2.21,0,0,1-.58-.62,2.84,2.84,0,0,0-.49-.63c-.09,0-.22-.13-.44-.22a1.54,1.54,0,0,1-.5-.31,5,5,0,0,0-.49-.45,1.18,1.18,0,0,1-.4-.45,3.68,3.68,0,0,1-1-.58.76.76,0,0,1-.4-.4,1.5,1.5,0,0,1-.5-.22c-.17-.14-.26-.18-.35-.14s-.14-.17-.32-.31l-.17-.18a.51.51,0,0,1-.23-.13,3.12,3.12,0,0,0-.4-.36.68.68,0,0,1-.31-.36,1.17,1.17,0,0,1-.54,0,.88.88,0,0,1-.4-.4.61.61,0,0,1-.45-.09c-.09-.05-.22-.14-.4-.23a2.86,2.86,0,0,1-.45-.26,2.69,2.69,0,0,1-1-.23.66.66,0,0,1-.76-.18,1,1,0,0,1-.71,0,1.33,1.33,0,0,1-.67-.22c-.23.13-.41.13-.54,0a.6.6,0,0,1-.58,0l-1.34.36a.75.75,0,0,1-.27-.05.63.63,0,0,0-.27,0l-1.07.31a1.22,1.22,0,0,0-1.25.22A1,1,0,0,1,626.22,1486.34Z" transform="translate(-78.85 -837)"/><path class="cls-32" d="M652.57,1475.93a1.08,1.08,0,0,1,.18,1,9.47,9.47,0,0,1,.49,1.56c.18.76.27,1.25.36,1.52v.27a.58.58,0,0,1-.09.27l.54,1.92a.56.56,0,0,1,0,.49c.14.18.18.31.23.36l.58,2.09a.41.41,0,0,0,0-.31,1.64,1.64,0,0,0-.09-.27,2.68,2.68,0,0,1,.22-.35,1.25,1.25,0,0,1,.22-.36,3.38,3.38,0,0,1,0-.54.29.29,0,0,1,.09-.22.33.33,0,0,0,0-.36c.14-.31.18-.49.14-.53a1.66,1.66,0,0,0,.4-1.17.84.84,0,0,0,.22-.35.5.5,0,0,0,.23-.14c0-.09,0-.13.09-.13a5,5,0,0,0,.08-.85c.23-.4.45-.63.63-.67a.72.72,0,0,0,.09-.27v-.27a2.81,2.81,0,0,0,.36-.49c.13-.22.22-.4.27-.49v-.27a.61.61,0,0,1,.08-.26,3.38,3.38,0,0,0,.36-.54c.14,0,.23-.13.31-.4,0,0,.18-.18.41-.4a1.9,1.9,0,0,0,.8-.85,4,4,0,0,0,.36-.23,1.52,1.52,0,0,0,.31-.71c.22-.14.4-.22.45-.31a.17.17,0,0,1,.09-.18.84.84,0,0,0,.22-.14l.58-.13c.05,0,.14-.09.27-.18a.94.94,0,0,1,.36-.18l.89-.53c.13,0,.36-.09.67-.18a1.12,1.12,0,0,1,.63-.05,5.17,5.17,0,0,1,1.2-.44,5.62,5.62,0,0,0,2.06-.45.7.7,0,0,1,.53,0l.58-.13a1.47,1.47,0,0,0,.58.09c.32,0,.54,0,.67,0l.76-.22a2.26,2.26,0,0,0,.63.18c.27,0,.4,0,.49.13a2,2,0,0,1,.67.14.73.73,0,0,1,.27,0l.31.14a1.5,1.5,0,0,1,.67,0,1.37,1.37,0,0,0,.58,0c.18.14.45.31.81.54a5.49,5.49,0,0,0,.89.44,1.37,1.37,0,0,1,.85.41s.13,0,.18,0,.13,0,.22.09a7,7,0,0,0,.85.49,2.42,2.42,0,0,0,.31.13c.09,0,.18.09.18.13.31.14.49.23.49.27s.18,0,.4,0a6.33,6.33,0,0,0,1.39.85.39.39,0,0,1,.18.18.24.24,0,0,1,.09.18,4.87,4.87,0,0,1,.44.27,1.37,1.37,0,0,0,.54.22,1.77,1.77,0,0,0,.45.58,4,4,0,0,1,.53.49,1.16,1.16,0,0,1,.23.14,1.06,1.06,0,0,1,.22.13,2.52,2.52,0,0,0,.45.49,3.67,3.67,0,0,0,.49.49c.22.23.35.36.35.41l.09.4a.69.69,0,0,1,.27.27,1.08,1.08,0,0,1,.18.31,1.83,1.83,0,0,1,.31.18.92.92,0,0,1,.32.26,1.43,1.43,0,0,0,.26.54,2.06,2.06,0,0,1,.27.63c.09,0,.18.17.31.44a1.45,1.45,0,0,1,.23.49.58.58,0,0,0,.22.27c.14.09.22.18.36.27l.27,1.07a.37.37,0,0,0,.18.27c.08,0,.13.09.13.18a2.42,2.42,0,0,0,.13.31.62.62,0,0,1,.09.23l.18.58a.44.44,0,0,0,.14.22.65.65,0,0,1,.17.22,4.37,4.37,0,0,1-.26,1.92,2.93,2.93,0,0,1-1.39.58,1.14,1.14,0,0,1-.58-.22,1.18,1.18,0,0,1-.54,0,1.11,1.11,0,0,0-.17-.32c-.09-.13-.18-.22-.18-.31l-.23-.85a.78.78,0,0,0-.17-.31.83.83,0,0,1-.18-.22,1,1,0,0,1,0-.59.59.59,0,0,1-.22-.53,2,2,0,0,1-.4-.72,1.25,1.25,0,0,1-.36-.53q-.33-.4-.27-.54a.7.7,0,0,1-.22-.18.44.44,0,0,0-.23-.17l-.13-.59-.45-.4a.59.59,0,0,0-.35-.49c0-.13,0-.27-.09-.4s-.14-.14-.36-.22-.18-.27-.18-.36a5.24,5.24,0,0,1-.58-.36,2.68,2.68,0,0,0-.58-.36c-.22-.27-.4-.44-.54-.44s-.09-.18-.22-.32-.22-.22-.22-.31-.36-.22-.85-.49c0,0-.09-.13-.22-.27a1.23,1.23,0,0,1-.23-.22l-.31-.14a.32.32,0,0,0-.27,0c0-.13-.18-.22-.4-.31a4.8,4.8,0,0,0-.45-.22,2.67,2.67,0,0,1-.44-.23,1.49,1.49,0,0,1-.59-.22.85.85,0,0,0-.53-.09,4.8,4.8,0,0,0-.45-.22,2.81,2.81,0,0,0-.44-.22s-.18-.09-.45-.09a1.22,1.22,0,0,0-.58-.36,1.27,1.27,0,0,1-.58-.45l-.45-.09c0,.05-.13.05-.31.05s-.23,0-.27-.05a2.38,2.38,0,0,0-.36-.13c-.18,0-.35-.09-.49-.14a1.38,1.38,0,0,0-.49,0,1.56,1.56,0,0,1-.45,0,.88.88,0,0,0-.44-.09c-.23,0-.41,0-.54,0l-.67.17a2.18,2.18,0,0,1-.4,0,2.65,2.65,0,0,1-.45-.13l-1.43.4a2.43,2.43,0,0,0-1.92.53l-.85.23s-.13.09-.22.18a.78.78,0,0,1-.31.17,1.16,1.16,0,0,1-.14.23.18.18,0,0,1-.18.13s-.13.09-.17.22a.17.17,0,0,1-.23.09,1.17,1.17,0,0,1-.13.23c0,.09-.09.13-.09.18s-.09.09-.22.17a.65.65,0,0,0-.27.14,14.87,14.87,0,0,1-1.12,1.25l-.67,1.21a1.17,1.17,0,0,0-.27.35.37.37,0,0,1-.18.27.52.52,0,0,1-.09.31c0,.14-.17.27-.26.27a.68.68,0,0,1,0,.4,1.22,1.22,0,0,0-.36.58,6.23,6.23,0,0,1-.36.59c.05.13,0,.26,0,.49a1,1,0,0,0-.09.49c-.14.09-.18.22-.27.4a.53.53,0,0,1-.18.27,3.55,3.55,0,0,0-.22.76c-.05,0-.09.09-.14.27a.84.84,0,0,1-.09.4c.09,0,.14.18.09.4a.79.79,0,0,0-.13.54.68.68,0,0,1-.27.58,3.59,3.59,0,0,1,0,.94l.13.49a1.45,1.45,0,0,0-.13.35c0,.14,0,.27,0,.32a.68.68,0,0,0,0,.35c0,.18,0,.27-.09.27a3,3,0,0,1,.09.76,1.55,1.55,0,0,0,.18.72,1.66,1.66,0,0,0,0,.53l.17.67-.09.45a1.67,1.67,0,0,1,0,.62c-.13.23-.31.5-.49.76a.68.68,0,0,1,0,.63l.23.76a1.16,1.16,0,0,1,0,.53l1.12,4.11a.78.78,0,0,1-.05.54,1.13,1.13,0,0,1,.32.4,6.37,6.37,0,0,0,.44,1.61s.09.13.18.22.14.14.14.23c.08.35.26,1,.53,1.83s.4,1.47.49,1.79c.05.08,0,.13,0,.26.09-.26.09-.17.09-.09a3.65,3.65,0,0,1,.14.5,2.3,2.3,0,0,1,.08.4,2.2,2.2,0,0,0,.32.44l.31,1.17a.77.77,0,0,0,.22.31c.09.09.18.13.23.22l.35,1.34-.09.45a.7.7,0,0,0-.08.27c0,.09-.05.18-.09.18s-.14.22-.23.35-.18.27-.22.36a3.22,3.22,0,0,1-1.52.4,2.7,2.7,0,0,1-.31-.22.83.83,0,0,0-.4-.18,10.47,10.47,0,0,0-.72-1,4.21,4.21,0,0,1-.18-1.78,2.22,2.22,0,0,1-.22-.45c-.54-1.92-.85-3.17-1-3.75a.55.55,0,0,1,0-.36.28.28,0,0,0-.09-.31.43.43,0,0,0-.09-.4c-.09-.14-.13-.18-.18-.27a3.77,3.77,0,0,0-.53-1.21,2,2,0,0,1,0-.8q-.35-1.14-1.48-5.36a.47.47,0,0,1,0-.27v-.27l-.45-1.61a.71.71,0,0,1,.09-.44.62.62,0,0,0-.09-.23,1.06,1.06,0,0,1-.18-.27,1.53,1.53,0,0,1-.17-.44,4.53,4.53,0,0,0-.14-.54.67.67,0,0,0-.09-.22,1.17,1.17,0,0,0-.13-.23s-.09-.4-.18-1.07a15.78,15.78,0,0,0-.31-1.56c0-.09-.09-.13-.18-.27a1.56,1.56,0,0,1-.23-.36,1.1,1.1,0,0,1,.14-.67.55.55,0,0,1,0-.4.41.41,0,0,0,0-.31c-.05-.14-.09-.36-.22-.76a6.31,6.31,0,0,0-.27-.94,1.12,1.12,0,0,0-.36-.53,1.51,1.51,0,0,1-.09-.81c-.09,0-.18-.31-.36-1s-.27-1-.31-1.12a.92.92,0,0,1,0-.27.48.48,0,0,0,.05-.26,5.35,5.35,0,0,1-.54-1.21,1.4,1.4,0,0,0,.05-.54l-.27-1.07c-.22-.22-.31-.36-.31-.45a2.1,2.1,0,0,1-.14-1.29s0-.13-.18-.27a1.26,1.26,0,0,1-.22-.45,2,2,0,0,1,.27-1.2,4.55,4.55,0,0,1,1.56-.63.47.47,0,0,1,.36,0,2,2,0,0,0,.27.09A2.16,2.16,0,0,1,652.57,1475.93Z" transform="translate(-78.85 -837)"/><path class="cls-32" d="M730.39,1453.87a2.26,2.26,0,0,0,1-.18c.54-.14.89-.22,1-.27s.13-.09.22-.18a.87.87,0,0,1,.22-.18c.09,0,.49-.13,1.34-.35a1.23,1.23,0,0,0,.32-.18,1.8,1.8,0,0,1,.4-.23.61.61,0,0,1,.53-.09.68.68,0,0,0,.45,0,1,1,0,0,0,.4-.26.54.54,0,0,1,.41-.18.45.45,0,0,1,.44-.09c.18,0,.31.09.4,0a.84.84,0,0,0,.36-.26.3.3,0,0,1,.36-.14.33.33,0,0,1,.4,0c.14,0,.22,0,.22,0l.94-.27a4.11,4.11,0,0,1,.54,0,1.32,1.32,0,0,1,.62-.22,4.6,4.6,0,0,0,.63-.13c.09,0,.13,0,.22-.18s.14-.14.23-.14c1.78-.49,2.86-.8,3.26-.89a2.73,2.73,0,0,1,1.38.53c0,.05.09.36.23.85a.94.94,0,0,1-.05.32v.4a1.24,1.24,0,0,0-.18.45,1.64,1.64,0,0,1-.18.44c0,.09-.26.18-.62.27-.09.18-.36.27-.76.31a1.65,1.65,0,0,1-.27,0,.73.73,0,0,0-.31,0s-.14,0-.32,0-.31.14-.4.18h-.31a.63.63,0,0,0-.27,0,.75.75,0,0,1-.27-.05.59.59,0,0,0-.26,0l-2.95.8c-.05,0-.14.09-.27.18a.54.54,0,0,1-.36.18h-.71a7.61,7.61,0,0,1-1.79.27,1,1,0,0,1-.45.31l-2.1.58a.83.83,0,0,0-.22.18.87.87,0,0,1-.22.18l-2.59.71a.89.89,0,0,0,0,.89l.27,1.08s0,.18,0,.31a.4.4,0,0,0,0,.31c.18.58.22.9.27,1a.55.55,0,0,1,0,.36.26.26,0,0,0,0,.27c0,.18.13.45.22.8a7.81,7.81,0,0,0,.27.9,1.37,1.37,0,0,1,0,.58L733,1466a.53.53,0,0,1,0,.35.52.52,0,0,0,0,.27l.72,2.59a.69.69,0,0,1-.05.27.92.92,0,0,0,0,.27.69.69,0,0,0,.18.31c.09.09.13.14.13.23.09.26.18.71.36,1.34s.31,1.11.4,1.43c0,0,.05.13.18.22a.87.87,0,0,1,.18.22c.18.94.27,1.43.18,1.48a1.12,1.12,0,0,1,.35.53.45.45,0,0,1,0,.36q-.06.19,0,.27a4.22,4.22,0,0,0,.32,1.38c.26.85.4,1.3.44,1.39s.09.13.18.27a1.75,1.75,0,0,1,.23.35,1.57,1.57,0,0,1,0,.45.52.52,0,0,0,0,.36.3.3,0,0,0,.13.35c.14.09.23.18.23.23l1.38,5.09a1.86,1.86,0,0,1,.36.94.4.4,0,0,0,.13.22.85.85,0,0,1,.18.27,2.18,2.18,0,0,1,.14.54c0,.26.13.4.13.49a.92.92,0,0,1,0,.27.68.68,0,0,0,0,.26l.27,1a1.4,1.4,0,0,1-.22.67,1.37,1.37,0,0,0-.18.44,1,1,0,0,0-.36.27.74.74,0,0,1-.36.27,3,3,0,0,1-1.78-.45s-.14-.22-.32-.53a1.59,1.59,0,0,1-.27-.76,1.14,1.14,0,0,1,0-.36v-.27a2.94,2.94,0,0,1-.4-1.12v-.53a7.38,7.38,0,0,0-.49-1.43l-.63-2.28s0-.13,0-.22v-.27a1.89,1.89,0,0,0-.14-.72c-.13-.35-.22-.62-.27-.8a.67.67,0,0,0-.09-.22.79.79,0,0,1-.08-.23c-.09-.35-.32-1.07-.54-2s-.45-1.65-.58-2.1a.54.54,0,0,1,0-.4,1.21,1.21,0,0,1-.31-.85.85.85,0,0,1,0-.35,1.23,1.23,0,0,0,0-.36.67.67,0,0,0-.14-.27,2.74,2.74,0,0,1-.13-.27c-.27-1.2-.4-1.87-.4-1.92a1.33,1.33,0,0,1-.32-.85c-.26-.22-.4-.35-.35-.53v-.72c-.09-.31-.23-.85-.41-1.52s-.31-1.16-.4-1.43a13.27,13.27,0,0,0-.58-2.41,3.3,3.3,0,0,1,0-.53.77.77,0,0,0-.18-.32.69.69,0,0,1-.18-.31l-.14-.58a.55.55,0,0,1,0-.36.6.6,0,0,0,.05-.27l-.85-3.08a.92.92,0,0,1,0-.27.58.58,0,0,0,0-.26c0-.14-.13-.36-.27-.81a2.16,2.16,0,0,1-.18-.89l-1.61.44a1.14,1.14,0,0,1-.31,0,.55.55,0,0,0-.49.09.52.52,0,0,0-.36.13c-.09.14-.18.23-.22.23l-4.87,1.34a.4.4,0,0,0-.22.13.62.62,0,0,1-.23.09l-4,1.12s-.13.09-.22.18-.13.13-.22.13-.67.18-1.48.45a3.94,3.94,0,0,1-1.38.31,1.06,1.06,0,0,1-.72-.4,3.17,3.17,0,0,1-.4-1.43,5.9,5.9,0,0,1,1.12-1.21l.94-.27a8.43,8.43,0,0,1,.8-.44,1,1,0,0,1,.63,0l2.18-.62a3.13,3.13,0,0,1,.9-.45s.13-.09.27-.18a.91.91,0,0,1,.35-.22.69.69,0,0,1,.45,0,.52.52,0,0,0,.36,0s.13-.09.22-.18a.7.7,0,0,1,.22-.18l5.72-1.56c.05,0,.14-.09.27-.18a.34.34,0,0,1,.36-.09c.09-.09.22-.09.4,0s.13,0,.18,0l.85-.22s.09-.13.13-.36c0,0,0-.09,0-.18s0-.22-.09-.31,0-.22-.09-.44a2,2,0,0,1-.18-.54,1.74,1.74,0,0,1,0-.54,3.78,3.78,0,0,1,0-.49v-.31a1.84,1.84,0,0,1,.18-.45,1.64,1.64,0,0,1,.18-.44l-.23-.76a1,1,0,0,1,.09-.41.79.79,0,0,0,.09-.4,1.37,1.37,0,0,1,0-.58,1.65,1.65,0,0,1,.14-.49l.4-.4c0-.14.09-.36.13-.58a.82.82,0,0,0,.05-.54c0-.09.13-.18.18-.31a.61.61,0,0,1,.13-.27v-.54a1.22,1.22,0,0,1,.22-.26.62.62,0,0,0,.23-.27c.13-.31.26-.49.44-.54a1.74,1.74,0,0,1,.36-1,1.64,1.64,0,0,0,.4-.8.46.46,0,0,1,.23-.18.51.51,0,0,0,.17-.14s0-.13,0-.22a.58.58,0,0,1,.09-.27,4.31,4.31,0,0,0,.89-1.16s0-.13.23-.27.13-.18.22-.36.18-.26.22-.35a.64.64,0,0,0,.36-.54,2.88,2.88,0,0,0,.49-.45,2.2,2.2,0,0,1,.31-.35,1.71,1.71,0,0,1,.54-.32,2.35,2.35,0,0,1,.4-.8,3.93,3.93,0,0,0,.67-.49,1.67,1.67,0,0,0,.81-.54,7.75,7.75,0,0,0,1.16-.93l1.07-.32a3.45,3.45,0,0,0,.76-.62,1.56,1.56,0,0,0,.94-.36,2.94,2.94,0,0,1,.44-.13l.49-.14a.85.85,0,0,1,.45,0c.05-.09.18-.13.4-.22l.58-.14.54-.13a2,2,0,0,0,1.07-.18.92.92,0,0,0,.45.09.77.77,0,0,1,.4.09l.4-.09a2.43,2.43,0,0,0,1.3,0l.71.31.49-.14a8,8,0,0,1,1.08.14s.18,0,.4,0a1.3,1.3,0,0,0,.62,0,4.76,4.76,0,0,0,.5.27,2.57,2.57,0,0,1,.58.18.75.75,0,0,1,.49.09,1,1,0,0,0,.49.09s.13,0,.22.09.18.09.32,0a4.2,4.2,0,0,0,.53.18c.36.31.54.49.63.49s.18,0,.49.14a1.59,1.59,0,0,0,.49.31,1.59,1.59,0,0,1,.49.31,1.62,1.62,0,0,1,.72.23,1,1,0,0,0,.62.13,3.92,3.92,0,0,0,.85.49l.18.36a.31.31,0,0,1,.18,0s.13.09.18.14a2.88,2.88,0,0,1,.17.27,1,1,0,0,1,.23.35l.35.23.36.22s.05.09.14,0a3.4,3.4,0,0,1,.35.41c.14.17.27.31.36.4a.86.86,0,0,1,.4.4,4.86,4.86,0,0,0,.41.31,1.87,1.87,0,0,0,.17.36,2.72,2.72,0,0,1,.27.54l.58.58a3.37,3.37,0,0,0,.63,1.16,3.05,3.05,0,0,0,.8,1.12.77.77,0,0,1,.14.49,3.12,3.12,0,0,1,.58.58l.31,1.16a2,2,0,0,1-.54,1.07,3.27,3.27,0,0,1-1.16.31,2.12,2.12,0,0,1-1-.53,3.8,3.8,0,0,1-.13-.58s-.18-.23-.54-.49a6.45,6.45,0,0,0-.54-.9,2.29,2.29,0,0,0-.18-.35,1.66,1.66,0,0,1-.22-.45,2.15,2.15,0,0,1-.49-.58,6.62,6.62,0,0,1-.63-.76s-.08-.18-.26-.36a3.4,3.4,0,0,1-.32-.53,3.46,3.46,0,0,0-.71-.76,1.85,1.85,0,0,1-.4-.32c-.05-.13-.09-.22-.23-.27l-.17-.08s-.05-.09-.14-.23a.65.65,0,0,1-.18-.27,1.79,1.79,0,0,0-.71-.4,1.12,1.12,0,0,1-.31-.27,4.1,4.1,0,0,0-.32-.26,2.6,2.6,0,0,0-.67-.14,1,1,0,0,0-.4-.31,2.23,2.23,0,0,1-.36-.22c-.4-.18-.62-.27-.67-.23-.27-.13-.44-.18-.58-.13-.4-.22-.62-.36-.71-.4a.46.46,0,0,1-.4-.09c-.14-.09-.23-.18-.32-.23a.94.94,0,0,1-.53,0,1.67,1.67,0,0,0-.63,0c-.27-.18-.45-.31-.58-.26l-.58-.27a.68.68,0,0,1-.4,0c-.14,0-.27,0-.32,0s-.22-.14-.67-.23c-.09,0-.13,0-.26,0a.22.22,0,0,1-.27,0s-.18,0-.31,0-.23-.09-.23-.13-.31.09-.71,0l-.67.18h-.4a.82.82,0,0,0-.5.13,1,1,0,0,0-.44-.09.89.89,0,0,1-.45-.09s-.13.09-.27.18-.18.18-.27.18-.4.09-.8.22-.71.18-.89.23-.14.09-.23.18a.65.65,0,0,1-.22.17l-.94.27a1.16,1.16,0,0,0-.53.36.78.78,0,0,1-.54.27l-.67.58a2.75,2.75,0,0,1-.8.85,4.62,4.62,0,0,1-.81.76c-.09,0-.09.09-.13.27s0,.26-.14.26a.72.72,0,0,1-.26.27c-.14.09-.23.18-.18.27a.87.87,0,0,0-.23.22c-.09.14-.17.23-.26.23-.14.22-.36.62-.72,1.16a9.73,9.73,0,0,0-.67,1.34.4.4,0,0,0-.22.13.48.48,0,0,0-.18.22l-.31.81a2.6,2.6,0,0,0-.54,1.07c-.13,0-.22.18-.31.4a.63.63,0,0,1-.4.41.81.81,0,0,1,0,.44,3.17,3.17,0,0,1-.18.4,4,4,0,0,1-.23.36,3.42,3.42,0,0,1-.22,1.07l.13.49a1.83,1.83,0,0,0-.09.76,1.08,1.08,0,0,0-.17.67,1,1,0,0,1-.18.67l.18.67v.36A1.12,1.12,0,0,0,730.39,1453.87Z" transform="translate(-78.85 -837)"/><path class="cls-32" d="M769.7,1444l0-.13a8.7,8.7,0,0,1,1,0l1.34-.36a.69.69,0,0,1,.27,0,.63.63,0,0,0,.27,0l.49-.13a1.74,1.74,0,0,0,.54,0l.58-.13a1.09,1.09,0,0,0,.4,0,.65.65,0,0,1,.45,0,1.09,1.09,0,0,0,.4,0,1.14,1.14,0,0,1,.45,0,11,11,0,0,0,1.47.22.68.68,0,0,1,.36.22,5.48,5.48,0,0,1,.58-.13c.89.49,1.43.8,1.56.89s.09.09.23.09a.57.57,0,0,1,.31.09,1.62,1.62,0,0,1,.31.27c.14.14.22.22.22.27a1.36,1.36,0,0,1,.76.36,5.92,5.92,0,0,0,.76.44c.09.14.18.23.18.27a2.13,2.13,0,0,1,.54.31c.22.18.36.27.44.23a1,1,0,0,0,.27.35.67.67,0,0,1,.27.36,1.47,1.47,0,0,1,.85.49,1.07,1.07,0,0,0,.45.09c.17.14.62.63,1.29,1.39l1.12.62a.22.22,0,0,0,.13.18c.09,0,.09.09.05.18.18.18.4.4.71.67s.49.49.58.63a1.29,1.29,0,0,0,.23.35,4.08,4.08,0,0,1,.22.54,2.3,2.3,0,0,1,.31.4,1.1,1.1,0,0,0,.31.45l.54,2a.78.78,0,0,0,.31.4l.32,1.16c0,.05.09.14.17.23a.6.6,0,0,1,.18.22,3.11,3.11,0,0,1,.09,1.12l.14.35a.66.66,0,0,0,.13.27,1.78,1.78,0,0,1,0,.58l.67,2.5a.2.2,0,0,0-.14.18.92.92,0,0,0,0,.27,2.35,2.35,0,0,1-.18.45s0,.17,0,.4a.79.79,0,0,0,.13.49,3.28,3.28,0,0,0,0,1.34.69.69,0,0,0-.18.45.48.48,0,0,1-.09.35,1.29,1.29,0,0,1,0,.36,2.24,2.24,0,0,0,0,.49,1.47,1.47,0,0,0-.27.54,4.2,4.2,0,0,1-.18.53l0,.54a2.92,2.92,0,0,1-.18.31.35.35,0,0,0,0,.36,1.65,1.65,0,0,0-.36.94,4,4,0,0,0-.23.36.5.5,0,0,1-.31.31,1.84,1.84,0,0,1-.22,1c-.05,0-.09,0-.09.14a2,2,0,0,0-.09.22.53.53,0,0,1,0,.22.39.39,0,0,0,0,.23,4.87,4.87,0,0,1-.27.44.83.83,0,0,1-.4.36,13.27,13.27,0,0,1-.58,1.21c-.31.58-.58,1-.76,1.34a.87.87,0,0,1-.31.18s0,0,0,.17,0,.18-.09.18a4.43,4.43,0,0,0-.8.72,3,3,0,0,0-1,.89,1.9,1.9,0,0,0-.63.4l-.49.14a1.2,1.2,0,0,1-.8.4c-.09,0-.14.09-.23.18a.87.87,0,0,1-.22.18c-.49.13-.81.26-.89.44l-.67.18s-.14.09-.23.18l-.18.18c-.13,0-.35,0-.62.27l-1.07.31h-.41c-.76.22-2,.58-3.93,1.07a.92.92,0,0,1-.27,0,.68.68,0,0,0-.26,0l-.85.23a4.19,4.19,0,0,0-.9,0,.81.81,0,0,1-.53,0,1.49,1.49,0,0,1-.45.08,2.05,2.05,0,0,0-.53-.08,2.55,2.55,0,0,1-.76-.23,1.75,1.75,0,0,1-.72,0s0-.09-.13,0l-.09,0c-.31,0-.49-.09-.54,0-.27-.18-.44-.32-.49-.36s-.09-.13-.22-.18-.23-.18-.23-.31a3.38,3.38,0,0,0-.44-.09c-.14,0-.27,0-.36-.09a6.69,6.69,0,0,0-.67-.54c-.4-.18-.63-.31-.63-.44a.93.93,0,0,1-.58-.18c0-.27-.13-.4-.13-.49s-.09-.23-.22-.23a2.1,2.1,0,0,1-.32-.13,1.49,1.49,0,0,0-.44-.18,2.69,2.69,0,0,1-.32-.4s-.17-.09-.4-.31a7.78,7.78,0,0,0-1.2-.72s-.09-.13-.23-.22a.47.47,0,0,1-.22-.36,4.74,4.74,0,0,1-.45-.36,1.84,1.84,0,0,0-.53-.31.64.64,0,0,0-.36-.4.67.67,0,0,1-.36-.31,1,1,0,0,1-.22-.36,13.87,13.87,0,0,0-1-1.16.54.54,0,0,0-.18-.41,1.09,1.09,0,0,1-.27-.4,1.13,1.13,0,0,1-.4-.31,1.06,1.06,0,0,1-.27-.18c-.09-.09-.17-.13-.22-.09a4.71,4.71,0,0,0-.31-.45,6.64,6.64,0,0,0-.58-1.38,1.44,1.44,0,0,0-.18-.71,3.66,3.66,0,0,1-.31-.72,2.3,2.3,0,0,1,0-.67,4.07,4.07,0,0,0,0-.76,1.07,1.07,0,0,0,.09-.45l-.36-1.25a2,2,0,0,0-.09-.8.94.94,0,0,0,.09-.4,2.6,2.6,0,0,1,0-.36v-.36a.64.64,0,0,1,0-.35l-.27-.94a4.14,4.14,0,0,1,.22-.67,7.23,7.23,0,0,1-.26-1.08l.17-.35a.72.72,0,0,1,.18-.27.18.18,0,0,1,.09-.18c.09,0,.14-.13.09-.18a.39.39,0,0,1,.14-.27v-.49a.27.27,0,0,0,.09-.22.73.73,0,0,1,0-.31,1.14,1.14,0,0,1,0-.36,1.27,1.27,0,0,1,0-.36,1.57,1.57,0,0,0,.09-.36.64.64,0,0,1,0-.31.29.29,0,0,1,.09-.22.29.29,0,0,0,.09-.22,1.1,1.1,0,0,1,.31-.41,1.57,1.57,0,0,1,.4-.85.67.67,0,0,1,0-.4,2.87,2.87,0,0,1,.36-.71,2.6,2.6,0,0,0,.36-.81c0-.09.13-.22.22-.44a1.26,1.26,0,0,1,.36-.45.92.92,0,0,1,.09-.45,1.85,1.85,0,0,0,.8-1.16s.14-.09.23-.18.13-.13.22-.13a4,4,0,0,0,.27-.72c.09-.31.13-.49.09-.53a1.46,1.46,0,0,0,.71-.81c.09,0,.13,0,.18,0s.13,0,.18,0a6.05,6.05,0,0,1,.89-1s.18-.13.4-.4a4.22,4.22,0,0,1,.36-.49,3.28,3.28,0,0,0,1-1.12c.09,0,.22-.13.44-.31l.59-.18a2.42,2.42,0,0,0,.31-.13c.09-.05.13-.09.09-.18.13,0,.27,0,.31-.14a.39.39,0,0,1,.22-.22,1.31,1.31,0,0,0,.85-.31l1.52-.45a.53.53,0,0,0,.22-.09C769.57,1444,769.61,1444,769.7,1444Zm-.44,3.31-.58.13a2.22,2.22,0,0,1-.63.36c-.18.18-.27.27-.36.22l-.31.31s-.22.14-.49.41a5.19,5.19,0,0,1-.67.53,1.62,1.62,0,0,1-.67.58c0,.32-.14.45-.27.49a1.3,1.3,0,0,0-.45.32s-.09,0-.18.13-.17.31-.4.76a2.21,2.21,0,0,1-.36.18,1,1,0,0,1-.49.76c-.09.18-.4.67-.89,1.56a.85.85,0,0,1-.27.18,1.83,1.83,0,0,1-.18.31,1.35,1.35,0,0,1-.18.32.21.21,0,0,0-.13.22.36.36,0,0,1-.22.27.15.15,0,0,1,0,.18v.22A2.84,2.84,0,0,0,761,1457a2.12,2.12,0,0,1-.23.36c-.09.18-.18.27-.22.27a.54.54,0,0,1-.22.67,3,3,0,0,1-.14.8,1.63,1.63,0,0,0,0,.81,5.06,5.06,0,0,0-.58.89,1.57,1.57,0,0,1,0,.45,1.87,1.87,0,0,0,.05.53.94.94,0,0,1-.05.32l-.13.44.22.76a1.11,1.11,0,0,1,0,.58,1.64,1.64,0,0,1-.13.49,2.22,2.22,0,0,1,.18,1.08l.26.93a.85.85,0,0,1,0,.27.52.52,0,0,0,0,.27l.41,1.43c0,.31-.09.45,0,.54a5.46,5.46,0,0,1,.49,1.11,1.88,1.88,0,0,1,.49.67,1.15,1.15,0,0,1,.54.36l.09.4a1.53,1.53,0,0,1,.54.54,2,2,0,0,0,.44.45.72.72,0,0,1,.18.35.93.93,0,0,1,.4.32,1.77,1.77,0,0,0,.27.53l.49.27s.09.13.18.27a.85.85,0,0,1,.18.27l1,.53a1.29,1.29,0,0,1,.54.49c.44.23,1,.49,1.56.81a.89.89,0,0,0,.4.4c.14.18.18.31.23.36a.43.43,0,0,1,.4.09c.13.09.22.17.31.22a.72.72,0,0,0,.4.27c.18,0,.32.09.32.18s.18.17.18.26l.49.27a1.9,1.9,0,0,0,.31.32,1.09,1.09,0,0,0,.4,0,1.66,1.66,0,0,1,.45,0c.09,0,.27.13.49.45a1,1,0,0,1,.54,0,1.62,1.62,0,0,0,.62,0,1.07,1.07,0,0,1,.31,0l.45.14.67-.18a3.61,3.61,0,0,1,.94,0l1.61-.45a2.42,2.42,0,0,1,.62-.26,1.49,1.49,0,0,1,.76-.09,11.93,11.93,0,0,0,1.79-.58l.85-.23a.7.7,0,0,1,.18-.22,1.93,1.93,0,0,1,.31-.13,6.59,6.59,0,0,0,.71-.27c.27-.14.49-.23.67-.31s.18-.27.32-.27l.67-.18a7.25,7.25,0,0,1,1.16-1c.13-.22.22-.36.31-.4a1.47,1.47,0,0,1,.36-.22,3.84,3.84,0,0,1,.22-.32.79.79,0,0,0,.18-.4s.13-.09.27-.18a1,1,0,0,1,.09-.44,7.5,7.5,0,0,1,.4-.72,3.53,3.53,0,0,1,.22-.36c.09-.13.18-.26.23-.35a1.9,1.9,0,0,1,.22-.36c.09-.18.18-.27.22-.36a1.22,1.22,0,0,1,.23-.36,2.55,2.55,0,0,1,.31-.4c0-.13,0-.27.09-.49a1.13,1.13,0,0,0,.09-.49,2.22,2.22,0,0,0,.36-.63,1,1,0,0,1,.31-.71.75.75,0,0,1,.22-.67c0-.14.09-.31.09-.54a.94.94,0,0,0,0-.53c.09,0,.09-.09.13-.23s.09-.13.14-.22a.13.13,0,0,0,0-.18l-.13-.49a.54.54,0,0,1,.09-.31c0-.14.09-.27,0-.32l-.13-.49a1.43,1.43,0,0,0,.09-.58,1.51,1.51,0,0,1,.18-.71V1462s-.09-.26-.14-.58a1.23,1.23,0,0,0-.18-.31.44.44,0,0,1-.17-.31.57.57,0,0,1-.09-.54c0-.18.09-.31,0-.36l-.22-.76c-.18-.22-.31-.35-.31-.44l-.18-.67a.85.85,0,0,1,0-.27.6.6,0,0,0,0-.27,7.62,7.62,0,0,0-.27-.94,4.45,4.45,0,0,0-.27-.94c-.09,0-.13-.13-.22-.17a.62.62,0,0,1-.09-.23l-.09-.26a2.31,2.31,0,0,1-.31-.41c-.14-.18-.18-.31-.23-.35a.86.86,0,0,1-.27-.27,2.3,2.3,0,0,1-.22-.4,2,2,0,0,1-.58-.63,6.18,6.18,0,0,0-.49-.63,3.2,3.2,0,0,0-.49-.22,1.48,1.48,0,0,1-.49-.31,5.45,5.45,0,0,0-.5-.45c-.22-.18-.35-.31-.35-.44a6.78,6.78,0,0,1-1-.54.94.94,0,0,1-.4-.4,1.61,1.61,0,0,1-.49-.23.78.78,0,0,0-.36-.17s-.09-.18-.31-.32c0-.09-.09-.13-.18-.18s-.18-.09-.18-.13a4.11,4.11,0,0,0-.4-.36.78.78,0,0,1-.31-.4,1.33,1.33,0,0,1-.54,0c-.22-.14-.4-.27-.4-.41a.57.57,0,0,1-.45-.09c-.09,0-.22-.13-.44-.22s-.36-.18-.4-.27a2.56,2.56,0,0,1-1-.22.63.63,0,0,1-.76-.22,1,1,0,0,1-.71,0,1.29,1.29,0,0,1-.67-.23.4.4,0,0,1-.54,0,.68.68,0,0,1-.62,0l-1.34.36a.85.85,0,0,1-.27,0,.52.52,0,0,0-.27,0l-1,.27a1.22,1.22,0,0,0-1.29.27C769.48,1447.08,769.39,1447.12,769.26,1447.26Z" transform="translate(-78.85 -837)"/><path class="cls-32" d="M810.22,1432.83l0-.09a3.55,3.55,0,0,1,1,0l1.34-.36a.85.85,0,0,1,.27,0,.69.69,0,0,0,.27,0l.49-.13a1.74,1.74,0,0,0,.54,0l.58-.13a1.09,1.09,0,0,0,.4,0,.65.65,0,0,1,.44,0,1.15,1.15,0,0,0,.41,0,1.21,1.21,0,0,1,.44,0,10.23,10.23,0,0,0,1.48.23.63.63,0,0,1,.36.22,3.74,3.74,0,0,1,.58-.13c.89.53,1.43.8,1.56.89s.09.09.22.09a.62.62,0,0,1,.32,0,1.73,1.73,0,0,1,.31.26c.13.14.22.23.22.27a2,2,0,0,1,.76.36,4,4,0,0,0,.8.45.64.64,0,0,1,.18.26,1.81,1.81,0,0,1,.54.32c.22.17.36.26.4.22a.78.78,0,0,0,.27.36.76.76,0,0,1,.27.35,1.5,1.5,0,0,1,.85.5,1.15,1.15,0,0,0,.44.08,16.64,16.64,0,0,1,1.3,1.39l1.12.63a.22.22,0,0,0,.13.17c.09,0,.09.09,0,.18.18.14.41.4.72.67s.49.49.58.63a2.74,2.74,0,0,0,.18.36,1.57,1.57,0,0,1,.27.53c.17.22.31.36.31.45a2,2,0,0,0,.31.44l.58,2a1.3,1.3,0,0,0,.31.45l.32,1.16a.51.51,0,0,0,.18.18c.09.09.13.14.13.22a3.27,3.27,0,0,1,.09,1.12c0,.14.09.22.13.36a.82.82,0,0,0,.14.27,2.39,2.39,0,0,1,0,.62l.67,2.5s-.09.09-.13.18a.75.75,0,0,0-.05.27,2.28,2.28,0,0,1-.17.45.64.64,0,0,1,0,.4.79.79,0,0,0,.13.49,3.4,3.4,0,0,0-.05,1.34.63.63,0,0,0-.17.45.54.54,0,0,1-.09.36,1.28,1.28,0,0,1,0,.35,2.24,2.24,0,0,0,0,.49,1.47,1.47,0,0,0-.27.54,1.81,1.81,0,0,1-.18.54l0,.53a1.49,1.49,0,0,0-.18.31.52.52,0,0,0,0,.36,2.09,2.09,0,0,0-.35.94c0,.09-.14.22-.23.36a.65.65,0,0,1-.31.31,2.06,2.06,0,0,1-.22,1,.15.15,0,0,0-.14.14c0,.09,0,.13-.09.22a.51.51,0,0,1,0,.22.39.39,0,0,0-.05.23c0,.09-.13.22-.26.44a.88.88,0,0,1-.41.36,13.27,13.27,0,0,1-.58,1.21c-.31.58-.58,1-.76,1.34a.87.87,0,0,1-.31.18s0,0,0,.17-.05.18-.09.18a5,5,0,0,0-.81.72,3.14,3.14,0,0,0-1,.89,5.33,5.33,0,0,0-.63.36l-.49.13a1.22,1.22,0,0,1-.8.45s-.14.09-.22.18a.9.9,0,0,1-.23.18c-.53.13-.8.26-.89.44l-.67.18a.42.42,0,0,0-.23.14.57.57,0,0,1-.22.17c-.13,0-.36,0-.67.27l-1,.27h-.4c-.76.22-2.05.58-3.93,1.07a.92.92,0,0,1-.27,0q-.2-.07-.27,0l-.84.22a3.32,3.32,0,0,0-.9,0,.61.61,0,0,1-.53-.09,1.38,1.38,0,0,1-.45.09s-.22,0-.54-.09a2,2,0,0,1-.71-.23,1.26,1.26,0,0,1-.72,0s0-.09-.13,0l-.09,0c-.31,0-.49-.09-.54,0-.26-.18-.4-.31-.49-.36s-.09-.13-.22-.18a.52.52,0,0,1-.22-.31c-.14,0-.27,0-.45-.09s-.27,0-.31-.09a6.69,6.69,0,0,0-.67-.54c-.4-.17-.58-.31-.63-.44a.71.71,0,0,1-.53-.18c0-.27-.14-.4-.14-.49s-.09-.22-.22-.22l-.31-.14-.45-.18c-.18-.22-.31-.36-.31-.44s-.18-.09-.41-.32a8.08,8.08,0,0,0-1.2-.71c0-.09-.09-.14-.23-.22a.47.47,0,0,1-.22-.36c-.09,0-.22-.18-.45-.36a1.63,1.63,0,0,0-.53-.31.62.62,0,0,0-.36-.4.64.64,0,0,1-.36-.32.53.53,0,0,1-.17-.35c-.63-.72-.94-1.12-1-1.17s0-.26-.18-.4a1.18,1.18,0,0,1-.27-.4c-.22-.13-.36-.22-.4-.31a1.06,1.06,0,0,1-.27-.18.29.29,0,0,0-.22-.09c0-.05-.14-.18-.31-.4a6.58,6.58,0,0,0-.59-1.39c.05-.13,0-.36-.17-.71s-.27-.58-.32-.72a1.81,1.81,0,0,1,0-.67,4.07,4.07,0,0,0,0-.76,1,1,0,0,0,.09-.44l-.31-1.25a2.09,2.09,0,0,0-.09-.81.94.94,0,0,0,.09-.4,2.83,2.83,0,0,1,0-.36v-.36a.81.81,0,0,1,0-.35l-.26-.94a4.14,4.14,0,0,1,.22-.67,8.16,8.16,0,0,1-.27-1.07c.05-.09.09-.18.18-.36a.69.69,0,0,1,.18-.27c0-.09,0-.13.09-.18s.13-.09.09-.18.09-.22.13-.22,0-.13,0-.27v-.27s.09-.09.09-.22a.6.6,0,0,1,.05-.31.9.9,0,0,1-.05-.36c0-.09.05-.22.05-.36s0-.26.13-.35a.44.44,0,0,1,0-.32.29.29,0,0,1,.09-.22c.09-.09.13-.18.09-.22a1.1,1.1,0,0,1,.31-.41,1.59,1.59,0,0,1,.4-.84.7.7,0,0,1,0-.41,2.12,2.12,0,0,1,.36-.71,2.51,2.51,0,0,0,.36-.81c0-.08.13-.22.27-.44a1.24,1.24,0,0,1,.31-.45.85.85,0,0,1,.09-.44,1.91,1.91,0,0,0,.8-1.17.39.39,0,0,0,.23-.13.87.87,0,0,1,.22-.18,3.27,3.27,0,0,0,.27-.67c.09-.31.13-.49.09-.54.27-.08.49-.35.71-.8,0,0,.14,0,.18,0a.25.25,0,0,1,.18,0,7.26,7.26,0,0,1,.89-.94s.18-.13.4-.4a4.22,4.22,0,0,1,.36-.49,3.1,3.1,0,0,0,1-1.12,2.3,2.3,0,0,0,.4-.31l.58-.18a2.1,2.1,0,0,0,.32-.13c.08,0,.13-.14.08-.18.18,0,.27,0,.32-.14s.13-.17.22-.22a1.34,1.34,0,0,0,.85-.31l1.52-.45a.67.67,0,0,0,.22-.09C810.09,1432.92,810.17,1432.87,810.22,1432.83Zm-.4,3.3-.58.14a3.94,3.94,0,0,1-.63.35c-.18.18-.27.23-.36.18l-.31.32a1.75,1.75,0,0,0-.49.4c-.27.22-.49.4-.67.53a1.91,1.91,0,0,1-.67.58c-.05.32-.13.45-.27.5a1.13,1.13,0,0,0-.45.31.22.22,0,0,0-.17.13c-.05.09-.18.32-.45.76-.18.09-.27.18-.36.18a1,1,0,0,1-.49.76c-.09.18-.4.67-.89,1.56-.09.09-.18.18-.27.18a2.92,2.92,0,0,1-.18.31c-.09.14-.13.23-.18.32s-.09.09-.13.22-.09.22-.23.27v.4a3,3,0,0,0-.58,1.3,1.92,1.92,0,0,1-.22.35c-.09.18-.18.27-.22.27a.53.53,0,0,1-.23.67,3,3,0,0,1-.13.81,1.59,1.59,0,0,0,0,.8,4.88,4.88,0,0,0-.59.89.69.69,0,0,1,0,.45,2.44,2.44,0,0,0,.05.58s0,.18-.05.31-.08.32-.13.45l.18.76a1.37,1.37,0,0,1,0,.58c-.05.27-.05.4-.14.49a1.67,1.67,0,0,1,.18,1.07l.27.94a.85.85,0,0,1,0,.27.69.69,0,0,0-.05.27l.4,1.43c0,.27-.09.44,0,.53a5.72,5.72,0,0,1,.49,1.12,2.72,2.72,0,0,1,.49.67c.31.13.49.27.49.36l.09.4a1.53,1.53,0,0,1,.54.54,1.83,1.83,0,0,0,.45.44,3.82,3.82,0,0,1,.17.36,1,1,0,0,1,.41.31,1.49,1.49,0,0,0,.26.54l.5.27a1.13,1.13,0,0,0,.17.26.85.85,0,0,1,.18.27c.18.09.49.27,1,.58a1.42,1.42,0,0,1,.53.45c.49.22,1,.49,1.56.8a.88.88,0,0,0,.41.41.83.83,0,0,1,.18.35.47.47,0,0,1,.4.09c.13.09.22.18.31.23a.81.81,0,0,0,.4.22.6.6,0,0,1,.32.18c.08.13.17.18.17.27l.5.26a1.54,1.54,0,0,0,.31.32,1.21,1.21,0,0,0,.44,0,1.66,1.66,0,0,1,.45,0c.09,0,.27.14.49.45a1,1,0,0,1,.54,0,1.62,1.62,0,0,0,.62,0,1.16,1.16,0,0,1,.32,0l.44.14.67-.18s.36,0,.94,0l1.61-.44a1.75,1.75,0,0,1,.58-.27,1.49,1.49,0,0,1,.76-.09,10.72,10.72,0,0,0,1.79-.58l.85-.22a.85.85,0,0,1,.17-.23,2.1,2.1,0,0,1,.32-.13,3.37,3.37,0,0,0,.71-.31,2.91,2.91,0,0,1,.67-.27c.09-.14.18-.27.31-.27l.67-.18a12.53,12.53,0,0,1,1.17-1,1.13,1.13,0,0,1,.31-.4c.18-.13.31-.18.36-.22a2.7,2.7,0,0,1,.22-.31.82.82,0,0,0,.18-.41s.13-.09.27-.18a.88.88,0,0,1,.09-.44c.22-.4.35-.67.4-.72a2.68,2.68,0,0,1,.22-.35c.09-.18.18-.27.22-.36s.09-.18.18-.36a4,4,0,0,1,.23-.36,1,1,0,0,1,.22-.35,1.58,1.58,0,0,1,.31-.41.75.75,0,0,1,.09-.49,1,1,0,0,0,.09-.49,2.07,2.07,0,0,0,.36-.62.83.83,0,0,1,.36-.72.75.75,0,0,1,.22-.67,4.32,4.32,0,0,0,.13-.54.94.94,0,0,0,0-.53s.09-.09.14-.22a.56.56,0,0,1,.13-.18c0-.05.09-.09,0-.18l-.14-.49a.57.57,0,0,1,.09-.32.87.87,0,0,0,0-.31l-.14-.49a1.3,1.3,0,0,0,.09-.58,1.55,1.55,0,0,1,.18-.72v-.71a2,2,0,0,0-.18-.58,1.08,1.08,0,0,0-.18-.31c-.09-.14-.18-.23-.18-.32a.48.48,0,0,1-.08-.53c0-.18.08-.31,0-.36l-.22-.76c-.23-.22-.32-.36-.32-.45l-.17-.67a.83.83,0,0,1,0-.26.76.76,0,0,0,0-.27,7.47,7.47,0,0,0-.26-1c-.18-.59-.23-.9-.27-.94a1,1,0,0,1-.22-.23c-.05-.09-.09-.13-.09-.22l-.09-.27a2.09,2.09,0,0,1-.32-.44.64.64,0,0,1-.17-.36.86.86,0,0,1-.27-.27,2.05,2.05,0,0,1-.23-.4,2.14,2.14,0,0,1-.58-.63,5.71,5.71,0,0,0-.49-.62,2.28,2.28,0,0,0-.49-.23,1.59,1.59,0,0,1-.49-.31,6.61,6.61,0,0,0-.49-.45,1,1,0,0,1-.4-.44,4.17,4.17,0,0,1-1-.58.75.75,0,0,1-.4-.4,1.61,1.61,0,0,1-.49-.23c-.18-.13-.27-.18-.36-.18a.91.91,0,0,0-.31-.31s-.09-.13-.18-.13-.18-.09-.18-.14a3.18,3.18,0,0,0-.4-.35.8.8,0,0,1-.31-.41.75.75,0,0,1-.54,0c-.22-.14-.4-.27-.4-.4a.6.6,0,0,1-.45-.09,3.19,3.19,0,0,0-.44-.23,3.22,3.22,0,0,1-.45-.26,2.63,2.63,0,0,1-1-.23.61.61,0,0,1-.76-.22,1.35,1.35,0,0,1-.72,0,1.4,1.4,0,0,1-.67-.22c-.22.13-.4.13-.53,0a.82.82,0,0,1-.58,0l-1.34.35a.85.85,0,0,1-.27,0,.52.52,0,0,0-.27-.05l-1,.27a1.14,1.14,0,0,0-1.25.27C810,1436,809.91,1436,809.82,1436.13Z" transform="translate(-78.85 -837)"/><path class="cls-32" d="M872.49,1445.92l0,.13c-.05,0-.09,0-.14.09a.09.09,0,0,0,0,.13s-.13.14-.22.36a1.73,1.73,0,0,0-.58.58v.49a4.55,4.55,0,0,0-.63,1.43c-.13.23-.22.4-.26.49a1.2,1.2,0,0,1-.32.41c-.09,0-.09.09-.09.22s0,.22-.09.22a3.57,3.57,0,0,0-.8,1.25c-.05,0-.13,0-.22.09a1.16,1.16,0,0,0-.23.14,2.47,2.47,0,0,1-.31.62,1.33,1.33,0,0,0-.27.63,4.48,4.48,0,0,0-.71.8.53.53,0,0,0-.32.36l-.17.4a1.37,1.37,0,0,0-.45.23l-.54.26a1,1,0,0,1-.31.32.6.6,0,0,1-.22.35,2,2,0,0,0-.63.36,2.91,2.91,0,0,0-1.11.72l-.5.13s-.13.09-.26.18a.36.36,0,0,1-.36.09c-.05.09-.14.13-.22.22a.43.43,0,0,0-.18.22l-4.78,1.3a.89.89,0,0,1-.58-.18.93.93,0,0,1-.63.18,3.08,3.08,0,0,0-.67.09l-.36-.14-.58.18a.75.75,0,0,0-.36-.09.49.49,0,0,1-.35-.13,1.23,1.23,0,0,1-.9,0l-.49.14a2.5,2.5,0,0,0-.62,0l-.49.09-.72-.31a2.59,2.59,0,0,1-.67-.23.94.94,0,0,0-.4-.09c-.18,0-.27,0-.27-.13a.89.89,0,0,0-.45-.09,1,1,0,0,0-.26-.22.56.56,0,0,1-.67-.23.85.85,0,0,1-.27,0,.62.62,0,0,0-.27,0c-.27-.22-.58-.4-1-.67a11.62,11.62,0,0,0-1.07-.53,2.9,2.9,0,0,0-1.17-.81,1,1,0,0,0-.4-.44c-.22-.18-.36-.32-.36-.36s-.09-.14-.22-.18-.18-.13-.18-.18a.47.47,0,0,1-.22-.22.58.58,0,0,0-.18-.23s-.18,0-.31-.08a.31.31,0,0,1-.32-.23.49.49,0,0,1-.22-.44c-.09,0-.18-.14-.27-.18s-.18-.14-.26-.23a.81.81,0,0,0-.27-.17,4,4,0,0,0-.4-.36c-.18-.14-.32-.23-.36-.27l-.23-.76a.72.72,0,0,0-.22-.31,1.28,1.28,0,0,1-.27-.4,1,1,0,0,1-.31-.32.65.65,0,0,0-.31-.31l-.18-.76a3.65,3.65,0,0,1-.45-1.21s-.09-.13-.18-.22a.65.65,0,0,1-.17-.22l-1.08-3.93v-.27a.72.72,0,0,0,.05-.27l-.18-.67v-.36a.81.81,0,0,1,.09-.4,1.78,1.78,0,0,1,0-.58,2.21,2.21,0,0,0,0-.58c0-.09.09-.27.22-.58a1.57,1.57,0,0,0,.05-.76,1.83,1.83,0,0,1,.18-.31,1.62,1.62,0,0,0,.17-.23l.14-.26a2.1,2.1,0,0,1,.13-.32V1438a.55.55,0,0,0,0-.4c.18-.32.27-.54.23-.67a.9.9,0,0,0,.26-.9,1.6,1.6,0,0,0,.45-.93,12.86,12.86,0,0,0,.76-1.34,4,4,0,0,0,.63-1.21,1,1,0,0,1,.17-.27.9.9,0,0,1,.23-.18,12,12,0,0,1,.67-1.29s.09-.09.09-.23,0-.22.09-.22a.67.67,0,0,1,.09-.22.29.29,0,0,0,.09-.23,1.86,1.86,0,0,0,.53-.67c.14,0,.22-.13.31-.31s.18-.27.32-.27c.26-.49.44-.76.49-.85s.09-.13.13-.22.09-.09.14-.09,0,0,0-.13a2.18,2.18,0,0,0,.09-.23,1.25,1.25,0,0,0,.31-.17.69.69,0,0,0,.27-.27s.14-.14.22-.32.14-.35.18-.4a1.29,1.29,0,0,0,.41-.27,1,1,0,0,1,.4-.26c0-.09,0-.14.27-.23a1.08,1.08,0,0,1,.35-.13c.05,0,.14-.09.18-.18s.09-.18.14-.18a.85.85,0,0,1,.13-.22c0-.09.09-.14.18-.14a.78.78,0,0,1,.49-.13.63.63,0,0,1,.54-.36,1.24,1.24,0,0,1,.26-.31c.14-.13.23-.22.32-.22a2.64,2.64,0,0,0,1-.45l2.59-.71a1.18,1.18,0,0,1,.54,0l2.68-.76a.59.59,0,0,1,.44.09l.58-.13.58.26a.78.78,0,0,1,.81,0,.41.41,0,0,1,.4-.08.61.61,0,0,0,.31.08.29.29,0,0,1,.23.09.29.29,0,0,0,.22.09c.13,0,.27,0,.45.18a8.13,8.13,0,0,1,.85,0,2.08,2.08,0,0,1,.49.26,1.17,1.17,0,0,1,.44.09l.36.23c.18.09.27.18.36.22s.58.09,1.16.18a2.6,2.6,0,0,0,.76.62c0,.09.22.14.58.18,0,0,.13.14.31.23s.32.18.36.31a1.32,1.32,0,0,1,.36.27,4.7,4.7,0,0,0,.4.27,1.57,1.57,0,0,0,.76.49c0,.09.09.13.18.26s.18.18.18.27a5.12,5.12,0,0,0,.58.27l-.63-2.19a.75.75,0,0,1,0-.27.59.59,0,0,0,0-.26l-.45-1.75a.67.67,0,0,0-.17-.31.7.7,0,0,1-.18-.22l-.45-1.61c-.22-.36-.36-.63-.45-.8a1.07,1.07,0,0,1-.31-.45,3.35,3.35,0,0,1-.09-1,2.59,2.59,0,0,1-.36-.54,1,1,0,0,1,0-.58,1.91,1.91,0,0,1-.27-.54,5.25,5.25,0,0,0-.18-.67c0-.18-.13-.4-.18-.67,0,0,0-.13-.17-.22a.32.32,0,0,1-.09-.36.38.38,0,0,1-.09-.4.4.4,0,0,0,0-.31.88.88,0,0,0-.09-.23c-.05-.09-.09-.13-.09-.22l-1-3.62a1,1,0,0,1,0-.4.79.79,0,0,0-.14-.49.78.78,0,0,0-.22-.36.38.38,0,0,1-.09-.4.34.34,0,0,1-.09-.36.43.43,0,0,0,0-.22c0-.27-.17-.67-.35-1.3s-.27-1-.32-1.2a3.3,3.3,0,0,1,0-.54l-.22-1.16a1.82,1.82,0,0,1,.26-.49s.14-.09.23-.18a1,1,0,0,1,.18-.22l0-.14a1.85,1.85,0,0,1,1.83.31c.09,0,.18.32.31.85s.23.81.23.85a.6.6,0,0,1,0,.27.63.63,0,0,0,0,.27c0,.27.27,1,.67,2.37s.58,2.14.67,2.41a.75.75,0,0,1,0,.27.59.59,0,0,0,0,.26,3,3,0,0,0,.58,1.39l.8,2.86s.09.13.18.22a.83.83,0,0,1,.18.22l.85,3.09a.67.67,0,0,0,.09.22,1,1,0,0,1,.09.22l.49,1.7s.09.14.18.22.13.14.13.23.09.31.14.44a2,2,0,0,0,.18.36,3.24,3.24,0,0,1,.22.4.82.82,0,0,1,0,.32.33.33,0,0,0,0,.31l1,3.53a.92.92,0,0,1,0,.27c-.05.13-.05.22,0,.26l2.1,7.64a.28.28,0,0,0,.09.18.25.25,0,0,1,.08.18,7.9,7.9,0,0,0,.59,1.7s0,.27.08.58a3.29,3.29,0,0,0,.14.67c.09.27.18.71.31,1.29a2.11,2.11,0,0,0,.49,1.17c0,.4.23,1.11.49,2.14v.54c.18.84.27,1.29.27,1.38l.4,1.12a.87.87,0,0,1,.05.36v.26a.45.45,0,0,0,.09.41c.09.08.18.17.18.26s.09.36.22.76a8.17,8.17,0,0,0,.27.94,5.45,5.45,0,0,1,.09.67c0,.09,0,.14.13.22a2,2,0,0,1,.14.32l1,3.53a.7.7,0,0,0,.18.22.87.87,0,0,1,.18.22s.09.36.26.94a.82.82,0,0,1-.26.58.61.61,0,0,1-.23.36,3.39,3.39,0,0,1-1.92.4,2.33,2.33,0,0,1-.67-.22c0-.14-.13-.27-.22-.49a.9.9,0,0,1-.22-.49,1.42,1.42,0,0,1,0-.5.87.87,0,0,0-.18-.58.68.68,0,0,1,.05-.26.76.76,0,0,0,0-.27l-.27-1.07-.18-.27a.61.61,0,0,1-.17-.36v-.71c0-.18-.23-.76-.5-1.7A11.87,11.87,0,0,0,872.49,1445.92Zm-20.37-20.82-1.16.31a.47.47,0,0,1-.22.22.46.46,0,0,0-.18.23,5.32,5.32,0,0,0-2.19,1.29l-.49.14a2.7,2.7,0,0,1-.31.4c-.14,0-.27,0-.41.09a.7.7,0,0,1-.58.58,5.81,5.81,0,0,1-.67.89,1.39,1.39,0,0,1-.27.49,1,1,0,0,1-.22.27,1.9,1.9,0,0,0-.31.32c-.05,0-.09.08-.14.17a1.37,1.37,0,0,1-.13.27,1.58,1.58,0,0,0-.58.9.42.42,0,0,0-.27.17c0,.09-.09.14-.18.14a3.34,3.34,0,0,1-.31.53.82.82,0,0,0-.18.63c-.13.22-.31.54-.53.85a1.67,1.67,0,0,0-.32.58,2,2,0,0,0-.36.58l-.26.54c-.09.22-.18.35-.32.4a1.13,1.13,0,0,1,0,.53,2.69,2.69,0,0,1-.4.32,5,5,0,0,0-.14.58c0,.27-.13.44-.13.62a1.24,1.24,0,0,1-.18.45,1.44,1.44,0,0,1-.13.58c0,.13-.09.31-.18.58s-.05.31-.27.58a1.64,1.64,0,0,1-.13,1.07l.13.5a1,1,0,0,0-.09.44l.13.58a1.68,1.68,0,0,0,0,.81,1,1,0,0,0-.09.44l.18.67a.56.56,0,0,1,.31.45.79.79,0,0,1,.09.71,3.37,3.37,0,0,1,.36.94,1.42,1.42,0,0,1,.4.72,3.48,3.48,0,0,1,.31.4l.14.49.44.58a1.71,1.71,0,0,0,.27.54,3.57,3.57,0,0,1,.22.44.86.86,0,0,1,.27.27.54.54,0,0,1,.18.32,3.14,3.14,0,0,1,.58.58.93.93,0,0,1,.58.58c.14,0,.36.09.72.31l.53.89c.14,0,.27,0,.49.14l.45.27a.35.35,0,0,0,.09.17.23.23,0,0,1,.09.18c.13,0,.27,0,.4.14s.23.18.32.18a3.47,3.47,0,0,1,.4.26c.18.14.27.18.35.18a.85.85,0,0,1,.18.27.62.62,0,0,1,.36.22.64.64,0,0,1,.36.23,1.48,1.48,0,0,1,.49,0c.31.18.49.31.49.36a1,1,0,0,1,.72.31,1.19,1.19,0,0,1,.75.18l.76.09.41-.09a4.49,4.49,0,0,0,.58.09,3,3,0,0,0,.49,0,3.6,3.6,0,0,1,.76-.08c.31,0,.53-.05.62-.05a3.16,3.16,0,0,0,.81.05c.35,0,.62,0,.8,0a1.87,1.87,0,0,1,.49,0,.47.47,0,0,0,.23,0l2.27-.63a1.54,1.54,0,0,0,.32-.31l1.25-.36a.4.4,0,0,0,.22-.13c.09,0,.14-.13.09-.18a1.24,1.24,0,0,0,.58-.13c0-.09.09-.14.18-.14l.58-.18a1.28,1.28,0,0,1,.54-.35.81.81,0,0,1,.67-.58c-.05-.14,0-.27.18-.36a1.25,1.25,0,0,0,.31-.31,1.29,1.29,0,0,1,.27-.32,1,1,0,0,1,.4-.26l.18-.45a1,1,0,0,0,.31-.22,1.12,1.12,0,0,1,.18-.23c.09-.22.22-.49.4-.85a5.24,5.24,0,0,1,.36-.58.84.84,0,0,1,.36-.18,5.78,5.78,0,0,1,.8-1.56l.27-.18a4.11,4.11,0,0,0,.27-.71.89.89,0,0,1,.31-.58c-.05-.05,0-.14,0-.27a1.37,1.37,0,0,1,.13-.27.51.51,0,0,1,.32-.31c0-.14,0-.31.26-.58a.68.68,0,0,1,0-.4.35.35,0,0,0,0-.32,1.41,1.41,0,0,0,.36-.62,3,3,0,0,1,0-.32V1443a1.36,1.36,0,0,0,.26-1.2,1.75,1.75,0,0,0,.14-.5,2.49,2.49,0,0,1,.13-.49,1.56,1.56,0,0,1,.05-.4,2.88,2.88,0,0,1,.13-.45l-.4-1.52s0-.17,0-.31.09-.27,0-.31l-.14-.54-.13-.53a.66.66,0,0,1,0-.4,4.82,4.82,0,0,1-.4-1s-.09-.14-.14-.23a.57.57,0,0,1-.17-.22l-.23-.76-.27-.62a1.12,1.12,0,0,1-.4-.45,2.38,2.38,0,0,0-.27-.49L868,1432a2.8,2.8,0,0,0-.54-.45l-.22-.76c0-.09-.09-.13-.27-.22a1,1,0,0,1-.4-.31,1.1,1.1,0,0,0-.27-.36,3.73,3.73,0,0,1-.31-.54s-.09-.13-.22-.22a3.84,3.84,0,0,0-.32-.22c0-.14,0-.23-.09-.27s-.35-.23-.67-.54a1.77,1.77,0,0,1-.62-.36c-.31-.13-.49-.22-.49-.35a.16.16,0,0,1-.14-.18,1.57,1.57,0,0,1-.09-.31,3,3,0,0,1-.53-.32,2.34,2.34,0,0,1-.45-.27,1.16,1.16,0,0,1-.8-.31,1.54,1.54,0,0,1-.49,0,2.53,2.53,0,0,1-.45-.41h-.49a1.39,1.39,0,0,0-.58-.26,1.11,1.11,0,0,1-.36-.23,1.25,1.25,0,0,1-.36-.22.84.84,0,0,1-.53,0,2.14,2.14,0,0,1-.59-.14h-.31c-.13,0-.22-.09-.22-.13a.37.37,0,0,1-.36,0,2,2,0,0,0-.27-.09l-.67.18a.42.42,0,0,1-.26-.09.73.73,0,0,0-.41-.13l-.85.22s-.13,0-.26,0h-.23c-.09,0-.53.13-1.43.4C852.34,1425,852.26,1425.05,852.12,1425.1Z" transform="translate(-78.85 -837)"/></svg>