<svg id="Layer_1" data-name="Layer 1" xmlns="http://www.w3.org/2000/svg" xmlns:xlink="http://www.w3.org/1999/xlink" viewBox="0 0 2702.69 1228.11"><defs><style>.cls-1{fill:none;}.cls-2{fill:#fad0b8;}.cls-3{fill:#d95c49;}.cls-4{clip-path:url(#clip-path);}.cls-5{fill:#456789;}.cls-6{fill:#6a8db7;}.cls-7{fill:#1c415e;}.cls-8{clip-path:url(#clip-path-6);}.cls-9{fill:#8ba2c2;}.cls-10{fill:#a53d32;}.cls-11{fill:#ce8561;}.cls-12{fill:#9b5d42;}.cls-13{fill:#6b3826;}.cls-14{fill:#5e3223;}.cls-15{fill:#995f13;}.cls-16{fill:#f59e19;}.cls-17{fill:#754822;}.cls-18{fill:#663c1e;}.cls-19{fill:#4c677a;}.cls-20{fill:#638193;}.cls-21{fill:#f29c61;}.cls-22{fill:#c69d54;}.cls-23{fill:#af8645;}.cls-24{fill:#f9c37d;}.cls-25{fill:#edba70;}.cls-26{fill:#d6a75b;}.cls-27{fill:#648199;}.cls-28{fill:#a35c40;opacity:0.4;}.cls-28,.cls-41{isolation:isolate;}.cls-29{fill:#593317;}.cls-30{fill:#ffbc80;}.cls-31{fill:#97b5c6;}.cls-32{fill:#81a0b5;}.cls-33{fill:#5b371e;}.cls-34{fill:#cc6c42;}.cls-35{fill:#684e3c;}.cls-36{fill:#594131;}.cls-37{fill:#664b39;}.cls-38{fill:#7f5f4a;}.cls-39{fill:#6d4f3b;}.cls-40{fill:#5b412f;}.cls-41{fill:#8e614d;opacity:0.5;}.cls-42{fill:#ffbe92;}.cls-43{fill:#eaa271;}.cls-44{fill:#d18f5d;}.cls-45{fill:#aa8d79;}.cls-46{fill:#d6b9a3;}.cls-47{fill:#bc9f8b;}.cls-48{fill:#f2d9c9;}.cls-49{fill:#7c5e4a;}.cls-50{fill:#a5816d;}.cls-51{fill:#c9a897;}</style><clipPath id="clip-path" transform="translate(-94.31 -517.11)"><path class="cls-1" d="M596.09,1633.56l1.86,30.59c.08,1.32.24,2.8,1.23,3.69a4.9,4.9,0,0,0,2.67.89c15.41,2,31.29,2.47,45.74,8.18a50.27,50.27,0,0,1,21.58,16,11.39,11.39,0,0,1-8.8,18.21q-52.95,1.17-105.9-1c-1.54,0-3.21-.19-4.31-1.26s-1.29-2.8-1.37-4.36q-1.93-33-3.88-66.06Z"/></clipPath><clipPath id="clip-path-6" transform="translate(-94.31 -517.11)"><path class="cls-1" d="M495.62,1639l1.86,30.59c.08,1.32.24,2.8,1.24,3.69a4.75,4.75,0,0,0,2.66.88c15.42,2,31.29,2.48,45.74,8.18a50.38,50.38,0,0,1,21.58,16,11.38,11.38,0,0,1-8.8,18.21q-52.95,1.17-105.9-1c-1.53-.06-3.2-.19-4.31-1.27s-1.29-2.79-1.37-4.35q-1.94-33-3.87-66.06Z"/></clipPath></defs><title>melasih-sri</title><path class="cls-2" d="M539.67,1600.73c1.69,18.89,10.49,41.22,12.19,60.11.08,1-.78-.1,0,0a111.92,111.92,0,0,0,28.33.43c1.85-.18,3.85-.45,5.16-1.75a8.51,8.51,0,0,0,2-4.14,411.69,411.69,0,0,0,13.24-82.9,213.28,213.28,0,0,0-64.09,8.4Z" transform="translate(-94.31 -517.11)"/><path id="SVGID" class="cls-3" d="M596.09,1633.56l1.86,30.59c.08,1.32.24,2.8,1.23,3.69a4.9,4.9,0,0,0,2.67.89c15.41,2,31.29,2.47,45.74,8.18a50.27,50.27,0,0,1,21.58,16,11.39,11.39,0,0,1-8.8,18.21q-52.95,1.17-105.9-1c-1.54,0-3.21-.19-4.31-1.26s-1.29-2.8-1.37-4.36q-1.93-33-3.88-66.06Z" transform="translate(-94.31 -517.11)"/><g class="cls-4"><path class="cls-5" d="M679.34,1697l-171.5,1.45c-2.61,0-2.64,4.09,0,4.07l171.5-1.46c2.61,0,2.63-4.09,0-4.06Z" transform="translate(-94.31 -517.11)"/></g><g class="cls-4"><path class="cls-5" d="M541.85,1677.17c10.11,1.27,18.67,9.5,20.74,19.4.54,2.56,4.49,1.54,3.93-1a29.19,29.19,0,0,0-24.67-22.43,2.06,2.06,0,0,0-2.05,2,2.11,2.11,0,0,0,2.05,2Z" transform="translate(-94.31 -517.11)"/></g><g class="cls-4"><path class="cls-5" d="M622,1682.26A26.15,26.15,0,0,1,634,1666.92c2.28-1.29.27-4.84-2-3.55a30.29,30.29,0,0,0-14,17.79c-.76,2.53,3.17,3.63,3.9,1.1Z" transform="translate(-94.31 -517.11)"/></g><g class="cls-4"><path class="cls-5" d="M602.52,1679.57A23.8,23.8,0,0,1,614.31,1664c2.31-1.26.29-4.81-2-3.55a27.88,27.88,0,0,0-13.69,18.06c-.59,2.55,3.34,3.66,3.9,1.1Z" transform="translate(-94.31 -517.11)"/></g><g class="cls-4"><path class="cls-5" d="M591.35,1671.85A27.62,27.62,0,0,1,608.82,1659c2.55-.59,1.5-4.55-1.05-3.93a31.52,31.52,0,0,0-19.91,14.75c-1.32,2.26,2.18,4.35,3.49,2.07Z" transform="translate(-94.31 -517.11)"/></g><path class="cls-5" d="M592.62,1650a50.73,50.73,0,0,1,9.25-11.87,49.68,49.68,0,0,1,5.76-4.68,30.45,30.45,0,0,1,3.26-2c.64-.35,2.8-1.64,3.6-1.34.16-.27.22-.3.16,0a1.49,1.49,0,0,1-.13.59,6.58,6.58,0,0,1-.59,1.45,11.53,11.53,0,0,1-2,2.72,22.93,22.93,0,0,1-5.49,4c-5,2.83-10.25,5.22-15.37,7.78-2.36,1.18-.34,4.63,2,3.55a69.79,69.79,0,0,1,17.3-5.33,63,63,0,0,1,8.45-.88c1.37-.06,8.63-.79,7.48,2.07-.44,1-2.08,2-3,2.55a21.16,21.16,0,0,1-3.9,1.94,27.16,27.16,0,0,1-7.51,1.61c-6.56.52-13.08-.91-19.45-2.28-2.56-.57-3.66,3.36-1.11,3.93,11,2.39,23.49,4.79,33.72-1.48,2.15-1.32,4.71-3.1,5.35-5.68s-1-5-3.31-6c-2.69-1.21-6-.86-8.9-.7a72.72,72.72,0,0,0-8.32.91,73.94,73.94,0,0,0-18.86,5.84c.67,1.19,1.35,2.37,2,3.55,5.06-2.53,10.2-4.89,15.12-7.64,3.82-2.12,7.67-4.89,9.56-9,.8-1.78,1.5-4,.37-5.82-1.4-2.23-4.25-1.8-6.37-1.07-4.5,1.56-8.59,4.81-12.09,8a53.88,53.88,0,0,0-10.54,13.29c-1.24,2.2,2.26,4.3,3.55,2Z" transform="translate(-94.31 -517.11)"/><path class="cls-5" d="M647.72,1677.66a20.25,20.25,0,0,0-7.26,18.91,2,2,0,0,0,2.47,1.46,2.09,2.09,0,0,0,1.46-2.48,16.23,16.23,0,0,1,6.16-15,2.06,2.06,0,0,0,.05-2.88,2.09,2.09,0,0,0-2.88,0Z" transform="translate(-94.31 -517.11)"/><path class="cls-5" d="M670.67,1010c-10,185.87-63.66,580.2-67.56,584.86-4.25,5.08-32.72,4.12-75.55,6,2.66-76.34-4.71-150.38-4.28-225.58.11-20.1,13.24-52.12,14.42-72.09,5.76-96.83.19-183.52,19.19-280.63l88.65,3.4Z" transform="translate(-94.31 -517.11)"/><path class="cls-6" d="M566.92,1403.35a47.09,47.09,0,0,1-3.9,21.5c-.51,1.18,1.21,2.23,1.75,1.05a49.67,49.67,0,0,0,4.2-22.55c-.08-1.29-2.13-1.29-2.05,0Z" transform="translate(-94.31 -517.11)"/><path class="cls-6" d="M581.69,1407.47c-1.31,4.71-2.63,9.44-4,14.15a1,1,0,0,0,2,.54l4-14.15a1,1,0,0,0-2-.54Z" transform="translate(-94.31 -517.11)"/><path class="cls-6" d="M593.67,1413.87a16.83,16.83,0,0,0-.89,9.42,1,1,0,1,0,2-.51,15.05,15.05,0,0,1,.89-8.34,1,1,0,1,0-2-.57Z" transform="translate(-94.31 -517.11)"/><path class="cls-6" d="M590.25,1365.6a35,35,0,0,0-1,15.5c.19,1.29,2.18.78,2-.51a32.71,32.71,0,0,1,1-14.42,1,1,0,0,0-2-.57Z" transform="translate(-94.31 -517.11)"/><path class="cls-7" d="M532.94,1583.81q36.24-.12,72.38,3c2.61.22,2.61-3.85,0-4.06q-36.12-3.07-72.38-3c-2.61,0-2.64,4.06,0,4.06Z" transform="translate(-94.31 -517.11)"/><path class="cls-2" d="M439.2,1606.17c1.7,18.89,10.49,41.22,12.19,60.11.08,1-.78-.11,0,0a112.39,112.39,0,0,0,28.33.43c1.86-.19,3.85-.46,5.17-1.75a8.49,8.49,0,0,0,2-4.14,411.92,411.92,0,0,0,13.24-82.9,213.31,213.31,0,0,0-64.09,8.39Z" transform="translate(-94.31 -517.11)"/><path id="SVGID-2" data-name="SVGID" class="cls-3" d="M495.62,1639l1.86,30.59c.08,1.32.24,2.8,1.24,3.69a4.75,4.75,0,0,0,2.66.88c15.42,2,31.29,2.48,45.74,8.18a50.38,50.38,0,0,1,21.58,16,11.38,11.38,0,0,1-8.8,18.21q-52.95,1.17-105.9-1c-1.53-.06-3.2-.19-4.31-1.27s-1.29-2.79-1.37-4.35q-1.94-33-3.87-66.06Z" transform="translate(-94.31 -517.11)"/><g class="cls-8"><path class="cls-5" d="M578.84,1702.39l-171.5,1.45c-2.61,0-2.63,4.09,0,4.06l171.5-1.45c2.61,0,2.64-4.09,0-4.06Z" transform="translate(-94.31 -517.11)"/></g><g class="cls-8"><path class="cls-5" d="M441.38,1682.61c10.12,1.26,18.67,9.5,20.74,19.4.54,2.56,4.5,1.53,3.93-1a29.21,29.21,0,0,0-24.67-22.44,2.07,2.07,0,0,0-2.05,2,2.1,2.1,0,0,0,2.05,2Z" transform="translate(-94.31 -517.11)"/></g><g class="cls-8"><path class="cls-5" d="M521.45,1687.7a26.19,26.19,0,0,1,12.08-15.34c2.29-1.29.27-4.84-2-3.55a30.44,30.44,0,0,0-14,17.78c-.72,2.53,3.21,3.63,3.93,1.11Z" transform="translate(-94.31 -517.11)"/></g><g class="cls-8"><path class="cls-5" d="M502.05,1685a23.78,23.78,0,0,1,11.79-15.6c2.31-1.27.29-4.82-2-3.55a27.9,27.9,0,0,0-13.7,18.05c-.62,2.56,3.31,3.66,3.9,1.1Z" transform="translate(-94.31 -517.11)"/></g><g class="cls-8"><path class="cls-5" d="M490.86,1677.28a27.64,27.64,0,0,1,17.46-12.89c2.56-.59,1.51-4.54-1.05-3.92a31.56,31.56,0,0,0-19.91,14.74c-1.32,2.23,2.18,4.33,3.5,2.07Z" transform="translate(-94.31 -517.11)"/></g><path class="cls-5" d="M492.15,1655.38a50.66,50.66,0,0,1,9.26-11.86,47.17,47.17,0,0,1,5.76-4.69,30.86,30.86,0,0,1,3.25-2c.65-.35,2.8-1.65,3.61-1.35.16-.27.21-.3.16,0a1.51,1.51,0,0,1-.14.6,6.79,6.79,0,0,1-.59,1.45,11.74,11.74,0,0,1-2,2.72,23.21,23.21,0,0,1-5.49,4c-5,2.82-10.25,5.22-15.36,7.77-2.37,1.19-.35,4.63,2,3.56a69.5,69.5,0,0,1,17.3-5.33,63.23,63.23,0,0,1,8.45-.89c1.37,0,8.63-.78,7.48,2.07-.43,1.05-2.07,2-3,2.56a21.81,21.81,0,0,1-3.9,1.94,27.82,27.82,0,0,1-7.51,1.61c-6.56.51-13.07-.92-19.45-2.29-2.56-.56-3.66,3.37-1.1,3.93,11,2.4,23.49,4.79,33.71-1.48,2.15-1.32,4.71-3.09,5.35-5.68s-1-5-3.3-6c-2.7-1.21-6-.86-8.91-.7a72.57,72.57,0,0,0-8.31.92,74,74,0,0,0-18.87,5.84c.68,1.18,1.35,2.37,2,3.55,5-2.53,10.19-4.9,15.12-7.64,3.82-2.13,7.66-4.9,9.55-9,.81-1.77,1.51-4,.37-5.81-1.39-2.23-4.25-1.8-6.37-1.08-4.5,1.56-8.58,4.82-12.08,8a53.68,53.68,0,0,0-10.55,13.29c-1.24,2.21,2.26,4.31,3.55,2Z" transform="translate(-94.31 -517.11)"/><path class="cls-5" d="M547.23,1683.09A20.28,20.28,0,0,0,540,1702a2,2,0,0,0,4-1,16.22,16.22,0,0,1,6.16-15,2.06,2.06,0,0,0,0-2.88,2.12,2.12,0,0,0-2.9-.06Z" transform="translate(-94.31 -517.11)"/><path class="cls-5" d="M570.21,1015.45c-10,185.86-63.66,580.2-67.56,584.85-4.26,5.09-32.72,4.12-75.56,6,2.67-76.33-4.71-150.38-4.27-225.58.1-20.1,13.23-52.12,14.42-72.08,5.75-96.83.18-183.53,19.18-280.63l88.66,3.39Z" transform="translate(-94.31 -517.11)"/><path class="cls-6" d="M466.43,1408.79a47.25,47.25,0,0,1-3.9,21.5c-.51,1.18,1.21,2.23,1.75,1a49.48,49.48,0,0,0,4.19-22.54c-.05-1.29-2.09-1.32-2,0Z" transform="translate(-94.31 -517.11)"/><path class="cls-6" d="M481.23,1412.9l-4,14.16a1,1,0,0,0,2,.53c1.31-4.7,2.63-9.44,3.95-14.15a1,1,0,0,0-2-.54Z" transform="translate(-94.31 -517.11)"/><path class="cls-6" d="M493.17,1419.31a16.92,16.92,0,0,0-.88,9.39,1,1,0,0,0,1.23.72,1,1,0,0,0,.73-1.23,15,15,0,0,1,.89-8.34,1,1,0,0,0-.7-1.27,1.08,1.08,0,0,0-1.27.73Z" transform="translate(-94.31 -517.11)"/><path class="cls-6" d="M489.76,1371a35.16,35.16,0,0,0-1,15.5c.19,1.29,2.18.78,2-.52a32.73,32.73,0,0,1,1-14.42,1,1,0,0,0-2-.56Z" transform="translate(-94.31 -517.11)"/><path class="cls-7" d="M432.45,1589.22q36.24-.12,72.37,3c2.61.21,2.61-3.85,0-4.06q-36.12-3.07-72.37-3c-2.61,0-2.64,4.09,0,4.06Z" transform="translate(-94.31 -517.11)"/><path class="cls-7" d="M582.42,1242.13c-4.65-1.72-10.81,4.9-13.69,7.72a109.38,109.38,0,0,0-15.15,18.84,69.73,69.73,0,0,0-4.87,8.69c-1.59,3.52-1.94,7.16-2.5,10.95q-3.24,21.11-6.27,42.24-12.2,84.6-21.56,169.59-5.24,47.67-9.63,95.44c-.24,2.69-4.49,2.71-4.25,0q8.16-88.56,19.27-176.78,5.57-44,11.86-88,3.15-21.84,6.46-43.64c.59-3.93,1-7.56,2.61-11.19a70.92,70.92,0,0,1,5-9.13A110.45,110.45,0,0,1,567,1245.6c3.9-3.63,10.58-9.71,16.49-7.53,2.59.89,1.48,5-1.1,4.06Z" transform="translate(-94.31 -517.11)"/><path class="cls-5" d="M896.58,695.27c-11.87-1.73-25-3-34.82,2.12-10,5.22-8.8,15-8.74,22.74a232.22,232.22,0,0,0,1.83,29c.86,6.81,2.77,14.64,11.86,19.24,3.82,1.93,8.72,2.07,13.21,2.1,6.62,0,13.24-.3,19.78-.68s4.2-7-2.26-6.59c-5.84.35-11.73.7-17.65.62-5.09-.05-7.51,0-10.42-3s-3.63-6.57-4.19-9.88a143.79,143.79,0,0,1-1.46-14.69c-.32-5-.51-9.9-.53-14.85,0-4.41-.6-9.2.8-13.48,3.21-9.79,20.59-7.67,32.16-6,6.43.91,6.8-5.73.43-6.67Z" transform="translate(-94.31 -517.11)"/><path class="cls-2" d="M752.06,816.77c4.66-5.46,47.76-34.62,52.42-40.09,6.21-7.29,11.84-30.32,13.32-39.79.78-5,.16-10.49,2.63-15,2.32-4.17,31.21-35.14,47.2-35.17,2.39,0,5.35.6,6,2.88s-32.1,34.63-22.66,35.41a167.81,167.81,0,0,0,28.2,25.78c-17.52,20.55-47.35,62.69-64.84,83.24-.46.54-12.86,22.79-1.7,1.27.41-.78-1.69-.35-2.42-.86-12.86-9-33-8.53-45.74-17.73H752.06Z" transform="translate(-94.31 -517.11)"/><path class="cls-9" d="M925.53,782.85h0a29.3,29.3,0,0,1-29.3-29.31V681.09h58.6v72.45A29.3,29.3,0,0,1,925.53,782.85Z" transform="translate(-94.31 -517.11)"/><path class="cls-5" d="M897.87,681.09c-.06.64-.11,1.31-.11,2,0,14.23,12.43,25.77,27.74,25.77s27.74-11.54,27.74-25.77c0-.68,0-1.32-.11-2Z" transform="translate(-94.31 -517.11)"/><path class="cls-6" d="M619.31,758c14.8,22.95,22.57,49.64,29.17,76.14,11.22,45,51.87,127.8,57.33,173.87-19.48,5.86-44.47,26.12-64.76,24.67-3.69-47.57-35.22-150.16-38.91-197.7-1.15-15-2.34-30.06-6.72-44.43Z" transform="translate(-94.31 -517.11)"/><path class="cls-6" d="M555.57,713.91c53.78,15.47,117.15,86.45,147.15,133.7,24.4-18.86,77.08-64.76,77.08-64.76,20,14.71,1.86,1.91,58.61,58.6-21.18,28.41-99.21,92-120.27,95.59-17.33,3-34.28,2.91-49.35-6.16-50.34-30.4-94.25-110-94.68-168.78Z" transform="translate(-94.31 -517.11)"/><path class="cls-3" d="M484.86,755.51c-2.56,81.44-10.55,171.93,2.05,252.43,20,6.46,17.89,44.88,46.25,46.25,30,1.46,64.76,0,107.92-21.58,2.12-1.07-11.06-27.23-15.8-87.09-1.45-18.57,15.55-60.94,11.49-80.5-12.16-58.71-49.91-117.42-60.38-143.74-33.25,16.44-20.23,26.24-46.35-.13l-49.35,13.24Z" transform="translate(-94.31 -517.11)"/><path class="cls-6" d="M514.65,749.37c3.79,87.93-5.6,378.65,6.56,465.83-6.16,3.09-132.24-20.13-132.24-20.13,1.1-42.19,30.08-315.07,31.15-357.26.54-20.9,1.19-42.27,8.59-61.8s23-37.32,43.45-41.51L519,724.19Z" transform="translate(-94.31 -517.11)"/><path class="cls-5" d="M766.22,804q23.49,29.55,44.5,60.94c1.53,2.29,5.27.14,3.71-2.18q-21.3-31.85-45.17-61.83c-1.73-2.15-4.77.92-3,3.07Z" transform="translate(-94.31 -517.11)"/><path class="cls-5" d="M698.84,846.85A225.48,225.48,0,0,0,694.35,881c-.16,2.77,4.17,2.77,4.31,0A222,222,0,0,1,703,848c.56-2.72-3.58-3.87-4.15-1.16Z" transform="translate(-94.31 -517.11)"/><path class="cls-5" d="M700.51,851.64q1.5,15.23,3,30.46c.27,2.75,4.58,2.77,4.31,0q-1.5-15.21-3-30.46c-.27-2.74-4.58-2.77-4.31,0Z" transform="translate(-94.31 -517.11)"/><path class="cls-5" d="M494.49,807.6q-13.2,22.32-26.37,44.64a2.18,2.18,0,0,0,.35,2.61q19.45,16.83,38.94,33.63c2.1,1.8,5.16-1.24,3-3Q491,868.61,471.51,851.81c.11.86.22,1.74.35,2.61q13.2-22.32,26.37-44.64c1.4-2.4-2.31-4.58-3.74-2.18Z" transform="translate(-94.31 -517.11)"/><path class="cls-10" d="M596.74,848.33a114.29,114.29,0,0,0-30.35,61.48c-.41,2.72,3.74,3.88,4.17,1.16A110.58,110.58,0,0,1,599.8,851.4c1.91-2-1.13-5.08-3.06-3.07Z" transform="translate(-94.31 -517.11)"/><path class="cls-10" d="M599.29,872.9a50.8,50.8,0,0,0-14,29.11c-.16,1.16,1.1,2.15,2.15,2.15a2.2,2.2,0,0,0,2.16-2.15,45.89,45.89,0,0,1,12.72-26c1.94-2-1.1-5.06-3-3.07Z" transform="translate(-94.31 -517.11)"/><path class="cls-5" d="M639.22,787.55c7.61,11.22,12.11,24,15.9,36.92,4.15,14.07,8,28.25,11.73,42.46q11.46,43.34,20.94,87.17c.59,2.72,4.73,1.56,4.17-1.15q-7.51-34.59-16.2-68.86c-5.68-22.33-11.36-44.74-18.27-66.72-3.53-11.22-7.91-22.23-14.53-32-1.59-2.28-5.3-.1-3.74,2.18Z" transform="translate(-94.31 -517.11)"/><path class="cls-5" d="M723.22,922.6c4.95-3.77,9.9-7.57,14.88-11.33a1.11,1.11,0,0,0,.38-1.48,1.09,1.09,0,0,0-1.48-.38q-7.43,5.65-14.88,11.33a1.11,1.11,0,0,0-.38,1.48,1.07,1.07,0,0,0,1.48.38Z" transform="translate(-94.31 -517.11)"/><path class="cls-5" d="M734,920.82c3.84-2.83,7.66-5.62,11.51-8.45a1.12,1.12,0,0,0,.38-1.48,1.09,1.09,0,0,0-1.48-.38L732.85,919a1.12,1.12,0,0,0-.37,1.48,1.08,1.08,0,0,0,1.48.38Z" transform="translate(-94.31 -517.11)"/><path class="cls-5" d="M757,886.06c2.8-2.1,5.6-4.2,8.42-6.27a1.12,1.12,0,0,0,.38-1.48,1.09,1.09,0,0,0-1.48-.38c-2.8,2.1-5.6,4.2-8.42,6.27a1.12,1.12,0,0,0-.38,1.48,1.09,1.09,0,0,0,1.48.38Z" transform="translate(-94.31 -517.11)"/><path class="cls-5" d="M764.12,890.5a10.05,10.05,0,0,0,5.84-3.74,1.08,1.08,0,0,0-.38-1.48,1.15,1.15,0,0,0-1.48.37c.08-.1.08-.08,0,0s-.08.08-.11.14-.16.19-.24.27a4.51,4.51,0,0,1-.54.53c-.08.09-.19.17-.27.25l-.16.13c-.11.11.16-.11,0,0s-.43.3-.65.44a6.61,6.61,0,0,1-.64.34l-.33.17c-.05,0-.13.08-.18.08s.16-.06,0,0a9.31,9.31,0,0,1-1.48.43,1.1,1.1,0,0,0,.57,2.13Z" transform="translate(-94.31 -517.11)"/><path class="cls-5" d="M682.46,931.58a114.49,114.49,0,0,1-33.18,6.27,2.18,2.18,0,0,0-2.07,2.72Q652.94,968,659,995.32c.7,3.12.86,7.62,2.79,10.23s5.25,1.88,8.05,1.56a254.53,254.53,0,0,0,26.21-4.55c2.71-.62,1.56-4.79-1.16-4.17a235.34,235.34,0,0,1-23.71,4.22c-1.37.17-3.6.89-4.95.54-1.93-.48-1.8-3.17-2.18-4.84-.88-3.93-1.74-7.83-2.61-11.76q-5.21-23.53-10.11-47.14l-2.07,2.72a118.48,118.48,0,0,0,34.33-6.4c2.63-.89,1.5-5.06-1.13-4.15Z" transform="translate(-94.31 -517.11)"/><path class="cls-5" d="M480.15,960.69c3.58.84,7.13,1.89,10.66,2.88,2.42.68,8,1,8.79,3.88.38,1.42-.32,3.82-.45,5.3-.16,1.91-.35,3.79-.51,5.7-.3,3.31-.6,6.65-.89,10q-1.9,21.35-3.82,42.72c-.24,2.78,4.06,2.75,4.3,0l4.44-49.83c.35-4,.76-8.07,1.08-12.1.19-2.45.21-5-1.86-6.65s-6-2-8.66-2.77c-4-1.1-8-2.31-12-3.26-2.64-.62-3.8,3.56-1.08,4.17Z" transform="translate(-94.31 -517.11)"/><path class="cls-11" d="M768.42,1209.47c10.36-12.7-30.43-228-34.33-260.37a1347,1347,0,0,0-252.57,36l.65,1.65c20.69,72-5.11,149.86,7.48,223.75C541.42,1203.09,756.15,1224.51,768.42,1209.47Z" transform="translate(-94.31 -517.11)"/><path class="cls-2" d="M474.9,930.07c10,3.07,20.1,6.17,30.14,9.23-2.15,10.42,5.54,21.8,16,23.71,4.68.86,10.15.24,13.51,3.6,1.83,1.83,2.58,4.44,3.25,6.92,2.72,10-1.56,19,1.51,31.32,1.83,7.29,6.27,5.78,6.16,3.09-.4-11.06,7.72-26.58,5.55-37.45a168,168,0,0,0,5.78,42.08,3.41,3.41,0,0,0,6.46.3A12.36,12.36,0,0,0,564,1010a282.93,282.93,0,0,0,1.56-40.84c-.64,14,1.51,38.79,4.44,49.88.78,2.93,5.62,1.51,6.32-1.45,3-13,3.07-40.47,3.07-55.89.73,8.24,5.06,55.75,9.26,43.19,3.09-9.26,2-39.23,0-49.35-1.62-7.91-76.6-56.45-99.77-65.38-2.45-.94-5.25-1.88-7.64-.81a10.17,10.17,0,0,0-3.82,3.8c-5.76,8.26-11.71,17-12.81,27Z" transform="translate(-94.31 -517.11)"/><path class="cls-6" d="M487.07,735.22a382.27,382.27,0,0,1-1.83,68.32c-.38,3.17-.86,6.53-2.88,9-2.64,3.28-7.16,4.22-11.28,5.08-22.62,4.74-64.41,23.76-64.41,23.76,37,15.42,66.49,36.43,101.76,48.3-4.6,16-26.05,71.78-37,84.29-39.49-9.33-145.21-78.48-161-91s-25.67-35-17.46-53.46c4.71-10.58,14.34-18,23.87-24.62,49.39-34,116.85-65.73,176.2-74.5Z" transform="translate(-94.31 -517.11)"/><path class="cls-5" d="M359,832q23.89,5.12,47.36,12.13c2.66.81,3.79-3.36,1.15-4.17q-23.4-7-47.35-12.13c-2.72-.57-3.88,3.57-1.16,4.17Z" transform="translate(-94.31 -517.11)"/><path class="cls-5" d="M371,822.34a189.49,189.49,0,0,1,36.46,22.42c2.15,1.69,5.22-1.35,3-3a193.56,193.56,0,0,0-37.32-23.09c-2.5-1.18-4.68,2.53-2.18,3.71Z" transform="translate(-94.31 -517.11)"/><path class="cls-5" d="M406.08,843.44q51.66,23.64,103.29,47.33c-.27-1-.51-2-.78-3L485,939.17c-3.36,7.32-6.56,14.74-10.11,22-1.64,3.34-3,9.15-7.51,8.75-3.58-.32-7.16-2.37-10.38-3.77-4.26-1.83-8.48-3.68-12.68-5.59q-11.7-5.29-23.24-11-23.34-11.58-45.8-24.81Q350,909.81,326,892.89c-2.28-1.59-4.44,2.13-2.18,3.71a728.44,728.44,0,0,0,95.12,56.61q12.11,6,24.43,11.57c3.82,1.73,7.64,3.39,11.46,5.06,3.55,1.54,7.21,3.47,11.06,4.15,5.3.91,8-1.4,10.22-5.74,2.88-5.65,5.49-11.38,8.15-17.13L512.3,890a2.18,2.18,0,0,0-.78-3q-51.66-23.64-103.29-47.33c-2.47-1.15-4.68,2.56-2.15,3.72Z" transform="translate(-94.31 -517.11)"/><path class="cls-5" d="M491.34,884c-11.89,25.13-25.13,49.59-38.34,74-1.32,2.45,2.4,4.63,3.72,2.18,13.23-24.43,26.44-48.89,38.34-74,1.21-2.47-2.5-4.68-3.72-2.18Z" transform="translate(-94.31 -517.11)"/><path class="cls-5" d="M451.55,742.35a115.69,115.69,0,0,1-28.33,92c-1.86,2,1.18,5.12,3,3a119.77,119.77,0,0,0,29.6-95c-.35-2.72-4.69-2.74-4.31,0Z" transform="translate(-94.31 -517.11)"/><path class="cls-5" d="M321,865.77A59.42,59.42,0,0,0,336.9,885.9c1.08.86,2.61-.65,1.54-1.54a57.44,57.44,0,0,1-15.58-19.69c-.62-1.21-2.48-.14-1.88,1.1Z" transform="translate(-94.31 -517.11)"/><path class="cls-5" d="M335.8,875.46l9.44,9.44c1,1,2.51-.54,1.54-1.53l-9.45-9.45a1.09,1.09,0,0,0-1.53,1.54Z" transform="translate(-94.31 -517.11)"/><path class="cls-5" d="M349.31,877.34a27.31,27.31,0,0,0,8.72,8.85c1.18.75,2.26-1.13,1.07-1.86a25,25,0,0,1-7.94-8.07,1.07,1.07,0,0,0-1.85,1.08Z" transform="translate(-94.31 -517.11)"/><path class="cls-5" d="M372.72,900.91a22.37,22.37,0,0,1,7.21,6.75,1.08,1.08,0,1,0,1.85-1.1,24.52,24.52,0,0,0-8-7.51,1.07,1.07,0,1,0-1.07,1.86Z" transform="translate(-94.31 -517.11)"/><path class="cls-5" d="M390.39,908l7.35,7.35a1.09,1.09,0,0,0,1.53-1.54l-7.34-7.34a1.09,1.09,0,1,0-1.54,1.53Z" transform="translate(-94.31 -517.11)"/><path class="cls-5" d="M410.55,912.37l6.29,4.2a1.09,1.09,0,0,0,1.48-.38,1.11,1.11,0,0,0-.38-1.48l-6.29-4.2a1.08,1.08,0,1,0-1.1,1.86Z" transform="translate(-94.31 -517.11)"/><path class="cls-5" d="M505.82,728.76q-10.1,16.11-20.21,32.18-4.85,7.75-9.71,15.5c-1.75,2.77-3.55,5.52-5.25,8.34-1.07,1.8-2.15,3.72-2,5.92.3,4.06,4.44,6.62,7.59,8.58a73,73,0,0,0,11.41,5.49c8.53,3.47,17.59,6.46,23.59,13.86,1.75,2.15,4.79-.91,3-3-4.93-6-11.84-9.42-18.89-12.3-3.9-1.61-7.89-3-11.71-4.87-3.36-1.61-11.62-5.11-10.33-9.63.7-2.42,3-5.06,4.33-7.18l4.5-7.16c3-4.76,6-9.55,9-14.31l18.33-29.22c1.5-2.34-2.21-4.5-3.69-2.16Z" transform="translate(-94.31 -517.11)"/><path class="cls-5" d="M455,812.66c-1.32,3.41-2.64,6.83-3.93,10.22a1.07,1.07,0,0,0,.75,1.32,1.11,1.11,0,0,0,1.32-.75c1.32-3.42,2.64-6.84,3.93-10.23a1.09,1.09,0,0,0-.75-1.32,1.12,1.12,0,0,0-1.32.76Z" transform="translate(-94.31 -517.11)"/><path class="cls-5" d="M460.94,815.37a9.83,9.83,0,0,0-2.61,7.89,1.09,1.09,0,0,0,1.08,1.07c.51,0,1.15-.48,1.07-1.07a8.9,8.9,0,0,1-.05-1.86,4.16,4.16,0,0,1,.11-.7,4.51,4.51,0,0,1,.24-.91c.05-.14.08-.3.13-.43a2,2,0,0,0,.08-.22c-.05.11,0,0,0,0l.41-.81c.16-.27.32-.54.51-.81s-.08.11,0-.05.08-.11.14-.16l.32-.38a1.1,1.1,0,0,0,0-1.53,1.05,1.05,0,0,0-1.48,0Z" transform="translate(-94.31 -517.11)"/><path class="cls-5" d="M464,818.79a11.69,11.69,0,0,0-1.78,6,1.08,1.08,0,0,0,2.15,0c0-.24,0-.51,0-.75s0-.19,0-.3h0s0-.14,0-.19c.08-.46.18-.91.29-1.34.08-.22.14-.46.22-.68s.08-.19.1-.27h0l.09-.16a10.14,10.14,0,0,1,.67-1.26,1.11,1.11,0,0,0-.38-1.48,1.09,1.09,0,0,0-1.45.4Z" transform="translate(-94.31 -517.11)"/><path class="cls-5" d="M470.22,764.82a12.73,12.73,0,0,0-3.14,7.26,1.07,1.07,0,0,0,1.07,1.08,1.13,1.13,0,0,0,1.08-1.08s0-.45,0-.24c0-.13.06-.3.09-.43a6.74,6.74,0,0,1,.18-.83l.25-.84.16-.4a1.08,1.08,0,0,1,.08-.19c0,.08,0,.08,0,0,.25-.51.52-1,.81-1.5.16-.25.33-.49.49-.7l0,0c.06,0,.08-.11.14-.16s.19-.22.27-.32a1.12,1.12,0,0,0,0-1.54,1.08,1.08,0,0,0-1.54,0Z" transform="translate(-94.31 -517.11)"/><path class="cls-5" d="M477.49,751.42A14.71,14.71,0,0,0,477,759a1.07,1.07,0,1,0,2.07-.56,12.55,12.55,0,0,1,.54-6.49,1.06,1.06,0,0,0-.75-1.31,1.1,1.1,0,0,0-1.32.75Z" transform="translate(-94.31 -517.11)"/><path class="cls-5" d="M483.54,751.34c-.27,1.32-.54,2.63-.78,3.93a1.09,1.09,0,0,0,.75,1.31,1.06,1.06,0,0,0,1.32-.75c.27-1.32.51-2.64.78-3.93a1.1,1.1,0,0,0-.75-1.32,1.08,1.08,0,0,0-1.32.76Z" transform="translate(-94.31 -517.11)"/><path class="cls-6" d="M370.32,762.77l17.33,5.49c1.32.43,1.88-1.67.56-2.07l-17.32-5.49c-1.32-.43-1.89,1.67-.57,2.07Z" transform="translate(-94.31 -517.11)"/><path class="cls-6" d="M367,766.08c4.71,1.86,9.42,3.74,14.16,5.6a1.09,1.09,0,0,0,1.32-.75,1.11,1.11,0,0,0-.76-1.32c-4.71-1.86-9.41-3.74-14.15-5.6a1.09,1.09,0,0,0-1.32.75,1.07,1.07,0,0,0,.75,1.32Z" transform="translate(-94.31 -517.11)"/><path class="cls-6" d="M674.71,813.73a33.92,33.92,0,0,1,14.91-6.53c1.37-.25.78-2.32-.57-2.08a35.11,35.11,0,0,0-15.42,6.76,1.11,1.11,0,0,0-.37,1.48,1.06,1.06,0,0,0,1.45.37Z" transform="translate(-94.31 -517.11)"/><path class="cls-6" d="M678,821.81l14.18-7.89a1.07,1.07,0,0,0-1.08-1.85L676.92,820c-1.22.67-.14,2.53,1.07,1.86Z" transform="translate(-94.31 -517.11)"/><path class="cls-6" d="M785.35,880.7c6-.29,12-.78,18-1.42,1.37-.14,1.37-2.32,0-2.16-6,.65-12,1.13-18,1.43-1.38.08-1.38,2.23,0,2.15Z" transform="translate(-94.31 -517.11)"/><path class="cls-6" d="M788.44,884.55c5,.43,10,.89,15,1.32,1.37.13,1.37-2,0-2.15-5-.43-10-.89-15-1.32-1.37-.11-1.37,2,0,2.15Z" transform="translate(-94.31 -517.11)"/><path class="cls-6" d="M421.31,947.64q.84,9.45,1.69,18.89c.14,1.37,2.29,1.37,2.16,0q-.86-9.43-1.7-18.89c-.11-1.34-2.26-1.37-2.15,0Z" transform="translate(-94.31 -517.11)"/><path class="cls-6" d="M427.71,952.11a22.39,22.39,0,0,0,2.34,13.45c.65,1.24,2.51.14,1.86-1.07a20,20,0,0,1-2.13-11.79,1.11,1.11,0,0,0-.75-1.32,1,1,0,0,0-1.32.73Z" transform="translate(-94.31 -517.11)"/><path class="cls-6" d="M372,919.66a49,49,0,0,0-2.28,14.61,1.08,1.08,0,0,0,2.15,0,48.1,48.1,0,0,1,2.2-14c.44-1.32-1.64-1.89-2.07-.57Z" transform="translate(-94.31 -517.11)"/><path class="cls-6" d="M376.48,924.24a17.44,17.44,0,0,0-2.34,11.89,1.07,1.07,0,0,0,2.07-.57,15.44,15.44,0,0,1,2.13-10.25c.75-1.18-1.13-2.26-1.86-1.07Z" transform="translate(-94.31 -517.11)"/><path class="cls-5" d="M901.1,711.44c15.23,10.81,37,10,51.47-1.7,1.07-.86-.46-2.39-1.54-1.53-13.77,11.11-34.46,11.59-48.86,1.37-1.1-.81-2.18,1-1.07,1.86Z" transform="translate(-94.31 -517.11)"/><path class="cls-5" d="M910.68,717.25q.51,27.81-.25,55.64a1.08,1.08,0,0,0,2.16,0q.76-27.81.24-55.64a1.08,1.08,0,0,0-2.15,0Z" transform="translate(-94.31 -517.11)"/><path class="cls-5" d="M937.31,716.2l-1,57.74a1.08,1.08,0,0,0,2.16,0q.51-28.86,1-57.74c.06-1.4-2.12-1.4-2.15,0Z" transform="translate(-94.31 -517.11)"/><path class="cls-12" d="M534.34,1046.93c-1.37-5.71,6.38-8,10.36-5.6s5.7,7.05,6.64,11.33c1.27,5.78,2.48,14.47,9.26,16.41,4,1.13,7.75-1.1,11.17-2.85a57.47,57.47,0,0,0,12.08-7.8c6.24-5.6,10.17-14.51,6.83-22.69-.54-1.34-2.45-2.34-3.6-.94-4.74,5.68-8.4,13.64-3.85,20.56,4.79,7.29,12.11,4.55,18.48,1.34,13.83-7,28-15.44,34.07-30.45.67-1.67-1.24-2.91-2.67-2.67-6.7,1.19-10.54,8.51-9.25,14.94,1.61,7.93,10,12.32,17.49,12.75,9.33.54,19.23-3.55,27.47-7.59,7.69-3.76,14.74-9.17,18.27-17.16-1.13.13-2.26.29-3.39.43a24.87,24.87,0,0,0,25.91,5.84c2.58-1,1.48-5.12-1.16-4.18a20.57,20.57,0,0,1-21.71-4.7c-.89-.89-2.83-.86-3.39.43-5.47,12.35-20.13,18.24-32.4,21.47-6.81,1.77-15.25,2.07-20.42-3.58-4.2-4.6-3.2-13.24,3.69-14.48l-2.67-2.66c-4.44,11-14.39,18.22-24.43,23.84-2.37,1.32-4.76,2.58-7.18,3.82-2.85,1.45-6.57,4.06-9.9,3-8.4-2.72-3.69-13.46,0-17.87-1.21-.32-2.4-.65-3.61-.94,4.42,10.79-5.35,19.29-13.83,24-3.76,2.07-9.79,6.59-13.34,2.26-2.34-2.85-2.88-7.24-3.63-10.73-1.48-7-5.41-15.5-13.54-16.44-6.78-.78-13.64,5.16-11.94,12.13.72,2.67,4.87,1.51,4.22-1.18Z" transform="translate(-94.31 -517.11)"/><path class="cls-12" d="M547.52,1105.13c-2,6.64-3.87,14.61,1.13,20.47,4,4.63,10.66,6.19,16.47,5.22,8-1.32,34.52-18,21.79-27.26a2.18,2.18,0,0,0-2.61.35c-5.08,4.2-6.72,11.68-3.14,17.39,3.79,6,11,7.48,17.4,5.19,14.91-5.33,28.58-16.68,38.88-28.44-1.13-.86-2.26-1.75-3.39-2.61-4,5.19-.18,12.65,5.33,15,8.83,3.69,19.7-3,27.69-6.22,2.53-1,1.42-5.19-1.16-4.17-6,2.43-12.35,5.84-18.78,6.84-3.2.48-6.51.19-8.72-2.42-1.75-2-2.37-4.58-.64-6.81,1.48-1.94-1.78-4.44-3.39-2.61a107.67,107.67,0,0,1-27.74,22.76c-5,2.85-12.11,7.56-18,4.71-6.41-3.09-6.49-11.25-1.3-15.5-.86.11-1.74.22-2.6.35,4.65,3.39-5.57,10.9-7.94,12.84-4,3.28-8.83,6.35-14.15,6.64-4.07.22-8.7-1.07-11.2-4.52-3.39-4.68-1.32-11,.19-16,.84-2.72-3.31-3.85-4.12-1.18Z" transform="translate(-94.31 -517.11)"/><path class="cls-5" d="M839.4,701.1a10.41,10.41,0,0,0,14.37,11.09c-1.32,5.06-1,11.6,3.63,14a8.34,8.34,0,0,1,2.18,1.24,5.6,5.6,0,0,1,1,1.61q6.74,13.61,13.48,27.18a5.17,5.17,0,0,1,.78,2.77,5.25,5.25,0,0,1-1.18,2.44,596.84,596.84,0,0,1-37.83,47.22c-7.48-6.45-15-12.94-22.47-19.39-4.33-3.74-8.72-7.56-11.6-12.52,7-3.6,9.12-12.32,10.58-20L817.07,732c1.18-6.3,2.45-12.78,5.84-18.22a28.7,28.7,0,0,1,10.87-10Z" transform="translate(-94.31 -517.11)"/><path class="cls-2" d="M880.54,721.77c-.59-10.12-14.42-17.22-23.62-12.94-3.8,1.77-13.24,3.87-18.41,8.61-4.25,3.87-1,11,4.71,10.57l25.51-1.83a60.37,60.37,0,0,0-19.1,6.86c-2.94,1.67-6.06,4.06-5.55,7.75.43,3.1,3.26,5.17,6.35,5.54,6,.73,10.79-3.12,16.33-4.14a60.94,60.94,0,0,0-14.9,6.3c-3,1.75-6.19,5.24-4.36,8.18,1,1.69,3.31,2.15,5.3,2.28a33.72,33.72,0,0,0,15.69-2.85c-4.71.67-9.74,1.48-12.92,5.33-2,2.42-2.58,5.92-.78,8.5,2.69,3.85,8.1,2.61,11.92,2.23a23.56,23.56,0,0,0,10.79-3.68c7.26-4.82,5.65-9.64,4.49-14.26a76.44,76.44,0,0,1-1.5-29.33A24.77,24.77,0,0,0,880.54,721.77Z" transform="translate(-94.31 -517.11)"/><path class="cls-11" d="M864.72,728a46.61,46.61,0,0,1,13.91-1.56c1.4.05,1.4-2.1,0-2.16a49.13,49.13,0,0,0-14.48,1.64,1.08,1.08,0,0,0,.57,2.08Z" transform="translate(-94.31 -517.11)"/><path class="cls-11" d="M852.07,748.92a71.58,71.58,0,0,1,26.16-7.35c1.37-.11,1.37-2.26,0-2.15A73.93,73.93,0,0,0,851,747.06c-1.27.62-.16,2.48,1.07,1.86Z" transform="translate(-94.31 -517.11)"/><path class="cls-11" d="M858.29,759.81a56.36,56.36,0,0,1,18.24-5.75c1.37-.19.78-2.26-.56-2.08a57.84,57.84,0,0,0-18.78,6c-1.22.64-.11,2.5,1.1,1.85Z" transform="translate(-94.31 -517.11)"/><path class="cls-5" d="M590.87,960.69a26.91,26.91,0,0,0-1.72-8,24.5,24.5,0,0,0-5.09-6.89c-18-18.86-41.51-31.61-65.27-42.43a185.76,185.76,0,0,0-25.13,39.12c3.15-.27,6,1.86,7.85,4.44s2.83,5.63,4.31,8.4a29.59,29.59,0,0,0,25.4,15.49,12.75,12.75,0,0,1,4.82.54.91.91,0,0,0,.13.08,30.36,30.36,0,0,1,.05,18l1-1.48a11.55,11.55,0,0,1,12.78,2.2c.13-.37.21-.75.35-1.13l.35.41a14,14,0,0,1,15.17,3.33c1.73-5.22,8.48-8.1,13.46-5.73a123.83,123.83,0,0,0-.14-19.45q1.57,9.93,3.12,19.86a10.56,10.56,0,0,1,11.25-2.35C592.7,977,591.78,968.82,590.87,960.69Z" transform="translate(-94.31 -517.11)"/><path class="cls-5" d="M572.06,941.19c2.48-1.46,5-2.91,7.46-4.36a1.08,1.08,0,0,0-1.08-1.86L571,939.33a1.07,1.07,0,0,0,1.07,1.86Z" transform="translate(-94.31 -517.11)"/><path class="cls-5" d="M577.23,943.66c1.69-1.21,3.36-2.42,5.06-3.6a1.08,1.08,0,0,0-1.11-1.86l-5,3.61a1.08,1.08,0,0,0-.38,1.48,1.11,1.11,0,0,0,1.48.37Z" transform="translate(-94.31 -517.11)"/><path class="cls-5" d="M507.76,956.09a65,65,0,0,0-.22,10.25c.08,1.38,2.24,1.4,2.15,0a66.25,66.25,0,0,1,.22-10.25,1.08,1.08,0,0,0-1.08-1.07,1.13,1.13,0,0,0-1.07,1.07Z" transform="translate(-94.31 -517.11)"/><path class="cls-5" d="M511.47,962c-.16,2.23-.32,4.47-.48,6.67a1.05,1.05,0,0,0,1.07,1.08,1.13,1.13,0,0,0,1.08-1.08c.16-2.23.32-4.46.48-6.67a1.08,1.08,0,1,0-2.15,0Z" transform="translate(-94.31 -517.11)"/><path class="cls-5" d="M812.28,733.9a28.12,28.12,0,0,1,5.33,7,1.08,1.08,0,1,0,1.85-1.1,30,30,0,0,0-5.65-7.4,1.1,1.1,0,0,0-1.53,0,1.13,1.13,0,0,0,0,1.53Z" transform="translate(-94.31 -517.11)"/><path class="cls-5" d="M814.54,730.46c.91.78,1.78,1.59,2.61,2.45.4.43.78.86,1.16,1.29.18.21.37.46.56.7a.62.62,0,0,1,.14.19s.16.21,0,0l.3.38a1.1,1.1,0,0,0,1.48.37,1.07,1.07,0,0,0,.38-1.48,33.74,33.74,0,0,0-5.14-5.48,1.1,1.1,0,0,0-1.54,0,1.11,1.11,0,0,0,0,1.53Z" transform="translate(-94.31 -517.11)"/><path class="cls-6" d="M543.38,966.51a16.45,16.45,0,0,0,9.31-.73,16.26,16.26,0,0,0,4-2.23c1.58-1.24,2.79-3.26,4.92-3.45,1.64-.16,3.25.11,4.87-.29a26.61,26.61,0,0,0,5.06-2.1l12-5.76c1.24-.59.16-2.45-1.08-1.86-3.65,1.75-7.29,3.53-10.95,5.28a31.94,31.94,0,0,1-4.92,2.2c-1.88.57-3.69.19-5.57.46-3,.43-4.52,3.31-7,4.76a14,14,0,0,1-10,1.67c-1.35-.3-1.94,1.78-.57,2Z" transform="translate(-94.31 -517.11)"/><path class="cls-6" d="M576.85,959.16A225.18,225.18,0,0,1,580,981.71c.11,1.37,2.29,1.37,2.15,0a222.19,222.19,0,0,0-3.23-23.11c-.27-1.38-2.34-.78-2.07.56Z" transform="translate(-94.31 -517.11)"/><path class="cls-6" d="M563.86,966a211,211,0,0,0,2,25.48c.19,1.37,2.26.78,2.07-.57A207.58,207.58,0,0,1,566,966a1.08,1.08,0,0,0-2.15,0Z" transform="translate(-94.31 -517.11)"/><path class="cls-6" d="M549.22,968.69c-.22,4.49-.43,9-.57,13.48-.08,2.09-.26,4.25-.18,6.34,0,1.35.51,2.88,2,3.21s1.93-1.78.56-2.08c-.83-.18-.35-3.39-.32-4,0-1.88.13-3.76.19-5.65.13-3.76.32-7.53.51-11.3a1.09,1.09,0,0,0-2.18,0Z" transform="translate(-94.31 -517.11)"/><path class="cls-6" d="M837.46,729.38a35.2,35.2,0,0,1-12.67,30.41c-1.08.88.46,2.39,1.53,1.53a37.13,37.13,0,0,0,13.32-31.94c-.16-1.37-2.31-1.4-2.18,0Z" transform="translate(-94.31 -517.11)"/><path class="cls-6" d="M836.58,767.29a18.36,18.36,0,0,1,8-8.58c1.21-.67.13-2.53-1.08-1.86a20.35,20.35,0,0,0-8.74,9.37,1.07,1.07,0,1,0,1.86,1.07Z" transform="translate(-94.31 -517.11)"/><path class="cls-12" d="M529.23,1171.93a28.61,28.61,0,0,1-1.8,19.11,2.16,2.16,0,0,0,3.74,2.18,33.35,33.35,0,0,0,2.23-22.44c-.7-2.69-4.87-1.54-4.17,1.15Z" transform="translate(-94.31 -517.11)"/><path class="cls-12" d="M544.13,1171.29v5.86a2.16,2.16,0,1,0,4.31,0v-5.86a2.16,2.16,0,0,0-4.31,0Z" transform="translate(-94.31 -517.11)"/><path class="cls-5" d="M592.46,750.72A478.45,478.45,0,0,1,625,793.1c2.36,3.49,4.71,7,7,10.57s5.38,7.4,6.46,11.54c1.78,6.86-7.13,10.63-8.5,16.9-.59,2.72,3.55,3.85,4.17,1.16.78-3.61,3.87-5.81,6-8.59a11.52,11.52,0,0,0,2.77-8.87c-.48-3.83-2.71-7.16-4.71-10.36q-3.91-6.23-8-12.3a488.36,488.36,0,0,0-34.68-45.47c-1.86-2.13-4.9.94-3.09,3Z" transform="translate(-94.31 -517.11)"/><path class="cls-5" d="M633.92,831.84c6.59,8.61,12.81,17.49,18.56,26.66,2.67,4.28,5.82,8.7,6.81,13.73,1.13,5.57-.37,11.32-2.07,16.62-6.11,19.11-17.76,35.84-25,54.52-1,2.58,3.18,3.71,4.17,1.15,7.64-19.83,20.56-37.5,26.05-58.19,1.26-4.74,2-9.74,1.13-14.61s-3.69-9.39-6.33-13.67a340,340,0,0,0-19.61-28.39c-1.67-2.18-5.44,0-3.74,2.18Z" transform="translate(-94.31 -517.11)"/><path class="cls-10" d="M516,766.49a26.61,26.61,0,0,0,12.4,20.93c7.91,5.19,17.92,5.86,27,4.3,8.37-1.45,16.93-5.24,22.58-11.78,5.86-6.75,8.56-16.17,5.7-24.83-1.72-5.25-10.06-3-8.31,2.28,4.57,13.94-9.36,23.49-21.23,25.83S525.3,781,524.65,766.49c-.27-5.52-8.9-5.57-8.63,0Z" transform="translate(-94.31 -517.11)"/><path class="cls-13" d="M449.94,539.13a386.41,386.41,0,0,0-33.39,39.23c-1.67,2.23,2.07,4.38,3.71,2.18A375.08,375.08,0,0,1,453,542.2c1.93-2-1.11-5.09-3-3.07Z" transform="translate(-94.31 -517.11)"/><path class="cls-13" d="M436.62,533.1a46.93,46.93,0,0,0-25.94,21.69c-1.35,2.42,2.39,4.6,3.71,2.18a42.49,42.49,0,0,1,23.36-19.72c2.63-.86,1.5-5-1.13-4.15Z" transform="translate(-94.31 -517.11)"/><path class="cls-13" d="M501.17,574.24a281.81,281.81,0,0,0-14.51,66.51c-.27,2.78,4.07,2.75,4.31,0a276.38,276.38,0,0,1,14.34-65.38c.91-2.61-3.23-3.74-4.14-1.13Z" transform="translate(-94.31 -517.11)"/><path class="cls-13" d="M511.66,582.18q-2.67,20.58-5.3,41.17c-.35,2.74,3.95,2.71,4.3,0q2.67-20.6,5.3-41.17c.35-2.74-4-2.72-4.3,0Z" transform="translate(-94.31 -517.11)"/><path class="cls-13" d="M544,561.06c-1.05,7.83-2.13,15.63-3.18,23.46a2.23,2.23,0,0,0,1.51,2.66,2.2,2.2,0,0,0,2.66-1.5c1-7.83,2.13-15.63,3.18-23.46a2.24,2.24,0,0,0-1.51-2.67,2.18,2.18,0,0,0-2.66,1.51Z" transform="translate(-94.31 -517.11)"/><path class="cls-13" d="M557,555.73A48.32,48.32,0,0,0,558.1,574c.67,2.69,4.84,1.56,4.17-1.15a45.68,45.68,0,0,1-.94-17.12c.16-1.15-1.11-2.15-2.16-2.15a2.26,2.26,0,0,0-2.17,2.18Z" transform="translate(-94.31 -517.11)"/><path class="cls-13" d="M573,558.05a22.43,22.43,0,0,0,.46,17.78,2.16,2.16,0,0,0,3.74-2.18,18.23,18.23,0,0,1,0-14.45,2.17,2.17,0,0,0-1.51-2.66,2.22,2.22,0,0,0-2.66,1.51Z" transform="translate(-94.31 -517.11)"/><path class="cls-13" d="M478.21,540.15a137.1,137.1,0,0,0-20.47,81.69c.19,2.74,4.49,2.77,4.3,0a133,133,0,0,1,19.89-79.51c1.48-2.37-2.24-4.52-3.72-2.18Z" transform="translate(-94.31 -517.11)"/><path class="cls-13" d="M472.27,576.77a71,71,0,0,0-4.63,45.55c.62,2.69,4.79,1.56,4.17-1.15A65.89,65.89,0,0,1,476,579c1.13-2.5-2.58-4.71-3.74-2.18Z" transform="translate(-94.31 -517.11)"/><path class="cls-12" d="M474,679c8.2,23.82,29.78,42.49,54.54,47.2a185.93,185.93,0,0,0-5.3-49Z" transform="translate(-94.31 -517.11)"/><path class="cls-12" d="M617.8,632.55A259,259,0,0,0,604,552.07c-1.67-4.87-3.58-9.87-7.37-13.34-4.17-3.82-10-5.22-15.55-6.35a476.42,476.42,0,0,0-89.95-9.74c-2.77,0-5.65,0-8.12,1.18s-4.36,3.58-6.06,5.87a275.25,275.25,0,0,0-33.39,59.81c-3.07,7.61-5.84,15.58-5.59,23.76.21,7.37,2.85,14.45,5.48,21.36,4.93,13,9.91,26.07,17.55,37.64s18.35,21.66,31.5,26a157.13,157.13,0,0,1,16.31-57.18c4.84-9.55,11-18.88,20-24.64,10.93-7,24.65-7.8,37.59-6.89a163.09,163.09,0,0,1,49,11.25Z" transform="translate(-94.31 -517.11)"/><path class="cls-12" d="M486.39,528.21c-13.48-11.76-33.71-13.81-50.61-7.89S405.16,539.1,395,553.85s-17,31.42-23.81,48l44.72-26c-6.68,7.13-13.43,14.37-18,23s-6.86,18.91-4,28.25q10.38-14,20.29-28.41c-2.26,7.91-4.55,16-4.12,24.24,24.14-34.58,49.73-61.4,76.66-93.82Z" transform="translate(-94.31 -517.11)"/><path class="cls-2" d="M601.28,575.61c2.51,22,15,71.9,17.44,93.85,1.61,14.21,2.9,29.82-5.17,41.63-10,14.61-22.44,17.24-40,18.86-.09.75,23.43,42-23,57.5-8.64,2.87-27.28-9.15-28.82-17.47-3.39-18.37-8.55-71.65-7.8-69.79-6.89,5.38-17.49,4.09-24.16-1.59s-9.69-14.72-9.85-23.46c-.11-5.65,1-11.62,4.68-15.9S495,653,499.77,656q-5.58-31-11.17-62C543.57,558.07,601.28,575.61,601.28,575.61Z" transform="translate(-94.31 -517.11)"/><path class="cls-12" d="M504.53,669.57c14.53-24.46,17.51-56.29,21.17-84.48a112.1,112.1,0,0,1,13.11,45.6,121.46,121.46,0,0,0,13.8-51,111.48,111.48,0,0,0,39.15,34L575.4,580.4c12.11,4.69,25.32,10.87,29.73,23.09s4,32.5,11.49,43.13c-.27-28.36-7.13-57.55-14.58-84.92a9,9,0,0,0-2.24-4.49c-1.64-1.45-4.06-1.51-6.27-1.48a400.45,400.45,0,0,0-131.89,25.21c5.19,28.82,8.77,60.51,16.95,88.66a14.23,14.23,0,0,0,2.05-2.48,13,13,0,0,1,19.75-1.61Z" transform="translate(-94.31 -517.11)"/><path class="cls-12" d="M524.65,585.09c3,22.84-8.18,43.85-18.78,63.25-2.66,4.87,4.79,9.23,7.46,4.36,11.24-20.61,23.08-43.34,19.93-67.61-.29-2.32-1.77-4.28-4.3-4.31-2.07,0-4.6,2-4.31,4.31Z" transform="translate(-94.31 -517.11)"/><path class="cls-12" d="M597.78,555.62a102.84,102.84,0,0,1,24.73,46.6c.62,2.7,4.79,1.57,4.17-1.15a107.13,107.13,0,0,0-25.83-48.49c-1.91-2-5,1-3.07,3Z" transform="translate(-94.31 -517.11)"/><path class="cls-11" d="M489.06,677.29c5.24,3.72,10.49,7.46,15.74,11.17a2.16,2.16,0,0,0,2.18-3.74c-5.25-3.71-10.5-7.45-15.74-11.17a2.2,2.2,0,0,0-3,.78,2.23,2.23,0,0,0,.78,3Z" transform="translate(-94.31 -517.11)"/><path class="cls-11" d="M497.1,688.22c.06-.16.11-.33.16-.46-.08.16-.13.35-.21.51a6.36,6.36,0,0,1,.67-1.16,3.47,3.47,0,0,1-.35.43,5.23,5.23,0,0,1,.94-.94c-.13.11-.29.22-.43.35a5.86,5.86,0,0,1,1.21-.7c-.16.08-.35.14-.51.22a4.92,4.92,0,0,1,1.24-.32,2.34,2.34,0,0,0,1.29-1,2.25,2.25,0,0,0,.22-1.67,2.21,2.21,0,0,0-1-1.29c-.16-.08-.35-.13-.51-.22a2.28,2.28,0,0,0-1.16,0,7.31,7.31,0,0,0-3.58,1.75,7.37,7.37,0,0,0-2.15,3.37,2.16,2.16,0,0,0,1.51,2.66,2.12,2.12,0,0,0,1.67-.21,2.56,2.56,0,0,0,1-1.32Z" transform="translate(-94.31 -517.11)"/><path class="cls-11" d="M574.08,646.65c-.89,12.19,6.75,23.84,18,28.33-.51-.89-1-1.78-1.51-2.66a37.41,37.41,0,0,1-8,12.48c-1.94,2,1.1,5.06,3,3a42.15,42.15,0,0,0,9.15-14.37c.45-1.15-.51-2.26-1.51-2.66-9.55-3.8-15.58-14-14.85-24.16.24-2.77-4.09-2.77-4.28,0Z" transform="translate(-94.31 -517.11)"/><path class="cls-11" d="M574.4,729.28a115.71,115.71,0,0,1-17.84,2c-6,.35-12,.62-18,.41-2.77-.11-2.77,4.19,0,4.3a185.53,185.53,0,0,0,18.57-.43,118.74,118.74,0,0,0,18.45-2.12c2.72-.62,1.56-4.77-1.13-4.17Z" transform="translate(-94.31 -517.11)"/><path d="M554.6,667.77c1.13,4.09-.59,8.18-3.87,9.09s-6.87-1.67-8-5.78.59-8.18,3.87-9.07S553.47,663.65,554.6,667.77Z" transform="translate(-94.31 -517.11)"/><path d="M602.74,650.76c1.13,4.09-.6,8.18-3.88,9.07s-6.86-1.67-8-5.78.59-8.18,3.88-9.1S601.61,646.67,602.74,650.76Z" transform="translate(-94.31 -517.11)"/><path class="cls-12" d="M544.65,637.28c3.39-1.72,7.77.92,7.18,4.69a4.66,4.66,0,0,1-.27,1c-.75,1.91-2.64,3.09-4.33,4.25A83.23,83.23,0,0,0,537,656l-6.84,6.54a53.22,53.22,0,0,1,12.65-24.33Z" transform="translate(-94.31 -517.11)"/><path class="cls-12" d="M578.87,624.4c-3.39,1.34-4.6,6.13-1.72,8.09a4.16,4.16,0,0,0,.86.46c1.75.67,3.79.06,5.68-.43a77.68,77.68,0,0,1,12.64-1.77c3-.25,5.89-.52,8.85-.76a46.59,46.59,0,0,0-24.45-6.32Z" transform="translate(-94.31 -517.11)"/><path class="cls-11" d="M566.09,703.53a80.22,80.22,0,0,1,14.56,4.27,2.2,2.2,0,0,0,2.66-1.5,2.23,2.23,0,0,0-1.51-2.67,80.35,80.35,0,0,0-14.55-4.27,2.25,2.25,0,0,0-2.67,1.5,2.18,2.18,0,0,0,1.51,2.67Z" transform="translate(-94.31 -517.11)"/><path class="cls-14" d="M472.75,531.57a122.72,122.72,0,0,0,12.49,76.6c1.29,2.45,5,.27,3.71-2.18A117.68,117.68,0,0,1,476.9,532.7c.45-2.69-3.69-3.85-4.15-1.13Z" transform="translate(-94.31 -517.11)"/><path class="cls-14" d="M478.73,537.22a122,122,0,0,0,10.95,35.25c1.21,2.5,4.92.32,3.71-2.18a118.28,118.28,0,0,1-10.52-34.23c-.4-2.74-4.55-1.56-4.14,1.16Z" transform="translate(-94.31 -517.11)"/><path class="cls-14" d="M463.15,568.92a146.25,146.25,0,0,0,12.08,75.6c1.13,2.53,4.84.35,3.71-2.18a142.12,142.12,0,0,1-11.49-73.42c.32-2.78-4-2.75-4.3,0Z" transform="translate(-94.31 -517.11)"/><path class="cls-14" d="M454.56,610.65a77.44,77.44,0,0,0,12.62,32.77c1.56,2.29,5.28.13,3.72-2.18a74.42,74.42,0,0,1-12.17-31.75,2.18,2.18,0,0,0-2.66-1.51,2.22,2.22,0,0,0-1.51,2.67Z" transform="translate(-94.31 -517.11)"/><path class="cls-14" d="M515.32,549.79c-.3,21.84-6.78,42.8-13.27,63.47-.83,2.66,3.34,3.79,4.17,1.15,6.6-21,13.13-42.37,13.43-64.62,0-2.78-4.28-2.78-4.33,0Z" transform="translate(-94.31 -517.11)"/><path class="cls-14" d="M525.38,558.13a43.64,43.64,0,0,1-.83,8.36c-.41,2.72-.84,5.44-1.24,8.16-.84,5.54-1.7,11.08-2.53,16.65a2.23,2.23,0,0,0,1.51,2.66,2.17,2.17,0,0,0,2.66-1.5c.89-5.76,1.75-11.54,2.64-17.3l1.29-8.48a45.17,45.17,0,0,0,.83-8.53c-.13-2.8-4.44-2.8-4.33,0Z" transform="translate(-94.31 -517.11)"/><path class="cls-14" d="M540.21,555.76q-.86,20.06-2.53,40.09c-.25,2.77,4.09,2.74,4.3,0,1.1-13.35,2-26.72,2.53-40.09.14-2.8-4.2-2.77-4.3,0Z" transform="translate(-94.31 -517.11)"/><path class="cls-14" d="M557.08,566.17a183.89,183.89,0,0,0,11.48,21.39c1.48,2.34,5.2.19,3.72-2.18A179.53,179.53,0,0,1,560.79,564a2.15,2.15,0,1,0-3.71,2.18Z" transform="translate(-94.31 -517.11)"/><path class="cls-14" d="M526.7,537.57a139.73,139.73,0,0,1,48.24,25.75c2.13,1.75,5.19-1.29,3-3a145.58,145.58,0,0,0-50.15-26.88c-2.64-.78-3.77,3.39-1.13,4.17Z" transform="translate(-94.31 -517.11)"/><path class="cls-14" d="M571.44,545.16a80.5,80.5,0,0,1,20.78,20.74,2.16,2.16,0,1,0,3.73-2.18,86.28,86.28,0,0,0-22.3-22.3,2.17,2.17,0,0,0-2.21,3.74Z" transform="translate(-94.31 -517.11)"/><path class="cls-14" d="M450.9,544.51q-15.73,13.37-31.45,26.75c-2.12,1.8.94,4.84,3,3q15.75-13.37,31.46-26.75c2.12-1.8-.95-4.84-3.05-3Z" transform="translate(-94.31 -517.11)"/><path class="cls-14" d="M442.46,538.19q-10.29,6.33-20.56,12.7c-2.37,1.45-.19,5.19,2.18,3.71q10.29-6.33,20.56-12.7c2.36-1.42.18-5.16-2.18-3.71Z" transform="translate(-94.31 -517.11)"/><path class="cls-14" d="M432.69,532.54A72.26,72.26,0,0,0,405,551.35c-1.86,2,1.18,5.11,3,3a67.47,67.47,0,0,1,25.86-17.71,2.23,2.23,0,0,0,1.5-2.66,2.19,2.19,0,0,0-2.66-1.48Z" transform="translate(-94.31 -517.11)"/><path class="cls-15" d="M188.73,1661.19a106.18,106.18,0,0,1-94.42-104.4c.52,35.6,3.23,74.26,26.86,100.9,16.06,18.11,40.22,28,64.41,29.17,0-10.55.13-21.07.19-31.62Z" transform="translate(-94.31 -517.11)"/><path class="cls-11" d="M487.6,1154.52c-2.45-7.08,2.1-14.74,7.72-19.67s12.54-8.45,17.3-14.23c1.4-1.72,2.64-4,1.75-6.06s-3.12-2.63-5.16-3c-23.55-4.28-48.89,13.1-53.39,36.59a56,56,0,0,0,32.45,1.59Z" transform="translate(-94.31 -517.11)"/><path class="cls-16" d="M399.37,1173.46q-28,30.51-55.93,61c-11.57,12.62-23.17,25.26-33.88,38.64-68.12,85.13-96.32,194.5-122.77,300.27-9.93,39.71-19.91,81.09-11.43,121.13,1,4.76,2.42,9.71,5.91,13.1s8.59,4.68,13.4,5.79q61.64,14.28,123.29,28.54c9.63,2.24,20.66,4.23,28.71-1.53s6.21-22.23-3.66-21.93q54,2.43,108.05,4.82c10.74.48,24.86-1.59,26.69-12.16s-11-17.36-21.39-20.4a1392.19,1392.19,0,0,0,6-276.54c-1.34-17.38-3-34.76-3-52.22,0-14.37,1.18-28.71,2.34-43l6.54-80.24c.24-2.85.54-5.92,2.37-8.12,2.07-2.48,5.48-3.23,8.66-3.85,37.18-7.1,141-61.24,133.53-65.52-13.23-7.58-64.33-2.23-98.45-9.17s-51.28-26.26-62.34-21c-4.17,2-8.45,4.74-13,4.06s-7.77-4.41-11.08-7.53c-10.79-10.12-26.64-15.17-40.9-11.35s-25.91,17.3-25.88,32.07a91.17,91.17,0,0,1,51.9,11.89Z" transform="translate(-94.31 -517.11)"/><path class="cls-15" d="M430.1,1718.17c5.95-3,9.88-9.68,8.58-16.43a15.51,15.51,0,0,0-14-12.17,2.18,2.18,0,0,1-2.13-2.12c-.7-38.64-2.53-77.28-4.41-115.86-1-19.83-2.5-39.66-3-59.52a235.25,235.25,0,0,1,7.7-65.65,241.61,241.61,0,0,1,12.05-34.62c5.25-12.09,10.87-23.9,14.88-36.46.84-2.59,4.93-1.48,4.09,1.13-6.83,21.33-17.92,41-24.45,62.42A230.51,230.51,0,0,0,419.29,1505c-.11,19.83,1.74,39.77,2.74,59.57q1.53,30.72,2.83,61.43c.83,20.47,1.58,41,1.93,61.48l-2.12-2.13c8.53.62,16.36,6.7,18.1,15.28a19.81,19.81,0,0,1-10.54,21.23c-2.42,1.21-4.58-2.44-2.13-3.66Z" transform="translate(-94.31 -517.11)"/><path class="cls-15" d="M423.24,1698.67c6.35,4.52,7.48,14.26,2.13,20-1.86,2-4.87-1-3-3a8.44,8.44,0,0,0,2-4.23c0-.05.11-.59.05-.35s0-.29,0-.35a16.15,16.15,0,0,0,0-2.2c0-.08-.08-.54,0-.17,0-.16-.05-.35-.08-.51-.08-.35-.16-.67-.24-1s-.24-.73-.38-1.1a1.52,1.52,0,1,1-.08-.16,4.84,4.84,0,0,0-.24-.46c-.16-.3-.35-.59-.54-.89-.11-.13-.19-.3-.29-.43s.13.13-.11-.13-.51-.57-.78-.84l-.41-.35c-.32-.27.14.08-.24-.19a2.16,2.16,0,0,1-.75-2.9,2.21,2.21,0,0,1,2.93-.7Z" transform="translate(-94.31 -517.11)"/><path class="cls-15" d="M416.43,1702.89a13.41,13.41,0,0,1-3.25,14.32,2.14,2.14,0,0,1-3-3,10.08,10.08,0,0,0,1.08-1.18c-.27.32.11-.16.19-.3s.29-.45.4-.67.24-.46.38-.7a1.44,1.44,0,0,0,.13-.32c-.18.4,0,0,0-.08a11.25,11.25,0,0,0,.46-1.54c.05-.24.08-.45.13-.7s0,.38,0,0c0-.11,0-.24,0-.35a10.55,10.55,0,0,0,0-1.59c0-.1,0-.24,0-.35,0-.43.06.22,0,0s-.08-.46-.13-.7a13.64,13.64,0,0,0-.51-1.61,2.14,2.14,0,0,1,1.48-2.61,2.24,2.24,0,0,1,2.63,1.5Z" transform="translate(-94.31 -517.11)"/><path class="cls-15" d="M462.23,1703.22a10.77,10.77,0,0,1,3.31,11.38,2.12,2.12,0,1,1-4.09-1.13,9.83,9.83,0,0,0,.29-1.16c.08-.38,0,.38,0,.11,0-.08,0-.19,0-.27a4,4,0,0,0,0-.59,4,4,0,0,0,0-.6c0-.1,0-.21,0-.32,0-.29,0,.08,0,.16-.11-.4-.16-.83-.27-1.23-.05-.19-.13-.38-.19-.57s-.08-.16-.1-.24c.05.19.16.38,0,.08a5.93,5.93,0,0,0-.59-1,2.09,2.09,0,0,0-.16-.22c-.19-.26-.08-.08,0,.06-.13-.14-.24-.32-.37-.46a7.76,7.76,0,0,0-1-.86,2.15,2.15,0,0,1,0-3,2.13,2.13,0,0,1,3-.08Z" transform="translate(-94.31 -517.11)"/><path class="cls-15" d="M456.47,1706.77a8.83,8.83,0,0,1-2.61,12,2.12,2.12,0,1,1-2.15-3.66l.24-.16c.3-.19,0,0-.11.08a3.37,3.37,0,0,1,.43-.4l.24-.24c.06-.06.27-.35.06-.06s0,0,.05,0l.16-.24c.11-.16.19-.32.3-.51s.08-.19.13-.27c.19-.38-.13.35,0,.13a8.79,8.79,0,0,0,.35-1.18c0-.11,0-.19.05-.3s-.05.57,0,.16c0-.18,0-.4,0-.59a5.82,5.82,0,0,0,0-.59c0-.11,0-.19,0-.29,0-.27.11.51,0,.16s-.22-.78-.33-1.19c-.08-.21.25.49.06.14a2.23,2.23,0,0,1-.14-.27,2.78,2.78,0,0,0-.35-.54,2.14,2.14,0,0,1,3.69-2.15Z" transform="translate(-94.31 -517.11)"/><path class="cls-15" d="M349.14,1719.74a154.2,154.2,0,0,0-59.57-30.27,2.15,2.15,0,0,1-.94-3.56,176.87,176.87,0,0,0,45.66-112.7c1.32-40.09-12.11-79.7-36.67-111.34a174.55,174.55,0,0,0-49.27-43.43c-2.37-1.37-.21-5.06,2.15-3.66A181.34,181.34,0,0,1,327,1505.46c15.18,39.33,15.13,83.35,1,123A179.33,179.33,0,0,1,291.62,1689c-.33-1.18-.62-2.36-.95-3.55a159,159,0,0,1,61.43,31.38c2.15,1.69-.86,4.68-3,3Z" transform="translate(-94.31 -517.11)"/><path class="cls-15" d="M334.42,1718.55a22.41,22.41,0,0,1,9.26,23.81c-.67,2.64-4.76,1.54-4.09-1.13a18,18,0,0,0-7.32-19c-2.26-1.51-.13-5.19,2.15-3.66Z" transform="translate(-94.31 -517.11)"/><path class="cls-15" d="M327.32,1724.82a20.22,20.22,0,0,1,4.95,18.89c-.67,2.64-4.79,1.53-4.09-1.13a15.88,15.88,0,0,0-3.87-14.75c-1.89-2,1.1-5,3-3Z" transform="translate(-94.31 -517.11)"/><path class="cls-15" d="M341.74,1238.68c10.36,11.46,20.67,23.3,27.31,37.27s9.26,30.51,3.8,45c-2.83,7.48-8.13,14.42-15.58,17.22-8.32,3.15-17.55.72-26.34-.59s-19.08-1-24.84,5.78c-7.88,9.31-2.39,24.7-9.2,34.82-5,7.42-15.42,9.52-24.08,7.34s-16-7.75-23.14-13.18c0,0,16.41-37,39.28-70.93S341.74,1238.68,341.74,1238.68Z" transform="translate(-94.31 -517.11)"/><path class="cls-15" d="M274,1492.51c-.91,5.12-1.83,10.26-2.74,15.37a2.13,2.13,0,0,1-2.61,1.48,2.16,2.16,0,0,1-1.48-2.61c.91-5.11,1.83-10.25,2.74-15.37a2.13,2.13,0,0,1,2.61-1.48,2.19,2.19,0,0,1,1.48,2.61Z" transform="translate(-94.31 -517.11)"/><path class="cls-15" d="M255.67,1490a18.56,18.56,0,0,0-1.67,2.93c-.11.25-.13.27-.05.11a4.29,4.29,0,0,0-.16.43,7.93,7.93,0,0,0-.3.86c-.16.54-.32,1.08-.46,1.64a17.11,17.11,0,0,0-.16,6.17,2.12,2.12,0,0,1-4.09,1.13,20.65,20.65,0,0,1,3.26-15.39,2.15,2.15,0,0,1,2.9-.76,2.1,2.1,0,0,1,.73,2.88Z" transform="translate(-94.31 -517.11)"/><path class="cls-15" d="M266.94,1543.45l2.43,17a2.19,2.19,0,0,1-1.48,2.61,2.14,2.14,0,0,1-2.61-1.48l-2.43-17a2.18,2.18,0,0,1,1.48-2.61,2.14,2.14,0,0,1,2.61,1.48Z" transform="translate(-94.31 -517.11)"/><path class="cls-15" d="M297.48,1567.69a42.75,42.75,0,0,0-1.77,13.16,2.15,2.15,0,0,1-2.13,2.12,2.18,2.18,0,0,1-2.13-2.12,47.68,47.68,0,0,1,1.94-14.29,2.12,2.12,0,1,1,4.09,1.13Z" transform="translate(-94.31 -517.11)"/><path class="cls-15" d="M281.61,1595.11l-2.91,10.76a2.12,2.12,0,1,1-4.09-1.13l2.91-10.76a2.12,2.12,0,0,1,4.09,1.13Z" transform="translate(-94.31 -517.11)"/><path class="cls-15" d="M361,1488.85q7.59,89.45,21.28,178.18,3.84,24.81,8.15,49.58c.46,2.67-3.63,3.83-4.09,1.13q-15.42-88.62-24.8-178.17-2.67-25.33-4.79-50.71c-.22-2.72,4-2.72,4.25,0Z" transform="translate(-94.31 -517.11)"/><path class="cls-15" d="M378.6,1660.81a136.06,136.06,0,0,1-45.44,43.13c-2.37,1.37-4.52-2.29-2.15-3.66a131.85,131.85,0,0,0,43.91-41.59c1.5-2.29,5.19-.17,3.68,2.12Z" transform="translate(-94.31 -517.11)"/><path class="cls-15" d="M596.73,1170.64a16,16,0,0,1-8.93-9.42,47.73,47.73,0,0,1,27.2-2.61,22.18,22.18,0,0,1-18.19,14.23Z" transform="translate(-94.31 -517.11)"/><path class="cls-15" d="M425,1150.94a51,51,0,0,0-46.87-7.16,39.34,39.34,0,0,1,17.92,4.61c4.82,2.55,9.2,6.16,14.48,7.5s12.08-.62,13.56-5.86Z" transform="translate(-94.31 -517.11)"/><path d="M460.26,1162.51a7.51,7.51,0,1,0,7.51-7.51A7.52,7.52,0,0,0,460.26,1162.51Z" transform="translate(-94.31 -517.11)"/><path class="cls-15" d="M602.6,1168.32c-16.31,14.18-37.94,17.57-58.44,21.61-11.52,2.26-22.52,5.73-33.82,8.82-12.27,3.37-24.54,4-36.68-.35-2.55-.91-1.45-5,1.13-4.09,12.43,4.42,24.51,3.26,37-.37,10.39-3,20.61-6,31.27-8.1,19.64-3.88,40.92-6.89,56.58-20.5,2-1.81,5,1.18,3,3Z" transform="translate(-94.31 -517.11)"/><path class="cls-15" d="M442.8,1292.87V1299a2.14,2.14,0,0,1-2.12,2.12,2.16,2.16,0,0,1-2.13-2.12v-6.14a2.13,2.13,0,0,1,4.25,0Z" transform="translate(-94.31 -517.11)"/><path class="cls-15" d="M429,1295l-1.53,7.67a2.12,2.12,0,0,1-2.61,1.48,2.17,2.17,0,0,1-1.48-2.61l1.53-7.67a2.1,2.1,0,0,1,2.61-1.48A2.17,2.17,0,0,1,429,1295Z" transform="translate(-94.31 -517.11)"/><path class="cls-15" d="M401.18,1278.64c-.06.11-.11.24-.16.35.08-.22.08-.22,0,0s-.14.35-.22.54a12.74,12.74,0,0,0-.4,1.29,17.2,17.2,0,0,0-.51,2.45c.08-.48,0,.16,0,.19a5.16,5.16,0,0,0-.05.67c0,.41-.06.84-.06,1.24s0,.89.06,1.35c0,.18,0,.37.05.56a2.47,2.47,0,0,0,.05.38h0a2.34,2.34,0,0,1-.21,1.64,2.2,2.2,0,0,1-1.27,1,2.14,2.14,0,0,1-2.61-1.48,22.2,22.2,0,0,1,1.7-12.35,2.11,2.11,0,0,1,2.9-.76,2.26,2.26,0,0,1,.76,2.94Z" transform="translate(-94.31 -517.11)"/><path class="cls-15" d="M425.8,1332.15a16.16,16.16,0,0,1-1.62,10.85,2.13,2.13,0,0,1-2.9.75,2.16,2.16,0,0,1-.76-2.9,4,4,0,0,0,.49-1c-.11.27-.11.3,0,.08s.08-.19.11-.3.11-.29.16-.45a17,17,0,0,0,.54-2.24c0-.16,0-.1,0,.17a1.23,1.23,0,0,0,0-.33c0-.19,0-.37,0-.56,0-.38,0-.73,0-1.11s0-.72-.05-1.1c0-.08,0-.16,0-.24,0-.24,0-.22,0,.08a3.36,3.36,0,0,0-.11-.62,2.15,2.15,0,0,1,1.48-2.61,2.21,2.21,0,0,1,2.61,1.53Z" transform="translate(-94.31 -517.11)"/><path class="cls-15" d="M401.26,1343.94c-1,2.55-2,5.11-3,7.67a2.28,2.28,0,0,1-1,1.26,2.19,2.19,0,0,1-1.64.22,2.15,2.15,0,0,1-1.48-2.61c1-2.56,2-5.12,3-7.67a2.29,2.29,0,0,1,1-1.27,2.23,2.23,0,0,1,1.64-.21,2.16,2.16,0,0,1,1.48,2.61Z" transform="translate(-94.31 -517.11)"/><path class="cls-15" d="M440.78,1152.1a37.36,37.36,0,0,0,35.2-16.28c-13.62-5.57-31.19,3.23-34.87,17.46Z" transform="translate(-94.31 -517.11)"/><path class="cls-15" d="M544.83,1169.4H543.3a1.57,1.57,0,0,1-.81-.19,1.52,1.52,0,0,1-.67-.43,1.48,1.48,0,0,1-.43-.67,1.64,1.64,0,0,1-.19-.81l.08-.56a2.5,2.5,0,0,1,.54-1l.43-.32a2.12,2.12,0,0,1,1.07-.29h1.54a1.65,1.65,0,0,1,.8.18,1.72,1.72,0,0,1,.68.43,1.55,1.55,0,0,1,.43.68,1.7,1.7,0,0,1,.18.8l-.08.57a2.44,2.44,0,0,1-.53.94l-.43.32a2.17,2.17,0,0,1-1.08.3Z" transform="translate(-94.31 -517.11)"/><path class="cls-16" d="M371.55,1211.86a42.78,42.78,0,0,0-16.95-12.51,2.2,2.2,0,0,1-1.48-2.61,2.11,2.11,0,0,1,2.61-1.48,47,47,0,0,1,18.84,13.61,2.12,2.12,0,1,1-3,3Z" transform="translate(-94.31 -517.11)"/><path class="cls-16" d="M377.58,1205.1l-8.9-14a2.12,2.12,0,1,1,3.65-2.15c3,4.65,5.95,9.31,8.91,14a2.17,2.17,0,0,1-.75,2.91,2.14,2.14,0,0,1-2.91-.76Z" transform="translate(-94.31 -517.11)"/><path class="cls-16" d="M223.6,1464.8l-16.74-9.36c-2.39-1.35-.24-5,2.16-3.66l16.73,9.36c2.37,1.35.24,5-2.15,3.66Z" transform="translate(-94.31 -517.11)"/><path class="cls-16" d="M216.41,1471.29c-4.09-1.54-8.18-3.07-12.24-4.61a2.12,2.12,0,1,1,1.13-4.09c4.09,1.54,8.18,3.07,12.24,4.61a2.14,2.14,0,0,1,1.48,2.61,2.18,2.18,0,0,1-2.61,1.48Z" transform="translate(-94.31 -517.11)"/><path class="cls-16" d="M212.46,1484.9a18.49,18.49,0,0,1-10.23-1.88,2.15,2.15,0,0,1-.75-2.91,2.17,2.17,0,0,1,2.91-.75,6.28,6.28,0,0,0,.59.27c.48.24-.43-.17.08,0a11.43,11.43,0,0,0,1.08.38,16.42,16.42,0,0,0,2.2.54,3.85,3.85,0,0,0,.49.08c-.6,0,.13,0,.24,0l1.13.08a17.1,17.1,0,0,0,2.26-.11,2.11,2.11,0,0,1,2.12,2.12,2.16,2.16,0,0,1-2.12,2.13Z" transform="translate(-94.31 -517.11)"/><path class="cls-16" d="M463.2,1433.48l9.2,6.14a2.17,2.17,0,0,1,.75,2.9,2.13,2.13,0,0,1-2.9.76l-9.21-6.14a2.12,2.12,0,0,1,2.16-3.66Z" transform="translate(-94.31 -517.11)"/><path class="cls-16" d="M465.43,1448.85c3.39,3.25,6.75,6.51,10.14,9.79a2.14,2.14,0,0,1,0,3,2.17,2.17,0,0,1-3,0c-3.39-3.25-6.75-6.51-10.14-9.79a2.14,2.14,0,0,1,0-3,2.17,2.17,0,0,1,3,0Z" transform="translate(-94.31 -517.11)"/><path class="cls-16" d="M463.73,1461.3a62.63,62.63,0,0,1,10.87,15.88,2.12,2.12,0,0,1-3.65,2.15,60,60,0,0,0-10.23-15,2.19,2.19,0,0,1,0-3,2.16,2.16,0,0,1,3,0Z" transform="translate(-94.31 -517.11)"/><path class="cls-16" d="M462.15,1119.81a17.32,17.32,0,0,0-2.08,2.56,26.44,26.44,0,0,0-1.85,3.23,12.73,12.73,0,0,0-.57,1.37c-.21.56-.4,1.13-.56,1.72s-.3,1.16-.43,1.75l-.16.89s-.08.43-.06.27-.05.4-.05.4a2.2,2.2,0,0,1-2.13,2.13c-1.05-.06-2.26-1-2.12-2.13a26.27,26.27,0,0,1,7-15.2,2.13,2.13,0,1,1,3,3Z" transform="translate(-94.31 -517.11)"/><path class="cls-16" d="M453.73,1118.9c-1.05,5.08-2.13,10.19-3.18,15.28a2.13,2.13,0,0,1-2.61,1.48,2.16,2.16,0,0,1-1.48-2.61c1.05-5.09,2.13-10.2,3.18-15.28a2.12,2.12,0,1,1,4.09,1.13Z" transform="translate(-94.31 -517.11)"/><path class="cls-16" d="M184.91,1613.65a20.78,20.78,0,0,1-11.76-3.45,2.16,2.16,0,0,1-.75-2.9,2.13,2.13,0,0,1,2.9-.76,21.44,21.44,0,0,0,2.42,1.37c.08,0,.78.35.35.17.16.08.35.13.51.21a13.52,13.52,0,0,0,1.32.43,18.25,18.25,0,0,0,2.64.57c-.51-.08.27,0,.35,0s.38,0,.56.06c.49,0,1,0,1.48,0a2.16,2.16,0,0,1,2.13,2.13,2.25,2.25,0,0,1-2.15,2.13Z" transform="translate(-94.31 -517.11)"/><path class="cls-15" d="M463.52,1230a71.94,71.94,0,0,1-14.18,10.36c-3.5,1.86-8.1,3.26-12,1.83-4.6-1.66-5.3-6.4-4.5-10.71a67.92,67.92,0,0,1,6.41-17.94l3.33,2.58c-5.27,6.3-13.83,14.1-22.46,8.5-9-5.78-1.89-16.62,3.44-22,.51,1.22,1,2.43,1.51,3.64l-9.53,1c-3,.29-6.11.91-9.06.75a7.23,7.23,0,0,1-7.16-8.15c.32-4.66,3.17-9.23,5.94-12.84a37.93,37.93,0,0,1,11.76-10.06c2.4-1.32,4.55,2.34,2.15,3.66-6.59,3.66-13,9.93-15.17,17.35-.51,1.72-1,4.31.86,5.41,1.56.92,4,.32,5.68.16,4.87-.48,9.71-1,14.58-1.48,1.91-.19,2.69,2.42,1.51,3.63-3.47,3.53-11.11,13.24-2.75,16.12,6.68,2.29,12-4.14,15.77-8.61,1.61-1.94,4.39.54,3.34,2.58a68.91,68.91,0,0,0-5,12.81c-1,3.53-2.9,9.74,2.56,10,3.28.17,6.37-1.53,9.07-3.2a78.68,78.68,0,0,0,10.95-8.28c2-1.86,5,1.13,2.93,3Z" transform="translate(-94.31 -517.11)"/><path class="cls-17" d="M2369.24,1401.35c-107.66-107.66-53.52-225.68-5.59-195.7,0-22.43,64-65.85,117.71-4.67,43.33,49.33,27.56,186.59,27.56,186.59Z" transform="translate(-94.31 -517.11)"/><path class="cls-18" d="M2494.44,1222c-3.27,50.3-59.32,90.34-128,90.34a165.75,165.75,0,0,1-55.71-9.42c7.27,30.66,25.09,65,58.49,98.43l139.66-13.78S2521.13,1281.07,2494.44,1222Z" transform="translate(-94.31 -517.11)"/><path class="cls-19" d="M2307.6,1433.57c8.41-25.22,15-72.88,41.1-79.4s128-29,147.6-14.94,35.51,112.09,35.51,112.09Z" transform="translate(-94.31 -517.11)"/><path class="cls-20" d="M2460.29,1340.2c-2.57-11-20.23-16.4-39.41-11.94s-32.67,17-30.11,28.09,20.23,16.4,39.41,11.94S2462.85,1351.24,2460.29,1340.2Z" transform="translate(-94.31 -517.11)"/><path class="cls-21" d="M2461.84,1335.57c-2.57-11-20.23-16.4-39.41-11.94s-32.67,17-30.11,28.1,20.23,16.39,39.41,11.94S2464.4,1346.64,2461.84,1335.57Z" transform="translate(-94.31 -517.11)"/><path class="cls-22" d="M2554.46,1474.45c2.32-23.4-37.13-142.22-68.67-143.63-24-1.06-132.41,151.33-132.41,151.33C2391.53,1486.78,2550.87,1510.68,2554.46,1474.45Z" transform="translate(-94.31 -517.11)"/><path class="cls-23" d="M2540.94,1472.44c-2.69-10.78-8.48-74.72-15-87.44,6.54-3.07,34.66,81.26,30.43,92.07S2540.94,1472.44,2540.94,1472.44Z" transform="translate(-94.31 -517.11)"/><path class="cls-23" d="M2494.63,1441.22c-13.17-49.89-14.31-94.36-4-109.23a15.23,15.23,0,0,0-4.87-1.17c-24-1.06-132.41,151.33-132.41,151.33,26,3.15,108.51,15.31,159.42,11.17A336.15,336.15,0,0,1,2494.63,1441.22Z" transform="translate(-94.31 -517.11)"/><path class="cls-24" d="M2338.65,1353.23c-21.48,14-49,150.62-49,150.62l194.53-37.61S2360.14,1339.23,2338.65,1353.23Z" transform="translate(-94.31 -517.11)"/><path class="cls-25" d="M2300.87,1514.24s16.13-138.44,36.38-154.18,154.38,100.56,154.38,100.56Z" transform="translate(-94.31 -517.11)"/><path class="cls-26" d="M2303.56,1440.2s27.22,9.25,48.27,37l-36.45,18.48Z" transform="translate(-94.31 -517.11)"/><path class="cls-26" d="M2376.8,1438.48a169.18,169.18,0,0,1,2.42,48.08l105-20.3s-124-127-145.49-113a18.44,18.44,0,0,0-4.29,4.26C2354,1374.52,2370.11,1403.61,2376.8,1438.48Z" transform="translate(-94.31 -517.11)"/><path class="cls-27" d="M2445.85,1426.11s100.27,80.24,110.79,63.16c24.05-39.09-106.6-76.61-106.6-76.61Z" transform="translate(-94.31 -517.11)"/><path class="cls-19" d="M2546.32,1457.23c-9.74,4-34.1-.19-60.63-11.21-16.13-6.71-29.93-14.63-39.18-22l-.66,2.09s100.27,80.24,110.79,63.16C2563.47,1478.18,2557.85,1467.23,2546.32,1457.23Z" transform="translate(-94.31 -517.11)"/><path class="cls-21" d="M2556.42,1487.7c1.55-3.44-2.23-8.48-8.43-11.26s-12.47-2.28-14,1.16,2.22,8.48,8.42,11.26S2554.87,1491.11,2556.42,1487.7Z" transform="translate(-94.31 -517.11)"/><path class="cls-27" d="M2260.93,1353.42s21.7,150.53,41.29,146.24c44.84-9.81-37.13-152-37.13-152Z" transform="translate(-94.31 -517.11)"/><path class="cls-19" d="M2265.09,1347.63l-3.31,1.65a348.72,348.72,0,0,1,18.4,39.91c18.75,48,24.61,90.47,13.13,95a6.78,6.78,0,0,1-4.79-.1c4.79,10.32,9.49,16.54,13.7,15.62C2347.06,1489.85,2265.09,1347.63,2265.09,1347.63Z" transform="translate(-94.31 -517.11)"/><path class="cls-28" d="M2347.23,1355c0,30.34,44.83,55,100.12,55,34,0,64-9.27,82.06-23.47-12.25-27.85-27.29-52-41.12-55.22a11.69,11.69,0,0,0-2.5-.39c-2.4-.09-25.31-20.88-29.18-18.24-21.46-.77-34.37,26.36-62,31.64a168.89,168.89,0,0,0,1.94-36.6C2367,1317.19,2347.23,1334.8,2347.23,1355Z" transform="translate(-94.31 -517.11)"/><path class="cls-18" d="M2501.9,1276.86,2420.61,1293c-1.4,16.1,58.86,75,80.59,98.09C2501.2,1391.06,2522.22,1337.12,2501.9,1276.86Z" transform="translate(-94.31 -517.11)"/><path class="cls-29" d="M2442.49,1283.33l-22.87,5.54c-1.4,16.11,51.37,75.33,80.58,98.1C2500.18,1387,2465.33,1315.93,2442.49,1283.33Z" transform="translate(-94.31 -517.11)"/><path class="cls-17" d="M2396.51,1307.28l-82.66-5.76c-5.57,15.18,37.13,87.77,52,115.79C2365.88,1417.31,2400.32,1370.76,2396.51,1307.28Z" transform="translate(-94.31 -517.11)"/><path class="cls-29" d="M2398,1302.65l-48.27-11.38c-13.35,22.09,2.06,94.73,16.95,122.75C2366.72,1414,2401.84,1366.14,2398,1302.65Z" transform="translate(-94.31 -517.11)"/><path class="cls-30" d="M2414.49,1360.52c-5.45-1.67-55-11.53-64.87-46.34-10.53-37.3.1-69.7,29-72.49s72.08,40.38,72.23,61S2429.48,1353.28,2414.49,1360.52Z" transform="translate(-94.31 -517.11)"/><path class="cls-21" d="M2399.61,1307.57c-6-1.33,7.68-16.93,25.68-13.78S2435.51,1315.64,2399.61,1307.57Z" transform="translate(-94.31 -517.11)"/><path class="cls-21" d="M2384.57,1309.36c3.06-4.53-15.23-9.1-25,3.9S2366.09,1336.78,2384.57,1309.36Z" transform="translate(-94.31 -517.11)"/><path class="cls-21" d="M2368.61,1320.84c-10.53-37.3.1-69.7,29-72.49a31.41,31.41,0,0,1,7.22.22c-9-4.87-18.19-7.65-26.23-6.88-28.9,2.79-39.53,35.19-29,72.49,8,28.37,42.39,40.16,57.81,44.47C2391.82,1351.82,2374.09,1340.17,2368.61,1320.84Z" transform="translate(-94.31 -517.11)"/><path class="cls-21" d="M2378.59,1241.67c-20.88,2-32.16,19.54-32.87,43.16,8.87-7.58,9.57-12.21,22.55-15.14,28.32-6.37,69.18,11.43,71.91,31.85,2.43,18.19-13.63,46.48-26.52,58.73.34.1.63.17.85.25,15-7.24,36.48-37.25,36.33-57.87S2407.46,1238.88,2378.59,1241.67Z" transform="translate(-94.31 -517.11)"/><path class="cls-17" d="M2363.16,1237.45c10.68,9.62,25.63,21.63,65.71,33.79,0,0-18.28-12.3-19.78-23.59s-9.35-22.21-9.35-22.21Z" transform="translate(-94.31 -517.11)"/><path class="cls-29" d="M2338.68,1245.69c.87,19.59-18.58,27.46-.2,76.39,0,0,11.07-28.7,17.25-41.66s21.6-49.09,21.6-49.09Z" transform="translate(-94.31 -517.11)"/><path class="cls-17" d="M2332.5,1245.18c.87,19.59-13.49,33.23,4.89,82.16,0,0,6-34.47,12.16-47.4s32.58-54.38,32.58-54.38Z" transform="translate(-94.31 -517.11)"/><path class="cls-17" d="M2307.24,1262.71c.22,15.85-7.83,19,1.57,67.1,0,0,3.73-23.93,7.27-30.86s12.45-27.22,12.45-27.22Z" transform="translate(-94.31 -517.11)"/><path class="cls-17" d="M2315.76,1320.67c5.21,14.95-1.4,20.54,22.75,63.12,0,0-4-23.88-2.89-31.56s3.2-29.76,3.2-29.76Z" transform="translate(-94.31 -517.11)"/><path class="cls-17" d="M2367.93,1204.08c-10.31-5.4-30.88-7-66,11.74,24.7-1.55,44.42-.58,60.4,10.69Z" transform="translate(-94.31 -517.11)"/><path class="cls-17" d="M2453.6,1177.82c13.9,6.11,36.77,23.91,64.45,67.36-25.62-23.47-47.25-40.86-70.31-48.56Z" transform="translate(-94.31 -517.11)"/><path class="cls-30" d="M2241.12,1346.47c-2.4-2.66-9.64-2.16-9.43-3.88s-1.09-10.8-3.34-10.51-1.18,13.06-.31,14.34,8.6,4.26,10.61,4S2242.25,1347.73,2241.12,1346.47Z" transform="translate(-94.31 -517.11)"/><path class="cls-30" d="M2235.4,1349.71c-2.66-3.6-9.86-5.35-9.83-7.12s-2.18-11.86-4.41-12.28.12,13.54,1.14,15.21,9,7.27,11,7.63A2.12,2.12,0,0,0,2235.4,1349.71Z" transform="translate(-94.31 -517.11)"/><path class="cls-30" d="M2236,1348.41c-3.61-2.33-10.93-1.14-11.44-2.79s-5.59-10.22-7.84-9.71,4.14,12.57,5.62,13.73,10.73,3.22,12.71,2.79A2.22,2.22,0,0,0,2236,1348.41Z" transform="translate(-94.31 -517.11)"/><path class="cls-30" d="M2258.68,1352.57c-12.48,3-26.77,2.91-29.55-3.44C2226.87,1344,2251.29,1339.74,2258.68,1352.57Z" transform="translate(-94.31 -517.11)"/><path class="cls-30" d="M2263.28,1351.68s-13.61-15.33-16.74-15.72c-6.13-.73-11.16-8.29-13.56-4.46-1.5,2.37,1.52,4,8.26,8.84C2244.48,1342.74,2238,1360.35,2263.28,1351.68Z" transform="translate(-94.31 -517.11)"/><path class="cls-30" d="M2418.7,1424.17c-1.06,3.46-7.87,6-6.95,7.51s3.56,10.48,1.38,11.16-6.61-11.62-6.35-13.17,6-7.54,8-8.12S2419.19,1422.52,2418.7,1424.17Z" transform="translate(-94.31 -517.11)"/><path class="cls-30" d="M2412.14,1423.51c-.9,4.46-6.71,9.06-6,10.69s3,11.91,1.16,13.22-5.59-12.62-5.38-14.6,5.16-10.49,6.83-11.65A2.17,2.17,0,0,1,2412.14,1423.51Z" transform="translate(-94.31 -517.11)"/><path class="cls-30" d="M2413.23,1424.48c-2.3,3.66-9.47,5.57-9.23,7.34s-.8,11.8-3,12.28-1.52-13.39-.68-15.06,8.41-7.44,10.39-7.87A2.26,2.26,0,0,1,2413.23,1424.48Z" transform="translate(-94.31 -517.11)"/><path class="cls-30" d="M2432.12,1411.23c-12.6,2.4-25.6,8.39-25.46,15.43C2406.78,1432.33,2430.81,1426.2,2432.12,1411.23Z" transform="translate(-94.31 -517.11)"/><path class="cls-30" d="M2436.67,1410.17s-5.91,19.88-8.6,21.53c-5.28,3.22-6.66,12.31-10.46,9.76-2.37-1.57-.29-4.31,3.78-11.62C2423.35,1426.25,2410,1412.57,2436.67,1410.17Z" transform="translate(-94.31 -517.11)"/><path class="cls-31" d="M2259.94,1384.91c-6-1.29-15.94-19.57-14.61-25.75s12.91-16.32,18.65-12.93,22.33,26.42,16.79,30.56S2267.18,1386.48,2259.94,1384.91Z" transform="translate(-94.31 -517.11)"/><path class="cls-32" d="M2268.24,1349.71a47.59,47.59,0,0,1,.39,6.06c0,14.24-6,25.77-13.47,25.92a9.54,9.54,0,0,0,4.24,3.12c7.2,1.77,15.41-3.54,21-7.53C2285.12,1374,2275.07,1357.39,2268.24,1349.71Z" transform="translate(-94.31 -517.11)"/><path class="cls-17" d="M2398.4,1296.43c3.95-3.9,14.61-12.18,33.94-3.49C2417.32,1289.16,2409.74,1289.55,2398.4,1296.43Z" transform="translate(-94.31 -517.11)"/><path class="cls-17" d="M2382,1300.57c-6-1.72-19-3.87-26,11.43C2363,1303,2368.42,1299.82,2382,1300.57Z" transform="translate(-94.31 -517.11)"/><path class="cls-33" d="M2419.19,1301.86c-1.46-3-4.56-4.68-6.91-3.73s-3.07,4.09-1.62,7.07,4.55,4.67,6.9,3.73S2420.64,1304.86,2419.19,1301.86Z" transform="translate(-94.31 -517.11)"/><path class="cls-33" d="M2424.17,1299.34c-5.78-2.16-12.86-3.61-19.42,3.41C2412.14,1299.41,2417.66,1299.26,2424.17,1299.34Z" transform="translate(-94.31 -517.11)"/><path class="cls-33" d="M2370,1314.62c-1-3.15.14-6.15,2.62-6.73s5.32,1.47,6.34,4.62-.14,6.15-2.62,6.74S2371,1317.77,2370,1314.62Z" transform="translate(-94.31 -517.11)"/><path class="cls-33" d="M2364.3,1315.42c2.88-4.87,7.32-9.93,17.44-8.07C2373.63,1308.83,2369.24,1311.76,2364.3,1315.42Z" transform="translate(-94.31 -517.11)"/><path class="cls-21" d="M2412.11,1338.33c-.75-1.79-2.69-1-5.25-.12s-4.85,1.38-4.1,3.15,3.44,2.54,6,1.69S2412.86,1340.12,2412.11,1338.33Z" transform="translate(-94.31 -517.11)"/><path class="cls-21" d="M2417.51,1335.11c-8.09-5.6-11.26-.22-12.52.19-1.6.51-7.31-.19-8.28,5.6-.32,1.82,5-1.38,9.76-2.93S2419.14,1336.25,2417.51,1335.11Z" transform="translate(-94.31 -517.11)"/><path class="cls-21" d="M2394.72,1330.63c-8.47-11.68,4.29-1.19,8.16-4.24C2410.44,1320.48,2399.08,1336.66,2394.72,1330.63Z" transform="translate(-94.31 -517.11)"/><path class="cls-34" d="M2394.77,1343.2l-1.09-.44c4.14-4.14,23.08-9.73,32.21-9.44l-.48,3C2417.88,1336.15,2397.94,1340.05,2394.77,1343.2Z" transform="translate(-94.31 -517.11)"/><path class="cls-21" d="M2447.91,1274.12c4.17-5.57,12.79-7.82,18,.32,6,9.2-4.5,23.18-9.51,20.2C2451.91,1291.92,2447.91,1274.12,2447.91,1274.12Z" transform="translate(-94.31 -517.11)"/><path class="cls-34" d="M2450.65,1274.9c3.24-4.36,10-6.11,14.12.24,4.67,7.22-3.49,18.17-7.41,15.82C2453.8,1288.85,2450.65,1274.9,2450.65,1274.9Z" transform="translate(-94.31 -517.11)"/><path class="cls-21" d="M2451.45,1283.06c1.45-2,4.45-2.76,6.29.07,2.09,3.22-1.57,8.12-3.31,7.08C2452.85,1289.31,2451.45,1283.06,2451.45,1283.06Z" transform="translate(-94.31 -517.11)"/><path class="cls-35" d="M2200.64,1722.47c9.81-42,7-152-7-213.7,0,0,258.22-87.14,281.66-82.66,9.81,1.86,19.62,33.61,36.43,44.83s186.38,145,231.21,251.53Z" transform="translate(-94.31 -517.11)"/><path class="cls-36" d="M2256.54,1619.22c24.9,38,38.27,76.73,37.64,103.25h448.74c-44.84-106.5-214.4-240.32-231.21-251.53s-26.62-43-36.43-44.83c-23.45-4.46-281.66,82.66-281.66,82.66a453.31,453.31,0,0,1,7.92,49.41C2220,1572.18,2239.54,1593.3,2256.54,1619.22Z" transform="translate(-94.31 -517.11)"/><path class="cls-31" d="M2461.23,1438c-5.5,2.78-27.05-6.54-30.76-12.79s-2.78-22.65,4.14-23.47,37.11,8.28,36.12,15.53S2467.89,1434.63,2461.23,1438Z" transform="translate(-94.31 -517.11)"/><path class="cls-32" d="M2440.09,1402.18a59.24,59.24,0,0,1,5.06,4.89c11.21,12.08,15.89,26,10.54,31.17,2.37.39,4.36.39,5.54-.24,6.66-3.39,8.5-13.49,9.5-20.73C2471.55,1411.31,2451.13,1404.07,2440.09,1402.18Z" transform="translate(-94.31 -517.11)"/><path class="cls-37" d="M2501,1713.8c.1,3.17-2.25,5.88-3.68,8.67h245.6c-44.84-106.5-214.4-240.32-231.21-251.53s-26.62-43-36.43-44.83c-22-4.19-251.46,72.54-279,81.76C2207.81,1541.18,2499.23,1657.44,2501,1713.8Z" transform="translate(-94.31 -517.11)"/><path class="cls-38" d="M2203.72,1517c66.56-31.36,171.7-51.61,289.85-51.61,3.92,0,7.84,0,11.74.07-13-13.68-21.55-37.74-30-39.33-22-4.19-251.46,72.54-279,81.76C2197.23,1510.44,2199.77,1513.49,2203.72,1517Z" transform="translate(-94.31 -517.11)"/><path class="cls-38" d="M2574.8,1722.47h168.12a243,243,0,0,0-14.27-28.15C2685.1,1707.79,2632.59,1717.6,2574.8,1722.47Z" transform="translate(-94.31 -517.11)"/><path class="cls-39" d="M2513.11,1557.82c0,64.93-25.38,123.4-66,164.65h295.76c-44.84-106.5-214.4-240.32-231.21-251.53s-26.62-43-36.43-44.83a11.66,11.66,0,0,0-1.5-.15C2498.51,1463.09,2513.11,1508.6,2513.11,1557.82Z" transform="translate(-94.31 -517.11)"/><path class="cls-40" d="M2602.63,1722.47a288.64,288.64,0,0,1-24.1-33.45c-40.57-65.74-50-138.42-29.47-188.68-19.19-16-33.11-26.59-37.35-29.4-16.81-11.22-26.62-43-36.43-44.83a11.66,11.66,0,0,0-1.5-.15c24.73,37.13,39.33,82.64,39.33,131.86,0,64.93-25.38,123.4-66,164.65Z" transform="translate(-94.31 -517.11)"/><polygon class="cls-41" points="2263.79 1096.83 2259.06 1206.06 2380.26 1205.55 2463.97 1194.24 2415.7 1080.36 2263.79 1096.83"/><polygon class="cls-42" points="2252.43 1088.35 2247.75 1206.06 2451.4 1192.04 2402.84 1070.6 2252.43 1088.35"/><polygon class="cls-43" points="2258.55 1093.61 2247.75 1206.06 2451.4 1192.04 2402.84 1070.6 2258.55 1093.61"/><path class="cls-44" d="M2516,1635c-14.77,28.1-56.7,53.34-104.34,61.86-25.6,4.58-49.48,3.73-68.52-1.5l-1.11,27.83,205.41-12.33Z" transform="translate(-94.31 -517.11)"/><path class="cls-41" d="M2292.22,1662.35h-74.67a4.35,4.35,0,0,0-4.41,3.9l0,.78a2.68,2.68,0,0,0,.17,1.06h0a3.5,3.5,0,0,0,.27.51,1.94,1.94,0,0,0,.27.41,4.25,4.25,0,0,0,.36.37,4.93,4.93,0,0,0,.53.36,3.13,3.13,0,0,0,.36.19,3.63,3.63,0,0,0,1.17.22h.7l.27,4c-17.93,1.84-24.78,13.3-23.64,31.42,1,15.25,18.48,14.07,26.52,12.71l.31,4.72h60.09l1.63-8.47h0l8.52-44.42h1.12a4.34,4.34,0,0,0,4.4-3.9A3.72,3.72,0,0,0,2292.22,1662.35Zm-72.61,49c-7.85-.14-16.37-1.77-17.32-8-1.36-9.18,3.2-15.5,15.62-17.85l1.7,25.84Z" transform="translate(-94.31 -517.11)"/><path class="cls-45" d="M2179.74,1698.2c-2.37-14.07,4.24-22.82,23.45-23.74l-.92-10.19c-21.9,0-29.41,13.27-26.91,35.36s31.29,13.25,31.29,13.25l-.46-5C2197.88,1708.83,2181.61,1709.27,2179.74,1698.2Z" transform="translate(-94.31 -517.11)"/><path class="cls-46" d="M2175.5,1699.36c-2.37-15.94,4.24-25.82,23.45-26.86L2198,1661c-21.9,0-29.41,15-26.91,40s31.29,15,31.29,15l-.46-5.69C2193.64,1711.4,2177.37,1711.88,2175.5,1699.36Z" transform="translate(-94.31 -517.11)"/><polygon class="cls-46" points="2172.33 1132.26 2097.25 1132.26 2104.76 1205.89 2164.82 1205.89 2172.33 1132.26"/><path class="cls-47" d="M2244.51,1649.37a89.09,89.09,0,0,1,1.57,9.76c3,29.77-9.59,55.42-28.07,57.26-7.24.72-14.31-2.38-20.44-8.14l1.5,14.73h60.09l7.51-73.63h-22.16Z" transform="translate(-94.31 -517.11)"/><path class="cls-45" d="M2252.4,1667.37a153.69,153.69,0,0,1,1-18h-8.93a89.09,89.09,0,0,1,1.57,9.76c3,29.77-9.59,55.42-28.07,57.26-7.24.72-14.31-2.38-20.44-8.14l1.5,14.73h60.09l1.09-10.71C2255.48,1702,2252.4,1685.73,2252.4,1667.37Z" transform="translate(-94.31 -517.11)"/><path class="cls-48" d="M2271.25,1651.33c0-2.71-1.87-4.91-4.17-4.91h-74.67c-2.3,0-4.17,2.2-4.17,4.91v1a3.66,3.66,0,0,0,3.35,3.92h75.51C2269.38,1656.25,2271.25,1654,2271.25,1651.33Z" transform="translate(-94.31 -517.11)"/><path class="cls-45" d="M2267.06,1646.44h-8.55s0,.1,0,.14c0,4.39-21.61,8-48.28,8-7.87,0-15.28-.31-21.84-.87a3.39,3.39,0,0,0,3.1,2.57h75.52c2.3,0,4.16-2.21,4.16-4.92S2269.38,1646.44,2267.06,1646.44Z" transform="translate(-94.31 -517.11)"/><path class="cls-48" d="M2199.46,1688.83c-.49-9.35-1.94-17.25,2-17.47s2.69,6.52,3.2,15.87,2.61,17.73-1.38,17.94S2200,1698.17,2199.46,1688.83Z" transform="translate(-94.31 -517.11)"/><path class="cls-48" d="M2202.65,1664c0-2-.94-3.65-2.1-3.65s-2.11,1.64-2.11,3.65.94,3.66,2.11,3.66S2202.65,1666.06,2202.65,1664Z" transform="translate(-94.31 -517.11)"/><path class="cls-49" d="M2461.64,1722.25l272.77-33.64s50.09,29.89,62.59,33.64Z" transform="translate(-94.31 -517.11)"/><path class="cls-50" d="M2279.43,1547.55c.51,1.55,51.35,30.81,51.35,30.81l24.66-11.32-29.79-42.62Z" transform="translate(-94.31 -517.11)"/><rect class="cls-51" x="2249.3" y="1040.71" width="15.4" height="2.57"/><polygon class="cls-51" points="2253.93 1020.95 2240.97 1029.3 2242.38 1031.46 2255.31 1023.1 2253.93 1020.95"/><polygon class="cls-51" points="2215.44 1002.1 2225.81 1013.49 2227.72 1011.77 2217.33 1000.38 2215.44 1002.1"/><polygon class="cls-51" points="2195.03 1014.04 2205.39 1025.43 2207.3 1023.71 2196.91 1012.32 2195.03 1014.04"/><polygon class="cls-51" points="2235.84 1055.65 2246.23 1067.04 2248.12 1065.29 2237.75 1053.91 2235.84 1055.65"/><polygon class="cls-51" points="2248.55 1049.11 2258.94 1060.47 2260.83 1058.75 2250.44 1047.37 2248.55 1049.11"/><polygon class="cls-51" points="2188.66 1041.92 2203.96 1039.93 2203.62 1037.39 2188.32 1039.38 2188.66 1041.92"/><polygon class="cls-51" points="2218.86 1061.1 2226.54 1049.11 2224.38 1047.76 2216.7 1059.72 2218.86 1061.1"/><path class="cls-21" d="M2443.74,1306.21c-.29-7.94-2.88-14.26-5.78-14.16s-5,6.63-4.73,14.55,2.89,14.27,5.79,14.17S2444,1314.16,2443.74,1306.21Z" transform="translate(-94.31 -517.11)"/></svg>