<svg id="Layer_1" data-name="Layer 1" xmlns="http://www.w3.org/2000/svg" viewBox="0 0 2657.06 1742.59"><defs><style>.cls-1{fill:#d9c6b0;}.cls-2{fill:#d9c5b0;}.cls-3{fill:#91544e;}.cls-4{fill:#91534d;}.cls-5{fill:#5b3939;}.cls-6{fill:#5c3939;}.cls-7{fill:#5d3a3a;}.cls-8{fill:#5b3838;}</style></defs><title>quote</title><path class="cls-1" d="M599.79,194.58c34.11,2.71,68.3,2.83,102.48,2.57,21.08-.17,42,2.95,63.09,2.39,20.68-.56,41.49-1.19,62.06.5,34.18,2.81,68.43,0,102.49,2.37,37,2.55,73.92,1.18,110.87,2.13,3.13.08,6.59-.48,7.82,3.67a56.54,56.54,0,0,1-7,1.06q-42.93,1.2-85.85,2.26c-30.21.75-60.42.85-90.63,2-39.73,1.47-79.51,1.41-119.26,2.67-33.77,1.07-67.59.66-101.36,2.48a50.93,50.93,0,0,0-5.94.4,7,7,0,0,0-5.81,6.62c-.36,4,1.65,7.2,5.51,8a33.83,33.83,0,0,0,8.28.68c8.73-.31,17.45-1.05,26.19-1.25,35.38-.77,70.76-.68,106.14-2.26,34.15-1.53,68.37-.82,102.56-2.33,35.74-1.59,71.55-.84,107.33-2.45,34.15-1.53,68.36-.8,102.55-2.32,36.14-1.61,72.35-.83,108.52-2.46,34.55-1.55,69.16-1,103.75-2.31,48.47-1.86,97-2.09,145.51-3.09,12.31-.25,24.61-.12,36.91-1.58,7-.84,14.27-1.33,21.39.13,1.08.48,2.14,1.34,3.23,1.38,16.25.62,32.5,1.25,48.75,2.15,36.08,2,72.27-.11,108.44,2.43,34.45,2.42,69.07,0,103.66,2.33,35.64,2.44,71.47,0,107.24,2.46,34.06,2.37,68.28-.06,102.47,2.31,35.24,2.44,70.72-.74,106,2.59,10.65,1,21.47.27,32.21.33,15.92.08,31.83.36,47.75.19,10.75-.12,21.24,2.38,32,2.19,21.87-.38,43.77.47,65.64.06,12.78-.23,25.27,2.39,38,2.27,21.48-.22,43,.56,64.45.1,14-.29,27.69,2.18,41.59,2.22,25.47.06,50.93.26,76.4.41,2.78,0,5.68-.42,8.33.19,11.8,2.73,23.76,1.62,35.65,1.81,15.91.26,31.83.2,47.74.31,3.18,0,6.52-.37,9.5.46,6.65,1.86,13.38,1.67,20.13,1.84,18.49,17.06,31.1,38,40.12,61.26,8.49,21.88,10.9,44.69,10.12,68-1.18,35.39-.53,70.81-2.14,106.21-1.78,38.95-.71,78-2.44,117-1.7,38.15-.63,76.37-2.34,114.56-1.75,39-.69,78-2.44,117-1.71,38.15-.62,76.37-2.33,114.56-1.76,39.34-.71,78.76-2.46,118.14-1.68,37.75-.74,75.58-2.29,113.37-1.68,41.33-.85,82.74-2.58,124.1-1.51,36.18,0,72.42-2.35,108.6-.69,10.73-1,21.44-3.7,31.92-2.33.36-4.72.53-7,1.09a269.71,269.71,0,0,1-41,6.41c-14.67,1.31-29.41.93-44,2.5-10.7,1.16-21.48.8-32,2.23-13.87,1.88-27.83,1-41.59,2.51-11.5,1.3-23.05.89-34.42,2.29-13.08,1.62-26.24.93-39.19,2.46-12.69,1.5-25.56.45-38,2.47-15,2.45-30.26,0-45,3.89a4,4,0,0,1-1.19.06c-19.12-.84-38,2.78-57.11,2.74-9.55,0-18.81,2.72-28.46,2.39-9.09-.32-18.32-.68-27.26,2a3.58,3.58,0,0,1-1.18.08c-18.33-.82-36.41,2.86-54.72,2.86-9.49,0-19,1.46-28.45,2.08-9.1.59-18.33-.62-27.27,2.08a3.35,3.35,0,0,1-1.18.13c-15.15-.77-30.08,2.76-45.17,2.51-17.53-.29-34.8,3.6-52.33,2.76-12.14,2.93-24.71.71-36.77,2.62-16.16,2.56-32.61.23-48.6,3.9a8.94,8.94,0,0,1-2.37.18c-19.92-.86-39.6,3.43-59.5,2.73-8-.28-15.61,2.62-23.68,2.36a99.41,99.41,0,0,0-23.73,1.57c-6.13,1.28-12.69.39-19,.82-18.58,1.27-37.21,1.91-55.73,4.15-7.47.91-15.18-.15-22.65.78-17.73,2.21-35.7,1-53.35,4.1a11.8,11.8,0,0,1-2.37.2c-18.33-.83-36.44,3.06-54.72,2.63-9.64-.22-18.89,2.12-28.35,3.09-.68.07-1.28.86-1.92,1.32-6.87,1.62-13.38-1.2-20.08-1.63-22.62-1.44-45.22-3-67.83-4.48q-36.3-2.39-72.6-4.7-38.1-2.45-76.18-4.87-35.71-2.29-71.41-4.63-38.09-2.45-76.18-4.86-36.3-2.32-72.6-4.69-38.68-2.49-77.37-4.92-36.9-2.35-73.79-4.75c-24.6-1.58-49.19-3.24-73.79-4.73-19.45-1.17-38.92-2.14-58.38-3.19-1.59-.09-3.18-.15-4.76-.27-17.84-1.31-35.67-2.71-53.52-3.94q-33.9-2.34-67.82-4.48-39.88-2.57-79.76-5c-18.66-1.12-37.37-1.53-56-3.23-13.5-1.23-27-1.51-40.49-2.42-29.75-2-59.47-4.25-89.21-6.29-23-1.59-46-3-69-4.52-26.58-1.71-53.16-3.49-79.75-5a159,159,0,0,1-57.45-14.16c.08-2.38.31-4.77.24-7.15-1.11-37.73.36-75.46-2-113.23-2.45-39.62-.15-79.43-2.54-119.16-2.26-37.66.13-75.45-2.28-113.22-2.45-38.42-.05-77-2.44-115.58-2.4-38.84,0-77.83-2.34-116.79s-.1-77.83-2.47-116.78c-2.31-38,.1-76.24-2.3-114.4-2.44-38.83-.1-77.83-2.41-116.78-1.81-30.54-.63-61.25-.82-91.89,0-5.55.31-11.1-1.37-16.57a15.85,15.85,0,0,1,.17-9.44,35.26,35.26,0,0,0,1.25-11.81c-.21-7.22,1-14.21,2.65-21.2,6.21-26.64,16.32-51.41,33.85-72.81,2.71-3.31,5.8-6.61,6.73-11.1,14.19-3.46,28.47-6.23,43.17-6a33.27,33.27,0,0,0,5.91-.31c4.21-.69,7.67-4.43,7.54-7.9s-3.61-7-7.95-7.49a78.74,78.74,0,0,0-8.28-.17c-3.15,0-6.32.57-9.39-.63a4.66,4.66,0,0,1,1.9-4.14C287.68,210.81,305,202,324.07,197.28c1.09-.27,2.36.18,3.54.3,1.34,3.88.72,7.89.73,11.85.06,23.08,0,46.17,0,69.26,0,3.17.08,6.36.31,9.53a3.79,3.79,0,0,0,3.83,3.76c2.38.15,4.77.17,7.16.17q46.57,0,93.14,0c2,0,4,0,6-.09,2.74-.13,4.53-1.43,4.64-4.33.12-3.18.11-6.36.11-9.55q0-37,0-74c0-4,.37-7.93.57-11.9l37.34-.07c.15,3.16.43,6.33.43,9.5,0,27.41,0,54.82,0,82.23,0,7.74.46,8,8,8.23,1.19,0,2.38,0,3.58,0q47.07,0,94.15,0c2.77,0,5.56-.09,8.32-.34a3.33,3.33,0,0,0,3-3.13,48.87,48.87,0,0,0,.3-5.93c0-12.71,0-25.42,0-38.13C599.47,227.93,599.65,211.26,599.79,194.58Z" transform="translate(-97.09 -29)"/><path class="cls-2" d="M2637.05,251.94c6.34-.39,11.59,3.15,16.76,5.68,28,13.71,50.82,33.58,69.1,58.92,16.18,22.45,24.6,47.88,30.39,74.45a42.65,42.65,0,0,1,.57,8.32c.13,7.56.22,15.12.22,22.68q0,420.79,0,841.59c0,3.19-.08,6.37,0,9.55.7,24.4-6.08,47-16.06,68.95-13.37,29.41-34.71,52.06-60.16,71.14-6.31,4.74-13.61,8.16-20.48,12.14-2.08,1.2-4.26,2.2-6.79,1.58.67-18.67,1.41-37.35,2-56,1.21-37.78.36-75.58,2.2-113.37,1.88-38.55.57-77.18,2.4-115.76,1.85-38.94.55-78,2.4-117,1.81-38.15.58-76.38,2.38-114.56,1.84-38.95.52-78,2.39-116.95,1.84-38.15.63-76.38,2.37-114.57,1.82-40.13.62-80.36,2.5-120.53,1.71-36.56.55-73.19,2.22-109.79,1.37-29.8,1.18-59.69,1.15-89.55,0-35.15-10.47-67.31-29.45-96.79C2641,258.77,2639.09,255.33,2637.05,251.94Z" transform="translate(-97.09 -29)"/><path class="cls-1" d="M1385.42,1519c-.65,1-1.11,2.22-2,2.83a5.86,5.86,0,0,1-3.38.84c-17.13-.81-34.06,2-51.1,2.88-19.37,1-38.83,1.31-58.07,4.23a5.94,5.94,0,0,1-1.19.06c-18.72-.82-37.21,2.54-55.88,2.87-15.45.28-30.9,1.76-46.3,2.88-10.68.78-21.35,1.63-32,1.75-8.38.1-16.42,2.65-24.86,2.41-8.29-.24-16.72-.75-24.87,1.8a7,7,0,0,1-2.37.23c-17.91-.8-35.63,2.26-53.48,2.84-16.25.53-32.5,1.74-48.7,2.92-10.67.78-21.35,1.63-32,1.75-8.37.09-16.41,2.64-24.86,2.41-8.28-.23-16.72-.76-24.86,1.8a7,7,0,0,1-2.37.23c-17.92-.81-35.63,2.27-53.49,2.84-16.24.52-32.49,1.74-48.69,2.92-10.67.77-21.56.19-32,2.1-16.93,3.1-34.21,0-51,4a4.29,4.29,0,0,1-1.19.07c-17.91-.79-35.63,2.24-53.48,2.83-16.25.53-32.5,1.76-48.69,2.91-10.68.77-21.57.2-32,2.11-16.92,3.11-34.2,0-50.95,4a4.29,4.29,0,0,1-1.19.07c-17.92-.87-35.61,2.51-53.49,2.87-16.24.33-32.49,1.7-48.69,2.87-10.68.78-21.35,1.68-32,1.58a177.38,177.38,0,0,1-93.13-28.59c-38.77-25.61-64-61.06-76.57-105.7a31.75,31.75,0,0,1-.78-14.14c2.7.56,5.46,1,8.1,1.71a207.4,207.4,0,0,0,40.88,7.89c21.78,1.7,43.6,3,65.4,4.45,25.77,1.68,51.53,3.57,77.32,4.86,23.42,1.16,46.8,2.79,70.17,4.58,26.15,2,52.34,3.48,78.52,5,20.23,1.2,40.48,2.15,60.72,3.21,1.19.06,2.38.12,3.57.22,15.84,1.25,31.66,2.91,47.52,3.67,23.42,1.13,46.79,2.82,70.17,4.6,25.75,2,51.54,3.35,77.32,5l76.13,4.85c25,1.59,50,3.26,74.93,4.77,18.65,1.13,37.31,2,56,3.07,1.59.09,3.18.15,4.76.27,16.64,1.27,33.26,2.74,49.91,3.78,20.23,1.26,40.48,2.17,60.72,3.23,1.19.06,2.38.15,3.57.23,20.21,1.41,40.42,2.88,60.63,4.21,15.47,1,31,1.79,46.41,2.78,22.6,1.45,45.21,2.72,67.78,4.58,14.67,1.21,29.35,1.88,44,2.66C1371.33,1516.5,1378.36,1518,1385.42,1519Z" transform="translate(-97.09 -29)"/><path class="cls-3" d="M2637.05,251.94c2,3.39,4,6.83,6.13,10.15,19,29.48,29.41,61.64,29.45,96.79,0,29.86.22,59.75-1.15,89.55-1.67,36.6-.51,73.23-2.22,109.79-1.88,40.17-.68,80.4-2.5,120.53-1.74,38.19-.53,76.42-2.37,114.57-1.87,39-.55,78-2.39,116.95-1.8,38.18-.57,76.41-2.38,114.56-1.85,39-.55,78-2.4,117-1.83,38.58-.52,77.21-2.4,115.76-1.84,37.79-1,75.59-2.2,113.37-.6,18.68-1.34,37.36-2,56-2.6,4.21-2.55,9.15-3.59,13.75a186.6,186.6,0,0,1-152.88,143.64,161.67,161.67,0,0,1-41.58,1.65,26.94,26.94,0,0,1-7-1.21,6.78,6.78,0,0,1-4.33-6.55c-.09-3,2.36-6.69,5.35-7a79.68,79.68,0,0,1,11.87-.14c20.46.89,40.6-1.32,59.86-8.21,59.34-21.22,97.44-62.23,113.38-123.44a10.92,10.92,0,0,0,.13-2.37c2.66-10.48,3-21.19,3.7-31.92,2.31-36.18.84-72.42,2.35-108.6,1.73-41.36.9-82.77,2.58-124.1,1.55-37.79.61-75.62,2.29-113.37,1.75-39.38.7-78.8,2.46-118.14,1.71-38.19.62-76.41,2.33-114.56,1.75-39,.69-78,2.44-117,1.71-38.19.64-76.41,2.34-114.56,1.73-39,.66-78,2.44-116.95,1.61-35.4,1-70.82,2.14-106.21.78-23.28-1.63-46.09-10.12-68-9-23.26-21.63-44.2-40.12-61.26-3.8-5.76-9.26-9.83-14.56-14-31.59-24.56-67.4-36.93-107.47-36.37-24.67.35-49.32,1.1-74,1.66q-53.1,1.22-106.2,2.4l-105,2.38L2093.25,201l-105,2.39-105,2.38-105,2.39-106.2,2.4q-52.5,1.2-105,2.4c-19.89.46-39.77,1-59.66,1.51-7.12-1.46-14.37-1-21.39-.13-12.3,1.46-24.6,1.33-36.91,1.58-48.5,1-97,1.23-145.51,3.09-34.59,1.32-69.2.76-103.75,2.31-36.17,1.63-72.38.85-108.52,2.46-34.19,1.52-68.4.79-102.55,2.32-35.78,1.61-71.59.86-107.33,2.45-34.19,1.51-68.41.8-102.56,2.33-35.38,1.58-70.76,1.49-106.14,2.26-8.74.2-17.46.94-26.19,1.25a33.83,33.83,0,0,1-8.28-.68c-3.86-.82-5.87-4-5.51-8a7,7,0,0,1,5.81-6.62,50.93,50.93,0,0,1,5.94-.4c33.77-1.82,67.59-1.41,101.36-2.48,39.75-1.26,79.53-1.2,119.26-2.67,30.21-1.11,60.42-1.21,90.63-2q42.93-1.08,85.85-2.26a56.54,56.54,0,0,0,7-1.06c22.28-.25,44.55-.35,66.83-.77q104.41-2,208.83-4.14,87.71-1.85,175.41-3.93,91.88-2.13,183.74-4.34,82.93-1.91,165.87-3.66,105.6-2.37,211.2-4.77,91.88-2.06,183.76-4.06c77.16-1.76,154.32-3.46,231.47-5.5,33.23-.88,64.92,4.58,94.73,19.76a187.34,187.34,0,0,1,57,44.56C2630.56,245,2633.84,248.42,2637.05,251.94Z" transform="translate(-97.09 -29)"/><path class="cls-4" d="M1385.42,1519c-7.06-1-14.09-2.45-21.18-2.83-14.68-.78-29.36-1.45-44-2.66-22.57-1.86-45.18-3.13-67.78-4.58-15.46-1-30.94-1.76-46.41-2.78-20.21-1.33-40.42-2.8-60.63-4.21-1.19-.08-2.38-.17-3.57-.23-20.24-1.06-40.49-2-60.72-3.23-16.65-1-33.27-2.51-49.91-3.78-1.58-.12-3.17-.18-4.76-.27-18.65-1-37.31-1.94-56-3.07-25-1.51-50-3.18-74.93-4.77l-76.13-4.85c-25.78-1.64-51.57-3-77.32-5-23.38-1.78-46.75-3.47-70.17-4.6-15.86-.76-31.68-2.42-47.52-3.67-1.19-.1-2.38-.16-3.57-.22-20.24-1.06-40.49-2-60.72-3.21-26.18-1.55-52.37-3-78.52-5-23.37-1.79-46.75-3.42-70.17-4.58-25.79-1.29-51.55-3.18-77.32-4.86-21.8-1.42-43.62-2.75-65.4-4.45a207.4,207.4,0,0,1-40.88-7.89c-2.64-.75-5.4-1.15-8.1-1.71-3.27-3.15-7.66-4.12-11.6-6q-84.92-39.78-106.91-130.91a140.77,140.77,0,0,1-3.93-33.11c0-8.35,0-16.71,0-25.06q0-414.18-.19-828.34c-.1-64.72,35.51-130.92,98.72-164.51a187.73,187.73,0,0,1,60.91-19.88c4.35-.65,8.65-1.27,12.74-2.93,3.07,1.2,6.24.62,9.39.63a78.74,78.74,0,0,1,8.28.17c4.34.49,7.82,3.94,7.95,7.49s-3.33,7.21-7.54,7.9a33.27,33.27,0,0,1-5.91.31c-14.7-.2-29,2.57-43.17,6C178.12,266.16,138.7,305.51,119.19,365c-5.75,17.51-7.33,35.74-7.33,54.17q.12,409,0,817.95c0,7.56-.08,15.13,0,22.69.57,43.53,15,81.84,44,114.36,16.33,18.32,35.54,32.95,58.59,42.07A159,159,0,0,0,272,1430.38c26.59,1.52,53.17,3.3,79.75,5,23,1.48,46,2.93,69,4.52,29.74,2,59.46,4.3,89.21,6.29,13.49.91,27,1.19,40.49,2.42,18.6,1.7,37.31,2.11,56,3.23q39.89,2.4,79.76,5,33.92,2.17,67.82,4.48c17.85,1.23,35.68,2.63,53.52,3.94,1.58.12,3.17.18,4.76.27,19.46,1,38.93,2,58.38,3.19,24.6,1.49,49.19,3.15,73.79,4.73s49.19,3.18,73.79,4.75q38.68,2.48,77.37,4.92,36.3,2.33,72.6,4.69,38.08,2.45,76.18,4.86,35.7,2.3,71.41,4.63,38.09,2.46,76.18,4.87,36.3,2.32,72.6,4.7c22.61,1.48,45.21,3,67.83,4.48,6.7.43,13.21,3.25,20.08,1.63q82.23,5.24,164.45,10.47c55.61,3.61,111.21,7.37,166.82,11,42.9,2.76,85.81,5.32,128.71,8q42.32,2.68,84.6,5.55a79.06,79.06,0,0,1,9.49,1,7.05,7.05,0,0,1,5.87,7.78,7.33,7.33,0,0,1-7.19,6.64,68.51,68.51,0,0,1-8.35-.18q-44.09-2.83-88.17-5.72-47.07-3-94.14-6l-93-6-90.57-5.83q-48.25-3.11-96.52-6.2-46.47-3-93-5.89c-31.38-2-62.75-4.21-94.14-6.12C1426.79,1520.2,1406.14,1518.63,1385.42,1519Z" transform="translate(-97.09 -29)"/><path class="cls-5" d="M444.14,192.25c-.2,4-.56,7.93-.57,11.9q-.07,37,0,74c0,3.19,0,6.37-.11,9.55-.11,2.9-1.9,4.2-4.64,4.33-2,.09-4,.09-6,.09q-46.57,0-93.14,0c-2.39,0-4.78,0-7.16-.17a3.79,3.79,0,0,1-3.83-3.76c-.23-3.17-.31-6.36-.31-9.53,0-23.09,0-46.18,0-69.26,0-4,.61-8-.73-11.85,2.07-6.2,1-12.61,1.1-18.93a27.66,27.66,0,0,1,3.41-13.6Q368.21,100.6,403.86,35.9c2.93-5.33,6.47-7.1,12.27-6.88,9.92.37,19.87.08,29.8.12,1.94,0,4-.4,6,1.2,1,2.72-1,4.94-2,7.32q-25.14,59.21-50.31,118.4c-2,4.62-4.8,9.05-5.07,15.21h32.44c4,0,7.95,0,11.93.07,2.78,0,4.45,1.37,4.58,4.28C443.67,181.17,443.9,186.71,444.14,192.25Z" transform="translate(-97.09 -29)"/><path class="cls-6" d="M2347.8,1630.57c-4.62-2.06-9.05-1.09-13.36-1.17-10.35-.17-20.69-.09-31-.16a3.43,3.43,0,0,1-3.77-3.62c-.1-2-.13-4-.13-6q0-50.73,0-101.47c0-2.75-.45-5.58.85-8.18,1.66-1.5,3.68-1.2,5.61-1.21q49.55,0,99.08,0c1.59,0,3.19,0,4.78.08,2.21.15,3.78,1.19,3.94,3.57s.22,4.76.22,7.15c0,33.42-.09,66.85.1,100.27a33,33,0,0,1-4.34,17q-35.53,63.5-70.8,127.15c-.78,1.39-1.63,2.74-2.32,4.17a5.76,5.76,0,0,1-5.7,3.43q-19.67,0-39.27,0c-2.31-4.35.59-7.33,1.84-10.28,16.66-39.56,33.54-79,50.31-118.56C2345.48,1638.82,2348,1635.09,2347.8,1630.57Z" transform="translate(-97.09 -29)"/><path class="cls-7" d="M2144.73,1771.57c-.24-6,2-9.41,3.45-13q22.7-57.69,45.6-115.3c1-2.59,2.12-5.15,3-7.77,1.54-4.42.59-6-4-6-13.53-.11-27.06,0-40.58-.09-9.12-.06-9.22-.13-9.23-9.32q-.08-50.73,0-101.45c0-2,0-4,.17-6a3.73,3.73,0,0,1,3.79-3.75c2-.15,4-.1,6-.1q48.93,0,97.87,0a70.59,70.59,0,0,1,7.13.3,3.13,3.13,0,0,1,2.94,3.16c.16,2.77.24,5.56.24,8.34,0,33-.08,66,.1,99.06a33.2,33.2,0,0,1-4.26,17q-35.34,63.58-70.4,127.33c-.77,1.39-1.54,2.78-2.33,4.17a6.05,6.05,0,0,1-5.72,3.47C2167.42,1771.52,2156.32,1771.57,2144.73,1771.57Z" transform="translate(-97.09 -29)"/><path class="cls-8" d="M599.79,194.58c-.14,16.68-.32,33.35-.4,50-.07,12.71,0,25.42,0,38.13a48.87,48.87,0,0,1-.3,5.93,3.33,3.33,0,0,1-3,3.13c-2.76.25-5.55.34-8.32.34q-47.07,0-94.15,0c-1.2,0-2.39,0-3.58,0-7.57-.22-8-.49-8-8.23-.07-27.41,0-54.82,0-82.23,0-3.17-.28-6.34-.43-9.5.14-3.17.64-6.37.37-9.51-.69-7.82,1.49-14.61,5.32-21.47,22.7-40.58,45.06-81.34,67.54-122,1.35-2.44,2.73-4.85,4.09-7.28a5.48,5.48,0,0,1,3.78-2.61,9.9,9.9,0,0,1,2.38-.13c9.94,0,19.88,0,29.82.06,1.09,0,2.17.58,4.14,1.15-18,46.76-36.84,92.87-54.75,139.13,3.72,2.63,7,1.7,10,1.73,13.12.13,26.25,0,39.37.11,4.92,0,5.65.79,5.82,5.38C599.57,182.67,599.65,188.63,599.79,194.58Z" transform="translate(-97.09 -29)"/></svg>