<svg id="Layer_1" data-name="Layer 1" xmlns="http://www.w3.org/2000/svg" xmlns:xlink="http://www.w3.org/1999/xlink" viewBox="0 0 1364.93 1104.82"><defs><style>.cls-1{fill:none;}.cls-2{fill:#d95c49;}.cls-3{fill:#9b5d42;}.cls-4{fill:#456789;}.cls-5{fill:#ce8561;}.cls-6{fill:#c4aa9f;}.cls-7{fill:#f5e6df;}.cls-8{fill:#1c415e;}.cls-9{fill:#6a8db7;}.cls-10{fill:#fad0b8;}.cls-11{clip-path:url(#clip-path);}.cls-12{clip-path:url(#clip-path-2);}.cls-13{fill:#f59e19;}.cls-14{fill:#a53d32;}.cls-15{fill:#8ba2c2;}.cls-16{fill:#6b3826;}.cls-17{fill:#5e3223;}.cls-18{fill:#593430;}.cls-19{fill:#996b39;}.cls-20{fill:#ffbc80;}.cls-21{fill:#f29c61;}.cls-22{fill:#ccb185;}.cls-23{fill:#4a5f75;}.cls-24{fill:#354859;}.cls-25{fill:#c66;}.cls-26{fill:#e57c7c;}.cls-27{fill:#ce6f6f;}.cls-28{fill:#823f36;}.cls-29{fill:#b2695f;}.cls-30{fill:#93584d;}.cls-31{fill:#874a42;}.cls-32{fill:#e8bc77;}.cls-33{fill:#cea36a;}.cls-34{fill:#f4cc92;}.cls-35{fill:#d1aa66;}.cls-36{fill:#8e614d;opacity:0.5;isolation:isolate;}.cls-37{fill:#a0683d;}.cls-38{fill:#875330;}.cls-39{fill:#d17d43;}.cls-40{fill:#d8a884;}.cls-41{fill:#c6916d;}.cls-42{fill:#77543c;}</style><clipPath id="clip-path" transform="translate(-1393 -692)"><path class="cls-1" d="M1829.91,1227.74c30.91,49.06,41.31,113.44,27.72,171.42-1.26,5.36-2.55,11.64.51,16a13.3,13.3,0,0,0,5.54,4.15c28,13.3,59.72-4.89,90.12-3.5,10.85.5,21.46,3.52,32.13,5.72a217.69,217.69,0,0,0,86.38.34c16.82-3.35,33.32-8.67,50.26-11.07,19.65-2.77,39.56-1.54,59.35-.3l115.81,7.23c9,.56,21.28-2.07,21.39-12.09,0-3.38-1.57-6.49-3.26-9.3-8.85-14.64-21.44-25.88-32.39-38.66-28-32.65-46.16-76.2-79.64-101.65-19-14.46-41.68-21.91-64.38-26.19-18.24-3.46-36.74-5-55.19-6.57-50-4.21-100-8.4-150.08-7.93a803.57,803.57,0,0,0-102.85,7.59c-2.23.3-5.18,2.77-3.49,4.42Z"/></clipPath><clipPath id="clip-path-2" transform="translate(-1393 -692)"><path class="cls-1" d="M2004.55,1211.26l-48.39,84.66c-3,5.2-6,11.39-3.76,16.93,1.26,3.07,4,5.29,6.66,7.25a105.1,105.1,0,0,0,65.82,19.78c17.3-.75,34.1-5.81,50.69-10.82l27.74-8.39c9.26-2.8,19.39-6.26,24.25-14.64s2.71-19.23.25-28.76q-11-42.51-24.84-84.17Z"/></clipPath></defs><title>sleep</title><path class="cls-2" d="M2344.18,1591.1a352.09,352.09,0,0,0,64.58-46.84c7.46,20.47,22.84,37.36,30,57.92,7.36,21.12,5.42,44.2,3.4,66.47-1.87,20.56-5.9,44.54-24.23,54.06-3.76,1.94-8.06,3.13-12.25,2.48-3.43-.54-6.56-2.25-9.57-4a167.45,167.45,0,0,1-75.89-102.84Z" transform="translate(-1393 -692)"/><path class="cls-2" d="M2219.66,1636.27l43,79.74c1.94,3.6,4,7.31,7.19,10,4.68,4,11.26,5.36,17.56,6.32,39,5.93,78.79.25,117.81-5.44,2.8-.41,5.77-.88,7.93-2.55,3.19-2.45,3.69-6.68,3.73-10.47a93.73,93.73,0,0,0-8.68-40c-4.8-10.39-11.49-20-18.15-29.52l-24.39-34.95a12.07,12.07,0,0,0-3.83-4c-2.38-1.33-5.4-1.14-8.19-.88-47.32,4.15-97,9.08-136,33.82Z" transform="translate(-1393 -692)"/><path class="cls-3" d="M1685.25,1520.46a1060.66,1060.66,0,0,1-23.68,139.34,4.83,4.83,0,0,1-1.45,2.91,5.06,5.06,0,0,1-3.1.67q-12.9-.14-25.78-.29a1137.07,1137.07,0,0,1,7-121.39Z" transform="translate(-1393 -692)"/><path class="cls-4" d="M1575.71,1664a8.52,8.52,0,0,1-8.52-8.53V1110.29a8.53,8.53,0,0,1,17,0V1655.5A8.55,8.55,0,0,1,1575.71,1664Z" transform="translate(-1393 -692)"/><path class="cls-4" d="M2291.29,1664a8.53,8.53,0,0,1-8.53-8.53V1110.29a8.53,8.53,0,0,1,17.06,0V1655.5A8.53,8.53,0,0,1,2291.29,1664Z" transform="translate(-1393 -692)"/><rect class="cls-4" x="140.12" y="733.49" width="817.81" height="17.04"/><path class="cls-5" d="M2359.43,1126.93H1524.61a8.52,8.52,0,0,1-8.53-8.52v-25.13a8.52,8.52,0,0,1,8.53-8.53h834.82a8.52,8.52,0,0,1,8.53,8.53v25.13A8.53,8.53,0,0,1,2359.43,1126.93Z" transform="translate(-1393 -692)"/><path class="cls-5" d="M2346.88,1190.2h-809.7a21.09,21.09,0,0,1-21.1-21.1h0a21.09,21.09,0,0,1,21.1-21.1h809.7a21.1,21.1,0,0,1,21.1,21.1h0A21.12,21.12,0,0,1,2346.88,1190.2Z" transform="translate(-1393 -692)"/><path class="cls-5" d="M2346.88,1253.48h-809.7a21.09,21.09,0,0,1-21.1-21.1h0a21.1,21.1,0,0,1,21.1-21.1h809.7a21.1,21.1,0,0,1,21.1,21.1h0A21.12,21.12,0,0,1,2346.88,1253.48Z" transform="translate(-1393 -692)"/><path class="cls-5" d="M2346.88,1316.77h-809.7a21.1,21.1,0,0,1-21.1-21.1h0a21.09,21.09,0,0,1,21.1-21.1h809.7a21.1,21.1,0,0,1,21.1,21.1h0A21.12,21.12,0,0,1,2346.88,1316.77Z" transform="translate(-1393 -692)"/><path class="cls-5" d="M2346.88,1425.49h-809.7a21.09,21.09,0,0,1-21.1-21.1h0a21.1,21.1,0,0,1,21.1-21.1h809.7a21.1,21.1,0,0,1,21.1,21.1h0A21.12,21.12,0,0,1,2346.88,1425.49Z" transform="translate(-1393 -692)"/><path class="cls-6" d="M2081,1415.37c2,27.45,9.05,53.87,20.56,76.79q-35.67.06-71.35.09c-34.07,0-68.26.07-101.65-5.52-49.42-8.3-96.47-28.84-146.41-33.73-18.12-1.78-36.46-1.48-54.56-3.35-28.39-2.91-55.87-11.1-83.24-19.26q35.19-50.49,70.39-101l121.14,10c30,2.48,60,4.95,89.84,8.54a1199.5,1199.5,0,0,1,164.4,31.61q-2.22,20.21-4.45,40.42Z" transform="translate(-1393 -692)"/><path class="cls-6" d="M2220.18,1298.35a1475.24,1475.24,0,0,1,147.78,76c-16.91,19.69-41.45,30.85-65.28,41.15q-56,24.24-112.77,46.67a213.83,213.83,0,0,0-23.46-76Z" transform="translate(-1393 -692)"/><path class="cls-7" d="M2220.18,1281.15a1477.34,1477.34,0,0,1,147.78,76c-16.91,19.7-41.45,30.85-65.28,41.16q-56,24.23-112.77,46.66a213.72,213.72,0,0,0-23.46-76Z" transform="translate(-1393 -692)"/><path class="cls-8" d="M1589.15,1337.55c-1.6,4.21-5.72,6.65-9.53,8.59-4.5,2.27-9.2,4.07-13.62,6.52a92.58,92.58,0,0,0-25.15,20.31c-5.79,6.67-13.15,18.43-4.64,26.13,7.7,7,18.94,2.47,26.35-2.42,5.13-3.39,9.91-7.27,15.6-9.75a45.94,45.94,0,0,1,19.36-3.69c4.15.09,4.15-6.37,0-6.46a52.4,52.4,0,0,0-29.85,8.54c-6.74,4.41-15.88,13.44-24.77,10.35-10.74-3.74,1.91-17.74,5.83-21.79a87.59,87.59,0,0,1,24.09-17.54c8.65-4.26,18.83-7.23,22.55-17.08,1.46-3.89-4.76-5.56-6.22-1.71Z" transform="translate(-1393 -692)"/><path class="cls-6" d="M1801.63,1369.91c-7,26.6-18.9,51.27-34.46,71.63q35.05,6.66,70.08,13.35c33.46,6.37,67.06,12.75,100.92,13.45,50.1,1,100.16-10.39,150.13-5.95,18.14,1.62,36.11,5.32,54.22,6.85,28.44,2.41,57-.54,85.38-3.47l-50.41-112.29-120.88-12.68c-29.94-3.15-59.87-6.28-89.86-8.29a1196,1196,0,0,0-167.4.52q-1.56,20.27-3.15,40.55Z" transform="translate(-1393 -692)"/><path class="cls-9" d="M1594.17,1324.49c-4.5,7-13,9.93-20.13,13.33a135.58,135.58,0,0,0-25,15.48c-6,4.7-13.15,12.2-8.17,20.3,2.27,3.68,6.46,4.64,10.51,3.94,5-.85,10-2.54,14.89-3.85L1584,1369c5-1.31,11.22-3.83,16.26-1.58,3.76,1.67,7-3.87,3.26-5.58-8.39-3.74-17.49-.07-25.8,2.14l-14.72,3.91c-2.19.57-4.38,1.17-6.6,1.74s-4.89,1.64-7.3,1.71c-3.85.13-4-4.1-2.52-6.71,2-3.49,5.87-6,9-8.31a138.26,138.26,0,0,1,23.58-13.83c7.79-3.62,15.74-7.27,20.55-14.75,2.26-3.48-3.33-6.71-5.56-3.22Z" transform="translate(-1393 -692)"/><path class="cls-7" d="M1801.63,1363.45c-7,26.61-18.9,51.27-34.46,71.63q35.05,6.66,70.08,13.35c33.46,6.37,67.06,12.75,100.92,13.46,50.1,1,100.16-10.4,150.13-6,18.14,1.62,36.11,5.33,54.22,6.85,28.44,2.42,57-.54,85.38-3.47q-25.2-56.14-50.41-112.28l-120.88-12.69c-29.94-3.14-59.87-6.27-89.86-8.29a1196,1196,0,0,0-167.4.52q-1.56,20.27-3.15,40.55Z" transform="translate(-1393 -692)"/><path class="cls-6" d="M1996,1332.87q4.21,47.79,3.94,95.81-.07,13.62-.54,27.27c0,1.83,2.79,1.82,2.84,0q1.58-48-1.37-95.88-.83-13.6-2.05-27.2c-.14-1.82-3-1.82-2.82,0Z" transform="translate(-1393 -692)"/><path class="cls-6" d="M2007.8,1451.51c12,1.61,23.62-1.44,35.19-4.27a118.26,118.26,0,0,1,18.48-3.38,136.59,136.59,0,0,1,20.22.43l80.85,6q23.05,1.73,46.09,3.44c1.82.14,1.82-2.7,0-2.85q-40.44-3-80.88-6l-40.43-3c-6.46-.48-12.94-1.08-19.41-1.08a88.36,88.36,0,0,0-18.19,2c-13.53,2.82-27.15,7.88-41.16,6-1.8-.25-2.57,2.48-.76,2.72Z" transform="translate(-1393 -692)"/><path class="cls-6" d="M1989.4,1450.86c-13,4.06-26.33.57-38.94-3.06a316.65,316.65,0,0,0-39.29-8.8c-13.42-2.07-26.91-3.7-40.19-6.53-12.72-2.7-25.15-6.56-37.85-9.31-14.1-3.06-28.6-4.61-42.81-1.44-1.78.39-1,3.13.76,2.73,26.49-5.9,52.7,5,78.26,10.56,13.28,2.88,26.77,4.51,40.19,6.58A300,300,0,0,1,1948,1450c13.62,4,28.11,8,42.15,3.56,1.72-.54,1-3.29-.78-2.73Z" transform="translate(-1393 -692)"/><path class="cls-6" d="M1783.3,1433.21c50.55-6.26,99.19,13.13,148.59,20a217.76,217.76,0,0,0,41.21,2.18c1.82-.09,1.84-2.93,0-2.84-50.58,2.57-98.54-17.27-148.35-22.33a184.82,184.82,0,0,0-41.46.13c-1.77.23-1.78,3.07,0,2.84Z" transform="translate(-1393 -692)"/><path class="cls-6" d="M2144.9,1433.82l60.82,3.17c1.83.09,1.81-2.75,0-2.84q-30.42-1.61-60.82-3.17c-1.84-.09-1.82,2.73,0,2.84Z" transform="translate(-1393 -692)"/><path class="cls-6" d="M2144.2,1421.07q28.89.45,57.81.93a1.42,1.42,0,0,0,0-2.84q-28.89-.45-57.81-.93a1.42,1.42,0,0,0,0,2.84Z" transform="translate(-1393 -692)"/><path class="cls-6" d="M2145.26,1408c16,4.07,32.34-2,48.41,1,1.78.33,2.55-2.41.75-2.73-16.06-3-32.49,3.09-48.41-1a1.42,1.42,0,0,0-.75,2.73Z" transform="translate(-1393 -692)"/><path class="cls-6" d="M2147.15,1399.25l18.29,1.45c1.82.15,1.82-2.69,0-2.84l-18.29-1.45c-1.82-.15-1.82,2.69,0,2.84Z" transform="translate(-1393 -692)"/><path class="cls-6" d="M2181.54,1400.35l7.29-.94a1.58,1.58,0,0,0,1-.41,1.4,1.4,0,0,0,.42-1c0-.68-.63-1.53-1.42-1.42l-7.29.93a1.64,1.64,0,0,0-1,.42,1.39,1.39,0,0,0-.41,1c0,.69.63,1.52,1.42,1.43Z" transform="translate(-1393 -692)"/><path class="cls-6" d="M2153,1388.09l9.55,1.08a1.42,1.42,0,1,0,0-2.84l-9.55-1.08a1.43,1.43,0,0,0-1.42,1.42,1.45,1.45,0,0,0,1.42,1.42Z" transform="translate(-1393 -692)"/><path class="cls-6" d="M1815.2,1347.6q-4,31.58-9.45,62.94a1.44,1.44,0,0,0,1.37,1.8,336,336,0,0,1,44.11,3.82,1.44,1.44,0,0,0,1.8-1.37q1.46-34.18,2.93-68.38a1.45,1.45,0,0,0-1.42-1.42,311.43,311.43,0,0,0-38.28-.32c-1.82.09-1.84,2.93,0,2.84a309.48,309.48,0,0,1,38.28.33l-1.42-1.43q-1.45,34.2-2.93,68.38l1.8-1.37a345.69,345.69,0,0,0-44.87-3.92l1.37,1.8q5.54-31.72,9.53-63.7c.24-1.81-2.61-1.8-2.82,0Z" transform="translate(-1393 -692)"/><path class="cls-6" d="M2023.92,1350.26c1.12,6.61,2.22,13.19,3.33,19.79q.87,5.16,1.73,10.33c.36,2.17.23,5.75,2.41,7,2,1.17,5.16.45,7.34.42,3.29-.06,6.6,0,9.89.14a159.58,159.58,0,0,1,20.56,2.25c.79.14,1.93-.36,1.8-1.37q-2.19-18.31-4.39-36.62a1.48,1.48,0,0,0-1.42-1.43l-40.28-3.36c-1.81-.14-1.81,2.68,0,2.84l40.28,3.37-1.42-1.42q2.19,18.32,4.39,36.62l1.8-1.37a170.62,170.62,0,0,0-17.45-2.12c-6.14-.41-12.2-.2-18.33-.22-1.87,0-1.85-1.85-2.11-3.34s-.52-3.15-.79-4.73c-.5-3-1-6-1.51-9q-1.56-9.26-3.11-18.5c-.29-1.83-3-1.07-2.72.72Z" transform="translate(-1393 -692)"/><path class="cls-6" d="M1877.71,1415.4q50.43,4.39,101,6.44c1.84.07,1.82-2.77,0-2.84q-50.6-2.05-101-6.44c-1.82-.14-1.8,2.7,0,2.84Z" transform="translate(-1393 -692)"/><path class="cls-6" d="M1885.12,1400.76a316.6,316.6,0,0,1,80.82,3.11c1.79.31,2.56-2.43.76-2.73a318.49,318.49,0,0,0-81.58-3.22c-1.8.16-1.82,3,0,2.84Z" transform="translate(-1393 -692)"/><path class="cls-6" d="M1891.67,1389.5l72.46-1.41c1.81,0,1.83-2.87,0-2.84l-72.46,1.41c-1.82,0-1.84,2.87,0,2.84Z" transform="translate(-1393 -692)"/><path class="cls-6" d="M1884.8,1343.23a179.69,179.69,0,0,0-.31,20,1.47,1.47,0,0,0,1.42,1.42l79.62.81a1.44,1.44,0,0,0,1.37-1.8,104.28,104.28,0,0,1-2.16-21,1.45,1.45,0,0,0-1.42-1.42l-76.06.68a1.42,1.42,0,0,0,0,2.84l76.06-.68-1.42-1.42a107.87,107.87,0,0,0,2.26,21.73l1.37-1.8-79.62-.81,1.42,1.42a179.84,179.84,0,0,1,.31-20c.13-1.81-2.72-1.8-2.84,0Z" transform="translate(-1393 -692)"/><path class="cls-6" d="M2086.25,1353.47l1.08,20.88a1.45,1.45,0,0,0,1.42,1.42q27.45.3,54.85,1.33,6.81.27,13.58.56c2.2.09,4.38.2,6.57.31a34.11,34.11,0,0,0,6.22.19c3.58-.53,3.58-3.52,3.53-6.49-.07-4.46-.13-8.9-.2-13.36a1.49,1.49,0,0,0-1.42-1.43l-86.26-7.66c-1.81-.16-1.81,2.68,0,2.84l86.26,7.67-1.42-1.42c.05,4,.13,8,.18,12,0,1.62.77,5-1.55,5.05-2.07.09-4.22-.19-6.29-.28q-12.18-.57-24.36-1-24.86-.88-49.7-1.15l1.42,1.42-1.08-20.89c-.07-1.83-2.92-1.85-2.83,0Z" transform="translate(-1393 -692)"/><path class="cls-6" d="M2020.45,1412.81c33,6.24,66.9-.45,100,5.07,1.78.31,2.56-2.42.76-2.73-33.12-5.54-67,1.15-100-5.07-1.78-.34-2.56,2.39-.76,2.73Z" transform="translate(-1393 -692)"/><path class="cls-6" d="M2022.18,1423.91c7.16,2.84,14.86,3.27,22.47,3.6q12.34.54,24.71.7,25,.35,49.92-.81c1.82-.09,1.84-2.91,0-2.84q-24.47,1.11-49,.81-12.15-.16-24.25-.67c-7.83-.32-15.74-.63-23.12-3.56-1.71-.65-2.44,2.11-.75,2.77Z" transform="translate(-1393 -692)"/><path class="cls-6" d="M2034.75,1403c12,3.4,25,2.54,37.29,2.72q20,.3,39.92.58a1.43,1.43,0,0,0,0-2.85l-39-.57c-12.36-.18-25.49.79-37.49-2.63a1.43,1.43,0,0,0-.74,2.75Z" transform="translate(-1393 -692)"/><path class="cls-7" d="M1841.26,1699.25c-4.35,27.18-13.7,52.89-27.16,74.71l71.07,6.29c33.93,3,68,6,101.77,3.35,50-4,98.61-20.33,148.78-20.87,18.19-.2,36.45,1.69,54.64,1.42,28.53-.43,56.62-6.2,84.6-11.94q-30.69-53.36-61.34-106.71l-121.56-.6c-30.09-.14-60.19-.28-90.23.71a1197.36,1197.36,0,0,0-166.52,17.17q.46,20.33.9,40.66Z" transform="translate(-1393 -692)"/><path class="cls-6" d="M2031.66,1649.45q9,47.11,13.45,95,1.28,13.57,2.18,27.18c.13,1.82,2.95,1.55,2.82-.29q-3.21-47.86-10.9-95.27-2.18-13.45-4.73-26.85c-.34-1.77-3.16-1.51-2.82.28Z" transform="translate(-1393 -692)"/><path class="cls-6" d="M2055.17,1766.35c12.09.41,23.35-3.8,34.59-7.76a115.39,115.39,0,0,1,18.06-5.2,136,136,0,0,1,20.15-1.58l81.06-2.07q23.1-.59,46.19-1.17c1.84,0,1.53-2.87-.28-2.82l-81.08,2.07-40.53,1c-6.47.17-13,.22-19.41.85a88.46,88.46,0,0,0-17.9,3.79c-13.18,4.16-26.23,10.55-40.36,10.06-1.82,0-2.31,2.73-.49,2.81Z" transform="translate(-1393 -692)"/><path class="cls-6" d="M2036.8,1767.52c-12.48,5.32-26.14,3.2-39,.82a314.18,314.18,0,0,0-40-4.84c-13.55-.72-27.15-1-40.64-2.48-12.91-1.42-25.67-4-38.58-5.5-14.34-1.64-28.93-1.73-42.76,2.84-1.73.57-.72,3.22,1,2.64,25.78-8.51,52.94-.25,78.94,2.72,13.49,1.55,27.09,1.83,40.63,2.54a295.62,295.62,0,0,1,39.15,4.57c14,2.59,28.78,5.1,42.29-.67,1.67-.7.66-3.36-1-2.64Z" transform="translate(-1393 -692)"/><path class="cls-6" d="M1830,1770.48c49.66-11.26,100,3.19,149.84,5.13a217.8,217.8,0,0,0,41.23-1.94c1.8-.27,1.53-3.1-.29-2.83-50.08,7.61-99.78-7.35-149.82-7.43a186,186,0,0,0-41.23,4.25c-1.79.4-1.52,3.24.27,2.82Z" transform="translate(-1393 -692)"/><path class="cls-6" d="M2189.82,1735.08l60.83-2.91c1.84-.09,1.55-2.92-.28-2.83l-60.84,2.92c-1.82.09-1.53,2.91.29,2.82Z" transform="translate(-1393 -692)"/><path class="cls-6" d="M2187.86,1722.49l57.63-4.84a1.42,1.42,0,0,0-.29-2.82l-57.63,4.84c-1.82.14-1.53,3,.29,2.82Z" transform="translate(-1393 -692)"/><path class="cls-6" d="M2187.6,1709.36c16.32,2.46,32-5.2,48.27-3.87,1.81.14,2.3-2.64.48-2.81-16.28-1.33-32,6.32-48.26,3.87-1.82-.25-2.29,2.54-.49,2.81Z" transform="translate(-1393 -692)"/><path class="cls-6" d="M2188.63,1700.47l18.35-.38c1.83,0,1.53-2.86-.29-2.82l-18.35.38c-1.83,0-1.53,2.86.29,2.82Z" transform="translate(-1393 -692)"/><path class="cls-6" d="M2223,1698.13c2.39-.56,4.79-1.09,7.16-1.65a1.53,1.53,0,0,0,.95-.52,1.46,1.46,0,0,0,.31-1c-.11-.68-.77-1.45-1.55-1.27-2.39.55-4.78,1.09-7.16,1.65a1.56,1.56,0,0,0-.95.52,1.46,1.46,0,0,0-.31,1c.09.68.78,1.45,1.55,1.27Z" transform="translate(-1393 -692)"/><path class="cls-6" d="M2193.29,1688.8l9.62.1a1.41,1.41,0,0,0,1.28-1.54,1.48,1.48,0,0,0-1.55-1.28L2193,1686a1.43,1.43,0,0,0-1.28,1.55,1.45,1.45,0,0,0,1.55,1.28Z" transform="translate(-1393 -692)"/><path class="cls-6" d="M1853.17,1682.12q-.78,31.82-3.13,63.58a1.45,1.45,0,0,0,1.55,1.65,332,332,0,0,1,44.27-.59,1.46,1.46,0,0,0,1.66-1.55q-1.95-34.15-3.89-68.34a1.45,1.45,0,0,0-1.55-1.28,312.14,312.14,0,0,0-38.12,3.49c-1.79.27-1.52,3.11.29,2.83a308.23,308.23,0,0,1,38.12-3.49l-1.55-1.28q2,34.15,3.89,68.34l1.65-1.55a341.62,341.62,0,0,0-45,.58c.52.56,1,1.1,1.55,1.65q2.34-32.1,3.14-64.33c0-1.81-2.8-1.51-2.86.29Z" transform="translate(-1393 -692)"/><path class="cls-6" d="M2061.12,1664q2.65,9.69,5.27,19.36l2.76,10.09c.57,2.14.81,5.7,3.11,6.74,2.12,1,5.18-.07,7.36-.32,3.27-.38,6.56-.67,9.85-.85a168.05,168.05,0,0,1,20.69.18c.81.06,1.87-.55,1.66-1.54q-4-18-8-36a1.47,1.47,0,0,0-1.54-1.27q-20.22.32-40.42.66c-1.84,0-1.53,2.86.28,2.83l40.42-.67c-.52-.43-1-.85-1.54-1.28q4,18,8,36l1.66-1.55a174.78,174.78,0,0,0-17.58-.38c-6.13.2-12.16,1-18.26,1.6-1.85.18-2-1.67-2.41-3.11s-.84-3.09-1.26-4.62c-.81-2.95-1.6-5.9-2.41-8.83l-4.93-18.1c-.52-1.73-3.16-.69-2.7,1.06Z" transform="translate(-1393 -692)"/><path class="cls-6" d="M1922.14,1743.37q50.63-.64,101.19-3.65c1.82-.11,1.55-2.93-.29-2.82q-50.54,3-101.19,3.65c-1.83,0-1.52,2.84.29,2.82Z" transform="translate(-1393 -692)"/><path class="cls-6" d="M1928,1728.05a315.86,315.86,0,0,1,80.74-5c1.81.13,2.3-2.68.48-2.81a319,319,0,0,0-81.49,4.92c-1.78.36-1.51,3.18.27,2.84Z" transform="translate(-1393 -692)"/><path class="cls-6" d="M1933.44,1716.21l72-8.6a1.42,1.42,0,0,0-.28-2.82l-72,8.6c-1.8.21-1.53,3,.29,2.82Z" transform="translate(-1393 -692)"/><path class="cls-6" d="M1922,1670.84a179.22,179.22,0,0,0,1.69,19.9,1.44,1.44,0,0,0,1.55,1.28l79.31-7.13a1.44,1.44,0,0,0,1.19-1.92,103.53,103.53,0,0,1-4.25-20.67,1.45,1.45,0,0,0-1.55-1.28l-75.6,8.26a1.42,1.42,0,0,0,.28,2.82l75.61-8.25c-.52-.44-1-.85-1.55-1.28a109.44,109.44,0,0,0,4.41,21.41l1.19-1.93-79.31,7.12c.52.44,1,.85,1.54,1.28a181.27,181.27,0,0,1-1.69-19.89c0-1.82-2.88-1.53-2.82.28Z" transform="translate(-1393 -692)"/><path class="cls-6" d="M2123.47,1661q1.58,10.34,3.15,20.66a1.44,1.44,0,0,0,1.55,1.28q27.33-2.43,54.7-4.14c4.54-.28,9.05-.54,13.58-.79l6.55-.34a33.13,33.13,0,0,0,6.23-.43c3.5-.88,3.2-3.87,2.86-6.82-.51-4.42-1-8.85-1.53-13.27a1.47,1.47,0,0,0-1.55-1.28l-86.6,1c-1.83,0-1.53,2.84.29,2.82l86.6-1c-.52-.43-1.05-.84-1.55-1.27.47,4,.92,8,1.39,12,.18,1.6,1.26,4.84-1,5.18-2.05.31-4.23.23-6.3.34q-12.17.64-24.33,1.42-24.81,1.59-49.56,3.82c.52.43,1,.84,1.54,1.27-1-6.89-2.1-13.78-3.14-20.67-.29-1.83-3.12-1.56-2.85.26Z" transform="translate(-1393 -692)"/><path class="cls-6" d="M2063.91,1726.59c33.52,2.92,66.52-7.1,100-4.91,1.82.13,2.3-2.68.49-2.81-33.5-2.21-66.52,7.83-100,4.91-1.82-.16-2.3,2.65-.49,2.81Z" transform="translate(-1393 -692)"/><path class="cls-6" d="M2066.72,1737.46c7.39,2.12,15.11,1.78,22.72,1.35q12.36-.7,24.66-1.77,24.89-2.13,49.58-5.77c1.8-.27,1.53-3.1-.29-2.83q-24.22,3.54-48.66,5.69-12.09,1-24.19,1.76c-7.83.45-15.73.95-23.35-1.24-1.75-.5-2.2,2.3-.47,2.81Z" transform="translate(-1393 -692)"/><path class="cls-6" d="M2077.17,1715.44c12.25,2.19,25.09,0,37.38-1l39.77-3.4a1.42,1.42,0,0,0-.28-2.82q-19.44,1.63-38.84,3.31c-12.31,1-25.28,3.32-37.56,1.11a1.43,1.43,0,0,0-.47,2.81Z" transform="translate(-1393 -692)"/><path class="cls-9" d="M1781.13,1235.39c16.85-7.5,35.83-8.17,54.27-8.73q28.68-.86,57.35-1.74a6.9,6.9,0,0,1,3.74.59c1.31.78,1.92,2.3,2.45,3.74,17,47.8,6.8,100.69,13,151.06a1119.72,1119.72,0,0,1-164.19,5.1,744.08,744.08,0,0,1,6.41-111.54l2.26-11.27a35.81,35.81,0,0,1,24.74-27.21Z" transform="translate(-1393 -692)"/><path class="cls-4" d="M1644.38,1300.85q-11.88,3.35-23.77,6.67c-8.09,2.29-16.6,4.81-22.36,10.94-4.31,4.61-6.56,10.76-8.31,16.82a148.93,148.93,0,0,0-5.2,54.88c.29,3.1.76,6.39,2.81,8.73,3.36,3.81,9.32,3.45,14.35,2.82a981.58,981.58,0,0,1,126-7.57c8.74,0,19.47-1,22.94-9,1.6-3.71,1.08-7.95.52-11.95q-3.81-27.37-7.59-54.77a8.38,8.38,0,0,0-1.39-4.23c-1-1.29-2.7-1.83-4.28-2.32a239,239,0,0,0-89.49-9.07Z" transform="translate(-1393 -692)"/><path class="cls-2" d="M1761.39,1297.38c-3,17.81-9.37-6.71-9.46,11.35,0,.9,16.34,21.12,17.13,21.53,34,18.22,41.32,8.62,60.58,10.83-8.6-17.2-26.17-54.52-36.55-70.95-.72-1.13-30.15,7.79-43,12.09l7.58,15.15Z" transform="translate(-1393 -692)"/><path class="cls-10" d="M1773,1365c-18.51-3-42.45-6.28-51.27-7-2.41-.22-24.08-9.55-25.76-11.32-5.3-5.56-41.06,10.74-48.06,16.52l-8.92,7.34a1.31,1.31,0,0,0,1,2.32,41.45,41.45,0,0,0,20.65-8.8,109.14,109.14,0,0,0-23.06,13.82,1.32,1.32,0,0,0,.5,2.32,6.38,6.38,0,0,0,3.2-.29c7-2.43,19.74-10,26.68-12.43-5.92,1.89-17.2,10.43-21.48,14.93a2.08,2.08,0,0,0,1.82,3.51,9,9,0,0,0,2.52-.85c5.27-2.72,19.15-10.56,24.43-13.29-3.33,2.16-16.72,10.16-19.07,13.67a1.32,1.32,0,0,0,1.09,2.07c11.12-.34,22.81-12.56,33.73-10.56,4.91.9,8.84,4.64,13.6,6.17a16.24,16.24,0,0,0,16.52-4.32,10.56,10.56,0,0,1,3.24-2.91c2.08-.9,4.44.1,6.51,1.06a181.09,181.09,0,0,0,57.2,15.85Z" transform="translate(-1393 -692)"/><path class="cls-5" d="M1656.88,1384.17c.7.54,1.78-.1,2.44-.43,1.46-.7,2.88-1.51,4.29-2.32,3.23-1.87,6.4-3.85,9.57-5.85.75-.46,1.51-1,2.24-1.43s.06-1.52-.62-1.08c-4.84,3.11-9.74,6.24-14.83,8.94-.59.3-1.18.63-1.81.9-.18.07-.36.14-.54.19-.35.11-.17,0,.12.18-.61-.46-1.51.42-.86.9Z" transform="translate(-1393 -692)"/><path class="cls-5" d="M1647.22,1382.36c2.62-1.55,5.09-3.44,7.59-5.15l11-7.55c.83-.58,1.66-1.14,2.49-1.71.66-.45,0-1.53-.63-1.08q-9,6.21-18,12.37c-1,.69-2,1.43-3,2a.63.63,0,0,0,.63,1.08Z" transform="translate(-1393 -692)"/><path class="cls-5" d="M1637.38,1377.81c8.87-4.79,16.76-11.14,25.61-15.92.71-.38.08-1.46-.63-1.08-8.86,4.78-16.76,11.13-25.61,15.92-.7.37-.07,1.45.63,1.08Z" transform="translate(-1393 -692)"/><path class="cls-5" d="M1661.29,1359.89l16,16.49c.56.58,1.44-.3.88-.88l-16-16.49c-.56-.58-1.44.3-.88.88Z" transform="translate(-1393 -692)"/><path class="cls-10" d="M2162.62,1694.37c18.51-3,42.45-6.28,51.27-7,2.41-.21,43.49-13.22,73.82,5.2l8.92,7.34a1.3,1.3,0,0,1-1,2.3,41.43,41.43,0,0,1-20.65-8.79,109.52,109.52,0,0,1,23.06,13.81,1.32,1.32,0,0,1-.52,2.32,6.17,6.17,0,0,1-3.2-.29c-6.94-2.42-19.73-10-26.68-12.43,5.92,1.89,17.2,10.44,21.48,14.93a2.08,2.08,0,0,1-1.82,3.51,9,9,0,0,1-2.52-.84c-5.27-2.72-19.15-10.56-24.42-13.3,3.32,2.16,16.71,10.17,19.06,13.67a1.31,1.31,0,0,1-1.09,2.07c-11.12-.34-22.81-12.55-33.73-10.56-4.91.9-77.28,13.77-97.05,15.87Z" transform="translate(-1393 -692)"/><path class="cls-5" d="M2278.75,1713.57c-.7.54-1.78-.11-2.44-.43-1.46-.71-2.88-1.52-4.29-2.33-3.23-1.87-6.4-3.84-9.57-5.84-.75-.47-1.51-1-2.24-1.44s-.06-1.51.63-1.08c4.83,3.11,9.73,6.24,14.82,8.94.59.31,1.19.63,1.82.9l.54.2c.34.11.16,0-.13.18.61-.47,1.51.41.86.9Z" transform="translate(-1393 -692)"/><path class="cls-5" d="M2288.41,1711.75c-2.62-1.55-5.09-3.44-7.59-5.14l-11-7.56c-.83-.58-1.66-1.13-2.48-1.71-.67-.45,0-1.53.63-1.08q9,6.21,18,12.38c1,.68,2,1.42,3,2a.63.63,0,0,1-.63,1.08Z" transform="translate(-1393 -692)"/><path class="cls-5" d="M2298.25,1707.2c-8.87-4.79-16.76-11.14-25.61-15.92-.71-.38-.08-1.46.63-1.08,8.86,4.78,16.76,11.13,25.61,15.92.7.38.07,1.46-.63,1.08Z" transform="translate(-1393 -692)"/><path class="cls-5" d="M2274.35,1689.3l-16,16.5c-.56.57-1.44-.31-.88-.89l16-16.49c.56-.6,1.46.29.89.88Z" transform="translate(-1393 -692)"/><path class="cls-9" d="M1736.57,1354.55q5.27,24.06,10.52,48.12,68,4.3,136,6.45c6.46.2,13.18.35,19.05-2.33,8.58-3.93,13.63-13.28,14.95-22.62s-.52-18.8-2.34-28.06a1226.64,1226.64,0,0,0-176.94-2.91Z" transform="translate(-1393 -692)"/><path class="cls-2" d="M2315.85,1396.35c-8.85-14.64-21.45-25.88-32.4-38.66-28-32.65-46.16-76.2-79.64-101.65-19-14.46-41.68-21.91-64.38-26.19-18.24-3.46-36.73-5-55.19-6.57-50-4.21-100-8.4-150.08-7.93a803.28,803.28,0,0,0-102.84,7.59c-2.23.31-5.18,2.77-3.49,4.42l2.1.36c30.91,49.06,41.3,113.44,27.72,171.42-1.26,5.36-2.55,11.64.51,16a13.41,13.41,0,0,0,5.54,4.16c28,13.29,59.72-4.9,90.12-3.51,10.85.5,21.46,3.52,32.13,5.72a217.51,217.51,0,0,0,86.38.34c16.82-3.35,33.32-8.67,50.26-11.06,19.66-2.77,39.56-1.55,59.35-.31l5.32.32.29-.32q3.82-15,7.68-30l9.23,31.46,19.26,1.21c.83-7.79,1.8-15.55,3-23.28l8.53,24,62.51,3.9c9,.56,21.28-2.07,21.39-12.09C2319.14,1402.29,2317.54,1399.16,2315.85,1396.35Z" transform="translate(-1393 -692)"/><path class="cls-4" d="M1780.43,1248.45l52.88,101c.42-.72.81-1.42,1.23-2.14q-47.31,4.07-94.84,3.4a1.42,1.42,0,0,0,0,2.84q47.46.68,94.84-3.4a1.44,1.44,0,0,0,1.22-2.14l-52.89-101c-.84-1.62-3.29-.18-2.44,1.44Z" transform="translate(-1393 -692)"/><path class="cls-4" d="M1754.4,1352.87c1.4,15.08,2.53,30.15,3.94,45.23.16,1.8,3,1.81,2.84,0-1.41-15.08-2.54-30.15-3.94-45.23-.16-1.81-3-1.83-2.84,0Z" transform="translate(-1393 -692)"/><path class="cls-4" d="M1833.17,1348.66a119.14,119.14,0,0,1,24.07,25.85,1.42,1.42,0,0,0,2.44-1.44c-.34-.61-.68-1.24-1-1.85-.88-1.6-3.33-.18-2.45,1.44.34.61.68,1.24,1,1.85.81-.48,1.64-1,2.44-1.44a120.41,120.41,0,0,0-24.51-26.42c-1.41-1.12-3.42.88-2,2Z" transform="translate(-1393 -692)"/><path class="cls-4" d="M1832.63,1346.13a129,129,0,0,1,25.44,15.7c1.42,1.12,3.43-.88,2-2a134.83,134.83,0,0,0-26-16.16c-1.66-.75-3.1,1.69-1.44,2.47Z" transform="translate(-1393 -692)"/><path class="cls-8" d="M1665.59,1317.49a135.16,135.16,0,0,0-15.75,15.81,2.92,2.92,0,0,0,0,4,2.88,2.88,0,0,0,4,0,135.84,135.84,0,0,1,15.74-15.81,2.84,2.84,0,0,0-4-4Z" transform="translate(-1393 -692)"/><path class="cls-8" d="M1672.6,1323.1a61.46,61.46,0,0,0-9.46,12.86,2.84,2.84,0,1,0,4.91,2.86,57.63,57.63,0,0,1,4-6.35c.18-.23.34-.46.52-.7l.27-.34c.22-.27-.31.4,0,0s.77-1,1.17-1.44c.83-1,1.67-1.92,2.55-2.84a2.87,2.87,0,0,0,0-4,2.91,2.91,0,0,0-4,0Z" transform="translate(-1393 -692)"/><path class="cls-8" d="M1690.21,1328.71c-.74,2.68-1.46,5.36-2.19,8.06a2.86,2.86,0,0,0,2,3.49,2.89,2.89,0,0,0,3.49-2c.73-2.68,1.45-5.36,2.19-8.06a2.84,2.84,0,0,0-5.47-1.51Z" transform="translate(-1393 -692)"/><path class="cls-4" d="M1798.22,1340.78l31.46,3c1.82.18,1.8-2.67,0-2.85l-31.46-3c-1.82-.16-1.82,2.68,0,2.84Z" transform="translate(-1393 -692)"/><g class="cls-11"><path id="SVGID" class="cls-9" d="M2004.55,1211.26l-48.39,84.66c-3,5.2-6,11.39-3.76,16.93,1.26,3.07,4,5.29,6.66,7.25a105.1,105.1,0,0,0,65.82,19.78c17.3-.75,34.1-5.81,50.69-10.82l27.74-8.39c9.26-2.8,19.39-6.26,24.25-14.64s2.71-19.23.25-28.76q-11-42.51-24.84-84.17Z" transform="translate(-1393 -692)"/><g class="cls-12"><path class="cls-13" d="M2034.32,1201.37q-29.35,50.94-58.73,101.91l-16.75,29c-1.84,3.17,3.07,6,4.91,2.86q29.36-50.94,58.73-101.91l16.75-29c1.82-3.17-3.07-6-4.91-2.86Z" transform="translate(-1393 -692)"/></g><g class="cls-12"><path class="cls-13" d="M2048.08,1196.59c-15.31,41.8-39.63,79.49-65.37,115.54-7.25,10.14-14.62,20.2-22,30.24-2.16,3,2.75,5.77,4.91,2.86,26.45-36,53.07-72.19,73-112.31a345.17,345.17,0,0,0,15-34.82c1.26-3.44-4.23-4.93-5.47-1.51Z" transform="translate(-1393 -692)"/></g><g class="cls-12"><path class="cls-13" d="M2087.28,1193.24l-57.89,112.18q-8.21,15.88-16.4,31.8c-1.68,3.24,3.22,6.12,4.91,2.86l57.88-112.18,16.41-31.8c1.67-3.24-3.24-6.1-4.91-2.86Z" transform="translate(-1393 -692)"/></g><g class="cls-12"><path class="cls-13" d="M2112.34,1188.29c-17.18,41.7-41.72,79.75-63.54,119.07-6.11,11-12,22.16-17.52,33.51-1.58,3.28,3.31,6.16,4.91,2.86,19.77-40.78,44.87-78.66,65.48-119,5.85-11.42,11.28-23.06,16.17-34.94,1.37-3.38-4.13-4.85-5.5-1.51Z" transform="translate(-1393 -692)"/></g><g class="cls-12"><path class="cls-13" d="M1956,1290.65a709.28,709.28,0,0,0,85.79,41.45q12.57,5.07,25.33,9.62c3.45,1.24,4.92-4.25,1.51-5.47a694.57,694.57,0,0,1-86.35-37.76q-11.82-6.15-23.4-12.75c-3.2-1.8-6.07,3.11-2.88,4.91Z" transform="translate(-1393 -692)"/></g><g class="cls-12"><path class="cls-13" d="M1968.73,1247.06q64.14,29.58,128,59.89,18,8.55,36,17.18c3.27,1.56,6.17-3.33,2.86-4.91q-63.7-30.53-127.78-60.3-18.08-8.43-36.21-16.77c-3.27-1.51-6.17,3.38-2.86,4.91Z" transform="translate(-1393 -692)"/></g><g class="cls-12"><path class="cls-13" d="M1992.6,1210.9a1116.86,1116.86,0,0,0,140.62,47.33q20.46,5.4,41.09,10c3.56.79,5.07-4.67,1.51-5.47a1117.78,1117.78,0,0,1-142.31-42q-19.83-7.32-39.39-15.38c-3.39-1.39-4.86,4.1-1.52,5.46Z" transform="translate(-1393 -692)"/></g></g><g class="cls-11"><path class="cls-8" d="M2046.86,1315.91a74.24,74.24,0,0,1,4.68,27.32c-.08,3.65,5.61,3.65,5.68,0a78.61,78.61,0,0,0-4.87-28.84,2.91,2.91,0,0,0-3.49-2,2.84,2.84,0,0,0-2,3.49Z" transform="translate(-1393 -692)"/></g><g class="cls-11"><path class="cls-8" d="M2062,1319.2c1.07,6,2.17,12.09,3.25,18.11a2.85,2.85,0,0,0,3.49,2,2.9,2.9,0,0,0,2-3.49c-1.08-6-2.18-12.09-3.26-18.11a2.85,2.85,0,0,0-3.49-2,2.88,2.88,0,0,0-2,3.49Z" transform="translate(-1393 -692)"/></g><g class="cls-11"><path class="cls-8" d="M2115.23,1270.38a46.18,46.18,0,0,1,20.13,4.13,2.92,2.92,0,0,0,3.89-1,2.86,2.86,0,0,0-1-3.89,52.15,52.15,0,0,0-23-4.91c-3.64.09-3.64,5.76,0,5.69Z" transform="translate(-1393 -692)"/></g><g class="cls-11"><path class="cls-8" d="M2116.87,1286.06l23.06-.18c3.65,0,3.67-5.7,0-5.68l-23.06.18c-3.65,0-3.65,5.7,0,5.68Z" transform="translate(-1393 -692)"/></g><g class="cls-11"><path class="cls-8" d="M1965.41,1243.68a50.24,50.24,0,0,1,26,10.92,2.91,2.91,0,0,0,4,0,2.85,2.85,0,0,0,0-4,57.08,57.08,0,0,0-30-12.59,2.86,2.86,0,0,0-2.85,2.84,2.9,2.9,0,0,0,2.85,2.84Z" transform="translate(-1393 -692)"/></g><g class="cls-11"><path class="cls-8" d="M1963,1262c8.2,2.29,16.42,4.55,24.63,6.84,3.52,1,5-4.5,1.51-5.47-8.21-2.29-16.43-4.55-24.63-6.84-3.53-1-5,4.48-1.51,5.47Z" transform="translate(-1393 -692)"/></g><path class="cls-14" d="M1894.49,1268.16q48.06,46.26,96.12,92.48l27.27,26.25c2.63,2.54,6.65-1.48,4-4q-48.06-46.25-96.11-92.48l-27.28-26.25c-2.62-2.53-6.65,1.48-4,4Z" transform="translate(-1393 -692)"/><path class="cls-14" d="M1941.77,1269.13a652.51,652.51,0,0,0,68,83.74q10.71,11.14,21.93,21.77c2.64,2.52,6.67-1.49,4-4a644.43,644.43,0,0,1-71.31-79.62q-9.17-12.16-17.77-24.75c-2-3-7-.17-4.89,2.87Z" transform="translate(-1393 -692)"/><path class="cls-14" d="M2098.68,1341a434.3,434.3,0,0,0,84.08,24.34c3.58.64,5.11-4.82,1.52-5.47a433.6,433.6,0,0,1-84.08-24.34c-3.4-1.37-4.88,4.12-1.52,5.47Z" transform="translate(-1393 -692)"/><path class="cls-14" d="M2135.18,1320.28a159.72,159.72,0,0,0,55.88,25.06c3.56.82,5.07-4.65,1.51-5.47a155,155,0,0,1-54.51-24.49c-3-2.12-5.84,2.79-2.88,4.9Z" transform="translate(-1393 -692)"/><path class="cls-6" d="M2305.83,1375.38a217.69,217.69,0,0,1,31.6-17.58c1.66-.75.22-3.2-1.44-2.44a217.63,217.63,0,0,0-31.6,17.57c-1.5,1-.08,3.47,1.44,2.45Z" transform="translate(-1393 -692)"/><path class="cls-6" d="M2300.93,1362.17l19.9-9.62c1.64-.79.2-3.24-1.44-2.45q-10,4.8-19.9,9.63c-1.63.79-.19,3.23,1.44,2.44Z" transform="translate(-1393 -692)"/><path class="cls-6" d="M2276.7,1338.32l14.55-8.69a1.42,1.42,0,0,0-1.43-2.45c-4.86,2.9-9.7,5.8-14.56,8.69a1.42,1.42,0,0,0,1.44,2.45Z" transform="translate(-1393 -692)"/><path class="cls-6" d="M2269.72,1322.87l9.91-6.55a1.42,1.42,0,1,0-1.43-2.45l-9.92,6.55a1.42,1.42,0,0,0,1.44,2.45Z" transform="translate(-1393 -692)"/><path class="cls-6" d="M2289.42,1350.77c4.35-2.79,8.72-5.6,13.08-8.38,1.53-1,.11-3.44-1.44-2.45l-13.08,8.38c-1.53,1-.09,3.44,1.44,2.45Z" transform="translate(-1393 -692)"/><path class="cls-6" d="M2209.91,1415.67c4.59,15.09,11.08,29.5,15.69,44.6.54,1.74,3.27,1,2.73-.76-4.59-15.09-11.08-29.5-15.69-44.59a1.42,1.42,0,0,0-2.73.75Z" transform="translate(-1393 -692)"/><path class="cls-14" d="M1877.12,1361.24c-6.41,7.25-8.73,17.9-5.15,27a26.64,26.64,0,0,0,20.71,16.49,2.94,2.94,0,0,0,3.49-2c.37-1.33-.47-3.27-2-3.49a20.46,20.46,0,0,1-13.08-34c2.43-2.74-1.58-6.77-4-4Z" transform="translate(-1393 -692)"/><path class="cls-14" d="M1894.24,1390.85a18.78,18.78,0,0,0,18.15,7.39,2.84,2.84,0,0,0,2-3.49,2.92,2.92,0,0,0-3.49-2c-.41.07,0,.07.09,0a1.66,1.66,0,0,1-.56.06l-1,.05c-.63,0-1.26-.05-1.89-.09-.36,0,.54.09,0,0a3.49,3.49,0,0,0-.43-.07l-1-.22a16.41,16.41,0,0,1-1.91-.63c-.38-.14.43.2,0,0a2.54,2.54,0,0,0-.41-.18c-.31-.14-.59-.31-.9-.47-.59-.32-1.13-.72-1.69-1.09.18.12.29.23,0,0s-.29-.23-.43-.36-.45-.39-.65-.61-.46-.49-.68-.72-.23-.29-.36-.43c-.27-.31.4.54,0,0a2.93,2.93,0,0,0-3.88-1c-1.15.72-1.94,2.57-1,3.85Z" transform="translate(-1393 -692)"/><path class="cls-14" d="M2271.14,1370.57c5.11,5.17,11.17,11,12.38,18.57.85,5.23-1.26,12-6.8,13.74-3.49,1.06-2,6.55,1.51,5.47,7.77-2.37,11.77-10.81,11.06-18.55-.86-9.49-7.75-16.8-14.12-23.24-2.59-2.61-6.6,1.41-4,4Z" transform="translate(-1393 -692)"/><path class="cls-14" d="M2268.89,1387.45c-2.69,2.79-5.37,5.59-8.07,8.38a2.84,2.84,0,1,0,4,4c2.7-2.79,5.38-5.59,8.08-8.38a2.84,2.84,0,0,0-4-4Z" transform="translate(-1393 -692)"/><path class="cls-4" d="M1802.73,1252.76a48.39,48.39,0,0,0,7.43,12.81c.58.72,1.57-.3,1-1a46.31,46.31,0,0,1-7.05-12.18c-.36-.85-1.73-.49-1.39.37Z" transform="translate(-1393 -692)"/><path class="cls-4" d="M1810.92,1255.79c2.43,3.18,4.84,6.36,7.26,9.55a.74.74,0,0,0,1,.25.72.72,0,0,0,.25-1c-2.43-3.18-4.84-6.37-7.27-9.55a.71.71,0,1,0-1.22.72Z" transform="translate(-1393 -692)"/><path class="cls-4" d="M1816,1281.69c2,2.43,3.91,4.88,5.87,7.3a.69.69,0,0,0,1,0,.73.73,0,0,0,0-1l-5.86-7.32a.7.7,0,0,0-1,0,.73.73,0,0,0,0,1Z" transform="translate(-1393 -692)"/><path class="cls-4" d="M1826,1282.61a9.07,9.07,0,0,0,2.54,5.57.71.71,0,0,0,1-1,7.57,7.57,0,0,1-1.47-2.16,7.91,7.91,0,0,1-.65-2.41.72.72,0,0,0-.7-.7.68.68,0,0,0-.72.7Z" transform="translate(-1393 -692)"/><path class="cls-4" d="M1834.25,1284.41c1.46,2.7,2.89,5.38,4.35,8.07.43.81,1.66.09,1.23-.72-1.46-2.69-2.9-5.37-4.36-8.07-.43-.79-1.65-.09-1.22.72Z" transform="translate(-1393 -692)"/><path class="cls-4" d="M1839.47,1305.42l3.59,9.53c.33.85,1.69.49,1.37-.38-1.21-3.18-2.39-6.35-3.6-9.53-.32-.85-1.69-.49-1.36.38Z" transform="translate(-1393 -692)"/><path class="cls-4" d="M1777.17,1390a41,41,0,0,1,11.55-.47c.92.09.9-1.33,0-1.42a42.62,42.62,0,0,0-11.93.52c-.88.18-.5,1.55.38,1.37Z" transform="translate(-1393 -692)"/><path class="cls-4" d="M1778.48,1396h8.06a.71.71,0,0,0,0-1.42h-8.06a.71.71,0,0,0,0,1.42Z" transform="translate(-1393 -692)"/><path class="cls-4" d="M1791.9,1397.65a30,30,0,0,1,13.49-.22c.9.2,1.28-1.17.38-1.37a31.89,31.89,0,0,0-14.25.22.71.71,0,0,0,.38,1.37Z" transform="translate(-1393 -692)"/><path class="cls-4" d="M1818.31,1393.33a49.67,49.67,0,0,1,10.9-3c.9-.15.52-1.51-.38-1.37a49.67,49.67,0,0,0-10.9,3,.75.75,0,0,0-.5.88.73.73,0,0,0,.88.49Z" transform="translate(-1393 -692)"/><path class="cls-4" d="M1804.64,1390a11,11,0,0,1,8.8-2.75.76.76,0,0,0,.88-.5.73.73,0,0,0-.51-.89,12.42,12.42,0,0,0-10.18,3.12c-.68.63.33,1.63,1,1Z" transform="translate(-1393 -692)"/><path class="cls-4" d="M1836.32,1400.42h5.86a.71.71,0,0,0,0-1.42h-5.86a.71.71,0,0,0,0,1.42Z" transform="translate(-1393 -692)"/><path class="cls-4" d="M1841.66,1384.86a4.21,4.21,0,0,0,5.41,0,.71.71,0,0,0,0-1,.74.74,0,0,0-1,0s-.08.05-.09.07,0,0,0,0a1.42,1.42,0,0,1-.23.14l-.22.11c-.18.09.07,0,0,0a.3.3,0,0,1-.11,0l-.54.14s-.15,0-.06,0-.07,0-.09,0l-.28,0h-.26l-.16,0c.07,0,.07,0,0,0a5.29,5.29,0,0,1-.54-.13.21.21,0,0,0-.12,0c-.13,0,0,0,0,0l-.22-.11a1.28,1.28,0,0,1-.23-.14l-.07-.06c.07.06-.07-.07-.07-.05a.72.72,0,0,0-1,0,.69.69,0,0,0,0,1Z" transform="translate(-1393 -692)"/><path class="cls-7" d="M2129.57,1176.62c-6.38.88,69.22,36.93,69,36.73s55.69,8.42,56,9.07,33.86,79.6,40.78,108.13a315.56,315.56,0,0,0-49-32.38,552.73,552.73,0,0,0-33.86,49.52l-191.74-81.81a616.62,616.62,0,0,0,75.84-83Z" transform="translate(-1393 -692)"/><path class="cls-6" d="M2245.94,1301.66q8.8-23.16,17.58-46.32l31.87,75.21Z" transform="translate(-1393 -692)"/><path class="cls-6" d="M2182.51,1215.28l-36.25,36.21a1.43,1.43,0,0,0,2,2q18.13-18.11,36.25-36.21c1.27-1.29-.72-3.31-2-2Z" transform="translate(-1393 -692)"/><path class="cls-6" d="M2194.35,1221.81a337.09,337.09,0,0,0-32.22,27.45c-1.31,1.27.7,3.27,2,2a326.72,326.72,0,0,1,31.64-27c1.44-1.1,0-3.56-1.44-2.46Z" transform="translate(-1393 -692)"/><path class="cls-6" d="M2042.29,1266.92a340.47,340.47,0,0,0,74,28.06,1.49,1.49,0,0,0,1.75-1q5.07-12.07,10.12-24.15c.85-2,1.79-4,2.54-6,.52-1.41.9-2.83.13-4.25A8.09,8.09,0,0,0,2128,1257c-1.84-1.2-3.67-2.41-5.51-3.6l-43.62-28.58a1.45,1.45,0,0,0-1.73.22q-17.67,19.74-35.15,39.66c-1.2,1.37.79,3.38,2,2,11.69-13.24,23.36-26.5,35.15-39.67l-1.73.22,39.7,26c3.27,2.14,6.6,4.23,9.82,6.44,2.31,1.58.79,3.94-.05,6s-1.57,3.74-2.36,5.6l-9.23,22,1.75-1a337.26,337.26,0,0,1-73.38-27.77C2042.11,1263.63,2040.67,1266.08,2042.29,1266.92Z" transform="translate(-1393 -692)"/><path class="cls-6" d="M2199.37,1238.66q-28.74,31.44-57.49,62.87c-1.23,1.35.77,3.37,2,2q28.74-31.44,57.49-62.87c1.23-1.35-.77-3.37-2-2Z" transform="translate(-1393 -692)"/><path class="cls-6" d="M2204.6,1247.17l-34,37.72-8.2,9.09c-1.48,1.63-2.95,3.25-4.41,4.89a41.12,41.12,0,0,0-3.87,4.37c-1,1.53-1,4.52,1.48,4.44,1.72,0,3.14-2.21,1.63-3.49s-3.4.83-2,2c.23.2,47.15-52.24,51.45-57,1.22-1.36-.78-3.38-2-2Z" transform="translate(-1393 -692)"/><path class="cls-6" d="M2215,1262.6q-20.67,25.49-41.34,50.93c-1.15,1.4.87,3.44,2,2q20.67-25.48,41.34-50.93c1.15-1.42-.87-3.44-2-2Z" transform="translate(-1393 -692)"/><path class="cls-6" d="M2221.44,1284.37q-12.17,18.24-24.36,36.46c-1,1.53,1.44,3,2.45,1.44q12.16-18.24,24.36-36.46c1-1.53-1.44-3-2.45-1.44Z" transform="translate(-1393 -692)"/><path class="cls-6" d="M2205.66,1224.4a198.47,198.47,0,0,0,46.67,11.26c1.81.21,1.8-2.63,0-2.84a195.05,195.05,0,0,1-45.91-11.18c-1.71-.63-2.45,2.11-.76,2.76Z" transform="translate(-1393 -692)"/><path class="cls-6" d="M2124.14,1191a136.48,136.48,0,0,0,35.74,25.19c1.64.79,3.08-1.66,1.44-2.45a133.19,133.19,0,0,1-35.17-24.74c-1.31-1.29-3.32.72-2,2Z" transform="translate(-1393 -692)"/><path class="cls-6" d="M2103.54,1189.64l22.72-4.21c1.8-.32,1-3.07-.75-2.73l-22.72,4.21c-1.8.32-1.05,3.06.75,2.73Z" transform="translate(-1393 -692)"/><path class="cls-5" d="M1465.08,1516.77l221.86.21q-24,82.17-48.07,164.33L1393,1669.78a1374,1374,0,0,1,68-151.93Z" transform="translate(-1393 -692)"/><path class="cls-4" d="M1706.55,1626.23c-9.79-1.42-20.62-2.46-28.73,1.75-8.28,4.3-7.25,12.34-7.23,18.76a196.54,196.54,0,0,0,1.51,23.94c.72,5.61,2.28,12.09,9.78,15.87,3.15,1.6,7.18,1.71,10.9,1.72,5.47,0,10.92-.23,16.32-.55s3.45-5.76-1.87-5.44c-4.82.29-9.68.58-14.57.51-4.21-.06-6.19,0-8.58-2.5s-3-5.44-3.47-8.15a118.6,118.6,0,0,1-1.21-12.13c-.27-4.08-.43-8.18-.45-12.25,0-3.63-.49-7.59.67-11.11,2.62-8.08,17-6.32,26.51-4.93,5.36.77,5.69-4.72.42-5.49Z" transform="translate(-1393 -692)"/><path class="cls-15" d="M1746.44,1698.47h-32a8.15,8.15,0,0,1-8.15-8.14v-75.81h48.33v75.81A8.12,8.12,0,0,1,1746.44,1698.47Z" transform="translate(-1393 -692)"/><path class="cls-4" d="M1707.62,1614.54c0,.54-.09,1.08-.09,1.64,0,11.74,10.26,21.26,22.9,21.26s22.9-9.52,22.9-21.26a14.75,14.75,0,0,0-.09-1.64Z" transform="translate(-1393 -692)"/><path class="cls-4" d="M1710.38,1639.4c12.5,8.89,30.34,8.22,42.24-1.39.71-.57-.31-1.56-1-1-11.43,9.22-28.59,9.64-40.53,1.15-.72-.51-1.44.72-.7,1.24Z" transform="translate(-1393 -692)"/><path class="cls-4" d="M1718.36,1644.36q.44,23-.21,45.91a.71.71,0,0,0,1.42,0q.65-23,.22-45.91a.72.72,0,0,0-1.43,0Z" transform="translate(-1393 -692)"/><path class="cls-4" d="M1740.35,1643.5l-.87,47.63a.71.71,0,0,0,1.42,0l.87-47.63a.71.71,0,0,0-1.42,0Z" transform="translate(-1393 -692)"/><path class="cls-3" d="M1492.15,1565.82a21.09,21.09,0,0,1,5.94-16.67h-2c9.62,9.51,5.77,27.76,20.05,33.53,14.81,6,28.64-6.51,35.1-18.76,2.55-4.84,4.66-12.49-.23-16.62-5.36-4.56-13-.26-15.53,5.3a16.25,16.25,0,0,0,2.83,17.15c4.73,5.25,12.35,7.1,19.17,6.13,9-1.28,16.64-7,22.85-13.29a75.51,75.51,0,0,0,15.7-23.53c.58-1.37-1-3-2.23-1.73a36.91,36.91,0,0,0-9.77,19.36c-1.11,6.81-.32,14.15,5.6,18.54,4.91,3.64,11.65,4.37,17.47,2.83,7.5-2,13.63-7.07,19.46-11.93h-2l19.77,17.56c1.37,1.2,3.39-.79,2-2l-19.77-17.55a1.47,1.47,0,0,0-2,0c-8.59,7.16-21.06,16.64-32.48,9.35-5.87-3.74-6.34-10.9-5.09-17.14a34.29,34.29,0,0,1,8.83-17l-2.23-1.72c-5.31,12.5-14.27,24.8-26.21,31.71-5.83,3.37-12.65,5.06-19.25,3.15-6.08-1.76-10.83-6.58-11.08-13.1a12,12,0,0,1,2.16-7.57c2-2.7,6.19-4.75,9.37-2.79,5.32,3.28,1.37,11.7-1,15.55-6.28,10.28-19,21.73-31.86,14.8-6-3.24-8-9.95-9.8-16-1.69-5.81-3.42-11.8-7.85-16.17a1.43,1.43,0,0,0-2,0,23.8,23.8,0,0,0-6.76,18.69c.18,1.8,3,1.8,2.87,0Z" transform="translate(-1393 -692)"/><path class="cls-3" d="M1494.49,1624.9c-1.09,10.88,9.84,18.55,19.72,19,12.93.65,23.53-9.91,31.39-18.85l-2.38-1.39c-1.27,5.6,2.81,10.2,7.79,12.09,6.68,2.54,13.42-.81,19.27-3.94,7-3.76,14.16-6.36,22.23-6.58a44.88,44.88,0,0,1,22.85,5.49c1.6.88,3-1.57,1.44-2.45a47.86,47.86,0,0,0-39.11-3.08c-6.44,2.38-12.11,7-18.89,8.35-5.36,1.08-14.44-2.18-12.84-9.12.3-1.29-1.39-2.5-2.38-1.38-7,8-16.13,17.52-27.55,18-9,.4-19.74-6.22-18.71-16.21.2-1.8-2.65-1.8-2.83,0Z" transform="translate(-1393 -692)"/><path class="cls-3" d="M2349.43,1094.35c.29,0,.56,0,.85,0,.59,0-.56-.14.16,0,.5.12,1,.25,1.46.41s-.49-.27.07,0l.72.38c.18.1.34.21.52.32l.32.23-.09-.07c.36.33.72.63,1,1,.19.2.36.42.54.63.37.43-.29-.43,0,.09s.54.81.79,1.24l.4.74c.05.13.12.25.18.38-.13-.33-.17-.4-.09-.2.3,1,.59,1.92.81,2.93-.17-.74,0-.11,0,.07s0,.56,0,.83a13.86,13.86,0,0,1,0,1.44c0,.59.14-.58,0,.14a7,7,0,0,1-.16.69c-.07.25-.15.52-.24.77s-.36.67,0,.07c-.24.42-.44.85-.71,1.24l-.23.35c.23-.31.25-.33,0-.09s-.37.41-.57.61a2.84,2.84,0,0,0,4,4c6.33-6.24,3.71-17.2-3.13-21.93a11.92,11.92,0,0,0-6.71-2,2.84,2.84,0,1,0,0,5.68Z" transform="translate(-1393 -692)"/><path class="cls-3" d="M2346.75,1157.71a11.48,11.48,0,0,1,1.15.31c.69.2-.41-.24.07,0,.17.09.33.16.49.23.32.18.61.38.9.58.48.32-.41-.38,0,0l.4.35c.28.27.54.56.81.85.46.52-.26-.4,0,.07l.31.45q.28.47.54,1a5.24,5.24,0,0,1,.23.48c.25.5-.2-.59,0,.09.12.38.25.76.36,1.13a4,4,0,0,0,.21,1.08c-.05-.43-.07-.52,0-.3a2.48,2.48,0,0,1,0,.27c0,.18,0,.36,0,.54a11.53,11.53,0,0,1,0,1.17c0,.66.09-.31,0,0s-.07.41-.12.61-.2.69-.31,1c-.18.59.29-.58,0,0-.07.16-.16.32-.24.49a6.93,6.93,0,0,1-.7,1.06,2.83,2.83,0,0,0,1,3.88,2.92,2.92,0,0,0,3.88-1c5.09-6.77.61-18.06-7.61-19.72a2.83,2.83,0,1,0-1.49,5.45Z" transform="translate(-1393 -692)"/><path class="cls-3" d="M1523.2,1227.72a15.35,15.35,0,0,0,11.43,17.47,2.84,2.84,0,1,0,1.51-5.47,10.21,10.21,0,0,1-1.12-.29c-.18,0-.36-.12-.54-.19-.5-.16.38.18.06,0a13.79,13.79,0,0,1-1.91-1.08c-.07,0-.52-.39-.18-.12s-.16-.15-.23-.2q-.4-.34-.78-.72c-.27-.27-.52-.56-.77-.86s.23.32,0,0-.23-.3-.32-.46a13.36,13.36,0,0,1-1-1.84,1.66,1.66,0,0,0-.13-.27c.15.36.18.43.11.23l-.16-.45a9.82,9.82,0,0,1-.33-1.09c-.09-.34-.14-.69-.21-1s.07.67,0,0c0-.16,0-.32,0-.47a11,11,0,0,1,0-1.15,4,4,0,0,1,.06-.57s-.13.72,0,0a2.91,2.91,0,0,0-2-3.49,2.87,2.87,0,0,0-3.46,2Z" transform="translate(-1393 -692)"/><path class="cls-3" d="M1527.72,1292.21a8,8,0,0,0-1.85,7.06,8.94,8.94,0,0,0,3.76,5.64,7.21,7.21,0,0,0,3.92,1.23,2.86,2.86,0,0,0,2.84-2.84,2.91,2.91,0,0,0-2.84-2.85l-.51,0,.76.11a4.33,4.33,0,0,1-1.13-.33l.68.29a5.34,5.34,0,0,1-1-.59c.2.14.38.28.58.45a6.52,6.52,0,0,1-1.05-1l.45.58a7.42,7.42,0,0,1-.81-1.39c.09.24.2.45.29.69a7.71,7.71,0,0,1-.47-1.66l.11.76a6,6,0,0,1,0-1.59l-.11.76a5.39,5.39,0,0,1,.31-1.13c-.09.23-.2.45-.29.68a4.68,4.68,0,0,1,.6-1l-.45.58c.09-.11.18-.22.27-.31a2.88,2.88,0,0,0,0-4,2.93,2.93,0,0,0-4,0Z" transform="translate(-1393 -692)"/><path class="cls-3" d="M1525.69,1411.39a16.88,16.88,0,0,0,10.93,7.63,3.12,3.12,0,0,0,2.2-.29,2.94,2.94,0,0,0,1.31-1.69,2.88,2.88,0,0,0-2-3.49,13.89,13.89,0,0,1-2.82-.85l.68.29a14.83,14.83,0,0,1-3.13-1.83c.2.14.38.28.58.45a15.31,15.31,0,0,1-2.49-2.47l.45.58c-.28-.38-.55-.76-.81-1.15a2.89,2.89,0,0,0-3.88-1,2.8,2.8,0,0,0-1,3.85Z" transform="translate(-1393 -692)"/><path class="cls-16" d="M1629.19,1220.44a272.33,272.33,0,0,1,29.88-20,1.42,1.42,0,0,0-1.44-2.44,269.42,269.42,0,0,0-29.88,20c-1.42,1.1,0,3.56,1.44,2.45Z" transform="translate(-1393 -692)"/><path class="cls-16" d="M1627.05,1209.5a30.2,30.2,0,0,1,15.67-14.93,1.47,1.47,0,0,0,1-1.74,1.42,1.42,0,0,0-1.74-1,32.92,32.92,0,0,0-17.38,16.22,1.47,1.47,0,0,0,.5,2,1.45,1.45,0,0,0,2-.51Z" transform="translate(-1393 -692)"/><path class="cls-16" d="M1648.55,1259.67a196.09,196.09,0,0,1,47-4.66,1.42,1.42,0,0,0,0-2.84,198.41,198.41,0,0,0-47.78,4.75c-1.78.41-1,3.15.76,2.75Z" transform="translate(-1393 -692)"/><path class="cls-16" d="M1652.47,1267.73l29.29-.34a1.42,1.42,0,0,0,0-2.84l-29.29.34c-1.82,0-1.82,2.88,0,2.84Z" transform="translate(-1393 -692)"/><path class="cls-16" d="M1635.44,1288.63c5.55-.1,11.13-.19,16.69-.3,1.82,0,1.83-2.88,0-2.84-5.56.1-11.14.19-16.69.3a1.42,1.42,0,0,0,0,2.84Z" transform="translate(-1393 -692)"/><path class="cls-16" d="M1630.24,1297.34a32.34,32.34,0,0,1,11.92,2.12,1.43,1.43,0,0,0,1.75-1,1.45,1.45,0,0,0-1-1.74,34.1,34.1,0,0,0-12.68-2.21,1.41,1.41,0,0,0,0,2.82Z" transform="translate(-1393 -692)"/><path class="cls-16" d="M1631.33,1308.71a12.93,12.93,0,0,1,10.19,1.35,1.42,1.42,0,0,0,1.44-2.45,15.84,15.84,0,0,0-12.36-1.63,1.41,1.41,0,0,0,.73,2.73Z" transform="translate(-1393 -692)"/><path class="cls-16" d="M1627.27,1240.55a93.55,93.55,0,0,1,57-7.39c1.78.34,2.56-2.41.76-2.74a97,97,0,0,0-59.22,7.68c-1.68.78-.24,3.22,1.42,2.45Z" transform="translate(-1393 -692)"/><path class="cls-16" d="M1653.06,1239.52a46.89,46.89,0,0,1,30.35.51c1.73.61,2.47-2.12.76-2.74a49.66,49.66,0,0,0-31.86-.5c-1.73.56-1,3.29.75,2.73Z" transform="translate(-1393 -692)"/><path class="cls-3" d="M1723.58,1246.34a51.76,51.76,0,0,1,28.6,42.08,130.36,130.36,0,0,1-33.89-7.72Z" transform="translate(-1393 -692)"/><path class="cls-3" d="M1679.26,1343.3A183,183,0,0,1,1624,1327c-3.27-1.56-6.63-3.33-8.76-6.26-2.33-3.24-2.82-7.43-3.18-11.4a338.59,338.59,0,0,1,.54-63.83,12.72,12.72,0,0,1,1.49-5.59,12.39,12.39,0,0,1,4.61-3.76,192.62,192.62,0,0,1,44.65-18.49c5.57-1.53,11.38-2.81,17.1-2,5.17.75,9.9,3.18,14.52,5.59,8.69,4.5,17.47,9.07,25,15.38s13.67,14.63,15.65,24.21a110.46,110.46,0,0,0-41.41,6.75c-7.09,2.61-14.12,6.13-18.91,12-5.79,7.09-7.48,16.64-7.89,25.78a115.32,115.32,0,0,0,3.87,35.28Z" transform="translate(-1393 -692)"/><path class="cls-3" d="M1616.91,1242.67c-7.14-10.41-6.91-24.75-1.39-36.1s15.67-19.93,26.84-25.81,23.42-9.34,35.57-12.76l-21.88,29.2c5.54-4.1,11.17-8.24,17.59-10.76s13.82-3.27,20.13-.5q-10.68,6.12-21.57,11.89c5.74-.94,11.59-1.87,17.33-.9-26.19,14.08-47.1,29.8-72,46Z" transform="translate(-1393 -692)"/><path class="cls-10" d="M1640.71,1327.08c15.18,3.54,49.16,16.37,64.34,19.91,9.82,2.3,20.65,4.48,29.58-.2,11-5.79,13.92-14.32,16.49-26.51.54,0,27.53,19.87,42.17-11.41,2.71-5.81-4.19-19.88-9.88-21.62-12.61-3.87-49.5-11.86-48.26-11.19,4.33-4.37,4.3-11.93.86-17s-9.51-8-15.63-8.84c-4-.54-8.22-.25-11.53,2s-5.25,6.8-3.53,10.4l-42.49-12.9C1633.15,1285.18,1640.71,1327.08,1640.71,1327.08Z" transform="translate(-1393 -692)"/><path class="cls-3" d="M1714.46,1267c-18.33,8.18-40.87,7.68-61,7.91a79.19,79.19,0,0,0,30.89,12.92,86.29,86.29,0,0,1-36.86,5.5,79,79,0,0,1,20.64,30.22l-22-14.17c2.28,8.87,5.54,18.63,13.74,22.72s22.43,5.48,29.27,11.58c-19.84-2.52-39.74-9.71-58.3-17.16a6.3,6.3,0,0,1-3-1.92c-.88-1.28-.74-3-.52-4.52a282.74,282.74,0,0,1,28.45-90.36c19.77,6,41.7,11.12,60.74,19.14a10.35,10.35,0,0,1-1.91,1.23,9.13,9.13,0,0,0-2.74,13.7Z" transform="translate(-1393 -692)"/><path class="cls-3" d="M1652.51,1279.93c16.82,4.19,33.49-2,48.94-8.2,3.35-1.35,1.89-6.86-1.51-5.47-14.37,5.79-30.24,12.12-45.92,8.2-3.55-.9-5.06,4.57-1.51,5.47Z" transform="translate(-1393 -692)"/><path class="cls-3" d="M1624.79,1324.94a75.68,75.68,0,0,0,31.87,22c1.73.61,2.47-2.12.76-2.74a72.86,72.86,0,0,1-30.62-21.24c-1.19-1.42-3.18.61-2,2Z" transform="translate(-1393 -692)"/><path class="cls-5" d="M1718.54,1258.09c2.18,4,4.36,8,6.53,11.94.89,1.61,3.33.18,2.45-1.44q-3.27-6-6.53-11.94c-.88-1.6-3.33-.18-2.45,1.44Z" transform="translate(-1393 -692)"/><path class="cls-5" d="M1727.54,1260.41a5,5,0,0,0-2.45,1.3,4.9,4.9,0,0,0-1.42,2.37,1.51,1.51,0,0,0,.14,1.1,1.48,1.48,0,0,0,.85.64,1.37,1.37,0,0,0,1.1-.14,1.42,1.42,0,0,0,.64-.84,1.75,1.75,0,0,1,.17-.47c-.06.11-.09.23-.15.34a3.86,3.86,0,0,1,.49-.83l-.22.29a4.25,4.25,0,0,1,.67-.67c-.09.08-.2.15-.29.22a3.72,3.72,0,0,1,.81-.49c-.11.06-.23.09-.34.15a3.47,3.47,0,0,1,.75-.24,1.41,1.41,0,0,0,.85-.64,1.46,1.46,0,0,0,.14-1.1,1.41,1.41,0,0,0-.64-.85,1.68,1.68,0,0,0-1.1-.14Z" transform="translate(-1393 -692)"/><path class="cls-5" d="M1692.53,1316.75a17.3,17.3,0,0,1,15.67,12.61,1.43,1.43,0,0,0,1.75,1,29.27,29.27,0,0,0,10.45-5.07c1.44-1.1,0-3.56-1.44-2.45a27.26,27.26,0,0,1-9.77,4.79l1.74,1a20.2,20.2,0,0,0-18.42-14.7c-1.81-.07-1.81,2.77,0,2.84Z" transform="translate(-1393 -692)"/><path class="cls-5" d="M1753.37,1321.77a81.28,81.28,0,0,0,3-12.72,129.18,129.18,0,0,0,1.8-13c.14-1.81-2.7-1.81-2.84,0a124.77,124.77,0,0,1-1.77,12.6,82.89,82.89,0,0,1-2.89,12.37c-.62,1.71,2.14,2.45,2.73.74Z" transform="translate(-1393 -692)"/><path class="cls-3" d="M1688.56,1292.43c-1.48,2.23,0,5.52,2.68,5.41a2.62,2.62,0,0,0,.73-.1c1.41-.36,2.38-1.6,3.33-2.68a57.08,57.08,0,0,1,7-6.46l5.13-4.25a37.37,37.37,0,0,0-18.08,6.86Z" transform="translate(-1393 -692)"/><path class="cls-3" d="M1676.74,1315.35c1.22-2.27,4.68-2.72,5.81-.54a3.45,3.45,0,0,1,.25.63c.32,1.29-.27,2.66-.76,4a57.11,57.11,0,0,0-2.28,8.7c-.41,2.05-.85,4.1-1.26,6.15a32.78,32.78,0,0,1-2.43-17.66Z" transform="translate(-1393 -692)"/><path class="cls-5" d="M1730.31,1313.12a57.84,57.84,0,0,0,1.85,10.92,1.42,1.42,0,1,0,2.74-.76,54,54,0,0,1-1.75-10.16,1.44,1.44,0,0,0-1.42-1.42,1.41,1.41,0,0,0-1.42,1.42Z" transform="translate(-1393 -692)"/><path class="cls-17" d="M1620.61,1236.34a83.47,83.47,0,0,1,50.8,14.55c1.51,1,2.94-1.42,1.44-2.44a86,86,0,0,0-52.22-14.93c-1.83,0-1.85,2.89,0,2.82Z" transform="translate(-1393 -692)"/><path class="cls-17" d="M1622.88,1240.82A83.13,83.13,0,0,1,1646,1251c1.55,1,3-1.48,1.44-2.45a85.84,85.84,0,0,0-23.8-10.5,1.42,1.42,0,0,0-.77,2.73Z" transform="translate(-1393 -692)"/><path class="cls-17" d="M1647.15,1232.65a100.11,100.11,0,0,1,50.53,14.18,1.42,1.42,0,0,0,1.44-2.45,103,103,0,0,0-52-14.55,1.41,1.41,0,0,0,0,2.82Z" transform="translate(-1393 -692)"/><path class="cls-17" d="M1676.31,1229.9a52.13,52.13,0,0,1,21,11c1.39,1.18,3.4-.81,2-2a55.54,55.54,0,0,0-22.22-11.69,1.43,1.43,0,0,0-.77,2.75Z" transform="translate(-1393 -692)"/><path class="cls-17" d="M1629.46,1267.66c15.6,1.6,31.09-1.26,46.36-4.16,1.8-.34,1-3.07-.75-2.73-15,2.86-30.24,5.65-45.61,4.07-1.81-.2-1.8,2.62,0,2.82Z" transform="translate(-1393 -692)"/><path class="cls-17" d="M1634.12,1275.34c3.92.61,8.06.11,12,0l12.4-.43c1.81-.07,1.83-2.89,0-2.84l-11.93.41c-1.91.08-3.81.13-5.72.2a32.61,32.61,0,0,1-6,0c-1.78-.29-2.54,2.44-.74,2.73Z" transform="translate(-1393 -692)"/><path class="cls-17" d="M1631.6,1285.58q14.14,1.05,28.3,1.51c1.84.05,1.82-2.79,0-2.84-9.44-.31-18.89-.81-28.3-1.52-1.81-.12-1.79,2.72,0,2.85Z" transform="translate(-1393 -692)"/><path class="cls-17" d="M1636.08,1297.75a126.2,126.2,0,0,1,13.76,9.59,1.47,1.47,0,0,0,2,0,1.44,1.44,0,0,0,0-2,129.19,129.19,0,0,0-14.34-10,1.42,1.42,0,0,0-1.44,2.44Z" transform="translate(-1393 -692)"/><path class="cls-17" d="M1617.29,1272.3a101.32,101.32,0,0,0,14.55,37c1,1.53,3.45.11,2.44-1.44a99.58,99.58,0,0,1-14.26-36.28c-.31-1.79-3.06-1-2.73.75Z" transform="translate(-1393 -692)"/><path class="cls-17" d="M1619.19,1305a59.82,59.82,0,0,0,13.55,17.15c1.36,1.2,3.38-.81,2-2a57.34,57.34,0,0,1-13.09-16.56c-.87-1.62-3.33-.18-2.47,1.43Z" transform="translate(-1393 -692)"/><path class="cls-17" d="M1633.17,1221.36l21.32-19.86c1.33-1.24-.67-3.26-2-2l-21.32,19.86c-1.33,1.24.67,3.26,2,2Z" transform="translate(-1393 -692)"/><path class="cls-17" d="M1629.72,1214.63l10.57-13.37a1.46,1.46,0,0,0,0-2,1.43,1.43,0,0,0-2,0l-10.58,13.36a1.48,1.48,0,0,0,0,2,1.43,1.43,0,0,0,2,0Z" transform="translate(-1393 -692)"/><path class="cls-17" d="M1627,1206.68a47.94,47.94,0,0,1,14.48-16.77c1.48-1.06.06-3.52-1.44-2.44a51,51,0,0,0-15.5,17.79c-.83,1.62,1.62,3,2.46,1.42Z" transform="translate(-1393 -692)"/><path d="M1706.19,1306.41a7.07,7.07,0,0,0,6.38-.31,6.77,6.77,0,0,0,3.29-5.45,6.92,6.92,0,0,0-.75-3.61,1.42,1.42,0,1,0-2.45,1.43c0,.08.29.45.09.17.06.07.07.21.11.3.07.25.13.49.18.74s0,.14,0,0c0,.07,0,.14,0,.21s0,.22,0,.33a3.17,3.17,0,0,1,0,.43c0,.16,0,.3,0,.05a4.3,4.3,0,0,1-.16.76,3.39,3.39,0,0,1-.15.41c-.11.31.11-.2,0,.07a4.38,4.38,0,0,1-.37.67c0,.07-.35.43-.11.14-.09.09-.16.2-.25.29l-.27.27-.17.14c.13-.1.17-.12.08-.05a6.05,6.05,0,0,1-.63.4,1.5,1.5,0,0,1-.34.16c.34-.06,0,0-.11,0a5.19,5.19,0,0,1-.72.2l-.38.07c.4,0,0,0-.11,0a4.7,4.7,0,0,1-.75,0c-.38,0,.19.06-.11,0l-.36-.07a2.15,2.15,0,0,1-.36-.11c-.07,0-.52-.2-.16,0a1.48,1.48,0,0,0-1.95.5,1.46,1.46,0,0,0,.53,1.93Z" transform="translate(-1393 -692)"/><path d="M1689.15,1334.79a7.09,7.09,0,0,0,6.39-.3,6.78,6.78,0,0,0,3.29-5.45,7,7,0,0,0-.76-3.62,1.43,1.43,0,0,0-1.94-.5,1.45,1.45,0,0,0-.5,1.94c0,.07.28.45.09.16a1.86,1.86,0,0,1,.1.31,6.14,6.14,0,0,1,.18.74q0,.24,0-.06c0,.07,0,.15,0,.22s0,.21,0,.32a3,3,0,0,1,0,.43c0,.17,0,.31,0,.06a4,4,0,0,1-.16.75c0,.15-.09.27-.14.42s.1-.2,0,.07a5.38,5.38,0,0,1-.38.66c0,.08-.34.44-.11.15-.09.09-.16.2-.25.29l-.27.27-.16.14c.13-.11.16-.13.07,0a5.09,5.09,0,0,1-.63.39.89.89,0,0,1-.34.16c.34,0,0,0-.11,0a5.9,5.9,0,0,1-.72.2l-.38.07c.4,0,0,0-.1,0a4.82,4.82,0,0,1-.76,0c-.38,0,.2.05-.11,0l-.36-.07c-.12,0-.23-.06-.36-.11s-.52-.2-.16-.05a1.47,1.47,0,0,0-1.94.5,1.43,1.43,0,0,0,.52,1.92Z" transform="translate(-1393 -692)"/><path class="cls-5" d="M2253.21,1588a38.88,38.88,0,0,0-16.8,24.61,202.78,202.78,0,0,0,36.84-2.47Z" transform="translate(-1393 -692)"/><path class="cls-10" d="M2355.89,1644.9c-16.57,9.43-45.42,21.1-63.25,27.87-3.76,1.42-7.72,2.82-11.71,2.39-5.56-.59-10.13-4.57-14-8.63a110.16,110.16,0,0,1-16.91-23.44l-8.76,3.27a17.77,17.77,0,0,1-21.28-7.21c-.07-.11-.14-.22-.2-.33a17.79,17.79,0,0,1,8.66-26c7.61-2.93,15.86-6.17,21.4-8.45-3.22-6.66-4-14.61-1.42-21.52s8.87-12.52,16.17-13.6,15.29,2.92,18.17,9.72c.25.61,29.63-13.71,37.6-17.38C2329.57,1588.44,2355.89,1644.9,2355.89,1644.9Z" transform="translate(-1393 -692)"/><path class="cls-5" d="M2288.07,1637.19a18.48,18.48,0,0,1,5.11,3.56,8.21,8.21,0,0,1,1.85,2.37,1.65,1.65,0,0,1,.15,1c0,.08-.15.35-.09.26-.08.07-.13.14-.22.21h0a2.8,2.8,0,0,1-1.8.38,11.66,11.66,0,0,1-2.44-.38l-7.4-1.67c-1.78-.4-2.53,2.34-.75,2.73,2.3.52,4.58,1.05,6.89,1.55a12.78,12.78,0,0,0,5.28.45,3.93,3.93,0,0,0,3.4-3.6c.11-2.1-1.45-3.92-2.84-5.32a20,20,0,0,0-5.68-4,1.45,1.45,0,0,0-1.46,2.5Z" transform="translate(-1393 -692)"/><path class="cls-3" d="M2307,1616.16c1.13,2.77-1.12,6-4,5.23a3.58,3.58,0,0,1-.77-.29c-1.42-.72-2.22-2.28-3-3.7a67.62,67.62,0,0,0-6.18-8.65c-1.55-2-3.1-3.87-4.65-5.81a42.4,42.4,0,0,1,18,11.71Z" transform="translate(-1393 -692)"/><path class="cls-3" d="M2316.62,1637.76c-1.55-2.43-5.36-2.71-6.42-.29a5,5,0,0,0-.22.72c-.25,1.44.54,2.92,1.19,4.3a62.62,62.62,0,0,1,3.29,9.45c.65,2.23,1.3,4.44,1.94,6.67a36,36,0,0,0,1-19.52Z" transform="translate(-1393 -692)"/><path class="cls-5" d="M2271.88,1631.61a28.31,28.31,0,0,1,3,13.62c-.05,1.83,2.79,1.83,2.84,0a31.37,31.37,0,0,0-3.41-15c-.85-1.64-3.3-.2-2.47,1.42Z" transform="translate(-1393 -692)"/><path class="cls-5" d="M2249.18,1642.78c1.47-.3,1.11-2.09.9-3.11-.34-1.48-.79-2.93-1.24-4.39-1.14-3.62-2.34-7.21-3.55-10.81-.21-.67-.45-1.33-.66-2-.06-.2-.11-.39-.18-.57-.16-.45.09-.49-.09.41.32-1.78-2.41-2.55-2.74-.76a5.26,5.26,0,0,0,.53,2.45c.46,1.44,1,2.9,1.43,4.34,1.16,3.43,2.33,6.85,3.3,10.34.18.65.36,1.31.5,2,0,.11,0,.23.07.34.09.38-.07,0,0,0s0,.2,0,.24a1.29,1.29,0,0,1,1-1.15c-1.8.36-1,3.09.76,2.73Z" transform="translate(-1393 -692)"/><path class="cls-5" d="M2267,1580a24.81,24.81,0,0,1-7.93,12.45l2.43,1c0-.43,0-.85,0-1.28,0-1.82-2.9-1.83-2.84,0,0,.43,0,.85,0,1.28a1.44,1.44,0,0,0,2.43,1,27.57,27.57,0,0,0,8.67-13.68,1.43,1.43,0,0,0-2.75-.78Z" transform="translate(-1393 -692)"/><path class="cls-5" d="M2260.67,1582.66c.24,2.18.47,4.36.71,6.53a1.42,1.42,0,1,0,2.84,0q-.36-3.26-.7-6.53a1.46,1.46,0,0,0-1.42-1.42c-.71,0-1.52.63-1.43,1.42Z" transform="translate(-1393 -692)"/><path class="cls-5" d="M2318.81,1576.13c-4.39,8-1,18.78,4.64,26.77s13.41,14.35,19.31,22.18q-2.36-10.93-4.72-21.86c3.55,19,7.52,39,19.81,54.47a111,111,0,0,0,3.4-18.58c.92,4.35,1.85,8.78,3.92,12.81s5.45,7.68,9.68,9c.56-9.89.65-19.86.29-29.83a34.34,34.34,0,0,0,17,13.82c2-4.57-.51-10.11-2.92-14.86l-13.63-26.75a134.39,134.39,0,0,0,29-.11L2372,1589.41a5.7,5.7,0,0,1-4.12-4.63,113,113,0,0,1-4.19-21.65c-.66-7.15-.84-14.9-5.39-20.73a71.07,71.07,0,0,0-8.73,17,72.91,72.91,0,0,0-17.79-25.46,6.59,6.59,0,0,0-3.36-2c-2.09-.27-3.64,1.54-4.79,3.24a158,158,0,0,0-9.71,16.24,69.31,69.31,0,0,0-16-16.55c-2.1,3.51.5,8.33.23,12.56-.3,4.69-4.08,8-7.6,10.81-5.87,4.69-10.33,7.44-16.19,12.16,2.42,2,7.68,5.84,4.85,9.1Z" transform="translate(-1393 -692)"/><path class="cls-3" d="M2323.19,1567.35c-4.39,20.1,7.82,38,21.56,51.33a1.44,1.44,0,0,0,2.38-1.39q-3.35-16.62-6.71-33.24l-2.74.75a76.65,76.65,0,0,0,20.62,36.7,1.42,1.42,0,0,0,2-2,73.64,73.64,0,0,1-19.89-35.44c-.43-1.78-3.1-1-2.74.75q3.34,16.62,6.71,33.25l2.38-1.39c-12.95-12.54-25-29.52-20.85-48.55.4-1.78-2.34-2.56-2.73-.76Z" transform="translate(-1393 -692)"/><path class="cls-3" d="M2355.57,1591.42a47.32,47.32,0,0,0,9.93,22.29,1.43,1.43,0,0,0,2.42-1,64.13,64.13,0,0,0-2.53-14.41l-2.59,1.1,11.69,21.73c.86,1.6,3.31.18,2.45-1.44-3.91-7.25-7.79-14.48-11.7-21.73a1.42,1.42,0,0,0-2.59,1.1,61.48,61.48,0,0,1,2.43,13.65l2.43-1a45,45,0,0,1-9.19-21c-.29-1.78-3-1-2.75.77Z" transform="translate(-1393 -692)"/><path class="cls-3" d="M2304,1555.45q-8.58,6.19-16.61,13.11c-1.38,1.19.63,3.2,2,2q7.74-6.66,16-12.68a1.42,1.42,0,1,0-1.45-2.44Z" transform="translate(-1393 -692)"/><path class="cls-3" d="M2305.27,1563.16c-1.82,2-4.5,2.74-7,3.71-2.68,1-5.41,2.34-6.8,5-.84,1.62,1.6,3,2.45,1.44a5.78,5.78,0,0,1,2.37-2.43,20.3,20.3,0,0,1,3.53-1.59c2.66-1,5.48-2,7.46-4.11,1.23-1.37-.77-3.39-2-2Z" transform="translate(-1393 -692)"/><path class="cls-3" d="M2340.2,1559.31c.2,2.49.49,5,.92,7.4.22,1.22.45,2.42.72,3.63a7.19,7.19,0,0,0,1.13,3.26c1.78,2,4.1,0,5.22-1.59,1.46-2.08,2.91-4.21,4.35-6.29l-2.59-.35c.67,3.71,1.32,7.43,2,11.14a1.42,1.42,0,0,0,1.75,1,1.45,1.45,0,0,0,1-1.75c-.67-3.7-1.32-7.42-2-11.13-.24-1.31-2-1.24-2.59-.34-1.14,1.63-2.29,3.29-3.42,4.93a10.85,10.85,0,0,1-1.57,2.1c-.05.06-.28.18-.3.22s.12.12.16.09.11.05.07,0,0-.12-.05-.18a6.14,6.14,0,0,0-.18-.74,71.54,71.54,0,0,1-1.78-11.37c-.13-1.79-3-1.81-2.83,0Z" transform="translate(-1393 -692)"/><path class="cls-5" d="M2340.42,1635.26a58.56,58.56,0,0,0-14.55,2.75c-1.23.4-1.48,2.47,0,2.74a80.76,80.76,0,0,0,14.05,1.35c-.13-.94-.26-1.86-.38-2.79-3.46.83-7,1.49-10.47,2a1.43,1.43,0,0,0-.34,2.59,24.34,24.34,0,0,0,9.55,2.09c-.13-.93-.25-1.85-.38-2.79l-9.89,3.15c-1.73.56-1,3.29.75,2.74l9.9-3.15a1.43,1.43,0,0,0-.38-2.79,21.26,21.26,0,0,1-8.11-1.69c-.11.86-.24,1.72-.35,2.59q5.29-.78,10.47-2a1.42,1.42,0,0,0-.37-2.78,75.06,75.06,0,0,1-13.3-1.25v2.74a55.51,55.51,0,0,1,13.8-2.65c1.82-.12,1.83-2.95,0-2.84Z" transform="translate(-1393 -692)"/><path d="M2281.07,1613.12c-2.55,5.21,1.57,12.16,7.47,12.19a1.42,1.42,0,1,0,0-2.84l-.43,0H2288c-.24-.06-.49-.09-.72-.17l-.47-.16c.23.09,0,0-.11,0a7,7,0,0,1-.65-.36l-.41-.27c-.25-.16.14.14-.11-.07s-.38-.33-.54-.51a6,6,0,0,1-.57-.65c.18.24-.06-.09-.08-.1s-.16-.24-.23-.36l-.4-.7-.16-.35c.13.29,0-.12-.05-.18-.09-.25-.16-.5-.24-.77s-.05-.23-.07-.36a.91.91,0,0,1,0-.23c0,.16,0,.18,0,.07,0-.27,0-.52,0-.79a2.06,2.06,0,0,1,0-.36c0-.07,0-.16,0-.24,0,.17,0,.18,0,.08a4.2,4.2,0,0,1,.18-.78,2,2,0,0,1,.12-.34c.06-.14.06-.16,0,0a2.51,2.51,0,0,0,.11-.23,1.48,1.48,0,0,0-.5-2,1.45,1.45,0,0,0-1.95.51Z" transform="translate(-1393 -692)"/><path d="M2300.75,1649c-2.55,5.22,1.57,12.16,7.47,12.2a1.42,1.42,0,1,0,0-2.84l-.43,0-.18,0c.18,0,.18,0,0,0s-.48-.09-.71-.16l-.47-.16a.85.85,0,1,0-.11-.06,5.26,5.26,0,0,1-.65-.36l-.41-.27c-.25-.16.14.15-.11-.07a6.39,6.39,0,0,1-.54-.5,7.26,7.26,0,0,1-.58-.65c.18.23-.05-.09-.07-.11a3.61,3.61,0,0,1-.23-.36c-.14-.23-.27-.47-.4-.7l-.16-.34c.13.29,0-.13,0-.18-.09-.25-.16-.51-.24-.78s0-.23-.07-.36a.91.91,0,0,1,0-.23c0,.16,0,.18,0,.07,0-.27,0-.52,0-.79a2.17,2.17,0,0,1,0-.36c0-.09,0-.16,0-.23,0,.16,0,.18,0,.07a4.29,4.29,0,0,1,.18-.77,1.8,1.8,0,0,1,.12-.35c.06-.14.06-.16,0,0a2.51,2.51,0,0,0,.11-.23,1.47,1.47,0,0,0-.5-1.94,1.44,1.44,0,0,0-1.95.5Z" transform="translate(-1393 -692)"/><path class="cls-5" d="M2223.38,1606.12c-47.47-15.13-101.49-6.26-142.14,23.33-2.45,1.78-5,3.8-6,6.69-.92,2.49-.63,5.24-.3,7.86a558,558,0,0,0,18.72,90.22c.56,1.9,1.22,4,2.81,5.12,2,1.52,4.82,1,7.25.49l103.58-23.28q-.43-14.37-.85-28.74l-19.21,1.56a175,175,0,0,0,39-26.69c3.38-3.06,6.72-6.37,8.58-10.6,2.19-5,2-10.85,1-16.26-2.54-12.83-2-22.63-12.49-29.86Z" transform="translate(-1393 -692)"/><path class="cls-15" d="M2164.76,1593c26.06,47,35.31,101.21,44.14,154.22-18.33,3.6-37.2-.18-55.87-.74-46.59-1.38-91.67,17.24-138.23,19.36-15.68.7-31.42-.47-47.06.92-40.69,3.58-78.16,24.12-118.58,30a391.06,391.06,0,0,1-17.38-148.77c.49-6.28,1.35-13.08,5.76-17.59s11.39-5.56,17.77-6.28L2132.52,1593c10.76-1.21,21.62-2.43,32.4-1.28Z" transform="translate(-1393 -692)"/><path class="cls-14" d="M2317.64,1721.61c6.52,3,13.55,4.08,20.64,4.69a153.07,153.07,0,0,0,22.66.29,159.38,159.38,0,0,0,43.84-8.92c1.71-.61,1-3.35-.75-2.74a155.85,155.85,0,0,1-63.16,8.73c-7.41-.52-15-1.35-21.8-4.5-1.64-.77-3.08,1.67-1.43,2.45Z" transform="translate(-1393 -692)"/><path class="cls-14" d="M2396,1696.77a179.63,179.63,0,0,1-21,9.35c-1.69.63-1,3.38.75,2.73a186.49,186.49,0,0,0,21.68-9.64c1.62-.84.18-3.29-1.44-2.44Z" transform="translate(-1393 -692)"/><path class="cls-4" d="M1846.55,1694.77a568.81,568.81,0,0,0,23.08,85.27,2.89,2.89,0,0,0,4.18,1.69c27.93-16.53,60.51-21.9,92.48-23.6,33.8-1.8,67.72.41,101.47-2.79,19.12-1.82,38.1-5.35,56.11-12.16,3.38-1.28,1.92-6.77-1.51-5.47-32.67,12.34-67.86,13.67-102.39,13.87-32.91.2-66.11-.43-98.51,6.31-17.7,3.69-34.94,9.72-50.53,18.94l4.17,1.69a566,566,0,0,1-23.08-85.26c-.66-3.6-6.13-2.07-5.47,1.51Z" transform="translate(-1393 -692)"/><path class="cls-4" d="M2174.62,1654.49q6,24.08,11.9,48.12c1,4,2,8,2.95,11.91.81,3.27,1.77,6.64,1.5,10.06-.54,7.1-7.94,8.09-13.66,8.52-3.61.27-3.65,6,0,5.69,6.62-.49,14.41-1.66,17.79-8.21,3.66-7.07.24-15.93-1.52-23.06l-13.5-54.54c-.88-3.54-6.35-2-5.46,1.51Z" transform="translate(-1393 -692)"/><path class="cls-4" d="M1910,1633q8.65,41,17.34,81.94c.41,2,.94,4.14,2.52,5.39,1.37,1.1,3.24,1.26,5,1.39,67.6,4.61,134.86-10.34,201-25.18q-15.43-47.48-30.88-94.91Z" transform="translate(-1393 -692)"/><path class="cls-3" d="M2211,1624.4l-23.18,19.35c-1.41,1.17.61,3.17,2,2l23.19-19.36c1.38-1.19-.63-3.18-2-2Z" transform="translate(-1393 -692)"/><path class="cls-6" d="M2015.38,1684.21l-87.54-62.93a401.77,401.77,0,0,0,20.19-47l101.6,61.54a238.76,238.76,0,0,1-34.54,45.42Z" transform="translate(-1393 -692)"/><path class="cls-7" d="M1815.49,1583.71a312.63,312.63,0,0,1,101.74-103.94l39.23,39.48c3.37,3.4,6.91,6.89,11.43,8.46,5.45,1.89,11.42.66,17.07-.49a646,646,0,0,1,131.57-13.2c5.16,0,10.67.19,14.91,3.13,2.88,2,4.84,5,6.73,8q33.43,52.43,66.85,104.85a1549.56,1549.56,0,0,1-185.29,53.41q-18.78-32.49-37.58-65a802.06,802.06,0,0,1-148.33,70.3A1002,1002,0,0,1,1810,1583.33Z" transform="translate(-1393 -692)"/><path class="cls-6" d="M1967.29,1535.08q23.73,24.08,47.44,48.16,11.88,12,23.73,24.07c3.58,3.63,8.67,7.46,10.05,12.57.72,2.63.61,5.42.7,8.11s.29,5.18.58,7.78a112.82,112.82,0,0,0,9,33.17c.74,1.67,3.19.21,2.45-1.44a107.6,107.6,0,0,1-8.56-31.32c-.58-5.11-.24-10.36-1.08-15.42-.81-4.82-3.89-8.11-7.18-11.47l-48.1-48.83q-13.51-13.7-27-27.41c-1.28-1.28-3.29.72-2,2Z" transform="translate(-1393 -692)"/><path class="cls-6" d="M2087.39,1651.61l85.3-30.27c1.71-.61,1-3.35-.76-2.74l-85.3,30.28c-1.71.61-1,3.35.76,2.73Z" transform="translate(-1393 -692)"/><path class="cls-6" d="M2075.84,1640.15q38.72-14.33,77.46-28.67c1.69-.63,1-3.38-.76-2.73q-38.72,14.32-77.46,28.67c-1.71.63-1,3.38.76,2.73Z" transform="translate(-1393 -692)"/><path class="cls-6" d="M2080,1620.82a248.3,248.3,0,0,1,57.87-20.62c1.78-.39,1-3.13-.76-2.73a251.78,251.78,0,0,0-58.55,20.9c-1.62.81-.18,3.26,1.44,2.45Z" transform="translate(-1393 -692)"/><path class="cls-6" d="M2077.67,1533.88q9.82,21.72,19.63,43.46a1.44,1.44,0,0,0,1.94.5,76.23,76.23,0,0,1,24.75-8.67,1.42,1.42,0,0,0,1-1.74l-15.54-40.55a1.45,1.45,0,0,0-1.74-1,76.37,76.37,0,0,1-28.19,3.67c-1.82-.11-1.82,2.73,0,2.84a78.41,78.41,0,0,0,28.94-3.78l-1.74-1,15.54,40.55,1-1.74a78,78,0,0,0-25.42,9l1.94.51-19.62-43.46c-.78-1.66-3.22-.22-2.47,1.44Z" transform="translate(-1393 -692)"/><path class="cls-6" d="M2043.4,1590.06q14.58-7.62,29.15-15.2c1.62-.85.18-3.3-1.44-2.45l-29.14,15.2c-1.62.84-.2,3.29,1.43,2.45Z" transform="translate(-1393 -692)"/><path class="cls-6" d="M2033.55,1571.2q9.6-4,19.23-8a1.42,1.42,0,1,0-.76-2.74l-19.21,8a1.45,1.45,0,0,0-1,1.74,1.39,1.39,0,0,0,1.73,1Z" transform="translate(-1393 -692)"/><path class="cls-6" d="M2022,1549.26a76.85,76.85,0,0,1,21.17-9,1.42,1.42,0,0,0-.75-2.74,79.49,79.49,0,0,0-21.86,9.34c-1.53,1-.11,3.42,1.44,2.45Z" transform="translate(-1393 -692)"/><path class="cls-6" d="M1930.08,1521.57q28.31,41.75,52.92,85.83c.88,1.6,3.34.16,2.44-1.44q-24.57-44-52.92-85.83c-1-1.49-3.47-.07-2.44,1.44Z" transform="translate(-1393 -692)"/><path class="cls-6" d="M1912.19,1520.06q21,36.57,42,73.13c1.26,2.19,5.51,7.28,3.12,9.69a27.32,27.32,0,0,1-4.14,2.92l-5.11,3.43-8.24,5.56c-2.61,1.76-5.79,4.68-9.12,4.84s-4.84-4.55-6.1-7c-1.72-3.35-3.47-6.71-5.2-10.06q-4.77-9.22-9.55-18.45-11.05-21.41-22.13-42.78c-.16.65-.34,1.29-.5,1.94l22.7-13.33a1.42,1.42,0,0,0-1.44-2.44l-22.7,13.33a1.44,1.44,0,0,0-.5,1.94l21.69,41.93,10.85,21,5.2,10c1.26,2.41,2.45,5.33,5.22,6.33,2.53.94,5.21,0,7.48-1.24,3.44-1.85,6.6-4.33,9.84-6.51l8.63-5.81c2.25-1.51,5.74-3.11,6.59-5.94s-1-5.34-2.29-7.57c-2-3.53-4-7-6.06-10.56l-11.66-20.31q-13-22.74-26.1-45.49a1.4,1.4,0,0,0-2.43,1.4Z" transform="translate(-1393 -692)"/><path class="cls-6" d="M1875.44,1649.78q16.3-12.73,32.62-25.46c1.44-1.11-.58-3.11-2-2q-16.29,12.74-32.61,25.45c-1.44,1.14.59,3.13,2,2Z" transform="translate(-1393 -692)"/><path class="cls-6" d="M1867.87,1634.49a59,59,0,0,1,19.05-13.22,1.42,1.42,0,0,0-1.44-2.45,60.65,60.65,0,0,0-19.63,13.67c-1.25,1.31.74,3.33,2,2Z" transform="translate(-1393 -692)"/><path class="cls-6" d="M1856.3,1621q8.84-7.6,17.63-15.2c1.39-1.18-.63-3.2-2-2l-17.63,15.2c-1.37,1.2.65,3.2,2,2Z" transform="translate(-1393 -692)"/><path class="cls-6" d="M1848.12,1597.81l15.47-9.68c1.55-1,.12-3.42-1.44-2.45l-15.47,9.68c-1.53,1-.11,3.42,1.44,2.45Z" transform="translate(-1393 -692)"/><path class="cls-5" d="M2202.62,1611.23c.92-5.81,1.86-11.62,2.77-17.41a1.45,1.45,0,0,0-1-1.75,1.43,1.43,0,0,0-1.74,1q-1.38,8.71-2.77,17.41a1.46,1.46,0,0,0,1,1.75,1.4,1.4,0,0,0,1.74-1Z" transform="translate(-1393 -692)"/><path class="cls-5" d="M2192.39,1590.09q1.4,6.78,2.82,13.55a1.42,1.42,0,1,0,2.74-.76c-.94-4.51-1.87-9-2.83-13.54a1.42,1.42,0,0,0-1.74-1,1.44,1.44,0,0,0-1,1.74Z" transform="translate(-1393 -692)"/><path class="cls-5" d="M2217.88,1663.22a29.55,29.55,0,0,1,6.65,8.36,1.43,1.43,0,0,0,1.95.5,1.45,1.45,0,0,0,.5-1.94,33,33,0,0,0-7.09-8.94,1.46,1.46,0,0,0-2,0,1.43,1.43,0,0,0,0,2Z" transform="translate(-1393 -692)"/><path class="cls-5" d="M2223.13,1661.24l6.62,3.2a1.42,1.42,0,0,0,1.44-2.45l-6.62-3.2a1.46,1.46,0,0,0-1.94.5,1.44,1.44,0,0,0,.5,2Z" transform="translate(-1393 -692)"/><path class="cls-5" d="M2366.34,1587.41a110.53,110.53,0,0,0,32.33,3.67c1.81,0,1.83-2.9,0-2.84a108.11,108.11,0,0,1-31.57-3.58,1.43,1.43,0,0,0-.76,2.75Z" transform="translate(-1393 -692)"/><path class="cls-5" d="M2365.78,1580.13a139.7,139.7,0,0,0,29.38-1.84c1.8-.3,1-3-.76-2.73a137,137,0,0,1-28.62,1.72c-1.83-.07-1.83,2.77,0,2.85Z" transform="translate(-1393 -692)"/><path class="cls-5" d="M2314.23,1572.93a32.49,32.49,0,0,0,3.49,30.4c1,1.49,3.5.07,2.44-1.44a29.85,29.85,0,0,1-3.2-28.2c.68-1.7-2.07-2.43-2.73-.76Z" transform="translate(-1393 -692)"/><path class="cls-2" d="M2405.39,1554.71q-3.49-14.76-7-29.54c-.85-3.56-1.08-8.38,2.32-9.73,2.32-.92,4.82.52,7.12,1.49a19.4,19.4,0,0,0,14.39.22c2.43-.94,4.71-2.4,7.29-2.86s5.68.45,6.6,2.89c1.08,2.88-1.33,5.78-3.49,8a174,174,0,0,0-24.57,31.23Z" transform="translate(-1393 -692)"/><path class="cls-14" d="M2316.55,1672.46a33.14,33.14,0,0,1,13.13,21.09c.32,1.79,3.06,1,2.73-.76A35.89,35.89,0,0,0,2318,1670c-1.48-1.08-2.9,1.38-1.42,2.44Z" transform="translate(-1393 -692)"/><path class="cls-14" d="M2328.37,1668.29a82.93,82.93,0,0,1,17.14,16.69,1.42,1.42,0,1,0,2.45-1.44,88.46,88.46,0,0,0-18.17-17.72,1.45,1.45,0,0,0-1.95.51,1.49,1.49,0,0,0,.53,2Z" transform="translate(-1393 -692)"/><path class="cls-14" d="M2396.76,1552.53l17.41.85a2.84,2.84,0,0,0,2.84-2.85,2.89,2.89,0,0,0-2.84-2.84l-17.41-.84a2.84,2.84,0,0,0-2.84,2.84,2.9,2.9,0,0,0,2.84,2.84Z" transform="translate(-1393 -692)"/><path class="cls-14" d="M2397.66,1558.31a43.07,43.07,0,0,1,19.48,2.51,2.85,2.85,0,0,0,3.49-2,2.9,2.9,0,0,0-2-3.49,47,47,0,0,0-21-2.72,2.91,2.91,0,0,0-2.84,2.84,2.86,2.86,0,0,0,2.84,2.83Z" transform="translate(-1393 -692)"/><path class="cls-14" d="M2381.77,1657.26a108.87,108.87,0,0,0,50.79,17.27c1.81.15,1.81-2.7,0-2.84a105.73,105.73,0,0,1-49.35-16.89c-1.53-1-3,1.47-1.44,2.46Z" transform="translate(-1393 -692)"/><path class="cls-14" d="M2386.63,1658a71.53,71.53,0,0,0,37.49,2.39c1.78-.36,1-3.09-.76-2.73a68.63,68.63,0,0,1-36-2.39c-1.75-.62-2.49,2.14-.76,2.73Z" transform="translate(-1393 -692)"/><path class="cls-15" d="M2142.58,1732.8a93.74,93.74,0,0,0,2.75,20.14,2.84,2.84,0,0,0,5.47-1.51,86.81,86.81,0,0,1-2.56-18.63,2.83,2.83,0,1,0-5.66,0Z" transform="translate(-1393 -692)"/><path class="cls-15" d="M2154,1738.59a42.9,42.9,0,0,0,3.25,15.2,3.05,3.05,0,0,0,1.32,1.69,2.94,2.94,0,0,0,2.19.29c1.31-.43,2.61-2,2-3.49a41.56,41.56,0,0,1-2.23-6.94c-.13-.56-.24-1.14-.34-1.7-.06-.34-.11-.7-.18-1-.11-.63,0,.4,0-.3-.14-1.23-.23-2.47-.29-3.71a2.83,2.83,0,1,0-5.66,0Z" transform="translate(-1393 -692)"/><path class="cls-15" d="M1820.13,1735.28q11.05-6.85,22.12-13.69c3.1-1.92.26-6.84-2.86-4.91q-11.06,6.85-22.12,13.69c-3.12,1.92-.27,6.83,2.86,4.91Z" transform="translate(-1393 -692)"/><path class="cls-15" d="M1826.73,1742.74c5.29-3,10.58-6,15.85-9a2.84,2.84,0,0,0-2.86-4.91c-5.29,3-10.58,6-15.85,9a2.84,2.84,0,1,0,2.86,4.91Z" transform="translate(-1393 -692)"/><path class="cls-18" d="M2427.79,1384.78s150.77-36.23,199.85-15.46c0,0-38.33-110.61-99.22-92.72S2427.79,1384.78,2427.79,1384.78Z" transform="translate(-1393 -692)"/><path class="cls-19" d="M2606.08,918.21c.88-15.73-27.43-28.49-63.18-28.49s-65,13.73-70.64,29c-17.31,47,31.74,28,67.52,28S2605.23,933.94,2606.08,918.21Z" transform="translate(-1393 -692)"/><path class="cls-20" d="M2647.32,1640.84s-1.73,66.7-4.74,71.62-4.31,16.37-4.31,16.37h74.5s3.1-6.17-5-8.63-33.53-8.41-40.09-13.75c-9.72-8-15.06-63.15-15.06-63.15Z" transform="translate(-1393 -692)"/><path class="cls-21" d="M2662.17,1696.15c-6.19-18.37-9.53-52.85-9.53-52.85l-5.32-2.46s-1.09,42-3,61.75A92.88,92.88,0,0,1,2662.17,1696.15Z" transform="translate(-1393 -692)"/><path class="cls-22" d="M2713.9,1720.2c-7.26-1.85-26.31-5.68-38.58-9.78a88.22,88.22,0,0,1-37.81-2.46,13.19,13.19,0,0,1-1.27,4.5c-3.59,4.92-5.14,16.37-5.14,16.37h88.72S2723.49,1722.66,2713.9,1720.2Z" transform="translate(-1393 -692)"/><path class="cls-20" d="M2511.89,1642.88s14.43,64.66,17.44,69.55,3.19,16.37,3.19,16.37h-89.21s-2.7-8.08,7.26-10.54,36.39-5.28,47.2-12.36c12.45-8.17,7.44-60.56,7.44-60.56Z" transform="translate(-1393 -692)"/><path class="cls-22" d="M2535.13,1708.33a83.61,83.61,0,0,1-9.57.61,81.93,81.93,0,0,1-30.7-5.9c-14,6.93-39.34,10-49.54,12.76-11.36,3-8.29,13-8.29,13h101.86s-.21-14.15-3.64-20.2A2.38,2.38,0,0,1,2535.13,1708.33Z" transform="translate(-1393 -692)"/><path class="cls-21" d="M2503.72,1695.12c7.48,1.06,14.67,2.34,21.51,3.85-5.32-20.34-13.31-56.09-13.31-56.09l-6.68,2.46S2508.28,1677.23,2503.72,1695.12Z" transform="translate(-1393 -692)"/><path class="cls-23" d="M2454.52,1229.06c-12.33,45.8,35.87,403.22,28.79,442.49,0,0,32.59,14.27,56.89,4.46,0,0-49.66-332.26-16.8-367.07,13.92-14.73,42.62-3.89,51.45,1.28,23.79,13.91,35.75,284,37.79,365.76,0,0,50.66,7,59.68-7.71,0,0-44.07-368.9-44.8-444.95C2627.52,1223.32,2473.08,1160.21,2454.52,1229.06Z" transform="translate(-1393 -692)"/><path class="cls-24" d="M2513.53,1427.15c-3-57.77-1.58-106.09,9.87-118.21,13.92-14.73,42.62-3.89,51.45,1.28,9.3,5.43,16.8,50.11,22.6,107.36a187.36,187.36,0,0,1,47.84,11.42c-9.3-87.59-17.47-173.27-17.8-205.68,0,0-154.44-63.11-173,5.74-6.16,22.84,2.73,123.1,12.33,222.78A174.78,174.78,0,0,1,2513.53,1427.15Z" transform="translate(-1393 -692)"/><path class="cls-24" d="M2627.52,1223.32s-154.44-63.11-173,5.74c-12.33,45.8,35.87,403.22,28.79,442.49,0,0,15.74,6.86,33.47,7.8-5.07-43.61-19.77-103.14-27.79-171.41-28-238.12,11.27-245.68,69.22-233.11,32.59,7.08,80.33,93.7,85.8,229.74,3.34,82.73-6.26,137.25-8.38,173.08,14.67.22,31.8-1.36,36.69-9.35C2672.32,1668.27,2628.25,1299.4,2627.52,1223.32Z" transform="translate(-1393 -692)"/><path class="cls-25" d="M2451,1249.14c-12.18-13.82-11.21-78.72-4.41-112.83s-11.14-171.24,6.41-190.68c34.87-38.48,137.1-22.74,150-18.37s47.95,317.47,24.66,324.49S2457.89,1257,2451,1249.14Z" transform="translate(-1393 -692)"/><path class="cls-26" d="M2529.54,1157.29c20.08,0,32.19-42.06,37.69-101.41-3-66.91-2.09-126.71-4.34-128.59-5.26-4.37-47.08-20.11-61.32,18.37-6.32,17,8.29,96.77,7.71,146C2517.18,1115.08,2518,1157.29,2529.54,1157.29Z" transform="translate(-1393 -692)"/><path class="cls-25" d="M2585.42,930.66c.85-18.28-19.31-33.1-45.07-33.1s-47.35,14.82-48.2,33.1,19.32,33.11,45.1,33.11S2584.54,948.94,2585.42,930.66Z" transform="translate(-1393 -692)"/><path class="cls-26" d="M2585.42,925.8c.85-15.58-19.31-28.24-45.07-28.24s-47.35,12.63-48.2,28.24,19.32,28.25,45.1,28.25S2584.54,941.38,2585.42,925.8Z" transform="translate(-1393 -692)"/><path class="cls-27" d="M2542.11,916.45c17,0,32.38,2.79,43.25,7.23-1-14.58-20.47-26.09-45-26.09-25.75,0-47.35,12.63-48.2,28.24,0,.4,0,.76,0,1.16C2502.78,920.64,2521.16,916.45,2542.11,916.45Z" transform="translate(-1393 -692)"/><path class="cls-28" d="M2400.46,1408s28.79,41.73,75.41-17.19c0,0,20.2-188.21,20.41-236.5s-9.9-213.79-22.38-243.25c0,0-25.57,43.25-63.17,38.54,0,0,16.91,128.63,21.29,153.17,0,0-11.39,13.91-2.46,14.73,0,0-8.9,13.09.91,13.09C2430.5,1130.6,2392.05,1382.65,2400.46,1408Z" transform="translate(-1393 -692)"/><path class="cls-29" d="M2473.9,911.07s-24.36,35.78-59.29,34.93c-1.94,71.22,29,91.84,36,145.93,12.61,96.25-33.5,104.33-41.36,191.68-7.17,58.16-12.55,113.23-8.84,124.4,0,0,28.79,41.73,75.41-17.19,0,0,20.2-188.21,20.41-236.5S2486.38,940.53,2473.9,911.07Z" transform="translate(-1393 -692)"/><path class="cls-30" d="M2478.21,926.74a80.41,80.41,0,0,1-24.17,27c-12.64,9.12-26.46,14.13-38.85,15,4.34,53.6,29.22,75.29,35.47,123.12,12.61,96.25-33.5,104.33-41.36,191.68-7.17,58.16-12.55,113.23-8.84,124.4,0,0,28.79,41.73,75.41-17.19,0,0,20.2-188.21,20.41-236.5C2496.47,1111.71,2488.63,977.89,2478.21,926.74Z" transform="translate(-1393 -692)"/><path class="cls-31" d="M2473.9,911.07a101.34,101.34,0,0,1-21.63,21.75c12.55,27.24,21,76.17,21.26,132,.43,104.79-42.7,206.59-64.2,218.74-7.17,58.16-12.54,113.23-8.84,124.4,0,0,28.79,41.73,75.41-17.19,0,0,20.2-188.21,20.41-236.5S2486.38,940.53,2473.9,911.07Z" transform="translate(-1393 -692)"/><path class="cls-31" d="M2460,933.18s-17.4,56.46-12.54,57.47,45.46-13.73,39-28.46c-11.45-26,2.74-60.47,2.74-60.47S2468.13,919.7,2460,933.18Z" transform="translate(-1393 -692)"/><path class="cls-31" d="M2458.8,1233.83c-14,1-27.73-7.86-39.78-23.84-10.57,76.2-23.84,182-18.53,198,0,0,28.79,41.73,75.41-17.19,0,0,11.82-110,17.47-183.38C2483.86,1223.32,2472.08,1232.92,2458.8,1233.83Z" transform="translate(-1393 -692)"/><path class="cls-28" d="M2682.74,1385.93s-32.68,50-78.94-6.92c0,0-26.06-185.57-27.58-233.86s3.25-200.94,26.79-238.39c16.34,26.39,28.55,5.53,58,19.65,0,0-15.46,133.24-19.38,158.39,0,0,12.24,12.36,2.95,14.39,0,0,9.6,11.88-.61,13.25C2644,1112.44,2690.81,1359.39,2682.74,1385.93Z" transform="translate(-1393 -692)"/><path class="cls-29" d="M2617.47,1093.54c0-69,24.6-131.44,40.06-168.65-27-10.9-38.82,7.23-54.49-18.1-23.54,37.45-28.31,190.1-26.79,238.39S2603.83,1379,2603.83,1379c46.23,57,78.94,6.92,78.94,6.92,3-10-1.67-51.17-8.75-98.64C2652.24,1217.19,2617.47,1184.72,2617.47,1093.54Z" transform="translate(-1393 -692)"/><path class="cls-30" d="M2617.47,1093.54c0-55.42,15.85-106.6,30.12-143.9-.72-.21-1.45-.39-2.18-.6-21.38-6.23-39.55-14.61-50.54-22.63-16.52,55.25-19.95,176.64-18.65,218.74,1.52,48.29,27.58,233.86,27.58,233.86,46.22,57,78.94,6.92,78.94,6.92,3-10-1.68-51.17-8.75-98.64C2652.24,1217.19,2617.47,1184.72,2617.47,1093.54Z" transform="translate(-1393 -692)"/><path class="cls-31" d="M2654.37,1257.58a15.37,15.37,0,0,1-1.64.15c-43.83,0-92.24-199-40.12-340.1-3.13-2.15-6.26-5.53-9.57-10.87-23.54,37.45-28.31,190.1-26.79,238.39S2603.83,1379,2603.83,1379c46.22,57,78.94,6.92,78.94,6.92,3-10-1.68-51.17-8.75-98.64C2667.73,1280.42,2661,1270.31,2654.37,1257.58Z" transform="translate(-1393 -692)"/><path class="cls-31" d="M2618.38,919.39s15.24,59.35,10,60.47-50.14-.6-38.63-14.18c18.37-21.63,1.52-66.06,1.52-66.06S2608.08,904.21,2618.38,919.39Z" transform="translate(-1393 -692)"/><path class="cls-31" d="M2614.25,1239.39c-11,0-21.38-6.11-30.77-17,8.2,70.22,20.32,156.6,20.32,156.6,46.22,57,78.94,6.92,78.94,6.92,4.88-16-10.24-112.43-23-186.27C2647.2,1224.54,2631.41,1239.39,2614.25,1239.39Z" transform="translate(-1393 -692)"/><path class="cls-29" d="M2320.19,1127.71c-23.81-13.51-21.23-15.94-15.83-24.54s14.61,2.46,14.61,2.46-14.45-13.76-2.88-14.73c14.79-1.21,65.21-136.24,96.37-144.84s16.61,77.33,14.91,85.92-50.21,109.25-66.12,108S2320.19,1127.71,2320.19,1127.71Z" transform="translate(-1393 -692)"/><path class="cls-30" d="M2412.55,1003.92c-20.9,24.42-46.62,38.3-64.42,36.53-14.12,27.28-26,49.94-32.07,50.42-9,.76-2.25,9.27,1.18,13-2.91-2.7-9-7-12.91-.7-5.37,8.6-8,11.06,15.83,24.54,0,0,25.18,11.06,41.06,12.27s64.42-99.43,66.12-108c1-4.86,10.93-36.51,4.62-57.74A131.09,131.09,0,0,1,2412.55,1003.92Z" transform="translate(-1393 -692)"/><path class="cls-28" d="M2402.07,1064.84c-22.08,30.41-48,53.7-72,66.85,8.78,3.31,21.62,7.56,31.16,8.32,15.88,1.22,64.72-96.79,66.42-105.39.37-1.79,1-9.66,1.92-16.67A269.68,269.68,0,0,1,2402.07,1064.84Z" transform="translate(-1393 -692)"/><path class="cls-30" d="M2311.05,1114.93c-5,5.83,63.56,87.47,84.67,96.94s43-35.47,39-46.1S2351.26,1067.64,2311.05,1114.93Z" transform="translate(-1393 -692)"/><path class="cls-31" d="M2375.16,1170.17c-29.79-14.18-52.85-33.47-63.42-51.23,7.87,17.73,65,84.43,84,92.93,13.4,6,27.06-9.87,34.29-25C2413.4,1184.84,2394.36,1179.31,2375.16,1170.17Z" transform="translate(-1393 -692)"/><path class="cls-29" d="M2737.37,1105c24.6-14.33,22.24-16.7,17.53-25.11s-14.64,3-14.64,3,15.37-14.27,3.95-14.85c-14.58-.73-54.43-134.18-84.71-141.71s-22.26,78-21.2,86.56,41.61,107.66,57.46,105.87S2737.37,1105,2737.37,1105Z" transform="translate(-1393 -692)"/><path class="cls-30" d="M2754.9,1079.85c-3.46-6.2-9.78-1.67-12.85,1.15,3.68-3.86,11.06-12.6,2.13-13-5-.24-12.94-16-22.42-37-15.21,1.06-40.39-14.7-62.17-40.3a163.37,163.37,0,0,1-21.9-32.68c-2.58,22.8,0,50.14.61,54.79,1,8.53,41.61,107.66,57.46,105.87s41.64-13.7,41.64-13.7C2762,1090.66,2759.61,1088.29,2754.9,1079.85Z" transform="translate(-1393 -692)"/><path class="cls-28" d="M2657.13,1031.4a333.41,333.41,0,0,1-20.56-47.86c.15,14.24-.82,30.73-.46,33.68,1,8.53,43.77,103.26,59.59,101.47,7-.79,16-3.55,23.75-6.41C2699.47,1097.28,2676.3,1068.06,2657.13,1031.4Z" transform="translate(-1393 -692)"/><path class="cls-30" d="M2747.4,1092.39c4,5.56-62.51,98.07-81.92,110.19s-35.65-32.44-31.4-43.95S2715,1047.35,2747.4,1092.39Z" transform="translate(-1393 -692)"/><path class="cls-31" d="M2688.57,1146.7c-19.14,10.35-38.27,17-55,19.92,1.67,16.67,15.68,46.13,31.89,36,16.68-10.42,68-80.06,79.7-103.08C2733.94,1115.75,2713.9,1133,2688.57,1146.7Z" transform="translate(-1393 -692)"/><path class="cls-32" d="M2440.52,1212.78c-5.13-11.11,3.19-104.51,11.51-114.32s160.49-15,169.35-11.26,16.37,115.11,4.56,129C2610.54,1234.32,2446.32,1225.33,2440.52,1212.78Z" transform="translate(-1393 -692)"/><path class="cls-33" d="M2454.07,925.71s-20.84,55-16,56,53.27-4.17,48.32-19.5c-8.56-26.58,2.74-60.47,2.74-60.47S2462.18,912.19,2454.07,925.71Z" transform="translate(-1393 -692)"/><path class="cls-34" d="M2485.14,903.24c-3.86,1.45-27.4,6.53-33.32,22.23,0,0-18.56,55.21-13.7,56.22,2.67.54,16.86-2.47,28.19-7.57a13.48,13.48,0,0,0,7.44-8.77c1-3.89-.52-7.6-2.07-11.33C2460,925.92,2483.74,910.83,2485.14,903.24Z" transform="translate(-1393 -692)"/><path class="cls-34" d="M2618.38,919.39s18.8,51.42,13.57,52.58-61.41-4.59-49.9-18.14c18.38-21.62,9.27-54.18,9.27-54.18S2608.08,904.21,2618.38,919.39Z" transform="translate(-1393 -692)"/><path class="cls-33" d="M2604.07,946.45c-4.77-16.61-7.56-32.31-8.41-45.22a36.41,36.41,0,0,0-4.37-1.58s9.11,32.56-9.27,54.18c-7.41,8.72,13.24,14.19,30.28,16.68C2609.36,963.1,2606.53,955.05,2604.07,946.45Z" transform="translate(-1393 -692)"/><path class="cls-34" d="M2632.93,969.9c1-3.73-11.94-9.32-25.88-12.91s-26-3.4-27,.34,9.57,9.66,23.51,13.24S2632,973.64,2632.93,969.9Z" transform="translate(-1393 -692)"/><path class="cls-20" d="M2565.26,879.76l-47.44,3.07L2504.45,924c11.73,20.87,53.21,26.33,71.77,1.79Z" transform="translate(-1393 -692)"/><path class="cls-21" d="M2514.29,934.31c7.23-5.17,17-8.36,27.82-8.36a48.61,48.61,0,0,1,26.46,7.44,39.79,39.79,0,0,0,7.62-7.56l-11-46-47.44,3.07L2504.42,924A31.53,31.53,0,0,0,2514.29,934.31Z" transform="translate(-1393 -692)"/><polygon class="cls-29" points="1243.02 339.98 1203.12 339.98 1208.37 360 1239.26 355.5 1243.02 339.98"/><path class="cls-30" d="M2638.24,1251s4.83,28.49,7.71,28.49,32.84-3.86,32.84-3.86l-11.12-42.49Z" transform="translate(-1393 -692)"/><path class="cls-30" d="M2442.22,1248.17s-1.58,28.94-4.71,29.34-36.17.82-36.17.82l6.56-43.71Z" transform="translate(-1393 -692)"/><path class="cls-35" d="M2556.12,1179.5c-45.77,0-86.66-10.42-113.47-26.73-2.62,26.39-5.2,54.55-2.58,60.2,5.74,12.39,169.53,20.34,184.75,2.46,4.4-5.2,6.1-24.24,6-46.11C2608.93,1175.79,2583.42,1179.5,2556.12,1179.5Z" transform="translate(-1393 -692)"/><polygon class="cls-35" points="1236.07 435.35 1184.53 439.84 1235.4 441.79 1236.07 435.35"/><polygon class="cls-35" points="1051.04 460.4 1100.28 455.39 1052.29 454 1051.04 460.4"/><polygon class="cls-35" points="1080.87 417.31 1131.1 417.31 1200.62 408.29 1080.87 417.31"/><polygon class="cls-35" points="1234.12 481.7 1186.05 481.7 1119.5 472.7 1234.12 481.7"/><path class="cls-29" d="M2410.36,948.85c-9.23,0-16.55-2.7-19-4l1.79-2.46c2.55,1.37,12.36,4.89,23.72,3.1l.61,2.86A45.58,45.58,0,0,1,2410.36,948.85Z" transform="translate(-1393 -692)"/><path class="cls-29" d="M2404.62,952.38a32,32,0,0,1-13.79,1.94l.61-2.09a30.4,30.4,0,0,0,16.77-3.74l1.12,1.79A33.9,33.9,0,0,1,2404.62,952.38Z" transform="translate(-1393 -692)"/><path class="cls-29" d="M2416,947.61a32,32,0,0,1-11.72-7.53l1.82-1.19a30.3,30.3,0,0,0,15.12,8.11l-.33,2.07A35.6,35.6,0,0,1,2416,947.61Z" transform="translate(-1393 -692)"/><path class="cls-28" d="M2714.05,1076.48c-4.5-2.59-16.74,10.93-32.83,21.89l.63,3.86S2718.57,1079,2714.05,1076.48Z" transform="translate(-1393 -692)"/><path class="cls-28" d="M2704.21,1067.79c-4.65-.79-9.72,13.55-20.26,28.85l1.94,4S2709,1068.61,2704.21,1067.79Z" transform="translate(-1393 -692)"/><path class="cls-28" d="M2348.19,1101.08c.55,4.7,15.73,5.49,33.41,11.26l3.31-3S2347.61,1096.25,2348.19,1101.08Z" transform="translate(-1393 -692)"/><path class="cls-28" d="M2358,1088.84c-1.91,4.7,9.63,8.71,20.59,18.13l4.1-2.22S2359.94,1084,2358,1088.84Z" transform="translate(-1393 -692)"/><path class="cls-25" d="M2498.65,1007.56c6.77,2.89,18.83,14,21.75,21.26s-18.83,7.26-18.83,7.26Z" transform="translate(-1393 -692)"/><path class="cls-25" d="M2574.43,1046c-10.14,3.8-27.64,12.91-31.37,16.89s29.76-4.53,29.76-4.53Z" transform="translate(-1393 -692)"/><path class="cls-20" d="M2438.33,1211.08c2-5.46,2.19-17.13-8.14-19.31C2402.56,1185.84,2433.9,1228.55,2438.33,1211.08Z" transform="translate(-1393 -692)"/><path class="cls-20" d="M2421.81,1192.43c-6.22,14.19,9,22.63,14.28,24.06,5.86,1.55,13.18-7.78,12.54-13.18S2424.18,1187,2421.81,1192.43Z" transform="translate(-1393 -692)"/><path class="cls-20" d="M2438.7,1196.32c7.62-3.46,14.88-11.6,13-14.45-2.13-3.22-7.2,5.1-14.7,6.34-8.11,1.34-13.15,2.68-12.91,6.26S2431,1199.82,2438.7,1196.32Z" transform="translate(-1393 -692)"/><path class="cls-20" d="M2451.39,1205.65c6.84,1.73,10.79.88,11-1.25s-3.74-2.85-10.57-4.62-15.13-5.92-15.34-3.82S2444.56,1203.85,2451.39,1205.65Z" transform="translate(-1393 -692)"/><path class="cls-20" d="M2448.66,1214.58c6.53,3.34,13.45,2.94,14,1s-6-3.43-12.54-6.81-10.87-5.1-11.45-3.12S2442.16,1211.2,2448.66,1214.58Z" transform="translate(-1393 -692)"/><path class="cls-20" d="M2440.88,1219.25c6.63,3.07,10.91,3.07,11.46,1s-4.2-3.07-10.82-6.14-11.27-5.07-11.81-3.07S2434.23,1216.22,2440.88,1219.25Z" transform="translate(-1393 -692)"/><path class="cls-20" d="M2628.79,1207.65c-3.12-5.22-5.64-17.16,4-21.44C2658.74,1174.73,2636.72,1224.72,2628.79,1207.65Z" transform="translate(-1393 -692)"/><path class="cls-20" d="M2641.22,1185.27c9,13.36-4.13,25-9.08,27.45-5.44,2.74-14.52-5.4-15-11.08S2637.75,1180.19,2641.22,1185.27Z" transform="translate(-1393 -692)"/><path class="cls-20" d="M2625.42,1192.56c-8.2-2.07-17-9-15.73-12.3,1.4-3.71,8.11,3.82,15.73,3.64,8.23-.21,13.46.18,13.94,3.92S2633.62,1194.62,2625.42,1192.56Z" transform="translate(-1393 -692)"/><path class="cls-20" d="M2614.88,1204.58c-6.34,3.13-10.38,3-11,.88s3.07-3.64,9.41-6.8,13.61-9.05,14.25-6.89S2621.2,1201.43,2614.88,1204.58Z" transform="translate(-1393 -692)"/><path class="cls-20" d="M2619.38,1213.24c-5.71,4.71-12.6,5.65-13.58,3.73s5.23-4.7,10.94-9.44,9.63-7.38,10.6-5.44S2625.09,1208.5,2619.38,1213.24Z" transform="translate(-1393 -692)"/><path class="cls-20" d="M2628,1216.52c-5.86,4.43-10.08,5.25-11,3.31s3.46-4,9.32-8.38,10-7.41,11-5.44S2633.87,1212.12,2628,1216.52Z" transform="translate(-1393 -692)"/><path class="cls-36" d="M2663.78,928.23a19.91,19.91,0,0,0-2.76-1.4c0-.27.06-.42.06-.42-17.46-8.35-28.88-4.44-38.66-5.35a.27.27,0,0,1-.15,0c-.46,0-.89-.09-1.31-.15a.92.92,0,0,0-.3,0c-.4-.06-.76-.12-1.16-.21l-.39-.09-.34-.09c-.24-.64-.36-1-.36-1-8.66-12.75-21.84-18-25.85-19.34,0,0-.06,0-.12,0l-.76-.25h0a84.29,84.29,0,0,0-23.51-7.77l-2.91-12.21-47.44,3.07-3.22,9.93a93.29,93.29,0,0,0-25.54,9.32,1.93,1.93,0,0,1,.12-.36s-1.61.63-4.1,1.73c0-.06.06-.15.06-.21-3.86,1.45-27.4,6.53-33.32,22.23,0,0-1.37,4.07-3.25,10a62.28,62.28,0,0,1-27.09,10.14c22.35,18.53,65.08,31.07,114.2,31.07C2598.91,976.64,2651.66,955.84,2663.78,928.23Z" transform="translate(-1393 -692)"/><path class="cls-37" d="M2517.18,747.94c10.81-17.76,27.45-36.35,54.12-53.6l4.62,50.78S2528.2,741.29,2517.18,747.94Z" transform="translate(-1393 -692)"/><path class="cls-37" d="M2626.33,749c-4.79,3.25-14.57,5.34-25.11,6.68,17.76-16.95,25.15-28.52,36.53-48.81-6.71,5.8-23.41,11.94-39.51,16.86,5-13.61,11-26.73,17-31.71-25.88,7.74-39.58,13-62.26,30.52l-40-23.32a176,176,0,0,0-.85,37.6c-10.24-3.19-20.2-7.59-23.21-13.09,1.07,15.24,2.16,25.91,5.26,36.66-12.39,2.37-26.64,3.82-32.74-.25,6.07,10.12,10.9,17.74,16.4,24.42-4.29,1.22-8.14,1.7-11,.91a245.26,245.26,0,0,0,20.08,15.61c-8.2,6.6-16.92,12.15-23,12.06,12.08,5.77,21.11,9.78,30.67,12.39-4.92,13.43-5.56,22.84-5.68,36.6,6.23-11.27,97.44-26.18,116.87-21.38-4.64-4.53-8.62-19.92-11.33-33.41,9.51-5.68,15.86-11.75,24.15-20.44-4.59,1.55-13.85.46-23.63-1.52C2608.72,774.19,2615.77,764.77,2626.33,749Z" transform="translate(-1393 -692)"/><path class="cls-38" d="M2598.82,786.06c-16.86,7.81-37.21,12.36-59.11,12.36-23.23,0-44.7-5.13-62.11-13.82-4.19,1.16-7.95,1.61-10.75.88a247.83,247.83,0,0,0,20.08,15.62c-8.2,6.59-16.92,12.14-23,12,12.09,5.77,21.11,9.78,30.67,12.39-4.92,13.43-5.56,22.84-5.68,36.6,6.23-11.27,97.44-26.18,116.87-21.38-4.64-4.53-8.62-19.92-11.32-33.41,9.5-5.68,15.85-11.75,24.14-20.44C2614.67,788.22,2607.14,787.55,2598.82,786.06Z" transform="translate(-1393 -692)"/><path class="cls-21" d="M2496.4,807.59c-3.64,6.57-1.36,22.94,7.17,24.42s7.72-8.32,8-11.48C2512.81,807,2501.57,798.27,2496.4,807.59Z" transform="translate(-1393 -692)"/><path class="cls-39" d="M2498.8,810.42c-2.49,4.13-1.39,15.15,4.07,16.64s5.14-5.07,5.41-7.17C2509.37,810.94,2502.33,804.53,2498.8,810.42Z" transform="translate(-1393 -692)"/><path class="cls-21" d="M2502.3,816.28c-1.46,2.55.27,9,4.37,9.63s3.28-3.25,3.31-4.47C2510,816.07,2504.36,812.64,2502.3,816.28Z" transform="translate(-1393 -692)"/><path class="cls-21" d="M2597.51,809.72c2.61,8.2-2.82,23.87-12.12,21.69s-6.59-11.79-6.28-15.1C2580.32,802,2593.81,798,2597.51,809.72Z" transform="translate(-1393 -692)"/><path class="cls-39" d="M2594,811.85c2,6.28-2.16,18.22-9.26,16.58s-5.05-9-4.83-11.54C2580.87,805.92,2591.19,802.92,2594,811.85Z" transform="translate(-1393 -692)"/><path class="cls-21" d="M2590.5,814.58c1.27,4-1.4,11.72-6,10.63s-3.25-5.77-3.09-7.41C2582.05,810.78,2588.67,808.84,2590.5,814.58Z" transform="translate(-1393 -692)"/><path class="cls-20" d="M2488.42,894.12c9.81,13,41.3,22.81,54,22.08s56.67-16.61,58.46-23.84-20.95-91.78-14.15-93.21c11.72-2.49-8.81-81.67-41.85-80.21s-48.63,78.78-40.12,81.67C2515,804.07,2488.42,894.12,2488.42,894.12Z" transform="translate(-1393 -692)"/><path class="cls-21" d="M2586.24,812.94c.79,31.37-24,39.09-39.3,39.09-14.64,0-38.14-2.43-40.21-37.54-2.52,26.12-18.31,79.63-18.31,79.63,9.81,13,41.3,22.81,54,22.08s56.67-16.61,58.46-23.84C2602.19,886.93,2589.62,837.54,2586.24,812.94Z" transform="translate(-1393 -692)"/><path class="cls-21" d="M2508.61,801.16s10.27,37.35,28.61,6.1S2508.61,801.16,2508.61,801.16Z" transform="translate(-1393 -692)"/><path class="cls-21" d="M2584,798.06s-6.35,38.24-29.25,9.29S2584,798.06,2584,798.06Z" transform="translate(-1393 -692)"/><path class="cls-40" d="M2588.7,827.52c-9.5,15.4-28,16.43-42.52,16.43-14.33,0-33.86.24-41.76-14.09-5.16,27.45-16,64.26-16,64.26,9.81,13,39.12,24.76,51.78,25.52,23.66,1.45,58.86-20,60.65-27.28C2602,887.87,2593.53,853.27,2588.7,827.52Z" transform="translate(-1393 -692)"/><path class="cls-41" d="M2545.33,860.75c7.47,0,13.52-7,13.52-15.62a15.24,15.24,0,0,0-.15-1.67c-4.32.43-8.57.52-12.55.52-4.4,0-9.32,0-14.24-.36,0,.51-.12,1-.12,1.51C2531.82,853.73,2537.86,860.75,2545.33,860.75Z" transform="translate(-1393 -692)"/><path class="cls-41" d="M2592.32,845.59c-.34,33.5-21.93,60.53-48.51,60.53-22.14,0-40.75-18.71-46.59-44.31-4.46,17.67-8.77,32.31-8.77,32.31,9.81,13,39.12,24.76,51.78,25.52,23.66,1.45,58.86-20,60.65-27.28C2601.73,888.87,2596.81,867.18,2592.32,845.59Z" transform="translate(-1393 -692)"/><path class="cls-37" d="M2506.67,793.41s-1.12,9.29,5.07,9.29,25.09-5,25.09-5c3.92-3.7,4.4-12.39.73-13S2511.17,790.31,2506.67,793.41Z" transform="translate(-1393 -692)"/><path class="cls-37" d="M2583.42,789.13s.88,9.57-5.38,10.08-25.11-3.07-25.11-3.07c-3.86-3.52-4.1-12.51-.37-13.45S2579,786.3,2583.42,789.13Z" transform="translate(-1393 -692)"/><path class="cls-20" d="M2546,818.65c-7.9,1.55-15.46,31.07-10.39,31.07s4.07,5.07,9.84,5.07,7.54-5.77,11.21-6.5S2553.32,817.22,2546,818.65Z" transform="translate(-1393 -692)"/><path class="cls-42" d="M2528.23,868.85l-1.21-3.67c1.37-.46,33.44-10.81,46.62-1.7l-.61,1.09C2561.4,856.55,2528.54,868.73,2528.23,868.85Z" transform="translate(-1393 -692)"/><path class="cls-42" d="M2575.43,863.51a1.49,1.49,0,1,0-1.46,1.82A1.66,1.66,0,0,0,2575.43,863.51Z" transform="translate(-1393 -692)"/><path class="cls-41" d="M2556.69,871.65c-.09-1.28-3.82-4-8.68-3.71s-9,3.53-8.9,4.8,4.52-.39,9.38-.7S2556.78,872.92,2556.69,871.65Z" transform="translate(-1393 -692)"/><path class="cls-40" d="M2546.94,906.06c0-4-3.61-7.32-8.08-7.32s-3,3.28-3,7.32-1.46,7.32,3,7.32S2546.94,910.1,2546.94,906.06Z" transform="translate(-1393 -692)"/><path class="cls-40" d="M2555.39,904.81c-.34-4,.57-6.95-3.86-6.37s-7.78,4.31-7.44,8.35,4.19,6.8,8.65,6.23S2555.72,908.85,2555.39,904.81Z" transform="translate(-1393 -692)"/><path class="cls-42" d="M2517.33,807l12.88-1.61S2525.38,823.39,2517.33,807Z" transform="translate(-1393 -692)"/><path class="cls-42" d="M2561.64,803.8l12.73,2.52S2564.1,821.9,2561.64,803.8Z" transform="translate(-1393 -692)"/><path class="cls-29" d="M2349.56,1105.45c15-9.14,74,37.36,69.55,46.38S2301.9,1134.42,2349.56,1105.45Z" transform="translate(-1393 -692)"/></svg>