<svg id="Layer_1" data-name="Layer 1" xmlns="http://www.w3.org/2000/svg" xmlns:xlink="http://www.w3.org/1999/xlink" viewBox="0 0 871.45 1188.91"><defs><style>.cls-1{fill:none;}.cls-2{fill:#a53d32;}.cls-3{fill:#d95c49;}.cls-4{fill:#fad0b8;}.cls-5{fill:#f59e19;}.cls-6{fill:#456789;}.cls-7{fill:#ce8561;}.cls-8{fill:#1c415e;}.cls-9{fill:#ba7317;}.cls-10{fill:#c4aa9f;}.cls-11{fill:#9b5d42;}.cls-12{fill:#9b8780;}.cls-13{clip-path:url(#clip-path);}.cls-14{fill:#6a8db7;}</style><clipPath id="clip-path" transform="translate(-1957.55 -554)"><path class="cls-1" d="M2369.39,1254.58c-17.61,22.53-18,56.87-43.2,72.05-3.34,2-7.23,3.64-11.27,3.37-6.71-.43-12.09-5.92-14.34-11.83s-2.14-12.28-2.57-18.52a4.88,4.88,0,0,0-1.13-3.32c-2.14-2-5.67.16-7.46,2.38-4.34,5.38-7.74,11.46-12.71,16.36s-12.16,8.56-19.41,7.35-12.71-6.93-15.33-13.24-2.81-13.17-3-19.86q-.73-29.35-1.45-58.67Z"/></clipPath></defs><title>sulis-harto</title><path class="cls-2" d="M2511.08,1592.15c56.77-27.91,125.6-30.06,184-5.8a248.65,248.65,0,0,1-4.53-81.14c1.4-13,3.58-27.22-3.36-38.28-4.25-6.75-11.26-11.17-18.21-15.07a279.59,279.59,0,0,0-177.16-32.33c-4.4.66-9.62,2.18-10.71,6.48Z" transform="translate(-1957.55 -554)"/><path class="cls-3" d="M2509.36,790.14c14.16,27,15.36,70.58,17.57,102.08,16.43,232.36,34.23,459-11.34,687.41-1.46,7.3-3.47,15.31-9.68,19.44-5.74,3.85-13.29,3.1-20.12,2.21-25.53-3.33-54.85-9.1-67.05-31.75-5.2-9.65-6.32-20.91-7.32-31.85-10.6-115.51-21.19-231.37-18.35-347.35,1.09-44.08,4.1-88.07,7.18-132,3.5-50.19,7.18-100.95,22.8-148.79s10.82-82.61,54.38-107.77Z" transform="translate(-1957.55 -554)"/><path class="cls-2" d="M2495.61,814.38c-25,88.12-31.53,180.24-38,271.58-10.63,150.43-21.25,301.18-16.49,451.92a585.17,585.17,0,0,1,265.41-9.1,1512.23,1512.23,0,0,0,3.67-400.87c-3.73-29.84-8.38-59.79-18.63-88-10.8-29.78-27.71-57.4-35.09-88.21Z" transform="translate(-1957.55 -554)"/><path class="cls-4" d="M2674.69,1518.24c1,26.13,2,147.85,3,174,.37,9.27.29,19.73-6.32,26.27-4.59,4.57-11.31,6.09-17.63,7.38-33.34,6.95-67.19,13.9-101.13,11.46,4.77-11.14,14.7-19.35,25.41-25s22.43-9.13,33.68-13.61c2.42-1,5-2.13,6.21-4.39,1-1.9.92-4.2.77-6.38-1.89-28.25-31.87-159.91-33.77-188.16-.17-2.44,27.8,2.67,29.35.77,1.32-1.63,3.53-2.21,5.6-2.64a101.85,101.85,0,0,1,43.24.43Z" transform="translate(-1957.55 -554)"/><path class="cls-4" d="M2575.06,1514.86c1,26.13,2,147.84,3,174,.37,9.28.29,19.73-6.32,26.28-4.59,4.56-11.31,6.08-17.63,7.37-33.33,7-67.19,13.9-101.13,11.46,4.77-11.14,14.71-19.35,25.42-25s22.42-9.13,33.68-13.61c2.41-.95,5-2.12,6.2-4.39,1-1.9.92-4.19.77-6.38-1.89-28.25-31.87-159.9-33.76-188.16-.18-2.44,27.79,2.67,29.34.78,1.32-1.64,3.53-2.21,5.6-2.65a101.69,101.69,0,0,1,43.24.44Z" transform="translate(-1957.55 -554)"/><path class="cls-5" d="M2712.77,1042.25a1325.43,1325.43,0,0,1,49.59,464.8,26.68,26.68,0,0,1-31.64,24.23c-26.79-5.17-45.75-10.19-118.94,14-27.53,9.1-57.65,13.7-86,7.47-15.19-3.36-29.54-10.71-45.08-11.46-10.76-.52-21.65,2.18-32.24.29-16.6-3-29.09-16.28-40.29-28.86-2.52-2.84-5.14-5.86-6-9.56-1-4.19.52-8.53,1.95-12.58,51.55-145.49,30.64-164.76,99.73-451a679.34,679.34,0,0,0,188.5-1.58Z" transform="translate(-1957.55 -554)"/><path class="cls-6" d="M2571.81,805.22c-16.74,23.17-17.54-18.81-48.27-18.81-105.61,110.87-92.37,419.31-61.44,430.11,28.54,10,78.73,90.65,223.45,49.3.86-28.83-3.07-57.57-7-86.14Q2664.79,1078.81,2651,977.9c-4.4-32.13-8.85-64.49-19.64-95.07s-28.54-59.58-54.9-78.42Z" transform="translate(-1957.55 -554)"/><path class="cls-4" d="M2381.3,938.16c-18.84-5.45-40-14.09-40.46-15-.75-1.5,1.86-30.13,4.42-48.19a3.82,3.82,0,0,0-7.12-2.41c-5.66,10-9.25,25.38-10.68,33.11-10.91-17.72-36.76-71.9-47.24-71.41-4,.17-1.49,6.43-.23,9.5,4.94,12.06,10.71,23.69,15.65,35.72-8.35-12.26-18.83-34.91-30.52-42.84a4.14,4.14,0,0,0-6.37,4.39c2.26,10.31,11.16,28.14,21,41-7.86-9.22-20.56-22.83-28-25.81-3.62-1.47-7,2.78-4.83,6,6,9.14,18.81,22.72,26.71,30.3-8-3.16-24-23.86-31.47-19.56-7.78,4.45,43.76,54.5,48.18,60.79,5.89,8.36,16.4,11.75,25.9,15.51,17.37,6.86,35.69,27.13,51.57,37.07Z" transform="translate(-1957.55 -554)"/><path class="cls-7" d="M2327.46,907.58c-4.8,1.67-7.64,6.69-8,11.58-.43,6.05,2.39,11.74,5.57,16.68a1.17,1.17,0,0,1-1.83,1.41c-.4-.46-.84-.92-1.24-1.35-1-1.12.63-2.76,1.64-1.64.4.46.83.92,1.23,1.35-.6.46-1.2.95-1.83,1.41-3.59-5.6-6.69-12.24-5.75-19.07.75-5.54,4.14-10.74,9.56-12.63,1.44-.46,2,1.78.64,2.26Z" transform="translate(-1957.55 -554)"/><path class="cls-7" d="M2274.45,901.64A43.34,43.34,0,0,1,2311.92,932a1.16,1.16,0,0,1-2.24.63,41,41,0,0,0-35.23-28.6c-1.49-.14-1.52-2.46,0-2.35Z" transform="translate(-1957.55 -554)"/><path class="cls-7" d="M2270.63,898.94q14.61-10.47,28.6-21.76c1.15-.95,2.81.71,1.64,1.63q-14.22,11.46-29.06,22.14c-1.21.86-2.38-1.15-1.18-2Z" transform="translate(-1957.55 -554)"/><path class="cls-7" d="M2344.8,928.55a30.5,30.5,0,0,1-8.27,19.2c-1,1.1-2.67-.54-1.64-1.63a28,28,0,0,0,7.61-17.57c.06-1.5,2.39-1.53,2.3,0Z" transform="translate(-1957.55 -554)"/><path class="cls-6" d="M2492.82,847.86c-11.69-1.41-29,79.51-29.72,108.42l-95.24-23.77q-5,23-10,46c-.43,1.92-.84,4-.15,5.83.81,2.23,3,3.61,5.06,4.82A485.9,485.9,0,0,0,2484,1040c2.93.78,6.32,1.44,8.73-.37,2.1-1.58,2.65-4.48,3-7.07A1324.49,1324.49,0,0,0,2508,892.11Z" transform="translate(-1957.55 -554)"/><path class="cls-4" d="M2421.27,1005.13c-2.39-.92-5.55-1.47-6.9,1.14a4.76,4.76,0,0,0,1.24,5.57c35.6,32,66.87,49.74,113.91,58.49,5.48-26.76,4.05-14.44,9.53-41.2l-29.17-5.86c-4.77-1.15-9.85-2.44-13.15-6.06-2.47-2.7-3.65-6.31-4.6-9.84-3.62-13.21,2.38-63.41-1.81-75.35a5.37,5.37,0,0,0-4.36-3.65c-4.08-.4-10.05,30.81-10.14,42.64-1.46-12.26-5.4-50.25-9.36-53.15a2.44,2.44,0,0,0-3.9,1.67c-1.44,13.9-4.22,39.45-3.42,53.38,1-16.34-8.36-60.73-11.57-60.76-4.08,0-4.48,8.13-4.57,12.75-.23,13.41.61,38.25.38,51.66-.44-12.18-9.94-32.42-18.58-47.53-1.15-2-4.22-1-4.51,1.32-3.42,28.86,18.52,58,25.15,84.85C2445.44,1015.26,2428.62,1007.91,2421.27,1005.13Z" transform="translate(-1957.55 -554)"/><path class="cls-7" d="M2444.67,1014.23c3-.69,5.63.72,8,2.38a49.84,49.84,0,0,1,6.4,5.4,48.49,48.49,0,0,1,9.62,13.72c.63,1.35-1.38,2.53-2,1.18a47.13,47.13,0,0,0-8.5-12.46,45.71,45.71,0,0,0-5.51-5c-2-1.55-4.65-3.64-7.38-3-1.46.34-2.07-1.93-.6-2.24Z" transform="translate(-1957.55 -554)"/><path class="cls-7" d="M2476.31,974.09a84.62,84.62,0,0,0-.06,45,1.16,1.16,0,0,1-2.24.63,87.3,87.3,0,0,1,.06-46.26,1.16,1.16,0,0,1,2.24.61Z" transform="translate(-1957.55 -554)"/><path class="cls-7" d="M2440.5,979.28q19.3-4.21,38.88-6.72c1.5-.2,1.47,2.16,0,2.33-12.83,1.64-25.61,3.85-38.24,6.63-1.47.32-2.1-1.92-.64-2.24Z" transform="translate(-1957.55 -554)"/><path class="cls-7" d="M2480,1048.37a21.62,21.62,0,0,0,14.78-10.77c.72-1.32,2.73-.14,2,1.18a23.9,23.9,0,0,1-16.16,11.83c-1.47.29-2.1-1.95-.63-2.24Z" transform="translate(-1957.55 -554)"/><path class="cls-8" d="M2529.09,1075.16a693.17,693.17,0,0,0,87.37,20c3,.49,1.7,5-1.23,4.48a694.52,694.52,0,0,1-87.38-20c-2.87-.83-1.63-5.34,1.24-4.48Z" transform="translate(-1957.55 -554)"/><path class="cls-8" d="M2547.81,1023.93a344,344,0,0,0,55.76-1.78c3-.34,3,4.34,0,4.65a347.38,347.38,0,0,1-55.76,1.78c-3-.14-3-4.82,0-4.65Z" transform="translate(-1957.55 -554)"/><path class="cls-8" d="M2390.51,948.33q-6,23.77-12,47.55c-.74,2.9-5.22,1.66-4.48-1.24q6-23.77,12-47.55c.72-2.9,5.23-1.66,4.48,1.24Z" transform="translate(-1957.55 -554)"/><path class="cls-8" d="M2561.25,1040.53q-6,14.87-11,30.12c-.92,2.84-5.43,1.64-4.48-1.23q5-15.26,11-30.13a2.41,2.41,0,0,1,2.87-1.63,2.36,2.36,0,0,1,1.61,2.87Z" transform="translate(-1957.55 -554)"/><path class="cls-8" d="M2453.05,1733.23c.4-4.89,4.31-8.71,8.07-11.83a178.41,178.41,0,0,1,33.51-22.17l2.07-.55a78.3,78.3,0,0,1,9.9,32.59,170.16,170.16,0,0,0,43.56-12,2.64,2.64,0,0,1,1.09-.23c3.45-12.52,13.79-23.11,26.39-26.39l1.55,2.07c2.82,6.6,5.14,14.82.69,20.42-2,2.52-5.05,4-8.07,5.11a67.78,67.78,0,0,1-21.45,4.39,178.11,178.11,0,0,1-57.14,13.09,119.92,119.92,0,0,1-27.42,1.55,32.36,32.36,0,0,1-10.22-1.86,4.68,4.68,0,0,1-1.75-1.06A4.1,4.1,0,0,1,2453.05,1733.23Z" transform="translate(-1957.55 -554)"/><path class="cls-8" d="M2552.06,1736.64c.4-4.88,4.3-8.7,8.07-11.83a178,178,0,0,1,33.51-22.16l2.06-.55a78.12,78.12,0,0,1,9.91,32.59,170.68,170.68,0,0,0,43.56-12,2.46,2.46,0,0,1,1.09-.23c3.45-12.52,13.78-23.12,26.39-26.39l1.55,2.07c2.81,6.6,5.14,14.81.69,20.41-2,2.53-5.06,4-8.07,5.11a67.63,67.63,0,0,1-21.45,4.4,178.37,178.37,0,0,1-57.14,13.09,120,120,0,0,1-27.42,1.55,33.28,33.28,0,0,1-10.23-1.86,4.57,4.57,0,0,1-1.75-1.07A4,4,0,0,1,2552.06,1736.64Z" transform="translate(-1957.55 -554)"/><path class="cls-9" d="M2610.29,1300.88a1693.57,1693.57,0,0,1,8.7,179.43q-.13,25.38-1,50.68c-.06,1.5-2.39,1.5-2.33,0a1698.07,1698.07,0,0,0-3.27-179.63q-1.82-25.29-4.4-50.51c-.17-1.46,2.16-1.44,2.3,0Z" transform="translate(-1957.55 -554)"/><path class="cls-9" d="M2590.53,1324.42q-2.7,96.78-5.42,193.57c0,1.49-2.39,1.49-2.33,0l5.43-193.57a1.16,1.16,0,0,1,2.32,0Z" transform="translate(-1957.55 -554)"/><path class="cls-9" d="M2566.44,1316.53q-3.43,82.44-6.92,164.87c-.05,1.5-2.38,1.5-2.32,0q3.43-82.43,6.92-164.87c.05-1.5,2.38-1.5,2.32,0Z" transform="translate(-1957.55 -554)"/><path class="cls-9" d="M2525.93,1300.91q-4.18,95.7-14.45,191c-.17,1.47-2.49,1.5-2.32,0q10.24-95.22,14.44-191c.06-1.5,2.39-1.5,2.33,0Z" transform="translate(-1957.55 -554)"/><path class="cls-9" d="M2489.63,1303.52a1455.84,1455.84,0,0,1-13.41,185.89c-.2,1.47-2.44.87-2.24-.63a1453.31,1453.31,0,0,0,13.33-185.29,1.16,1.16,0,0,1,2.32,0Z" transform="translate(-1957.55 -554)"/><path class="cls-9" d="M2468.07,1275q-17.4,80.76-27.59,162.81-2.85,23.09-5.14,46.23c-.15,1.46-2.47,1.49-2.33,0q8.1-82.14,23.4-163.33,4.4-23.21,9.39-46.34c.35-1.47,2.59-.83,2.27.63Z" transform="translate(-1957.55 -554)"/><path class="cls-8" d="M2606.13,1162.82a170,170,0,0,1,4.53,36.73c0,3-4.62,3-4.65,0a164.34,164.34,0,0,0-4.36-35.49c-.72-2.93,3.79-4.17,4.48-1.24Z" transform="translate(-1957.55 -554)"/><path class="cls-8" d="M2601.3,1183.78a53.16,53.16,0,0,1,1,16.92A2.38,2.38,0,0,1,2600,1203a2.34,2.34,0,0,1-2.33-2.32,48.57,48.57,0,0,0-.89-15.68,2.34,2.34,0,0,1,4.51-1.24Z" transform="translate(-1957.55 -554)"/><path class="cls-8" d="M2590.25,1196.16a51.67,51.67,0,0,1,6.06,19.55,2.33,2.33,0,0,1-4.66,0,46,46,0,0,0-5.42-17.2c-1.44-2.64,2.58-5,4-2.35Z" transform="translate(-1957.55 -554)"/><path class="cls-8" d="M2579.8,1212.41a25.48,25.48,0,0,1,3.41,16.22,2.37,2.37,0,0,1-2.32,2.33c-1.12-.06-2.5-1-2.33-2.33a21,21,0,0,0-2.78-13.86,2.36,2.36,0,0,1,.83-3.19,2.42,2.42,0,0,1,3.19.83Z" transform="translate(-1957.55 -554)"/><path class="cls-8" d="M2545,1172.33a65,65,0,0,1,3.24,24.92,2.38,2.38,0,0,1-2.33,2.33,2.34,2.34,0,0,1-2.32-2.33,61.87,61.87,0,0,0-3.07-23.66c-1-2.87,3.53-4.11,4.48-1.26Z" transform="translate(-1957.55 -554)"/><path class="cls-8" d="M2523,1175.8a73.72,73.72,0,0,1,4.62,22.54c.15,3-4.51,3-4.65,0a69.45,69.45,0,0,0-4.45-21.3,2.32,2.32,0,1,1,4.48-1.24Z" transform="translate(-1957.55 -554)"/><path class="cls-8" d="M2514.21,1193.06q1.82,9.86,3.62,19.72a2.42,2.42,0,0,1-1.64,2.88,2.36,2.36,0,0,1-2.87-1.64q-1.8-9.87-3.62-19.73a2.42,2.42,0,0,1,1.64-2.87,2.38,2.38,0,0,1,2.87,1.64Z" transform="translate(-1957.55 -554)"/><path class="cls-8" d="M2499,1149.56V1167c0,3-4.65,3-4.65,0v-17.43c0-3,4.65-3,4.65,0Z" transform="translate(-1957.55 -554)"/><path class="cls-8" d="M2560,1105.74a55,55,0,0,1,2.82,19.41,2.39,2.39,0,0,1-2.33,2.33,2.34,2.34,0,0,1-2.32-2.33,50.62,50.62,0,0,0-2.65-18.18,2.32,2.32,0,1,1,4.48-1.23Z" transform="translate(-1957.55 -554)"/><path class="cls-8" d="M2547.78,1114.07c.77,2.7,1.55,5.42,2.3,8.12a2.35,2.35,0,0,1-1.64,2.87,2.38,2.38,0,0,1-2.87-1.63c-.78-2.7-1.55-5.43-2.3-8.13a2.35,2.35,0,0,1,1.64-2.87,2.38,2.38,0,0,1,2.87,1.64Z" transform="translate(-1957.55 -554)"/><path class="cls-8" d="M2541.69,1112.92a19.54,19.54,0,0,0-.72,2.24c-.08.37-.17.77-.23,1.15,0,.14-.14.66,0,0a4.4,4.4,0,0,0-.06.58,19,19,0,0,0-.06,2.27l.09,1.17c0,.58-.09-.51,0,.06,0,.23.08.43.11.66a2.34,2.34,0,0,1-4.51,1.24,19.07,19.07,0,0,1,.87-10.6,2.56,2.56,0,0,1,1.06-1.38,2.45,2.45,0,0,1,1.78-.23,2.25,2.25,0,0,1,1.69,2.82Z" transform="translate(-1957.55 -554)"/><path class="cls-6" d="M2475.13,1118l-25.55-8.16c-2.85-.92-1.64-5.39,1.23-4.48l25.56,8.16c2.87.89,1.63,5.4-1.24,4.48Z" transform="translate(-1957.55 -554)"/><path class="cls-6" d="M2473.41,1130.61a36.64,36.64,0,0,0-16.28-4.37,2.33,2.33,0,1,1,0-4.65,41.35,41.35,0,0,1,18.63,5,2.33,2.33,0,0,1,.84,3.18,2.36,2.36,0,0,1-3.19.84Z" transform="translate(-1957.55 -554)"/><path class="cls-6" d="M2474,1137.55c-6.23-1.4-12.46-2.81-18.69-4.19a2.37,2.37,0,0,1-1.64-2.87,2.41,2.41,0,0,1,2.87-1.64q9.35,2.12,18.7,4.2a2.36,2.36,0,0,1,1.63,2.87,2.39,2.39,0,0,1-2.87,1.63Z" transform="translate(-1957.55 -554)"/><path class="cls-6" d="M2487.39,865.6c-4.65-2.29-9.3-4.62-13.95-6.92a2.33,2.33,0,0,1-.83-3.18,2.39,2.39,0,0,1,3.18-.84c4.65,2.3,9.31,4.63,14,6.92a2.34,2.34,0,0,1,.83,3.19,2.39,2.39,0,0,1-3.19.83Z" transform="translate(-1957.55 -554)"/><path class="cls-6" d="M2483.89,871.46a27.38,27.38,0,0,0-6.69-3.16,27.69,27.69,0,0,0-7.26-1.32,2.33,2.33,0,1,1,0-4.65,33.31,33.31,0,0,1,16.31,5.11,2.38,2.38,0,0,1,.83,3.19,2.35,2.35,0,0,1-3.19.83Z" transform="translate(-1957.55 -554)"/><path class="cls-3" d="M2441.37,864.37a125.11,125.11,0,0,0-14.25-11.74,2.33,2.33,0,0,1,2.36-4,128.51,128.51,0,0,1,15.19,12.46,2.33,2.33,0,0,1-3.3,3.3Z" transform="translate(-1957.55 -554)"/><path class="cls-3" d="M2439.1,877.61l-15.19-5.6a2.41,2.41,0,0,1-1.64-2.87,2.35,2.35,0,0,1,2.87-1.64l15.19,5.6A2.41,2.41,0,0,1,2442,876a2.38,2.38,0,0,1-2.87,1.64Z" transform="translate(-1957.55 -554)"/><path class="cls-3" d="M2406.13,1299.33a62.46,62.46,0,0,0-19.58,15.53,2.34,2.34,0,0,1-3.3,0,2.39,2.39,0,0,1,0-3.3,65.3,65.3,0,0,1,20.53-16.28,2.34,2.34,0,1,1,2.35,4Z" transform="translate(-1957.55 -554)"/><path class="cls-3" d="M2399.07,1313.11l-16.45,11.37a2.35,2.35,0,0,1-3.19-.83,2.38,2.38,0,0,1,.83-3.19l16.46-11.37a2.34,2.34,0,0,1,3.18.83,2.37,2.37,0,0,1-.83,3.19Z" transform="translate(-1957.55 -554)"/><path class="cls-2" d="M2435.91,1121.07a56.42,56.42,0,0,0-.75,16.86,2.31,2.31,0,0,1-2.32,2.32,2.36,2.36,0,0,1-2.33-2.32,59.71,59.71,0,0,1,.92-18.09,2.32,2.32,0,1,1,4.48,1.23Z" transform="translate(-1957.55 -554)"/><path class="cls-2" d="M2421.21,1114a32.29,32.29,0,0,1,2.21,15.79,2.4,2.4,0,0,1-2.33,2.33c-1.15-.06-2.47-1-2.32-2.33a28.81,28.81,0,0,0-2-14.56,2.36,2.36,0,0,1,1.64-2.87,2.41,2.41,0,0,1,2.84,1.64Z" transform="translate(-1957.55 -554)"/><path class="cls-2" d="M2413.28,1124.46c.72,3.5,1.47,7,2.19,10.48a2.34,2.34,0,0,1-4.51,1.24c-.75-3.51-1.47-7-2.18-10.48a2.33,2.33,0,1,1,4.5-1.24Z" transform="translate(-1957.55 -554)"/><path class="cls-2" d="M2427,1057.1a22.28,22.28,0,0,1-1.64,16.88,2.31,2.31,0,0,1-3.18.83,2.36,2.36,0,0,1-.84-3.18,14.56,14.56,0,0,0,1.3-3.22c.17-.57.28-1.15.4-1.72a8.55,8.55,0,0,0,.2-1.41,22.27,22.27,0,0,0,0-3.56c-.06-.52-.09-.72-.2-1.41s-.32-1.32-.52-2a2.32,2.32,0,1,1,4.48-1.23Z" transform="translate(-1957.55 -554)"/><path class="cls-2" d="M2439.76,1054.28a91.68,91.68,0,0,1-2.47,20.36c-.69,2.93-5.2,1.7-4.48-1.23a84.47,84.47,0,0,0,2.3-19.13c0-3,4.68-3,4.65,0Z" transform="translate(-1957.55 -554)"/><path class="cls-2" d="M2416.21,1038.55c-1.09,3.13-2.18,6.26-3.27,9.36a2.34,2.34,0,1,1-4.51-1.24c1.09-3.13,2.18-6.26,3.27-9.36a2.34,2.34,0,0,1,4.51,1.24Z" transform="translate(-1957.55 -554)"/><path class="cls-2" d="M2454.69,892.16a19.31,19.31,0,0,0-.75,2.22c-.08.37-.17.74-.26,1.14,0,.18,0,.32-.08.49-.09.49.05-.49,0,.12a18.57,18.57,0,0,0-.12,2.24c0,.4,0,.77.06,1.17,0,.15.06.35.06.49-.06-.34-.06-.37,0-.11s0,.23.06.31a2.45,2.45,0,0,1-.23,1.78,2.33,2.33,0,0,1-1.38,1.07,2.38,2.38,0,0,1-2.87-1.64,19.28,19.28,0,0,1,1.06-10.57,2.3,2.3,0,0,1,2.84-1.61c1.12.41,2.16,1.7,1.67,2.9Z" transform="translate(-1957.55 -554)"/><path class="cls-2" d="M2445.56,882.29a34.5,34.5,0,0,1-2.87,16.19,2.33,2.33,0,0,1-4-2.35,29.5,29.5,0,0,0,2.24-13.84,2.34,2.34,0,0,1,2.32-2.33,2.41,2.41,0,0,1,2.33,2.33Z" transform="translate(-1957.55 -554)"/><path class="cls-2" d="M2486.7,814.15q-11.74,33.08-22.08,66.61c-.89,2.85-5.37,1.64-4.48-1.23q10.31-33.56,22.09-66.62c1-2.81,5.51-1.6,4.47,1.24Z" transform="translate(-1957.55 -554)"/><path class="cls-2" d="M2430.54,1300.1a138.81,138.81,0,0,0-1.29,22.6c.06,3-4.6,3-4.65,0a146.12,146.12,0,0,1,1.46-23.83,2.37,2.37,0,0,1,2.87-1.64,2.43,2.43,0,0,1,1.61,2.87Z" transform="translate(-1957.55 -554)"/><path class="cls-2" d="M2418.8,1309.92v14a2.33,2.33,0,0,1-4.66,0v-14a2.33,2.33,0,0,1,4.66,0Z" transform="translate(-1957.55 -554)"/><path class="cls-2" d="M2442,1169.31a562.36,562.36,0,0,0-3.39,79c.08,3-4.57,3-4.65,0a563.86,563.86,0,0,1,3.38-79c.32-3,5-3,4.66,0Z" transform="translate(-1957.55 -554)"/><path class="cls-2" d="M2424.63,1379.64v9.3a2.33,2.33,0,1,1-4.66,0v-9.3a2.36,2.36,0,0,1,2.33-2.32,2.39,2.39,0,0,1,2.33,2.32Z" transform="translate(-1957.55 -554)"/><path class="cls-2" d="M2416.5,1389.46a28.28,28.28,0,0,1,1,12.89,2.35,2.35,0,0,1-2.87,1.64,2.42,2.42,0,0,1-1.63-2.87c0-.29,0-.29,0,0,0-.11,0-.2,0-.32a6,6,0,0,0,.06-.74c0-.43.06-.86.06-1.29a23.36,23.36,0,0,0-.09-2.9c0-.26-.05-.49-.08-.75a1.11,1.11,0,0,0,0-.23c-.09-.46-.15-.92-.26-1.38-.2-1-.46-1.86-.75-2.78a2.36,2.36,0,0,1,1.64-2.87,2.43,2.43,0,0,1,2.93,1.63Z" transform="translate(-1957.55 -554)"/><path class="cls-2" d="M2473,1563.78c-.75,3.51-1.47,7-2.18,10.48a2.35,2.35,0,0,1-2.87,1.64,2.39,2.39,0,0,1-1.64-2.87c.72-3.5,1.46-7,2.18-10.48a2.35,2.35,0,0,1,2.87-1.64,2.42,2.42,0,0,1,1.64,2.87Z" transform="translate(-1957.55 -554)"/><path class="cls-2" d="M2459.48,1566.74v4.65a2.26,2.26,0,0,1-.69,1.64,2.35,2.35,0,0,1-1.63.69,2.32,2.32,0,0,1-1.64-.69,2.37,2.37,0,0,1-.69-1.64v-4.65a2.36,2.36,0,0,1,2.33-2.32,2.36,2.36,0,0,1,2.32,2.32Z" transform="translate(-1957.55 -554)"/><path class="cls-7" d="M2546.09,1674.71c-3.65,1.86-3.79,8-.23,10a1.17,1.17,0,0,1-1.18,2c-5.06-2.84-4.94-11.34.23-14,1.32-.69,2.5,1.32,1.18,2Z" transform="translate(-1957.55 -554)"/><path class="cls-7" d="M2650.29,1680.31c-5,1.17-7.67,8.38-4.28,12.43.95,1.15-.69,2.78-1.64,1.64-4.45-5.35-1.58-14.71,5.32-16.34,1.46-.32,2.06,1.92.6,2.27Z" transform="translate(-1957.55 -554)"/><path class="cls-2" d="M2435.11,635.66Q2419,700.1,2402.83,764.5q11.07-9.39,22.17-18.81-1.52,19.95-3,39.92c5.29.28,8.9-4.94,12.41-8.9s10.31-7,13.55-2.82c2.24,2.87,1.26,7.75,4.25,9.82,2.58,1.75,6,0,8.64-1.69l34.92-23a118.34,118.34,0,0,1-19.7-73Z" transform="translate(-1957.55 -554)"/><path class="cls-2" d="M2577.3,656.08a434.4,434.4,0,0,1,33.36,66.61c2.3,5.83,4.54,12,3.56,18.21-1.2,7.69-7.29,13.93-14.3,17.37s-14.87,4.54-22.59,5.6c-14,1.9-28.6,3.7-41.75-1.32-19.33-7.35-30.93-28.31-32.71-48.93s4.54-41,11.8-60.38c5.63-15,12.46-30.56,25.3-40.18Z" transform="translate(-1957.55 -554)"/><path class="cls-4" d="M2431.37,632.79c30.73-30.72,91.28-8.9,130.88-13.32a904.3,904.3,0,0,0,13.81,92.37c11.57-7.21,28.23,6.17,25.9,19.61s-18.72,21.31-31.78,17.37l-.38,80.49c-9,.83-20.87,1.67-32.7,2.5a27.68,27.68,0,0,1-29.66-27.54c0-8.73-.29-17.69-1.27-24.32-13.44,10.6-39.16,7-50.91-5.43S2431.37,632.79,2431.37,632.79Z" transform="translate(-1957.55 -554)"/><path class="cls-2" d="M2577.5,706.24q-35.84-42.3-68.89-86.83a112.63,112.63,0,0,0,12.21,47.72,439.6,439.6,0,0,1-33.08-43.64,66.62,66.62,0,0,1-13.24,46.23q-2.07-23.36-4.1-46.72a190.84,190.84,0,0,0-30.87,82.24q-5.09-34.25-10.14-68.49c-.83-5.65-1.72-11.48-4.71-16.36-6.63-10.86-5.86-11.12,6.69-7.73a54.94,54.94,0,0,1,38.85-32.87c18.87-4,38.28,2.18,57.57,2.52s42.07-9.19,44.54-28.31a24.37,24.37,0,0,1-7.32,27.11,205.12,205.12,0,0,1,47,112.44c2-3.42,4.11-6.81,6.15-10.22a202.9,202.9,0,0,1,42.81,51.25c-6.78-2-16.68-2.38-18.26,4.51a13,13,0,0,0,.37,5.63q4.3,19.81,8.62,39.62c-16.26-2.41-27.05-20.7-43.42-22-8.33-.63-16.39,3.39-24.75,3.16s-17.52-8.82-13.12-15.94c8.44-.55,17-3.62,22.74-9.85s8-16,4.08-23.52-14.42-11.28-21.54-6.72Z" transform="translate(-1957.55 -554)"/><path class="cls-2" d="M2576.58,592.71q24.28,49,43.64,100.29c2.13,5.63-6.89,8-9,2.47q-18.91-50-42.7-98.08c-2.64-5.32,5.4-10,8-4.68Z" transform="translate(-1957.55 -554)"/><path d="M2471.43,717.41c-.46,4.68-3.88,8.18-7.64,7.81s-6.4-4.48-5.94-9.16,3.87-8.18,7.64-7.81S2471.89,712.73,2471.43,717.41Z" transform="translate(-1957.55 -554)"/><path d="M2527.88,717.41c-.46,4.68-3.9,8.18-7.64,7.81s-6.4-4.48-5.94-9.16,3.9-8.18,7.64-7.81S2528.37,712.73,2527.88,717.41Z" transform="translate(-1957.55 -554)"/><path class="cls-7" d="M2586.8,721.4a35,35,0,0,0-9.7,16,1.16,1.16,0,0,1-2.24-.63,37,37,0,0,1,10.3-17c1.1-1,2.73.6,1.64,1.63Z" transform="translate(-1957.55 -554)"/><path class="cls-7" d="M2583,730.91a2.4,2.4,0,0,0-.43-.41c-.14-.11,0,0,.06,0l-.37-.26a4.89,4.89,0,0,0-.52-.25s.23.08.09,0l-.18-.06-.28-.09a.88.88,0,0,0-.26-.06l-.17,0s-.2,0,0,0,0,0,0,0h-.78c-.28,0,.15,0-.05,0a3.36,3.36,0,0,0-.61.14,1.18,1.18,0,0,1-1.43-.81,1.2,1.2,0,0,1,.8-1.43,5.63,5.63,0,0,1,5.77,1.58,1.15,1.15,0,0,1,0,1.63,1.13,1.13,0,0,1-1.58,0Z" transform="translate(-1957.55 -554)"/><path class="cls-3" d="M2558,822.93q7.16-22.3,14.33-44.62l12.63,8.1c55.56,19.07,90.45,49.42,119.08,95.59s43.9,97.74,56.57,149.17c41.86,170,57.85,345.71,37.27,518.75-.72,6.08-1.67,12.54-6.09,17.25a20.77,20.77,0,0,1-5.63,4.17l-16.88-16.89v22.86q-13,3.92-26,7.87h-35.49v10c-6.72,1.17-13.5,1.32-19.7-1-8.35-3.18-13.9-10.25-18.06-17.4-12.4-21.19-16.51-45.28-19.73-69-14.44-106.64-13.66-214.38-20.76-321.62s-22.39-215.44-67.24-315.28c-4.11-9.16-8.53-18.52-8.5-28.37C2553.87,835.88,2556,829.37,2558,822.93Z" transform="translate(-1957.55 -554)"/><path class="cls-6" d="M2608.83,967a27.85,27.85,0,0,0-7.64,3.39c-.61.37-1.18.75-1.75,1.15a13.8,13.8,0,0,0-1.47,1.15,36.91,36.91,0,0,0-3.19,3.07,2.33,2.33,0,0,1-3.3-3.3,34.62,34.62,0,0,1,16.11-10,2.34,2.34,0,0,1,2.87,1.63,2.43,2.43,0,0,1-1.63,2.87Z" transform="translate(-1957.55 -554)"/><path class="cls-6" d="M2607.71,975.32c-.49.11-.95.23-1.41.37-.23.09-.46.15-.69.23a1,1,0,0,0-.26.12c-.49.17.49-.23,0,0a16.69,16.69,0,0,0-2.47,1.4,6.55,6.55,0,0,1-.55.38c.58-.38-.05.06-.2.17-.37.32-.71.66-1.06,1s-.63.74-.95,1.09c.09-.09.29-.38.09-.12l-.2.29c-.14.23-.29.43-.43.66a2.33,2.33,0,0,1-4-2.36,17.3,17.3,0,0,1,10.94-7.75,2.37,2.37,0,0,1,2.87,1.64,2.47,2.47,0,0,1-1.69,2.87Z" transform="translate(-1957.55 -554)"/><path class="cls-6" d="M2613.56,989.39c-4.28,1.09-8.55,2.18-12.83,3.3a2.34,2.34,0,0,1-2.87-1.63,2.39,2.39,0,0,1,1.63-2.88c4.28-1.09,8.56-2.18,12.84-3.3a2.36,2.36,0,0,1,2.87,1.64,2.39,2.39,0,0,1-1.64,2.87Z" transform="translate(-1957.55 -554)"/><path class="cls-3" d="M2767.38,1003.17l-26.76,17.37c-2.52,1.64-4.85-2.38-2.35-4L2765,999.15c2.53-1.63,4.85,2.39,2.35,4Z" transform="translate(-1957.55 -554)"/><path class="cls-3" d="M2766.47,984.77q-9.73,10-19.47,20c-2.1,2.15-5.4-1.15-3.31-3.3,6.49-6.69,13-13.35,19.47-20,2.1-2.15,5.4,1.15,3.31,3.31Z" transform="translate(-1957.55 -554)"/><path class="cls-3" d="M2716.73,882q-5.51,7.76-11,15.53a2.33,2.33,0,1,1-4-2.35c3.68-5.17,7.36-10.37,11-15.54a2.38,2.38,0,0,1,3.19-.83,2.31,2.31,0,0,1,.83,3.19Z" transform="translate(-1957.55 -554)"/><path class="cls-3" d="M2711.74,869.37a15.36,15.36,0,0,0-1.84,1.06c-.26.17-.55.34-.81.54s-.25.2-.37.29.29-.23-.06.06a21.61,21.61,0,0,0-2.95,2.87c-.12.11-.21.26-.32.37s-.37.46-.17.23-.12.17-.17.23-.23.32-.35.46a17.61,17.61,0,0,0-1.06,1.72c-.32.58-.6,1.21-.89,1.81.14-.28.06-.14,0,.06a4.05,4.05,0,0,0-.17.46c-.15.37-.26.72-.38,1.09a2.41,2.41,0,0,1-2.87,1.64,2.36,2.36,0,0,1-1.63-2.87,23.57,23.57,0,0,1,11.65-14,2.39,2.39,0,0,1,3.19.84,2.21,2.21,0,0,1-.77,3.13Z" transform="translate(-1957.55 -554)"/><path class="cls-3" d="M2700.51,852.54a40.67,40.67,0,0,0-11.06,16.39,2.4,2.4,0,0,1-2.87,1.64,2.34,2.34,0,0,1-1.63-2.87,45.7,45.7,0,0,1,12.26-18.46,2.33,2.33,0,1,1,3.3,3.3Z" transform="translate(-1957.55 -554)"/><path class="cls-3" d="M2684.17,840.16a66.68,66.68,0,0,0-8.58,17.17,2.39,2.39,0,0,1-2.88,1.64,2.36,2.36,0,0,1-1.63-2.87,70.18,70.18,0,0,1,9.07-18.29,2.4,2.4,0,0,1,3.19-.83,2.34,2.34,0,0,1,.83,3.18Z" transform="translate(-1957.55 -554)"/><path class="cls-3" d="M2794.26,1322.85a199.61,199.61,0,0,1,34,27.27c2.13,2.13-1.17,5.43-3.3,3.31a194.92,194.92,0,0,0-33.1-26.56c-2.5-1.61-.18-5.63,2.35-4Z" transform="translate(-1957.55 -554)"/><path class="cls-3" d="M2801.84,1340.22c4,5.31,8,10.62,12,16a2.35,2.35,0,0,1-.83,3.19,2.4,2.4,0,0,1-3.19-.83c-4-5.32-8-10.63-12-16a2.33,2.33,0,1,1,4-2.35Z" transform="translate(-1957.55 -554)"/><path class="cls-2" d="M2586.4,811.82c-12,18.06-6.17,40.23,1.21,58.84,8.38,21.13,17.42,42,26.18,63,1.15,2.75-3.36,4-4.48,1.23-9.3-22.28-19.29-44.42-27.76-67.05-7-18.66-10.86-40.65.86-58.34,1.61-2.47,5.66-.15,4,2.35Z" transform="translate(-1957.55 -554)"/><path class="cls-2" d="M2641.93,996.68a736.33,736.33,0,0,1,25.33,199.74q-.35,28.86-3,57.66c-.26,3-4.94,3-4.65,0a731.64,731.64,0,0,0-9.51-200.6q-5.25-28-12.72-55.56c-.77-2.9,3.71-4.14,4.51-1.24Z" transform="translate(-1957.55 -554)"/><path class="cls-2" d="M2679.09,1111.22a713.59,713.59,0,0,1,5.71,115c-.08,3-4.74,3-4.65,0a720.35,720.35,0,0,0-5.71-115c-.41-3,4.25-2.93,4.65,0Z" transform="translate(-1957.55 -554)"/><path class="cls-2" d="M2722.13,1236.7a643.38,643.38,0,0,0,10.31,112.1c.54,2.93-4,4.19-4.48,1.24a649.27,649.27,0,0,1-10.48-113.34c0-3,4.62-3,4.65,0Z" transform="translate(-1957.55 -554)"/><path class="cls-2" d="M2711.88,1379.64q1.17,13.69,3.33,27.28a2.41,2.41,0,0,1-1.64,2.87,2.33,2.33,0,0,1-2.87-1.64c-1.49-9.44-2.67-19-3.47-28.51-.26-3,4.39-3,4.65,0Z" transform="translate(-1957.55 -554)"/><path class="cls-2" d="M2708.12,1408.07l3.87,26.67a2.44,2.44,0,0,1-1.63,2.88,2.38,2.38,0,0,1-2.87-1.64q-1.95-13.35-3.88-26.68a2.44,2.44,0,0,1,1.64-2.87,2.39,2.39,0,0,1,2.87,1.64Z" transform="translate(-1957.55 -554)"/><path class="cls-2" d="M2798.88,1381l-47.66,3.62c-2.62.2-10.77-.49-12,2.21-.63,1.38-.32,4-.41,5.51-.11,2.3-.25,4.6-.37,6.9-.43,7.92-.83,15.85-1.26,23.74q-1.24,23.77-2.53,47.52c-.43,7.93-.83,15.85-1.26,23.75-.2,3.76-.46,7.52-.6,11.29-.06,1.4-.23,3.33.57,4.59,1.21,2,4,2.12,6.06,2.47,18.2,3.1,36.52,5.37,54.9,7.09,3,.29,3,4.94,0,4.65q-27-2.54-53.87-6.89c-6.29-1-11.86-2.38-12.32-9.73-.51-8.67.84-17.8,1.3-26.51q1.45-27.21,2.9-54.41.72-13.79,1.46-27.59c.2-4,.09-8.24.69-12.21.43-2.72,1.55-4.85,4.25-5.82,4-1.44,9.1-1,13.26-1.33l15.39-1.17q15.77-1.22,31.53-2.39c3-.17,3,4.48,0,4.71Z" transform="translate(-1957.55 -554)"/><path class="cls-2" d="M2782.57,1382.89A401.21,401.21,0,0,1,2805.4,1425c1.26,2.7-2.76,5-4,2.36a403.37,403.37,0,0,0-22.83-42.1c-1.6-2.55,2.44-4.88,4-2.35Z" transform="translate(-1957.55 -554)"/><path class="cls-2" d="M2769.59,1393.48q14.47,23.87,28.92,47.72c1.55,2.59-2.47,4.91-4,2.36q-14.47-23.86-28.92-47.72c-1.55-2.59,2.47-4.91,4-2.36Z" transform="translate(-1957.55 -554)"/><path class="cls-2" d="M2761.67,1409.65q14.86,27.55,32.16,53.66c1.66,2.5-2.38,4.86-4,2.36q-17.31-26.1-32.16-53.67c-1.44-2.64,2.58-5,4-2.35Z" transform="translate(-1957.55 -554)"/><path class="cls-2" d="M2760.21,1438.88l23.45,41.72c1.47,2.61-2.55,5-4,2.35q-11.71-20.84-23.45-41.72c-1.5-2.64,2.52-5,4-2.35Z" transform="translate(-1957.55 -554)"/><path class="cls-2" d="M2755.93,1460.67q12.75,19.21,24.69,38.91c1.55,2.58-2.47,4.91-4,2.35q-11.92-19.73-24.69-38.9c-1.67-2.5,2.38-4.83,4-2.36Z" transform="translate(-1957.55 -554)"/><path class="cls-2" d="M2797.62,1460q-9.26,19.21-18.49,38.39c-1.29,2.7-5.31.35-4-2.35q9.26-19.21,18.49-38.39c1.29-2.7,5.31-.32,4,2.35Z" transform="translate(-1957.55 -554)"/><path class="cls-2" d="M2793.17,1430.47q-13.49,26.7-26.25,53.69c-1.29,2.7-5.31.34-4-2.35q12.79-27,26.25-53.7c1.35-2.67,5.37-.32,4,2.36Z" transform="translate(-1957.55 -554)"/><path class="cls-2" d="M2782,1409.76q-12.75,28.47-25.53,56.94c-1.23,2.73-5.22.38-4-2.35q12.75-28.47,25.53-56.94c1.21-2.73,5.23-.35,4,2.35Z" transform="translate(-1957.55 -554)"/><path class="cls-2" d="M2765.46,1408.73c-2.07-.29-4.22,7-4.77,8.33-1.63,3.84-3.21,7.69-4.82,11.54q-4.65,11.33-9.16,22.68c-1.09,2.76-5.6,1.55-4.48-1.23,3.65-9.22,7.35-18.38,11.17-27.54,1.81-4.31,3.5-8.67,5.46-12.92,1.52-3.3,4-5.92,7.86-5.37,2.93.46,1.67,4.94-1.26,4.51Z" transform="translate(-1957.55 -554)"/><path class="cls-8" d="M2745.27,1429.37a81.13,81.13,0,0,0-21.45-11.45,2.41,2.41,0,0,1-1.63-2.87,2.37,2.37,0,0,1,2.87-1.64,85,85,0,0,1,22.57,11.94,2.4,2.4,0,0,1,.83,3.19,2.32,2.32,0,0,1-3.19.83Z" transform="translate(-1957.55 -554)"/><path class="cls-8" d="M2744.13,1437.5a96.8,96.8,0,0,0-25.13-12.15c-2.84-.89-1.64-5.39,1.24-4.48a100.77,100.77,0,0,1,26.21,12.61c2.5,1.67.17,5.69-2.32,4Z" transform="translate(-1957.55 -554)"/><path class="cls-8" d="M2773.82,1362.18q-.66,17.44-1.33,34.89c-.11,3-4.76,3-4.65,0q.64-17.44,1.32-34.89c.09-3,4.77-3,4.66,0Z" transform="translate(-1957.55 -554)"/><path class="cls-8" d="M2761.47,1365.72a74.61,74.61,0,0,1-2.27,28.48c-.8,2.87-5.28,1.66-4.48-1.24a70.93,70.93,0,0,0,2.1-27.24,2.32,2.32,0,0,1,2.32-2.33,2.39,2.39,0,0,1,2.33,2.33Z" transform="translate(-1957.55 -554)"/><path class="cls-8" d="M2762.59,1518.5A138.62,138.62,0,0,0,2756,1543a2.34,2.34,0,0,1-4.51-1.24,138.28,138.28,0,0,1,6.63-24.49,2.41,2.41,0,0,1,2.87-1.64,2.37,2.37,0,0,1,1.64,2.87Z" transform="translate(-1957.55 -554)"/><path class="cls-8" d="M2752.85,1513.82a80.19,80.19,0,0,1-8.67,26.39c-1.4,2.64-5.42.29-4-2.35a77,77,0,0,0,8.19-25.27,2.33,2.33,0,1,1,4.5,1.23Z" transform="translate(-1957.55 -554)"/><path class="cls-8" d="M2740.19,1480.89a47.09,47.09,0,0,0-19.9,10.85c-2.21,2-5.51-1.26-3.3-3.3a52.5,52.5,0,0,1,22-12.06c2.9-.75,4.13,3.73,1.23,4.51Z" transform="translate(-1957.55 -554)"/><path class="cls-2" d="M2755,1157.34a28.78,28.78,0,0,1,5.94,22,2.33,2.33,0,1,1-4.5-1.23,23.63,23.63,0,0,0-4.77-17.43,2.34,2.34,0,0,1,3.33-3.3Z" transform="translate(-1957.55 -554)"/><path class="cls-2" d="M2748.66,1171a18.56,18.56,0,0,1-.95,10.6,2.3,2.3,0,0,1-2.84,1.61,2.36,2.36,0,0,1-1.63-2.87,22,22,0,0,0,.74-2.21c.09-.38.17-.75.26-1.15a3,3,0,0,0,.09-.49c-.06.34-.06.37,0,.11,0-.08,0-.17,0-.25a15.58,15.58,0,0,0,.05-2.27c0-.41-.05-.78-.08-1.18-.06-.57.08.52,0-.06,0-.23-.09-.43-.12-.66a2.32,2.32,0,1,1,4.48-1.18Z" transform="translate(-1957.55 -554)"/><path class="cls-2" d="M2737.12,1174.51c.37,1.55.77,3.1,1.15,4.65a2.44,2.44,0,0,1-.23,1.78,2.28,2.28,0,0,1-1.38,1.06,2.22,2.22,0,0,1-1.78-.23,2.26,2.26,0,0,1-1.06-1.37c-.38-1.56-.78-3.11-1.15-4.66a2.44,2.44,0,0,1,.23-1.81,2.36,2.36,0,0,1,1.38-1.06,2.39,2.39,0,0,1,1.81.23,2.63,2.63,0,0,1,1,1.41Z" transform="translate(-1957.55 -554)"/><path class="cls-2" d="M2736.46,1082.16c0,9.31.34,18.61,1,27.89.21,3-4.45,3-4.65,0-.63-9.28-1-18.58-1-27.89,0-3,4.65-3,4.65,0Z" transform="translate(-1957.55 -554)"/><path class="cls-2" d="M2752.37,1076.34a70.55,70.55,0,0,0,3.33,18c.92,2.87-3.59,4.08-4.48,1.24a77.2,77.2,0,0,1-3.48-19.24,2.36,2.36,0,0,1,2.33-2.33,2.4,2.4,0,0,1,2.3,2.36Z" transform="translate(-1957.55 -554)"/><path class="cls-2" d="M2709,1101.37q1.47,6.35,2.93,12.64a2.34,2.34,0,0,1-4.51,1.23c-1-4.22-1.95-8.44-2.93-12.63a2.38,2.38,0,0,1,1.64-2.87,2.33,2.33,0,0,1,2.87,1.63Z" transform="translate(-1957.55 -554)"/><path class="cls-2" d="M2703.12,1032.2a34.19,34.19,0,0,1,2.59,20.33,2.34,2.34,0,1,1-4.51-1.23,28.42,28.42,0,0,0-2.13-16.74,2.43,2.43,0,0,1,.84-3.19,2.38,2.38,0,0,1,3.21.83Z" transform="translate(-1957.55 -554)"/><path class="cls-8" d="M2609.86,1258.9c-37.27,6.37-72.07-12.66-103.23-30.72-2.58-1.5-.26-5.55,2.36-4,29.89,17.31,63.77,36.38,99.63,30.23,2.93-.49,4.2,4,1.24,4.51Z" transform="translate(-1957.55 -554)"/><path class="cls-8" d="M2559.75,997.06a424.36,424.36,0,0,0-49.36-35.52c-2.55-1.58-.2-5.6,2.36-4a430.74,430.74,0,0,1,50.31,36.23c2.29,1.93-1,5.23-3.31,3.31Z" transform="translate(-1957.55 -554)"/><path class="cls-8" d="M2541.66,994.76q-18.64-10.68-37.32-21.39c-2.62-1.5-.26-5.52,2.35-4Q2525.34,980,2544,990.74c2.61,1.49.26,5.51-2.36,4Z" transform="translate(-1957.55 -554)"/><path class="cls-7" d="M2539.62,765.85a230.2,230.2,0,0,1-32.36,16.23c-1.37.57-2-1.7-.63-2.24a223.55,223.55,0,0,0,31.79-16,1.17,1.17,0,0,1,1.2,2Z" transform="translate(-1957.55 -554)"/><path class="cls-2" d="M2436,634.6q-8.49,19.56-17,39.11c-2.82,6.43-5.72,12.83-6.87,19.84s-.89,14.39-.63,21.54c.12,3-4.56,3-4.65,0-.26-7.13-.46-14.25.58-21.31s3.58-13.24,6.34-19.61q9.09-21,18.23-41.92c1.18-2.76,5.17-.38,4,2.35Z" transform="translate(-1957.55 -554)"/><path class="cls-2" d="M2567.05,582.8c9.7,5.4,19.35,11.51,26.18,20.44s10.4,20,14.36,30.58A140.65,140.65,0,0,0,2647.65,691c2.26,1.95-1,5.22-3.31,3.3a143.4,143.4,0,0,1-39-53.47C2601,630.26,2598,619,2591.8,609.3c-6.52-10.19-16.77-16.74-27.14-22.51-2.58-1.43-.23-5.45,2.39-4Z" transform="translate(-1957.55 -554)"/><path class="cls-2" d="M2544.74,585.73c-13.07-5.17-27.31-10.25-41.58-8.44-11.55,1.46-22.66,7.66-27.68,18.46-1.27,2.73-5.29.34-4-2.35,5.28-11.38,16.91-18.35,29-20.39,15.62-2.64,31.15,2.53,45.51,8.21,2.76,1.12,1.55,5.6-1.23,4.51Z" transform="translate(-1957.55 -554)"/><path class="cls-2" d="M2473.32,623.46a168.66,168.66,0,0,1-20,56.45c-1.49,2.61-5.51.26-4-2.35a165.23,165.23,0,0,0,19.58-55.36c.49-2.9,5-1.67,4.48,1.26Z" transform="translate(-1957.55 -554)"/><path class="cls-2" d="M2511.89,617.83c8,33.57,33.56,61.82,66.27,73,2.81,1,1.61,5.46-1.24,4.48-34.19-11.66-61.1-41.06-69.51-76.23-.69-2.9,3.79-4.17,4.48-1.24Z" transform="translate(-1957.55 -554)"/><path class="cls-7" d="M2487.39,703.83a37.68,37.68,0,0,1-20.24,29.86v-2a14.7,14.7,0,0,0,13,1.12c1.4-.54,2,1.72.63,2.24a16.94,16.94,0,0,1-14.82-1.35,1.17,1.17,0,0,1,0-2,35.42,35.42,0,0,0,19.1-27.85c.11-1.49,2.44-1.49,2.29,0Z" transform="translate(-1957.55 -554)"/><path class="cls-2" d="M2538.5,693.92a80.06,80.06,0,0,1-25.06-11.28c-2.47-1.67-.15-5.72,2.35-4a76,76,0,0,0,23.95,10.82c2.9.75,1.66,5.23-1.24,4.48Z" transform="translate(-1957.55 -554)"/><path class="cls-2" d="M2457.5,682.38a117.82,117.82,0,0,0-16.48,14,2.33,2.33,0,0,1-3.3-3.3,127.08,127.08,0,0,1,17.43-14.73,2.33,2.33,0,0,1,2.35,4Z" transform="translate(-1957.55 -554)"/><path class="cls-7" d="M2503.88,747.53c-5,2.27-9.91,4.57-14.88,6.86a1.2,1.2,0,0,1-1.61-.43,1.18,1.18,0,0,1,.43-1.58l14.88-6.86a1.17,1.17,0,0,1,1.58.43,1.14,1.14,0,0,1-.4,1.58Z" transform="translate(-1957.55 -554)"/><path class="cls-2" d="M2556.77,678.53c2.29,6.26,2.49,13.07,2.67,19.76q.55,19.89,1.09,39.8c.43,15.76,0,33.68-11.8,44.16a80.55,80.55,0,0,0,20.67-22.2c-3.24,5.83-6.52,11.69-9.76,17.52,5-2.53,10-5.09,15-7.61.08,2.24-2-11.69-3-20.85-1-8.84.38-17.77,2.21-26.47a244.51,244.51,0,0,1,14.73-46.2Z" transform="translate(-1957.55 -554)"/><path class="cls-6" d="M2103.76,1669.89a242.26,242.26,0,0,0-9.53,38.57c-.51,3.13-.88,6.64.89,9.29,1.55,2.33,4.39,3.42,7,4.36q27,9.56,54.07,19.14c3.13-4.85,1.23-11.38-1.69-16.36a48.11,48.11,0,0,0-23.9-20.34c-1.34-.51-2.84-1.09-3.45-2.41a5.23,5.23,0,0,1,.08-3.61q4.09-15.93,8.72-31.77Z" transform="translate(-1957.55 -554)"/><path class="cls-7" d="M2112.57,1705.86c6.39-3.26,12.95-6.23,19.61-8.93a2.24,2.24,0,0,1,2.76,1.55,2.28,2.28,0,0,1-1.55,2.75q-9.43,3.82-18.55,8.49a2.24,2.24,0,1,1-2.27-3.86Z" transform="translate(-1957.55 -554)"/><path class="cls-7" d="M2118.51,1712.61a53.36,53.36,0,0,1,19.67-7.66,2.3,2.3,0,0,1,2.75,1.56,2.26,2.26,0,0,1-1.55,2.75,50.26,50.26,0,0,0-18.6,7.2c-2.46,1.55-4.71-2.33-2.27-3.85Z" transform="translate(-1957.55 -554)"/><path class="cls-7" d="M2131.54,1718.58a52.6,52.6,0,0,1,15.71-7.93,2.3,2.3,0,0,1,2.76,1.56,2.27,2.27,0,0,1-1.55,2.75,48.42,48.42,0,0,0-14.64,7.47,2.24,2.24,0,0,1-2.28-3.85Z" transform="translate(-1957.55 -554)"/><path class="cls-6" d="M2018.09,1667.65a242.63,242.63,0,0,0,.35,39.71c.29,3.16.77,6.64,3.16,8.78,2.08,1.87,5.11,2.22,7.89,2.46q28.54,2.54,57.12,5.12c1.84-5.49-1.64-11.33-5.71-15.42a48.06,48.06,0,0,0-28.2-13.76c-1.42-.16-3-.34-3.94-1.47a5.44,5.44,0,0,1-.83-3.5q0-16.47.56-33Z" transform="translate(-1957.55 -554)"/><path class="cls-7" d="M2035.57,1700.3q8.07-7.11,16.75-13.52a2.29,2.29,0,0,1,3.08.8,2.32,2.32,0,0,1-.8,3.08c-5.46,4-10.76,8.33-15.85,12.82a2.25,2.25,0,0,1-3.18-3.18Z" transform="translate(-1957.55 -554)"/><path class="cls-7" d="M2043,1705.33a53.09,53.09,0,0,1,17.13-12.29,2.34,2.34,0,0,1,3.08.81,2.29,2.29,0,0,1-.81,3.08,50.23,50.23,0,0,0-16.24,11.58,2.26,2.26,0,0,1-3.16,0,2.29,2.29,0,0,1,0-3.18Z" transform="translate(-1957.55 -554)"/><path class="cls-7" d="M2057.11,1707.9a52.63,52.63,0,0,1,13.25-11.59,2.29,2.29,0,0,1,3.08.8,2.24,2.24,0,0,1-.81,3.05c-1.17.73-2.32,1.5-3.45,2.33-.29.22-.59.43-.88.67l-.16.13-.43.35c-.54.43-1.07.89-1.58,1.34a50.15,50.15,0,0,0-5.83,6.1,2.24,2.24,0,0,1-3.16,0,2.26,2.26,0,0,1,0-3.18Z" transform="translate(-1957.55 -554)"/><path class="cls-10" d="M2163.47,1428.68a588.81,588.81,0,0,1-12.18,239.61c-.64,2.41-1.36,4.92-3.21,6.58-2.22,2-5.43,2.17-8.4,2.28l-44.83,1.47q1.13-65.11,2.22-130.23c-3.21,39.21-14.29,91.07-32,126.19-1.36,2.7-60.27,4.84-80.64-3,18.79-68.57,32-169,25.32-239.77a930.68,930.68,0,0,0,139.3-21.28Z" transform="translate(-1957.55 -554)"/><path class="cls-11" d="M2324.85,1276.79c3.75-24.14-2-48.6-7.73-72.34l-20.56,9.61Z" transform="translate(-1957.55 -554)"/><path class="cls-4" d="M2251.82,1234.69l33.29-13.46a9.25,9.25,0,0,0,3.61-2.14c1-1.12,9.13-19.91,18.68-31.9,3.24-4,4.23,9.61,2.55,26.63l48.06-1.29c3.56-.1,5.57,5.25,2.63,6.88-10,5.52-22,7.79-33.65,9.88q21.93,5.65,43.82,11.35c3.88,1,4.22,7,.53,7.06a219.76,219.76,0,0,1-42.18-3.5c-.94-2.68,20.26,9.07,29.92,13.56,3.67,1.72,3.16,7.34-.59,6.83l-39.2-5.22c10.46,7.09,26.95,18.84,24.62,21.73-3.13,3.88-33.86-13.19-50.77-19.8l-31.88,4.52Z" transform="translate(-1957.55 -554)"/><path class="cls-7" d="M2040.52,1211.62c-18.71,4.88-38.43,6.78-52.86,19.62-38.65,34.47,14.64,181.48,18.55,217.08.32,2.89.8,6.1,3.1,7.9,1.93,1.49,4.58,1.55,7,1.52a660.55,660.55,0,0,0,134.25-15.68c5.83-1.31,12.18-3,15.63-7.9,4.28-6.05,2.43-14.29.56-21.44-12.31-46.54-12.47-64.15-14.4-112.24,58.32,5.75,117.44-2,172.65-21.57-8.35-17.53-18.52-58.83-18.89-78.23-25.24,13.14-54,13.49-82.17,17.13A273.63,273.63,0,0,1,2079.46,1197Z" transform="translate(-1957.55 -554)"/><path class="cls-7" d="M2020.21,1183.2a55.43,55.43,0,0,0,30.08,30,288,288,0,0,0,6.15-52.27Z" transform="translate(-1957.55 -554)"/><path class="cls-4" d="M2126.75,1054.2c8.89,25.67,17.69,69.13,22.53,95.87,1,5.65,1.93,11.53.3,17-2.3,7.62-9,13-15.76,17.31a158,158,0,0,1-37.26,17.59l2.3,13.11a25.28,25.28,0,0,1-15.65,27.94l-.51.19a25.33,25.33,0,0,1-34.18-18.9c-2.14-11.42-4.5-23.84-6.26-32.19-10.15,2.78-21.52,1.84-30.51-3.62s-15.23-15.68-14.83-26.22,8.06-20.66,18.36-22.91c.91-.22-11.48-45.1-14.53-57.22C2040.76,1076.34,2126.75,1054.2,2126.75,1054.2Z" transform="translate(-1957.55 -554)"/><path class="cls-7" d="M2094.77,1144.74a30.84,30.84,0,0,1,6.05-6.29c2.3-1.79,5-3.66,8.08-3.77a5.66,5.66,0,0,1,5.83,5c.35,2.59-.51,5.06-1.5,7.41-1.49,3.48-3,7-4.49,10.47a2.26,2.26,0,0,1-3.08.8,2.28,2.28,0,0,1-.8-3c1.39-3.27,2.81-6.51,4.2-9.77a17.69,17.69,0,0,0,1.18-3.43,5.66,5.66,0,0,0,.13-1.39c0-.16,0-.32,0-.48,0,.19,0,.19,0,0s-.26-.73-.1-.4c0-.06-.38-.54-.16-.27-.19-.16-.22-.22-.06-.11a.3.3,0,0,1-.21-.16,2.1,2.1,0,0,0-1.5,0,12.71,12.71,0,0,0-3.69,2,25,25,0,0,0-6,5.78,2.26,2.26,0,0,1-3.88-2.3Z" transform="translate(-1957.55 -554)"/><path d="M2075.34,1140.81c.91,4.55-1.34,8.91-5.06,9.74s-7.49-2.17-8.4-6.72,1.33-8.91,5-9.74S2074.4,1136.26,2075.34,1140.81Z" transform="translate(-1957.55 -554)"/><path d="M2130.2,1124.64c.91,4.55-1.34,8.92-5.06,9.75s-7.49-2.17-8.4-6.72,1.34-8.91,5.06-9.74S2129.29,1120.09,2130.2,1124.64Z" transform="translate(-1957.55 -554)"/><path class="cls-11" d="M2065.62,1104.38c4.18-.85,8.09,3.13,6.29,6.94a5.9,5.9,0,0,1-.61,1c-1.4,1.82-3.8,2.52-6,3.27a95.81,95.81,0,0,0-13.73,6.42l-9.34,5a60.25,60.25,0,0,1,21.09-22.11Z" transform="translate(-1957.55 -554)"/><path class="cls-11" d="M2106.49,1099.25c-3.8,1.52-5.22,6.79-2.06,8.91a5.93,5.93,0,0,0,.94.48c2,.72,4.2,0,6.34-.56a87,87,0,0,1,14.08-2.14l9.85-1a51.28,51.28,0,0,0-27.09-6.55Z" transform="translate(-1957.55 -554)"/><path class="cls-7" d="M2091.66,1203.3a4.39,4.39,0,0,0,1.42,2c-.32-.14.62,0,.27,0s-.54,0-.8,0a21.89,21.89,0,0,0-2.31.13c-2.3.19-4.6.46-6.9.75-4.82.59-9.61,1.31-14.48,2-1.12.16-3.16.8-4.33.38-2.68-1-1.53-5.33,1.2-4.31-.8-.3-.64,0-.29-.08a4.07,4.07,0,0,1,.72-.08c.35-.06.67-.08,1-.14l.16,0,.75-.11c2.46-.35,4.92-.7,7.38-1,5.25-.72,10.55-1.55,15.82-1.87,1.87-.11,4.84-.24,4.9,2.41,0,2.86-4.47,2.86-4.53,0Z" transform="translate(-1957.55 -554)"/><path class="cls-7" d="M2014.58,1158.07a39.07,39.07,0,0,1,17,15.84,2.24,2.24,0,0,1-.19,2.49,2.33,2.33,0,0,1-2.36.81c-.59-.11-1.2-.19-1.79-.3a2.23,2.23,0,0,1-1.55-2.75,2.26,2.26,0,0,1,2.75-1.56c.59.11,1.21.19,1.8.3-.83,1.1-1.69,2.19-2.54,3.29a34.93,34.93,0,0,0-15.34-14.24,2.23,2.23,0,0,1-.8-3,2.27,2.27,0,0,1,3.07-.83Z" transform="translate(-1957.55 -554)"/><path class="cls-7" d="M2015.07,1167.12l9.34.72a2.29,2.29,0,0,1,2.25,2.25,2.31,2.31,0,0,1-2.25,2.25l-9.34-.73a2.25,2.25,0,1,1,0-4.49Z" transform="translate(-1957.55 -554)"/><path class="cls-7" d="M2020.71,1088.19c10,8.22,26,6.34,38.73.48s23.61-15,36.13-21.25q-15.93.45-31.85.91c27.54,0,56.55-.34,81.5-13.54a161.26,161.26,0,0,0-25.13-9.61c6.34-.13,12.79-.32,19-2.14s12.18-5.62,15.18-11.21q-20.59-5-41.73-8.19a49.14,49.14,0,0,0,23.79-20.21c-5.88-4-14.29-1.92-21.57.22l-41,12.12a193.1,193.1,0,0,0,7.42-40.65q-13.93,21-27.86,42.1a10.82,10.82,0,0,1-2.87,3.26,10.32,10.32,0,0,1-4.68,1.29,161.29,161.29,0,0,1-31.45.21c-10.17-.94-21.09-2.7-30.45,2.14a101.26,101.26,0,0,0,21.59,16.67,103.81,103.81,0,0,0-40.3,18.28c-1.53,1.15-3.11,2.44-3.67,4.21-.91,2.86,1.23,5.51,3.27,7.54a227.78,227.78,0,0,0,20.23,17.85,99.38,99.38,0,0,0-27.38,18.15c4.36,3.88,11.8,1.47,17.64,2.94,6.48,1.66,10.14,7.82,13.17,13.49,5.05,9.45,7.76,16.41,12.79,25.86,3.51-2.87,10.2-9.24,14-4.45Z" transform="translate(-1957.55 -554)"/><path class="cls-11" d="M2011.05,1075.77c25.8,10.84,52.59-1.41,73.76-16.46.38,1.4.75,2.79,1.13,4.18l-48.31.72c-2.89.06-2.87-4.33,0-4.47a105,105,0,0,0,54.68-18.65c2.38-1.63,4.63,2.25,2.24,3.88a109.49,109.49,0,0,1-57,19.27v-4.47l48.31-.72c2.38,0,2.84,3,1.12,4.17-22.05,15.66-50.39,28.18-77.21,16.92-2.6-1.13-1.44-5.46,1.23-4.37Z" transform="translate(-1957.55 -554)"/><path class="cls-11" d="M2051.57,1036.43a63.51,63.51,0,0,0,31.72-7.44c.37,1.39.75,2.78,1.12,4.18a90,90,0,0,0-20.29-.19c-2.59.27-2.89-3.67-.59-4.39q16.75-5.34,33.51-10.71c2.76-.88,3.94,3.46,1.21,4.31q-16.74,5.34-33.51,10.71c-.19-1.47-.4-3-.59-4.39a90,90,0,0,1,20.29.19c2,.24,3.29,3,1.12,4.17a68.26,68.26,0,0,1-34,8c-2.89-.05-2.92-4.55,0-4.47Z" transform="translate(-1957.55 -554)"/><path class="cls-11" d="M1991.73,1101.68q6.35,13.41,13.81,26.23c1.44,2.49-2.41,4.76-3.88,2.25q-7.47-12.81-13.81-26.23a2.24,2.24,0,1,1,3.88-2.25Z" transform="translate(-1957.55 -554)"/><path class="cls-11" d="M2002.62,1101.49c2.44,3.24,3.05,7.39,3.75,11.27a30.74,30.74,0,0,0,1.34,5.57,8.68,8.68,0,0,0,2.83,3.93,2.23,2.23,0,0,1,0,3.16,2.27,2.27,0,0,1-3.15,0c-6.8-5.35-3.89-15.36-8.62-21.68a2.24,2.24,0,0,1,.8-3,2.28,2.28,0,0,1,3,.8Z" transform="translate(-1957.55 -554)"/><path class="cls-11" d="M2003.1,1049.6a107.09,107.09,0,0,0,17.08.48c.53,0,1.5-.4,1,.24s-.27.16-.62-.35a21,21,0,0,0-2.49-2.59c-2-2-4-4-6-6.08a2.26,2.26,0,0,1,1.58-3.82l16.11.13c2.89,0,2.89,4.5,0,4.47-5.38-.06-10.73-.08-16.11-.14.54-1.28,1.05-2.54,1.58-3.82,2.54,2.57,5.11,5.14,7.65,7.73,2,2,3.94,5.49,1.13,7.71-1.23,1-2.84.94-4.34,1-1.84.08-3.69.13-5.51.1a107,107,0,0,1-11-.64,2.31,2.31,0,0,1-2.24-2.25,2.28,2.28,0,0,1,2.24-2.19Z" transform="translate(-1957.55 -554)"/><path class="cls-7" d="M2113.42,1073.71a80.39,80.39,0,0,0,.08,20.56l-4.39-.59a108.71,108.71,0,0,0,5.38-18.82,2.24,2.24,0,0,1,2.46-1.6,2.26,2.26,0,0,1,2,2.19c.24,5.06.27,10.15.08,15.2l-4.18-1.12a31.16,31.16,0,0,0,4.74-11.35,2.24,2.24,0,0,1,2.46-1.6,2.34,2.34,0,0,1,2,2.19q.92,7.35,1.84,14.69a2.24,2.24,0,0,1-2.24,2.25,2.31,2.31,0,0,1-2.25-2.25q-.93-7.34-1.85-14.69l4.39.59a34.39,34.39,0,0,1-5.17,12.42c-1.17,1.74-4.25,1.23-4.17-1.13.19-5.05.16-10.14-.08-15.2l4.39.59a110.12,110.12,0,0,1-5.38,18.82,2.25,2.25,0,0,1-4.39-.59,82.72,82.72,0,0,1-.08-20.56,2.34,2.34,0,0,1,2.25-2.25,2.25,2.25,0,0,1,2.19,2.25Z" transform="translate(-1957.55 -554)"/><path class="cls-11" d="M2035.35,1223.59c3,7.76,6.16,16.06,12.58,21.68,6.88,6,17.21,7.54,26,8,10.07.53,17.59-4.28,25-10.6,3.29-2.81,6.61-5.62,7.82-10,1.26-4.53.64-9.42,0-14-.37-2.81,3.94-4,4.31-1.18.67,5.06,1.34,10.23.24,15.26-1,4.73-3.85,8.32-7.41,11.48-7.81,6.93-16.38,13.41-27.24,13.54-10.23.14-22.38-1.87-30.59-8.3-7.85-6.12-11.62-15.73-15.07-24.75-1-2.65,3.32-3.83,4.33-1.15Z" transform="translate(-1957.55 -554)"/><path class="cls-11" d="M2130.36,1227.07c12.66,24.43,25.37,49.21,25.59,77.45,0,2.89-4.47,2.89-4.47,0-.21-27.41-12.69-51.47-25-75.18-1.34-2.57,2.54-4.84,3.85-2.27Z" transform="translate(-1957.55 -554)"/><path class="cls-11" d="M2032.94,1440.59c6-8.46,16.62-10.47,26.37-9.18,6.74.88,13.22,3.1,19.91,4.33a43.28,43.28,0,0,0,20-1c11.81-3.31,22.54-9.84,34.69-12,10.12-1.82,23.69.16,30.75-8.89,1.77-2.27,4.93.91,3.16,3.16-6.4,8.19-17.42,8.38-26.9,9.29-12.42,1.17-23.18,6.69-34.74,10.86a58.92,58.92,0,0,1-17,3.83c-6.56.35-13-1.2-19.27-2.78-10.52-2.63-25.64-6-33.11,4.65-1.68,2.36-5.56.11-3.91-2.24Z" transform="translate(-1957.55 -554)"/><path class="cls-11" d="M2120.27,1317.93a678.54,678.54,0,0,0-46.24,59.68c-1.64,2.36-5.52.13-3.88-2.25a680.4,680.4,0,0,1,46.94-60.59c1.9-2.19,5.06,1,3.18,3.16Z" transform="translate(-1957.55 -554)"/><path class="cls-11" d="M2112.73,1350.82a61.06,61.06,0,0,0-13.25,22.91c-.86,2.73-5.19,1.58-4.31-1.2a66.22,66.22,0,0,1,14.4-24.89c1.92-2.12,5.08,1.07,3.16,3.18Z" transform="translate(-1957.55 -554)"/><path class="cls-7" d="M2089.82,1166.82a14.09,14.09,0,0,0,6.93,3.13,8.56,8.56,0,0,0,1.66.16,16.85,16.85,0,0,0,2,0,8.89,8.89,0,0,0,1.76-.3,18.07,18.07,0,0,0,2.06-.61,2.27,2.27,0,0,1,2.76,1.55,2.3,2.3,0,0,1-1.55,2.76,19.06,19.06,0,0,1-18.79-3.54,2.22,2.22,0,1,1,3.16-3.13Z" transform="translate(-1957.55 -554)"/><path class="cls-11" d="M2298.36,1208.49c-1.9,25,10,48.36,12.76,72.91.32,2.86-4.17,2.83-4.47,0-2.73-24.6-14.64-47.75-12.76-72.91.21-2.83,4.68-2.86,4.47,0Z" transform="translate(-1957.55 -554)"/><path class="cls-7" d="M2206.26,1205.12q-1,10.56-2,21.12a2.29,2.29,0,0,1-2.24,2.25,2.26,2.26,0,0,1-2.25-2.25c.67-7,1.31-14.08,2-21.12a2.25,2.25,0,1,1,4.49,0Z" transform="translate(-1957.55 -554)"/><path class="cls-7" d="M2222.48,1209.06a46.88,46.88,0,0,0-8.27,19.59,2.22,2.22,0,0,1-2.75,1.55,2.29,2.29,0,0,1-1.56-2.76,49.89,49.89,0,0,1,8.73-20.66,2.32,2.32,0,0,1,3.08-.8,2.29,2.29,0,0,1,.77,3.08Z" transform="translate(-1957.55 -554)"/><path class="cls-7" d="M2241.86,1294.08a18.31,18.31,0,0,1,7.39,11.48,2.3,2.3,0,0,1-1.56,2.76,2.26,2.26,0,0,1-2.75-1.55,14.27,14.27,0,0,0-.78-2.81c0-.11-.08-.27-.13-.38.13.19.13.32,0,0s-.19-.43-.3-.64a10.38,10.38,0,0,0-.72-1.31c-.24-.4-.53-.78-.8-1.18-.16-.22.27.35,0,0a2.35,2.35,0,0,1-.19-.25c-.16-.21-.35-.4-.51-.58-.32-.35-.67-.67-1-1-.18-.19-.4-.35-.58-.51l-.25-.19c.35.37.09.08,0,0a2.3,2.3,0,0,1-.8-3.07,2.23,2.23,0,0,1,3.05-.81Z" transform="translate(-1957.55 -554)"/><path class="cls-7" d="M2257.52,1289c1.2,3.08,2.38,6.16,3.58,9.24a2.23,2.23,0,0,1-1.55,2.75,2.32,2.32,0,0,1-2.76-1.55c-1.2-3.08-2.38-6.15-3.58-9.23a2.23,2.23,0,0,1,1.55-2.76,2.28,2.28,0,0,1,2.76,1.55Z" transform="translate(-1957.55 -554)"/><path class="cls-7" d="M2144.28,1353.6c4-.4,7.95-.8,11.91-1.17a2.26,2.26,0,0,1,2.25,2.24,2.31,2.31,0,0,1-2.25,2.25c-4,.4-8,.81-11.91,1.18a2.26,2.26,0,0,1-2.25-2.25,2.33,2.33,0,0,1,2.25-2.25Z" transform="translate(-1957.55 -554)"/><path class="cls-7" d="M2145.48,1361.71c3.06-.61,6.13-1.25,9.18-1.87a2.24,2.24,0,0,1,1.21,4.31c-3,.61-6.13,1.26-9.18,1.87a2.29,2.29,0,0,1-2.76-1.55,2.25,2.25,0,0,1,1.55-2.76Z" transform="translate(-1957.55 -554)"/><path class="cls-7" d="M2359.65,1214.76c-.22.18-.41.13.26-.11a2.69,2.69,0,0,1,1.58,0,2.38,2.38,0,0,1,1,.62c-.38-.38.45.53.16.21a1.28,1.28,0,0,1-.16-.27c-.33-.53.16.49,0,.06s-.27-.67-.37-1a48,48,0,0,1-1.5-6.51c-1.5-8.16-2.52-16.29-3.61-24.46a3.25,3.25,0,0,0-2.73-2.73,2.07,2.07,0,0,0-2.52,2c1,7.49,2,15,3.29,22.53.43,2.52.86,5,1.47,7.55a14.93,14.93,0,0,0,1.61,4.47c1.18,1.87,3.8,2.86,5.3,1.44a2.31,2.31,0,0,0-.11-3.37c-.94-1-2.78-1.39-3.66-.53Z" transform="translate(-1957.55 -554)"/><path class="cls-12" d="M2144.71,1668.53a220.25,220.25,0,0,0-41.14-1.63c-2.89.16-2.86-4.31,0-4.47a217.62,217.62,0,0,1,41.14,1.63c2.84.35,2.86,4.84,0,4.47Z" transform="translate(-1957.55 -554)"/><path class="cls-12" d="M2060.83,1668.72l-59.49-7.55c-2.81-.35-2.87-4.84,0-4.47l59.49,7.55c2.81.34,2.84,4.84,0,4.47Z" transform="translate(-1957.55 -554)"/><path class="cls-12" d="M2133.68,1526.23a179.61,179.61,0,0,1-36.9,11.21l1.55-1.55a97.86,97.86,0,0,0-3.45,17.34c-.3,2.84-4.8,2.87-4.47,0a105.3,105.3,0,0,1,3.61-18.54,2.22,2.22,0,0,1,1.55-1.56,174.3,174.3,0,0,0,35.84-10.76c2.65-1.12,4.92,2.73,2.27,3.86Z" transform="translate(-1957.55 -554)"/><path class="cls-12" d="M2057.67,1478.54a56.8,56.8,0,0,1-3.26,20.58,2.27,2.27,0,0,1-2.76,1.55,2.24,2.24,0,0,1-1.55-2.76,52.46,52.46,0,0,0,3.1-19.4c-.08-2.86,4.39-2.86,4.47,0Z" transform="translate(-1957.55 -554)"/><path class="cls-12" d="M2046.62,1486.89c-1,2.51-2.11,5-3.16,7.57a2.57,2.57,0,0,1-1,1.34,2.29,2.29,0,0,1-1.74.21,2.32,2.32,0,0,1-1.34-1,2.05,2.05,0,0,1-.22-1.72c1-2.51,2.12-5.06,3.16-7.57a2.53,2.53,0,0,1,1-1.34,2.14,2.14,0,0,1,1.71-.21,2.28,2.28,0,0,1,1.34,1,2,2,0,0,1,.24,1.72Z" transform="translate(-1957.55 -554)"/><path class="cls-12" d="M2034.15,1492.24V1506a2.27,2.27,0,0,1-2.25,2.25,2.31,2.31,0,0,1-2.25-2.25v-13.73a2.27,2.27,0,0,1,2.25-2.25,2.29,2.29,0,0,1,2.25,2.25Z" transform="translate(-1957.55 -554)"/><path class="cls-12" d="M2066.21,1539.5a69.32,69.32,0,0,0,1.31,20.77c.62,2.81-3.69,4-4.31,1.21a74,74,0,0,1-1.47-22,2.33,2.33,0,0,1,2.25-2.25,2.23,2.23,0,0,1,2.22,2.22Z" transform="translate(-1957.55 -554)"/><path class="cls-12" d="M2043.11,1557.22a24.2,24.2,0,0,1-1.28,13.44,2.24,2.24,0,1,1-4.31-1.21,18.82,18.82,0,0,0,1-2.92,13.26,13.26,0,0,0,.33-1.49c0-.22.08-.43.1-.65s.06-.29,0-.05a1.16,1.16,0,0,0,0-.32,22.51,22.51,0,0,0,.11-3c0-.5-.06-1-.11-1.52,0,0-.08-.72,0-.27-.05-.29-.08-.59-.13-.86a2.25,2.25,0,0,1,4.33-1.2Z" transform="translate(-1957.55 -554)"/><path class="cls-12" d="M2027.89,1579.49l1.52,3a1.94,1.94,0,0,1,.27.83,1.47,1.47,0,0,1,0,.88,1.77,1.77,0,0,1-.41.75,2.14,2.14,0,0,1-.61.59,2.28,2.28,0,0,1-1.74.21,2.21,2.21,0,0,1-1.34-1l-1.52-3a1.73,1.73,0,0,1-.27-.83,1.84,1.84,0,0,1,.43-1.64,2,2,0,0,1,2.32-.8,2.11,2.11,0,0,1,1.4,1Z" transform="translate(-1957.55 -554)"/><path class="cls-12" d="M2051.09,1521.89l-1.61,4.55a2.28,2.28,0,0,1-1,1.34,2.26,2.26,0,0,1-3-.8,2.16,2.16,0,0,1-.22-1.72l1.61-4.55a2.34,2.34,0,0,1,1-1.33,2.21,2.21,0,0,1,1.74-.22,2.31,2.31,0,0,1,1.34,1,2.26,2.26,0,0,1,.19,1.71Z" transform="translate(-1957.55 -554)"/><path class="cls-12" d="M2046.33,1612.7v7.63a2.27,2.27,0,0,1-2.25,2.25,2.3,2.3,0,0,1-2.25-2.25v-7.63a2.27,2.27,0,0,1,2.25-2.25,2.3,2.3,0,0,1,2.25,2.25Z" transform="translate(-1957.55 -554)"/><path class="cls-12" d="M2037.2,1641.69v3a2.25,2.25,0,0,1-.67,1.58,2.55,2.55,0,0,1-1.58.64,2.22,2.22,0,0,1-1.58-.67,2.36,2.36,0,0,1-.67-1.58v-3a2.23,2.23,0,0,1,.67-1.58,1.84,1.84,0,0,1,.73-.46,1.58,1.58,0,0,1,.85-.18,2.14,2.14,0,0,1,1.58.67,2.28,2.28,0,0,1,.67,1.58Z" transform="translate(-1957.55 -554)"/><path class="cls-12" d="M2142.41,1585.27v7.63a2.26,2.26,0,0,1-2.25,2.24,2.29,2.29,0,0,1-2.25-2.24v-7.63a2.25,2.25,0,0,1,4.5,0Z" transform="translate(-1957.55 -554)"/><path class="cls-12" d="M2122.82,1580a30,30,0,0,1,1.09,15,2.24,2.24,0,1,1-4.31-1.2c.11-.67.16-.94.22-1.42s.08-1,.11-1.53a29.91,29.91,0,0,0-.06-3.42,26.35,26.35,0,0,0-1.36-6.24,2.25,2.25,0,0,1,1.55-2.75,2.28,2.28,0,0,1,2.76,1.55Z" transform="translate(-1957.55 -554)"/><path class="cls-12" d="M2148.51,1553.23v9.16a2.25,2.25,0,0,1-4.5,0v-9.16a2.25,2.25,0,0,1,4.5,0Z" transform="translate(-1957.55 -554)"/><path class="cls-12" d="M2133.25,1621.85v12.21a2.25,2.25,0,1,1-4.49,0v-12.21a2.25,2.25,0,0,1,4.49,0Z" transform="translate(-1957.55 -554)"/><path class="cls-12" d="M2156.32,1468.47c-.64,4.55-1.28,9.1-1.92,13.68a2.22,2.22,0,0,1-2.76,1.55,2.28,2.28,0,0,1-1.55-2.76q1-6.82,1.92-13.67a2.23,2.23,0,0,1,2.76-1.55,2.29,2.29,0,0,1,1.55,2.75Z" transform="translate(-1957.55 -554)"/><path class="cls-12" d="M2136.09,1468.79c.64,4,1.26,8.09,1.9,12.15a2.24,2.24,0,0,1-4.31,1.21c-.64-4-1.26-8.08-1.9-12.15a2.31,2.31,0,0,1,1.55-2.76,2.23,2.23,0,0,1,2.76,1.55Z" transform="translate(-1957.55 -554)"/><path class="cls-12" d="M2122.31,1483.62c-.51,2-1,4.07-1.55,6.1a2.28,2.28,0,0,1-2.76,1.56,2.25,2.25,0,0,1-1.55-2.76c.5-2,1-4.07,1.55-6.1a2.27,2.27,0,0,1,2.76-1.56,2.31,2.31,0,0,1,1.55,2.76Z" transform="translate(-1957.55 -554)"/><path id="SVGID" class="cls-6" d="M2369.39,1254.58c-17.61,22.53-18,56.87-43.2,72.05-3.34,2-7.23,3.64-11.27,3.37-6.71-.43-12.09-5.92-14.34-11.83s-2.14-12.28-2.57-18.52a4.88,4.88,0,0,0-1.13-3.32c-2.14-2-5.67.16-7.46,2.38-4.34,5.38-7.74,11.46-12.71,16.36s-12.16,8.56-19.41,7.35-12.71-6.93-15.33-13.24-2.81-13.17-3-19.86q-.73-29.35-1.45-58.67Z" transform="translate(-1957.55 -554)"/><g class="cls-13"><path class="cls-3" d="M2364,1286.56q-67-11.76-134.62-19.8c-2-.24-4.12-.57-5.51-1.93-1.66-1.66-1.52-4.2-1.28-6.42q2.85-26.29,5.67-52.59c.32-3,1-6.4,3.88-7.63,2.36-1,5.17,0,7.58,1,13.94,5.76,27.56,12.85,42.52,15.26,9.29,1.5,18.76,1.12,28.16,1.42,28.58.93,56.6,8.16,84.3,15.33a4.11,4.11,0,0,1,2.57,1.37,3.37,3.37,0,0,1,.16,2.67q-5.3,25.69-10.62,51.39Z" transform="translate(-1957.55 -554)"/></g><path class="cls-14" d="M2187.32,1173c-9.21,5.81-19.09,12.53-21.47,22.67-3,13.06,7.82,25.77,19.65,33.78,27.35,18.49,62.11,23.79,95.49,26.81a977.3,977.3,0,0,0,116,3.62c20.66-.59,46.11-5.33,51-23.85,2.57-9.69-2.09-20.23-9.53-27.7s-17-13-27.22-16.65C2277.72,1143.78,2196.79,1167,2187.32,1173Z" transform="translate(-1957.55 -554)"/><path class="cls-6" d="M2391.07,1227.87a666.44,666.44,0,0,1-151.78-14.8c-7.09-1.53-14.48-3.29-20.1-7.09s-8.86-10.28-5.41-14.8c3.22-4.23,10.63-5.22,17.27-5.7a417,417,0,0,1,128.57,11.32c17.5,4.33,36.29,10.89,44.83,23.36Z" transform="translate(-1957.55 -554)"/><path class="cls-4" d="M2195.16,1316.11l37.71-10.28a11.76,11.76,0,0,0,4.23-1.76c1.31-1,13.86-18.39,26.46-29.12,4.26-3.64,2.33,9.52-3.13,25.74l50.51,2.57c3.72.16,4.68,5.49,1.23,6.83-11.62,4.49-24.68,5.72-37.28,6.82l43.3,14.37c3.83,1.32,2.89,7.07-1,6.83a237.91,237.91,0,0,1-43.28-6.69c-.37-2.65,19.19,10.3,28.32,15.39,3.45,1.92,1.71,7.28-2.12,6.5l-39.82-8.11c9.37,7.63,24,20.21,21,22.78-4.12,3.48-32.49-15.34-48.71-23l-34.28,1.82Z" transform="translate(-1957.55 -554)"/><path class="cls-7" d="M1995.26,1301.68a108.11,108.11,0,0,0,54.33,44.7c16.25,6,33.7,8,51,9.1,46.06,3,93,.4,137.69,11.93a257.65,257.65,0,0,0,5.68-83q-83.26-1.49-166.52-2.94Z" transform="translate(-1957.55 -554)"/><path class="cls-11" d="M2236.48,1295.34a430.85,430.85,0,0,1-5,63.46c-.45,2.94-5.06,2.3-4.6-.65a424.74,424.74,0,0,0,5-62.22c0-2.94,4.6-3.59,4.6-.59Z" transform="translate(-1957.55 -554)"/><path class="cls-11" d="M2142.51,1313.27l19.78,3c2.95.42,2.3,5-.64,4.6-6.58-1-13.19-2-19.78-2.94-3-.43-2.33-5,.64-4.61Z" transform="translate(-1957.55 -554)"/><path class="cls-11" d="M2149.9,1332.57l8.06.64a2.32,2.32,0,1,1-.65,4.6l-8-.64a2.32,2.32,0,1,1,.64-4.6Z" transform="translate(-1957.55 -554)"/><path class="cls-11" d="M2103.76,1329.41a17.41,17.41,0,0,0,2.68,1.07c.1,0,.88.24.34.11.19.05.38.1.57.13a10.5,10.5,0,0,0,1.42.27,19.64,19.64,0,0,0,2.75.24h.32a3.63,3.63,0,0,0,.57,0c.5,0,1-.08,1.52-.13a2.34,2.34,0,0,1,2.6,2,2.37,2.37,0,0,1-2,2.59,22.42,22.42,0,0,1-12.58-2,2.32,2.32,0,1,1,1.82-4.26Z" transform="translate(-1957.55 -554)"/><path class="cls-11" d="M2089,1301.9a4.65,4.65,0,0,1,1.61-1.9,5.3,5.3,0,0,1,2.38-.89,5.18,5.18,0,0,1,4.55,1.77,2.38,2.38,0,0,1,.46,1.74,2.49,2.49,0,0,1-.89,1.53,2.38,2.38,0,0,1-3.26-.43.94.94,0,0,1-.14-.16l.43.42a1.84,1.84,0,0,0-.45-.34c.16.1.35.18.51.29a2.54,2.54,0,0,0-.65-.27l.59.16a2.74,2.74,0,0,0-.8-.1h.61a3.09,3.09,0,0,0-.85.1l.61-.16a2.87,2.87,0,0,0-.75.32c.17-.1.35-.21.51-.29a4.49,4.49,0,0,0-.51.38l.43-.43a2.18,2.18,0,0,0-.35.45c.11-.16.19-.35.3-.51l-.08.14A2.67,2.67,0,0,1,2092,1305a2.48,2.48,0,0,1-1.8,0,2.35,2.35,0,0,1-1.23-1.23,2.59,2.59,0,0,1,0-1.82Z" transform="translate(-1957.55 -554)"/><path class="cls-7" d="M2023.87,1325.77a72.38,72.38,0,0,0-9.12,22.56,2.38,2.38,0,0,1-2.63,2,2.34,2.34,0,0,1-2-2.62,79.23,79.23,0,0,1,10-24.76,2.33,2.33,0,0,1,3.69,2.84Z" transform="translate(-1957.55 -554)"/><path class="cls-7" d="M2037.65,1334.36a61.05,61.05,0,0,0-7.14,23.15c-.3,3-4.9,2.33-4.6-.64a64,64,0,0,1,7.46-24.33,2.33,2.33,0,0,1,4.28,1.82Z" transform="translate(-1957.55 -554)"/><path class="cls-7" d="M2274.11,1314.18a232.91,232.91,0,0,0-13.41,33.48c-.88,2.87-5.16,1-4.28-1.82a230.62,230.62,0,0,1,13.41-33.48c1.34-2.65,5.62-.85,4.28,1.82Z" transform="translate(-1957.55 -554)"/><path class="cls-11" d="M2157.47,1354.51q-38.17-2.88-76.08-8.24c-12-1.71-24.17-3.37-36.08-5.83-10.73-2.22-21.55-5.46-30.7-11.73-9.42-6.45-17.07-16.27-18.47-27.86-.32-2.67-4.54-2.7-4.22,0,2.62,21.76,21.89,35.17,41.48,41,12.34,3.67,25.26,5.3,37.95,7.2q19.88,3,39.82,5.27,23.13,2.65,46.33,4.42c2.68.24,2.68-4,0-4.21Z" transform="translate(-1957.55 -554)"/><path class="cls-11" d="M2230.46,1279.63a1415.7,1415.7,0,0,1-151.56-12.12q-21.32-2.9-42.56-6.43c-2.65-.42-3.8,3.64-1.12,4.07A1419.42,1419.42,0,0,0,2186.78,1282q21.84,1.24,43.68,1.82c2.7.05,2.7-4.18,0-4.23Z" transform="translate(-1957.55 -554)"/></svg>